<?xml version="1.0" standalone="no" ?>
<!DOCTYPE svg PUBLIC "-//W3C//DTD SVG 1.1//EN" "http://www.w3.org/Graphics/SVG/1.1/DTD/svg11.dtd">
<svg width="1100px" height="649.619px" xmlns="http://www.w3.org/2000/svg" version="1.1" >
	<circle cx="50" cy="463.469" r="1" fill="rgb(0,0,0)" />
	<circle cx="51.4901" cy="556.184" r="1" fill="rgb(0,0,0)" />
	<circle cx="55.6291" cy="497.243" r="1" fill="rgb(0,0,0)" />
	<circle cx="59.9338" cy="231.018" r="1" fill="rgb(0,0,0)" />
	<circle cx="63.4106" cy="495.257" r="1" fill="rgb(0,0,0)" />
	<circle cx="77.4834" cy="444.098" r="1" fill="rgb(0,0,0)" />
	<circle cx="77.8146" cy="169.925" r="1" fill="rgb(0,0,0)" />
	<circle cx="96.5232" cy="596.747" r="1" fill="rgb(0,0,0)" />
	<circle cx="103.146" cy="490.786" r="1" fill="rgb(0,0,0)" />
	<circle cx="113.576" cy="611.482" r="1" fill="rgb(0,0,0)" />
	<circle cx="122.185" cy="593.601" r="1" fill="rgb(0,0,0)" />
	<circle cx="166.556" cy="137.144" r="1" fill="rgb(0,0,0)" />
	<circle cx="206.788" cy="345.753" r="1" fill="rgb(0,0,0)" />
	<circle cx="209.272" cy="226.051" r="1" fill="rgb(0,0,0)" />
	<circle cx="212.417" cy="450.555" r="1" fill="rgb(0,0,0)" />
	<circle cx="224.834" cy="442.442" r="1" fill="rgb(0,0,0)" />
	<circle cx="229.636" cy="165.786" r="1" fill="rgb(0,0,0)" />
	<circle cx="231.457" cy="185.985" r="1" fill="rgb(0,0,0)" />
	<circle cx="237.583" cy="193.601" r="1" fill="rgb(0,0,0)" />
	<circle cx="244.371" cy="196.416" r="1" fill="rgb(0,0,0)" />
	<circle cx="245.364" cy="574.23" r="1" fill="rgb(0,0,0)" />
	<circle cx="245.861" cy="221.084" r="1" fill="rgb(0,0,0)" />
	<circle cx="250.662" cy="540.29" r="1" fill="rgb(0,0,0)" />
	<circle cx="281.788" cy="450.72" r="1" fill="rgb(0,0,0)" />
	<circle cx="308.775" cy="493.767" r="1" fill="rgb(0,0,0)" />
	<circle cx="318.212" cy="337.31" r="1" fill="rgb(0,0,0)" />
	<circle cx="320.861" cy="302.873" r="1" fill="rgb(0,0,0)" />
	<circle cx="328.146" cy="404.528" r="1" fill="rgb(0,0,0)" />
	<circle cx="332.119" cy="306.184" r="1" fill="rgb(0,0,0)" />
	<circle cx="337.748" cy="307.012" r="1" fill="rgb(0,0,0)" />
	<circle cx="347.848" cy="246.747" r="1" fill="rgb(0,0,0)" />
	<circle cx="373.344" cy="225.886" r="1" fill="rgb(0,0,0)" />
	<circle cx="375.166" cy="246.912" r="1" fill="rgb(0,0,0)" />
	<circle cx="388.576" cy="282.508" r="1" fill="rgb(0,0,0)" />
	<circle cx="400.662" cy="260.323" r="1" fill="rgb(0,0,0)" />
	<circle cx="401.821" cy="620.091" r="1" fill="rgb(0,0,0)" />
	<circle cx="402.152" cy="240.621" r="1" fill="rgb(0,0,0)" />
	<circle cx="411.589" cy="208.833" r="1" fill="rgb(0,0,0)" />
	<circle cx="424.338" cy="311.316" r="1" fill="rgb(0,0,0)" />
	<circle cx="438.576" cy="248.402" r="1" fill="rgb(0,0,0)" />
	<circle cx="448.675" cy="430.025" r="1" fill="rgb(0,0,0)" />
	<circle cx="464.57" cy="235.985" r="1" fill="rgb(0,0,0)" />
	<circle cx="475.828" cy="398.733" r="1" fill="rgb(0,0,0)" />
	<circle cx="477.649" cy="285.323" r="1" fill="rgb(0,0,0)" />
	<circle cx="480.464" cy="70.5877" r="1" fill="rgb(0,0,0)" />
	<circle cx="485.762" cy="601.879" r="1" fill="rgb(0,0,0)" />
	<circle cx="510.927" cy="386.978" r="1" fill="rgb(0,0,0)" />
	<circle cx="513.907" cy="315.786" r="1" fill="rgb(0,0,0)" />
	<circle cx="516.887" cy="125.886" r="1" fill="rgb(0,0,0)" />
	<circle cx="518.543" cy="280.19" r="1" fill="rgb(0,0,0)" />
	<circle cx="530.96" cy="296.25" r="1" fill="rgb(0,0,0)" />
	<circle cx="538.245" cy="437.641" r="1" fill="rgb(0,0,0)" />
	<circle cx="553.477" cy="405.356" r="1" fill="rgb(0,0,0)" />
	<circle cx="555.132" cy="259.329" r="1" fill="rgb(0,0,0)" />
	<circle cx="565.066" cy="414.131" r="1" fill="rgb(0,0,0)" />
	<circle cx="566.06" cy="398.237" r="1" fill="rgb(0,0,0)" />
	<circle cx="568.046" cy="421.084" r="1" fill="rgb(0,0,0)" />
	<circle cx="600.166" cy="213.965" r="1" fill="rgb(0,0,0)" />
	<circle cx="611.921" cy="588.965" r="1" fill="rgb(0,0,0)" />
	<circle cx="621.689" cy="480.687" r="1" fill="rgb(0,0,0)" />
	<circle cx="622.351" cy="503.866" r="1" fill="rgb(0,0,0)" />
	<circle cx="658.278" cy="515.455" r="1" fill="rgb(0,0,0)" />
	<circle cx="660.099" cy="352.873" r="1" fill="rgb(0,0,0)" />
	<circle cx="662.417" cy="263.469" r="1" fill="rgb(0,0,0)" />
	<circle cx="663.079" cy="311.316" r="1" fill="rgb(0,0,0)" />
	<circle cx="676.159" cy="557.012" r="1" fill="rgb(0,0,0)" />
	<circle cx="679.967" cy="53.0381" r="1" fill="rgb(0,0,0)" />
	<circle cx="680.795" cy="324.727" r="1" fill="rgb(0,0,0)" />
	<circle cx="680.96" cy="253.369" r="1" fill="rgb(0,0,0)" />
	<circle cx="686.093" cy="31.1838" r="1" fill="rgb(0,0,0)" />
	<circle cx="700.497" cy="232.177" r="1" fill="rgb(0,0,0)" />
	<circle cx="719.536" cy="281.018" r="1" fill="rgb(0,0,0)" />
	<circle cx="721.026" cy="266.118" r="1" fill="rgb(0,0,0)" />
	<circle cx="725.331" cy="50.7202" r="1" fill="rgb(0,0,0)" />
	<circle cx="734.106" cy="273.568" r="1" fill="rgb(0,0,0)" />
	<circle cx="737.252" cy="260.82" r="1" fill="rgb(0,0,0)" />
	<circle cx="754.305" cy="265.786" r="1" fill="rgb(0,0,0)" />
	<circle cx="783.113" cy="266.118" r="1" fill="rgb(0,0,0)" />
	<circle cx="814.57" cy="210.82" r="1" fill="rgb(0,0,0)" />
	<circle cx="835.265" cy="605.025" r="1" fill="rgb(0,0,0)" />
	<circle cx="859.106" cy="574.23" r="1" fill="rgb(0,0,0)" />
	<circle cx="876.325" cy="46.0844" r="1" fill="rgb(0,0,0)" />
	<circle cx="881.126" cy="335.157" r="1" fill="rgb(0,0,0)" />
	<circle cx="888.411" cy="439.296" r="1" fill="rgb(0,0,0)" />
	<circle cx="913.079" cy="62.4752" r="1" fill="rgb(0,0,0)" />
	<circle cx="914.404" cy="414.793" r="1" fill="rgb(0,0,0)" />
	<circle cx="926.821" cy="44.2632" r="1" fill="rgb(0,0,0)" />
	<circle cx="960.265" cy="491.945" r="1" fill="rgb(0,0,0)" />
	<circle cx="978.311" cy="418.435" r="1" fill="rgb(0,0,0)" />
	<circle cx="979.305" cy="270.422" r="1" fill="rgb(0,0,0)" />
	<circle cx="987.583" cy="543.932" r="1" fill="rgb(0,0,0)" />
	<circle cx="994.702" cy="230.356" r="1" fill="rgb(0,0,0)" />
	<circle cx="998.675" cy="506.515" r="1" fill="rgb(0,0,0)" />
	<circle cx="1000.83" cy="560.654" r="1" fill="rgb(0,0,0)" />
	<circle cx="1002.15" cy="505.687" r="1" fill="rgb(0,0,0)" />
	<circle cx="1018.38" cy="264.627" r="1" fill="rgb(0,0,0)" />
	<circle cx="1020.53" cy="32.6738" r="1" fill="rgb(0,0,0)" />
	<circle cx="1021.36" cy="29.5281" r="1" fill="rgb(0,0,0)" />
	<circle cx="1032.28" cy="266.614" r="1" fill="rgb(0,0,0)" />
	<circle cx="1050" cy="55.8526" r="1" fill="rgb(0,0,0)" />
</svg>
