<?xml version="1.0" standalone="no" ?>
<!DOCTYPE svg PUBLIC "-//W3C//DTD SVG 1.1//EN" "http://www.w3.org/Graphics/SVG/1.1/DTD/svg11.dtd">
<svg width="1100px" height="660.721px" xmlns="http://www.w3.org/2000/svg" version="1.1" >
	<circle cx="50" cy="201.501" r="1" fill="rgb(0,0,0)" />
	<circle cx="120.381" cy="196.843" r="1" fill="rgb(0,0,0)" />
	<circle cx="127.281" cy="169.415" r="1" fill="rgb(0,0,0)" />
	<circle cx="129.006" cy="630.516" r="1" fill="rgb(0,0,0)" />
	<circle cx="131.939" cy="485.441" r="1" fill="rgb(0,0,0)" />
	<circle cx="150.914" cy="545.472" r="1" fill="rgb(0,0,0)" />
	<circle cx="233.198" cy="193.048" r="1" fill="rgb(0,0,0)" />
	<circle cx="244.411" cy="492.686" r="1" fill="rgb(0,0,0)" />
	<circle cx="259.246" cy="605.33" r="1" fill="rgb(0,0,0)" />
	<circle cx="278.912" cy="553.752" r="1" fill="rgb(0,0,0)" />
	<circle cx="285.122" cy="213.403" r="1" fill="rgb(0,0,0)" />
	<circle cx="340.668" cy="302.588" r="1" fill="rgb(0,0,0)" />
	<circle cx="367.923" cy="117.319" r="1" fill="rgb(0,0,0)" />
	<circle cx="371.028" cy="255.494" r="1" fill="rgb(0,0,0)" />
	<circle cx="374.651" cy="259.807" r="1" fill="rgb(0,0,0)" />
	<circle cx="379.998" cy="630.688" r="1" fill="rgb(0,0,0)" />
	<circle cx="433.129" cy="249.284" r="1" fill="rgb(0,0,0)" />
	<circle cx="433.819" cy="215.474" r="1" fill="rgb(0,0,0)" />
	<circle cx="440.719" cy="412.817" r="1" fill="rgb(0,0,0)" />
	<circle cx="441.754" cy="381.766" r="1" fill="rgb(0,0,0)" />
	<circle cx="443.824" cy="213.748" r="1" fill="rgb(0,0,0)" />
	<circle cx="455.727" cy="455.425" r="1" fill="rgb(0,0,0)" />
	<circle cx="468.492" cy="369.864" r="1" fill="rgb(0,0,0)" />
	<circle cx="482.293" cy="411.092" r="1" fill="rgb(0,0,0)" />
	<circle cx="485.743" cy="628.101" r="1" fill="rgb(0,0,0)" />
	<circle cx="512.826" cy="271.192" r="1" fill="rgb(0,0,0)" />
	<circle cx="514.033" cy="280.852" r="1" fill="rgb(0,0,0)" />
	<circle cx="526.971" cy="395.912" r="1" fill="rgb(0,0,0)" />
	<circle cx="559.746" cy="461.463" r="1" fill="rgb(0,0,0)" />
	<circle cx="562.161" cy="30.0328" r="1" fill="rgb(0,0,0)" />
	<circle cx="583.897" cy="389.012" r="1" fill="rgb(0,0,0)" />
	<circle cx="590.969" cy="408.504" r="1" fill="rgb(0,0,0)" />
	<circle cx="592.349" cy="219.096" r="1" fill="rgb(0,0,0)" />
	<circle cx="602.355" cy="84.1987" r="1" fill="rgb(0,0,0)" />
	<circle cx="605.805" cy="496.998" r="1" fill="rgb(0,0,0)" />
	<circle cx="630.128" cy="500.449" r="1" fill="rgb(0,0,0)" />
	<circle cx="630.99" cy="392.634" r="1" fill="rgb(0,0,0)" />
	<circle cx="632.37" cy="101.277" r="1" fill="rgb(0,0,0)" />
	<circle cx="652.036" cy="483.543" r="1" fill="rgb(0,0,0)" />
	<circle cx="683.431" cy="109.212" r="1" fill="rgb(0,0,0)" />
	<circle cx="711.894" cy="334.673" r="1" fill="rgb(0,0,0)" />
	<circle cx="724.487" cy="220.476" r="1" fill="rgb(0,0,0)" />
	<circle cx="731.732" cy="534.259" r="1" fill="rgb(0,0,0)" />
	<circle cx="758.125" cy="204.606" r="1" fill="rgb(0,0,0)" />
	<circle cx="766.06" cy="204.433" r="1" fill="rgb(0,0,0)" />
	<circle cx="766.923" cy="280.507" r="1" fill="rgb(0,0,0)" />
	<circle cx="772.96" cy="282.232" r="1" fill="rgb(0,0,0)" />
	<circle cx="787.105" cy="549.267" r="1" fill="rgb(0,0,0)" />
	<circle cx="794.868" cy="421.787" r="1" fill="rgb(0,0,0)" />
	<circle cx="801.251" cy="290.857" r="1" fill="rgb(0,0,0)" />
	<circle cx="809.531" cy="420.235" r="1" fill="rgb(0,0,0)" />
	<circle cx="825.919" cy="224.616" r="1" fill="rgb(0,0,0)" />
	<circle cx="826.609" cy="569.105" r="1" fill="rgb(0,0,0)" />
	<circle cx="834.716" cy="321.908" r="1" fill="rgb(0,0,0)" />
	<circle cx="927.35" cy="490.443" r="1" fill="rgb(0,0,0)" />
	<circle cx="931.49" cy="420.062" r="1" fill="rgb(0,0,0)" />
	<circle cx="959.608" cy="527.014" r="1" fill="rgb(0,0,0)" />
	<circle cx="967.889" cy="543.574" r="1" fill="rgb(0,0,0)" />
	<circle cx="1040.17" cy="205.296" r="1" fill="rgb(0,0,0)" />
	<circle cx="1050" cy="525.634" r="1" fill="rgb(0,0,0)" />
</svg>
