<?xml version="1.0" standalone="no" ?>
<!DOCTYPE svg PUBLIC "-//W3C//DTD SVG 1.1//EN" "http://www.w3.org/Graphics/SVG/1.1/DTD/svg11.dtd">
<svg width="1100px" height="622.217px" xmlns="http://www.w3.org/2000/svg" version="1.1" >
	<circle cx="50" cy="530.186" r="1" fill="rgb(0,0,0)" />
	<circle cx="52.5373" cy="533.991" r="1" fill="rgb(0,0,0)" />
	<circle cx="53.8059" cy="529.393" r="1" fill="rgb(0,0,0)" />
	<circle cx="56.9775" cy="527.648" r="1" fill="rgb(0,0,0)" />
	<circle cx="64.4307" cy="505.13" r="1" fill="rgb(0,0,0)" />
	<circle cx="66.968" cy="524.952" r="1" fill="rgb(0,0,0)" />
	<circle cx="67.6023" cy="520.988" r="1" fill="rgb(0,0,0)" />
	<circle cx="68.3952" cy="448.359" r="1" fill="rgb(0,0,0)" />
	<circle cx="68.8709" cy="477.696" r="1" fill="rgb(0,0,0)" />
	<circle cx="69.5052" cy="512.742" r="1" fill="rgb(0,0,0)" />
	<circle cx="69.5052" cy="492.919" r="1" fill="rgb(0,0,0)" />
	<circle cx="69.981" cy="187.337" r="1" fill="rgb(0,0,0)" />
	<circle cx="70.9324" cy="497.994" r="1" fill="rgb(0,0,0)" />
	<circle cx="72.3597" cy="436.941" r="1" fill="rgb(0,0,0)" />
	<circle cx="72.8354" cy="219.212" r="1" fill="rgb(0,0,0)" />
	<circle cx="72.994" cy="436.148" r="1" fill="rgb(0,0,0)" />
	<circle cx="73.1526" cy="570.782" r="1" fill="rgb(0,0,0)" />
	<circle cx="74.4212" cy="515.913" r="1" fill="rgb(0,0,0)" />
	<circle cx="75.3727" cy="471.194" r="1" fill="rgb(0,0,0)" />
	<circle cx="78.2271" cy="458.191" r="1" fill="rgb(0,0,0)" />
	<circle cx="81.7158" cy="475.159" r="1" fill="rgb(0,0,0)" />
	<circle cx="82.033" cy="425.682" r="1" fill="rgb(0,0,0)" />
	<circle cx="86.6318" cy="485.942" r="1" fill="rgb(0,0,0)" />
	<circle cx="87.2661" cy="572.685" r="1" fill="rgb(0,0,0)" />
	<circle cx="88.3761" cy="202.878" r="1" fill="rgb(0,0,0)" />
	<circle cx="96.4637" cy="499.58" r="1" fill="rgb(0,0,0)" />
	<circle cx="102.807" cy="473.256" r="1" fill="rgb(0,0,0)" />
	<circle cx="104.075" cy="492.919" r="1" fill="rgb(0,0,0)" />
	<circle cx="109.943" cy="176.078" r="1" fill="rgb(0,0,0)" />
	<circle cx="112.639" cy="533.357" r="1" fill="rgb(0,0,0)" />
	<circle cx="121.836" cy="580.772" r="1" fill="rgb(0,0,0)" />
	<circle cx="122.471" cy="580.455" r="1" fill="rgb(0,0,0)" />
	<circle cx="125.484" cy="505.447" r="1" fill="rgb(0,0,0)" />
	<circle cx="126.594" cy="183.056" r="1" fill="rgb(0,0,0)" />
	<circle cx="127.862" cy="178.774" r="1" fill="rgb(0,0,0)" />
	<circle cx="129.29" cy="190.192" r="1" fill="rgb(0,0,0)" />
	<circle cx="132.144" cy="417.594" r="1" fill="rgb(0,0,0)" />
	<circle cx="137.377" cy="416.484" r="1" fill="rgb(0,0,0)" />
	<circle cx="142.452" cy="156.732" r="1" fill="rgb(0,0,0)" />
	<circle cx="150.222" cy="540.335" r="1" fill="rgb(0,0,0)" />
	<circle cx="150.539" cy="589.494" r="1" fill="rgb(0,0,0)" />
	<circle cx="154.504" cy="260.76" r="1" fill="rgb(0,0,0)" />
	<circle cx="166.714" cy="551.435" r="1" fill="rgb(0,0,0)" />
	<circle cx="167.349" cy="302.783" r="1" fill="rgb(0,0,0)" />
	<circle cx="168.141" cy="480.233" r="1" fill="rgb(0,0,0)" />
	<circle cx="168.141" cy="434.562" r="1" fill="rgb(0,0,0)" />
	<circle cx="171.472" cy="124.382" r="1" fill="rgb(0,0,0)" />
	<circle cx="172.265" cy="559.364" r="1" fill="rgb(0,0,0)" />
	<circle cx="173.216" cy="316.897" r="1" fill="rgb(0,0,0)" />
	<circle cx="174.643" cy="510.522" r="1" fill="rgb(0,0,0)" />
	<circle cx="175.278" cy="125.492" r="1" fill="rgb(0,0,0)" />
	<circle cx="176.229" cy="436.148" r="1" fill="rgb(0,0,0)" />
	<circle cx="176.388" cy="487.845" r="1" fill="rgb(0,0,0)" />
	<circle cx="178.291" cy="487.052" r="1" fill="rgb(0,0,0)" />
	<circle cx="180.511" cy="421.559" r="1" fill="rgb(0,0,0)" />
	<circle cx="181.304" cy="505.923" r="1" fill="rgb(0,0,0)" />
	<circle cx="183.048" cy="492.127" r="1" fill="rgb(0,0,0)" />
	<circle cx="183.365" cy="548.422" r="1" fill="rgb(0,0,0)" />
	<circle cx="183.365" cy="227.141" r="1" fill="rgb(0,0,0)" />
	<circle cx="183.365" cy="129.932" r="1" fill="rgb(0,0,0)" />
	<circle cx="184.634" cy="521.147" r="1" fill="rgb(0,0,0)" />
	<circle cx="185.585" cy="122.003" r="1" fill="rgb(0,0,0)" />
	<circle cx="186.537" cy="491.809" r="1" fill="rgb(0,0,0)" />
	<circle cx="187.33" cy="120.576" r="1" fill="rgb(0,0,0)" />
	<circle cx="187.488" cy="508.777" r="1" fill="rgb(0,0,0)" />
	<circle cx="188.44" cy="547.629" r="1" fill="rgb(0,0,0)" />
	<circle cx="188.757" cy="569.513" r="1" fill="rgb(0,0,0)" />
	<circle cx="194.624" cy="500.214" r="1" fill="rgb(0,0,0)" />
	<circle cx="195.734" cy="487.211" r="1" fill="rgb(0,0,0)" />
	<circle cx="197.796" cy="516.865" r="1" fill="rgb(0,0,0)" />
	<circle cx="199.382" cy="485.149" r="1" fill="rgb(0,0,0)" />
	<circle cx="200.65" cy="82.5167" r="1" fill="rgb(0,0,0)" />
	<circle cx="202.87" cy="183.69" r="1" fill="rgb(0,0,0)" />
	<circle cx="203.187" cy="317.69" r="1" fill="rgb(0,0,0)" />
	<circle cx="203.822" cy="123.589" r="1" fill="rgb(0,0,0)" />
	<circle cx="210.641" cy="226.189" r="1" fill="rgb(0,0,0)" />
	<circle cx="211.116" cy="130.566" r="1" fill="rgb(0,0,0)" />
	<circle cx="211.751" cy="179.091" r="1" fill="rgb(0,0,0)" />
	<circle cx="216.35" cy="428.219" r="1" fill="rgb(0,0,0)" />
	<circle cx="217.301" cy="186.545" r="1" fill="rgb(0,0,0)" />
	<circle cx="217.46" cy="200.5" r="1" fill="rgb(0,0,0)" />
	<circle cx="219.204" cy="172.907" r="1" fill="rgb(0,0,0)" />
	<circle cx="219.838" cy="193.998" r="1" fill="rgb(0,0,0)" />
	<circle cx="223.803" cy="324.984" r="1" fill="rgb(0,0,0)" />
	<circle cx="224.278" cy="193.681" r="1" fill="rgb(0,0,0)" />
	<circle cx="225.706" cy="232.691" r="1" fill="rgb(0,0,0)" />
	<circle cx="225.864" cy="427.109" r="1" fill="rgb(0,0,0)" />
	<circle cx="228.719" cy="247.28" r="1" fill="rgb(0,0,0)" />
	<circle cx="229.829" cy="173.224" r="1" fill="rgb(0,0,0)" />
	<circle cx="230.622" cy="175.92" r="1" fill="rgb(0,0,0)" />
	<circle cx="232.366" cy="152.291" r="1" fill="rgb(0,0,0)" />
	<circle cx="232.683" cy="207.318" r="1" fill="rgb(0,0,0)" />
	<circle cx="233" cy="167.832" r="1" fill="rgb(0,0,0)" />
	<circle cx="233.476" cy="331.327" r="1" fill="rgb(0,0,0)" />
	<circle cx="233.476" cy="173.541" r="1" fill="rgb(0,0,0)" />
	<circle cx="234.745" cy="452.958" r="1" fill="rgb(0,0,0)" />
	<circle cx="237.123" cy="436.624" r="1" fill="rgb(0,0,0)" />
	<circle cx="238.551" cy="222.859" r="1" fill="rgb(0,0,0)" />
	<circle cx="239.502" cy="151.816" r="1" fill="rgb(0,0,0)" />
	<circle cx="240.771" cy="187.813" r="1" fill="rgb(0,0,0)" />
	<circle cx="240.929" cy="177.823" r="1" fill="rgb(0,0,0)" />
	<circle cx="241.088" cy="543.823" r="1" fill="rgb(0,0,0)" />
	<circle cx="242.039" cy="210.807" r="1" fill="rgb(0,0,0)" />
	<circle cx="242.832" cy="195.108" r="1" fill="rgb(0,0,0)" />
	<circle cx="242.991" cy="167.991" r="1" fill="rgb(0,0,0)" />
	<circle cx="243.625" cy="539.859" r="1" fill="rgb(0,0,0)" />
	<circle cx="244.101" cy="200.5" r="1" fill="rgb(0,0,0)" />
	<circle cx="245.369" cy="177.347" r="1" fill="rgb(0,0,0)" />
	<circle cx="254.408" cy="463.899" r="1" fill="rgb(0,0,0)" />
	<circle cx="254.726" cy="221.591" r="1" fill="rgb(0,0,0)" />
	<circle cx="255.836" cy="389.05" r="1" fill="rgb(0,0,0)" />
	<circle cx="256.47" cy="215.089" r="1" fill="rgb(0,0,0)" />
	<circle cx="258.214" cy="231.105" r="1" fill="rgb(0,0,0)" />
	<circle cx="259.8" cy="189.24" r="1" fill="rgb(0,0,0)" />
	<circle cx="261.862" cy="234.594" r="1" fill="rgb(0,0,0)" />
	<circle cx="261.862" cy="220.956" r="1" fill="rgb(0,0,0)" />
	<circle cx="262.337" cy="508.143" r="1" fill="rgb(0,0,0)" />
	<circle cx="262.655" cy="513.218" r="1" fill="rgb(0,0,0)" />
	<circle cx="262.972" cy="226.031" r="1" fill="rgb(0,0,0)" />
	<circle cx="262.972" cy="208.111" r="1" fill="rgb(0,0,0)" />
	<circle cx="264.24" cy="388.257" r="1" fill="rgb(0,0,0)" />
	<circle cx="264.875" cy="384.451" r="1" fill="rgb(0,0,0)" />
	<circle cx="265.985" cy="422.035" r="1" fill="rgb(0,0,0)" />
	<circle cx="266.461" cy="520.671" r="1" fill="rgb(0,0,0)" />
	<circle cx="266.936" cy="518.926" r="1" fill="rgb(0,0,0)" />
	<circle cx="266.936" cy="221.115" r="1" fill="rgb(0,0,0)" />
	<circle cx="269.474" cy="511.156" r="1" fill="rgb(0,0,0)" />
	<circle cx="274.548" cy="500.373" r="1" fill="rgb(0,0,0)" />
	<circle cx="274.548" cy="230.471" r="1" fill="rgb(0,0,0)" />
	<circle cx="275.024" cy="383.5" r="1" fill="rgb(0,0,0)" />
	<circle cx="276.451" cy="225.872" r="1" fill="rgb(0,0,0)" />
	<circle cx="277.402" cy="534.15" r="1" fill="rgb(0,0,0)" />
	<circle cx="277.561" cy="533.199" r="1" fill="rgb(0,0,0)" />
	<circle cx="279.305" cy="387.781" r="1" fill="rgb(0,0,0)" />
	<circle cx="282.16" cy="187.179" r="1" fill="rgb(0,0,0)" />
	<circle cx="283.428" cy="343.855" r="1" fill="rgb(0,0,0)" />
	<circle cx="285.014" cy="208.428" r="1" fill="rgb(0,0,0)" />
	<circle cx="287.393" cy="440.905" r="1" fill="rgb(0,0,0)" />
	<circle cx="289.296" cy="416.009" r="1" fill="rgb(0,0,0)" />
	<circle cx="289.93" cy="205.098" r="1" fill="rgb(0,0,0)" />
	<circle cx="291.04" cy="411.886" r="1" fill="rgb(0,0,0)" />
	<circle cx="291.675" cy="292.951" r="1" fill="rgb(0,0,0)" />
	<circle cx="293.895" cy="305.003" r="1" fill="rgb(0,0,0)" />
	<circle cx="296.749" cy="284.546" r="1" fill="rgb(0,0,0)" />
	<circle cx="301.507" cy="277.728" r="1" fill="rgb(0,0,0)" />
	<circle cx="302.299" cy="203.83" r="1" fill="rgb(0,0,0)" />
	<circle cx="308.167" cy="199.548" r="1" fill="rgb(0,0,0)" />
	<circle cx="309.118" cy="381.438" r="1" fill="rgb(0,0,0)" />
	<circle cx="310.546" cy="296.757" r="1" fill="rgb(0,0,0)" />
	<circle cx="316.254" cy="341.318" r="1" fill="rgb(0,0,0)" />
	<circle cx="317.682" cy="461.679" r="1" fill="rgb(0,0,0)" />
	<circle cx="320.695" cy="274.873" r="1" fill="rgb(0,0,0)" />
	<circle cx="321.329" cy="288.352" r="1" fill="rgb(0,0,0)" />
	<circle cx="324.342" cy="310.553" r="1" fill="rgb(0,0,0)" />
	<circle cx="326.403" cy="467.388" r="1" fill="rgb(0,0,0)" />
	<circle cx="326.403" cy="409.983" r="1" fill="rgb(0,0,0)" />
	<circle cx="327.672" cy="467.388" r="1" fill="rgb(0,0,0)" />
	<circle cx="327.672" cy="273.922" r="1" fill="rgb(0,0,0)" />
	<circle cx="328.941" cy="461.204" r="1" fill="rgb(0,0,0)" />
	<circle cx="330.526" cy="111.537" r="1" fill="rgb(0,0,0)" />
	<circle cx="330.685" cy="288.194" r="1" fill="rgb(0,0,0)" />
	<circle cx="330.844" cy="301.673" r="1" fill="rgb(0,0,0)" />
	<circle cx="334.174" cy="297.867" r="1" fill="rgb(0,0,0)" />
	<circle cx="334.491" cy="265.676" r="1" fill="rgb(0,0,0)" />
	<circle cx="335.601" cy="268.53" r="1" fill="rgb(0,0,0)" />
	<circle cx="336.87" cy="291.207" r="1" fill="rgb(0,0,0)" />
	<circle cx="338.773" cy="387.94" r="1" fill="rgb(0,0,0)" />
	<circle cx="338.931" cy="584.261" r="1" fill="rgb(0,0,0)" />
	<circle cx="339.09" cy="275.983" r="1" fill="rgb(0,0,0)" />
	<circle cx="341.151" cy="509.729" r="1" fill="rgb(0,0,0)" />
	<circle cx="342.578" cy="581.407" r="1" fill="rgb(0,0,0)" />
	<circle cx="342.578" cy="267.42" r="1" fill="rgb(0,0,0)" />
	<circle cx="345.116" cy="326.887" r="1" fill="rgb(0,0,0)" />
	<circle cx="345.274" cy="251.403" r="1" fill="rgb(0,0,0)" />
	<circle cx="345.75" cy="253.148" r="1" fill="rgb(0,0,0)" />
	<circle cx="346.702" cy="450.579" r="1" fill="rgb(0,0,0)" />
	<circle cx="346.702" cy="236.338" r="1" fill="rgb(0,0,0)" />
	<circle cx="348.287" cy="246.012" r="1" fill="rgb(0,0,0)" />
	<circle cx="351.935" cy="235.546" r="1" fill="rgb(0,0,0)" />
	<circle cx="352.252" cy="422.827" r="1" fill="rgb(0,0,0)" />
	<circle cx="352.252" cy="246.17" r="1" fill="rgb(0,0,0)" />
	<circle cx="352.41" cy="256.478" r="1" fill="rgb(0,0,0)" />
	<circle cx="353.996" cy="253.148" r="1" fill="rgb(0,0,0)" />
	<circle cx="356.058" cy="260.125" r="1" fill="rgb(0,0,0)" />
	<circle cx="356.375" cy="236.973" r="1" fill="rgb(0,0,0)" />
	<circle cx="359.071" cy="231.898" r="1" fill="rgb(0,0,0)" />
	<circle cx="359.705" cy="243.95" r="1" fill="rgb(0,0,0)" />
	<circle cx="360.181" cy="236.973" r="1" fill="rgb(0,0,0)" />
	<circle cx="361.291" cy="314.518" r="1" fill="rgb(0,0,0)" />
	<circle cx="361.449" cy="286.767" r="1" fill="rgb(0,0,0)" />
	<circle cx="363.035" cy="225.079" r="1" fill="rgb(0,0,0)" />
	<circle cx="363.194" cy="418.863" r="1" fill="rgb(0,0,0)" />
	<circle cx="364.462" cy="229.678" r="1" fill="rgb(0,0,0)" />
	<circle cx="368.11" cy="258.222" r="1" fill="rgb(0,0,0)" />
	<circle cx="369.061" cy="252.355" r="1" fill="rgb(0,0,0)" />
	<circle cx="375.722" cy="241.413" r="1" fill="rgb(0,0,0)" />
	<circle cx="378.735" cy="210.966" r="1" fill="rgb(0,0,0)" />
	<circle cx="379.369" cy="411.886" r="1" fill="rgb(0,0,0)" />
	<circle cx="379.527" cy="234.277" r="1" fill="rgb(0,0,0)" />
	<circle cx="379.686" cy="407.604" r="1" fill="rgb(0,0,0)" />
	<circle cx="380.162" cy="420.766" r="1" fill="rgb(0,0,0)" />
	<circle cx="381.113" cy="253.465" r="1" fill="rgb(0,0,0)" />
	<circle cx="381.906" cy="240.937" r="1" fill="rgb(0,0,0)" />
	<circle cx="383.175" cy="400.151" r="1" fill="rgb(0,0,0)" />
	<circle cx="383.175" cy="232.691" r="1" fill="rgb(0,0,0)" />
	<circle cx="383.65" cy="370.972" r="1" fill="rgb(0,0,0)" />
	<circle cx="383.809" cy="255.526" r="1" fill="rgb(0,0,0)" />
	<circle cx="384.443" cy="210.966" r="1" fill="rgb(0,0,0)" />
	<circle cx="385.871" cy="204.781" r="1" fill="rgb(0,0,0)" />
	<circle cx="388.408" cy="362.885" r="1" fill="rgb(0,0,0)" />
	<circle cx="389.042" cy="363.836" r="1" fill="rgb(0,0,0)" />
	<circle cx="389.518" cy="250.928" r="1" fill="rgb(0,0,0)" />
	<circle cx="389.518" cy="220.798" r="1" fill="rgb(0,0,0)" />
	<circle cx="392.214" cy="214.93" r="1" fill="rgb(0,0,0)" />
	<circle cx="392.848" cy="407.287" r="1" fill="rgb(0,0,0)" />
	<circle cx="393.165" cy="217.309" r="1" fill="rgb(0,0,0)" />
	<circle cx="393.482" cy="407.287" r="1" fill="rgb(0,0,0)" />
	<circle cx="394.751" cy="257.112" r="1" fill="rgb(0,0,0)" />
	<circle cx="395.227" cy="407.445" r="1" fill="rgb(0,0,0)" />
	<circle cx="395.385" cy="236.021" r="1" fill="rgb(0,0,0)" />
	<circle cx="395.703" cy="330.217" r="1" fill="rgb(0,0,0)" />
	<circle cx="399.191" cy="593.934" r="1" fill="rgb(0,0,0)" />
	<circle cx="401.887" cy="332.913" r="1" fill="rgb(0,0,0)" />
	<circle cx="401.887" cy="256.002" r="1" fill="rgb(0,0,0)" />
	<circle cx="402.839" cy="363.836" r="1" fill="rgb(0,0,0)" />
	<circle cx="402.997" cy="425.048" r="1" fill="rgb(0,0,0)" />
	<circle cx="403.79" cy="235.228" r="1" fill="rgb(0,0,0)" />
	<circle cx="405.852" cy="211.759" r="1" fill="rgb(0,0,0)" />
	<circle cx="406.169" cy="425.048" r="1" fill="rgb(0,0,0)" />
	<circle cx="406.962" cy="58.0955" r="1" fill="rgb(0,0,0)" />
	<circle cx="407.913" cy="246.012" r="1" fill="rgb(0,0,0)" />
	<circle cx="408.547" cy="272.653" r="1" fill="rgb(0,0,0)" />
	<circle cx="409.499" cy="250.769" r="1" fill="rgb(0,0,0)" />
	<circle cx="412.67" cy="350.515" r="1" fill="rgb(0,0,0)" />
	<circle cx="412.67" cy="280.899" r="1" fill="rgb(0,0,0)" />
	<circle cx="413.463" cy="426.951" r="1" fill="rgb(0,0,0)" />
	<circle cx="414.256" cy="219.37" r="1" fill="rgb(0,0,0)" />
	<circle cx="414.415" cy="194.315" r="1" fill="rgb(0,0,0)" />
	<circle cx="415.366" cy="221.591" r="1" fill="rgb(0,0,0)" />
	<circle cx="415.525" cy="287.401" r="1" fill="rgb(0,0,0)" />
	<circle cx="416.635" cy="428.853" r="1" fill="rgb(0,0,0)" />
	<circle cx="417.428" cy="274.397" r="1" fill="rgb(0,0,0)" />
	<circle cx="417.428" cy="63.3286" r="1" fill="rgb(0,0,0)" />
	<circle cx="418.696" cy="587.75" r="1" fill="rgb(0,0,0)" />
	<circle cx="420.282" cy="331.327" r="1" fill="rgb(0,0,0)" />
	<circle cx="421.392" cy="281.692" r="1" fill="rgb(0,0,0)" />
	<circle cx="422.978" cy="198.914" r="1" fill="rgb(0,0,0)" />
	<circle cx="423.137" cy="229.361" r="1" fill="rgb(0,0,0)" />
	<circle cx="424.405" cy="590.128" r="1" fill="rgb(0,0,0)" />
	<circle cx="424.405" cy="233.643" r="1" fill="rgb(0,0,0)" />
	<circle cx="425.991" cy="234.594" r="1" fill="rgb(0,0,0)" />
	<circle cx="427.894" cy="307.223" r="1" fill="rgb(0,0,0)" />
	<circle cx="429.004" cy="230.312" r="1" fill="rgb(0,0,0)" />
	<circle cx="430.748" cy="351.625" r="1" fill="rgb(0,0,0)" />
	<circle cx="431.224" cy="587.75" r="1" fill="rgb(0,0,0)" />
	<circle cx="434.079" cy="236.338" r="1" fill="rgb(0,0,0)" />
	<circle cx="436.775" cy="281.375" r="1" fill="rgb(0,0,0)" />
	<circle cx="437.25" cy="239.669" r="1" fill="rgb(0,0,0)" />
	<circle cx="439.629" cy="185.435" r="1" fill="rgb(0,0,0)" />
	<circle cx="440.263" cy="240.144" r="1" fill="rgb(0,0,0)" />
	<circle cx="444.069" cy="231.264" r="1" fill="rgb(0,0,0)" />
	<circle cx="445.338" cy="412.044" r="1" fill="rgb(0,0,0)" />
	<circle cx="445.496" cy="417.119" r="1" fill="rgb(0,0,0)" />
	<circle cx="448.351" cy="366.532" r="1" fill="rgb(0,0,0)" />
	<circle cx="449.144" cy="255.685" r="1" fill="rgb(0,0,0)" />
	<circle cx="451.364" cy="327.997" r="1" fill="rgb(0,0,0)" />
	<circle cx="452.474" cy="192.253" r="1" fill="rgb(0,0,0)" />
	<circle cx="454.694" cy="299.294" r="1" fill="rgb(0,0,0)" />
	<circle cx="454.853" cy="322.605" r="1" fill="rgb(0,0,0)" />
	<circle cx="455.645" cy="355.59" r="1" fill="rgb(0,0,0)" />
	<circle cx="455.804" cy="277.728" r="1" fill="rgb(0,0,0)" />
	<circle cx="457.231" cy="226.982" r="1" fill="rgb(0,0,0)" />
	<circle cx="458.341" cy="579.186" r="1" fill="rgb(0,0,0)" />
	<circle cx="459.293" cy="275.507" r="1" fill="rgb(0,0,0)" />
	<circle cx="459.451" cy="210.49" r="1" fill="rgb(0,0,0)" />
	<circle cx="460.879" cy="273.922" r="1" fill="rgb(0,0,0)" />
	<circle cx="461.513" cy="322.605" r="1" fill="rgb(0,0,0)" />
	<circle cx="463.892" cy="374.302" r="1" fill="rgb(0,0,0)" />
	<circle cx="465.794" cy="210.331" r="1" fill="rgb(0,0,0)" />
	<circle cx="466.429" cy="409.507" r="1" fill="rgb(0,0,0)" />
	<circle cx="466.905" cy="410.3" r="1" fill="rgb(0,0,0)" />
	<circle cx="469.125" cy="282.009" r="1" fill="rgb(0,0,0)" />
	<circle cx="469.125" cy="255.368" r="1" fill="rgb(0,0,0)" />
	<circle cx="472.613" cy="382.707" r="1" fill="rgb(0,0,0)" />
	<circle cx="472.613" cy="356.541" r="1" fill="rgb(0,0,0)" />
	<circle cx="472.931" cy="379.377" r="1" fill="rgb(0,0,0)" />
	<circle cx="473.406" cy="336.085" r="1" fill="rgb(0,0,0)" />
	<circle cx="473.723" cy="403.639" r="1" fill="rgb(0,0,0)" />
	<circle cx="474.675" cy="262.028" r="1" fill="rgb(0,0,0)" />
	<circle cx="475.785" cy="279.472" r="1" fill="rgb(0,0,0)" />
	<circle cx="476.102" cy="370.655" r="1" fill="rgb(0,0,0)" />
	<circle cx="476.419" cy="327.363" r="1" fill="rgb(0,0,0)" />
	<circle cx="476.736" cy="287.718" r="1" fill="rgb(0,0,0)" />
	<circle cx="478.481" cy="357.969" r="1" fill="rgb(0,0,0)" />
	<circle cx="478.639" cy="325.618" r="1" fill="rgb(0,0,0)" />
	<circle cx="479.115" cy="452.006" r="1" fill="rgb(0,0,0)" />
	<circle cx="479.115" cy="181.629" r="1" fill="rgb(0,0,0)" />
	<circle cx="479.432" cy="277.728" r="1" fill="rgb(0,0,0)" />
	<circle cx="480.225" cy="373.034" r="1" fill="rgb(0,0,0)" />
	<circle cx="480.859" cy="380.011" r="1" fill="rgb(0,0,0)" />
	<circle cx="482.128" cy="384.927" r="1" fill="rgb(0,0,0)" />
	<circle cx="492.119" cy="516.231" r="1" fill="rgb(0,0,0)" />
	<circle cx="493.546" cy="296.916" r="1" fill="rgb(0,0,0)" />
	<circle cx="494.814" cy="296.916" r="1" fill="rgb(0,0,0)" />
	<circle cx="495.29" cy="286.132" r="1" fill="rgb(0,0,0)" />
	<circle cx="497.827" cy="383.024" r="1" fill="rgb(0,0,0)" />
	<circle cx="498.145" cy="293.427" r="1" fill="rgb(0,0,0)" />
	<circle cx="499.255" cy="439.637" r="1" fill="rgb(0,0,0)" />
	<circle cx="499.73" cy="441.223" r="1" fill="rgb(0,0,0)" />
	<circle cx="501.475" cy="481.026" r="1" fill="rgb(0,0,0)" />
	<circle cx="504.171" cy="368.593" r="1" fill="rgb(0,0,0)" />
	<circle cx="505.281" cy="35.7358" r="1" fill="rgb(0,0,0)" />
	<circle cx="507.184" cy="34.15" r="1" fill="rgb(0,0,0)" />
	<circle cx="507.659" cy="212.076" r="1" fill="rgb(0,0,0)" />
	<circle cx="510.672" cy="118.673" r="1" fill="rgb(0,0,0)" />
	<circle cx="510.99" cy="180.994" r="1" fill="rgb(0,0,0)" />
	<circle cx="511.307" cy="210.649" r="1" fill="rgb(0,0,0)" />
	<circle cx="511.465" cy="378.901" r="1" fill="rgb(0,0,0)" />
	<circle cx="511.782" cy="578.394" r="1" fill="rgb(0,0,0)" />
	<circle cx="511.782" cy="208.428" r="1" fill="rgb(0,0,0)" />
	<circle cx="512.575" cy="402.846" r="1" fill="rgb(0,0,0)" />
	<circle cx="512.575" cy="379.06" r="1" fill="rgb(0,0,0)" />
	<circle cx="513.844" cy="573.319" r="1" fill="rgb(0,0,0)" />
	<circle cx="514.795" cy="241.73" r="1" fill="rgb(0,0,0)" />
	<circle cx="515.113" cy="205.891" r="1" fill="rgb(0,0,0)" />
	<circle cx="515.905" cy="386.354" r="1" fill="rgb(0,0,0)" />
	<circle cx="517.016" cy="207.318" r="1" fill="rgb(0,0,0)" />
	<circle cx="517.808" cy="46.0435" r="1" fill="rgb(0,0,0)" />
	<circle cx="517.967" cy="381.914" r="1" fill="rgb(0,0,0)" />
	<circle cx="519.236" cy="579.662" r="1" fill="rgb(0,0,0)" />
	<circle cx="519.394" cy="318.958" r="1" fill="rgb(0,0,0)" />
	<circle cx="519.87" cy="393.966" r="1" fill="rgb(0,0,0)" />
	<circle cx="519.87" cy="41.9204" r="1" fill="rgb(0,0,0)" />
	<circle cx="520.98" cy="349.722" r="1" fill="rgb(0,0,0)" />
	<circle cx="520.98" cy="209.063" r="1" fill="rgb(0,0,0)" />
	<circle cx="522.566" cy="367.325" r="1" fill="rgb(0,0,0)" />
	<circle cx="522.724" cy="219.37" r="1" fill="rgb(0,0,0)" />
	<circle cx="522.724" cy="213.979" r="1" fill="rgb(0,0,0)" />
	<circle cx="524.469" cy="582.834" r="1" fill="rgb(0,0,0)" />
	<circle cx="525.103" cy="385.086" r="1" fill="rgb(0,0,0)" />
	<circle cx="526.689" cy="372.875" r="1" fill="rgb(0,0,0)" />
	<circle cx="530.019" cy="32.7228" r="1" fill="rgb(0,0,0)" />
	<circle cx="530.495" cy="242.523" r="1" fill="rgb(0,0,0)" />
	<circle cx="531.446" cy="303.893" r="1" fill="rgb(0,0,0)" />
	<circle cx="531.605" cy="39.2245" r="1" fill="rgb(0,0,0)" />
	<circle cx="531.922" cy="28.2826" r="1" fill="rgb(0,0,0)" />
	<circle cx="533.508" cy="385.086" r="1" fill="rgb(0,0,0)" />
	<circle cx="534.142" cy="386.513" r="1" fill="rgb(0,0,0)" />
	<circle cx="534.459" cy="31.9299" r="1" fill="rgb(0,0,0)" />
	<circle cx="535.886" cy="396.662" r="1" fill="rgb(0,0,0)" />
	<circle cx="539.534" cy="413.154" r="1" fill="rgb(0,0,0)" />
	<circle cx="542.547" cy="412.044" r="1" fill="rgb(0,0,0)" />
	<circle cx="544.767" cy="399.992" r="1" fill="rgb(0,0,0)" />
	<circle cx="545.877" cy="394.6" r="1" fill="rgb(0,0,0)" />
	<circle cx="547.146" cy="294.854" r="1" fill="rgb(0,0,0)" />
	<circle cx="547.938" cy="49.3736" r="1" fill="rgb(0,0,0)" />
	<circle cx="548.097" cy="377.315" r="1" fill="rgb(0,0,0)" />
	<circle cx="548.731" cy="353.37" r="1" fill="rgb(0,0,0)" />
	<circle cx="552.22" cy="365.739" r="1" fill="rgb(0,0,0)" />
	<circle cx="552.379" cy="212.552" r="1" fill="rgb(0,0,0)" />
	<circle cx="552.696" cy="308.492" r="1" fill="rgb(0,0,0)" />
	<circle cx="554.123" cy="374.144" r="1" fill="rgb(0,0,0)" />
	<circle cx="554.123" cy="211.283" r="1" fill="rgb(0,0,0)" />
	<circle cx="555.55" cy="423.62" r="1" fill="rgb(0,0,0)" />
	<circle cx="555.709" cy="274.239" r="1" fill="rgb(0,0,0)" />
	<circle cx="556.502" cy="183.214" r="1" fill="rgb(0,0,0)" />
	<circle cx="556.66" cy="234.911" r="1" fill="rgb(0,0,0)" />
	<circle cx="558.088" cy="69.3546" r="1" fill="rgb(0,0,0)" />
	<circle cx="559.515" cy="367.483" r="1" fill="rgb(0,0,0)" />
	<circle cx="563.003" cy="376.998" r="1" fill="rgb(0,0,0)" />
	<circle cx="564.748" cy="360.823" r="1" fill="rgb(0,0,0)" />
	<circle cx="565.224" cy="131.042" r="1" fill="rgb(0,0,0)" />
	<circle cx="565.541" cy="231.422" r="1" fill="rgb(0,0,0)" />
	<circle cx="565.699" cy="361.616" r="1" fill="rgb(0,0,0)" />
	<circle cx="566.334" cy="365.105" r="1" fill="rgb(0,0,0)" />
	<circle cx="566.492" cy="299.453" r="1" fill="rgb(0,0,0)" />
	<circle cx="566.651" cy="380.963" r="1" fill="rgb(0,0,0)" />
	<circle cx="566.651" cy="235.863" r="1" fill="rgb(0,0,0)" />
	<circle cx="568.871" cy="79.1865" r="1" fill="rgb(0,0,0)" />
	<circle cx="571.884" cy="76.3321" r="1" fill="rgb(0,0,0)" />
	<circle cx="572.201" cy="223.018" r="1" fill="rgb(0,0,0)" />
	<circle cx="572.677" cy="101.07" r="1" fill="rgb(0,0,0)" />
	<circle cx="574.104" cy="558.413" r="1" fill="rgb(0,0,0)" />
	<circle cx="580.13" cy="243.633" r="1" fill="rgb(0,0,0)" />
	<circle cx="580.447" cy="242.999" r="1" fill="rgb(0,0,0)" />
	<circle cx="580.606" cy="468.815" r="1" fill="rgb(0,0,0)" />
	<circle cx="581.082" cy="462.314" r="1" fill="rgb(0,0,0)" />
	<circle cx="581.557" cy="414.899" r="1" fill="rgb(0,0,0)" />
	<circle cx="583.143" cy="467.547" r="1" fill="rgb(0,0,0)" />
	<circle cx="584.095" cy="134.372" r="1" fill="rgb(0,0,0)" />
	<circle cx="584.729" cy="449.469" r="1" fill="rgb(0,0,0)" />
	<circle cx="585.046" cy="254.416" r="1" fill="rgb(0,0,0)" />
	<circle cx="585.839" cy="452.799" r="1" fill="rgb(0,0,0)" />
	<circle cx="586.949" cy="442.967" r="1" fill="rgb(0,0,0)" />
	<circle cx="587.742" cy="562.219" r="1" fill="rgb(0,0,0)" />
	<circle cx="588.693" cy="244.109" r="1" fill="rgb(0,0,0)" />
	<circle cx="589.645" cy="415.216" r="1" fill="rgb(0,0,0)" />
	<circle cx="589.803" cy="438.685" r="1" fill="rgb(0,0,0)" />
	<circle cx="591.548" cy="362.885" r="1" fill="rgb(0,0,0)" />
	<circle cx="592.499" cy="167.832" r="1" fill="rgb(0,0,0)" />
	<circle cx="592.658" cy="271.86" r="1" fill="rgb(0,0,0)" />
	<circle cx="592.816" cy="203.671" r="1" fill="rgb(0,0,0)" />
	<circle cx="593.134" cy="464.534" r="1" fill="rgb(0,0,0)" />
	<circle cx="593.768" cy="298.977" r="1" fill="rgb(0,0,0)" />
	<circle cx="594.085" cy="274.873" r="1" fill="rgb(0,0,0)" />
	<circle cx="594.402" cy="424.889" r="1" fill="rgb(0,0,0)" />
	<circle cx="594.878" cy="42.5547" r="1" fill="rgb(0,0,0)" />
	<circle cx="596.147" cy="362.25" r="1" fill="rgb(0,0,0)" />
	<circle cx="596.305" cy="548.422" r="1" fill="rgb(0,0,0)" />
	<circle cx="596.939" cy="257.429" r="1" fill="rgb(0,0,0)" />
	<circle cx="596.939" cy="226.665" r="1" fill="rgb(0,0,0)" />
	<circle cx="597.415" cy="467.071" r="1" fill="rgb(0,0,0)" />
	<circle cx="598.049" cy="424.413" r="1" fill="rgb(0,0,0)" />
	<circle cx="599.635" cy="291.207" r="1" fill="rgb(0,0,0)" />
	<circle cx="601.697" cy="569.989" r="1" fill="rgb(0,0,0)" />
	<circle cx="601.697" cy="438.844" r="1" fill="rgb(0,0,0)" />
	<circle cx="601.697" cy="435.831" r="1" fill="rgb(0,0,0)" />
	<circle cx="604.234" cy="380.963" r="1" fill="rgb(0,0,0)" />
	<circle cx="605.027" cy="368.752" r="1" fill="rgb(0,0,0)" />
	<circle cx="605.978" cy="94.2515" r="1" fill="rgb(0,0,0)" />
	<circle cx="608.04" cy="366.69" r="1" fill="rgb(0,0,0)" />
	<circle cx="608.674" cy="473.414" r="1" fill="rgb(0,0,0)" />
	<circle cx="611.212" cy="104.401" r="1" fill="rgb(0,0,0)" />
	<circle cx="611.687" cy="444.394" r="1" fill="rgb(0,0,0)" />
	<circle cx="615.969" cy="320.227" r="1" fill="rgb(0,0,0)" />
	<circle cx="616.127" cy="262.98" r="1" fill="rgb(0,0,0)" />
	<circle cx="616.445" cy="560.791" r="1" fill="rgb(0,0,0)" />
	<circle cx="618.823" cy="184.166" r="1" fill="rgb(0,0,0)" />
	<circle cx="619.933" cy="359.079" r="1" fill="rgb(0,0,0)" />
	<circle cx="620.568" cy="262.028" r="1" fill="rgb(0,0,0)" />
	<circle cx="622.312" cy="548.898" r="1" fill="rgb(0,0,0)" />
	<circle cx="624.532" cy="82.6752" r="1" fill="rgb(0,0,0)" />
	<circle cx="625.484" cy="481.819" r="1" fill="rgb(0,0,0)" />
	<circle cx="626.277" cy="336.719" r="1" fill="rgb(0,0,0)" />
	<circle cx="627.387" cy="117.245" r="1" fill="rgb(0,0,0)" />
	<circle cx="628.021" cy="571.258" r="1" fill="rgb(0,0,0)" />
	<circle cx="630.717" cy="456.605" r="1" fill="rgb(0,0,0)" />
	<circle cx="632.937" cy="351.308" r="1" fill="rgb(0,0,0)" />
	<circle cx="633.254" cy="547.629" r="1" fill="rgb(0,0,0)" />
	<circle cx="635.157" cy="560.633" r="1" fill="rgb(0,0,0)" />
	<circle cx="636.584" cy="378.584" r="1" fill="rgb(0,0,0)" />
	<circle cx="638.011" cy="546.995" r="1" fill="rgb(0,0,0)" />
	<circle cx="638.011" cy="284.229" r="1" fill="rgb(0,0,0)" />
	<circle cx="639.28" cy="468.34" r="1" fill="rgb(0,0,0)" />
	<circle cx="640.39" cy="337.036" r="1" fill="rgb(0,0,0)" />
	<circle cx="642.452" cy="362.092" r="1" fill="rgb(0,0,0)" />
	<circle cx="642.927" cy="489.272" r="1" fill="rgb(0,0,0)" />
	<circle cx="646.892" cy="350.357" r="1" fill="rgb(0,0,0)" />
	<circle cx="647.05" cy="116.611" r="1" fill="rgb(0,0,0)" />
	<circle cx="647.209" cy="488.479" r="1" fill="rgb(0,0,0)" />
	<circle cx="647.685" cy="301.039" r="1" fill="rgb(0,0,0)" />
	<circle cx="648.319" cy="348.295" r="1" fill="rgb(0,0,0)" />
	<circle cx="651.491" cy="535.419" r="1" fill="rgb(0,0,0)" />
	<circle cx="653.235" cy="360.506" r="1" fill="rgb(0,0,0)" />
	<circle cx="654.504" cy="496.25" r="1" fill="rgb(0,0,0)" />
	<circle cx="657.358" cy="475" r="1" fill="rgb(0,0,0)" />
	<circle cx="657.992" cy="525.111" r="1" fill="rgb(0,0,0)" />
	<circle cx="659.261" cy="344.489" r="1" fill="rgb(0,0,0)" />
	<circle cx="660.53" cy="507.192" r="1" fill="rgb(0,0,0)" />
	<circle cx="661.481" cy="317.055" r="1" fill="rgb(0,0,0)" />
	<circle cx="663.225" cy="369.069" r="1" fill="rgb(0,0,0)" />
	<circle cx="665.921" cy="196.535" r="1" fill="rgb(0,0,0)" />
	<circle cx="666.714" cy="534.15" r="1" fill="rgb(0,0,0)" />
	<circle cx="667.349" cy="35.5772" r="1" fill="rgb(0,0,0)" />
	<circle cx="668.934" cy="493.395" r="1" fill="rgb(0,0,0)" />
	<circle cx="671.789" cy="288.67" r="1" fill="rgb(0,0,0)" />
	<circle cx="673.533" cy="189.875" r="1" fill="rgb(0,0,0)" />
	<circle cx="675.753" cy="226.824" r="1" fill="rgb(0,0,0)" />
	<circle cx="676.07" cy="294.22" r="1" fill="rgb(0,0,0)" />
	<circle cx="679.559" cy="297.867" r="1" fill="rgb(0,0,0)" />
	<circle cx="680.828" cy="58.5712" r="1" fill="rgb(0,0,0)" />
	<circle cx="686.378" cy="487.211" r="1" fill="rgb(0,0,0)" />
	<circle cx="687.012" cy="483.088" r="1" fill="rgb(0,0,0)" />
	<circle cx="689.708" cy="324.826" r="1" fill="rgb(0,0,0)" />
	<circle cx="692.245" cy="176.395" r="1" fill="rgb(0,0,0)" />
	<circle cx="693.673" cy="283.119" r="1" fill="rgb(0,0,0)" />
	<circle cx="694.783" cy="317.214" r="1" fill="rgb(0,0,0)" />
	<circle cx="696.369" cy="320.703" r="1" fill="rgb(0,0,0)" />
	<circle cx="699.382" cy="36.2115" r="1" fill="rgb(0,0,0)" />
	<circle cx="699.857" cy="303.259" r="1" fill="rgb(0,0,0)" />
	<circle cx="700.492" cy="38.2731" r="1" fill="rgb(0,0,0)" />
	<circle cx="703.663" cy="275.983" r="1" fill="rgb(0,0,0)" />
	<circle cx="704.773" cy="277.886" r="1" fill="rgb(0,0,0)" />
	<circle cx="707.945" cy="46.5192" r="1" fill="rgb(0,0,0)" />
	<circle cx="715.239" cy="161.489" r="1" fill="rgb(0,0,0)" />
	<circle cx="717.935" cy="181.311" r="1" fill="rgb(0,0,0)" />
	<circle cx="718.252" cy="252.196" r="1" fill="rgb(0,0,0)" />
	<circle cx="718.57" cy="267.103" r="1" fill="rgb(0,0,0)" />
	<circle cx="720.473" cy="267.261" r="1" fill="rgb(0,0,0)" />
	<circle cx="721.265" cy="227.775" r="1" fill="rgb(0,0,0)" />
	<circle cx="721.9" cy="195.901" r="1" fill="rgb(0,0,0)" />
	<circle cx="724.12" cy="264.883" r="1" fill="rgb(0,0,0)" />
	<circle cx="726.181" cy="450.42" r="1" fill="rgb(0,0,0)" />
	<circle cx="728.084" cy="303.893" r="1" fill="rgb(0,0,0)" />
	<circle cx="728.084" cy="254.734" r="1" fill="rgb(0,0,0)" />
	<circle cx="731.732" cy="265.517" r="1" fill="rgb(0,0,0)" />
	<circle cx="733.793" cy="264.248" r="1" fill="rgb(0,0,0)" />
	<circle cx="736.013" cy="224.445" r="1" fill="rgb(0,0,0)" />
	<circle cx="738.709" cy="348.771" r="1" fill="rgb(0,0,0)" />
	<circle cx="743.467" cy="507.509" r="1" fill="rgb(0,0,0)" />
	<circle cx="743.784" cy="467.23" r="1" fill="rgb(0,0,0)" />
	<circle cx="743.784" cy="218.578" r="1" fill="rgb(0,0,0)" />
	<circle cx="744.259" cy="337.988" r="1" fill="rgb(0,0,0)" />
	<circle cx="744.577" cy="470.243" r="1" fill="rgb(0,0,0)" />
	<circle cx="747.748" cy="261.394" r="1" fill="rgb(0,0,0)" />
	<circle cx="749.968" cy="383.817" r="1" fill="rgb(0,0,0)" />
	<circle cx="749.968" cy="200.024" r="1" fill="rgb(0,0,0)" />
	<circle cx="758.532" cy="189.875" r="1" fill="rgb(0,0,0)" />
	<circle cx="759.166" cy="374.302" r="1" fill="rgb(0,0,0)" />
	<circle cx="764.24" cy="196.059" r="1" fill="rgb(0,0,0)" />
	<circle cx="764.399" cy="520.829" r="1" fill="rgb(0,0,0)" />
	<circle cx="764.558" cy="211.283" r="1" fill="rgb(0,0,0)" />
	<circle cx="765.985" cy="207.477" r="1" fill="rgb(0,0,0)" />
	<circle cx="770.584" cy="210.014" r="1" fill="rgb(0,0,0)" />
	<circle cx="774.865" cy="110.268" r="1" fill="rgb(0,0,0)" />
	<circle cx="775.024" cy="251.879" r="1" fill="rgb(0,0,0)" />
	<circle cx="776.61" cy="438.051" r="1" fill="rgb(0,0,0)" />
	<circle cx="778.671" cy="438.685" r="1" fill="rgb(0,0,0)" />
	<circle cx="781.05" cy="356.066" r="1" fill="rgb(0,0,0)" />
	<circle cx="781.208" cy="130.408" r="1" fill="rgb(0,0,0)" />
	<circle cx="781.843" cy="496.408" r="1" fill="rgb(0,0,0)" />
	<circle cx="788.344" cy="455.178" r="1" fill="rgb(0,0,0)" />
	<circle cx="790.882" cy="309.443" r="1" fill="rgb(0,0,0)" />
	<circle cx="793.578" cy="512.266" r="1" fill="rgb(0,0,0)" />
	<circle cx="795.322" cy="424.255" r="1" fill="rgb(0,0,0)" />
	<circle cx="796.432" cy="423.938" r="1" fill="rgb(0,0,0)" />
	<circle cx="796.591" cy="540.335" r="1" fill="rgb(0,0,0)" />
	<circle cx="797.383" cy="230.788" r="1" fill="rgb(0,0,0)" />
	<circle cx="799.286" cy="488.321" r="1" fill="rgb(0,0,0)" />
	<circle cx="801.824" cy="453.75" r="1" fill="rgb(0,0,0)" />
	<circle cx="803.727" cy="491.175" r="1" fill="rgb(0,0,0)" />
	<circle cx="805.788" cy="313.884" r="1" fill="rgb(0,0,0)" />
	<circle cx="806.581" cy="174.651" r="1" fill="rgb(0,0,0)" />
	<circle cx="809.753" cy="303.576" r="1" fill="rgb(0,0,0)" />
	<circle cx="817.682" cy="193.205" r="1" fill="rgb(0,0,0)" />
	<circle cx="820.377" cy="550.325" r="1" fill="rgb(0,0,0)" />
	<circle cx="820.536" cy="364.47" r="1" fill="rgb(0,0,0)" />
	<circle cx="826.879" cy="469.767" r="1" fill="rgb(0,0,0)" />
	<circle cx="827.196" cy="382.548" r="1" fill="rgb(0,0,0)" />
	<circle cx="831.637" cy="156.256" r="1" fill="rgb(0,0,0)" />
	<circle cx="832.429" cy="440.271" r="1" fill="rgb(0,0,0)" />
	<circle cx="834.332" cy="542.396" r="1" fill="rgb(0,0,0)" />
	<circle cx="835.284" cy="280.106" r="1" fill="rgb(0,0,0)" />
	<circle cx="836.394" cy="215.723" r="1" fill="rgb(0,0,0)" />
	<circle cx="836.87" cy="548.898" r="1" fill="rgb(0,0,0)" />
	<circle cx="839.883" cy="246.646" r="1" fill="rgb(0,0,0)" />
	<circle cx="842.896" cy="548.581" r="1" fill="rgb(0,0,0)" />
	<circle cx="844.481" cy="547.312" r="1" fill="rgb(0,0,0)" />
	<circle cx="845.116" cy="484.99" r="1" fill="rgb(0,0,0)" />
	<circle cx="850.983" cy="477.22" r="1" fill="rgb(0,0,0)" />
	<circle cx="852.886" cy="397.296" r="1" fill="rgb(0,0,0)" />
	<circle cx="860.974" cy="41.9204" r="1" fill="rgb(0,0,0)" />
	<circle cx="874.136" cy="440.905" r="1" fill="rgb(0,0,0)" />
	<circle cx="890.628" cy="233.484" r="1" fill="rgb(0,0,0)" />
	<circle cx="896.02" cy="396.662" r="1" fill="rgb(0,0,0)" />
	<circle cx="907.913" cy="64.9144" r="1" fill="rgb(0,0,0)" />
	<circle cx="910.45" cy="221.115" r="1" fill="rgb(0,0,0)" />
	<circle cx="910.768" cy="65.8658" r="1" fill="rgb(0,0,0)" />
	<circle cx="913.781" cy="532.723" r="1" fill="rgb(0,0,0)" />
	<circle cx="917.745" cy="88.3841" r="1" fill="rgb(0,0,0)" />
	<circle cx="918.855" cy="530.82" r="1" fill="rgb(0,0,0)" />
	<circle cx="920.599" cy="177.347" r="1" fill="rgb(0,0,0)" />
	<circle cx="927.26" cy="532.247" r="1" fill="rgb(0,0,0)" />
	<circle cx="929.956" cy="172.431" r="1" fill="rgb(0,0,0)" />
	<circle cx="930.273" cy="497.994" r="1" fill="rgb(0,0,0)" />
	<circle cx="934.396" cy="40.9689" r="1" fill="rgb(0,0,0)" />
	<circle cx="944.069" cy="286.767" r="1" fill="rgb(0,0,0)" />
	<circle cx="947.082" cy="577.759" r="1" fill="rgb(0,0,0)" />
	<circle cx="951.205" cy="176.713" r="1" fill="rgb(0,0,0)" />
	<circle cx="955.804" cy="537.797" r="1" fill="rgb(0,0,0)" />
	<circle cx="958.183" cy="148.803" r="1" fill="rgb(0,0,0)" />
	<circle cx="959.61" cy="531.771" r="1" fill="rgb(0,0,0)" />
	<circle cx="963.257" cy="494.505" r="1" fill="rgb(0,0,0)" />
	<circle cx="965.002" cy="28.7583" r="1" fill="rgb(0,0,0)" />
	<circle cx="970.552" cy="559.206" r="1" fill="rgb(0,0,0)" />
	<circle cx="971.028" cy="575.698" r="1" fill="rgb(0,0,0)" />
	<circle cx="972.931" cy="479.757" r="1" fill="rgb(0,0,0)" />
	<circle cx="973.882" cy="579.821" r="1" fill="rgb(0,0,0)" />
	<circle cx="975.468" cy="170.052" r="1" fill="rgb(0,0,0)" />
	<circle cx="982.128" cy="476.427" r="1" fill="rgb(0,0,0)" />
	<circle cx="982.604" cy="160.062" r="1" fill="rgb(0,0,0)" />
	<circle cx="985.775" cy="514.962" r="1" fill="rgb(0,0,0)" />
	<circle cx="987.203" cy="197.169" r="1" fill="rgb(0,0,0)" />
	<circle cx="989.264" cy="35.4186" r="1" fill="rgb(0,0,0)" />
	<circle cx="990.691" cy="484.039" r="1" fill="rgb(0,0,0)" />
	<circle cx="992.119" cy="32.8814" r="1" fill="rgb(0,0,0)" />
	<circle cx="992.594" cy="549.691" r="1" fill="rgb(0,0,0)" />
	<circle cx="1001.63" cy="573.16" r="1" fill="rgb(0,0,0)" />
	<circle cx="1005.12" cy="351.943" r="1" fill="rgb(0,0,0)" />
	<circle cx="1010.83" cy="340.683" r="1" fill="rgb(0,0,0)" />
	<circle cx="1014" cy="147.217" r="1" fill="rgb(0,0,0)" />
	<circle cx="1017.65" cy="61.5842" r="1" fill="rgb(0,0,0)" />
	<circle cx="1019.55" cy="539.7" r="1" fill="rgb(0,0,0)" />
	<circle cx="1020.5" cy="540.335" r="1" fill="rgb(0,0,0)" />
	<circle cx="1022.25" cy="579.662" r="1" fill="rgb(0,0,0)" />
	<circle cx="1023.52" cy="578.235" r="1" fill="rgb(0,0,0)" />
	<circle cx="1025.9" cy="553.497" r="1" fill="rgb(0,0,0)" />
	<circle cx="1035.09" cy="341.476" r="1" fill="rgb(0,0,0)" />
	<circle cx="1035.09" cy="150.864" r="1" fill="rgb(0,0,0)" />
	<circle cx="1050" cy="528.758" r="1" fill="rgb(0,0,0)" />
</svg>
