<?xml version="1.0" standalone="no" ?>
<!DOCTYPE svg PUBLIC "-//W3C//DTD SVG 1.1//EN" "http://www.w3.org/Graphics/SVG/1.1/DTD/svg11.dtd">
<svg width="1100px" height="629.876px" xmlns="http://www.w3.org/2000/svg" version="1.1" >
	<circle cx="50" cy="525.758" r="1" fill="rgb(0,0,0)" />
	<circle cx="52.8726" cy="181.838" r="1" fill="rgb(0,0,0)" />
	<circle cx="58.2988" cy="177.849" r="1" fill="rgb(0,0,0)" />
	<circle cx="62.9269" cy="542.834" r="1" fill="rgb(0,0,0)" />
	<circle cx="65.0016" cy="455.059" r="1" fill="rgb(0,0,0)" />
	<circle cx="66.1187" cy="453.304" r="1" fill="rgb(0,0,0)" />
	<circle cx="66.4379" cy="441.175" r="1" fill="rgb(0,0,0)" />
	<circle cx="67.7147" cy="574.114" r="1" fill="rgb(0,0,0)" />
	<circle cx="68.9914" cy="479.955" r="1" fill="rgb(0,0,0)" />
	<circle cx="70.4277" cy="447.558" r="1" fill="rgb(0,0,0)" />
	<circle cx="71.3853" cy="450.431" r="1" fill="rgb(0,0,0)" />
	<circle cx="72.1832" cy="492.084" r="1" fill="rgb(0,0,0)" />
	<circle cx="72.1832" cy="462.241" r="1" fill="rgb(0,0,0)" />
	<circle cx="72.9812" cy="440.217" r="1" fill="rgb(0,0,0)" />
	<circle cx="73.3004" cy="436.866" r="1" fill="rgb(0,0,0)" />
	<circle cx="74.7367" cy="173.859" r="1" fill="rgb(0,0,0)" />
	<circle cx="74.8963" cy="423.3" r="1" fill="rgb(0,0,0)" />
	<circle cx="76.6518" cy="574.593" r="1" fill="rgb(0,0,0)" />
	<circle cx="78.0881" cy="531.982" r="1" fill="rgb(0,0,0)" />
	<circle cx="78.4073" cy="442.771" r="1" fill="rgb(0,0,0)" />
	<circle cx="83.0354" cy="491.925" r="1" fill="rgb(0,0,0)" />
	<circle cx="83.195" cy="473.252" r="1" fill="rgb(0,0,0)" />
	<circle cx="84.1526" cy="448.197" r="1" fill="rgb(0,0,0)" />
	<circle cx="86.0677" cy="142.898" r="1" fill="rgb(0,0,0)" />
	<circle cx="89.8979" cy="210.725" r="1" fill="rgb(0,0,0)" />
	<circle cx="90.3766" cy="211.044" r="1" fill="rgb(0,0,0)" />
	<circle cx="91.813" cy="432.876" r="1" fill="rgb(0,0,0)" />
	<circle cx="93.4089" cy="152.154" r="1" fill="rgb(0,0,0)" />
	<circle cx="94.3664" cy="476.444" r="1" fill="rgb(0,0,0)" />
	<circle cx="96.9199" cy="491.286" r="1" fill="rgb(0,0,0)" />
	<circle cx="99.6329" cy="573.316" r="1" fill="rgb(0,0,0)" />
	<circle cx="99.9521" cy="421.864" r="1" fill="rgb(0,0,0)" />
	<circle cx="110.645" cy="480.753" r="1" fill="rgb(0,0,0)" />
	<circle cx="110.964" cy="173.699" r="1" fill="rgb(0,0,0)" />
	<circle cx="111.124" cy="566.135" r="1" fill="rgb(0,0,0)" />
	<circle cx="112.241" cy="164.603" r="1" fill="rgb(0,0,0)" />
	<circle cx="112.719" cy="172.103" r="1" fill="rgb(0,0,0)" />
	<circle cx="117.348" cy="576.189" r="1" fill="rgb(0,0,0)" />
	<circle cx="123.093" cy="586.882" r="1" fill="rgb(0,0,0)" />
	<circle cx="123.412" cy="178.647" r="1" fill="rgb(0,0,0)" />
	<circle cx="123.731" cy="487.616" r="1" fill="rgb(0,0,0)" />
	<circle cx="124.37" cy="151.357" r="1" fill="rgb(0,0,0)" />
	<circle cx="127.561" cy="569.007" r="1" fill="rgb(0,0,0)" />
	<circle cx="127.561" cy="185.19" r="1" fill="rgb(0,0,0)" />
	<circle cx="131.87" cy="484.743" r="1" fill="rgb(0,0,0)" />
	<circle cx="132.828" cy="573.316" r="1" fill="rgb(0,0,0)" />
	<circle cx="134.583" cy="425.694" r="1" fill="rgb(0,0,0)" />
	<circle cx="135.222" cy="421.864" r="1" fill="rgb(0,0,0)" />
	<circle cx="136.179" cy="163.645" r="1" fill="rgb(0,0,0)" />
	<circle cx="147.67" cy="264.826" r="1" fill="rgb(0,0,0)" />
	<circle cx="149.266" cy="509.001" r="1" fill="rgb(0,0,0)" />
	<circle cx="153.256" cy="261.315" r="1" fill="rgb(0,0,0)" />
	<circle cx="160.118" cy="492.882" r="1" fill="rgb(0,0,0)" />
	<circle cx="160.597" cy="491.605" r="1" fill="rgb(0,0,0)" />
	<circle cx="165.065" cy="462.4" r="1" fill="rgb(0,0,0)" />
	<circle cx="166.023" cy="456.495" r="1" fill="rgb(0,0,0)" />
	<circle cx="166.502" cy="472.295" r="1" fill="rgb(0,0,0)" />
	<circle cx="166.821" cy="435.429" r="1" fill="rgb(0,0,0)" />
	<circle cx="170.332" cy="472.933" r="1" fill="rgb(0,0,0)" />
	<circle cx="173.045" cy="426.971" r="1" fill="rgb(0,0,0)" />
	<circle cx="173.205" cy="118.002" r="1" fill="rgb(0,0,0)" />
	<circle cx="178.631" cy="560.07" r="1" fill="rgb(0,0,0)" />
	<circle cx="179.588" cy="504.532" r="1" fill="rgb(0,0,0)" />
	<circle cx="179.907" cy="120.236" r="1" fill="rgb(0,0,0)" />
	<circle cx="180.386" cy="499.904" r="1" fill="rgb(0,0,0)" />
	<circle cx="181.025" cy="428.088" r="1" fill="rgb(0,0,0)" />
	<circle cx="184.855" cy="116.885" r="1" fill="rgb(0,0,0)" />
	<circle cx="187.089" cy="125.343" r="1" fill="rgb(0,0,0)" />
	<circle cx="187.568" cy="528.471" r="1" fill="rgb(0,0,0)" />
	<circle cx="187.887" cy="145.611" r="1" fill="rgb(0,0,0)" />
	<circle cx="188.685" cy="496.074" r="1" fill="rgb(0,0,0)" />
	<circle cx="189.004" cy="159.815" r="1" fill="rgb(0,0,0)" />
	<circle cx="189.164" cy="580.977" r="1" fill="rgb(0,0,0)" />
	<circle cx="190.919" cy="428.886" r="1" fill="rgb(0,0,0)" />
	<circle cx="191.079" cy="425.694" r="1" fill="rgb(0,0,0)" />
	<circle cx="193.154" cy="558.155" r="1" fill="rgb(0,0,0)" />
	<circle cx="194.43" cy="122.47" r="1" fill="rgb(0,0,0)" />
	<circle cx="196.186" cy="532.301" r="1" fill="rgb(0,0,0)" />
	<circle cx="196.984" cy="448.835" r="1" fill="rgb(0,0,0)" />
	<circle cx="199.218" cy="126.46" r="1" fill="rgb(0,0,0)" />
	<circle cx="200.016" cy="166.837" r="1" fill="rgb(0,0,0)" />
	<circle cx="201.931" cy="430.961" r="1" fill="rgb(0,0,0)" />
	<circle cx="204.963" cy="185.509" r="1" fill="rgb(0,0,0)" />
	<circle cx="204.963" cy="112.416" r="1" fill="rgb(0,0,0)" />
	<circle cx="205.282" cy="112.735" r="1" fill="rgb(0,0,0)" />
	<circle cx="207.198" cy="183.594" r="1" fill="rgb(0,0,0)" />
	<circle cx="207.676" cy="186.945" r="1" fill="rgb(0,0,0)" />
	<circle cx="208.953" cy="425.375" r="1" fill="rgb(0,0,0)" />
	<circle cx="210.389" cy="435.589" r="1" fill="rgb(0,0,0)" />
	<circle cx="213.741" cy="226.684" r="1" fill="rgb(0,0,0)" />
	<circle cx="215.975" cy="206.416" r="1" fill="rgb(0,0,0)" />
	<circle cx="217.092" cy="227.162" r="1" fill="rgb(0,0,0)" />
	<circle cx="218.529" cy="221.736" r="1" fill="rgb(0,0,0)" />
	<circle cx="219.965" cy="581.775" r="1" fill="rgb(0,0,0)" />
	<circle cx="221.72" cy="238.653" r="1" fill="rgb(0,0,0)" />
	<circle cx="221.88" cy="196.202" r="1" fill="rgb(0,0,0)" />
	<circle cx="222.997" cy="219.821" r="1" fill="rgb(0,0,0)" />
	<circle cx="224.114" cy="197.478" r="1" fill="rgb(0,0,0)" />
	<circle cx="224.593" cy="199.234" r="1" fill="rgb(0,0,0)" />
	<circle cx="227.306" cy="180.402" r="1" fill="rgb(0,0,0)" />
	<circle cx="227.466" cy="211.842" r="1" fill="rgb(0,0,0)" />
	<circle cx="228.902" cy="180.562" r="1" fill="rgb(0,0,0)" />
	<circle cx="229.062" cy="426.652" r="1" fill="rgb(0,0,0)" />
	<circle cx="229.062" cy="179.285" r="1" fill="rgb(0,0,0)" />
	<circle cx="230.179" cy="180.721" r="1" fill="rgb(0,0,0)" />
	<circle cx="230.658" cy="427.609" r="1" fill="rgb(0,0,0)" />
	<circle cx="231.455" cy="312.225" r="1" fill="rgb(0,0,0)" />
	<circle cx="231.775" cy="543.154" r="1" fill="rgb(0,0,0)" />
	<circle cx="232.892" cy="335.046" r="1" fill="rgb(0,0,0)" />
	<circle cx="233.849" cy="316.853" r="1" fill="rgb(0,0,0)" />
	<circle cx="234.169" cy="570.124" r="1" fill="rgb(0,0,0)" />
	<circle cx="238.477" cy="190.137" r="1" fill="rgb(0,0,0)" />
	<circle cx="239.914" cy="336.163" r="1" fill="rgb(0,0,0)" />
	<circle cx="240.393" cy="211.203" r="1" fill="rgb(0,0,0)" />
	<circle cx="240.712" cy="362.177" r="1" fill="rgb(0,0,0)" />
	<circle cx="241.191" cy="363.613" r="1" fill="rgb(0,0,0)" />
	<circle cx="242.148" cy="186.307" r="1" fill="rgb(0,0,0)" />
	<circle cx="242.946" cy="208.969" r="1" fill="rgb(0,0,0)" />
	<circle cx="243.106" cy="196.68" r="1" fill="rgb(0,0,0)" />
	<circle cx="243.265" cy="151.197" r="1" fill="rgb(0,0,0)" />
	<circle cx="243.584" cy="208.171" r="1" fill="rgb(0,0,0)" />
	<circle cx="243.744" cy="550.974" r="1" fill="rgb(0,0,0)" />
	<circle cx="244.382" cy="474.848" r="1" fill="rgb(0,0,0)" />
	<circle cx="249.968" cy="372.071" r="1" fill="rgb(0,0,0)" />
	<circle cx="251.404" cy="392.34" r="1" fill="rgb(0,0,0)" />
	<circle cx="251.564" cy="501.341" r="1" fill="rgb(0,0,0)" />
	<circle cx="252.202" cy="553.208" r="1" fill="rgb(0,0,0)" />
	<circle cx="252.362" cy="539.802" r="1" fill="rgb(0,0,0)" />
	<circle cx="252.522" cy="213.438" r="1" fill="rgb(0,0,0)" />
	<circle cx="253" cy="562.783" r="1" fill="rgb(0,0,0)" />
	<circle cx="253" cy="344.303" r="1" fill="rgb(0,0,0)" />
	<circle cx="254.915" cy="224.769" r="1" fill="rgb(0,0,0)" />
	<circle cx="255.075" cy="219.981" r="1" fill="rgb(0,0,0)" />
	<circle cx="255.235" cy="552.41" r="1" fill="rgb(0,0,0)" />
	<circle cx="256.511" cy="180.881" r="1" fill="rgb(0,0,0)" />
	<circle cx="256.671" cy="167.794" r="1" fill="rgb(0,0,0)" />
	<circle cx="257.309" cy="550.335" r="1" fill="rgb(0,0,0)" />
	<circle cx="257.469" cy="540.919" r="1" fill="rgb(0,0,0)" />
	<circle cx="257.948" cy="424.417" r="1" fill="rgb(0,0,0)" />
	<circle cx="261.459" cy="544.43" r="1" fill="rgb(0,0,0)" />
	<circle cx="262.097" cy="388.669" r="1" fill="rgb(0,0,0)" />
	<circle cx="262.735" cy="428.248" r="1" fill="rgb(0,0,0)" />
	<circle cx="263.055" cy="219.342" r="1" fill="rgb(0,0,0)" />
	<circle cx="263.693" cy="235.94" r="1" fill="rgb(0,0,0)" />
	<circle cx="263.853" cy="178.327" r="1" fill="rgb(0,0,0)" />
	<circle cx="265.289" cy="223.013" r="1" fill="rgb(0,0,0)" />
	<circle cx="265.289" cy="222.375" r="1" fill="rgb(0,0,0)" />
	<circle cx="265.608" cy="213.118" r="1" fill="rgb(0,0,0)" />
	<circle cx="265.927" cy="219.183" r="1" fill="rgb(0,0,0)" />
	<circle cx="266.406" cy="204.979" r="1" fill="rgb(0,0,0)" />
	<circle cx="267.204" cy="207.214" r="1" fill="rgb(0,0,0)" />
	<circle cx="267.364" cy="393.616" r="1" fill="rgb(0,0,0)" />
	<circle cx="268.162" cy="204.66" r="1" fill="rgb(0,0,0)" />
	<circle cx="269.119" cy="513.15" r="1" fill="rgb(0,0,0)" />
	<circle cx="269.598" cy="200.192" r="1" fill="rgb(0,0,0)" />
	<circle cx="269.757" cy="227.96" r="1" fill="rgb(0,0,0)" />
	<circle cx="270.236" cy="181.998" r="1" fill="rgb(0,0,0)" />
	<circle cx="271.992" cy="507.405" r="1" fill="rgb(0,0,0)" />
	<circle cx="272.311" cy="333.291" r="1" fill="rgb(0,0,0)" />
	<circle cx="273.109" cy="195.723" r="1" fill="rgb(0,0,0)" />
	<circle cx="273.428" cy="204.82" r="1" fill="rgb(0,0,0)" />
	<circle cx="273.907" cy="237.376" r="1" fill="rgb(0,0,0)" />
	<circle cx="274.545" cy="535.174" r="1" fill="rgb(0,0,0)" />
	<circle cx="274.705" cy="234.663" r="1" fill="rgb(0,0,0)" />
	<circle cx="275.024" cy="539.323" r="1" fill="rgb(0,0,0)" />
	<circle cx="275.822" cy="206.096" r="1" fill="rgb(0,0,0)" />
	<circle cx="276.301" cy="390.425" r="1" fill="rgb(0,0,0)" />
	<circle cx="276.939" cy="377.498" r="1" fill="rgb(0,0,0)" />
	<circle cx="277.577" cy="213.597" r="1" fill="rgb(0,0,0)" />
	<circle cx="279.014" cy="279.987" r="1" fill="rgb(0,0,0)" />
	<circle cx="279.652" cy="231.95" r="1" fill="rgb(0,0,0)" />
	<circle cx="281.088" cy="279.987" r="1" fill="rgb(0,0,0)" />
	<circle cx="282.365" cy="231.631" r="1" fill="rgb(0,0,0)" />
	<circle cx="283.801" cy="228.918" r="1" fill="rgb(0,0,0)" />
	<circle cx="283.961" cy="228.758" r="1" fill="rgb(0,0,0)" />
	<circle cx="286.993" cy="88.9563" r="1" fill="rgb(0,0,0)" />
	<circle cx="287.312" cy="468.944" r="1" fill="rgb(0,0,0)" />
	<circle cx="287.632" cy="467.507" r="1" fill="rgb(0,0,0)" />
	<circle cx="289.387" cy="198.436" r="1" fill="rgb(0,0,0)" />
	<circle cx="291.302" cy="467.826" r="1" fill="rgb(0,0,0)" />
	<circle cx="296.888" cy="408.458" r="1" fill="rgb(0,0,0)" />
	<circle cx="297.526" cy="283.817" r="1" fill="rgb(0,0,0)" />
	<circle cx="298.005" cy="479.796" r="1" fill="rgb(0,0,0)" />
	<circle cx="298.324" cy="471.657" r="1" fill="rgb(0,0,0)" />
	<circle cx="298.643" cy="284.775" r="1" fill="rgb(0,0,0)" />
	<circle cx="300.878" cy="280.626" r="1" fill="rgb(0,0,0)" />
	<circle cx="302.474" cy="418.034" r="1" fill="rgb(0,0,0)" />
	<circle cx="303.431" cy="290.839" r="1" fill="rgb(0,0,0)" />
	<circle cx="303.591" cy="590.393" r="1" fill="rgb(0,0,0)" />
	<circle cx="303.591" cy="417.395" r="1" fill="rgb(0,0,0)" />
	<circle cx="303.591" cy="221.417" r="1" fill="rgb(0,0,0)" />
	<circle cx="303.75" cy="476.763" r="1" fill="rgb(0,0,0)" />
	<circle cx="304.07" cy="531.344" r="1" fill="rgb(0,0,0)" />
	<circle cx="305.027" cy="530.865" r="1" fill="rgb(0,0,0)" />
	<circle cx="305.506" cy="410.214" r="1" fill="rgb(0,0,0)" />
	<circle cx="306.463" cy="393.457" r="1" fill="rgb(0,0,0)" />
	<circle cx="309.815" cy="364.571" r="1" fill="rgb(0,0,0)" />
	<circle cx="310.294" cy="477.242" r="1" fill="rgb(0,0,0)" />
	<circle cx="313.485" cy="293.233" r="1" fill="rgb(0,0,0)" />
	<circle cx="313.805" cy="428.726" r="1" fill="rgb(0,0,0)" />
	<circle cx="318.433" cy="390.425" r="1" fill="rgb(0,0,0)" />
	<circle cx="320.029" cy="298.659" r="1" fill="rgb(0,0,0)" />
	<circle cx="320.348" cy="316.853" r="1" fill="rgb(0,0,0)" />
	<circle cx="320.348" cy="298.181" r="1" fill="rgb(0,0,0)" />
	<circle cx="320.667" cy="319.726" r="1" fill="rgb(0,0,0)" />
	<circle cx="320.986" cy="413.086" r="1" fill="rgb(0,0,0)" />
	<circle cx="322.582" cy="36.9295" r="1" fill="rgb(0,0,0)" />
	<circle cx="323.54" cy="597.734" r="1" fill="rgb(0,0,0)" />
	<circle cx="324.178" cy="464.635" r="1" fill="rgb(0,0,0)" />
	<circle cx="324.178" cy="244.877" r="1" fill="rgb(0,0,0)" />
	<circle cx="326.412" cy="466.709" r="1" fill="rgb(0,0,0)" />
	<circle cx="329.125" cy="405.586" r="1" fill="rgb(0,0,0)" />
	<circle cx="331.36" cy="598.691" r="1" fill="rgb(0,0,0)" />
	<circle cx="331.679" cy="422.822" r="1" fill="rgb(0,0,0)" />
	<circle cx="332.636" cy="253.176" r="1" fill="rgb(0,0,0)" />
	<circle cx="334.232" cy="291.478" r="1" fill="rgb(0,0,0)" />
	<circle cx="335.828" cy="274.242" r="1" fill="rgb(0,0,0)" />
	<circle cx="336.626" cy="258.123" r="1" fill="rgb(0,0,0)" />
	<circle cx="338.382" cy="304.086" r="1" fill="rgb(0,0,0)" />
	<circle cx="339.658" cy="290.839" r="1" fill="rgb(0,0,0)" />
	<circle cx="341.095" cy="465.752" r="1" fill="rgb(0,0,0)" />
	<circle cx="341.254" cy="246.952" r="1" fill="rgb(0,0,0)" />
	<circle cx="341.574" cy="254.612" r="1" fill="rgb(0,0,0)" />
	<circle cx="343.01" cy="591.51" r="1" fill="rgb(0,0,0)" />
	<circle cx="343.01" cy="272.486" r="1" fill="rgb(0,0,0)" />
	<circle cx="343.01" cy="259.719" r="1" fill="rgb(0,0,0)" />
	<circle cx="343.169" cy="585.605" r="1" fill="rgb(0,0,0)" />
	<circle cx="343.808" cy="456.495" r="1" fill="rgb(0,0,0)" />
	<circle cx="343.808" cy="306.639" r="1" fill="rgb(0,0,0)" />
	<circle cx="344.765" cy="338.717" r="1" fill="rgb(0,0,0)" />
	<circle cx="345.244" cy="247.431" r="1" fill="rgb(0,0,0)" />
	<circle cx="346.202" cy="586.403" r="1" fill="rgb(0,0,0)" />
	<circle cx="347.319" cy="589.275" r="1" fill="rgb(0,0,0)" />
	<circle cx="351.309" cy="376.221" r="1" fill="rgb(0,0,0)" />
	<circle cx="351.787" cy="373.667" r="1" fill="rgb(0,0,0)" />
	<circle cx="351.947" cy="594.861" r="1" fill="rgb(0,0,0)" />
	<circle cx="352.426" cy="257.804" r="1" fill="rgb(0,0,0)" />
	<circle cx="355.139" cy="458.091" r="1" fill="rgb(0,0,0)" />
	<circle cx="355.618" cy="258.921" r="1" fill="rgb(0,0,0)" />
	<circle cx="356.096" cy="246.633" r="1" fill="rgb(0,0,0)" />
	<circle cx="357.214" cy="247.431" r="1" fill="rgb(0,0,0)" />
	<circle cx="359.129" cy="588.797" r="1" fill="rgb(0,0,0)" />
	<circle cx="359.927" cy="267.06" r="1" fill="rgb(0,0,0)" />
	<circle cx="360.405" cy="277.913" r="1" fill="rgb(0,0,0)" />
	<circle cx="361.842" cy="315.097" r="1" fill="rgb(0,0,0)" />
	<circle cx="364.714" cy="592.148" r="1" fill="rgb(0,0,0)" />
	<circle cx="365.831" cy="393.457" r="1" fill="rgb(0,0,0)" />
	<circle cx="366.629" cy="238.174" r="1" fill="rgb(0,0,0)" />
	<circle cx="366.949" cy="252.059" r="1" fill="rgb(0,0,0)" />
	<circle cx="367.268" cy="585.126" r="1" fill="rgb(0,0,0)" />
	<circle cx="367.906" cy="584.488" r="1" fill="rgb(0,0,0)" />
	<circle cx="369.502" cy="286.052" r="1" fill="rgb(0,0,0)" />
	<circle cx="371.258" cy="362.017" r="1" fill="rgb(0,0,0)" />
	<circle cx="371.736" cy="586.562" r="1" fill="rgb(0,0,0)" />
	<circle cx="371.736" cy="410.054" r="1" fill="rgb(0,0,0)" />
	<circle cx="375.407" cy="230.354" r="1" fill="rgb(0,0,0)" />
	<circle cx="376.205" cy="511.076" r="1" fill="rgb(0,0,0)" />
	<circle cx="378.28" cy="214.395" r="1" fill="rgb(0,0,0)" />
	<circle cx="378.599" cy="234.504" r="1" fill="rgb(0,0,0)" />
	<circle cx="379.876" cy="244.558" r="1" fill="rgb(0,0,0)" />
	<circle cx="381.312" cy="265.145" r="1" fill="rgb(0,0,0)" />
	<circle cx="381.471" cy="264.666" r="1" fill="rgb(0,0,0)" />
	<circle cx="383.387" cy="239.132" r="1" fill="rgb(0,0,0)" />
	<circle cx="383.706" cy="213.597" r="1" fill="rgb(0,0,0)" />
	<circle cx="384.025" cy="589.116" r="1" fill="rgb(0,0,0)" />
	<circle cx="384.344" cy="257.485" r="1" fill="rgb(0,0,0)" />
	<circle cx="385.461" cy="210.246" r="1" fill="rgb(0,0,0)" />
	<circle cx="388.174" cy="259.56" r="1" fill="rgb(0,0,0)" />
	<circle cx="388.493" cy="247.111" r="1" fill="rgb(0,0,0)" />
	<circle cx="388.493" cy="215.672" r="1" fill="rgb(0,0,0)" />
	<circle cx="388.813" cy="411.012" r="1" fill="rgb(0,0,0)" />
	<circle cx="389.132" cy="390.903" r="1" fill="rgb(0,0,0)" />
	<circle cx="389.77" cy="248.069" r="1" fill="rgb(0,0,0)" />
	<circle cx="390.089" cy="368.56" r="1" fill="rgb(0,0,0)" />
	<circle cx="390.249" cy="411.65" r="1" fill="rgb(0,0,0)" />
	<circle cx="390.728" cy="368.082" r="1" fill="rgb(0,0,0)" />
	<circle cx="391.366" cy="112.097" r="1" fill="rgb(0,0,0)" />
	<circle cx="391.526" cy="419.789" r="1" fill="rgb(0,0,0)" />
	<circle cx="392.164" cy="208.331" r="1" fill="rgb(0,0,0)" />
	<circle cx="392.324" cy="218.066" r="1" fill="rgb(0,0,0)" />
	<circle cx="392.962" cy="229.876" r="1" fill="rgb(0,0,0)" />
	<circle cx="393.92" cy="210.246" r="1" fill="rgb(0,0,0)" />
	<circle cx="394.079" cy="217.587" r="1" fill="rgb(0,0,0)" />
	<circle cx="394.558" cy="245.994" r="1" fill="rgb(0,0,0)" />
	<circle cx="396.633" cy="259.879" r="1" fill="rgb(0,0,0)" />
	<circle cx="398.229" cy="394.414" r="1" fill="rgb(0,0,0)" />
	<circle cx="398.548" cy="45.3878" r="1" fill="rgb(0,0,0)" />
	<circle cx="399.026" cy="421.545" r="1" fill="rgb(0,0,0)" />
	<circle cx="399.186" cy="41.8768" r="1" fill="rgb(0,0,0)" />
	<circle cx="399.346" cy="248.388" r="1" fill="rgb(0,0,0)" />
	<circle cx="401.101" cy="232.748" r="1" fill="rgb(0,0,0)" />
	<circle cx="401.74" cy="34.2164" r="1" fill="rgb(0,0,0)" />
	<circle cx="402.218" cy="428.567" r="1" fill="rgb(0,0,0)" />
	<circle cx="402.218" cy="425.694" r="1" fill="rgb(0,0,0)" />
	<circle cx="404.133" cy="215.831" r="1" fill="rgb(0,0,0)" />
	<circle cx="404.612" cy="428.248" r="1" fill="rgb(0,0,0)" />
	<circle cx="404.931" cy="378.136" r="1" fill="rgb(0,0,0)" />
	<circle cx="405.251" cy="255.091" r="1" fill="rgb(0,0,0)" />
	<circle cx="405.41" cy="278.391" r="1" fill="rgb(0,0,0)" />
	<circle cx="407.485" cy="248.229" r="1" fill="rgb(0,0,0)" />
	<circle cx="407.804" cy="59.5914" r="1" fill="rgb(0,0,0)" />
	<circle cx="407.964" cy="600.606" r="1" fill="rgb(0,0,0)" />
	<circle cx="408.123" cy="60.3894" r="1" fill="rgb(0,0,0)" />
	<circle cx="410.517" cy="386.594" r="1" fill="rgb(0,0,0)" />
	<circle cx="410.836" cy="591.669" r="1" fill="rgb(0,0,0)" />
	<circle cx="411.155" cy="383.881" r="1" fill="rgb(0,0,0)" />
	<circle cx="411.155" cy="55.1229" r="1" fill="rgb(0,0,0)" />
	<circle cx="411.315" cy="233.546" r="1" fill="rgb(0,0,0)" />
	<circle cx="411.634" cy="341.111" r="1" fill="rgb(0,0,0)" />
	<circle cx="412.113" cy="272.646" r="1" fill="rgb(0,0,0)" />
	<circle cx="412.911" cy="251.74" r="1" fill="rgb(0,0,0)" />
	<circle cx="415.305" cy="418.513" r="1" fill="rgb(0,0,0)" />
	<circle cx="416.422" cy="407.341" r="1" fill="rgb(0,0,0)" />
	<circle cx="416.901" cy="65.3367" r="1" fill="rgb(0,0,0)" />
	<circle cx="417.38" cy="239.93" r="1" fill="rgb(0,0,0)" />
	<circle cx="417.38" cy="219.662" r="1" fill="rgb(0,0,0)" />
	<circle cx="419.773" cy="294.191" r="1" fill="rgb(0,0,0)" />
	<circle cx="421.05" cy="283.977" r="1" fill="rgb(0,0,0)" />
	<circle cx="421.21" cy="278.711" r="1" fill="rgb(0,0,0)" />
	<circle cx="421.369" cy="285.733" r="1" fill="rgb(0,0,0)" />
	<circle cx="423.284" cy="291.797" r="1" fill="rgb(0,0,0)" />
	<circle cx="423.444" cy="222.375" r="1" fill="rgb(0,0,0)" />
	<circle cx="425.04" cy="298.181" r="1" fill="rgb(0,0,0)" />
	<circle cx="427.434" cy="245.994" r="1" fill="rgb(0,0,0)" />
	<circle cx="428.711" cy="320.523" r="1" fill="rgb(0,0,0)" />
	<circle cx="428.711" cy="291.159" r="1" fill="rgb(0,0,0)" />
	<circle cx="428.87" cy="279.987" r="1" fill="rgb(0,0,0)" />
	<circle cx="428.87" cy="245.515" r="1" fill="rgb(0,0,0)" />
	<circle cx="429.508" cy="253.655" r="1" fill="rgb(0,0,0)" />
	<circle cx="431.104" cy="430.003" r="1" fill="rgb(0,0,0)" />
	<circle cx="431.424" cy="365.049" r="1" fill="rgb(0,0,0)" />
	<circle cx="431.424" cy="246.313" r="1" fill="rgb(0,0,0)" />
	<circle cx="431.424" cy="194.925" r="1" fill="rgb(0,0,0)" />
	<circle cx="433.019" cy="601.245" r="1" fill="rgb(0,0,0)" />
	<circle cx="433.339" cy="349.729" r="1" fill="rgb(0,0,0)" />
	<circle cx="433.498" cy="349.888" r="1" fill="rgb(0,0,0)" />
	<circle cx="433.977" cy="273.444" r="1" fill="rgb(0,0,0)" />
	<circle cx="434.615" cy="334.568" r="1" fill="rgb(0,0,0)" />
	<circle cx="436.69" cy="233.387" r="1" fill="rgb(0,0,0)" />
	<circle cx="437.169" cy="201.468" r="1" fill="rgb(0,0,0)" />
	<circle cx="437.967" cy="187.903" r="1" fill="rgb(0,0,0)" />
	<circle cx="438.605" cy="199.234" r="1" fill="rgb(0,0,0)" />
	<circle cx="439.084" cy="313.182" r="1" fill="rgb(0,0,0)" />
	<circle cx="439.403" cy="244.398" r="1" fill="rgb(0,0,0)" />
	<circle cx="440.361" cy="229.556" r="1" fill="rgb(0,0,0)" />
	<circle cx="442.116" cy="249.824" r="1" fill="rgb(0,0,0)" />
	<circle cx="444.51" cy="598.053" r="1" fill="rgb(0,0,0)" />
	<circle cx="445.148" cy="230.195" r="1" fill="rgb(0,0,0)" />
	<circle cx="445.946" cy="414.842" r="1" fill="rgb(0,0,0)" />
	<circle cx="446.585" cy="246.792" r="1" fill="rgb(0,0,0)" />
	<circle cx="446.744" cy="231.312" r="1" fill="rgb(0,0,0)" />
	<circle cx="447.702" cy="357.868" r="1" fill="rgb(0,0,0)" />
	<circle cx="447.702" cy="228.439" r="1" fill="rgb(0,0,0)" />
	<circle cx="448.34" cy="351.963" r="1" fill="rgb(0,0,0)" />
	<circle cx="448.34" cy="289.403" r="1" fill="rgb(0,0,0)" />
	<circle cx="448.819" cy="73.7951" r="1" fill="rgb(0,0,0)" />
	<circle cx="449.457" cy="317.81" r="1" fill="rgb(0,0,0)" />
	<circle cx="449.936" cy="238.653" r="1" fill="rgb(0,0,0)" />
	<circle cx="450.734" cy="250.463" r="1" fill="rgb(0,0,0)" />
	<circle cx="451.053" cy="321.8" r="1" fill="rgb(0,0,0)" />
	<circle cx="451.053" cy="258.123" r="1" fill="rgb(0,0,0)" />
	<circle cx="453.926" cy="398.883" r="1" fill="rgb(0,0,0)" />
	<circle cx="455.362" cy="240.568" r="1" fill="rgb(0,0,0)" />
	<circle cx="455.522" cy="587.201" r="1" fill="rgb(0,0,0)" />
	<circle cx="455.522" cy="357.708" r="1" fill="rgb(0,0,0)" />
	<circle cx="459.99" cy="581.136" r="1" fill="rgb(0,0,0)" />
	<circle cx="460.15" cy="280.306" r="1" fill="rgb(0,0,0)" />
	<circle cx="460.469" cy="375.423" r="1" fill="rgb(0,0,0)" />
	<circle cx="460.629" cy="311.906" r="1" fill="rgb(0,0,0)" />
	<circle cx="461.427" cy="388.031" r="1" fill="rgb(0,0,0)" />
	<circle cx="462.384" cy="376.38" r="1" fill="rgb(0,0,0)" />
	<circle cx="465.417" cy="295.946" r="1" fill="rgb(0,0,0)" />
	<circle cx="466.055" cy="381.807" r="1" fill="rgb(0,0,0)" />
	<circle cx="467.491" cy="375.902" r="1" fill="rgb(0,0,0)" />
	<circle cx="470.204" cy="402.234" r="1" fill="rgb(0,0,0)" />
	<circle cx="471.321" cy="275.997" r="1" fill="rgb(0,0,0)" />
	<circle cx="471.641" cy="264.507" r="1" fill="rgb(0,0,0)" />
	<circle cx="473.715" cy="371.274" r="1" fill="rgb(0,0,0)" />
	<circle cx="473.715" cy="264.188" r="1" fill="rgb(0,0,0)" />
	<circle cx="474.673" cy="245.196" r="1" fill="rgb(0,0,0)" />
	<circle cx="475.471" cy="524.003" r="1" fill="rgb(0,0,0)" />
	<circle cx="475.471" cy="376.061" r="1" fill="rgb(0,0,0)" />
	<circle cx="475.471" cy="283.977" r="1" fill="rgb(0,0,0)" />
	<circle cx="475.63" cy="385.956" r="1" fill="rgb(0,0,0)" />
	<circle cx="475.95" cy="276.955" r="1" fill="rgb(0,0,0)" />
	<circle cx="476.588" cy="382.605" r="1" fill="rgb(0,0,0)" />
	<circle cx="476.907" cy="263.39" r="1" fill="rgb(0,0,0)" />
	<circle cx="477.226" cy="289.084" r="1" fill="rgb(0,0,0)" />
	<circle cx="478.024" cy="269.295" r="1" fill="rgb(0,0,0)" />
	<circle cx="478.024" cy="265.784" r="1" fill="rgb(0,0,0)" />
	<circle cx="478.343" cy="183.275" r="1" fill="rgb(0,0,0)" />
	<circle cx="479.939" cy="394.733" r="1" fill="rgb(0,0,0)" />
	<circle cx="481.695" cy="373.029" r="1" fill="rgb(0,0,0)" />
	<circle cx="481.695" cy="174.816" r="1" fill="rgb(0,0,0)" />
	<circle cx="481.854" cy="281.104" r="1" fill="rgb(0,0,0)" />
	<circle cx="482.493" cy="218.225" r="1" fill="rgb(0,0,0)" />
	<circle cx="483.291" cy="371.752" r="1" fill="rgb(0,0,0)" />
	<circle cx="484.727" cy="34.2164" r="1" fill="rgb(0,0,0)" />
	<circle cx="484.887" cy="319.885" r="1" fill="rgb(0,0,0)" />
	<circle cx="486.642" cy="292.435" r="1" fill="rgb(0,0,0)" />
	<circle cx="486.802" cy="365.209" r="1" fill="rgb(0,0,0)" />
	<circle cx="488.557" cy="492.084" r="1" fill="rgb(0,0,0)" />
	<circle cx="488.557" cy="363.773" r="1" fill="rgb(0,0,0)" />
	<circle cx="489.196" cy="312.703" r="1" fill="rgb(0,0,0)" />
	<circle cx="489.515" cy="522.566" r="1" fill="rgb(0,0,0)" />
	<circle cx="489.994" cy="522.247" r="1" fill="rgb(0,0,0)" />
	<circle cx="491.749" cy="400.479" r="1" fill="rgb(0,0,0)" />
	<circle cx="492.387" cy="385.477" r="1" fill="rgb(0,0,0)" />
	<circle cx="493.824" cy="369.039" r="1" fill="rgb(0,0,0)" />
	<circle cx="494.303" cy="375.423" r="1" fill="rgb(0,0,0)" />
	<circle cx="494.303" cy="288.605" r="1" fill="rgb(0,0,0)" />
	<circle cx="497.175" cy="299.777" r="1" fill="rgb(0,0,0)" />
	<circle cx="497.814" cy="217.108" r="1" fill="rgb(0,0,0)" />
	<circle cx="500.686" cy="381.487" r="1" fill="rgb(0,0,0)" />
	<circle cx="502.123" cy="339.674" r="1" fill="rgb(0,0,0)" />
	<circle cx="502.282" cy="327.865" r="1" fill="rgb(0,0,0)" />
	<circle cx="504.197" cy="46.9837" r="1" fill="rgb(0,0,0)" />
	<circle cx="504.516" cy="375.583" r="1" fill="rgb(0,0,0)" />
	<circle cx="505.474" cy="134.599" r="1" fill="rgb(0,0,0)" />
	<circle cx="506.112" cy="493.042" r="1" fill="rgb(0,0,0)" />
	<circle cx="506.591" cy="366.167" r="1" fill="rgb(0,0,0)" />
	<circle cx="507.07" cy="216.47" r="1" fill="rgb(0,0,0)" />
	<circle cx="507.708" cy="214.874" r="1" fill="rgb(0,0,0)" />
	<circle cx="509.943" cy="395.851" r="1" fill="rgb(0,0,0)" />
	<circle cx="510.262" cy="572.678" r="1" fill="rgb(0,0,0)" />
	<circle cx="510.262" cy="571.88" r="1" fill="rgb(0,0,0)" />
	<circle cx="510.581" cy="387.392" r="1" fill="rgb(0,0,0)" />
	<circle cx="510.581" cy="222.375" r="1" fill="rgb(0,0,0)" />
	<circle cx="512.975" cy="302.011" r="1" fill="rgb(0,0,0)" />
	<circle cx="512.975" cy="272.806" r="1" fill="rgb(0,0,0)" />
	<circle cx="512.975" cy="185.19" r="1" fill="rgb(0,0,0)" />
	<circle cx="513.134" cy="410.214" r="1" fill="rgb(0,0,0)" />
	<circle cx="513.773" cy="89.2755" r="1" fill="rgb(0,0,0)" />
	<circle cx="514.89" cy="371.433" r="1" fill="rgb(0,0,0)" />
	<circle cx="517.284" cy="587.839" r="1" fill="rgb(0,0,0)" />
	<circle cx="517.603" cy="580.817" r="1" fill="rgb(0,0,0)" />
	<circle cx="519.678" cy="374.944" r="1" fill="rgb(0,0,0)" />
	<circle cx="519.997" cy="587.041" r="1" fill="rgb(0,0,0)" />
	<circle cx="520.476" cy="414.523" r="1" fill="rgb(0,0,0)" />
	<circle cx="520.795" cy="439.419" r="1" fill="rgb(0,0,0)" />
	<circle cx="520.795" cy="372.869" r="1" fill="rgb(0,0,0)" />
	<circle cx="521.274" cy="413.086" r="1" fill="rgb(0,0,0)" />
	<circle cx="522.55" cy="250.303" r="1" fill="rgb(0,0,0)" />
	<circle cx="523.029" cy="267.858" r="1" fill="rgb(0,0,0)" />
	<circle cx="524.306" cy="409.256" r="1" fill="rgb(0,0,0)" />
	<circle cx="524.465" cy="374.625" r="1" fill="rgb(0,0,0)" />
	<circle cx="524.465" cy="35.9719" r="1" fill="rgb(0,0,0)" />
	<circle cx="525.423" cy="212.64" r="1" fill="rgb(0,0,0)" />
	<circle cx="525.902" cy="585.924" r="1" fill="rgb(0,0,0)" />
	<circle cx="525.902" cy="419.151" r="1" fill="rgb(0,0,0)" />
	<circle cx="526.859" cy="413.565" r="1" fill="rgb(0,0,0)" />
	<circle cx="526.859" cy="208.49" r="1" fill="rgb(0,0,0)" />
	<circle cx="527.178" cy="592.467" r="1" fill="rgb(0,0,0)" />
	<circle cx="528.296" cy="392.02" r="1" fill="rgb(0,0,0)" />
	<circle cx="529.891" cy="281.743" r="1" fill="rgb(0,0,0)" />
	<circle cx="533.083" cy="400.638" r="1" fill="rgb(0,0,0)" />
	<circle cx="535.956" cy="396.649" r="1" fill="rgb(0,0,0)" />
	<circle cx="537.392" cy="358.666" r="1" fill="rgb(0,0,0)" />
	<circle cx="537.552" cy="389.946" r="1" fill="rgb(0,0,0)" />
	<circle cx="538.19" cy="373.348" r="1" fill="rgb(0,0,0)" />
	<circle cx="538.509" cy="392.499" r="1" fill="rgb(0,0,0)" />
	<circle cx="539.148" cy="372.869" r="1" fill="rgb(0,0,0)" />
	<circle cx="539.307" cy="274.082" r="1" fill="rgb(0,0,0)" />
	<circle cx="539.627" cy="417.874" r="1" fill="rgb(0,0,0)" />
	<circle cx="541.222" cy="361.858" r="1" fill="rgb(0,0,0)" />
	<circle cx="541.861" cy="381.966" r="1" fill="rgb(0,0,0)" />
	<circle cx="542.18" cy="28.6307" r="1" fill="rgb(0,0,0)" />
	<circle cx="543.936" cy="218.225" r="1" fill="rgb(0,0,0)" />
	<circle cx="544.095" cy="231.791" r="1" fill="rgb(0,0,0)" />
	<circle cx="544.893" cy="399.202" r="1" fill="rgb(0,0,0)" />
	<circle cx="545.851" cy="369.518" r="1" fill="rgb(0,0,0)" />
	<circle cx="546.808" cy="378.774" r="1" fill="rgb(0,0,0)" />
	<circle cx="547.287" cy="306.16" r="1" fill="rgb(0,0,0)" />
	<circle cx="547.766" cy="309.033" r="1" fill="rgb(0,0,0)" />
	<circle cx="548.244" cy="437.504" r="1" fill="rgb(0,0,0)" />
	<circle cx="550.479" cy="371.912" r="1" fill="rgb(0,0,0)" />
	<circle cx="550.638" cy="242.802" r="1" fill="rgb(0,0,0)" />
	<circle cx="550.638" cy="30.7054" r="1" fill="rgb(0,0,0)" />
	<circle cx="551.117" cy="141.462" r="1" fill="rgb(0,0,0)" />
	<circle cx="552.075" cy="301.692" r="1" fill="rgb(0,0,0)" />
	<circle cx="553.351" cy="295.787" r="1" fill="rgb(0,0,0)" />
	<circle cx="553.671" cy="216.47" r="1" fill="rgb(0,0,0)" />
	<circle cx="555.267" cy="385.796" r="1" fill="rgb(0,0,0)" />
	<circle cx="557.341" cy="148.643" r="1" fill="rgb(0,0,0)" />
	<circle cx="557.98" cy="391.861" r="1" fill="rgb(0,0,0)" />
	<circle cx="558.778" cy="392.659" r="1" fill="rgb(0,0,0)" />
	<circle cx="559.256" cy="230.195" r="1" fill="rgb(0,0,0)" />
	<circle cx="560.373" cy="353.878" r="1" fill="rgb(0,0,0)" />
	<circle cx="561.012" cy="81.7747" r="1" fill="rgb(0,0,0)" />
	<circle cx="562.289" cy="375.742" r="1" fill="rgb(0,0,0)" />
	<circle cx="562.448" cy="458.251" r="1" fill="rgb(0,0,0)" />
	<circle cx="562.767" cy="384.041" r="1" fill="rgb(0,0,0)" />
	<circle cx="562.927" cy="366.167" r="1" fill="rgb(0,0,0)" />
	<circle cx="563.086" cy="403.032" r="1" fill="rgb(0,0,0)" />
	<circle cx="563.725" cy="320.204" r="1" fill="rgb(0,0,0)" />
	<circle cx="564.044" cy="230.514" r="1" fill="rgb(0,0,0)" />
	<circle cx="564.842" cy="257.644" r="1" fill="rgb(0,0,0)" />
	<circle cx="565.321" cy="425.854" r="1" fill="rgb(0,0,0)" />
	<circle cx="565.64" cy="460.485" r="1" fill="rgb(0,0,0)" />
	<circle cx="565.64" cy="265.784" r="1" fill="rgb(0,0,0)" />
	<circle cx="565.8" cy="406.384" r="1" fill="rgb(0,0,0)" />
	<circle cx="566.757" cy="452.984" r="1" fill="rgb(0,0,0)" />
	<circle cx="566.917" cy="445.164" r="1" fill="rgb(0,0,0)" />
	<circle cx="567.395" cy="376.061" r="1" fill="rgb(0,0,0)" />
	<circle cx="567.715" cy="444.047" r="1" fill="rgb(0,0,0)" />
	<circle cx="567.715" cy="365.528" r="1" fill="rgb(0,0,0)" />
	<circle cx="568.672" cy="373.029" r="1" fill="rgb(0,0,0)" />
	<circle cx="569.789" cy="433.355" r="1" fill="rgb(0,0,0)" />
	<circle cx="570.428" cy="456.495" r="1" fill="rgb(0,0,0)" />
	<circle cx="570.906" cy="430.003" r="1" fill="rgb(0,0,0)" />
	<circle cx="571.066" cy="183.754" r="1" fill="rgb(0,0,0)" />
	<circle cx="571.385" cy="460.964" r="1" fill="rgb(0,0,0)" />
	<circle cx="572.343" cy="462.879" r="1" fill="rgb(0,0,0)" />
	<circle cx="573.3" cy="465.113" r="1" fill="rgb(0,0,0)" />
	<circle cx="574.896" cy="411.491" r="1" fill="rgb(0,0,0)" />
	<circle cx="575.694" cy="253.335" r="1" fill="rgb(0,0,0)" />
	<circle cx="576.013" cy="459.049" r="1" fill="rgb(0,0,0)" />
	<circle cx="576.652" cy="564.698" r="1" fill="rgb(0,0,0)" />
	<circle cx="576.971" cy="410.214" r="1" fill="rgb(0,0,0)" />
	<circle cx="578.088" cy="466.869" r="1" fill="rgb(0,0,0)" />
	<circle cx="578.088" cy="437.025" r="1" fill="rgb(0,0,0)" />
	<circle cx="578.886" cy="310.948" r="1" fill="rgb(0,0,0)" />
	<circle cx="579.046" cy="456.815" r="1" fill="rgb(0,0,0)" />
	<circle cx="580.322" cy="115.448" r="1" fill="rgb(0,0,0)" />
	<circle cx="582.078" cy="81.7747" r="1" fill="rgb(0,0,0)" />
	<circle cx="583.035" cy="120.555" r="1" fill="rgb(0,0,0)" />
	<circle cx="586.227" cy="168.752" r="1" fill="rgb(0,0,0)" />
	<circle cx="587.025" cy="360.102" r="1" fill="rgb(0,0,0)" />
	<circle cx="587.344" cy="426.652" r="1" fill="rgb(0,0,0)" />
	<circle cx="588.142" cy="137.791" r="1" fill="rgb(0,0,0)" />
	<circle cx="588.621" cy="240.728" r="1" fill="rgb(0,0,0)" />
	<circle cx="589.1" cy="63.262" r="1" fill="rgb(0,0,0)" />
	<circle cx="589.738" cy="210.246" r="1" fill="rgb(0,0,0)" />
	<circle cx="589.738" cy="131.727" r="1" fill="rgb(0,0,0)" />
	<circle cx="590.855" cy="42.196" r="1" fill="rgb(0,0,0)" />
	<circle cx="596.122" cy="201.309" r="1" fill="rgb(0,0,0)" />
	<circle cx="596.122" cy="132.525" r="1" fill="rgb(0,0,0)" />
	<circle cx="596.92" cy="367.763" r="1" fill="rgb(0,0,0)" />
	<circle cx="597.079" cy="448.675" r="1" fill="rgb(0,0,0)" />
	<circle cx="598.356" cy="88.1583" r="1" fill="rgb(0,0,0)" />
	<circle cx="598.516" cy="207.533" r="1" fill="rgb(0,0,0)" />
	<circle cx="600.271" cy="453.782" r="1" fill="rgb(0,0,0)" />
	<circle cx="600.59" cy="253.176" r="1" fill="rgb(0,0,0)" />
	<circle cx="601.867" cy="208.49" r="1" fill="rgb(0,0,0)" />
	<circle cx="602.186" cy="568.848" r="1" fill="rgb(0,0,0)" />
	<circle cx="602.984" cy="253.814" r="1" fill="rgb(0,0,0)" />
	<circle cx="603.942" cy="429.365" r="1" fill="rgb(0,0,0)" />
	<circle cx="603.942" cy="289.882" r="1" fill="rgb(0,0,0)" />
	<circle cx="606.336" cy="388.988" r="1" fill="rgb(0,0,0)" />
	<circle cx="606.495" cy="564.379" r="1" fill="rgb(0,0,0)" />
	<circle cx="606.974" cy="117.044" r="1" fill="rgb(0,0,0)" />
	<circle cx="607.932" cy="453.304" r="1" fill="rgb(0,0,0)" />
	<circle cx="609.049" cy="569.167" r="1" fill="rgb(0,0,0)" />
	<circle cx="609.368" cy="447.877" r="1" fill="rgb(0,0,0)" />
	<circle cx="610.006" cy="471.497" r="1" fill="rgb(0,0,0)" />
	<circle cx="610.326" cy="261.634" r="1" fill="rgb(0,0,0)" />
	<circle cx="611.283" cy="44.1111" r="1" fill="rgb(0,0,0)" />
	<circle cx="612.4" cy="486.499" r="1" fill="rgb(0,0,0)" />
	<circle cx="612.56" cy="478.04" r="1" fill="rgb(0,0,0)" />
	<circle cx="612.719" cy="81.2959" r="1" fill="rgb(0,0,0)" />
	<circle cx="613.677" cy="468.944" r="1" fill="rgb(0,0,0)" />
	<circle cx="616.23" cy="193.329" r="1" fill="rgb(0,0,0)" />
	<circle cx="617.348" cy="367.922" r="1" fill="rgb(0,0,0)" />
	<circle cx="618.305" cy="265.943" r="1" fill="rgb(0,0,0)" />
	<circle cx="620.061" cy="469.103" r="1" fill="rgb(0,0,0)" />
	<circle cx="621.018" cy="224.449" r="1" fill="rgb(0,0,0)" />
	<circle cx="621.497" cy="579.062" r="1" fill="rgb(0,0,0)" />
	<circle cx="621.976" cy="573.316" r="1" fill="rgb(0,0,0)" />
	<circle cx="622.135" cy="483.466" r="1" fill="rgb(0,0,0)" />
	<circle cx="622.135" cy="380.849" r="1" fill="rgb(0,0,0)" />
	<circle cx="623.412" cy="356.91" r="1" fill="rgb(0,0,0)" />
	<circle cx="624.21" cy="268.018" r="1" fill="rgb(0,0,0)" />
	<circle cx="625.646" cy="456.176" r="1" fill="rgb(0,0,0)" />
	<circle cx="626.604" cy="296.904" r="1" fill="rgb(0,0,0)" />
	<circle cx="628.359" cy="580.338" r="1" fill="rgb(0,0,0)" />
	<circle cx="631.072" cy="76.0294" r="1" fill="rgb(0,0,0)" />
	<circle cx="631.87" cy="462.56" r="1" fill="rgb(0,0,0)" />
	<circle cx="633.626" cy="329.78" r="1" fill="rgb(0,0,0)" />
	<circle cx="634.105" cy="560.868" r="1" fill="rgb(0,0,0)" />
	<circle cx="638.094" cy="481.392" r="1" fill="rgb(0,0,0)" />
	<circle cx="638.094" cy="381.647" r="1" fill="rgb(0,0,0)" />
	<circle cx="638.094" cy="293.712" r="1" fill="rgb(0,0,0)" />
	<circle cx="638.892" cy="478.838" r="1" fill="rgb(0,0,0)" />
	<circle cx="639.052" cy="346.058" r="1" fill="rgb(0,0,0)" />
	<circle cx="639.371" cy="46.1858" r="1" fill="rgb(0,0,0)" />
	<circle cx="639.85" cy="335.844" r="1" fill="rgb(0,0,0)" />
	<circle cx="640.01" cy="557.996" r="1" fill="rgb(0,0,0)" />
	<circle cx="640.808" cy="309.831" r="1" fill="rgb(0,0,0)" />
	<circle cx="640.967" cy="357.549" r="1" fill="rgb(0,0,0)" />
	<circle cx="641.765" cy="275.04" r="1" fill="rgb(0,0,0)" />
	<circle cx="644.957" cy="376.38" r="1" fill="rgb(0,0,0)" />
	<circle cx="645.436" cy="108.586" r="1" fill="rgb(0,0,0)" />
	<circle cx="647.032" cy="383.402" r="1" fill="rgb(0,0,0)" />
	<circle cx="650.383" cy="368.082" r="1" fill="rgb(0,0,0)" />
	<circle cx="650.702" cy="324.354" r="1" fill="rgb(0,0,0)" />
	<circle cx="652.617" cy="514.427" r="1" fill="rgb(0,0,0)" />
	<circle cx="652.936" cy="368.241" r="1" fill="rgb(0,0,0)" />
	<circle cx="653.575" cy="360.421" r="1" fill="rgb(0,0,0)" />
	<circle cx="659.32" cy="422.662" r="1" fill="rgb(0,0,0)" />
	<circle cx="659.959" cy="364.411" r="1" fill="rgb(0,0,0)" />
	<circle cx="660.916" cy="168.752" r="1" fill="rgb(0,0,0)" />
	<circle cx="665.065" cy="312.703" r="1" fill="rgb(0,0,0)" />
	<circle cx="665.225" cy="356.112" r="1" fill="rgb(0,0,0)" />
	<circle cx="666.821" cy="307.118" r="1" fill="rgb(0,0,0)" />
	<circle cx="668.098" cy="533.897" r="1" fill="rgb(0,0,0)" />
	<circle cx="668.417" cy="421.864" r="1" fill="rgb(0,0,0)" />
	<circle cx="668.576" cy="371.274" r="1" fill="rgb(0,0,0)" />
	<circle cx="669.055" cy="532.78" r="1" fill="rgb(0,0,0)" />
	<circle cx="670.811" cy="373.827" r="1" fill="rgb(0,0,0)" />
	<circle cx="671.289" cy="174.976" r="1" fill="rgb(0,0,0)" />
	<circle cx="672.407" cy="221.736" r="1" fill="rgb(0,0,0)" />
	<circle cx="672.407" cy="217.587" r="1" fill="rgb(0,0,0)" />
	<circle cx="673.205" cy="81.9342" r="1" fill="rgb(0,0,0)" />
	<circle cx="674.162" cy="499.745" r="1" fill="rgb(0,0,0)" />
	<circle cx="674.481" cy="316.693" r="1" fill="rgb(0,0,0)" />
	<circle cx="676.556" cy="528.312" r="1" fill="rgb(0,0,0)" />
	<circle cx="679.429" cy="239.93" r="1" fill="rgb(0,0,0)" />
	<circle cx="679.588" cy="229.078" r="1" fill="rgb(0,0,0)" />
	<circle cx="684.536" cy="238.174" r="1" fill="rgb(0,0,0)" />
	<circle cx="685.812" cy="344.622" r="1" fill="rgb(0,0,0)" />
	<circle cx="686.132" cy="314.459" r="1" fill="rgb(0,0,0)" />
	<circle cx="686.451" cy="313.182" r="1" fill="rgb(0,0,0)" />
	<circle cx="691.238" cy="289.722" r="1" fill="rgb(0,0,0)" />
	<circle cx="691.558" cy="277.434" r="1" fill="rgb(0,0,0)" />
	<circle cx="691.877" cy="331.376" r="1" fill="rgb(0,0,0)" />
	<circle cx="693.154" cy="29.1095" r="1" fill="rgb(0,0,0)" />
	<circle cx="693.632" cy="191.733" r="1" fill="rgb(0,0,0)" />
	<circle cx="694.111" cy="425.535" r="1" fill="rgb(0,0,0)" />
	<circle cx="696.345" cy="259.719" r="1" fill="rgb(0,0,0)" />
	<circle cx="697.303" cy="426.652" r="1" fill="rgb(0,0,0)" />
	<circle cx="697.622" cy="264.028" r="1" fill="rgb(0,0,0)" />
	<circle cx="698.739" cy="427.609" r="1" fill="rgb(0,0,0)" />
	<circle cx="699.378" cy="47.4625" r="1" fill="rgb(0,0,0)" />
	<circle cx="700.016" cy="180.083" r="1" fill="rgb(0,0,0)" />
	<circle cx="701.452" cy="270.252" r="1" fill="rgb(0,0,0)" />
	<circle cx="706.878" cy="224.769" r="1" fill="rgb(0,0,0)" />
	<circle cx="709.591" cy="43.3131" r="1" fill="rgb(0,0,0)" />
	<circle cx="710.549" cy="46.3454" r="1" fill="rgb(0,0,0)" />
	<circle cx="710.868" cy="45.5474" r="1" fill="rgb(0,0,0)" />
	<circle cx="711.347" cy="262.911" r="1" fill="rgb(0,0,0)" />
	<circle cx="712.145" cy="262.432" r="1" fill="rgb(0,0,0)" />
	<circle cx="712.783" cy="336.961" r="1" fill="rgb(0,0,0)" />
	<circle cx="715.177" cy="187.584" r="1" fill="rgb(0,0,0)" />
	<circle cx="716.135" cy="185.35" r="1" fill="rgb(0,0,0)" />
	<circle cx="716.135" cy="173.38" r="1" fill="rgb(0,0,0)" />
	<circle cx="716.773" cy="447.877" r="1" fill="rgb(0,0,0)" />
	<circle cx="717.571" cy="327.067" r="1" fill="rgb(0,0,0)" />
	<circle cx="718.209" cy="272.327" r="1" fill="rgb(0,0,0)" />
	<circle cx="719.805" cy="369.358" r="1" fill="rgb(0,0,0)" />
	<circle cx="721.88" cy="276.157" r="1" fill="rgb(0,0,0)" />
	<circle cx="723.316" cy="170.348" r="1" fill="rgb(0,0,0)" />
	<circle cx="724.753" cy="380.211" r="1" fill="rgb(0,0,0)" />
	<circle cx="726.827" cy="260.836" r="1" fill="rgb(0,0,0)" />
	<circle cx="727.147" cy="249.186" r="1" fill="rgb(0,0,0)" />
	<circle cx="729.54" cy="327.865" r="1" fill="rgb(0,0,0)" />
	<circle cx="729.7" cy="327.865" r="1" fill="rgb(0,0,0)" />
	<circle cx="730.338" cy="204.341" r="1" fill="rgb(0,0,0)" />
	<circle cx="730.498" cy="256.527" r="1" fill="rgb(0,0,0)" />
	<circle cx="732.413" cy="246.952" r="1" fill="rgb(0,0,0)" />
	<circle cx="732.732" cy="272.327" r="1" fill="rgb(0,0,0)" />
	<circle cx="733.53" cy="385.956" r="1" fill="rgb(0,0,0)" />
	<circle cx="734.807" cy="368.401" r="1" fill="rgb(0,0,0)" />
	<circle cx="737.201" cy="319.087" r="1" fill="rgb(0,0,0)" />
	<circle cx="737.839" cy="394.414" r="1" fill="rgb(0,0,0)" />
	<circle cx="741.191" cy="372.55" r="1" fill="rgb(0,0,0)" />
	<circle cx="743.265" cy="480.753" r="1" fill="rgb(0,0,0)" />
	<circle cx="743.425" cy="278.551" r="1" fill="rgb(0,0,0)" />
	<circle cx="743.904" cy="486.02" r="1" fill="rgb(0,0,0)" />
	<circle cx="748.053" cy="206.735" r="1" fill="rgb(0,0,0)" />
	<circle cx="750.606" cy="411.012" r="1" fill="rgb(0,0,0)" />
	<circle cx="751.245" cy="216.789" r="1" fill="rgb(0,0,0)" />
	<circle cx="752.202" cy="150.559" r="1" fill="rgb(0,0,0)" />
	<circle cx="754.915" cy="391.222" r="1" fill="rgb(0,0,0)" />
	<circle cx="757.309" cy="335.365" r="1" fill="rgb(0,0,0)" />
	<circle cx="759.065" cy="348.133" r="1" fill="rgb(0,0,0)" />
	<circle cx="761.618" cy="268.337" r="1" fill="rgb(0,0,0)" />
	<circle cx="762.735" cy="176.732" r="1" fill="rgb(0,0,0)" />
	<circle cx="765.927" cy="155.985" r="1" fill="rgb(0,0,0)" />
	<circle cx="766.087" cy="525.439" r="1" fill="rgb(0,0,0)" />
	<circle cx="766.566" cy="152.952" r="1" fill="rgb(0,0,0)" />
	<circle cx="767.204" cy="155.506" r="1" fill="rgb(0,0,0)" />
	<circle cx="769.598" cy="280.945" r="1" fill="rgb(0,0,0)" />
	<circle cx="769.757" cy="280.945" r="1" fill="rgb(0,0,0)" />
	<circle cx="770.077" cy="240.568" r="1" fill="rgb(0,0,0)" />
	<circle cx="770.875" cy="214.395" r="1" fill="rgb(0,0,0)" />
	<circle cx="771.353" cy="513.629" r="1" fill="rgb(0,0,0)" />
	<circle cx="771.832" cy="224.29" r="1" fill="rgb(0,0,0)" />
	<circle cx="774.864" cy="265.145" r="1" fill="rgb(0,0,0)" />
	<circle cx="774.864" cy="211.363" r="1" fill="rgb(0,0,0)" />
	<circle cx="775.981" cy="526.396" r="1" fill="rgb(0,0,0)" />
	<circle cx="778.056" cy="382.445" r="1" fill="rgb(0,0,0)" />
	<circle cx="779.492" cy="131.248" r="1" fill="rgb(0,0,0)" />
	<circle cx="781.567" cy="265.145" r="1" fill="rgb(0,0,0)" />
	<circle cx="785.557" cy="355.953" r="1" fill="rgb(0,0,0)" />
	<circle cx="786.195" cy="266.582" r="1" fill="rgb(0,0,0)" />
	<circle cx="787.312" cy="417.076" r="1" fill="rgb(0,0,0)" />
	<circle cx="788.27" cy="220.14" r="1" fill="rgb(0,0,0)" />
	<circle cx="788.749" cy="264.826" r="1" fill="rgb(0,0,0)" />
	<circle cx="790.026" cy="90.5522" r="1" fill="rgb(0,0,0)" />
	<circle cx="790.504" cy="552.729" r="1" fill="rgb(0,0,0)" />
	<circle cx="793.377" cy="448.835" r="1" fill="rgb(0,0,0)" />
	<circle cx="794.973" cy="532.94" r="1" fill="rgb(0,0,0)" />
	<circle cx="795.132" cy="334.568" r="1" fill="rgb(0,0,0)" />
	<circle cx="798.803" cy="339.036" r="1" fill="rgb(0,0,0)" />
	<circle cx="801.037" cy="427.45" r="1" fill="rgb(0,0,0)" />
	<circle cx="802.154" cy="191.893" r="1" fill="rgb(0,0,0)" />
	<circle cx="803.112" cy="532.94" r="1" fill="rgb(0,0,0)" />
	<circle cx="807.102" cy="217.747" r="1" fill="rgb(0,0,0)" />
	<circle cx="808.379" cy="316.374" r="1" fill="rgb(0,0,0)" />
	<circle cx="809.336" cy="391.222" r="1" fill="rgb(0,0,0)" />
	<circle cx="809.496" cy="523.683" r="1" fill="rgb(0,0,0)" />
	<circle cx="810.453" cy="250.942" r="1" fill="rgb(0,0,0)" />
	<circle cx="813.964" cy="481.072" r="1" fill="rgb(0,0,0)" />
	<circle cx="814.603" cy="506.767" r="1" fill="rgb(0,0,0)" />
	<circle cx="815.879" cy="267.06" r="1" fill="rgb(0,0,0)" />
	<circle cx="816.518" cy="507.565" r="1" fill="rgb(0,0,0)" />
	<circle cx="817.794" cy="491.765" r="1" fill="rgb(0,0,0)" />
	<circle cx="821.944" cy="112.576" r="1" fill="rgb(0,0,0)" />
	<circle cx="822.901" cy="522.726" r="1" fill="rgb(0,0,0)" />
	<circle cx="828.487" cy="405.745" r="1" fill="rgb(0,0,0)" />
	<circle cx="829.285" cy="424.577" r="1" fill="rgb(0,0,0)" />
	<circle cx="829.764" cy="30.865" r="1" fill="rgb(0,0,0)" />
	<circle cx="842.052" cy="214.395" r="1" fill="rgb(0,0,0)" />
	<circle cx="847" cy="272.646" r="1" fill="rgb(0,0,0)" />
	<circle cx="847.478" cy="559.113" r="1" fill="rgb(0,0,0)" />
	<circle cx="848.915" cy="150.239" r="1" fill="rgb(0,0,0)" />
	<circle cx="851.787" cy="272.486" r="1" fill="rgb(0,0,0)" />
	<circle cx="852.905" cy="291.318" r="1" fill="rgb(0,0,0)" />
	<circle cx="853.703" cy="398.085" r="1" fill="rgb(0,0,0)" />
	<circle cx="855.777" cy="416.757" r="1" fill="rgb(0,0,0)" />
	<circle cx="857.692" cy="101.564" r="1" fill="rgb(0,0,0)" />
	<circle cx="858.171" cy="455.219" r="1" fill="rgb(0,0,0)" />
	<circle cx="858.171" cy="92.9461" r="1" fill="rgb(0,0,0)" />
	<circle cx="872.853" cy="39.9617" r="1" fill="rgb(0,0,0)" />
	<circle cx="873.173" cy="156.144" r="1" fill="rgb(0,0,0)" />
	<circle cx="877.322" cy="444.526" r="1" fill="rgb(0,0,0)" />
	<circle cx="881.95" cy="56.3996" r="1" fill="rgb(0,0,0)" />
	<circle cx="884.663" cy="395.372" r="1" fill="rgb(0,0,0)" />
	<circle cx="885.302" cy="460.006" r="1" fill="rgb(0,0,0)" />
	<circle cx="886.419" cy="446.92" r="1" fill="rgb(0,0,0)" />
	<circle cx="888.972" cy="400.319" r="1" fill="rgb(0,0,0)" />
	<circle cx="889.93" cy="433.195" r="1" fill="rgb(0,0,0)" />
	<circle cx="890.887" cy="410.373" r="1" fill="rgb(0,0,0)" />
	<circle cx="894.877" cy="542.196" r="1" fill="rgb(0,0,0)" />
	<circle cx="896.313" cy="455.697" r="1" fill="rgb(0,0,0)" />
	<circle cx="897.909" cy="402.075" r="1" fill="rgb(0,0,0)" />
	<circle cx="905.41" cy="252.697" r="1" fill="rgb(0,0,0)" />
	<circle cx="908.442" cy="470.38" r="1" fill="rgb(0,0,0)" />
	<circle cx="914.986" cy="479.796" r="1" fill="rgb(0,0,0)" />
	<circle cx="916.741" cy="357.549" r="1" fill="rgb(0,0,0)" />
	<circle cx="921.21" cy="365.209" r="1" fill="rgb(0,0,0)" />
	<circle cx="924.082" cy="476.923" r="1" fill="rgb(0,0,0)" />
	<circle cx="925.997" cy="170.827" r="1" fill="rgb(0,0,0)" />
	<circle cx="928.072" cy="537.887" r="1" fill="rgb(0,0,0)" />
	<circle cx="929.03" cy="175.934" r="1" fill="rgb(0,0,0)" />
	<circle cx="929.189" cy="528.631" r="1" fill="rgb(0,0,0)" />
	<circle cx="931.583" cy="177.37" r="1" fill="rgb(0,0,0)" />
	<circle cx="934.137" cy="400.798" r="1" fill="rgb(0,0,0)" />
	<circle cx="937.967" cy="170.348" r="1" fill="rgb(0,0,0)" />
	<circle cx="938.446" cy="171.625" r="1" fill="rgb(0,0,0)" />
	<circle cx="941.957" cy="378.136" r="1" fill="rgb(0,0,0)" />
	<circle cx="949.777" cy="503.734" r="1" fill="rgb(0,0,0)" />
	<circle cx="951.851" cy="396.649" r="1" fill="rgb(0,0,0)" />
	<circle cx="952.011" cy="410.693" r="1" fill="rgb(0,0,0)" />
	<circle cx="952.49" cy="169.231" r="1" fill="rgb(0,0,0)" />
	<circle cx="956.799" cy="165.72" r="1" fill="rgb(0,0,0)" />
	<circle cx="958.235" cy="415.321" r="1" fill="rgb(0,0,0)" />
	<circle cx="959.512" cy="411.012" r="1" fill="rgb(0,0,0)" />
	<circle cx="962.384" cy="260.677" r="1" fill="rgb(0,0,0)" />
	<circle cx="962.703" cy="580.498" r="1" fill="rgb(0,0,0)" />
	<circle cx="970.364" cy="31.6629" r="1" fill="rgb(0,0,0)" />
	<circle cx="973.237" cy="484.105" r="1" fill="rgb(0,0,0)" />
	<circle cx="973.396" cy="218.385" r="1" fill="rgb(0,0,0)" />
	<circle cx="975.311" cy="335.685" r="1" fill="rgb(0,0,0)" />
	<circle cx="976.109" cy="491.925" r="1" fill="rgb(0,0,0)" />
	<circle cx="978.822" cy="344.303" r="1" fill="rgb(0,0,0)" />
	<circle cx="984.089" cy="485.86" r="1" fill="rgb(0,0,0)" />
	<circle cx="989.994" cy="265.624" r="1" fill="rgb(0,0,0)" />
	<circle cx="993.026" cy="39.6425" r="1" fill="rgb(0,0,0)" />
	<circle cx="998.133" cy="560.549" r="1" fill="rgb(0,0,0)" />
	<circle cx="1002.28" cy="484.264" r="1" fill="rgb(0,0,0)" />
	<circle cx="1002.6" cy="255.091" r="1" fill="rgb(0,0,0)" />
	<circle cx="1002.76" cy="490.329" r="1" fill="rgb(0,0,0)" />
	<circle cx="1002.76" cy="487.297" r="1" fill="rgb(0,0,0)" />
	<circle cx="1003.56" cy="29.4287" r="1" fill="rgb(0,0,0)" />
	<circle cx="1005" cy="38.685" r="1" fill="rgb(0,0,0)" />
	<circle cx="1005.31" cy="516.342" r="1" fill="rgb(0,0,0)" />
	<circle cx="1005.47" cy="567.411" r="1" fill="rgb(0,0,0)" />
	<circle cx="1006.59" cy="257.166" r="1" fill="rgb(0,0,0)" />
	<circle cx="1007.39" cy="35.3335" r="1" fill="rgb(0,0,0)" />
	<circle cx="1007.71" cy="354.995" r="1" fill="rgb(0,0,0)" />
	<circle cx="1008.03" cy="257.166" r="1" fill="rgb(0,0,0)" />
	<circle cx="1012.18" cy="580.019" r="1" fill="rgb(0,0,0)" />
	<circle cx="1015.05" cy="576.827" r="1" fill="rgb(0,0,0)" />
	<circle cx="1037.23" cy="501.66" r="1" fill="rgb(0,0,0)" />
	<circle cx="1037.55" cy="206.416" r="1" fill="rgb(0,0,0)" />
	<circle cx="1037.87" cy="152.314" r="1" fill="rgb(0,0,0)" />
	<circle cx="1042.34" cy="516.981" r="1" fill="rgb(0,0,0)" />
	<circle cx="1043.14" cy="535.174" r="1" fill="rgb(0,0,0)" />
	<circle cx="1050" cy="557.038" r="1" fill="rgb(0,0,0)" />
</svg>
