<?xml version="1.0" standalone="no" ?>
<!DOCTYPE svg PUBLIC "-//W3C//DTD SVG 1.1//EN" "http://www.w3.org/Graphics/SVG/1.1/DTD/svg11.dtd">
<svg width="1100px" height="572.459px" xmlns="http://www.w3.org/2000/svg" version="1.1" >
	<circle cx="50" cy="172.783" r="1" fill="rgb(0,0,0)" />
	<circle cx="78.7032" cy="432.479" r="1" fill="rgb(0,0,0)" />
	<circle cx="190.953" cy="316.47" r="1" fill="rgb(0,0,0)" />
	<circle cx="206.159" cy="440.851" r="1" fill="rgb(0,0,0)" />
	<circle cx="216.24" cy="170.904" r="1" fill="rgb(0,0,0)" />
	<circle cx="225.295" cy="546.438" r="1" fill="rgb(0,0,0)" />
	<circle cx="308.671" cy="268.631" r="1" fill="rgb(0,0,0)" />
	<circle cx="327.977" cy="228.823" r="1" fill="rgb(0,0,0)" />
	<circle cx="393.414" cy="192.773" r="1" fill="rgb(0,0,0)" />
	<circle cx="412.72" cy="330.651" r="1" fill="rgb(0,0,0)" />
	<circle cx="415.283" cy="349.103" r="1" fill="rgb(0,0,0)" />
	<circle cx="438.348" cy="273.928" r="1" fill="rgb(0,0,0)" />
	<circle cx="448.77" cy="197.557" r="1" fill="rgb(0,0,0)" />
	<circle cx="465.001" cy="256.33" r="1" fill="rgb(0,0,0)" />
	<circle cx="486.87" cy="342.781" r="1" fill="rgb(0,0,0)" />
	<circle cx="488.579" cy="179.788" r="1" fill="rgb(0,0,0)" />
	<circle cx="490.629" cy="207.979" r="1" fill="rgb(0,0,0)" />
	<circle cx="530.437" cy="388.57" r="1" fill="rgb(0,0,0)" />
	<circle cx="678.054" cy="183.376" r="1" fill="rgb(0,0,0)" />
	<circle cx="777.49" cy="248.3" r="1" fill="rgb(0,0,0)" />
	<circle cx="845.489" cy="339.877" r="1" fill="rgb(0,0,0)" />
	<circle cx="848.907" cy="357.817" r="1" fill="rgb(0,0,0)" />
	<circle cx="935.187" cy="26.0208" r="1" fill="rgb(0,0,0)" />
	<circle cx="998.915" cy="472.459" r="1" fill="rgb(0,0,0)" />
	<circle cx="1050" cy="540.97" r="1" fill="rgb(0,0,0)" />
</svg>
