<?xml version="1.0" standalone="no" ?>
<!DOCTYPE svg PUBLIC "-//W3C//DTD SVG 1.1//EN" "http://www.w3.org/Graphics/SVG/1.1/DTD/svg11.dtd">
<svg width="1100px" height="644.946px" xmlns="http://www.w3.org/2000/svg" version="1.1" >
	<circle cx="50" cy="552.125" r="1" fill="rgb(0,0,0)" />
	<circle cx="56.2356" cy="555.243" r="1" fill="rgb(0,0,0)" />
	<circle cx="57.8766" cy="453.668" r="1" fill="rgb(0,0,0)" />
	<circle cx="60.8303" cy="483.205" r="1" fill="rgb(0,0,0)" />
	<circle cx="62.3072" cy="452.519" r="1" fill="rgb(0,0,0)" />
	<circle cx="62.7995" cy="207.524" r="1" fill="rgb(0,0,0)" />
	<circle cx="63.4559" cy="495.02" r="1" fill="rgb(0,0,0)" />
	<circle cx="65.7532" cy="500.107" r="1" fill="rgb(0,0,0)" />
	<circle cx="75.2708" cy="545.889" r="1" fill="rgb(0,0,0)" />
	<circle cx="78.7168" cy="555.735" r="1" fill="rgb(0,0,0)" />
	<circle cx="83.3115" cy="502.568" r="1" fill="rgb(0,0,0)" />
	<circle cx="89.8753" cy="489.933" r="1" fill="rgb(0,0,0)" />
	<circle cx="93.8136" cy="549.828" r="1" fill="rgb(0,0,0)" />
	<circle cx="111.372" cy="490.261" r="1" fill="rgb(0,0,0)" />
	<circle cx="120.889" cy="192.099" r="1" fill="rgb(0,0,0)" />
	<circle cx="126.469" cy="586.093" r="1" fill="rgb(0,0,0)" />
	<circle cx="133.032" cy="599.877" r="1" fill="rgb(0,0,0)" />
	<circle cx="135.33" cy="160.592" r="1" fill="rgb(0,0,0)" />
	<circle cx="137.791" cy="520.29" r="1" fill="rgb(0,0,0)" />
	<circle cx="139.76" cy="159.28" r="1" fill="rgb(0,0,0)" />
	<circle cx="140.253" cy="460.888" r="1" fill="rgb(0,0,0)" />
	<circle cx="141.237" cy="457.934" r="1" fill="rgb(0,0,0)" />
	<circle cx="152.068" cy="267.419" r="1" fill="rgb(0,0,0)" />
	<circle cx="160.765" cy="131.876" r="1" fill="rgb(0,0,0)" />
	<circle cx="161.257" cy="480.743" r="1" fill="rgb(0,0,0)" />
	<circle cx="165.523" cy="133.845" r="1" fill="rgb(0,0,0)" />
	<circle cx="172.415" cy="120.389" r="1" fill="rgb(0,0,0)" />
	<circle cx="174.549" cy="504.537" r="1" fill="rgb(0,0,0)" />
	<circle cx="181.441" cy="232.302" r="1" fill="rgb(0,0,0)" />
	<circle cx="182.754" cy="436.93" r="1" fill="rgb(0,0,0)" />
	<circle cx="182.918" cy="511.757" r="1" fill="rgb(0,0,0)" />
	<circle cx="183.246" cy="502.076" r="1" fill="rgb(0,0,0)" />
	<circle cx="186.528" cy="508.968" r="1" fill="rgb(0,0,0)" />
	<circle cx="188.497" cy="263.645" r="1" fill="rgb(0,0,0)" />
	<circle cx="190.466" cy="183.894" r="1" fill="rgb(0,0,0)" />
	<circle cx="195.881" cy="126.789" r="1" fill="rgb(0,0,0)" />
	<circle cx="196.373" cy="539.982" r="1" fill="rgb(0,0,0)" />
	<circle cx="197.522" cy="85.6006" r="1" fill="rgb(0,0,0)" />
	<circle cx="200.804" cy="127.937" r="1" fill="rgb(0,0,0)" />
	<circle cx="201.46" cy="180.612" r="1" fill="rgb(0,0,0)" />
	<circle cx="205.399" cy="440.868" r="1" fill="rgb(0,0,0)" />
	<circle cx="206.055" cy="233.943" r="1" fill="rgb(0,0,0)" />
	<circle cx="206.219" cy="439.719" r="1" fill="rgb(0,0,0)" />
	<circle cx="206.712" cy="463.185" r="1" fill="rgb(0,0,0)" />
	<circle cx="210.814" cy="136.306" r="1" fill="rgb(0,0,0)" />
	<circle cx="211.142" cy="448.252" r="1" fill="rgb(0,0,0)" />
	<circle cx="211.47" cy="238.866" r="1" fill="rgb(0,0,0)" />
	<circle cx="216.393" cy="205.391" r="1" fill="rgb(0,0,0)" />
	<circle cx="221.808" cy="569.191" r="1" fill="rgb(0,0,0)" />
	<circle cx="221.808" cy="240.343" r="1" fill="rgb(0,0,0)" />
	<circle cx="223.285" cy="583.96" r="1" fill="rgb(0,0,0)" />
	<circle cx="223.285" cy="188.489" r="1" fill="rgb(0,0,0)" />
	<circle cx="226.731" cy="440.704" r="1" fill="rgb(0,0,0)" />
	<circle cx="232.803" cy="584.288" r="1" fill="rgb(0,0,0)" />
	<circle cx="233.295" cy="317.96" r="1" fill="rgb(0,0,0)" />
	<circle cx="235.264" cy="584.78" r="1" fill="rgb(0,0,0)" />
	<circle cx="236.413" cy="556.392" r="1" fill="rgb(0,0,0)" />
	<circle cx="245.602" cy="567.058" r="1" fill="rgb(0,0,0)" />
	<circle cx="246.423" cy="161.249" r="1" fill="rgb(0,0,0)" />
	<circle cx="248.884" cy="561.971" r="1" fill="rgb(0,0,0)" />
	<circle cx="250.525" cy="199.155" r="1" fill="rgb(0,0,0)" />
	<circle cx="250.525" cy="189.145" r="1" fill="rgb(0,0,0)" />
	<circle cx="251.51" cy="236.733" r="1" fill="rgb(0,0,0)" />
	<circle cx="255.448" cy="480.743" r="1" fill="rgb(0,0,0)" />
	<circle cx="256.597" cy="533.582" r="1" fill="rgb(0,0,0)" />
	<circle cx="258.238" cy="403.782" r="1" fill="rgb(0,0,0)" />
	<circle cx="261.191" cy="543.1" r="1" fill="rgb(0,0,0)" />
	<circle cx="263.325" cy="240.671" r="1" fill="rgb(0,0,0)" />
	<circle cx="264.966" cy="561.15" r="1" fill="rgb(0,0,0)" />
	<circle cx="266.606" cy="529.644" r="1" fill="rgb(0,0,0)" />
	<circle cx="269.068" cy="222.949" r="1" fill="rgb(0,0,0)" />
	<circle cx="270.053" cy="240.343" r="1" fill="rgb(0,0,0)" />
	<circle cx="273.663" cy="521.603" r="1" fill="rgb(0,0,0)" />
	<circle cx="275.468" cy="430.038" r="1" fill="rgb(0,0,0)" />
	<circle cx="279.078" cy="548.843" r="1" fill="rgb(0,0,0)" />
	<circle cx="279.57" cy="237.389" r="1" fill="rgb(0,0,0)" />
	<circle cx="284.001" cy="233.451" r="1" fill="rgb(0,0,0)" />
	<circle cx="296.964" cy="489.44" r="1" fill="rgb(0,0,0)" />
	<circle cx="296.964" cy="226.559" r="1" fill="rgb(0,0,0)" />
	<circle cx="306.81" cy="279.07" r="1" fill="rgb(0,0,0)" />
	<circle cx="307.795" cy="331.908" r="1" fill="rgb(0,0,0)" />
	<circle cx="311.405" cy="491.41" r="1" fill="rgb(0,0,0)" />
	<circle cx="312.553" cy="545.889" r="1" fill="rgb(0,0,0)" />
	<circle cx="313.702" cy="429.381" r="1" fill="rgb(0,0,0)" />
	<circle cx="322.235" cy="484.189" r="1" fill="rgb(0,0,0)" />
	<circle cx="326.994" cy="307.294" r="1" fill="rgb(0,0,0)" />
	<circle cx="328.471" cy="310.412" r="1" fill="rgb(0,0,0)" />
	<circle cx="330.604" cy="312.873" r="1" fill="rgb(0,0,0)" />
	<circle cx="334.05" cy="297.448" r="1" fill="rgb(0,0,0)" />
	<circle cx="335.363" cy="40.9665" r="1" fill="rgb(0,0,0)" />
	<circle cx="336.347" cy="249.861" r="1" fill="rgb(0,0,0)" />
	<circle cx="342.419" cy="300.73" r="1" fill="rgb(0,0,0)" />
	<circle cx="343.896" cy="259.378" r="1" fill="rgb(0,0,0)" />
	<circle cx="344.388" cy="602.174" r="1" fill="rgb(0,0,0)" />
	<circle cx="347.342" cy="293.018" r="1" fill="rgb(0,0,0)" />
	<circle cx="347.834" cy="615.63" r="1" fill="rgb(0,0,0)" />
	<circle cx="348.819" cy="297.941" r="1" fill="rgb(0,0,0)" />
	<circle cx="348.819" cy="285.141" r="1" fill="rgb(0,0,0)" />
	<circle cx="350.952" cy="605.62" r="1" fill="rgb(0,0,0)" />
	<circle cx="351.608" cy="374.245" r="1" fill="rgb(0,0,0)" />
	<circle cx="353.249" cy="300.074" r="1" fill="rgb(0,0,0)" />
	<circle cx="354.89" cy="438.571" r="1" fill="rgb(0,0,0)" />
	<circle cx="355.218" cy="250.353" r="1" fill="rgb(0,0,0)" />
	<circle cx="356.531" cy="247.563" r="1" fill="rgb(0,0,0)" />
	<circle cx="357.351" cy="607.261" r="1" fill="rgb(0,0,0)" />
	<circle cx="358.992" cy="269.06" r="1" fill="rgb(0,0,0)" />
	<circle cx="358.992" cy="254.619" r="1" fill="rgb(0,0,0)" />
	<circle cx="363.423" cy="252.486" r="1" fill="rgb(0,0,0)" />
	<circle cx="371.3" cy="264.137" r="1" fill="rgb(0,0,0)" />
	<circle cx="371.464" cy="251.337" r="1" fill="rgb(0,0,0)" />
	<circle cx="375.238" cy="268.239" r="1" fill="rgb(0,0,0)" />
	<circle cx="375.402" cy="291.377" r="1" fill="rgb(0,0,0)" />
	<circle cx="376.715" cy="266.926" r="1" fill="rgb(0,0,0)" />
	<circle cx="376.879" cy="244.445" r="1" fill="rgb(0,0,0)" />
	<circle cx="378.848" cy="248.384" r="1" fill="rgb(0,0,0)" />
	<circle cx="380.161" cy="228.856" r="1" fill="rgb(0,0,0)" />
	<circle cx="380.653" cy="246.743" r="1" fill="rgb(0,0,0)" />
	<circle cx="383.115" cy="356.031" r="1" fill="rgb(0,0,0)" />
	<circle cx="383.771" cy="291.049" r="1" fill="rgb(0,0,0)" />
	<circle cx="384.099" cy="231.318" r="1" fill="rgb(0,0,0)" />
	<circle cx="384.92" cy="263.809" r="1" fill="rgb(0,0,0)" />
	<circle cx="385.576" cy="328.134" r="1" fill="rgb(0,0,0)" />
	<circle cx="386.068" cy="229.841" r="1" fill="rgb(0,0,0)" />
	<circle cx="388.037" cy="218.518" r="1" fill="rgb(0,0,0)" />
	<circle cx="388.202" cy="377.199" r="1" fill="rgb(0,0,0)" />
	<circle cx="389.35" cy="247.891" r="1" fill="rgb(0,0,0)" />
	<circle cx="390.171" cy="243.625" r="1" fill="rgb(0,0,0)" />
	<circle cx="390.499" cy="242.64" r="1" fill="rgb(0,0,0)" />
	<circle cx="390.991" cy="350.615" r="1" fill="rgb(0,0,0)" />
	<circle cx="394.765" cy="377.691" r="1" fill="rgb(0,0,0)" />
	<circle cx="395.75" cy="247.071" r="1" fill="rgb(0,0,0)" />
	<circle cx="396.899" cy="250.353" r="1" fill="rgb(0,0,0)" />
	<circle cx="399.196" cy="208.672" r="1" fill="rgb(0,0,0)" />
	<circle cx="399.524" cy="381.301" r="1" fill="rgb(0,0,0)" />
	<circle cx="401.165" cy="231.974" r="1" fill="rgb(0,0,0)" />
	<circle cx="401.657" cy="30.1362" r="1" fill="rgb(0,0,0)" />
	<circle cx="402.15" cy="436.602" r="1" fill="rgb(0,0,0)" />
	<circle cx="402.478" cy="303.192" r="1" fill="rgb(0,0,0)" />
	<circle cx="405.76" cy="43.7562" r="1" fill="rgb(0,0,0)" />
	<circle cx="406.58" cy="367.681" r="1" fill="rgb(0,0,0)" />
	<circle cx="408.057" cy="251.994" r="1" fill="rgb(0,0,0)" />
	<circle cx="409.37" cy="612.184" r="1" fill="rgb(0,0,0)" />
	<circle cx="410.19" cy="202.601" r="1" fill="rgb(0,0,0)" />
	<circle cx="412.98" cy="340.606" r="1" fill="rgb(0,0,0)" />
	<circle cx="413.144" cy="239.851" r="1" fill="rgb(0,0,0)" />
	<circle cx="415.606" cy="242.968" r="1" fill="rgb(0,0,0)" />
	<circle cx="415.934" cy="224.426" r="1" fill="rgb(0,0,0)" />
	<circle cx="418.723" cy="228.692" r="1" fill="rgb(0,0,0)" />
	<circle cx="420.2" cy="297.777" r="1" fill="rgb(0,0,0)" />
	<circle cx="420.528" cy="53.6019" r="1" fill="rgb(0,0,0)" />
	<circle cx="421.841" cy="353.405" r="1" fill="rgb(0,0,0)" />
	<circle cx="423.318" cy="324.852" r="1" fill="rgb(0,0,0)" />
	<circle cx="424.467" cy="225.41" r="1" fill="rgb(0,0,0)" />
	<circle cx="424.631" cy="428.561" r="1" fill="rgb(0,0,0)" />
	<circle cx="426.108" cy="375.066" r="1" fill="rgb(0,0,0)" />
	<circle cx="428.897" cy="303.192" r="1" fill="rgb(0,0,0)" />
	<circle cx="435.461" cy="308.771" r="1" fill="rgb(0,0,0)" />
	<circle cx="437.594" cy="384.419" r="1" fill="rgb(0,0,0)" />
	<circle cx="440.22" cy="356.687" r="1" fill="rgb(0,0,0)" />
	<circle cx="441.204" cy="373.589" r="1" fill="rgb(0,0,0)" />
	<circle cx="444.815" cy="243.297" r="1" fill="rgb(0,0,0)" />
	<circle cx="445.635" cy="192.263" r="1" fill="rgb(0,0,0)" />
	<circle cx="446.291" cy="217.37" r="1" fill="rgb(0,0,0)" />
	<circle cx="448.261" cy="325.837" r="1" fill="rgb(0,0,0)" />
	<circle cx="449.573" cy="244.281" r="1" fill="rgb(0,0,0)" />
	<circle cx="449.902" cy="328.955" r="1" fill="rgb(0,0,0)" />
	<circle cx="450.722" cy="431.843" r="1" fill="rgb(0,0,0)" />
	<circle cx="451.707" cy="271.685" r="1" fill="rgb(0,0,0)" />
	<circle cx="452.363" cy="427.74" r="1" fill="rgb(0,0,0)" />
	<circle cx="453.019" cy="282.68" r="1" fill="rgb(0,0,0)" />
	<circle cx="455.317" cy="274.639" r="1" fill="rgb(0,0,0)" />
	<circle cx="458.927" cy="224.754" r="1" fill="rgb(0,0,0)" />
	<circle cx="459.091" cy="310.412" r="1" fill="rgb(0,0,0)" />
	<circle cx="464.342" cy="400.336" r="1" fill="rgb(0,0,0)" />
	<circle cx="467.952" cy="300.566" r="1" fill="rgb(0,0,0)" />
	<circle cx="474.516" cy="401.321" r="1" fill="rgb(0,0,0)" />
	<circle cx="474.516" cy="203.257" r="1" fill="rgb(0,0,0)" />
	<circle cx="474.68" cy="285.469" r="1" fill="rgb(0,0,0)" />
	<circle cx="476.649" cy="403.454" r="1" fill="rgb(0,0,0)" />
	<circle cx="477.141" cy="391.968" r="1" fill="rgb(0,0,0)" />
	<circle cx="478.126" cy="283.664" r="1" fill="rgb(0,0,0)" />
	<circle cx="480.587" cy="336.175" r="1" fill="rgb(0,0,0)" />
	<circle cx="480.587" cy="335.683" r="1" fill="rgb(0,0,0)" />
	<circle cx="481.244" cy="393.28" r="1" fill="rgb(0,0,0)" />
	<circle cx="481.244" cy="345.364" r="1" fill="rgb(0,0,0)" />
	<circle cx="482.064" cy="385.896" r="1" fill="rgb(0,0,0)" />
	<circle cx="482.885" cy="291.377" r="1" fill="rgb(0,0,0)" />
	<circle cx="484.362" cy="70.0115" r="1" fill="rgb(0,0,0)" />
	<circle cx="485.674" cy="314.35" r="1" fill="rgb(0,0,0)" />
	<circle cx="486.987" cy="268.732" r="1" fill="rgb(0,0,0)" />
	<circle cx="487.479" cy="397.383" r="1" fill="rgb(0,0,0)" />
	<circle cx="488.136" cy="269.06" r="1" fill="rgb(0,0,0)" />
	<circle cx="489.12" cy="220.651" r="1" fill="rgb(0,0,0)" />
	<circle cx="490.105" cy="231.154" r="1" fill="rgb(0,0,0)" />
	<circle cx="490.597" cy="381.301" r="1" fill="rgb(0,0,0)" />
	<circle cx="491.09" cy="198.17" r="1" fill="rgb(0,0,0)" />
	<circle cx="491.254" cy="272.998" r="1" fill="rgb(0,0,0)" />
	<circle cx="494.207" cy="292.854" r="1" fill="rgb(0,0,0)" />
	<circle cx="495.684" cy="384.747" r="1" fill="rgb(0,0,0)" />
	<circle cx="496.997" cy="326.493" r="1" fill="rgb(0,0,0)" />
	<circle cx="499.623" cy="218.682" r="1" fill="rgb(0,0,0)" />
	<circle cx="501.428" cy="485.666" r="1" fill="rgb(0,0,0)" />
	<circle cx="502.084" cy="293.51" r="1" fill="rgb(0,0,0)" />
	<circle cx="504.053" cy="202.109" r="1" fill="rgb(0,0,0)" />
	<circle cx="505.858" cy="413.3" r="1" fill="rgb(0,0,0)" />
	<circle cx="507.007" cy="367.681" r="1" fill="rgb(0,0,0)" />
	<circle cx="507.827" cy="54.4224" r="1" fill="rgb(0,0,0)" />
	<circle cx="508.484" cy="376.871" r="1" fill="rgb(0,0,0)" />
	<circle cx="510.125" cy="387.701" r="1" fill="rgb(0,0,0)" />
	<circle cx="511.437" cy="392.624" r="1" fill="rgb(0,0,0)" />
	<circle cx="513.407" cy="49.4995" r="1" fill="rgb(0,0,0)" />
	<circle cx="518.165" cy="389.834" r="1" fill="rgb(0,0,0)" />
	<circle cx="518.822" cy="32.4335" r="1" fill="rgb(0,0,0)" />
	<circle cx="526.042" cy="394.265" r="1" fill="rgb(0,0,0)" />
	<circle cx="528.175" cy="305.653" r="1" fill="rgb(0,0,0)" />
	<circle cx="529.652" cy="383.435" r="1" fill="rgb(0,0,0)" />
	<circle cx="530.965" cy="384.911" r="1" fill="rgb(0,0,0)" />
	<circle cx="537.201" cy="429.217" r="1" fill="rgb(0,0,0)" />
	<circle cx="537.365" cy="604.964" r="1" fill="rgb(0,0,0)" />
	<circle cx="540.811" cy="213.759" r="1" fill="rgb(0,0,0)" />
	<circle cx="541.303" cy="250.189" r="1" fill="rgb(0,0,0)" />
	<circle cx="541.795" cy="428.233" r="1" fill="rgb(0,0,0)" />
	<circle cx="543.764" cy="428.889" r="1" fill="rgb(0,0,0)" />
	<circle cx="543.928" cy="403.782" r="1" fill="rgb(0,0,0)" />
	<circle cx="544.585" cy="315.827" r="1" fill="rgb(0,0,0)" />
	<circle cx="549.344" cy="597.415" r="1" fill="rgb(0,0,0)" />
	<circle cx="549.508" cy="402.306" r="1" fill="rgb(0,0,0)" />
	<circle cx="549.836" cy="404.767" r="1" fill="rgb(0,0,0)" />
	<circle cx="551.477" cy="175.361" r="1" fill="rgb(0,0,0)" />
	<circle cx="553.446" cy="411.495" r="1" fill="rgb(0,0,0)" />
	<circle cx="555.087" cy="379.989" r="1" fill="rgb(0,0,0)" />
	<circle cx="555.743" cy="341.754" r="1" fill="rgb(0,0,0)" />
	<circle cx="559.518" cy="399.68" r="1" fill="rgb(0,0,0)" />
	<circle cx="559.846" cy="358" r="1" fill="rgb(0,0,0)" />
	<circle cx="564.276" cy="400.665" r="1" fill="rgb(0,0,0)" />
	<circle cx="567.066" cy="395.249" r="1" fill="rgb(0,0,0)" />
	<circle cx="571.661" cy="81.0059" r="1" fill="rgb(0,0,0)" />
	<circle cx="573.138" cy="245.43" r="1" fill="rgb(0,0,0)" />
	<circle cx="576.091" cy="125.476" r="1" fill="rgb(0,0,0)" />
	<circle cx="577.404" cy="443.33" r="1" fill="rgb(0,0,0)" />
	<circle cx="578.06" cy="477.133" r="1" fill="rgb(0,0,0)" />
	<circle cx="578.389" cy="408.541" r="1" fill="rgb(0,0,0)" />
	<circle cx="579.045" cy="410.674" r="1" fill="rgb(0,0,0)" />
	<circle cx="580.522" cy="477.133" r="1" fill="rgb(0,0,0)" />
	<circle cx="582.327" cy="131.712" r="1" fill="rgb(0,0,0)" />
	<circle cx="583.147" cy="449.565" r="1" fill="rgb(0,0,0)" />
	<circle cx="583.476" cy="465.318" r="1" fill="rgb(0,0,0)" />
	<circle cx="584.788" cy="572.801" r="1" fill="rgb(0,0,0)" />
	<circle cx="587.086" cy="480.743" r="1" fill="rgb(0,0,0)" />
	<circle cx="587.25" cy="255.768" r="1" fill="rgb(0,0,0)" />
	<circle cx="587.906" cy="368.502" r="1" fill="rgb(0,0,0)" />
	<circle cx="588.234" cy="478.61" r="1" fill="rgb(0,0,0)" />
	<circle cx="590.368" cy="422.161" r="1" fill="rgb(0,0,0)" />
	<circle cx="594.47" cy="579.201" r="1" fill="rgb(0,0,0)" />
	<circle cx="597.752" cy="471.39" r="1" fill="rgb(0,0,0)" />
	<circle cx="597.752" cy="367.189" r="1" fill="rgb(0,0,0)" />
	<circle cx="599.065" cy="477.133" r="1" fill="rgb(0,0,0)" />
	<circle cx="599.393" cy="434.304" r="1" fill="rgb(0,0,0)" />
	<circle cx="601.362" cy="569.683" r="1" fill="rgb(0,0,0)" />
	<circle cx="609.239" cy="386.881" r="1" fill="rgb(0,0,0)" />
	<circle cx="611.864" cy="439.391" r="1" fill="rgb(0,0,0)" />
	<circle cx="614.982" cy="489.44" r="1" fill="rgb(0,0,0)" />
	<circle cx="615.474" cy="326.821" r="1" fill="rgb(0,0,0)" />
	<circle cx="621.053" cy="467.944" r="1" fill="rgb(0,0,0)" />
	<circle cx="621.546" cy="254.947" r="1" fill="rgb(0,0,0)" />
	<circle cx="624.828" cy="84.4519" r="1" fill="rgb(0,0,0)" />
	<circle cx="626.305" cy="491.245" r="1" fill="rgb(0,0,0)" />
	<circle cx="627.453" cy="591.344" r="1" fill="rgb(0,0,0)" />
	<circle cx="633.853" cy="216.057" r="1" fill="rgb(0,0,0)" />
	<circle cx="636.807" cy="259.542" r="1" fill="rgb(0,0,0)" />
	<circle cx="648.786" cy="596.267" r="1" fill="rgb(0,0,0)" />
	<circle cx="649.77" cy="262.332" r="1" fill="rgb(0,0,0)" />
	<circle cx="649.934" cy="44.7407" r="1" fill="rgb(0,0,0)" />
	<circle cx="652.396" cy="504.537" r="1" fill="rgb(0,0,0)" />
	<circle cx="653.544" cy="233.779" r="1" fill="rgb(0,0,0)" />
	<circle cx="661.585" cy="292.69" r="1" fill="rgb(0,0,0)" />
	<circle cx="661.749" cy="242.312" r="1" fill="rgb(0,0,0)" />
	<circle cx="662.406" cy="66.5655" r="1" fill="rgb(0,0,0)" />
	<circle cx="665.852" cy="268.896" r="1" fill="rgb(0,0,0)" />
	<circle cx="665.852" cy="180.284" r="1" fill="rgb(0,0,0)" />
	<circle cx="666.016" cy="220.159" r="1" fill="rgb(0,0,0)" />
	<circle cx="667.657" cy="257.737" r="1" fill="rgb(0,0,0)" />
	<circle cx="667.821" cy="554.751" r="1" fill="rgb(0,0,0)" />
	<circle cx="667.821" cy="426.92" r="1" fill="rgb(0,0,0)" />
	<circle cx="669.462" cy="556.227" r="1" fill="rgb(0,0,0)" />
	<circle cx="674.221" cy="319.929" r="1" fill="rgb(0,0,0)" />
	<circle cx="674.549" cy="384.255" r="1" fill="rgb(0,0,0)" />
	<circle cx="676.518" cy="211.298" r="1" fill="rgb(0,0,0)" />
	<circle cx="677.01" cy="335.354" r="1" fill="rgb(0,0,0)" />
	<circle cx="677.338" cy="376.05" r="1" fill="rgb(0,0,0)" />
	<circle cx="679.964" cy="348.154" r="1" fill="rgb(0,0,0)" />
	<circle cx="680.128" cy="492.066" r="1" fill="rgb(0,0,0)" />
	<circle cx="686.035" cy="214.744" r="1" fill="rgb(0,0,0)" />
	<circle cx="686.856" cy="217.698" r="1" fill="rgb(0,0,0)" />
	<circle cx="687.84" cy="50.4841" r="1" fill="rgb(0,0,0)" />
	<circle cx="689.153" cy="491.574" r="1" fill="rgb(0,0,0)" />
	<circle cx="691.122" cy="302.699" r="1" fill="rgb(0,0,0)" />
	<circle cx="691.779" cy="275.295" r="1" fill="rgb(0,0,0)" />
	<circle cx="695.389" cy="542.607" r="1" fill="rgb(0,0,0)" />
	<circle cx="703.594" cy="256.917" r="1" fill="rgb(0,0,0)" />
	<circle cx="705.727" cy="505.03" r="1" fill="rgb(0,0,0)" />
	<circle cx="709.173" cy="30.3003" r="1" fill="rgb(0,0,0)" />
	<circle cx="710.65" cy="226.559" r="1" fill="rgb(0,0,0)" />
	<circle cx="712.783" cy="307.622" r="1" fill="rgb(0,0,0)" />
	<circle cx="714.26" cy="47.0381" r="1" fill="rgb(0,0,0)" />
	<circle cx="720.167" cy="283.828" r="1" fill="rgb(0,0,0)" />
	<circle cx="721.152" cy="349.467" r="1" fill="rgb(0,0,0)" />
	<circle cx="723.449" cy="521.603" r="1" fill="rgb(0,0,0)" />
	<circle cx="725.418" cy="166.992" r="1" fill="rgb(0,0,0)" />
	<circle cx="727.388" cy="276.936" r="1" fill="rgb(0,0,0)" />
	<circle cx="732.146" cy="243.133" r="1" fill="rgb(0,0,0)" />
	<circle cx="736.249" cy="400.829" r="1" fill="rgb(0,0,0)" />
	<circle cx="736.577" cy="329.775" r="1" fill="rgb(0,0,0)" />
	<circle cx="736.577" cy="183.894" r="1" fill="rgb(0,0,0)" />
	<circle cx="736.741" cy="272.342" r="1" fill="rgb(0,0,0)" />
	<circle cx="737.233" cy="165.515" r="1" fill="rgb(0,0,0)" />
	<circle cx="744.454" cy="337.816" r="1" fill="rgb(0,0,0)" />
	<circle cx="744.618" cy="278.085" r="1" fill="rgb(0,0,0)" />
	<circle cx="748.72" cy="387.045" r="1" fill="rgb(0,0,0)" />
	<circle cx="751.51" cy="365.056" r="1" fill="rgb(0,0,0)" />
	<circle cx="757.745" cy="501.419" r="1" fill="rgb(0,0,0)" />
	<circle cx="757.909" cy="229.677" r="1" fill="rgb(0,0,0)" />
	<circle cx="761.191" cy="479.923" r="1" fill="rgb(0,0,0)" />
	<circle cx="763.817" cy="391.147" r="1" fill="rgb(0,0,0)" />
	<circle cx="766.278" cy="529.152" r="1" fill="rgb(0,0,0)" />
	<circle cx="770.709" cy="272.67" r="1" fill="rgb(0,0,0)" />
	<circle cx="779.406" cy="401.649" r="1" fill="rgb(0,0,0)" />
	<circle cx="782.032" cy="455.801" r="1" fill="rgb(0,0,0)" />
	<circle cx="782.36" cy="460.231" r="1" fill="rgb(0,0,0)" />
	<circle cx="786.134" cy="332.565" r="1" fill="rgb(0,0,0)" />
	<circle cx="787.283" cy="221.144" r="1" fill="rgb(0,0,0)" />
	<circle cx="794.995" cy="220.487" r="1" fill="rgb(0,0,0)" />
	<circle cx="797.621" cy="380.809" r="1" fill="rgb(0,0,0)" />
	<circle cx="800.082" cy="178.971" r="1" fill="rgb(0,0,0)" />
	<circle cx="800.41" cy="402.306" r="1" fill="rgb(0,0,0)" />
	<circle cx="801.723" cy="472.046" r="1" fill="rgb(0,0,0)" />
	<circle cx="801.887" cy="368.174" r="1" fill="rgb(0,0,0)" />
	<circle cx="803.528" cy="249.04" r="1" fill="rgb(0,0,0)" />
	<circle cx="808.123" cy="502.732" r="1" fill="rgb(0,0,0)" />
	<circle cx="811.076" cy="333.221" r="1" fill="rgb(0,0,0)" />
	<circle cx="816.492" cy="343.231" r="1" fill="rgb(0,0,0)" />
	<circle cx="820.102" cy="424.13" r="1" fill="rgb(0,0,0)" />
	<circle cx="820.594" cy="309.263" r="1" fill="rgb(0,0,0)" />
	<circle cx="821.086" cy="298.433" r="1" fill="rgb(0,0,0)" />
	<circle cx="823.712" cy="307.786" r="1" fill="rgb(0,0,0)" />
	<circle cx="825.681" cy="346.841" r="1" fill="rgb(0,0,0)" />
	<circle cx="827.158" cy="513.563" r="1" fill="rgb(0,0,0)" />
	<circle cx="832.737" cy="495.512" r="1" fill="rgb(0,0,0)" />
	<circle cx="833.558" cy="484.353" r="1" fill="rgb(0,0,0)" />
	<circle cx="839.137" cy="535.059" r="1" fill="rgb(0,0,0)" />
	<circle cx="844.88" cy="559.838" r="1" fill="rgb(0,0,0)" />
	<circle cx="846.193" cy="194.888" r="1" fill="rgb(0,0,0)" />
	<circle cx="850.459" cy="129.578" r="1" fill="rgb(0,0,0)" />
	<circle cx="850.624" cy="434.14" r="1" fill="rgb(0,0,0)" />
	<circle cx="851.444" cy="559.673" r="1" fill="rgb(0,0,0)" />
	<circle cx="851.936" cy="398.86" r="1" fill="rgb(0,0,0)" />
	<circle cx="854.562" cy="560.822" r="1" fill="rgb(0,0,0)" />
	<circle cx="856.203" cy="558.689" r="1" fill="rgb(0,0,0)" />
	<circle cx="862.274" cy="362.102" r="1" fill="rgb(0,0,0)" />
	<circle cx="868.018" cy="277.265" r="1" fill="rgb(0,0,0)" />
	<circle cx="868.346" cy="279.07" r="1" fill="rgb(0,0,0)" />
	<circle cx="871.956" cy="563.119" r="1" fill="rgb(0,0,0)" />
	<circle cx="874.91" cy="344.872" r="1" fill="rgb(0,0,0)" />
	<circle cx="877.699" cy="219.339" r="1" fill="rgb(0,0,0)" />
	<circle cx="882.786" cy="469.421" r="1" fill="rgb(0,0,0)" />
	<circle cx="888.037" cy="491.738" r="1" fill="rgb(0,0,0)" />
	<circle cx="891.812" cy="157.967" r="1" fill="rgb(0,0,0)" />
	<circle cx="892.304" cy="96.7591" r="1" fill="rgb(0,0,0)" />
	<circle cx="903.298" cy="380.153" r="1" fill="rgb(0,0,0)" />
	<circle cx="908.713" cy="324.852" r="1" fill="rgb(0,0,0)" />
	<circle cx="912.16" cy="498.466" r="1" fill="rgb(0,0,0)" />
	<circle cx="917.903" cy="405.587" r="1" fill="rgb(0,0,0)" />
	<circle cx="918.887" cy="406.08" r="1" fill="rgb(0,0,0)" />
	<circle cx="929.39" cy="458.755" r="1" fill="rgb(0,0,0)" />
	<circle cx="930.374" cy="34.2386" r="1" fill="rgb(0,0,0)" />
	<circle cx="932.507" cy="323.375" r="1" fill="rgb(0,0,0)" />
	<circle cx="937.266" cy="533.254" r="1" fill="rgb(0,0,0)" />
	<circle cx="944.158" cy="561.479" r="1" fill="rgb(0,0,0)" />
	<circle cx="947.112" cy="453.339" r="1" fill="rgb(0,0,0)" />
	<circle cx="954.332" cy="440.212" r="1" fill="rgb(0,0,0)" />
	<circle cx="954.824" cy="260.034" r="1" fill="rgb(0,0,0)" />
	<circle cx="957.778" cy="182.909" r="1" fill="rgb(0,0,0)" />
	<circle cx="968.773" cy="534.074" r="1" fill="rgb(0,0,0)" />
	<circle cx="978.126" cy="514.219" r="1" fill="rgb(0,0,0)" />
	<circle cx="990.926" cy="517.009" r="1" fill="rgb(0,0,0)" />
	<circle cx="994.7" cy="498.138" r="1" fill="rgb(0,0,0)" />
	<circle cx="1005.2" cy="29.3157" r="1" fill="rgb(0,0,0)" />
	<circle cx="1015.54" cy="35.0591" r="1" fill="rgb(0,0,0)" />
	<circle cx="1020.79" cy="499.45" r="1" fill="rgb(0,0,0)" />
	<circle cx="1023.09" cy="265.45" r="1" fill="rgb(0,0,0)" />
	<circle cx="1027.35" cy="499.614" r="1" fill="rgb(0,0,0)" />
	<circle cx="1029.16" cy="573.293" r="1" fill="rgb(0,0,0)" />
	<circle cx="1031.62" cy="503.06" r="1" fill="rgb(0,0,0)" />
	<circle cx="1033.43" cy="264.301" r="1" fill="rgb(0,0,0)" />
	<circle cx="1034.74" cy="261.511" r="1" fill="rgb(0,0,0)" />
	<circle cx="1034.9" cy="33.4181" r="1" fill="rgb(0,0,0)" />
	<circle cx="1039.33" cy="38.341" r="1" fill="rgb(0,0,0)" />
	<circle cx="1045.41" cy="76.083" r="1" fill="rgb(0,0,0)" />
	<circle cx="1049.67" cy="599.221" r="1" fill="rgb(0,0,0)" />
	<circle cx="1050" cy="559.345" r="1" fill="rgb(0,0,0)" />
</svg>
