<?xml version="1.0" standalone="no" ?>
<!DOCTYPE svg PUBLIC "-//W3C//DTD SVG 1.1//EN" "http://www.w3.org/Graphics/SVG/1.1/DTD/svg11.dtd">
<svg width="1100px" height="715.569px" xmlns="http://www.w3.org/2000/svg" version="1.1" >
	<circle cx="50" cy="624.052" r="1" fill="rgb(0,0,0)" />
	<circle cx="54.257" cy="500.598" r="1" fill="rgb(0,0,0)" />
	<circle cx="66.6227" cy="633.377" r="1" fill="rgb(0,0,0)" />
	<circle cx="72.0961" cy="683.043" r="1" fill="rgb(0,0,0)" />
	<circle cx="133.316" cy="32.5258" r="1" fill="rgb(0,0,0)" />
	<circle cx="170.008" cy="359.305" r="1" fill="rgb(0,0,0)" />
	<circle cx="218.66" cy="587.361" r="1" fill="rgb(0,0,0)" />
	<circle cx="220.687" cy="222.268" r="1" fill="rgb(0,0,0)" />
	<circle cx="237.107" cy="198.551" r="1" fill="rgb(0,0,0)" />
	<circle cx="266.096" cy="445.662" r="1" fill="rgb(0,0,0)" />
	<circle cx="274.204" cy="523.708" r="1" fill="rgb(0,0,0)" />
	<circle cx="282.11" cy="246.392" r="1" fill="rgb(0,0,0)" />
	<circle cx="327.721" cy="508.909" r="1" fill="rgb(0,0,0)" />
	<circle cx="338.871" cy="668.447" r="1" fill="rgb(0,0,0)" />
	<circle cx="354.48" cy="682.029" r="1" fill="rgb(0,0,0)" />
	<circle cx="369.481" cy="263.217" r="1" fill="rgb(0,0,0)" />
	<circle cx="386.712" cy="209.497" r="1" fill="rgb(0,0,0)" />
	<circle cx="411.038" cy="250.041" r="1" fill="rgb(0,0,0)" />
	<circle cx="420.971" cy="285.921" r="1" fill="rgb(0,0,0)" />
	<circle cx="426.242" cy="321.802" r="1" fill="rgb(0,0,0)" />
	<circle cx="471.245" cy="414.038" r="1" fill="rgb(0,0,0)" />
	<circle cx="510.774" cy="311.666" r="1" fill="rgb(0,0,0)" />
	<circle cx="522.937" cy="343.493" r="1" fill="rgb(0,0,0)" />
	<circle cx="555.98" cy="423.768" r="1" fill="rgb(0,0,0)" />
	<circle cx="614.16" cy="83.2049" r="1" fill="rgb(0,0,0)" />
	<circle cx="617.2" cy="523.302" r="1" fill="rgb(0,0,0)" />
	<circle cx="709.842" cy="316.937" r="1" fill="rgb(0,0,0)" />
	<circle cx="720.991" cy="245.581" r="1" fill="rgb(0,0,0)" />
	<circle cx="725.046" cy="138.344" r="1" fill="rgb(0,0,0)" />
	<circle cx="741.06" cy="603.983" r="1" fill="rgb(0,0,0)" />
	<circle cx="747.953" cy="454.379" r="1" fill="rgb(0,0,0)" />
	<circle cx="755.859" cy="375.725" r="1" fill="rgb(0,0,0)" />
	<circle cx="810.795" cy="134.492" r="1" fill="rgb(0,0,0)" />
	<circle cx="837.553" cy="225.106" r="1" fill="rgb(0,0,0)" />
	<circle cx="856.203" cy="250.446" r="1" fill="rgb(0,0,0)" />
	<circle cx="856.811" cy="276.596" r="1" fill="rgb(0,0,0)" />
	<circle cx="881.745" cy="239.297" r="1" fill="rgb(0,0,0)" />
	<circle cx="898.774" cy="222.674" r="1" fill="rgb(0,0,0)" />
	<circle cx="918.032" cy="227.336" r="1" fill="rgb(0,0,0)" />
	<circle cx="955.331" cy="630.134" r="1" fill="rgb(0,0,0)" />
	<circle cx="956.142" cy="627.296" r="1" fill="rgb(0,0,0)" />
	<circle cx="994.456" cy="369.643" r="1" fill="rgb(0,0,0)" />
	<circle cx="1009.46" cy="201.591" r="1" fill="rgb(0,0,0)" />
	<circle cx="1027.5" cy="421.133" r="1" fill="rgb(0,0,0)" />
	<circle cx="1050" cy="366.4" r="1" fill="rgb(0,0,0)" />
</svg>
