<?xml version="1.0" standalone="no" ?>
<!DOCTYPE svg PUBLIC "-//W3C//DTD SVG 1.1//EN" "http://www.w3.org/Graphics/SVG/1.1/DTD/svg11.dtd">
<svg width="1100px" height="701.239px" xmlns="http://www.w3.org/2000/svg" version="1.1" >
	<circle cx="50" cy="179.157" r="1" fill="rgb(0,0,0)" />
	<circle cx="81.7746" cy="669.365" r="1" fill="rgb(0,0,0)" />
	<circle cx="230.256" cy="268.485" r="1" fill="rgb(0,0,0)" />
	<circle cx="357.954" cy="412.77" r="1" fill="rgb(0,0,0)" />
	<circle cx="374.141" cy="287.47" r="1" fill="rgb(0,0,0)" />
	<circle cx="394.524" cy="290.867" r="1" fill="rgb(0,0,0)" />
	<circle cx="419.105" cy="422.762" r="1" fill="rgb(0,0,0)" />
	<circle cx="477.858" cy="474.72" r="1" fill="rgb(0,0,0)" />
	<circle cx="547.802" cy="431.755" r="1" fill="rgb(0,0,0)" />
	<circle cx="581.974" cy="665.368" r="1" fill="rgb(0,0,0)" />
	<circle cx="606.555" cy="31.8745" r="1" fill="rgb(0,0,0)" />
	<circle cx="629.736" cy="612.81" r="1" fill="rgb(0,0,0)" />
	<circle cx="651.719" cy="213.929" r="1" fill="rgb(0,0,0)" />
	<circle cx="678.897" cy="350.819" r="1" fill="rgb(0,0,0)" />
	<circle cx="723.861" cy="523.481" r="1" fill="rgb(0,0,0)" />
	<circle cx="760.831" cy="441.946" r="1" fill="rgb(0,0,0)" />
	<circle cx="818.385" cy="241.107" r="1" fill="rgb(0,0,0)" />
	<circle cx="857.954" cy="290.867" r="1" fill="rgb(0,0,0)" />
	<circle cx="949.88" cy="373.201" r="1" fill="rgb(0,0,0)" />
	<circle cx="1050" cy="655.176" r="1" fill="rgb(0,0,0)" />
</svg>
