<?xml version="1.0" standalone="no" ?>
<!DOCTYPE svg PUBLIC "-//W3C//DTD SVG 1.1//EN" "http://www.w3.org/Graphics/SVG/1.1/DTD/svg11.dtd">
<svg width="1100px" height="614.492px" xmlns="http://www.w3.org/2000/svg" version="1.1" >
	<circle cx="50" cy="533.956" r="1" fill="rgb(0,0,0)" />
	<circle cx="63.9148" cy="539.895" r="1" fill="rgb(0,0,0)" />
	<circle cx="129.416" cy="146.716" r="1" fill="rgb(0,0,0)" />
	<circle cx="155.379" cy="219.006" r="1" fill="rgb(0,0,0)" />
	<circle cx="155.888" cy="221.381" r="1" fill="rgb(0,0,0)" />
	<circle cx="159.452" cy="475.412" r="1" fill="rgb(0,0,0)" />
	<circle cx="167.767" cy="124.317" r="1" fill="rgb(0,0,0)" />
	<circle cx="212.735" cy="173.528" r="1" fill="rgb(0,0,0)" />
	<circle cx="219.184" cy="197.794" r="1" fill="rgb(0,0,0)" />
	<circle cx="246.844" cy="180.825" r="1" fill="rgb(0,0,0)" />
	<circle cx="260.759" cy="396.504" r="1" fill="rgb(0,0,0)" />
	<circle cx="268.904" cy="329.306" r="1" fill="rgb(0,0,0)" />
	<circle cx="285.873" cy="221.042" r="1" fill="rgb(0,0,0)" />
	<circle cx="334.066" cy="280.095" r="1" fill="rgb(0,0,0)" />
	<circle cx="340.514" cy="291.974" r="1" fill="rgb(0,0,0)" />
	<circle cx="348.999" cy="280.434" r="1" fill="rgb(0,0,0)" />
	<circle cx="374.113" cy="247.853" r="1" fill="rgb(0,0,0)" />
	<circle cx="398.889" cy="208.654" r="1" fill="rgb(0,0,0)" />
	<circle cx="402.961" cy="209.503" r="1" fill="rgb(0,0,0)" />
	<circle cx="403.47" cy="207.636" r="1" fill="rgb(0,0,0)" />
	<circle cx="413.821" cy="222.399" r="1" fill="rgb(0,0,0)" />
	<circle cx="414.67" cy="376.141" r="1" fill="rgb(0,0,0)" />
	<circle cx="431.47" cy="335.415" r="1" fill="rgb(0,0,0)" />
	<circle cx="454.039" cy="195.758" r="1" fill="rgb(0,0,0)" />
	<circle cx="456.754" cy="344.748" r="1" fill="rgb(0,0,0)" />
	<circle cx="467.444" cy="320.652" r="1" fill="rgb(0,0,0)" />
	<circle cx="474.741" cy="283.828" r="1" fill="rgb(0,0,0)" />
	<circle cx="490.014" cy="416.698" r="1" fill="rgb(0,0,0)" />
	<circle cx="500.025" cy="211.709" r="1" fill="rgb(0,0,0)" />
	<circle cx="506.983" cy="300.288" r="1" fill="rgb(0,0,0)" />
	<circle cx="509.189" cy="388.698" r="1" fill="rgb(0,0,0)" />
	<circle cx="524.97" cy="149.601" r="1" fill="rgb(0,0,0)" />
	<circle cx="525.988" cy="116.851" r="1" fill="rgb(0,0,0)" />
	<circle cx="533.794" cy="85.7967" r="1" fill="rgb(0,0,0)" />
	<circle cx="540.073" cy="363.414" r="1" fill="rgb(0,0,0)" />
	<circle cx="572.484" cy="398.88" r="1" fill="rgb(0,0,0)" />
	<circle cx="576.387" cy="299.779" r="1" fill="rgb(0,0,0)" />
	<circle cx="599.126" cy="239.878" r="1" fill="rgb(0,0,0)" />
	<circle cx="600.484" cy="367.826" r="1" fill="rgb(0,0,0)" />
	<circle cx="615.926" cy="431.122" r="1" fill="rgb(0,0,0)" />
	<circle cx="640.022" cy="369.523" r="1" fill="rgb(0,0,0)" />
	<circle cx="647.489" cy="493.399" r="1" fill="rgb(0,0,0)" />
	<circle cx="649.864" cy="314.203" r="1" fill="rgb(0,0,0)" />
	<circle cx="654.446" cy="378.517" r="1" fill="rgb(0,0,0)" />
	<circle cx="655.973" cy="586.56" r="1" fill="rgb(0,0,0)" />
	<circle cx="659.028" cy="565.688" r="1" fill="rgb(0,0,0)" />
	<circle cx="688.045" cy="317.767" r="1" fill="rgb(0,0,0)" />
	<circle cx="701.111" cy="369.523" r="1" fill="rgb(0,0,0)" />
	<circle cx="729.281" cy="37.4342" r="1" fill="rgb(0,0,0)" />
	<circle cx="731.317" cy="506.126" r="1" fill="rgb(0,0,0)" />
	<circle cx="733.183" cy="507.144" r="1" fill="rgb(0,0,0)" />
	<circle cx="754.056" cy="27.9314" r="1" fill="rgb(0,0,0)" />
	<circle cx="763.898" cy="326.591" r="1" fill="rgb(0,0,0)" />
	<circle cx="766.443" cy="164.704" r="1" fill="rgb(0,0,0)" />
	<circle cx="780.188" cy="253.284" r="1" fill="rgb(0,0,0)" />
	<circle cx="782.055" cy="275.344" r="1" fill="rgb(0,0,0)" />
	<circle cx="808.527" cy="211.369" r="1" fill="rgb(0,0,0)" />
	<circle cx="810.224" cy="163.007" r="1" fill="rgb(0,0,0)" />
	<circle cx="819.896" cy="230.884" r="1" fill="rgb(0,0,0)" />
	<circle cx="826.005" cy="486.272" r="1" fill="rgb(0,0,0)" />
	<circle cx="826.005" cy="252.944" r="1" fill="rgb(0,0,0)" />
	<circle cx="839.072" cy="373.935" r="1" fill="rgb(0,0,0)" />
	<circle cx="850.102" cy="311.997" r="1" fill="rgb(0,0,0)" />
	<circle cx="881.325" cy="368.166" r="1" fill="rgb(0,0,0)" />
	<circle cx="886.246" cy="212.048" r="1" fill="rgb(0,0,0)" />
	<circle cx="887.604" cy="408.383" r="1" fill="rgb(0,0,0)" />
	<circle cx="893.713" cy="430.952" r="1" fill="rgb(0,0,0)" />
	<circle cx="995.02" cy="525.471" r="1" fill="rgb(0,0,0)" />
	<circle cx="1014.03" cy="489.326" r="1" fill="rgb(0,0,0)" />
	<circle cx="1050" cy="558.731" r="1" fill="rgb(0,0,0)" />
</svg>
