<?xml version="1.0" standalone="no" ?>
<!DOCTYPE svg PUBLIC "-//W3C//DTD SVG 1.1//EN" "http://www.w3.org/Graphics/SVG/1.1/DTD/svg11.dtd">
<svg width="1100px" height="633.167px" xmlns="http://www.w3.org/2000/svg" version="1.1" >
	<circle cx="50" cy="523.558" r="1" fill="rgb(0,0,0)" />
	<circle cx="58.3561" cy="556.821" r="1" fill="rgb(0,0,0)" />
	<circle cx="59.1596" cy="528.539" r="1" fill="rgb(0,0,0)" />
	<circle cx="59.8023" cy="529.825" r="1" fill="rgb(0,0,0)" />
	<circle cx="60.4451" cy="480.652" r="1" fill="rgb(0,0,0)" />
	<circle cx="60.6058" cy="469.725" r="1" fill="rgb(0,0,0)" />
	<circle cx="62.5341" cy="448.353" r="1" fill="rgb(0,0,0)" />
	<circle cx="65.9087" cy="185.296" r="1" fill="rgb(0,0,0)" />
	<circle cx="68.9619" cy="431.641" r="1" fill="rgb(0,0,0)" />
	<circle cx="69.6047" cy="497.043" r="1" fill="rgb(0,0,0)" />
	<circle cx="70.2475" cy="518.898" r="1" fill="rgb(0,0,0)" />
	<circle cx="71.8544" cy="506.846" r="1" fill="rgb(0,0,0)" />
	<circle cx="74.5862" cy="436.783" r="1" fill="rgb(0,0,0)" />
	<circle cx="79.0857" cy="502.025" r="1" fill="rgb(0,0,0)" />
	<circle cx="82.6209" cy="436.622" r="1" fill="rgb(0,0,0)" />
	<circle cx="86.1562" cy="469.565" r="1" fill="rgb(0,0,0)" />
	<circle cx="90.977" cy="149.783" r="1" fill="rgb(0,0,0)" />
	<circle cx="91.1377" cy="152.836" r="1" fill="rgb(0,0,0)" />
	<circle cx="93.8695" cy="157.496" r="1" fill="rgb(0,0,0)" />
	<circle cx="96.1192" cy="496.561" r="1" fill="rgb(0,0,0)" />
	<circle cx="106.886" cy="156.693" r="1" fill="rgb(0,0,0)" />
	<circle cx="115.081" cy="446.425" r="1" fill="rgb(0,0,0)" />
	<circle cx="117.974" cy="536.253" r="1" fill="rgb(0,0,0)" />
	<circle cx="118.295" cy="438.872" r="1" fill="rgb(0,0,0)" />
	<circle cx="119.581" cy="204.74" r="1" fill="rgb(0,0,0)" />
	<circle cx="120.866" cy="155.086" r="1" fill="rgb(0,0,0)" />
	<circle cx="121.991" cy="569.356" r="1" fill="rgb(0,0,0)" />
	<circle cx="128.74" cy="429.23" r="1" fill="rgb(0,0,0)" />
	<circle cx="129.222" cy="578.354" r="1" fill="rgb(0,0,0)" />
	<circle cx="135.971" cy="490.455" r="1" fill="rgb(0,0,0)" />
	<circle cx="142.399" cy="599.245" r="1" fill="rgb(0,0,0)" />
	<circle cx="151.88" cy="530.789" r="1" fill="rgb(0,0,0)" />
	<circle cx="155.576" cy="471.171" r="1" fill="rgb(0,0,0)" />
	<circle cx="156.862" cy="434.855" r="1" fill="rgb(0,0,0)" />
	<circle cx="167.467" cy="568.231" r="1" fill="rgb(0,0,0)" />
	<circle cx="169.074" cy="129.696" r="1" fill="rgb(0,0,0)" />
	<circle cx="170.199" cy="533.199" r="1" fill="rgb(0,0,0)" />
	<circle cx="171.163" cy="507.649" r="1" fill="rgb(0,0,0)" />
	<circle cx="173.252" cy="500.418" r="1" fill="rgb(0,0,0)" />
	<circle cx="173.574" cy="514.398" r="1" fill="rgb(0,0,0)" />
	<circle cx="174.699" cy="127.286" r="1" fill="rgb(0,0,0)" />
	<circle cx="180.644" cy="460.405" r="1" fill="rgb(0,0,0)" />
	<circle cx="180.805" cy="426.338" r="1" fill="rgb(0,0,0)" />
	<circle cx="181.93" cy="129.054" r="1" fill="rgb(0,0,0)" />
	<circle cx="182.573" cy="579.158" r="1" fill="rgb(0,0,0)" />
	<circle cx="182.573" cy="455.745" r="1" fill="rgb(0,0,0)" />
	<circle cx="187.233" cy="124.393" r="1" fill="rgb(0,0,0)" />
	<circle cx="188.036" cy="323.654" r="1" fill="rgb(0,0,0)" />
	<circle cx="189.483" cy="510.702" r="1" fill="rgb(0,0,0)" />
	<circle cx="192.536" cy="148.176" r="1" fill="rgb(0,0,0)" />
	<circle cx="193.982" cy="243.789" r="1" fill="rgb(0,0,0)" />
	<circle cx="198.642" cy="301.8" r="1" fill="rgb(0,0,0)" />
	<circle cx="199.285" cy="445.3" r="1" fill="rgb(0,0,0)" />
	<circle cx="200.892" cy="438.872" r="1" fill="rgb(0,0,0)" />
	<circle cx="202.659" cy="305.496" r="1" fill="rgb(0,0,0)" />
	<circle cx="202.981" cy="89.2013" r="1" fill="rgb(0,0,0)" />
	<circle cx="205.873" cy="515.041" r="1" fill="rgb(0,0,0)" />
	<circle cx="207.802" cy="581.729" r="1" fill="rgb(0,0,0)" />
	<circle cx="208.123" cy="441.443" r="1" fill="rgb(0,0,0)" />
	<circle cx="209.891" cy="241.539" r="1" fill="rgb(0,0,0)" />
	<circle cx="210.694" cy="181.118" r="1" fill="rgb(0,0,0)" />
	<circle cx="217.925" cy="227.72" r="1" fill="rgb(0,0,0)" />
	<circle cx="218.568" cy="195.099" r="1" fill="rgb(0,0,0)" />
	<circle cx="221.943" cy="184.975" r="1" fill="rgb(0,0,0)" />
	<circle cx="222.425" cy="173.887" r="1" fill="rgb(0,0,0)" />
	<circle cx="226.442" cy="321.083" r="1" fill="rgb(0,0,0)" />
	<circle cx="228.531" cy="214.704" r="1" fill="rgb(0,0,0)" />
	<circle cx="228.692" cy="202.169" r="1" fill="rgb(0,0,0)" />
	<circle cx="229.335" cy="151.229" r="1" fill="rgb(0,0,0)" />
	<circle cx="232.709" cy="442.407" r="1" fill="rgb(0,0,0)" />
	<circle cx="233.834" cy="210.686" r="1" fill="rgb(0,0,0)" />
	<circle cx="234.316" cy="234.79" r="1" fill="rgb(0,0,0)" />
	<circle cx="234.638" cy="185.779" r="1" fill="rgb(0,0,0)" />
	<circle cx="235.602" cy="298.907" r="1" fill="rgb(0,0,0)" />
	<circle cx="236.405" cy="349.847" r="1" fill="rgb(0,0,0)" />
	<circle cx="240.101" cy="158.943" r="1" fill="rgb(0,0,0)" />
	<circle cx="240.583" cy="560.035" r="1" fill="rgb(0,0,0)" />
	<circle cx="242.351" cy="347.758" r="1" fill="rgb(0,0,0)" />
	<circle cx="242.833" cy="543.645" r="1" fill="rgb(0,0,0)" />
	<circle cx="243.154" cy="552.001" r="1" fill="rgb(0,0,0)" />
	<circle cx="243.797" cy="467.475" r="1" fill="rgb(0,0,0)" />
	<circle cx="244.279" cy="501.543" r="1" fill="rgb(0,0,0)" />
	<circle cx="244.922" cy="528.539" r="1" fill="rgb(0,0,0)" />
	<circle cx="245.083" cy="558.428" r="1" fill="rgb(0,0,0)" />
	<circle cx="246.69" cy="234.148" r="1" fill="rgb(0,0,0)" />
	<circle cx="248.297" cy="469.725" r="1" fill="rgb(0,0,0)" />
	<circle cx="249.743" cy="229.166" r="1" fill="rgb(0,0,0)" />
	<circle cx="249.904" cy="366.238" r="1" fill="rgb(0,0,0)" />
	<circle cx="251.993" cy="558.589" r="1" fill="rgb(0,0,0)" />
	<circle cx="252.314" cy="221.453" r="1" fill="rgb(0,0,0)" />
	<circle cx="252.796" cy="349.687" r="1" fill="rgb(0,0,0)" />
	<circle cx="255.046" cy="190.278" r="1" fill="rgb(0,0,0)" />
	<circle cx="255.528" cy="309.834" r="1" fill="rgb(0,0,0)" />
	<circle cx="261.956" cy="288.462" r="1" fill="rgb(0,0,0)" />
	<circle cx="263.241" cy="235.272" r="1" fill="rgb(0,0,0)" />
	<circle cx="265.17" cy="171.798" r="1" fill="rgb(0,0,0)" />
	<circle cx="265.812" cy="418.785" r="1" fill="rgb(0,0,0)" />
	<circle cx="266.134" cy="536.413" r="1" fill="rgb(0,0,0)" />
	<circle cx="266.455" cy="229.327" r="1" fill="rgb(0,0,0)" />
	<circle cx="267.098" cy="511.827" r="1" fill="rgb(0,0,0)" />
	<circle cx="267.741" cy="245.075" r="1" fill="rgb(0,0,0)" />
	<circle cx="268.544" cy="229.005" r="1" fill="rgb(0,0,0)" />
	<circle cx="268.865" cy="544.609" r="1" fill="rgb(0,0,0)" />
	<circle cx="269.83" cy="226.274" r="1" fill="rgb(0,0,0)" />
	<circle cx="272.079" cy="226.595" r="1" fill="rgb(0,0,0)" />
	<circle cx="273.847" cy="283.641" r="1" fill="rgb(0,0,0)" />
	<circle cx="274.008" cy="402.234" r="1" fill="rgb(0,0,0)" />
	<circle cx="274.65" cy="233.344" r="1" fill="rgb(0,0,0)" />
	<circle cx="275.293" cy="372.184" r="1" fill="rgb(0,0,0)" />
	<circle cx="278.829" cy="350.49" r="1" fill="rgb(0,0,0)" />
	<circle cx="281.078" cy="603.744" r="1" fill="rgb(0,0,0)" />
	<circle cx="281.078" cy="498.007" r="1" fill="rgb(0,0,0)" />
	<circle cx="282.525" cy="487.884" r="1" fill="rgb(0,0,0)" />
	<circle cx="282.846" cy="471.654" r="1" fill="rgb(0,0,0)" />
	<circle cx="283.167" cy="314.173" r="1" fill="rgb(0,0,0)" />
	<circle cx="284.453" cy="291.033" r="1" fill="rgb(0,0,0)" />
	<circle cx="284.774" cy="235.915" r="1" fill="rgb(0,0,0)" />
	<circle cx="285.256" cy="442.086" r="1" fill="rgb(0,0,0)" />
	<circle cx="286.542" cy="302.603" r="1" fill="rgb(0,0,0)" />
	<circle cx="289.274" cy="278.017" r="1" fill="rgb(0,0,0)" />
	<circle cx="289.916" cy="314.495" r="1" fill="rgb(0,0,0)" />
	<circle cx="294.737" cy="286.373" r="1" fill="rgb(0,0,0)" />
	<circle cx="295.862" cy="272.071" r="1" fill="rgb(0,0,0)" />
	<circle cx="301.647" cy="460.244" r="1" fill="rgb(0,0,0)" />
	<circle cx="304.218" cy="395.967" r="1" fill="rgb(0,0,0)" />
	<circle cx="305.022" cy="306.139" r="1" fill="rgb(0,0,0)" />
	<circle cx="307.753" cy="468.761" r="1" fill="rgb(0,0,0)" />
	<circle cx="307.753" cy="423.606" r="1" fill="rgb(0,0,0)" />
	<circle cx="307.914" cy="471.011" r="1" fill="rgb(0,0,0)" />
	<circle cx="310.003" cy="203.776" r="1" fill="rgb(0,0,0)" />
	<circle cx="313.86" cy="472.457" r="1" fill="rgb(0,0,0)" />
	<circle cx="314.824" cy="267.251" r="1" fill="rgb(0,0,0)" />
	<circle cx="315.788" cy="67.0256" r="1" fill="rgb(0,0,0)" />
	<circle cx="316.27" cy="592.656" r="1" fill="rgb(0,0,0)" />
	<circle cx="318.52" cy="321.083" r="1" fill="rgb(0,0,0)" />
	<circle cx="322.698" cy="291.355" r="1" fill="rgb(0,0,0)" />
	<circle cx="323.341" cy="267.733" r="1" fill="rgb(0,0,0)" />
	<circle cx="323.984" cy="243.307" r="1" fill="rgb(0,0,0)" />
	<circle cx="325.43" cy="592.013" r="1" fill="rgb(0,0,0)" />
	<circle cx="327.68" cy="293.283" r="1" fill="rgb(0,0,0)" />
	<circle cx="330.893" cy="47.5816" r="1" fill="rgb(0,0,0)" />
	<circle cx="331.536" cy="357.561" r="1" fill="rgb(0,0,0)" />
	<circle cx="335.393" cy="316.905" r="1" fill="rgb(0,0,0)" />
	<circle cx="336.357" cy="252.145" r="1" fill="rgb(0,0,0)" />
	<circle cx="339.25" cy="586.871" r="1" fill="rgb(0,0,0)" />
	<circle cx="340.214" cy="458.959" r="1" fill="rgb(0,0,0)" />
	<circle cx="340.696" cy="240.575" r="1" fill="rgb(0,0,0)" />
	<circle cx="346.963" cy="252.788" r="1" fill="rgb(0,0,0)" />
	<circle cx="356.283" cy="239.611" r="1" fill="rgb(0,0,0)" />
	<circle cx="356.765" cy="234.308" r="1" fill="rgb(0,0,0)" />
	<circle cx="357.247" cy="323.172" r="1" fill="rgb(0,0,0)" />
	<circle cx="360.14" cy="309.995" r="1" fill="rgb(0,0,0)" />
	<circle cx="360.943" cy="217.435" r="1" fill="rgb(0,0,0)" />
	<circle cx="361.104" cy="285.409" r="1" fill="rgb(0,0,0)" />
	<circle cx="362.711" cy="604.387" r="1" fill="rgb(0,0,0)" />
	<circle cx="364.961" cy="586.229" r="1" fill="rgb(0,0,0)" />
	<circle cx="365.764" cy="263.715" r="1" fill="rgb(0,0,0)" />
	<circle cx="365.925" cy="502.828" r="1" fill="rgb(0,0,0)" />
	<circle cx="366.728" cy="260.662" r="1" fill="rgb(0,0,0)" />
	<circle cx="366.728" cy="249.574" r="1" fill="rgb(0,0,0)" />
	<circle cx="369.139" cy="246.36" r="1" fill="rgb(0,0,0)" />
	<circle cx="369.46" cy="410.429" r="1" fill="rgb(0,0,0)" />
	<circle cx="370.906" cy="244.432" r="1" fill="rgb(0,0,0)" />
	<circle cx="371.388" cy="226.595" r="1" fill="rgb(0,0,0)" />
	<circle cx="372.031" cy="298.104" r="1" fill="rgb(0,0,0)" />
	<circle cx="373.156" cy="419.107" r="1" fill="rgb(0,0,0)" />
	<circle cx="373.156" cy="260.18" r="1" fill="rgb(0,0,0)" />
	<circle cx="373.638" cy="115.877" r="1" fill="rgb(0,0,0)" />
	<circle cx="376.531" cy="245.557" r="1" fill="rgb(0,0,0)" />
	<circle cx="379.423" cy="379.094" r="1" fill="rgb(0,0,0)" />
	<circle cx="382.798" cy="228.523" r="1" fill="rgb(0,0,0)" />
	<circle cx="383.44" cy="275.285" r="1" fill="rgb(0,0,0)" />
	<circle cx="383.762" cy="420.071" r="1" fill="rgb(0,0,0)" />
	<circle cx="384.887" cy="402.073" r="1" fill="rgb(0,0,0)" />
	<circle cx="385.047" cy="404.162" r="1" fill="rgb(0,0,0)" />
	<circle cx="385.047" cy="368.488" r="1" fill="rgb(0,0,0)" />
	<circle cx="387.94" cy="379.576" r="1" fill="rgb(0,0,0)" />
	<circle cx="388.583" cy="351.454" r="1" fill="rgb(0,0,0)" />
	<circle cx="389.065" cy="337.956" r="1" fill="rgb(0,0,0)" />
	<circle cx="390.672" cy="275.446" r="1" fill="rgb(0,0,0)" />
	<circle cx="391.475" cy="202.651" r="1" fill="rgb(0,0,0)" />
	<circle cx="392.761" cy="313.209" r="1" fill="rgb(0,0,0)" />
	<circle cx="394.528" cy="249.092" r="1" fill="rgb(0,0,0)" />
	<circle cx="397.26" cy="204.58" r="1" fill="rgb(0,0,0)" />
	<circle cx="398.224" cy="372.987" r="1" fill="rgb(0,0,0)" />
	<circle cx="398.867" cy="360.935" r="1" fill="rgb(0,0,0)" />
	<circle cx="402.724" cy="35.5295" r="1" fill="rgb(0,0,0)" />
	<circle cx="406.42" cy="61.5619" r="1" fill="rgb(0,0,0)" />
	<circle cx="407.384" cy="200.08" r="1" fill="rgb(0,0,0)" />
	<circle cx="409.473" cy="202.169" r="1" fill="rgb(0,0,0)" />
	<circle cx="409.955" cy="197.349" r="1" fill="rgb(0,0,0)" />
	<circle cx="410.276" cy="250.217" r="1" fill="rgb(0,0,0)" />
	<circle cx="410.276" cy="191.081" r="1" fill="rgb(0,0,0)" />
	<circle cx="410.437" cy="53.5272" r="1" fill="rgb(0,0,0)" />
	<circle cx="411.401" cy="215.989" r="1" fill="rgb(0,0,0)" />
	<circle cx="412.365" cy="374.273" r="1" fill="rgb(0,0,0)" />
	<circle cx="412.526" cy="274.482" r="1" fill="rgb(0,0,0)" />
	<circle cx="415.258" cy="279.463" r="1" fill="rgb(0,0,0)" />
	<circle cx="415.419" cy="367.684" r="1" fill="rgb(0,0,0)" />
	<circle cx="416.704" cy="233.344" r="1" fill="rgb(0,0,0)" />
	<circle cx="418.472" cy="272.393" r="1" fill="rgb(0,0,0)" />
	<circle cx="418.793" cy="231.255" r="1" fill="rgb(0,0,0)" />
	<circle cx="419.757" cy="434.533" r="1" fill="rgb(0,0,0)" />
	<circle cx="419.757" cy="331.689" r="1" fill="rgb(0,0,0)" />
	<circle cx="420.239" cy="300.354" r="1" fill="rgb(0,0,0)" />
	<circle cx="421.686" cy="374.916" r="1" fill="rgb(0,0,0)" />
	<circle cx="422.328" cy="192.688" r="1" fill="rgb(0,0,0)" />
	<circle cx="423.132" cy="240.415" r="1" fill="rgb(0,0,0)" />
	<circle cx="426.667" cy="190.76" r="1" fill="rgb(0,0,0)" />
	<circle cx="427.149" cy="416.214" r="1" fill="rgb(0,0,0)" />
	<circle cx="427.149" cy="278.017" r="1" fill="rgb(0,0,0)" />
	<circle cx="427.792" cy="188.51" r="1" fill="rgb(0,0,0)" />
	<circle cx="428.113" cy="359.007" r="1" fill="rgb(0,0,0)" />
	<circle cx="428.435" cy="242.986" r="1" fill="rgb(0,0,0)" />
	<circle cx="428.756" cy="285.73" r="1" fill="rgb(0,0,0)" />
	<circle cx="428.917" cy="228.363" r="1" fill="rgb(0,0,0)" />
	<circle cx="431.327" cy="432.283" r="1" fill="rgb(0,0,0)" />
	<circle cx="431.488" cy="246.682" r="1" fill="rgb(0,0,0)" />
	<circle cx="432.131" cy="224.667" r="1" fill="rgb(0,0,0)" />
	<circle cx="435.345" cy="272.875" r="1" fill="rgb(0,0,0)" />
	<circle cx="435.505" cy="367.202" r="1" fill="rgb(0,0,0)" />
	<circle cx="435.827" cy="224.345" r="1" fill="rgb(0,0,0)" />
	<circle cx="437.916" cy="214.221" r="1" fill="rgb(0,0,0)" />
	<circle cx="440.005" cy="293.122" r="1" fill="rgb(0,0,0)" />
	<circle cx="441.612" cy="210.525" r="1" fill="rgb(0,0,0)" />
	<circle cx="445.147" cy="255.198" r="1" fill="rgb(0,0,0)" />
	<circle cx="447.879" cy="310.477" r="1" fill="rgb(0,0,0)" />
	<circle cx="452.378" cy="234.469" r="1" fill="rgb(0,0,0)" />
	<circle cx="452.86" cy="299.711" r="1" fill="rgb(0,0,0)" />
	<circle cx="453.503" cy="328.796" r="1" fill="rgb(0,0,0)" />
	<circle cx="453.503" cy="299.55" r="1" fill="rgb(0,0,0)" />
	<circle cx="453.664" cy="307.424" r="1" fill="rgb(0,0,0)" />
	<circle cx="456.074" cy="394.681" r="1" fill="rgb(0,0,0)" />
	<circle cx="456.878" cy="243.307" r="1" fill="rgb(0,0,0)" />
	<circle cx="458.485" cy="302.443" r="1" fill="rgb(0,0,0)" />
	<circle cx="462.663" cy="225.631" r="1" fill="rgb(0,0,0)" />
	<circle cx="462.984" cy="416.857" r="1" fill="rgb(0,0,0)" />
	<circle cx="465.073" cy="208.115" r="1" fill="rgb(0,0,0)" />
	<circle cx="468.93" cy="268.375" r="1" fill="rgb(0,0,0)" />
	<circle cx="471.019" cy="359.81" r="1" fill="rgb(0,0,0)" />
	<circle cx="473.108" cy="314.013" r="1" fill="rgb(0,0,0)" />
	<circle cx="473.429" cy="312.566" r="1" fill="rgb(0,0,0)" />
	<circle cx="473.751" cy="223.542" r="1" fill="rgb(0,0,0)" />
	<circle cx="479.696" cy="66.2221" r="1" fill="rgb(0,0,0)" />
	<circle cx="480.178" cy="364.471" r="1" fill="rgb(0,0,0)" />
	<circle cx="480.5" cy="65.5793" r="1" fill="rgb(0,0,0)" />
	<circle cx="480.66" cy="511.024" r="1" fill="rgb(0,0,0)" />
	<circle cx="481.143" cy="395.324" r="1" fill="rgb(0,0,0)" />
	<circle cx="482.107" cy="215.507" r="1" fill="rgb(0,0,0)" />
	<circle cx="482.267" cy="393.074" r="1" fill="rgb(0,0,0)" />
	<circle cx="482.428" cy="392.431" r="1" fill="rgb(0,0,0)" />
	<circle cx="482.749" cy="316.262" r="1" fill="rgb(0,0,0)" />
	<circle cx="482.91" cy="525.004" r="1" fill="rgb(0,0,0)" />
	<circle cx="484.999" cy="487.08" r="1" fill="rgb(0,0,0)" />
	<circle cx="485.16" cy="215.186" r="1" fill="rgb(0,0,0)" />
	<circle cx="485.963" cy="213.418" r="1" fill="rgb(0,0,0)" />
	<circle cx="486.445" cy="196.224" r="1" fill="rgb(0,0,0)" />
	<circle cx="489.017" cy="527.414" r="1" fill="rgb(0,0,0)" />
	<circle cx="490.302" cy="387.932" r="1" fill="rgb(0,0,0)" />
	<circle cx="490.623" cy="215.507" r="1" fill="rgb(0,0,0)" />
	<circle cx="490.784" cy="495.918" r="1" fill="rgb(0,0,0)" />
	<circle cx="491.106" cy="370.095" r="1" fill="rgb(0,0,0)" />
	<circle cx="497.533" cy="55.1342" r="1" fill="rgb(0,0,0)" />
	<circle cx="498.498" cy="329.761" r="1" fill="rgb(0,0,0)" />
	<circle cx="498.819" cy="404.483" r="1" fill="rgb(0,0,0)" />
	<circle cx="499.301" cy="448.353" r="1" fill="rgb(0,0,0)" />
	<circle cx="502.193" cy="373.148" r="1" fill="rgb(0,0,0)" />
	<circle cx="502.354" cy="48.2243" r="1" fill="rgb(0,0,0)" />
	<circle cx="502.676" cy="107.199" r="1" fill="rgb(0,0,0)" />
	<circle cx="503.318" cy="384.075" r="1" fill="rgb(0,0,0)" />
	<circle cx="510.55" cy="265.804" r="1" fill="rgb(0,0,0)" />
	<circle cx="511.032" cy="307.906" r="1" fill="rgb(0,0,0)" />
	<circle cx="515.049" cy="275.125" r="1" fill="rgb(0,0,0)" />
	<circle cx="517.459" cy="183.529" r="1" fill="rgb(0,0,0)" />
	<circle cx="518.102" cy="379.094" r="1" fill="rgb(0,0,0)" />
	<circle cx="518.906" cy="383.111" r="1" fill="rgb(0,0,0)" />
	<circle cx="519.709" cy="212.454" r="1" fill="rgb(0,0,0)" />
	<circle cx="519.87" cy="244.271" r="1" fill="rgb(0,0,0)" />
	<circle cx="522.441" cy="92.5759" r="1" fill="rgb(0,0,0)" />
	<circle cx="523.566" cy="586.389" r="1" fill="rgb(0,0,0)" />
	<circle cx="524.691" cy="234.79" r="1" fill="rgb(0,0,0)" />
	<circle cx="525.494" cy="395.163" r="1" fill="rgb(0,0,0)" />
	<circle cx="525.976" cy="368.006" r="1" fill="rgb(0,0,0)" />
	<circle cx="528.226" cy="254.556" r="1" fill="rgb(0,0,0)" />
	<circle cx="528.387" cy="30.3873" r="1" fill="rgb(0,0,0)" />
	<circle cx="529.19" cy="381.022" r="1" fill="rgb(0,0,0)" />
	<circle cx="530.315" cy="377.487" r="1" fill="rgb(0,0,0)" />
	<circle cx="530.958" cy="412.197" r="1" fill="rgb(0,0,0)" />
	<circle cx="531.761" cy="400.466" r="1" fill="rgb(0,0,0)" />
	<circle cx="531.761" cy="335.706" r="1" fill="rgb(0,0,0)" />
	<circle cx="531.922" cy="251.502" r="1" fill="rgb(0,0,0)" />
	<circle cx="532.243" cy="43.4035" r="1" fill="rgb(0,0,0)" />
	<circle cx="532.565" cy="375.558" r="1" fill="rgb(0,0,0)" />
	<circle cx="533.207" cy="375.88" r="1" fill="rgb(0,0,0)" />
	<circle cx="534.011" cy="47.4209" r="1" fill="rgb(0,0,0)" />
	<circle cx="534.814" cy="262.43" r="1" fill="rgb(0,0,0)" />
	<circle cx="537.546" cy="442.407" r="1" fill="rgb(0,0,0)" />
	<circle cx="539.153" cy="39.8682" r="1" fill="rgb(0,0,0)" />
	<circle cx="540.439" cy="363.828" r="1" fill="rgb(0,0,0)" />
	<circle cx="540.921" cy="224.827" r="1" fill="rgb(0,0,0)" />
	<circle cx="544.777" cy="386.486" r="1" fill="rgb(0,0,0)" />
	<circle cx="545.902" cy="438.39" r="1" fill="rgb(0,0,0)" />
	<circle cx="546.063" cy="383.754" r="1" fill="rgb(0,0,0)" />
	<circle cx="546.063" cy="253.109" r="1" fill="rgb(0,0,0)" />
	<circle cx="547.67" cy="394.199" r="1" fill="rgb(0,0,0)" />
	<circle cx="548.152" cy="333.778" r="1" fill="rgb(0,0,0)" />
	<circle cx="548.634" cy="315.619" r="1" fill="rgb(0,0,0)" />
	<circle cx="549.438" cy="333.939" r="1" fill="rgb(0,0,0)" />
	<circle cx="549.92" cy="249.413" r="1" fill="rgb(0,0,0)" />
	<circle cx="553.616" cy="374.273" r="1" fill="rgb(0,0,0)" />
	<circle cx="553.937" cy="353.704" r="1" fill="rgb(0,0,0)" />
	<circle cx="556.83" cy="239.933" r="1" fill="rgb(0,0,0)" />
	<circle cx="557.312" cy="386.325" r="1" fill="rgb(0,0,0)" />
	<circle cx="557.633" cy="169.548" r="1" fill="rgb(0,0,0)" />
	<circle cx="559.722" cy="427.784" r="1" fill="rgb(0,0,0)" />
	<circle cx="561.008" cy="170.191" r="1" fill="rgb(0,0,0)" />
	<circle cx="561.49" cy="408.34" r="1" fill="rgb(0,0,0)" />
	<circle cx="562.454" cy="133.392" r="1" fill="rgb(0,0,0)" />
	<circle cx="563.097" cy="452.049" r="1" fill="rgb(0,0,0)" />
	<circle cx="563.418" cy="276.892" r="1" fill="rgb(0,0,0)" />
	<circle cx="564.382" cy="276.731" r="1" fill="rgb(0,0,0)" />
	<circle cx="564.704" cy="232.058" r="1" fill="rgb(0,0,0)" />
	<circle cx="567.596" cy="377.808" r="1" fill="rgb(0,0,0)" />
	<circle cx="567.596" cy="373.951" r="1" fill="rgb(0,0,0)" />
	<circle cx="567.757" cy="343.259" r="1" fill="rgb(0,0,0)" />
	<circle cx="571.131" cy="391.949" r="1" fill="rgb(0,0,0)" />
	<circle cx="571.292" cy="413.964" r="1" fill="rgb(0,0,0)" />
	<circle cx="571.453" cy="128.571" r="1" fill="rgb(0,0,0)" />
	<circle cx="574.345" cy="362.864" r="1" fill="rgb(0,0,0)" />
	<circle cx="574.988" cy="465.869" r="1" fill="rgb(0,0,0)" />
	<circle cx="576.916" cy="300.996" r="1" fill="rgb(0,0,0)" />
	<circle cx="577.72" cy="468.761" r="1" fill="rgb(0,0,0)" />
	<circle cx="578.041" cy="431.962" r="1" fill="rgb(0,0,0)" />
	<circle cx="578.363" cy="224.184" r="1" fill="rgb(0,0,0)" />
	<circle cx="578.845" cy="108.645" r="1" fill="rgb(0,0,0)" />
	<circle cx="580.291" cy="462.494" r="1" fill="rgb(0,0,0)" />
	<circle cx="581.094" cy="418.946" r="1" fill="rgb(0,0,0)" />
	<circle cx="582.058" cy="297.782" r="1" fill="rgb(0,0,0)" />
	<circle cx="583.505" cy="369.613" r="1" fill="rgb(0,0,0)" />
	<circle cx="583.665" cy="474.225" r="1" fill="rgb(0,0,0)" />
	<circle cx="586.076" cy="237.361" r="1" fill="rgb(0,0,0)" />
	<circle cx="586.237" cy="363.988" r="1" fill="rgb(0,0,0)" />
	<circle cx="587.201" cy="245.557" r="1" fill="rgb(0,0,0)" />
	<circle cx="587.683" cy="475.832" r="1" fill="rgb(0,0,0)" />
	<circle cx="588.004" cy="361.578" r="1" fill="rgb(0,0,0)" />
	<circle cx="591.379" cy="467.154" r="1" fill="rgb(0,0,0)" />
	<circle cx="594.753" cy="442.568" r="1" fill="rgb(0,0,0)" />
	<circle cx="596.36" cy="435.176" r="1" fill="rgb(0,0,0)" />
	<circle cx="598.771" cy="572.248" r="1" fill="rgb(0,0,0)" />
	<circle cx="599.092" cy="93.2187" r="1" fill="rgb(0,0,0)" />
	<circle cx="601.824" cy="430.355" r="1" fill="rgb(0,0,0)" />
	<circle cx="602.949" cy="442.247" r="1" fill="rgb(0,0,0)" />
	<circle cx="605.198" cy="243.95" r="1" fill="rgb(0,0,0)" />
	<circle cx="609.537" cy="453.816" r="1" fill="rgb(0,0,0)" />
	<circle cx="610.019" cy="490.294" r="1" fill="rgb(0,0,0)" />
	<circle cx="610.662" cy="264.679" r="1" fill="rgb(0,0,0)" />
	<circle cx="614.197" cy="173.084" r="1" fill="rgb(0,0,0)" />
	<circle cx="614.84" cy="133.714" r="1" fill="rgb(0,0,0)" />
	<circle cx="615.161" cy="579.801" r="1" fill="rgb(0,0,0)" />
	<circle cx="615.965" cy="226.113" r="1" fill="rgb(0,0,0)" />
	<circle cx="616.126" cy="569.677" r="1" fill="rgb(0,0,0)" />
	<circle cx="619.018" cy="267.893" r="1" fill="rgb(0,0,0)" />
	<circle cx="620.786" cy="252.467" r="1" fill="rgb(0,0,0)" />
	<circle cx="620.946" cy="385.2" r="1" fill="rgb(0,0,0)" />
	<circle cx="620.946" cy="43.5642" r="1" fill="rgb(0,0,0)" />
	<circle cx="622.875" cy="472.618" r="1" fill="rgb(0,0,0)" />
	<circle cx="625.285" cy="283.32" r="1" fill="rgb(0,0,0)" />
	<circle cx="625.767" cy="574.337" r="1" fill="rgb(0,0,0)" />
	<circle cx="626.249" cy="351.294" r="1" fill="rgb(0,0,0)" />
	<circle cx="631.552" cy="569.356" r="1" fill="rgb(0,0,0)" />
	<circle cx="635.73" cy="463.619" r="1" fill="rgb(0,0,0)" />
	<circle cx="636.695" cy="391.789" r="1" fill="rgb(0,0,0)" />
	<circle cx="637.016" cy="565.82" r="1" fill="rgb(0,0,0)" />
	<circle cx="639.105" cy="250.378" r="1" fill="rgb(0,0,0)" />
	<circle cx="645.693" cy="209.401" r="1" fill="rgb(0,0,0)" />
	<circle cx="649.068" cy="31.8335" r="1" fill="rgb(0,0,0)" />
	<circle cx="649.711" cy="479.367" r="1" fill="rgb(0,0,0)" />
	<circle cx="649.871" cy="247.003" r="1" fill="rgb(0,0,0)" />
	<circle cx="656.781" cy="477.76" r="1" fill="rgb(0,0,0)" />
	<circle cx="658.067" cy="548.305" r="1" fill="rgb(0,0,0)" />
	<circle cx="660.477" cy="533.199" r="1" fill="rgb(0,0,0)" />
	<circle cx="662.245" cy="502.346" r="1" fill="rgb(0,0,0)" />
	<circle cx="662.727" cy="317.226" r="1" fill="rgb(0,0,0)" />
	<circle cx="663.691" cy="316.584" r="1" fill="rgb(0,0,0)" />
	<circle cx="664.495" cy="245.717" r="1" fill="rgb(0,0,0)" />
	<circle cx="665.298" cy="542.198" r="1" fill="rgb(0,0,0)" />
	<circle cx="665.298" cy="521.951" r="1" fill="rgb(0,0,0)" />
	<circle cx="676.386" cy="211.49" r="1" fill="rgb(0,0,0)" />
	<circle cx="678.314" cy="243.628" r="1" fill="rgb(0,0,0)" />
	<circle cx="685.063" cy="395.002" r="1" fill="rgb(0,0,0)" />
	<circle cx="685.385" cy="284.927" r="1" fill="rgb(0,0,0)" />
	<circle cx="690.366" cy="178.708" r="1" fill="rgb(0,0,0)" />
	<circle cx="691.491" cy="499.775" r="1" fill="rgb(0,0,0)" />
	<circle cx="695.991" cy="33.1191" r="1" fill="rgb(0,0,0)" />
	<circle cx="697.276" cy="216.471" r="1" fill="rgb(0,0,0)" />
	<circle cx="700.812" cy="299.068" r="1" fill="rgb(0,0,0)" />
	<circle cx="701.294" cy="313.209" r="1" fill="rgb(0,0,0)" />
	<circle cx="705.793" cy="338.759" r="1" fill="rgb(0,0,0)" />
	<circle cx="708.525" cy="48.0636" r="1" fill="rgb(0,0,0)" />
	<circle cx="712.864" cy="327.189" r="1" fill="rgb(0,0,0)" />
	<circle cx="715.435" cy="274.321" r="1" fill="rgb(0,0,0)" />
	<circle cx="717.042" cy="403.037" r="1" fill="rgb(0,0,0)" />
	<circle cx="718.327" cy="258.734" r="1" fill="rgb(0,0,0)" />
	<circle cx="718.97" cy="298.265" r="1" fill="rgb(0,0,0)" />
	<circle cx="719.291" cy="166.656" r="1" fill="rgb(0,0,0)" />
	<circle cx="722.345" cy="299.389" r="1" fill="rgb(0,0,0)" />
	<circle cx="723.148" cy="285.891" r="1" fill="rgb(0,0,0)" />
	<circle cx="725.076" cy="165.852" r="1" fill="rgb(0,0,0)" />
	<circle cx="725.558" cy="331.207" r="1" fill="rgb(0,0,0)" />
	<circle cx="726.683" cy="385.843" r="1" fill="rgb(0,0,0)" />
	<circle cx="729.254" cy="418.303" r="1" fill="rgb(0,0,0)" />
	<circle cx="731.343" cy="270.946" r="1" fill="rgb(0,0,0)" />
	<circle cx="732.468" cy="251.181" r="1" fill="rgb(0,0,0)" />
	<circle cx="735.2" cy="328.636" r="1" fill="rgb(0,0,0)" />
	<circle cx="736.004" cy="238.808" r="1" fill="rgb(0,0,0)" />
	<circle cx="737.61" cy="330.885" r="1" fill="rgb(0,0,0)" />
	<circle cx="738.093" cy="326.707" r="1" fill="rgb(0,0,0)" />
	<circle cx="744.681" cy="291.355" r="1" fill="rgb(0,0,0)" />
	<circle cx="746.449" cy="381.825" r="1" fill="rgb(0,0,0)" />
	<circle cx="748.056" cy="473.26" r="1" fill="rgb(0,0,0)" />
	<circle cx="749.02" cy="183.368" r="1" fill="rgb(0,0,0)" />
	<circle cx="751.43" cy="179.994" r="1" fill="rgb(0,0,0)" />
	<circle cx="753.198" cy="220.167" r="1" fill="rgb(0,0,0)" />
	<circle cx="755.769" cy="392.431" r="1" fill="rgb(0,0,0)" />
	<circle cx="759.143" cy="226.274" r="1" fill="rgb(0,0,0)" />
	<circle cx="763.482" cy="220.81" r="1" fill="rgb(0,0,0)" />
	<circle cx="766.375" cy="526.772" r="1" fill="rgb(0,0,0)" />
	<circle cx="769.107" cy="246.682" r="1" fill="rgb(0,0,0)" />
	<circle cx="770.071" cy="216.31" r="1" fill="rgb(0,0,0)" />
	<circle cx="771.035" cy="456.548" r="1" fill="rgb(0,0,0)" />
	<circle cx="772.16" cy="484.509" r="1" fill="rgb(0,0,0)" />
	<circle cx="774.249" cy="239.45" r="1" fill="rgb(0,0,0)" />
	<circle cx="777.302" cy="254.556" r="1" fill="rgb(0,0,0)" />
	<circle cx="779.552" cy="225.47" r="1" fill="rgb(0,0,0)" />
	<circle cx="780.194" cy="216.953" r="1" fill="rgb(0,0,0)" />
	<circle cx="782.123" cy="452.852" r="1" fill="rgb(0,0,0)" />
	<circle cx="787.908" cy="489.169" r="1" fill="rgb(0,0,0)" />
	<circle cx="790.961" cy="266.768" r="1" fill="rgb(0,0,0)" />
	<circle cx="791.282" cy="555.054" r="1" fill="rgb(0,0,0)" />
	<circle cx="792.086" cy="462.815" r="1" fill="rgb(0,0,0)" />
	<circle cx="799.799" cy="269.661" r="1" fill="rgb(0,0,0)" />
	<circle cx="801.567" cy="162.639" r="1" fill="rgb(0,0,0)" />
	<circle cx="806.227" cy="492.222" r="1" fill="rgb(0,0,0)" />
	<circle cx="811.369" cy="536.413" r="1" fill="rgb(0,0,0)" />
	<circle cx="821.011" cy="367.042" r="1" fill="rgb(0,0,0)" />
	<circle cx="825.028" cy="495.115" r="1" fill="rgb(0,0,0)" />
	<circle cx="829.688" cy="470.368" r="1" fill="rgb(0,0,0)" />
	<circle cx="831.938" cy="544.287" r="1" fill="rgb(0,0,0)" />
	<circle cx="832.581" cy="549.912" r="1" fill="rgb(0,0,0)" />
	<circle cx="834.348" cy="479.367" r="1" fill="rgb(0,0,0)" />
	<circle cx="834.83" cy="480.652" r="1" fill="rgb(0,0,0)" />
	<circle cx="844.151" cy="552.322" r="1" fill="rgb(0,0,0)" />
	<circle cx="849.132" cy="561.16" r="1" fill="rgb(0,0,0)" />
	<circle cx="850.096" cy="101.896" r="1" fill="rgb(0,0,0)" />
	<circle cx="850.418" cy="402.394" r="1" fill="rgb(0,0,0)" />
	<circle cx="852.346" cy="273.036" r="1" fill="rgb(0,0,0)" />
	<circle cx="853.792" cy="548.144" r="1" fill="rgb(0,0,0)" />
	<circle cx="867.773" cy="390.824" r="1" fill="rgb(0,0,0)" />
	<circle cx="870.665" cy="392.431" r="1" fill="rgb(0,0,0)" />
	<circle cx="872.915" cy="155.247" r="1" fill="rgb(0,0,0)" />
	<circle cx="882.717" cy="86.7909" r="1" fill="rgb(0,0,0)" />
	<circle cx="885.449" cy="391.949" r="1" fill="rgb(0,0,0)" />
	<circle cx="902.161" cy="280.267" r="1" fill="rgb(0,0,0)" />
	<circle cx="907.304" cy="507.488" r="1" fill="rgb(0,0,0)" />
	<circle cx="910.678" cy="197.188" r="1" fill="rgb(0,0,0)" />
	<circle cx="922.409" cy="368.488" r="1" fill="rgb(0,0,0)" />
	<circle cx="924.819" cy="526.29" r="1" fill="rgb(0,0,0)" />
	<circle cx="930.765" cy="558.75" r="1" fill="rgb(0,0,0)" />
	<circle cx="932.05" cy="172.12" r="1" fill="rgb(0,0,0)" />
	<circle cx="932.693" cy="72.1678" r="1" fill="rgb(0,0,0)" />
	<circle cx="935.425" cy="193.813" r="1" fill="rgb(0,0,0)" />
	<circle cx="938.318" cy="433.248" r="1" fill="rgb(0,0,0)" />
	<circle cx="940.728" cy="336.349" r="1" fill="rgb(0,0,0)" />
	<circle cx="941.049" cy="403.519" r="1" fill="rgb(0,0,0)" />
	<circle cx="941.049" cy="377.326" r="1" fill="rgb(0,0,0)" />
	<circle cx="945.067" cy="508.131" r="1" fill="rgb(0,0,0)" />
	<circle cx="955.03" cy="414.286" r="1" fill="rgb(0,0,0)" />
	<circle cx="959.851" cy="412.197" r="1" fill="rgb(0,0,0)" />
	<circle cx="960.654" cy="545.251" r="1" fill="rgb(0,0,0)" />
	<circle cx="970.938" cy="568.231" r="1" fill="rgb(0,0,0)" />
	<circle cx="972.867" cy="314.816" r="1" fill="rgb(0,0,0)" />
	<circle cx="973.349" cy="488.366" r="1" fill="rgb(0,0,0)" />
	<circle cx="975.599" cy="567.909" r="1" fill="rgb(0,0,0)" />
	<circle cx="982.83" cy="488.848" r="1" fill="rgb(0,0,0)" />
	<circle cx="988.615" cy="258.734" r="1" fill="rgb(0,0,0)" />
	<circle cx="1000.02" cy="482.259" r="1" fill="rgb(0,0,0)" />
	<circle cx="1000.02" cy="355.15" r="1" fill="rgb(0,0,0)" />
	<circle cx="1000.18" cy="28.7803" r="1" fill="rgb(0,0,0)" />
	<circle cx="1003.88" cy="34.726" r="1" fill="rgb(0,0,0)" />
	<circle cx="1007.42" cy="33.4405" r="1" fill="rgb(0,0,0)" />
	<circle cx="1008.54" cy="513.916" r="1" fill="rgb(0,0,0)" />
	<circle cx="1014.97" cy="38.7434" r="1" fill="rgb(0,0,0)" />
	<circle cx="1018.18" cy="583.979" r="1" fill="rgb(0,0,0)" />
	<circle cx="1026.22" cy="505.56" r="1" fill="rgb(0,0,0)" />
	<circle cx="1029.11" cy="483.224" r="1" fill="rgb(0,0,0)" />
	<circle cx="1031.2" cy="480.331" r="1" fill="rgb(0,0,0)" />
	<circle cx="1034.57" cy="153.8" r="1" fill="rgb(0,0,0)" />
	<circle cx="1036.5" cy="591.049" r="1" fill="rgb(0,0,0)" />
	<circle cx="1038.75" cy="517.773" r="1" fill="rgb(0,0,0)" />
	<circle cx="1050" cy="481.135" r="1" fill="rgb(0,0,0)" />
</svg>
