<?xml version="1.0" standalone="no" ?>
<!DOCTYPE svg PUBLIC "-//W3C//DTD SVG 1.1//EN" "http://www.w3.org/Graphics/SVG/1.1/DTD/svg11.dtd">
<svg width="1100px" height="632.753px" xmlns="http://www.w3.org/2000/svg" version="1.1" >
	<circle cx="50" cy="543.033" r="1" fill="rgb(0,0,0)" />
	<circle cx="54.8379" cy="542.066" r="1" fill="rgb(0,0,0)" />
	<circle cx="61.2885" cy="544.001" r="1" fill="rgb(0,0,0)" />
	<circle cx="68.0616" cy="166.804" r="1" fill="rgb(0,0,0)" />
	<circle cx="70.4806" cy="489.171" r="1" fill="rgb(0,0,0)" />
	<circle cx="70.6418" cy="457.241" r="1" fill="rgb(0,0,0)" />
	<circle cx="72.7383" cy="582.382" r="1" fill="rgb(0,0,0)" />
	<circle cx="74.0284" cy="209.539" r="1" fill="rgb(0,0,0)" />
	<circle cx="78.3825" cy="582.704" r="1" fill="rgb(0,0,0)" />
	<circle cx="81.6078" cy="583.188" r="1" fill="rgb(0,0,0)" />
	<circle cx="84.0268" cy="154.064" r="1" fill="rgb(0,0,0)" />
	<circle cx="89.671" cy="511.103" r="1" fill="rgb(0,0,0)" />
	<circle cx="93.5414" cy="519.65" r="1" fill="rgb(0,0,0)" />
	<circle cx="117.892" cy="175.028" r="1" fill="rgb(0,0,0)" />
	<circle cx="119.344" cy="179.705" r="1" fill="rgb(0,0,0)" />
	<circle cx="125.955" cy="571.9" r="1" fill="rgb(0,0,0)" />
	<circle cx="126.117" cy="147.775" r="1" fill="rgb(0,0,0)" />
	<circle cx="127.407" cy="602.217" r="1" fill="rgb(0,0,0)" />
	<circle cx="131.6" cy="573.512" r="1" fill="rgb(0,0,0)" />
	<circle cx="153.854" cy="596.251" r="1" fill="rgb(0,0,0)" />
	<circle cx="155.306" cy="130.197" r="1" fill="rgb(0,0,0)" />
	<circle cx="164.336" cy="149.871" r="1" fill="rgb(0,0,0)" />
	<circle cx="172.077" cy="510.458" r="1" fill="rgb(0,0,0)" />
	<circle cx="174.819" cy="131.326" r="1" fill="rgb(0,0,0)" />
	<circle cx="175.141" cy="507.555" r="1" fill="rgb(0,0,0)" />
	<circle cx="176.27" cy="230.342" r="1" fill="rgb(0,0,0)" />
	<circle cx="178.044" cy="509.974" r="1" fill="rgb(0,0,0)" />
	<circle cx="179.495" cy="505.943" r="1" fill="rgb(0,0,0)" />
	<circle cx="182.559" cy="428.536" r="1" fill="rgb(0,0,0)" />
	<circle cx="184.494" cy="501.588" r="1" fill="rgb(0,0,0)" />
	<circle cx="187.558" cy="496.267" r="1" fill="rgb(0,0,0)" />
	<circle cx="187.72" cy="430.955" r="1" fill="rgb(0,0,0)" />
	<circle cx="187.881" cy="570.61" r="1" fill="rgb(0,0,0)" />
	<circle cx="189.977" cy="114.554" r="1" fill="rgb(0,0,0)" />
	<circle cx="191.59" cy="444.178" r="1" fill="rgb(0,0,0)" />
	<circle cx="194.009" cy="475.625" r="1" fill="rgb(0,0,0)" />
	<circle cx="194.493" cy="429.665" r="1" fill="rgb(0,0,0)" />
	<circle cx="197.557" cy="188.091" r="1" fill="rgb(0,0,0)" />
	<circle cx="204.975" cy="190.671" r="1" fill="rgb(0,0,0)" />
	<circle cx="206.91" cy="574.157" r="1" fill="rgb(0,0,0)" />
	<circle cx="214.006" cy="195.348" r="1" fill="rgb(0,0,0)" />
	<circle cx="219.65" cy="540.453" r="1" fill="rgb(0,0,0)" />
	<circle cx="221.746" cy="210.345" r="1" fill="rgb(0,0,0)" />
	<circle cx="222.714" cy="434.341" r="1" fill="rgb(0,0,0)" />
	<circle cx="228.358" cy="536.744" r="1" fill="rgb(0,0,0)" />
	<circle cx="229.326" cy="182.769" r="1" fill="rgb(0,0,0)" />
	<circle cx="232.067" cy="176.48" r="1" fill="rgb(0,0,0)" />
	<circle cx="232.229" cy="569.803" r="1" fill="rgb(0,0,0)" />
	<circle cx="234.164" cy="289.526" r="1" fill="rgb(0,0,0)" />
	<circle cx="237.389" cy="204.217" r="1" fill="rgb(0,0,0)" />
	<circle cx="238.357" cy="180.511" r="1" fill="rgb(0,0,0)" />
	<circle cx="241.259" cy="362.901" r="1" fill="rgb(0,0,0)" />
	<circle cx="242.55" cy="556.58" r="1" fill="rgb(0,0,0)" />
	<circle cx="243.356" cy="316.941" r="1" fill="rgb(0,0,0)" />
	<circle cx="246.42" cy="200.347" r="1" fill="rgb(0,0,0)" />
	<circle cx="252.871" cy="216.312" r="1" fill="rgb(0,0,0)" />
	<circle cx="253.032" cy="340.324" r="1" fill="rgb(0,0,0)" />
	<circle cx="257.225" cy="224.536" r="1" fill="rgb(0,0,0)" />
	<circle cx="258.353" cy="212.442" r="1" fill="rgb(0,0,0)" />
	<circle cx="258.999" cy="224.859" r="1" fill="rgb(0,0,0)" />
	<circle cx="260.289" cy="191.316" r="1" fill="rgb(0,0,0)" />
	<circle cx="260.611" cy="242.275" r="1" fill="rgb(0,0,0)" />
	<circle cx="261.74" cy="166.32" r="1" fill="rgb(0,0,0)" />
	<circle cx="261.901" cy="460.466" r="1" fill="rgb(0,0,0)" />
	<circle cx="263.998" cy="396.767" r="1" fill="rgb(0,0,0)" />
	<circle cx="264.804" cy="224.375" r="1" fill="rgb(0,0,0)" />
	<circle cx="267.707" cy="179.705" r="1" fill="rgb(0,0,0)" />
	<circle cx="269.158" cy="513.522" r="1" fill="rgb(0,0,0)" />
	<circle cx="272.706" cy="230.181" r="1" fill="rgb(0,0,0)" />
	<circle cx="275.286" cy="246.952" r="1" fill="rgb(0,0,0)" />
	<circle cx="277.866" cy="506.426" r="1" fill="rgb(0,0,0)" />
	<circle cx="286.252" cy="482.237" r="1" fill="rgb(0,0,0)" />
	<circle cx="287.865" cy="471.593" r="1" fill="rgb(0,0,0)" />
	<circle cx="288.187" cy="226.633" r="1" fill="rgb(0,0,0)" />
	<circle cx="288.994" cy="479.173" r="1" fill="rgb(0,0,0)" />
	<circle cx="291.251" cy="448.532" r="1" fill="rgb(0,0,0)" />
	<circle cx="298.508" cy="288.881" r="1" fill="rgb(0,0,0)" />
	<circle cx="298.831" cy="220.827" r="1" fill="rgb(0,0,0)" />
	<circle cx="299.96" cy="484.333" r="1" fill="rgb(0,0,0)" />
	<circle cx="303.346" cy="300.492" r="1" fill="rgb(0,0,0)" />
	<circle cx="306.733" cy="388.381" r="1" fill="rgb(0,0,0)" />
	<circle cx="306.733" cy="290.977" r="1" fill="rgb(0,0,0)" />
	<circle cx="309.958" cy="252.758" r="1" fill="rgb(0,0,0)" />
	<circle cx="310.603" cy="210.668" r="1" fill="rgb(0,0,0)" />
	<circle cx="326.407" cy="441.276" r="1" fill="rgb(0,0,0)" />
	<circle cx="328.503" cy="295.654" r="1" fill="rgb(0,0,0)" />
	<circle cx="328.665" cy="302.427" r="1" fill="rgb(0,0,0)" />
	<circle cx="330.761" cy="474.335" r="1" fill="rgb(0,0,0)" />
	<circle cx="332.213" cy="313.393" r="1" fill="rgb(0,0,0)" />
	<circle cx="333.18" cy="603.991" r="1" fill="rgb(0,0,0)" />
	<circle cx="333.986" cy="596.412" r="1" fill="rgb(0,0,0)" />
	<circle cx="338.986" cy="342.904" r="1" fill="rgb(0,0,0)" />
	<circle cx="341.405" cy="520.456" r="1" fill="rgb(0,0,0)" />
	<circle cx="343.179" cy="520.779" r="1" fill="rgb(0,0,0)" />
	<circle cx="344.146" cy="460.627" r="1" fill="rgb(0,0,0)" />
	<circle cx="347.049" cy="460.305" r="1" fill="rgb(0,0,0)" />
	<circle cx="347.694" cy="241.308" r="1" fill="rgb(0,0,0)" />
	<circle cx="349.629" cy="366.126" r="1" fill="rgb(0,0,0)" />
	<circle cx="353.822" cy="248.887" r="1" fill="rgb(0,0,0)" />
	<circle cx="355.273" cy="266.949" r="1" fill="rgb(0,0,0)" />
	<circle cx="362.692" cy="242.114" r="1" fill="rgb(0,0,0)" />
	<circle cx="366.562" cy="290.171" r="1" fill="rgb(0,0,0)" />
	<circle cx="369.303" cy="287.752" r="1" fill="rgb(0,0,0)" />
	<circle cx="370.593" cy="366.126" r="1" fill="rgb(0,0,0)" />
	<circle cx="371.884" cy="411.28" r="1" fill="rgb(0,0,0)" />
	<circle cx="372.529" cy="596.089" r="1" fill="rgb(0,0,0)" />
	<circle cx="373.496" cy="511.587" r="1" fill="rgb(0,0,0)" />
	<circle cx="374.948" cy="248.242" r="1" fill="rgb(0,0,0)" />
	<circle cx="375.754" cy="416.925" r="1" fill="rgb(0,0,0)" />
	<circle cx="377.528" cy="243.243" r="1" fill="rgb(0,0,0)" />
	<circle cx="386.075" cy="409.023" r="1" fill="rgb(0,0,0)" />
	<circle cx="386.559" cy="370.964" r="1" fill="rgb(0,0,0)" />
	<circle cx="386.559" cy="234.857" r="1" fill="rgb(0,0,0)" />
	<circle cx="387.204" cy="376.286" r="1" fill="rgb(0,0,0)" />
	<circle cx="389.3" cy="252.435" r="1" fill="rgb(0,0,0)" />
	<circle cx="390.268" cy="428.536" r="1" fill="rgb(0,0,0)" />
	<circle cx="391.074" cy="238.566" r="1" fill="rgb(0,0,0)" />
	<circle cx="391.397" cy="259.047" r="1" fill="rgb(0,0,0)" />
	<circle cx="391.719" cy="373.867" r="1" fill="rgb(0,0,0)" />
	<circle cx="392.848" cy="267.271" r="1" fill="rgb(0,0,0)" />
	<circle cx="393.977" cy="225.504" r="1" fill="rgb(0,0,0)" />
	<circle cx="398.008" cy="429.342" r="1" fill="rgb(0,0,0)" />
	<circle cx="408.007" cy="254.048" r="1" fill="rgb(0,0,0)" />
	<circle cx="408.491" cy="434.664" r="1" fill="rgb(0,0,0)" />
	<circle cx="410.91" cy="224.536" r="1" fill="rgb(0,0,0)" />
	<circle cx="415.909" cy="290.332" r="1" fill="rgb(0,0,0)" />
	<circle cx="416.554" cy="287.752" r="1" fill="rgb(0,0,0)" />
	<circle cx="416.554" cy="197.766" r="1" fill="rgb(0,0,0)" />
	<circle cx="418.973" cy="290.493" r="1" fill="rgb(0,0,0)" />
	<circle cx="420.263" cy="274.367" r="1" fill="rgb(0,0,0)" />
	<circle cx="421.714" cy="437.567" r="1" fill="rgb(0,0,0)" />
	<circle cx="429.294" cy="380.801" r="1" fill="rgb(0,0,0)" />
	<circle cx="431.551" cy="356.934" r="1" fill="rgb(0,0,0)" />
	<circle cx="431.713" cy="244.533" r="1" fill="rgb(0,0,0)" />
	<circle cx="432.358" cy="220.989" r="1" fill="rgb(0,0,0)" />
	<circle cx="433.003" cy="348.387" r="1" fill="rgb(0,0,0)" />
	<circle cx="433.325" cy="399.186" r="1" fill="rgb(0,0,0)" />
	<circle cx="433.648" cy="288.397" r="1" fill="rgb(0,0,0)" />
	<circle cx="435.099" cy="427.891" r="1" fill="rgb(0,0,0)" />
	<circle cx="435.583" cy="241.308" r="1" fill="rgb(0,0,0)" />
	<circle cx="435.744" cy="247.92" r="1" fill="rgb(0,0,0)" />
	<circle cx="444.775" cy="327.1" r="1" fill="rgb(0,0,0)" />
	<circle cx="444.936" cy="290.816" r="1" fill="rgb(0,0,0)" />
	<circle cx="445.42" cy="344.678" r="1" fill="rgb(0,0,0)" />
	<circle cx="447.194" cy="183.575" r="1" fill="rgb(0,0,0)" />
	<circle cx="447.678" cy="280.334" r="1" fill="rgb(0,0,0)" />
	<circle cx="448.484" cy="189.381" r="1" fill="rgb(0,0,0)" />
	<circle cx="450.742" cy="312.587" r="1" fill="rgb(0,0,0)" />
	<circle cx="451.387" cy="311.619" r="1" fill="rgb(0,0,0)" />
	<circle cx="454.29" cy="344.356" r="1" fill="rgb(0,0,0)" />
	<circle cx="455.902" cy="398.057" r="1" fill="rgb(0,0,0)" />
	<circle cx="463.32" cy="418.86" r="1" fill="rgb(0,0,0)" />
	<circle cx="465.417" cy="215.989" r="1" fill="rgb(0,0,0)" />
	<circle cx="466.707" cy="385.801" r="1" fill="rgb(0,0,0)" />
	<circle cx="468.965" cy="409.507" r="1" fill="rgb(0,0,0)" />
	<circle cx="473.319" cy="270.658" r="1" fill="rgb(0,0,0)" />
	<circle cx="473.48" cy="297.428" r="1" fill="rgb(0,0,0)" />
	<circle cx="474.77" cy="394.348" r="1" fill="rgb(0,0,0)" />
	<circle cx="478.157" cy="407.733" r="1" fill="rgb(0,0,0)" />
	<circle cx="479.769" cy="372.093" r="1" fill="rgb(0,0,0)" />
	<circle cx="481.382" cy="288.881" r="1" fill="rgb(0,0,0)" />
	<circle cx="482.188" cy="340.324" r="1" fill="rgb(0,0,0)" />
	<circle cx="487.349" cy="393.703" r="1" fill="rgb(0,0,0)" />
	<circle cx="490.413" cy="111.651" r="1" fill="rgb(0,0,0)" />
	<circle cx="493.316" cy="326.133" r="1" fill="rgb(0,0,0)" />
	<circle cx="498.96" cy="378.866" r="1" fill="rgb(0,0,0)" />
	<circle cx="499.121" cy="288.397" r="1" fill="rgb(0,0,0)" />
	<circle cx="499.605" cy="359.998" r="1" fill="rgb(0,0,0)" />
	<circle cx="500.734" cy="384.027" r="1" fill="rgb(0,0,0)" />
	<circle cx="503.798" cy="120.843" r="1" fill="rgb(0,0,0)" />
	<circle cx="504.282" cy="372.738" r="1" fill="rgb(0,0,0)" />
	<circle cx="515.731" cy="52.1448" r="1" fill="rgb(0,0,0)" />
	<circle cx="516.699" cy="391.445" r="1" fill="rgb(0,0,0)" />
	<circle cx="517.183" cy="371.448" r="1" fill="rgb(0,0,0)" />
	<circle cx="518.795" cy="38.2761" r="1" fill="rgb(0,0,0)" />
	<circle cx="522.343" cy="601.734" r="1" fill="rgb(0,0,0)" />
	<circle cx="522.988" cy="307.426" r="1" fill="rgb(0,0,0)" />
	<circle cx="524.762" cy="398.218" r="1" fill="rgb(0,0,0)" />
	<circle cx="529.278" cy="423.375" r="1" fill="rgb(0,0,0)" />
	<circle cx="540.082" cy="361.611" r="1" fill="rgb(0,0,0)" />
	<circle cx="540.405" cy="410.152" r="1" fill="rgb(0,0,0)" />
	<circle cx="540.405" cy="395.638" r="1" fill="rgb(0,0,0)" />
	<circle cx="540.727" cy="377.899" r="1" fill="rgb(0,0,0)" />
	<circle cx="541.05" cy="365.643" r="1" fill="rgb(0,0,0)" />
	<circle cx="543.308" cy="52.6286" r="1" fill="rgb(0,0,0)" />
	<circle cx="546.855" cy="401.443" r="1" fill="rgb(0,0,0)" />
	<circle cx="554.435" cy="373.545" r="1" fill="rgb(0,0,0)" />
	<circle cx="555.241" cy="385.639" r="1" fill="rgb(0,0,0)" />
	<circle cx="555.564" cy="132.454" r="1" fill="rgb(0,0,0)" />
	<circle cx="557.499" cy="40.8563" r="1" fill="rgb(0,0,0)" />
	<circle cx="560.24" cy="426.762" r="1" fill="rgb(0,0,0)" />
	<circle cx="562.498" cy="227.6" r="1" fill="rgb(0,0,0)" />
	<circle cx="564.433" cy="216.151" r="1" fill="rgb(0,0,0)" />
	<circle cx="566.691" cy="233.083" r="1" fill="rgb(0,0,0)" />
	<circle cx="566.852" cy="363.546" r="1" fill="rgb(0,0,0)" />
	<circle cx="568.787" cy="235.18" r="1" fill="rgb(0,0,0)" />
	<circle cx="569.916" cy="242.437" r="1" fill="rgb(0,0,0)" />
	<circle cx="571.206" cy="206.636" r="1" fill="rgb(0,0,0)" />
	<circle cx="573.786" cy="377.737" r="1" fill="rgb(0,0,0)" />
	<circle cx="575.238" cy="367.094" r="1" fill="rgb(0,0,0)" />
	<circle cx="579.592" cy="558.515" r="1" fill="rgb(0,0,0)" />
	<circle cx="580.237" cy="240.179" r="1" fill="rgb(0,0,0)" />
	<circle cx="582.495" cy="365.804" r="1" fill="rgb(0,0,0)" />
	<circle cx="583.624" cy="417.731" r="1" fill="rgb(0,0,0)" />
	<circle cx="587.333" cy="46.0168" r="1" fill="rgb(0,0,0)" />
	<circle cx="587.655" cy="419.827" r="1" fill="rgb(0,0,0)" />
	<circle cx="590.235" cy="427.246" r="1" fill="rgb(0,0,0)" />
	<circle cx="593.783" cy="215.183" r="1" fill="rgb(0,0,0)" />
	<circle cx="595.88" cy="198.25" r="1" fill="rgb(0,0,0)" />
	<circle cx="598.782" cy="43.9203" r="1" fill="rgb(0,0,0)" />
	<circle cx="602.653" cy="576.899" r="1" fill="rgb(0,0,0)" />
	<circle cx="606.201" cy="434.18" r="1" fill="rgb(0,0,0)" />
	<circle cx="614.264" cy="59.8855" r="1" fill="rgb(0,0,0)" />
	<circle cx="618.134" cy="229.052" r="1" fill="rgb(0,0,0)" />
	<circle cx="619.424" cy="367.094" r="1" fill="rgb(0,0,0)" />
	<circle cx="619.424" cy="233.245" r="1" fill="rgb(0,0,0)" />
	<circle cx="621.682" cy="243.727" r="1" fill="rgb(0,0,0)" />
	<circle cx="625.391" cy="352.096" r="1" fill="rgb(0,0,0)" />
	<circle cx="625.391" cy="271.142" r="1" fill="rgb(0,0,0)" />
	<circle cx="633.454" cy="277.431" r="1" fill="rgb(0,0,0)" />
	<circle cx="634.744" cy="486.107" r="1" fill="rgb(0,0,0)" />
	<circle cx="635.228" cy="254.048" r="1" fill="rgb(0,0,0)" />
	<circle cx="637.325" cy="567.546" r="1" fill="rgb(0,0,0)" />
	<circle cx="637.97" cy="568.997" r="1" fill="rgb(0,0,0)" />
	<circle cx="640.066" cy="582.382" r="1" fill="rgb(0,0,0)" />
	<circle cx="642.324" cy="171.642" r="1" fill="rgb(0,0,0)" />
	<circle cx="642.485" cy="341.453" r="1" fill="rgb(0,0,0)" />
	<circle cx="643.453" cy="251.79" r="1" fill="rgb(0,0,0)" />
	<circle cx="644.904" cy="472.077" r="1" fill="rgb(0,0,0)" />
	<circle cx="646.194" cy="290.01" r="1" fill="rgb(0,0,0)" />
	<circle cx="648.936" cy="506.104" r="1" fill="rgb(0,0,0)" />
	<circle cx="649.581" cy="503.685" r="1" fill="rgb(0,0,0)" />
	<circle cx="654.741" cy="264.691" r="1" fill="rgb(0,0,0)" />
	<circle cx="658.612" cy="336.131" r="1" fill="rgb(0,0,0)" />
	<circle cx="664.095" cy="418.699" r="1" fill="rgb(0,0,0)" />
	<circle cx="667.965" cy="537.55" r="1" fill="rgb(0,0,0)" />
	<circle cx="674.577" cy="268.723" r="1" fill="rgb(0,0,0)" />
	<circle cx="677.157" cy="430.955" r="1" fill="rgb(0,0,0)" />
	<circle cx="677.318" cy="484.656" r="1" fill="rgb(0,0,0)" />
	<circle cx="677.963" cy="310.006" r="1" fill="rgb(0,0,0)" />
	<circle cx="679.415" cy="386.607" r="1" fill="rgb(0,0,0)" />
	<circle cx="683.124" cy="488.849" r="1" fill="rgb(0,0,0)" />
	<circle cx="684.575" cy="314.522" r="1" fill="rgb(0,0,0)" />
	<circle cx="695.057" cy="240.502" r="1" fill="rgb(0,0,0)" />
	<circle cx="695.864" cy="281.624" r="1" fill="rgb(0,0,0)" />
	<circle cx="703.604" cy="431.922" r="1" fill="rgb(0,0,0)" />
	<circle cx="705.056" cy="496.589" r="1" fill="rgb(0,0,0)" />
	<circle cx="705.056" cy="42.6302" r="1" fill="rgb(0,0,0)" />
	<circle cx="709.571" cy="195.186" r="1" fill="rgb(0,0,0)" />
	<circle cx="711.829" cy="500.46" r="1" fill="rgb(0,0,0)" />
	<circle cx="713.441" cy="267.594" r="1" fill="rgb(0,0,0)" />
	<circle cx="714.248" cy="364.514" r="1" fill="rgb(0,0,0)" />
	<circle cx="714.248" cy="322.263" r="1" fill="rgb(0,0,0)" />
	<circle cx="714.731" cy="330.81" r="1" fill="rgb(0,0,0)" />
	<circle cx="715.377" cy="293.557" r="1" fill="rgb(0,0,0)" />
	<circle cx="715.377" cy="33.1156" r="1" fill="rgb(0,0,0)" />
	<circle cx="717.312" cy="280.979" r="1" fill="rgb(0,0,0)" />
	<circle cx="724.246" cy="452.725" r="1" fill="rgb(0,0,0)" />
	<circle cx="724.73" cy="205.023" r="1" fill="rgb(0,0,0)" />
	<circle cx="726.826" cy="454.661" r="1" fill="rgb(0,0,0)" />
	<circle cx="733.116" cy="327.423" r="1" fill="rgb(0,0,0)" />
	<circle cx="737.147" cy="179.705" r="1" fill="rgb(0,0,0)" />
	<circle cx="737.631" cy="297.105" r="1" fill="rgb(0,0,0)" />
	<circle cx="738.76" cy="261.627" r="1" fill="rgb(0,0,0)" />
	<circle cx="746.501" cy="477.399" r="1" fill="rgb(0,0,0)" />
	<circle cx="746.662" cy="466.594" r="1" fill="rgb(0,0,0)" />
	<circle cx="746.984" cy="171.642" r="1" fill="rgb(0,0,0)" />
	<circle cx="747.629" cy="401.605" r="1" fill="rgb(0,0,0)" />
	<circle cx="757.95" cy="381.93" r="1" fill="rgb(0,0,0)" />
	<circle cx="773.432" cy="434.18" r="1" fill="rgb(0,0,0)" />
	<circle cx="786.01" cy="302.911" r="1" fill="rgb(0,0,0)" />
	<circle cx="789.397" cy="362.417" r="1" fill="rgb(0,0,0)" />
	<circle cx="789.719" cy="499.815" r="1" fill="rgb(0,0,0)" />
	<circle cx="796.17" cy="231.471" r="1" fill="rgb(0,0,0)" />
	<circle cx="805.523" cy="449.5" r="1" fill="rgb(0,0,0)" />
	<circle cx="816.489" cy="539.163" r="1" fill="rgb(0,0,0)" />
	<circle cx="825.359" cy="548.355" r="1" fill="rgb(0,0,0)" />
	<circle cx="843.743" cy="544.646" r="1" fill="rgb(0,0,0)" />
	<circle cx="848.581" cy="560.772" r="1" fill="rgb(0,0,0)" />
	<circle cx="848.581" cy="180.189" r="1" fill="rgb(0,0,0)" />
	<circle cx="853.741" cy="192.767" r="1" fill="rgb(0,0,0)" />
	<circle cx="879.544" cy="583.672" r="1" fill="rgb(0,0,0)" />
	<circle cx="896.476" cy="358.224" r="1" fill="rgb(0,0,0)" />
	<circle cx="932.277" cy="561.74" r="1" fill="rgb(0,0,0)" />
	<circle cx="932.438" cy="567.062" r="1" fill="rgb(0,0,0)" />
	<circle cx="938.244" cy="444.501" r="1" fill="rgb(0,0,0)" />
	<circle cx="967.433" cy="200.508" r="1" fill="rgb(0,0,0)" />
	<circle cx="968.562" cy="589.8" r="1" fill="rgb(0,0,0)" />
	<circle cx="976.786" cy="561.256" r="1" fill="rgb(0,0,0)" />
	<circle cx="986.946" cy="324.359" r="1" fill="rgb(0,0,0)" />
	<circle cx="993.88" cy="28.7615" r="1" fill="rgb(0,0,0)" />
	<circle cx="1001.62" cy="42.3077" r="1" fill="rgb(0,0,0)" />
	<circle cx="1009.2" cy="261.143" r="1" fill="rgb(0,0,0)" />
	<circle cx="1009.85" cy="568.836" r="1" fill="rgb(0,0,0)" />
	<circle cx="1010.65" cy="33.4382" r="1" fill="rgb(0,0,0)" />
	<circle cx="1013.39" cy="556.58" r="1" fill="rgb(0,0,0)" />
	<circle cx="1013.55" cy="494.977" r="1" fill="rgb(0,0,0)" />
	<circle cx="1013.55" cy="257.918" r="1" fill="rgb(0,0,0)" />
	<circle cx="1046.29" cy="342.421" r="1" fill="rgb(0,0,0)" />
	<circle cx="1050" cy="597.218" r="1" fill="rgb(0,0,0)" />
</svg>
