<?xml version="1.0" standalone="no" ?>
<!DOCTYPE svg PUBLIC "-//W3C//DTD SVG 1.1//EN" "http://www.w3.org/Graphics/SVG/1.1/DTD/svg11.dtd">
<svg width="1100px" height="657.899px" xmlns="http://www.w3.org/2000/svg" version="1.1" >
	<circle cx="50" cy="552.438" r="1" fill="rgb(0,0,0)" />
	<circle cx="54.6909" cy="456.107" r="1" fill="rgb(0,0,0)" />
	<circle cx="59.7169" cy="209.499" r="1" fill="rgb(0,0,0)" />
	<circle cx="61.0571" cy="513.235" r="1" fill="rgb(0,0,0)" />
	<circle cx="63.4026" cy="504.356" r="1" fill="rgb(0,0,0)" />
	<circle cx="67.926" cy="455.939" r="1" fill="rgb(0,0,0)" />
	<circle cx="68.7636" cy="495.142" r="1" fill="rgb(0,0,0)" />
	<circle cx="76.8052" cy="544.731" r="1" fill="rgb(0,0,0)" />
	<circle cx="110.479" cy="196.767" r="1" fill="rgb(0,0,0)" />
	<circle cx="117.18" cy="161.92" r="1" fill="rgb(0,0,0)" />
	<circle cx="123.714" cy="472.022" r="1" fill="rgb(0,0,0)" />
	<circle cx="180.508" cy="601.525" r="1" fill="rgb(0,0,0)" />
	<circle cx="195.418" cy="254.565" r="1" fill="rgb(0,0,0)" />
	<circle cx="195.586" cy="198.777" r="1" fill="rgb(0,0,0)" />
	<circle cx="211.836" cy="346.205" r="1" fill="rgb(0,0,0)" />
	<circle cx="224.234" cy="153.208" r="1" fill="rgb(0,0,0)" />
	<circle cx="225.239" cy="197.939" r="1" fill="rgb(0,0,0)" />
	<circle cx="249.196" cy="560.982" r="1" fill="rgb(0,0,0)" />
	<circle cx="250.871" cy="224.912" r="1" fill="rgb(0,0,0)" />
	<circle cx="274.493" cy="320.07" r="1" fill="rgb(0,0,0)" />
	<circle cx="282.032" cy="240.995" r="1" fill="rgb(0,0,0)" />
	<circle cx="317.717" cy="627.66" r="1" fill="rgb(0,0,0)" />
	<circle cx="327.266" cy="497.655" r="1" fill="rgb(0,0,0)" />
	<circle cx="337.485" cy="309.013" r="1" fill="rgb(0,0,0)" />
	<circle cx="342.679" cy="461.468" r="1" fill="rgb(0,0,0)" />
	<circle cx="387.242" cy="311.694" r="1" fill="rgb(0,0,0)" />
	<circle cx="389.588" cy="223.907" r="1" fill="rgb(0,0,0)" />
	<circle cx="392.436" cy="361.283" r="1" fill="rgb(0,0,0)" />
	<circle cx="393.274" cy="276.009" r="1" fill="rgb(0,0,0)" />
	<circle cx="394.279" cy="424.946" r="1" fill="rgb(0,0,0)" />
	<circle cx="397.629" cy="627.995" r="1" fill="rgb(0,0,0)" />
	<circle cx="418.068" cy="264.115" r="1" fill="rgb(0,0,0)" />
	<circle cx="421.419" cy="296.113" r="1" fill="rgb(0,0,0)" />
	<circle cx="434.151" cy="431.647" r="1" fill="rgb(0,0,0)" />
	<circle cx="440.853" cy="243.676" r="1" fill="rgb(0,0,0)" />
	<circle cx="456.098" cy="259.926" r="1" fill="rgb(0,0,0)" />
	<circle cx="473.689" cy="412.381" r="1" fill="rgb(0,0,0)" />
	<circle cx="474.694" cy="257.246" r="1" fill="rgb(0,0,0)" />
	<circle cx="486.589" cy="290.082" r="1" fill="rgb(0,0,0)" />
	<circle cx="490.275" cy="408.527" r="1" fill="rgb(0,0,0)" />
	<circle cx="493.29" cy="230.608" r="1" fill="rgb(0,0,0)" />
	<circle cx="504.012" cy="230.608" r="1" fill="rgb(0,0,0)" />
	<circle cx="509.373" cy="534.847" r="1" fill="rgb(0,0,0)" />
	<circle cx="520.766" cy="321.243" r="1" fill="rgb(0,0,0)" />
	<circle cx="523.614" cy="29.9045" r="1" fill="rgb(0,0,0)" />
	<circle cx="531.655" cy="374.853" r="1" fill="rgb(0,0,0)" />
	<circle cx="533.498" cy="399.313" r="1" fill="rgb(0,0,0)" />
	<circle cx="544.22" cy="430.977" r="1" fill="rgb(0,0,0)" />
	<circle cx="546.063" cy="435.165" r="1" fill="rgb(0,0,0)" />
	<circle cx="548.576" cy="38.4487" r="1" fill="rgb(0,0,0)" />
	<circle cx="557.958" cy="222.902" r="1" fill="rgb(0,0,0)" />
	<circle cx="563.654" cy="390.769" r="1" fill="rgb(0,0,0)" />
	<circle cx="569.853" cy="416.904" r="1" fill="rgb(0,0,0)" />
	<circle cx="579.905" cy="247.026" r="1" fill="rgb(0,0,0)" />
	<circle cx="580.072" cy="435.5" r="1" fill="rgb(0,0,0)" />
	<circle cx="580.407" cy="101.273" r="1" fill="rgb(0,0,0)" />
	<circle cx="586.438" cy="486.43" r="1" fill="rgb(0,0,0)" />
	<circle cx="588.114" cy="467.331" r="1" fill="rgb(0,0,0)" />
	<circle cx="604.029" cy="141.649" r="1" fill="rgb(0,0,0)" />
	<circle cx="611.401" cy="471.352" r="1" fill="rgb(0,0,0)" />
	<circle cx="616.929" cy="463.646" r="1" fill="rgb(0,0,0)" />
	<circle cx="632.007" cy="364.634" r="1" fill="rgb(0,0,0)" />
	<circle cx="681.429" cy="370.665" r="1" fill="rgb(0,0,0)" />
	<circle cx="683.607" cy="527.81" r="1" fill="rgb(0,0,0)" />
	<circle cx="688.465" cy="214.358" r="1" fill="rgb(0,0,0)" />
	<circle cx="692.486" cy="267.298" r="1" fill="rgb(0,0,0)" />
	<circle cx="717.113" cy="299.296" r="1" fill="rgb(0,0,0)" />
	<circle cx="726.663" cy="324.929" r="1" fill="rgb(0,0,0)" />
	<circle cx="727.835" cy="430.977" r="1" fill="rgb(0,0,0)" />
	<circle cx="729.176" cy="223.907" r="1" fill="rgb(0,0,0)" />
	<circle cx="732.526" cy="266.963" r="1" fill="rgb(0,0,0)" />
	<circle cx="749.615" cy="259.424" r="1" fill="rgb(0,0,0)" />
	<circle cx="750.62" cy="340.509" r="1" fill="rgb(0,0,0)" />
	<circle cx="774.912" cy="281.873" r="1" fill="rgb(0,0,0)" />
	<circle cx="849.464" cy="387.418" r="1" fill="rgb(0,0,0)" />
	<circle cx="961.711" cy="315.547" r="1" fill="rgb(0,0,0)" />
	<circle cx="1006.11" cy="550.26" r="1" fill="rgb(0,0,0)" />
	<circle cx="1023.86" cy="128.413" r="1" fill="rgb(0,0,0)" />
	<circle cx="1034.75" cy="513.905" r="1" fill="rgb(0,0,0)" />
	<circle cx="1050" cy="303.15" r="1" fill="rgb(0,0,0)" />
</svg>
