<?xml version="1.0" standalone="no" ?>
<!DOCTYPE svg PUBLIC "-//W3C//DTD SVG 1.1//EN" "http://www.w3.org/Graphics/SVG/1.1/DTD/svg11.dtd">
<svg width="1100px" height="644.916px" xmlns="http://www.w3.org/2000/svg" version="1.1" >
	<circle cx="50" cy="514.599" r="1" fill="rgb(0,0,0)" />
	<circle cx="51.1706" cy="501.722" r="1" fill="rgb(0,0,0)" />
	<circle cx="54.3478" cy="510.418" r="1" fill="rgb(0,0,0)" />
	<circle cx="56.5217" cy="488.679" r="1" fill="rgb(0,0,0)" />
	<circle cx="64.214" cy="461.923" r="1" fill="rgb(0,0,0)" />
	<circle cx="96.6555" cy="588.846" r="1" fill="rgb(0,0,0)" />
	<circle cx="118.562" cy="436.338" r="1" fill="rgb(0,0,0)" />
	<circle cx="161.371" cy="507.408" r="1" fill="rgb(0,0,0)" />
	<circle cx="176.589" cy="126.973" r="1" fill="rgb(0,0,0)" />
	<circle cx="198.662" cy="439.348" r="1" fill="rgb(0,0,0)" />
	<circle cx="202.174" cy="182.157" r="1" fill="rgb(0,0,0)" />
	<circle cx="223.579" cy="202.391" r="1" fill="rgb(0,0,0)" />
	<circle cx="223.746" cy="345.201" r="1" fill="rgb(0,0,0)" />
	<circle cx="227.258" cy="435.669" r="1" fill="rgb(0,0,0)" />
	<circle cx="234.783" cy="244.532" r="1" fill="rgb(0,0,0)" />
	<circle cx="244.147" cy="481.488" r="1" fill="rgb(0,0,0)" />
	<circle cx="254.515" cy="562.09" r="1" fill="rgb(0,0,0)" />
	<circle cx="266.555" cy="308.077" r="1" fill="rgb(0,0,0)" />
	<circle cx="267.224" cy="300.552" r="1" fill="rgb(0,0,0)" />
	<circle cx="269.231" cy="434.833" r="1" fill="rgb(0,0,0)" />
	<circle cx="282.107" cy="234.331" r="1" fill="rgb(0,0,0)" />
	<circle cx="297.826" cy="287.508" r="1" fill="rgb(0,0,0)" />
	<circle cx="317.391" cy="289.013" r="1" fill="rgb(0,0,0)" />
	<circle cx="345.318" cy="601.221" r="1" fill="rgb(0,0,0)" />
	<circle cx="365.05" cy="242.358" r="1" fill="rgb(0,0,0)" />
	<circle cx="372.575" cy="254.064" r="1" fill="rgb(0,0,0)" />
	<circle cx="382.274" cy="213.763" r="1" fill="rgb(0,0,0)" />
	<circle cx="385.619" cy="229.147" r="1" fill="rgb(0,0,0)" />
	<circle cx="388.796" cy="615.602" r="1" fill="rgb(0,0,0)" />
	<circle cx="392.475" cy="245.87" r="1" fill="rgb(0,0,0)" />
	<circle cx="406.187" cy="224.799" r="1" fill="rgb(0,0,0)" />
	<circle cx="407.023" cy="241.522" r="1" fill="rgb(0,0,0)" />
	<circle cx="409.532" cy="250.385" r="1" fill="rgb(0,0,0)" />
	<circle cx="409.866" cy="340.686" r="1" fill="rgb(0,0,0)" />
	<circle cx="410.033" cy="46.5385" r="1" fill="rgb(0,0,0)" />
	<circle cx="428.93" cy="212.759" r="1" fill="rgb(0,0,0)" />
	<circle cx="435.452" cy="356.572" r="1" fill="rgb(0,0,0)" />
	<circle cx="457.86" cy="297.375" r="1" fill="rgb(0,0,0)" />
	<circle cx="459.03" cy="229.147" r="1" fill="rgb(0,0,0)" />
	<circle cx="460.033" cy="597.542" r="1" fill="rgb(0,0,0)" />
	<circle cx="463.211" cy="234.666" r="1" fill="rgb(0,0,0)" />
	<circle cx="463.712" cy="410.251" r="1" fill="rgb(0,0,0)" />
	<circle cx="482.274" cy="395.535" r="1" fill="rgb(0,0,0)" />
	<circle cx="482.776" cy="337.508" r="1" fill="rgb(0,0,0)" />
	<circle cx="483.612" cy="281.154" r="1" fill="rgb(0,0,0)" />
	<circle cx="487.96" cy="301.722" r="1" fill="rgb(0,0,0)" />
	<circle cx="493.144" cy="394.866" r="1" fill="rgb(0,0,0)" />
	<circle cx="526.421" cy="432.492" r="1" fill="rgb(0,0,0)" />
	<circle cx="527.09" cy="274.465" r="1" fill="rgb(0,0,0)" />
	<circle cx="535.953" cy="248.043" r="1" fill="rgb(0,0,0)" />
	<circle cx="536.957" cy="30.8194" r="1" fill="rgb(0,0,0)" />
	<circle cx="540.97" cy="258.913" r="1" fill="rgb(0,0,0)" />
	<circle cx="556.522" cy="401.89" r="1" fill="rgb(0,0,0)" />
	<circle cx="573.913" cy="328.311" r="1" fill="rgb(0,0,0)" />
	<circle cx="581.773" cy="236.505" r="1" fill="rgb(0,0,0)" />
	<circle cx="586.455" cy="76.3043" r="1" fill="rgb(0,0,0)" />
	<circle cx="587.793" cy="468.612" r="1" fill="rgb(0,0,0)" />
	<circle cx="590.803" cy="370.953" r="1" fill="rgb(0,0,0)" />
	<circle cx="596.823" cy="565.769" r="1" fill="rgb(0,0,0)" />
	<circle cx="624.749" cy="249.214" r="1" fill="rgb(0,0,0)" />
	<circle cx="629.933" cy="264.264" r="1" fill="rgb(0,0,0)" />
	<circle cx="642.977" cy="201.054" r="1" fill="rgb(0,0,0)" />
	<circle cx="643.144" cy="507.575" r="1" fill="rgb(0,0,0)" />
	<circle cx="650.669" cy="477.308" r="1" fill="rgb(0,0,0)" />
	<circle cx="656.355" cy="343.696" r="1" fill="rgb(0,0,0)" />
	<circle cx="658.194" cy="566.104" r="1" fill="rgb(0,0,0)" />
	<circle cx="663.043" cy="504.064" r="1" fill="rgb(0,0,0)" />
	<circle cx="664.214" cy="501.89" r="1" fill="rgb(0,0,0)" />
	<circle cx="668.896" cy="561.087" r="1" fill="rgb(0,0,0)" />
	<circle cx="669.732" cy="267.943" r="1" fill="rgb(0,0,0)" />
	<circle cx="675.92" cy="536.171" r="1" fill="rgb(0,0,0)" />
	<circle cx="680.936" cy="102.224" r="1" fill="rgb(0,0,0)" />
	<circle cx="702.508" cy="217.441" r="1" fill="rgb(0,0,0)" />
	<circle cx="708.194" cy="29.3144" r="1" fill="rgb(0,0,0)" />
	<circle cx="721.237" cy="509.415" r="1" fill="rgb(0,0,0)" />
	<circle cx="721.405" cy="209.08" r="1" fill="rgb(0,0,0)" />
	<circle cx="735.117" cy="160.418" r="1" fill="rgb(0,0,0)" />
	<circle cx="755.184" cy="164.599" r="1" fill="rgb(0,0,0)" />
	<circle cx="759.866" cy="402.224" r="1" fill="rgb(0,0,0)" />
	<circle cx="763.378" cy="389.348" r="1" fill="rgb(0,0,0)" />
	<circle cx="763.378" cy="270.786" r="1" fill="rgb(0,0,0)" />
	<circle cx="881.605" cy="468.779" r="1" fill="rgb(0,0,0)" />
	<circle cx="931.773" cy="129.147" r="1" fill="rgb(0,0,0)" />
	<circle cx="941.639" cy="403.729" r="1" fill="rgb(0,0,0)" />
	<circle cx="946.488" cy="269.95" r="1" fill="rgb(0,0,0)" />
	<circle cx="978.93" cy="85.8361" r="1" fill="rgb(0,0,0)" />
	<circle cx="1001.34" cy="575.301" r="1" fill="rgb(0,0,0)" />
	<circle cx="1036.12" cy="551.722" r="1" fill="rgb(0,0,0)" />
	<circle cx="1036.62" cy="491.856" r="1" fill="rgb(0,0,0)" />
	<circle cx="1050" cy="563.094" r="1" fill="rgb(0,0,0)" />
</svg>
