<?xml version="1.0" standalone="no" ?>
<!DOCTYPE svg PUBLIC "-//W3C//DTD SVG 1.1//EN" "http://www.w3.org/Graphics/SVG/1.1/DTD/svg11.dtd">
<svg width="1100px" height="618.578px" xmlns="http://www.w3.org/2000/svg" version="1.1" >
	<circle cx="50" cy="210.605" r="1" fill="rgb(0,0,0)" />
	<circle cx="66.7607" cy="522.791" r="1" fill="rgb(0,0,0)" />
	<circle cx="70.99" cy="505.247" r="1" fill="rgb(0,0,0)" />
	<circle cx="71.7732" cy="523.418" r="1" fill="rgb(0,0,0)" />
	<circle cx="72.8697" cy="421.914" r="1" fill="rgb(0,0,0)" />
	<circle cx="75.5326" cy="505.404" r="1" fill="rgb(0,0,0)" />
	<circle cx="76.1591" cy="507.284" r="1" fill="rgb(0,0,0)" />
	<circle cx="76.9424" cy="458.098" r="1" fill="rgb(0,0,0)" />
	<circle cx="77.099" cy="500.548" r="1" fill="rgb(0,0,0)" />
	<circle cx="77.8822" cy="520.912" r="1" fill="rgb(0,0,0)" />
	<circle cx="79.1353" cy="515.586" r="1" fill="rgb(0,0,0)" />
	<circle cx="79.1353" cy="514.803" r="1" fill="rgb(0,0,0)" />
	<circle cx="80.2318" cy="499.608" r="1" fill="rgb(0,0,0)" />
	<circle cx="80.2318" cy="485.981" r="1" fill="rgb(0,0,0)" />
	<circle cx="80.8584" cy="481.595" r="1" fill="rgb(0,0,0)" />
	<circle cx="80.8584" cy="468.28" r="1" fill="rgb(0,0,0)" />
	<circle cx="81.6416" cy="564.145" r="1" fill="rgb(0,0,0)" />
	<circle cx="81.7982" cy="161.419" r="1" fill="rgb(0,0,0)" />
	<circle cx="82.2682" cy="161.576" r="1" fill="rgb(0,0,0)" />
	<circle cx="82.4248" cy="461.858" r="1" fill="rgb(0,0,0)" />
	<circle cx="82.5815" cy="494.909" r="1" fill="rgb(0,0,0)" />
	<circle cx="84.3045" cy="477.522" r="1" fill="rgb(0,0,0)" />
	<circle cx="86.8108" cy="480.811" r="1" fill="rgb(0,0,0)" />
	<circle cx="87.4373" cy="219.377" r="1" fill="rgb(0,0,0)" />
	<circle cx="88.0639" cy="510.103" r="1" fill="rgb(0,0,0)" />
	<circle cx="96.6792" cy="503.994" r="1" fill="rgb(0,0,0)" />
	<circle cx="98.089" cy="182.879" r="1" fill="rgb(0,0,0)" />
	<circle cx="99.3421" cy="480.811" r="1" fill="rgb(0,0,0)" />
	<circle cx="101.222" cy="188.205" r="1" fill="rgb(0,0,0)" />
	<circle cx="109.68" cy="411.732" r="1" fill="rgb(0,0,0)" />
	<circle cx="114.38" cy="462.641" r="1" fill="rgb(0,0,0)" />
	<circle cx="128.947" cy="504.621" r="1" fill="rgb(0,0,0)" />
	<circle cx="130.044" cy="151.081" r="1" fill="rgb(0,0,0)" />
	<circle cx="130.514" cy="146.225" r="1" fill="rgb(0,0,0)" />
	<circle cx="135.683" cy="166.588" r="1" fill="rgb(0,0,0)" />
	<circle cx="136.779" cy="183.506" r="1" fill="rgb(0,0,0)" />
	<circle cx="138.346" cy="558.819" r="1" fill="rgb(0,0,0)" />
	<circle cx="139.912" cy="154.84" r="1" fill="rgb(0,0,0)" />
	<circle cx="140.382" cy="570.254" r="1" fill="rgb(0,0,0)" />
	<circle cx="141.635" cy="156.72" r="1" fill="rgb(0,0,0)" />
	<circle cx="144.768" cy="472.039" r="1" fill="rgb(0,0,0)" />
	<circle cx="144.925" cy="148.418" r="1" fill="rgb(0,0,0)" />
	<circle cx="145.238" cy="521.695" r="1" fill="rgb(0,0,0)" />
	<circle cx="147.274" cy="420.504" r="1" fill="rgb(0,0,0)" />
	<circle cx="147.274" cy="151.707" r="1" fill="rgb(0,0,0)" />
	<circle cx="149.937" cy="463.268" r="1" fill="rgb(0,0,0)" />
	<circle cx="150.094" cy="417.685" r="1" fill="rgb(0,0,0)" />
	<circle cx="167.168" cy="222.979" r="1" fill="rgb(0,0,0)" />
	<circle cx="167.481" cy="562.578" r="1" fill="rgb(0,0,0)" />
	<circle cx="169.674" cy="252.898" r="1" fill="rgb(0,0,0)" />
	<circle cx="171.397" cy="576.049" r="1" fill="rgb(0,0,0)" />
	<circle cx="173.277" cy="129.308" r="1" fill="rgb(0,0,0)" />
	<circle cx="175.94" cy="133.85" r="1" fill="rgb(0,0,0)" />
	<circle cx="177.036" cy="300.517" r="1" fill="rgb(0,0,0)" />
	<circle cx="178.916" cy="123.512" r="1" fill="rgb(0,0,0)" />
	<circle cx="180.326" cy="560.699" r="1" fill="rgb(0,0,0)" />
	<circle cx="180.952" cy="219.533" r="1" fill="rgb(0,0,0)" />
	<circle cx="181.422" cy="554.276" r="1" fill="rgb(0,0,0)" />
	<circle cx="187.688" cy="129.778" r="1" fill="rgb(0,0,0)" />
	<circle cx="188.158" cy="500.078" r="1" fill="rgb(0,0,0)" />
	<circle cx="189.724" cy="236.607" r="1" fill="rgb(0,0,0)" />
	<circle cx="193.484" cy="123.199" r="1" fill="rgb(0,0,0)" />
	<circle cx="193.954" cy="221.413" r="1" fill="rgb(0,0,0)" />
	<circle cx="194.11" cy="515.586" r="1" fill="rgb(0,0,0)" />
	<circle cx="194.737" cy="491.306" r="1" fill="rgb(0,0,0)" />
	<circle cx="194.893" cy="476.269" r="1" fill="rgb(0,0,0)" />
	<circle cx="195.05" cy="483.631" r="1" fill="rgb(0,0,0)" />
	<circle cx="196.617" cy="226.582" r="1" fill="rgb(0,0,0)" />
	<circle cx="196.93" cy="440.868" r="1" fill="rgb(0,0,0)" />
	<circle cx="198.496" cy="490.367" r="1" fill="rgb(0,0,0)" />
	<circle cx="201.786" cy="291.275" r="1" fill="rgb(0,0,0)" />
	<circle cx="208.051" cy="228.775" r="1" fill="rgb(0,0,0)" />
	<circle cx="208.521" cy="122.259" r="1" fill="rgb(0,0,0)" />
	<circle cx="211.028" cy="186.325" r="1" fill="rgb(0,0,0)" />
	<circle cx="211.967" cy="174.577" r="1" fill="rgb(0,0,0)" />
	<circle cx="212.751" cy="434.915" r="1" fill="rgb(0,0,0)" />
	<circle cx="217.137" cy="428.023" r="1" fill="rgb(0,0,0)" />
	<circle cx="217.45" cy="175.987" r="1" fill="rgb(0,0,0)" />
	<circle cx="218.546" cy="182.253" r="1" fill="rgb(0,0,0)" />
	<circle cx="219.33" cy="440.085" r="1" fill="rgb(0,0,0)" />
	<circle cx="221.209" cy="423.167" r="1" fill="rgb(0,0,0)" />
	<circle cx="223.402" cy="441.964" r="1" fill="rgb(0,0,0)" />
	<circle cx="225.595" cy="203.399" r="1" fill="rgb(0,0,0)" />
	<circle cx="225.752" cy="560.072" r="1" fill="rgb(0,0,0)" />
	<circle cx="227.945" cy="426.927" r="1" fill="rgb(0,0,0)" />
	<circle cx="228.571" cy="434.445" r="1" fill="rgb(0,0,0)" />
	<circle cx="228.885" cy="228.462" r="1" fill="rgb(0,0,0)" />
	<circle cx="229.981" cy="210.918" r="1" fill="rgb(0,0,0)" />
	<circle cx="232.018" cy="230.498" r="1" fill="rgb(0,0,0)" />
	<circle cx="233.114" cy="94.5332" r="1" fill="rgb(0,0,0)" />
	<circle cx="234.524" cy="205.592" r="1" fill="rgb(0,0,0)" />
	<circle cx="234.994" cy="294.878" r="1" fill="rgb(0,0,0)" />
	<circle cx="234.994" cy="182.253" r="1" fill="rgb(0,0,0)" />
	<circle cx="235.15" cy="422.227" r="1" fill="rgb(0,0,0)" />
	<circle cx="235.777" cy="230.811" r="1" fill="rgb(0,0,0)" />
	<circle cx="237.187" cy="444.157" r="1" fill="rgb(0,0,0)" />
	<circle cx="240.476" cy="442.904" r="1" fill="rgb(0,0,0)" />
	<circle cx="241.103" cy="434.759" r="1" fill="rgb(0,0,0)" />
	<circle cx="241.416" cy="176.457" r="1" fill="rgb(0,0,0)" />
	<circle cx="242.513" cy="420.661" r="1" fill="rgb(0,0,0)" />
	<circle cx="242.669" cy="171.914" r="1" fill="rgb(0,0,0)" />
	<circle cx="243.139" cy="184.132" r="1" fill="rgb(0,0,0)" />
	<circle cx="243.452" cy="446.507" r="1" fill="rgb(0,0,0)" />
	<circle cx="243.452" cy="174.107" r="1" fill="rgb(0,0,0)" />
	<circle cx="243.922" cy="198.387" r="1" fill="rgb(0,0,0)" />
	<circle cx="244.549" cy="450.11" r="1" fill="rgb(0,0,0)" />
	<circle cx="245.019" cy="170.818" r="1" fill="rgb(0,0,0)" />
	<circle cx="245.959" cy="160.636" r="1" fill="rgb(0,0,0)" />
	<circle cx="246.585" cy="182.566" r="1" fill="rgb(0,0,0)" />
	<circle cx="247.212" cy="329.496" r="1" fill="rgb(0,0,0)" />
	<circle cx="247.368" cy="274.358" r="1" fill="rgb(0,0,0)" />
	<circle cx="247.525" cy="155.78" r="1" fill="rgb(0,0,0)" />
	<circle cx="247.682" cy="543.468" r="1" fill="rgb(0,0,0)" />
	<circle cx="247.995" cy="413.769" r="1" fill="rgb(0,0,0)" />
	<circle cx="248.622" cy="412.359" r="1" fill="rgb(0,0,0)" />
	<circle cx="250.501" cy="182.566" r="1" fill="rgb(0,0,0)" />
	<circle cx="250.658" cy="180.686" r="1" fill="rgb(0,0,0)" />
	<circle cx="252.694" cy="191.808" r="1" fill="rgb(0,0,0)" />
	<circle cx="253.791" cy="171.444" r="1" fill="rgb(0,0,0)" />
	<circle cx="255.201" cy="364.27" r="1" fill="rgb(0,0,0)" />
	<circle cx="255.201" cy="180.216" r="1" fill="rgb(0,0,0)" />
	<circle cx="255.67" cy="307.096" r="1" fill="rgb(0,0,0)" />
	<circle cx="255.984" cy="169.878" r="1" fill="rgb(0,0,0)" />
	<circle cx="256.924" cy="549.734" r="1" fill="rgb(0,0,0)" />
	<circle cx="260.526" cy="389.176" r="1" fill="rgb(0,0,0)" />
	<circle cx="262.093" cy="209.508" r="1" fill="rgb(0,0,0)" />
	<circle cx="262.249" cy="236.451" r="1" fill="rgb(0,0,0)" />
	<circle cx="262.719" cy="553.806" r="1" fill="rgb(0,0,0)" />
	<circle cx="262.719" cy="459.508" r="1" fill="rgb(0,0,0)" />
	<circle cx="263.346" cy="210.291" r="1" fill="rgb(0,0,0)" />
	<circle cx="263.816" cy="225.016" r="1" fill="rgb(0,0,0)" />
	<circle cx="264.442" cy="228.305" r="1" fill="rgb(0,0,0)" />
	<circle cx="264.912" cy="523.731" r="1" fill="rgb(0,0,0)" />
	<circle cx="267.575" cy="178.18" r="1" fill="rgb(0,0,0)" />
	<circle cx="268.358" cy="230.341" r="1" fill="rgb(0,0,0)" />
	<circle cx="268.672" cy="513.236" r="1" fill="rgb(0,0,0)" />
	<circle cx="269.298" cy="228.618" r="1" fill="rgb(0,0,0)" />
	<circle cx="269.612" cy="391.682" r="1" fill="rgb(0,0,0)" />
	<circle cx="269.768" cy="220.473" r="1" fill="rgb(0,0,0)" />
	<circle cx="270.238" cy="520.128" r="1" fill="rgb(0,0,0)" />
	<circle cx="271.491" cy="388.393" r="1" fill="rgb(0,0,0)" />
	<circle cx="272.118" cy="506.344" r="1" fill="rgb(0,0,0)" />
	<circle cx="272.274" cy="178.806" r="1" fill="rgb(0,0,0)" />
	<circle cx="272.744" cy="376.958" r="1" fill="rgb(0,0,0)" />
	<circle cx="272.901" cy="173.481" r="1" fill="rgb(0,0,0)" />
	<circle cx="273.371" cy="217.654" r="1" fill="rgb(0,0,0)" />
	<circle cx="278.07" cy="218.593" r="1" fill="rgb(0,0,0)" />
	<circle cx="279.01" cy="235.667" r="1" fill="rgb(0,0,0)" />
	<circle cx="279.167" cy="230.655" r="1" fill="rgb(0,0,0)" />
	<circle cx="283.396" cy="462.171" r="1" fill="rgb(0,0,0)" />
	<circle cx="286.059" cy="485.511" r="1" fill="rgb(0,0,0)" />
	<circle cx="288.095" cy="309.759" r="1" fill="rgb(0,0,0)" />
	<circle cx="288.878" cy="206.532" r="1" fill="rgb(0,0,0)" />
	<circle cx="289.192" cy="228.305" r="1" fill="rgb(0,0,0)" />
	<circle cx="292.325" cy="487.39" r="1" fill="rgb(0,0,0)" />
	<circle cx="292.481" cy="453.712" r="1" fill="rgb(0,0,0)" />
	<circle cx="292.951" cy="213.737" r="1" fill="rgb(0,0,0)" />
	<circle cx="295.614" cy="266.839" r="1" fill="rgb(0,0,0)" />
	<circle cx="302.82" cy="462.484" r="1" fill="rgb(0,0,0)" />
	<circle cx="309.398" cy="472.509" r="1" fill="rgb(0,0,0)" />
	<circle cx="311.748" cy="587.641" r="1" fill="rgb(0,0,0)" />
	<circle cx="312.531" cy="270.128" r="1" fill="rgb(0,0,0)" />
	<circle cx="313.001" cy="322.133" r="1" fill="rgb(0,0,0)" />
	<circle cx="313.001" cy="201.519" r="1" fill="rgb(0,0,0)" />
	<circle cx="313.784" cy="417.841" r="1" fill="rgb(0,0,0)" />
	<circle cx="314.411" cy="417.215" r="1" fill="rgb(0,0,0)" />
	<circle cx="314.724" cy="280.31" r="1" fill="rgb(0,0,0)" />
	<circle cx="317.074" cy="269.032" r="1" fill="rgb(0,0,0)" />
	<circle cx="319.11" cy="469.846" r="1" fill="rgb(0,0,0)" />
	<circle cx="322.086" cy="421.758" r="1" fill="rgb(0,0,0)" />
	<circle cx="322.243" cy="245.379" r="1" fill="rgb(0,0,0)" />
	<circle cx="324.593" cy="398.105" r="1" fill="rgb(0,0,0)" />
	<circle cx="325.063" cy="279.057" r="1" fill="rgb(0,0,0)" />
	<circle cx="325.533" cy="468.28" r="1" fill="rgb(0,0,0)" />
	<circle cx="326.629" cy="407.503" r="1" fill="rgb(0,0,0)" />
	<circle cx="327.569" cy="239.583" r="1" fill="rgb(0,0,0)" />
	<circle cx="328.039" cy="286.889" r="1" fill="rgb(0,0,0)" />
	<circle cx="328.352" cy="578.399" r="1" fill="rgb(0,0,0)" />
	<circle cx="329.292" cy="281.25" r="1" fill="rgb(0,0,0)" />
	<circle cx="331.955" cy="461.231" r="1" fill="rgb(0,0,0)" />
	<circle cx="335.244" cy="585.448" r="1" fill="rgb(0,0,0)" />
	<circle cx="335.401" cy="288.612" r="1" fill="rgb(0,0,0)" />
	<circle cx="335.401" cy="245.692" r="1" fill="rgb(0,0,0)" />
	<circle cx="335.714" cy="585.605" r="1" fill="rgb(0,0,0)" />
	<circle cx="335.714" cy="386.043" r="1" fill="rgb(0,0,0)" />
	<circle cx="336.967" cy="460.761" r="1" fill="rgb(0,0,0)" />
	<circle cx="338.064" cy="289.552" r="1" fill="rgb(0,0,0)" />
	<circle cx="339.16" cy="297.697" r="1" fill="rgb(0,0,0)" />
	<circle cx="339.474" cy="450.893" r="1" fill="rgb(0,0,0)" />
	<circle cx="340.57" cy="445.88" r="1" fill="rgb(0,0,0)" />
	<circle cx="340.883" cy="380.247" r="1" fill="rgb(0,0,0)" />
	<circle cx="341.353" cy="286.889" r="1" fill="rgb(0,0,0)" />
	<circle cx="343.233" cy="293.311" r="1" fill="rgb(0,0,0)" />
	<circle cx="343.546" cy="248.199" r="1" fill="rgb(0,0,0)" />
	<circle cx="347.149" cy="283.756" r="1" fill="rgb(0,0,0)" />
	<circle cx="347.932" cy="244.283" r="1" fill="rgb(0,0,0)" />
	<circle cx="348.559" cy="257.127" r="1" fill="rgb(0,0,0)" />
	<circle cx="350.125" cy="288.612" r="1" fill="rgb(0,0,0)" />
	<circle cx="350.752" cy="250.862" r="1" fill="rgb(0,0,0)" />
	<circle cx="351.692" cy="576.049" r="1" fill="rgb(0,0,0)" />
	<circle cx="351.692" cy="251.958" r="1" fill="rgb(0,0,0)" />
	<circle cx="351.848" cy="433.662" r="1" fill="rgb(0,0,0)" />
	<circle cx="352.162" cy="577.459" r="1" fill="rgb(0,0,0)" />
	<circle cx="353.571" cy="415.492" r="1" fill="rgb(0,0,0)" />
	<circle cx="354.511" cy="577.929" r="1" fill="rgb(0,0,0)" />
	<circle cx="357.018" cy="257.597" r="1" fill="rgb(0,0,0)" />
	<circle cx="358.584" cy="237.077" r="1" fill="rgb(0,0,0)" />
	<circle cx="358.584" cy="111.92" r="1" fill="rgb(0,0,0)" />
	<circle cx="359.054" cy="574.953" r="1" fill="rgb(0,0,0)" />
	<circle cx="359.367" cy="245.066" r="1" fill="rgb(0,0,0)" />
	<circle cx="359.524" cy="578.086" r="1" fill="rgb(0,0,0)" />
	<circle cx="361.247" cy="312.578" r="1" fill="rgb(0,0,0)" />
	<circle cx="362.187" cy="277.021" r="1" fill="rgb(0,0,0)" />
	<circle cx="364.066" cy="244.909" r="1" fill="rgb(0,0,0)" />
	<circle cx="367.043" cy="255.091" r="1" fill="rgb(0,0,0)" />
	<circle cx="367.356" cy="580.279" r="1" fill="rgb(0,0,0)" />
	<circle cx="371.272" cy="246.789" r="1" fill="rgb(0,0,0)" />
	<circle cx="372.055" cy="578.712" r="1" fill="rgb(0,0,0)" />
	<circle cx="372.055" cy="250.705" r="1" fill="rgb(0,0,0)" />
	<circle cx="373.622" cy="246.789" r="1" fill="rgb(0,0,0)" />
	<circle cx="378.008" cy="400.141" r="1" fill="rgb(0,0,0)" />
	<circle cx="378.164" cy="572.29" r="1" fill="rgb(0,0,0)" />
	<circle cx="378.164" cy="248.825" r="1" fill="rgb(0,0,0)" />
	<circle cx="378.634" cy="239.74" r="1" fill="rgb(0,0,0)" />
	<circle cx="379.417" cy="400.611" r="1" fill="rgb(0,0,0)" />
	<circle cx="381.14" cy="336.544" r="1" fill="rgb(0,0,0)" />
	<circle cx="382.237" cy="571.194" r="1" fill="rgb(0,0,0)" />
	<circle cx="383.02" cy="246.162" r="1" fill="rgb(0,0,0)" />
	<circle cx="383.333" cy="370.692" r="1" fill="rgb(0,0,0)" />
	<circle cx="383.803" cy="228.148" r="1" fill="rgb(0,0,0)" />
	<circle cx="384.9" cy="244.909" r="1" fill="rgb(0,0,0)" />
	<circle cx="385.213" cy="233.474" r="1" fill="rgb(0,0,0)" />
	<circle cx="385.526" cy="235.041" r="1" fill="rgb(0,0,0)" />
	<circle cx="388.189" cy="213.894" r="1" fill="rgb(0,0,0)" />
	<circle cx="390.226" cy="210.291" r="1" fill="rgb(0,0,0)" />
	<circle cx="390.695" cy="266.839" r="1" fill="rgb(0,0,0)" />
	<circle cx="391.635" cy="265.429" r="1" fill="rgb(0,0,0)" />
	<circle cx="391.635" cy="241.306" r="1" fill="rgb(0,0,0)" />
	<circle cx="391.949" cy="408.756" r="1" fill="rgb(0,0,0)" />
	<circle cx="393.672" cy="193.374" r="1" fill="rgb(0,0,0)" />
	<circle cx="393.828" cy="391.369" r="1" fill="rgb(0,0,0)" />
	<circle cx="394.298" cy="200.11" r="1" fill="rgb(0,0,0)" />
	<circle cx="394.925" cy="215.147" r="1" fill="rgb(0,0,0)" />
	<circle cx="395.238" cy="334.038" r="1" fill="rgb(0,0,0)" />
	<circle cx="395.395" cy="348.763" r="1" fill="rgb(0,0,0)" />
	<circle cx="396.178" cy="350.956" r="1" fill="rgb(0,0,0)" />
	<circle cx="396.491" cy="211.544" r="1" fill="rgb(0,0,0)" />
	<circle cx="397.118" cy="236.607" r="1" fill="rgb(0,0,0)" />
	<circle cx="397.431" cy="204.026" r="1" fill="rgb(0,0,0)" />
	<circle cx="398.058" cy="204.496" r="1" fill="rgb(0,0,0)" />
	<circle cx="401.034" cy="208.568" r="1" fill="rgb(0,0,0)" />
	<circle cx="401.817" cy="397.791" r="1" fill="rgb(0,0,0)" />
	<circle cx="402.13" cy="229.558" r="1" fill="rgb(0,0,0)" />
	<circle cx="402.287" cy="418.468" r="1" fill="rgb(0,0,0)" />
	<circle cx="402.444" cy="235.041" r="1" fill="rgb(0,0,0)" />
	<circle cx="402.914" cy="214.207" r="1" fill="rgb(0,0,0)" />
	<circle cx="404.323" cy="402.021" r="1" fill="rgb(0,0,0)" />
	<circle cx="404.323" cy="241.776" r="1" fill="rgb(0,0,0)" />
	<circle cx="406.203" cy="250.235" r="1" fill="rgb(0,0,0)" />
	<circle cx="406.36" cy="362.547" r="1" fill="rgb(0,0,0)" />
	<circle cx="409.336" cy="326.989" r="1" fill="rgb(0,0,0)" />
	<circle cx="410.432" cy="226.112" r="1" fill="rgb(0,0,0)" />
	<circle cx="411.059" cy="247.729" r="1" fill="rgb(0,0,0)" />
	<circle cx="411.842" cy="33.1297" r="1" fill="rgb(0,0,0)" />
	<circle cx="412.469" cy="247.572" r="1" fill="rgb(0,0,0)" />
	<circle cx="413.095" cy="590.461" r="1" fill="rgb(0,0,0)" />
	<circle cx="413.565" cy="227.365" r="1" fill="rgb(0,0,0)" />
	<circle cx="413.878" cy="363.33" r="1" fill="rgb(0,0,0)" />
	<circle cx="413.878" cy="226.895" r="1" fill="rgb(0,0,0)" />
	<circle cx="415.445" cy="53.8064" r="1" fill="rgb(0,0,0)" />
	<circle cx="415.602" cy="57.7224" r="1" fill="rgb(0,0,0)" />
	<circle cx="416.698" cy="211.075" r="1" fill="rgb(0,0,0)" />
	<circle cx="416.855" cy="247.885" r="1" fill="rgb(0,0,0)" />
	<circle cx="417.011" cy="232.691" r="1" fill="rgb(0,0,0)" />
	<circle cx="417.325" cy="212.328" r="1" fill="rgb(0,0,0)" />
	<circle cx="420.301" cy="225.016" r="1" fill="rgb(0,0,0)" />
	<circle cx="421.084" cy="47.0708" r="1" fill="rgb(0,0,0)" />
	<circle cx="421.397" cy="405.467" r="1" fill="rgb(0,0,0)" />
	<circle cx="421.711" cy="363.643" r="1" fill="rgb(0,0,0)" />
	<circle cx="422.65" cy="216.87" r="1" fill="rgb(0,0,0)" />
	<circle cx="423.12" cy="275.924" r="1" fill="rgb(0,0,0)" />
	<circle cx="423.277" cy="279.527" r="1" fill="rgb(0,0,0)" />
	<circle cx="423.59" cy="248.199" r="1" fill="rgb(0,0,0)" />
	<circle cx="424.53" cy="357.221" r="1" fill="rgb(0,0,0)" />
	<circle cx="425.157" cy="270.755" r="1" fill="rgb(0,0,0)" />
	<circle cx="427.193" cy="326.519" r="1" fill="rgb(0,0,0)" />
	<circle cx="427.82" cy="292.998" r="1" fill="rgb(0,0,0)" />
	<circle cx="429.856" cy="285.636" r="1" fill="rgb(0,0,0)" />
	<circle cx="429.856" cy="283.6" r="1" fill="rgb(0,0,0)" />
	<circle cx="430.013" cy="230.341" r="1" fill="rgb(0,0,0)" />
	<circle cx="430.639" cy="362.077" r="1" fill="rgb(0,0,0)" />
	<circle cx="432.362" cy="270.598" r="1" fill="rgb(0,0,0)" />
	<circle cx="434.085" cy="304.276" r="1" fill="rgb(0,0,0)" />
	<circle cx="434.398" cy="186.169" r="1" fill="rgb(0,0,0)" />
	<circle cx="435.965" cy="402.647" r="1" fill="rgb(0,0,0)" />
	<circle cx="437.531" cy="394.972" r="1" fill="rgb(0,0,0)" />
	<circle cx="438.628" cy="280.937" r="1" fill="rgb(0,0,0)" />
	<circle cx="438.784" cy="583.568" r="1" fill="rgb(0,0,0)" />
	<circle cx="438.941" cy="232.534" r="1" fill="rgb(0,0,0)" />
	<circle cx="442.074" cy="237.547" r="1" fill="rgb(0,0,0)" />
	<circle cx="442.387" cy="233.161" r="1" fill="rgb(0,0,0)" />
	<circle cx="444.893" cy="263.393" r="1" fill="rgb(0,0,0)" />
	<circle cx="445.52" cy="340.774" r="1" fill="rgb(0,0,0)" />
	<circle cx="445.99" cy="413.925" r="1" fill="rgb(0,0,0)" />
	<circle cx="447.4" cy="572.29" r="1" fill="rgb(0,0,0)" />
	<circle cx="448.026" cy="234.727" r="1" fill="rgb(0,0,0)" />
	<circle cx="448.81" cy="313.675" r="1" fill="rgb(0,0,0)" />
	<circle cx="449.749" cy="228.775" r="1" fill="rgb(0,0,0)" />
	<circle cx="450.376" cy="315.711" r="1" fill="rgb(0,0,0)" />
	<circle cx="451.629" cy="224.859" r="1" fill="rgb(0,0,0)" />
	<circle cx="451.786" cy="308.819" r="1" fill="rgb(0,0,0)" />
	<circle cx="454.762" cy="313.831" r="1" fill="rgb(0,0,0)" />
	<circle cx="455.388" cy="285.166" r="1" fill="rgb(0,0,0)" />
	<circle cx="457.581" cy="230.811" r="1" fill="rgb(0,0,0)" />
	<circle cx="458.991" cy="409.226" r="1" fill="rgb(0,0,0)" />
	<circle cx="460.871" cy="574.953" r="1" fill="rgb(0,0,0)" />
	<circle cx="461.341" cy="373.199" r="1" fill="rgb(0,0,0)" />
	<circle cx="462.594" cy="278.43" r="1" fill="rgb(0,0,0)" />
	<circle cx="463.377" cy="388.549" r="1" fill="rgb(0,0,0)" />
	<circle cx="466.667" cy="268.249" r="1" fill="rgb(0,0,0)" />
	<circle cx="469.016" cy="379.464" r="1" fill="rgb(0,0,0)" />
	<circle cx="469.016" cy="368.656" r="1" fill="rgb(0,0,0)" />
	<circle cx="470.113" cy="585.135" r="1" fill="rgb(0,0,0)" />
	<circle cx="470.426" cy="241.933" r="1" fill="rgb(0,0,0)" />
	<circle cx="472.932" cy="71.037" r="1" fill="rgb(0,0,0)" />
	<circle cx="473.716" cy="278.587" r="1" fill="rgb(0,0,0)" />
	<circle cx="473.872" cy="70.2538" r="1" fill="rgb(0,0,0)" />
	<circle cx="475.439" cy="293.781" r="1" fill="rgb(0,0,0)" />
	<circle cx="475.439" cy="289.239" r="1" fill="rgb(0,0,0)" />
	<circle cx="476.535" cy="70.0971" r="1" fill="rgb(0,0,0)" />
	<circle cx="477.005" cy="399.671" r="1" fill="rgb(0,0,0)" />
	<circle cx="477.162" cy="274.201" r="1" fill="rgb(0,0,0)" />
	<circle cx="479.198" cy="356.908" r="1" fill="rgb(0,0,0)" />
	<circle cx="479.511" cy="262.453" r="1" fill="rgb(0,0,0)" />
	<circle cx="481.078" cy="332.315" r="1" fill="rgb(0,0,0)" />
	<circle cx="483.271" cy="379.778" r="1" fill="rgb(0,0,0)" />
	<circle cx="483.271" cy="250.078" r="1" fill="rgb(0,0,0)" />
	<circle cx="483.584" cy="369.439" r="1" fill="rgb(0,0,0)" />
	<circle cx="483.897" cy="267.622" r="1" fill="rgb(0,0,0)" />
	<circle cx="484.524" cy="482.065" r="1" fill="rgb(0,0,0)" />
	<circle cx="484.68" cy="261.513" r="1" fill="rgb(0,0,0)" />
	<circle cx="485.15" cy="218.593" r="1" fill="rgb(0,0,0)" />
	<circle cx="486.873" cy="383.537" r="1" fill="rgb(0,0,0)" />
	<circle cx="489.38" cy="364.27" r="1" fill="rgb(0,0,0)" />
	<circle cx="490.006" cy="290.022" r="1" fill="rgb(0,0,0)" />
	<circle cx="490.476" cy="386.826" r="1" fill="rgb(0,0,0)" />
	<circle cx="491.573" cy="509.79" r="1" fill="rgb(0,0,0)" />
	<circle cx="492.356" cy="381.344" r="1" fill="rgb(0,0,0)" />
	<circle cx="494.236" cy="295.034" r="1" fill="rgb(0,0,0)" />
	<circle cx="494.706" cy="511.2" r="1" fill="rgb(0,0,0)" />
	<circle cx="495.802" cy="55.9994" r="1" fill="rgb(0,0,0)" />
	<circle cx="497.212" cy="361.451" r="1" fill="rgb(0,0,0)" />
	<circle cx="498.778" cy="357.221" r="1" fill="rgb(0,0,0)" />
	<circle cx="499.875" cy="514.646" r="1" fill="rgb(0,0,0)" />
	<circle cx="500.345" cy="38.1422" r="1" fill="rgb(0,0,0)" />
	<circle cx="500.501" cy="292.841" r="1" fill="rgb(0,0,0)" />
	<circle cx="501.441" cy="363.33" r="1" fill="rgb(0,0,0)" />
	<circle cx="503.947" cy="115.21" r="1" fill="rgb(0,0,0)" />
	<circle cx="504.104" cy="368.656" r="1" fill="rgb(0,0,0)" />
	<circle cx="505.201" cy="132.597" r="1" fill="rgb(0,0,0)" />
	<circle cx="507.55" cy="243.186" r="1" fill="rgb(0,0,0)" />
	<circle cx="507.863" cy="379.151" r="1" fill="rgb(0,0,0)" />
	<circle cx="510.37" cy="377.271" r="1" fill="rgb(0,0,0)" />
	<circle cx="513.033" cy="189.928" r="1" fill="rgb(0,0,0)" />
	<circle cx="514.286" cy="561.795" r="1" fill="rgb(0,0,0)" />
	<circle cx="514.442" cy="220.316" r="1" fill="rgb(0,0,0)" />
	<circle cx="514.756" cy="365.367" r="1" fill="rgb(0,0,0)" />
	<circle cx="517.262" cy="97.8227" r="1" fill="rgb(0,0,0)" />
	<circle cx="517.419" cy="384.633" r="1" fill="rgb(0,0,0)" />
	<circle cx="517.419" cy="223.136" r="1" fill="rgb(0,0,0)" />
	<circle cx="518.358" cy="301.927" r="1" fill="rgb(0,0,0)" />
	<circle cx="519.455" cy="392.466" r="1" fill="rgb(0,0,0)" />
	<circle cx="520.081" cy="385.73" r="1" fill="rgb(0,0,0)" />
	<circle cx="521.021" cy="381.657" r="1" fill="rgb(0,0,0)" />
	<circle cx="522.744" cy="406.563" r="1" fill="rgb(0,0,0)" />
	<circle cx="523.058" cy="406.72" r="1" fill="rgb(0,0,0)" />
	<circle cx="523.684" cy="49.1071" r="1" fill="rgb(0,0,0)" />
	<circle cx="523.997" cy="385.887" r="1" fill="rgb(0,0,0)" />
	<circle cx="524.154" cy="368.813" r="1" fill="rgb(0,0,0)" />
	<circle cx="525.407" cy="575.11" r="1" fill="rgb(0,0,0)" />
	<circle cx="525.721" cy="366.776" r="1" fill="rgb(0,0,0)" />
	<circle cx="526.347" cy="40.4919" r="1" fill="rgb(0,0,0)" />
	<circle cx="527.6" cy="211.858" r="1" fill="rgb(0,0,0)" />
	<circle cx="528.07" cy="412.202" r="1" fill="rgb(0,0,0)" />
	<circle cx="528.383" cy="31.8766" r="1" fill="rgb(0,0,0)" />
	<circle cx="529.01" cy="386.2" r="1" fill="rgb(0,0,0)" />
	<circle cx="529.167" cy="388.706" r="1" fill="rgb(0,0,0)" />
	<circle cx="529.793" cy="296.131" r="1" fill="rgb(0,0,0)" />
	<circle cx="530.89" cy="384.947" r="1" fill="rgb(0,0,0)" />
	<circle cx="532.299" cy="143.562" r="1" fill="rgb(0,0,0)" />
	<circle cx="532.456" cy="28.1172" r="1" fill="rgb(0,0,0)" />
	<circle cx="533.083" cy="270.128" r="1" fill="rgb(0,0,0)" />
	<circle cx="533.239" cy="359.414" r="1" fill="rgb(0,0,0)" />
	<circle cx="533.709" cy="42.6848" r="1" fill="rgb(0,0,0)" />
	<circle cx="534.806" cy="280.78" r="1" fill="rgb(0,0,0)" />
	<circle cx="536.059" cy="304.276" r="1" fill="rgb(0,0,0)" />
	<circle cx="537.155" cy="382.284" r="1" fill="rgb(0,0,0)" />
	<circle cx="537.469" cy="204.966" r="1" fill="rgb(0,0,0)" />
	<circle cx="539.192" cy="45.0345" r="1" fill="rgb(0,0,0)" />
	<circle cx="541.385" cy="386.043" r="1" fill="rgb(0,0,0)" />
	<circle cx="544.361" cy="45.9743" r="1" fill="rgb(0,0,0)" />
	<circle cx="545.301" cy="407.816" r="1" fill="rgb(0,0,0)" />
	<circle cx="547.964" cy="275.454" r="1" fill="rgb(0,0,0)" />
	<circle cx="548.904" cy="347.353" r="1" fill="rgb(0,0,0)" />
	<circle cx="549.687" cy="208.255" r="1" fill="rgb(0,0,0)" />
	<circle cx="550.157" cy="326.833" r="1" fill="rgb(0,0,0)" />
	<circle cx="552.193" cy="312.578" r="1" fill="rgb(0,0,0)" />
	<circle cx="552.35" cy="171.758" r="1" fill="rgb(0,0,0)" />
	<circle cx="552.663" cy="407.66" r="1" fill="rgb(0,0,0)" />
	<circle cx="554.386" cy="375.235" r="1" fill="rgb(0,0,0)" />
	<circle cx="556.579" cy="246.162" r="1" fill="rgb(0,0,0)" />
	<circle cx="557.675" cy="364.113" r="1" fill="rgb(0,0,0)" />
	<circle cx="557.989" cy="302.397" r="1" fill="rgb(0,0,0)" />
	<circle cx="559.868" cy="396.538" r="1" fill="rgb(0,0,0)" />
	<circle cx="560.182" cy="449.17" r="1" fill="rgb(0,0,0)" />
	<circle cx="560.965" cy="72.9167" r="1" fill="rgb(0,0,0)" />
	<circle cx="561.591" cy="74.1698" r="1" fill="rgb(0,0,0)" />
	<circle cx="561.905" cy="360.041" r="1" fill="rgb(0,0,0)" />
	<circle cx="565.821" cy="370.536" r="1" fill="rgb(0,0,0)" />
	<circle cx="567.231" cy="312.892" r="1" fill="rgb(0,0,0)" />
	<circle cx="568.014" cy="188.675" r="1" fill="rgb(0,0,0)" />
	<circle cx="570.207" cy="216.087" r="1" fill="rgb(0,0,0)" />
	<circle cx="570.363" cy="417.841" r="1" fill="rgb(0,0,0)" />
	<circle cx="570.363" cy="405.78" r="1" fill="rgb(0,0,0)" />
	<circle cx="571.617" cy="456.532" r="1" fill="rgb(0,0,0)" />
	<circle cx="571.93" cy="370.066" r="1" fill="rgb(0,0,0)" />
	<circle cx="573.026" cy="428.963" r="1" fill="rgb(0,0,0)" />
	<circle cx="574.749" cy="242.09" r="1" fill="rgb(0,0,0)" />
	<circle cx="576.942" cy="454.652" r="1" fill="rgb(0,0,0)" />
	<circle cx="578.509" cy="403.274" r="1" fill="rgb(0,0,0)" />
	<circle cx="579.449" cy="367.56" r="1" fill="rgb(0,0,0)" />
	<circle cx="579.762" cy="411.419" r="1" fill="rgb(0,0,0)" />
	<circle cx="581.172" cy="462.954" r="1" fill="rgb(0,0,0)" />
	<circle cx="583.051" cy="250.078" r="1" fill="rgb(0,0,0)" />
	<circle cx="585.871" cy="464.834" r="1" fill="rgb(0,0,0)" />
	<circle cx="585.871" cy="201.833" r="1" fill="rgb(0,0,0)" />
	<circle cx="586.028" cy="242.873" r="1" fill="rgb(0,0,0)" />
	<circle cx="586.184" cy="218.593" r="1" fill="rgb(0,0,0)" />
	<circle cx="586.654" cy="420.348" r="1" fill="rgb(0,0,0)" />
	<circle cx="586.654" cy="48.0107" r="1" fill="rgb(0,0,0)" />
	<circle cx="587.124" cy="240.053" r="1" fill="rgb(0,0,0)" />
	<circle cx="589.004" cy="171.288" r="1" fill="rgb(0,0,0)" />
	<circle cx="591.04" cy="466.557" r="1" fill="rgb(0,0,0)" />
	<circle cx="591.667" cy="238.174" r="1" fill="rgb(0,0,0)" />
	<circle cx="591.823" cy="463.111" r="1" fill="rgb(0,0,0)" />
	<circle cx="592.607" cy="199.64" r="1" fill="rgb(0,0,0)" />
	<circle cx="593.076" cy="206.689" r="1" fill="rgb(0,0,0)" />
	<circle cx="594.33" cy="359.414" r="1" fill="rgb(0,0,0)" />
	<circle cx="594.33" cy="126.488" r="1" fill="rgb(0,0,0)" />
	<circle cx="595.113" cy="541.588" r="1" fill="rgb(0,0,0)" />
	<circle cx="597.932" cy="79.8089" r="1" fill="rgb(0,0,0)" />
	<circle cx="598.402" cy="79.4956" r="1" fill="rgb(0,0,0)" />
	<circle cx="599.655" cy="414.395" r="1" fill="rgb(0,0,0)" />
	<circle cx="601.222" cy="542.998" r="1" fill="rgb(0,0,0)" />
	<circle cx="601.692" cy="458.098" r="1" fill="rgb(0,0,0)" />
	<circle cx="604.355" cy="236.451" r="1" fill="rgb(0,0,0)" />
	<circle cx="604.825" cy="439.301" r="1" fill="rgb(0,0,0)" />
	<circle cx="606.391" cy="250.078" r="1" fill="rgb(0,0,0)" />
	<circle cx="607.801" cy="435.699" r="1" fill="rgb(0,0,0)" />
	<circle cx="614.223" cy="378.681" r="1" fill="rgb(0,0,0)" />
	<circle cx="614.693" cy="470.63" r="1" fill="rgb(0,0,0)" />
	<circle cx="615.006" cy="190.398" r="1" fill="rgb(0,0,0)" />
	<circle cx="615.476" cy="440.555" r="1" fill="rgb(0,0,0)" />
	<circle cx="615.476" cy="351.582" r="1" fill="rgb(0,0,0)" />
	<circle cx="617.513" cy="473.606" r="1" fill="rgb(0,0,0)" />
	<circle cx="618.766" cy="253.211" r="1" fill="rgb(0,0,0)" />
	<circle cx="619.706" cy="226.895" r="1" fill="rgb(0,0,0)" />
	<circle cx="622.212" cy="472.039" r="1" fill="rgb(0,0,0)" />
	<circle cx="623.152" cy="572.29" r="1" fill="rgb(0,0,0)" />
	<circle cx="623.935" cy="478.462" r="1" fill="rgb(0,0,0)" />
	<circle cx="624.405" cy="472.039" r="1" fill="rgb(0,0,0)" />
	<circle cx="624.405" cy="305.686" r="1" fill="rgb(0,0,0)" />
	<circle cx="624.561" cy="478.618" r="1" fill="rgb(0,0,0)" />
	<circle cx="625.815" cy="481.125" r="1" fill="rgb(0,0,0)" />
	<circle cx="626.284" cy="552.71" r="1" fill="rgb(0,0,0)" />
	<circle cx="626.284" cy="468.28" r="1" fill="rgb(0,0,0)" />
	<circle cx="627.851" cy="198.7" r="1" fill="rgb(0,0,0)" />
	<circle cx="631.14" cy="261.983" r="1" fill="rgb(0,0,0)" />
	<circle cx="633.333" cy="566.808" r="1" fill="rgb(0,0,0)" />
	<circle cx="634.743" cy="483.474" r="1" fill="rgb(0,0,0)" />
	<circle cx="635.213" cy="82.9417" r="1" fill="rgb(0,0,0)" />
	<circle cx="635.37" cy="474.546" r="1" fill="rgb(0,0,0)" />
	<circle cx="635.683" cy="555.843" r="1" fill="rgb(0,0,0)" />
	<circle cx="638.503" cy="473.763" r="1" fill="rgb(0,0,0)" />
	<circle cx="638.816" cy="259.32" r="1" fill="rgb(0,0,0)" />
	<circle cx="639.129" cy="553.65" r="1" fill="rgb(0,0,0)" />
	<circle cx="640.069" cy="45.8177" r="1" fill="rgb(0,0,0)" />
	<circle cx="640.695" cy="44.7212" r="1" fill="rgb(0,0,0)" />
	<circle cx="641.635" cy="396.382" r="1" fill="rgb(0,0,0)" />
	<circle cx="641.949" cy="223.763" r="1" fill="rgb(0,0,0)" />
	<circle cx="642.888" cy="539.709" r="1" fill="rgb(0,0,0)" />
	<circle cx="643.202" cy="198.073" r="1" fill="rgb(0,0,0)" />
	<circle cx="643.515" cy="457.472" r="1" fill="rgb(0,0,0)" />
	<circle cx="645.081" cy="284.07" r="1" fill="rgb(0,0,0)" />
	<circle cx="649.154" cy="488.8" r="1" fill="rgb(0,0,0)" />
	<circle cx="649.937" cy="360.824" r="1" fill="rgb(0,0,0)" />
	<circle cx="650.094" cy="364.583" r="1" fill="rgb(0,0,0)" />
	<circle cx="655.42" cy="471.883" r="1" fill="rgb(0,0,0)" />
	<circle cx="656.203" cy="537.202" r="1" fill="rgb(0,0,0)" />
	<circle cx="657.456" cy="411.889" r="1" fill="rgb(0,0,0)" />
	<circle cx="658.553" cy="209.038" r="1" fill="rgb(0,0,0)" />
	<circle cx="661.529" cy="544.251" r="1" fill="rgb(0,0,0)" />
	<circle cx="661.685" cy="235.511" r="1" fill="rgb(0,0,0)" />
	<circle cx="662.469" cy="329.496" r="1" fill="rgb(0,0,0)" />
	<circle cx="662.939" cy="300.83" r="1" fill="rgb(0,0,0)" />
	<circle cx="664.192" cy="222.509" r="1" fill="rgb(0,0,0)" />
	<circle cx="666.071" cy="52.5533" r="1" fill="rgb(0,0,0)" />
	<circle cx="668.891" cy="306.156" r="1" fill="rgb(0,0,0)" />
	<circle cx="669.831" cy="502.585" r="1" fill="rgb(0,0,0)" />
	<circle cx="671.711" cy="478.305" r="1" fill="rgb(0,0,0)" />
	<circle cx="672.807" cy="262.14" r="1" fill="rgb(0,0,0)" />
	<circle cx="673.12" cy="274.358" r="1" fill="rgb(0,0,0)" />
	<circle cx="676.096" cy="188.205" r="1" fill="rgb(0,0,0)" />
	<circle cx="676.41" cy="476.895" r="1" fill="rgb(0,0,0)" />
	<circle cx="676.723" cy="518.249" r="1" fill="rgb(0,0,0)" />
	<circle cx="677.82" cy="207.472" r="1" fill="rgb(0,0,0)" />
	<circle cx="677.976" cy="470.943" r="1" fill="rgb(0,0,0)" />
	<circle cx="679.699" cy="209.508" r="1" fill="rgb(0,0,0)" />
	<circle cx="680.482" cy="192.121" r="1" fill="rgb(0,0,0)" />
	<circle cx="682.362" cy="474.076" r="1" fill="rgb(0,0,0)" />
	<circle cx="682.362" cy="472.509" r="1" fill="rgb(0,0,0)" />
	<circle cx="682.675" cy="237.547" r="1" fill="rgb(0,0,0)" />
	<circle cx="683.145" cy="238.33" r="1" fill="rgb(0,0,0)" />
	<circle cx="683.615" cy="243.656" r="1" fill="rgb(0,0,0)" />
	<circle cx="686.435" cy="313.205" r="1" fill="rgb(0,0,0)" />
	<circle cx="686.591" cy="474.859" r="1" fill="rgb(0,0,0)" />
	<circle cx="687.531" cy="383.694" r="1" fill="rgb(0,0,0)" />
	<circle cx="689.568" cy="240.367" r="1" fill="rgb(0,0,0)" />
	<circle cx="690.038" cy="476.269" r="1" fill="rgb(0,0,0)" />
	<circle cx="690.351" cy="272.478" r="1" fill="rgb(0,0,0)" />
	<circle cx="691.917" cy="275.298" r="1" fill="rgb(0,0,0)" />
	<circle cx="696.147" cy="485.197" r="1" fill="rgb(0,0,0)" />
	<circle cx="700.063" cy="153.587" r="1" fill="rgb(0,0,0)" />
	<circle cx="702.256" cy="368.186" r="1" fill="rgb(0,0,0)" />
	<circle cx="702.569" cy="481.438" r="1" fill="rgb(0,0,0)" />
	<circle cx="702.882" cy="37.2024" r="1" fill="rgb(0,0,0)" />
	<circle cx="703.822" cy="402.021" r="1" fill="rgb(0,0,0)" />
	<circle cx="704.449" cy="483.318" r="1" fill="rgb(0,0,0)" />
	<circle cx="704.449" cy="274.984" r="1" fill="rgb(0,0,0)" />
	<circle cx="704.449" cy="173.167" r="1" fill="rgb(0,0,0)" />
	<circle cx="704.919" cy="200.11" r="1" fill="rgb(0,0,0)" />
	<circle cx="705.545" cy="491.15" r="1" fill="rgb(0,0,0)" />
	<circle cx="706.015" cy="272.165" r="1" fill="rgb(0,0,0)" />
	<circle cx="709.305" cy="160.323" r="1" fill="rgb(0,0,0)" />
	<circle cx="709.618" cy="169.251" r="1" fill="rgb(0,0,0)" />
	<circle cx="710.401" cy="355.185" r="1" fill="rgb(0,0,0)" />
	<circle cx="710.714" cy="285.479" r="1" fill="rgb(0,0,0)" />
	<circle cx="711.341" cy="260.887" r="1" fill="rgb(0,0,0)" />
	<circle cx="712.751" cy="502.115" r="1" fill="rgb(0,0,0)" />
	<circle cx="715.257" cy="250.705" r="1" fill="rgb(0,0,0)" />
	<circle cx="715.727" cy="329.809" r="1" fill="rgb(0,0,0)" />
	<circle cx="717.92" cy="172.384" r="1" fill="rgb(0,0,0)" />
	<circle cx="719.956" cy="367.56" r="1" fill="rgb(0,0,0)" />
	<circle cx="722.149" cy="440.241" r="1" fill="rgb(0,0,0)" />
	<circle cx="724.969" cy="252.428" r="1" fill="rgb(0,0,0)" />
	<circle cx="730.138" cy="263.08" r="1" fill="rgb(0,0,0)" />
	<circle cx="730.764" cy="322.603" r="1" fill="rgb(0,0,0)" />
	<circle cx="731.078" cy="367.716" r="1" fill="rgb(0,0,0)" />
	<circle cx="731.078" cy="324.796" r="1" fill="rgb(0,0,0)" />
	<circle cx="734.054" cy="253.368" r="1" fill="rgb(0,0,0)" />
	<circle cx="734.68" cy="442.747" r="1" fill="rgb(0,0,0)" />
	<circle cx="736.404" cy="401.237" r="1" fill="rgb(0,0,0)" />
	<circle cx="737.343" cy="263.236" r="1" fill="rgb(0,0,0)" />
	<circle cx="737.813" cy="236.764" r="1" fill="rgb(0,0,0)" />
	<circle cx="739.38" cy="252.428" r="1" fill="rgb(0,0,0)" />
	<circle cx="739.536" cy="346.57" r="1" fill="rgb(0,0,0)" />
	<circle cx="740.163" cy="465.93" r="1" fill="rgb(0,0,0)" />
	<circle cx="742.199" cy="318.531" r="1" fill="rgb(0,0,0)" />
	<circle cx="743.139" cy="201.833" r="1" fill="rgb(0,0,0)" />
	<circle cx="744.392" cy="259.79" r="1" fill="rgb(0,0,0)" />
	<circle cx="744.862" cy="228.618" r="1" fill="rgb(0,0,0)" />
	<circle cx="746.742" cy="229.715" r="1" fill="rgb(0,0,0)" />
	<circle cx="746.742" cy="229.558" r="1" fill="rgb(0,0,0)" />
	<circle cx="747.525" cy="370.066" r="1" fill="rgb(0,0,0)" />
	<circle cx="748.152" cy="465.93" r="1" fill="rgb(0,0,0)" />
	<circle cx="748.308" cy="468.907" r="1" fill="rgb(0,0,0)" />
	<circle cx="748.935" cy="266.996" r="1" fill="rgb(0,0,0)" />
	<circle cx="749.718" cy="264.489" r="1" fill="rgb(0,0,0)" />
	<circle cx="750.501" cy="466.714" r="1" fill="rgb(0,0,0)" />
	<circle cx="750.971" cy="480.341" r="1" fill="rgb(0,0,0)" />
	<circle cx="756.454" cy="261.357" r="1" fill="rgb(0,0,0)" />
	<circle cx="758.647" cy="210.605" r="1" fill="rgb(0,0,0)" />
	<circle cx="758.803" cy="244.283" r="1" fill="rgb(0,0,0)" />
	<circle cx="761.936" cy="511.357" r="1" fill="rgb(0,0,0)" />
	<circle cx="762.093" cy="314.458" r="1" fill="rgb(0,0,0)" />
	<circle cx="763.346" cy="241.62" r="1" fill="rgb(0,0,0)" />
	<circle cx="765.069" cy="152.491" r="1" fill="rgb(0,0,0)" />
	<circle cx="769.768" cy="409.696" r="1" fill="rgb(0,0,0)" />
	<circle cx="770.395" cy="169.251" r="1" fill="rgb(0,0,0)" />
	<circle cx="770.708" cy="201.989" r="1" fill="rgb(0,0,0)" />
	<circle cx="771.648" cy="208.882" r="1" fill="rgb(0,0,0)" />
	<circle cx="774.154" cy="550.83" r="1" fill="rgb(0,0,0)" />
	<circle cx="774.154" cy="388.393" r="1" fill="rgb(0,0,0)" />
	<circle cx="774.467" cy="452.146" r="1" fill="rgb(0,0,0)" />
	<circle cx="774.937" cy="208.568" r="1" fill="rgb(0,0,0)" />
	<circle cx="776.19" cy="337.328" r="1" fill="rgb(0,0,0)" />
	<circle cx="779.48" cy="416.902" r="1" fill="rgb(0,0,0)" />
	<circle cx="779.637" cy="363.017" r="1" fill="rgb(0,0,0)" />
	<circle cx="780.733" cy="398.105" r="1" fill="rgb(0,0,0)" />
	<circle cx="781.36" cy="269.659" r="1" fill="rgb(0,0,0)" />
	<circle cx="782.456" cy="352.679" r="1" fill="rgb(0,0,0)" />
	<circle cx="785.276" cy="448.543" r="1" fill="rgb(0,0,0)" />
	<circle cx="792.325" cy="309.132" r="1" fill="rgb(0,0,0)" />
	<circle cx="793.108" cy="541.275" r="1" fill="rgb(0,0,0)" />
	<circle cx="794.204" cy="491.463" r="1" fill="rgb(0,0,0)" />
	<circle cx="800.783" cy="300.204" r="1" fill="rgb(0,0,0)" />
	<circle cx="802.036" cy="400.924" r="1" fill="rgb(0,0,0)" />
	<circle cx="803.759" cy="154.84" r="1" fill="rgb(0,0,0)" />
	<circle cx="809.242" cy="522.635" r="1" fill="rgb(0,0,0)" />
	<circle cx="809.398" cy="387.61" r="1" fill="rgb(0,0,0)" />
	<circle cx="816.134" cy="546.758" r="1" fill="rgb(0,0,0)" />
	<circle cx="817.387" cy="550.987" r="1" fill="rgb(0,0,0)" />
	<circle cx="818.64" cy="457.942" r="1" fill="rgb(0,0,0)" />
	<circle cx="818.954" cy="468.907" r="1" fill="rgb(0,0,0)" />
	<circle cx="819.893" cy="482.221" r="1" fill="rgb(0,0,0)" />
	<circle cx="822.243" cy="522.478" r="1" fill="rgb(0,0,0)" />
	<circle cx="829.919" cy="432.096" r="1" fill="rgb(0,0,0)" />
	<circle cx="835.558" cy="226.582" r="1" fill="rgb(0,0,0)" />
	<circle cx="836.184" cy="544.251" r="1" fill="rgb(0,0,0)" />
	<circle cx="836.654" cy="472.509" r="1" fill="rgb(0,0,0)" />
	<circle cx="842.137" cy="343.28" r="1" fill="rgb(0,0,0)" />
	<circle cx="842.137" cy="147.165" r="1" fill="rgb(0,0,0)" />
	<circle cx="844.799" cy="267.152" r="1" fill="rgb(0,0,0)" />
	<circle cx="845.269" cy="549.89" r="1" fill="rgb(0,0,0)" />
	<circle cx="850.439" cy="97.5094" r="1" fill="rgb(0,0,0)" />
	<circle cx="860.307" cy="317.904" r="1" fill="rgb(0,0,0)" />
	<circle cx="863.753" cy="393.719" r="1" fill="rgb(0,0,0)" />
	<circle cx="864.38" cy="435.542" r="1" fill="rgb(0,0,0)" />
	<circle cx="865.32" cy="383.85" r="1" fill="rgb(0,0,0)" />
	<circle cx="867.043" cy="387.923" r="1" fill="rgb(0,0,0)" />
	<circle cx="871.742" cy="373.199" r="1" fill="rgb(0,0,0)" />
	<circle cx="873.622" cy="417.685" r="1" fill="rgb(0,0,0)" />
	<circle cx="877.694" cy="459.352" r="1" fill="rgb(0,0,0)" />
	<circle cx="880.827" cy="362.86" r="1" fill="rgb(0,0,0)" />
	<circle cx="883.02" cy="391.526" r="1" fill="rgb(0,0,0)" />
	<circle cx="883.177" cy="133.694" r="1" fill="rgb(0,0,0)" />
	<circle cx="883.647" cy="181.156" r="1" fill="rgb(0,0,0)" />
	<circle cx="892.262" cy="320.41" r="1" fill="rgb(0,0,0)" />
	<circle cx="893.515" cy="372.729" r="1" fill="rgb(0,0,0)" />
	<circle cx="894.142" cy="376.645" r="1" fill="rgb(0,0,0)" />
	<circle cx="898.371" cy="391.839" r="1" fill="rgb(0,0,0)" />
	<circle cx="907.299" cy="293.468" r="1" fill="rgb(0,0,0)" />
	<circle cx="909.962" cy="536.889" r="1" fill="rgb(0,0,0)" />
	<circle cx="910.746" cy="374.608" r="1" fill="rgb(0,0,0)" />
	<circle cx="916.228" cy="542.841" r="1" fill="rgb(0,0,0)" />
	<circle cx="917.638" cy="526.237" r="1" fill="rgb(0,0,0)" />
	<circle cx="923.747" cy="533.913" r="1" fill="rgb(0,0,0)" />
	<circle cx="923.747" cy="484.884" r="1" fill="rgb(0,0,0)" />
	<circle cx="929.229" cy="518.562" r="1" fill="rgb(0,0,0)" />
	<circle cx="932.049" cy="130.717" r="1" fill="rgb(0,0,0)" />
	<circle cx="933.929" cy="563.205" r="1" fill="rgb(0,0,0)" />
	<circle cx="935.182" cy="170.191" r="1" fill="rgb(0,0,0)" />
	<circle cx="936.435" cy="543.938" r="1" fill="rgb(0,0,0)" />
	<circle cx="940.821" cy="539.082" r="1" fill="rgb(0,0,0)" />
	<circle cx="943.64" cy="472.353" r="1" fill="rgb(0,0,0)" />
	<circle cx="944.11" cy="499.922" r="1" fill="rgb(0,0,0)" />
	<circle cx="947.87" cy="497.102" r="1" fill="rgb(0,0,0)" />
	<circle cx="949.123" cy="548.324" r="1" fill="rgb(0,0,0)" />
	<circle cx="952.569" cy="35.636" r="1" fill="rgb(0,0,0)" />
	<circle cx="952.882" cy="536.106" r="1" fill="rgb(0,0,0)" />
	<circle cx="953.665" cy="42.5282" r="1" fill="rgb(0,0,0)" />
	<circle cx="957.425" cy="278.43" r="1" fill="rgb(0,0,0)" />
	<circle cx="959.148" cy="574.953" r="1" fill="rgb(0,0,0)" />
	<circle cx="959.461" cy="133.537" r="1" fill="rgb(0,0,0)" />
	<circle cx="963.377" cy="556.469" r="1" fill="rgb(0,0,0)" />
	<circle cx="964.474" cy="529.84" r="1" fill="rgb(0,0,0)" />
	<circle cx="967.45" cy="31.7199" r="1" fill="rgb(0,0,0)" />
	<circle cx="969.643" cy="493.499" r="1" fill="rgb(0,0,0)" />
	<circle cx="970.739" cy="477.992" r="1" fill="rgb(0,0,0)" />
	<circle cx="974.655" cy="507.284" r="1" fill="rgb(0,0,0)" />
	<circle cx="977.632" cy="36.5758" r="1" fill="rgb(0,0,0)" />
	<circle cx="977.945" cy="587.171" r="1" fill="rgb(0,0,0)" />
	<circle cx="980.138" cy="30.9367" r="1" fill="rgb(0,0,0)" />
	<circle cx="981.861" cy="480.185" r="1" fill="rgb(0,0,0)" />
	<circle cx="989.693" cy="37.6723" r="1" fill="rgb(0,0,0)" />
	<circle cx="992.826" cy="138.08" r="1" fill="rgb(0,0,0)" />
	<circle cx="993.139" cy="534.07" r="1" fill="rgb(0,0,0)" />
	<circle cx="993.766" cy="550.517" r="1" fill="rgb(0,0,0)" />
	<circle cx="996.585" cy="252.115" r="1" fill="rgb(0,0,0)" />
	<circle cx="997.525" cy="36.7325" r="1" fill="rgb(0,0,0)" />
	<circle cx="998.778" cy="253.211" r="1" fill="rgb(0,0,0)" />
	<circle cx="1000.5" cy="549.577" r="1" fill="rgb(0,0,0)" />
	<circle cx="1002.22" cy="349.076" r="1" fill="rgb(0,0,0)" />
	<circle cx="1002.69" cy="566.964" r="1" fill="rgb(0,0,0)" />
	<circle cx="1003.63" cy="479.402" r="1" fill="rgb(0,0,0)" />
	<circle cx="1008.18" cy="549.734" r="1" fill="rgb(0,0,0)" />
	<circle cx="1009.27" cy="32.0332" r="1" fill="rgb(0,0,0)" />
	<circle cx="1009.74" cy="568.531" r="1" fill="rgb(0,0,0)" />
	<circle cx="1010.21" cy="209.821" r="1" fill="rgb(0,0,0)" />
	<circle cx="1016.48" cy="570.88" r="1" fill="rgb(0,0,0)" />
	<circle cx="1018.36" cy="227.522" r="1" fill="rgb(0,0,0)" />
	<circle cx="1020.39" cy="254.621" r="1" fill="rgb(0,0,0)" />
	<circle cx="1020.55" cy="542.841" r="1" fill="rgb(0,0,0)" />
	<circle cx="1022.59" cy="504.464" r="1" fill="rgb(0,0,0)" />
	<circle cx="1029.32" cy="501.801" r="1" fill="rgb(0,0,0)" />
	<circle cx="1030.42" cy="558.192" r="1" fill="rgb(0,0,0)" />
	<circle cx="1030.73" cy="577.616" r="1" fill="rgb(0,0,0)" />
	<circle cx="1034.96" cy="544.251" r="1" fill="rgb(0,0,0)" />
	<circle cx="1046.4" cy="496.632" r="1" fill="rgb(0,0,0)" />
	<circle cx="1050" cy="502.898" r="1" fill="rgb(0,0,0)" />
</svg>
