<?xml version="1.0" standalone="no" ?>
<!DOCTYPE svg PUBLIC "-//W3C//DTD SVG 1.1//EN" "http://www.w3.org/Graphics/SVG/1.1/DTD/svg11.dtd">
<svg width="1100px" height="543.045px" xmlns="http://www.w3.org/2000/svg" version="1.1" >
	<circle cx="50" cy="55.5171" r="1" fill="rgb(0,0,0)" />
	<circle cx="110.107" cy="502.945" r="1" fill="rgb(0,0,0)" />
	<circle cx="249.55" cy="468.474" r="1" fill="rgb(0,0,0)" />
	<circle cx="306.539" cy="518.361" r="1" fill="rgb(0,0,0)" />
	<circle cx="361.103" cy="133.466" r="1" fill="rgb(0,0,0)" />
	<circle cx="373.922" cy="514.377" r="1" fill="rgb(0,0,0)" />
	<circle cx="378.599" cy="123.593" r="1" fill="rgb(0,0,0)" />
	<circle cx="395.574" cy="230.123" r="1" fill="rgb(0,0,0)" />
	<circle cx="397.653" cy="121.341" r="1" fill="rgb(0,0,0)" />
	<circle cx="410.471" cy="330.591" r="1" fill="rgb(0,0,0)" />
	<circle cx="424.502" cy="265.113" r="1" fill="rgb(0,0,0)" />
	<circle cx="531.379" cy="190.109" r="1" fill="rgb(0,0,0)" />
	<circle cx="551.646" cy="295.081" r="1" fill="rgb(0,0,0)" />
	<circle cx="556.842" cy="174.519" r="1" fill="rgb(0,0,0)" />
	<circle cx="569.487" cy="54.3045" r="1" fill="rgb(0,0,0)" />
	<circle cx="586.809" cy="91.2004" r="1" fill="rgb(0,0,0)" />
	<circle cx="589.581" cy="136.757" r="1" fill="rgb(0,0,0)" />
	<circle cx="606.037" cy="483.371" r="1" fill="rgb(0,0,0)" />
	<circle cx="619.201" cy="332.669" r="1" fill="rgb(0,0,0)" />
	<circle cx="624.052" cy="384.462" r="1" fill="rgb(0,0,0)" />
	<circle cx="689.875" cy="53.2652" r="1" fill="rgb(0,0,0)" />
	<circle cx="705.812" cy="178.503" r="1" fill="rgb(0,0,0)" />
	<circle cx="709.796" cy="205.699" r="1" fill="rgb(0,0,0)" />
	<circle cx="713.953" cy="242.248" r="1" fill="rgb(0,0,0)" />
	<circle cx="740.456" cy="254.027" r="1" fill="rgb(0,0,0)" />
	<circle cx="845.081" cy="212.974" r="1" fill="rgb(0,0,0)" />
	<circle cx="875.394" cy="474.017" r="1" fill="rgb(0,0,0)" />
	<circle cx="947.28" cy="188.897" r="1" fill="rgb(0,0,0)" />
	<circle cx="996.302" cy="463.451" r="1" fill="rgb(0,0,0)" />
	<circle cx="1050" cy="24.6839" r="1" fill="rgb(0,0,0)" />
</svg>
