<?xml version="1.0" standalone="no" ?>
<!DOCTYPE svg PUBLIC "-//W3C//DTD SVG 1.1//EN" "http://www.w3.org/Graphics/SVG/1.1/DTD/svg11.dtd">
<svg width="1100px" height="635.921px" xmlns="http://www.w3.org/2000/svg" version="1.1" >
	<circle cx="50" cy="491.718" r="1" fill="rgb(0,0,0)" />
	<circle cx="68.3501" cy="502.436" r="1" fill="rgb(0,0,0)" />
	<circle cx="68.6749" cy="541.085" r="1" fill="rgb(0,0,0)" />
	<circle cx="81.0166" cy="486.034" r="1" fill="rgb(0,0,0)" />
	<circle cx="83.29" cy="187.886" r="1" fill="rgb(0,0,0)" />
	<circle cx="103.914" cy="543.521" r="1" fill="rgb(0,0,0)" />
	<circle cx="105.375" cy="186.262" r="1" fill="rgb(0,0,0)" />
	<circle cx="112.196" cy="191.945" r="1" fill="rgb(0,0,0)" />
	<circle cx="118.042" cy="455.343" r="1" fill="rgb(0,0,0)" />
	<circle cx="150.195" cy="189.022" r="1" fill="rgb(0,0,0)" />
	<circle cx="165.784" cy="514.778" r="1" fill="rgb(0,0,0)" />
	<circle cx="169.032" cy="493.18" r="1" fill="rgb(0,0,0)" />
	<circle cx="176.015" cy="427.087" r="1" fill="rgb(0,0,0)" />
	<circle cx="179.75" cy="322.507" r="1" fill="rgb(0,0,0)" />
	<circle cx="186.408" cy="481.325" r="1" fill="rgb(0,0,0)" />
	<circle cx="187.545" cy="191.133" r="1" fill="rgb(0,0,0)" />
	<circle cx="195.339" cy="240.013" r="1" fill="rgb(0,0,0)" />
	<circle cx="198.425" cy="590.451" r="1" fill="rgb(0,0,0)" />
	<circle cx="201.023" cy="226.047" r="1" fill="rgb(0,0,0)" />
	<circle cx="201.673" cy="451.608" r="1" fill="rgb(0,0,0)" />
	<circle cx="201.673" cy="435.856" r="1" fill="rgb(0,0,0)" />
	<circle cx="202.647" cy="231.244" r="1" fill="rgb(0,0,0)" />
	<circle cx="207.194" cy="186.099" r="1" fill="rgb(0,0,0)" />
	<circle cx="207.519" cy="186.099" r="1" fill="rgb(0,0,0)" />
	<circle cx="208.98" cy="217.928" r="1" fill="rgb(0,0,0)" />
	<circle cx="208.98" cy="210.133" r="1" fill="rgb(0,0,0)" />
	<circle cx="211.091" cy="511.367" r="1" fill="rgb(0,0,0)" />
	<circle cx="211.578" cy="304.157" r="1" fill="rgb(0,0,0)" />
	<circle cx="221.484" cy="136.408" r="1" fill="rgb(0,0,0)" />
	<circle cx="228.629" cy="563.982" r="1" fill="rgb(0,0,0)" />
	<circle cx="229.441" cy="224.261" r="1" fill="rgb(0,0,0)" />
	<circle cx="230.578" cy="186.911" r="1" fill="rgb(0,0,0)" />
	<circle cx="233.014" cy="196.98" r="1" fill="rgb(0,0,0)" />
	<circle cx="249.253" cy="176.843" r="1" fill="rgb(0,0,0)" />
	<circle cx="257.697" cy="230.919" r="1" fill="rgb(0,0,0)" />
	<circle cx="267.278" cy="336.96" r="1" fill="rgb(0,0,0)" />
	<circle cx="268.577" cy="233.355" r="1" fill="rgb(0,0,0)" />
	<circle cx="269.877" cy="477.265" r="1" fill="rgb(0,0,0)" />
	<circle cx="286.765" cy="298.311" r="1" fill="rgb(0,0,0)" />
	<circle cx="286.765" cy="222.475" r="1" fill="rgb(0,0,0)" />
	<circle cx="289.688" cy="484.735" r="1" fill="rgb(0,0,0)" />
	<circle cx="292.774" cy="368.301" r="1" fill="rgb(0,0,0)" />
	<circle cx="296.346" cy="198.279" r="1" fill="rgb(0,0,0)" />
	<circle cx="309.5" cy="277.525" r="1" fill="rgb(0,0,0)" />
	<circle cx="313.722" cy="299.448" r="1" fill="rgb(0,0,0)" />
	<circle cx="315.021" cy="284.67" r="1" fill="rgb(0,0,0)" />
	<circle cx="315.671" cy="471.744" r="1" fill="rgb(0,0,0)" />
	<circle cx="320.055" cy="299.448" r="1" fill="rgb(0,0,0)" />
	<circle cx="320.867" cy="339.071" r="1" fill="rgb(0,0,0)" />
	<circle cx="325.252" cy="248.62" r="1" fill="rgb(0,0,0)" />
	<circle cx="329.636" cy="257.226" r="1" fill="rgb(0,0,0)" />
	<circle cx="330.448" cy="361.156" r="1" fill="rgb(0,0,0)" />
	<circle cx="332.072" cy="265.671" r="1" fill="rgb(0,0,0)" />
	<circle cx="336.619" cy="259.175" r="1" fill="rgb(0,0,0)" />
	<circle cx="337.106" cy="340.533" r="1" fill="rgb(0,0,0)" />
	<circle cx="344.901" cy="595.973" r="1" fill="rgb(0,0,0)" />
	<circle cx="352.371" cy="239.688" r="1" fill="rgb(0,0,0)" />
	<circle cx="360.653" cy="422.865" r="1" fill="rgb(0,0,0)" />
	<circle cx="360.815" cy="290.354" r="1" fill="rgb(0,0,0)" />
	<circle cx="366.661" cy="220.039" r="1" fill="rgb(0,0,0)" />
	<circle cx="370.396" cy="599.87" r="1" fill="rgb(0,0,0)" />
	<circle cx="377.541" cy="418.318" r="1" fill="rgb(0,0,0)" />
	<circle cx="378.841" cy="218.902" r="1" fill="rgb(0,0,0)" />
	<circle cx="379.815" cy="273.953" r="1" fill="rgb(0,0,0)" />
	<circle cx="381.926" cy="222.8" r="1" fill="rgb(0,0,0)" />
	<circle cx="390.533" cy="349.951" r="1" fill="rgb(0,0,0)" />
	<circle cx="395.08" cy="347.353" r="1" fill="rgb(0,0,0)" />
	<circle cx="396.216" cy="206.561" r="1" fill="rgb(0,0,0)" />
	<circle cx="396.541" cy="270.218" r="1" fill="rgb(0,0,0)" />
	<circle cx="397.353" cy="229.458" r="1" fill="rgb(0,0,0)" />
	<circle cx="404.173" cy="312.601" r="1" fill="rgb(0,0,0)" />
	<circle cx="411.806" cy="295.226" r="1" fill="rgb(0,0,0)" />
	<circle cx="422.361" cy="232.868" r="1" fill="rgb(0,0,0)" />
	<circle cx="422.524" cy="420.753" r="1" fill="rgb(0,0,0)" />
	<circle cx="425.934" cy="242.611" r="1" fill="rgb(0,0,0)" />
	<circle cx="427.558" cy="325.106" r="1" fill="rgb(0,0,0)" />
	<circle cx="434.54" cy="283.858" r="1" fill="rgb(0,0,0)" />
	<circle cx="438.925" cy="317.96" r="1" fill="rgb(0,0,0)" />
	<circle cx="441.198" cy="216.142" r="1" fill="rgb(0,0,0)" />
	<circle cx="444.771" cy="325.755" r="1" fill="rgb(0,0,0)" />
	<circle cx="448.831" cy="280.935" r="1" fill="rgb(0,0,0)" />
	<circle cx="450.779" cy="398.181" r="1" fill="rgb(0,0,0)" />
	<circle cx="467.506" cy="285.969" r="1" fill="rgb(0,0,0)" />
	<circle cx="469.942" cy="370.737" r="1" fill="rgb(0,0,0)" />
	<circle cx="472.865" cy="460.214" r="1" fill="rgb(0,0,0)" />
	<circle cx="483.907" cy="378.045" r="1" fill="rgb(0,0,0)" />
	<circle cx="484.07" cy="240.5" r="1" fill="rgb(0,0,0)" />
	<circle cx="486.993" cy="473.693" r="1" fill="rgb(0,0,0)" />
	<circle cx="490.565" cy="377.558" r="1" fill="rgb(0,0,0)" />
	<circle cx="490.728" cy="378.694" r="1" fill="rgb(0,0,0)" />
	<circle cx="494.787" cy="42.8711" r="1" fill="rgb(0,0,0)" />
	<circle cx="494.95" cy="163.04" r="1" fill="rgb(0,0,0)" />
	<circle cx="495.274" cy="44.495" r="1" fill="rgb(0,0,0)" />
	<circle cx="499.172" cy="237.252" r="1" fill="rgb(0,0,0)" />
	<circle cx="499.659" cy="373.985" r="1" fill="rgb(0,0,0)" />
	<circle cx="501.283" cy="98.571" r="1" fill="rgb(0,0,0)" />
	<circle cx="505.992" cy="163.04" r="1" fill="rgb(0,0,0)" />
	<circle cx="507.778" cy="314.063" r="1" fill="rgb(0,0,0)" />
	<circle cx="508.915" cy="179.441" r="1" fill="rgb(0,0,0)" />
	<circle cx="510.052" cy="209.646" r="1" fill="rgb(0,0,0)" />
	<circle cx="511.513" cy="391.523" r="1" fill="rgb(0,0,0)" />
	<circle cx="513.462" cy="395.908" r="1" fill="rgb(0,0,0)" />
	<circle cx="513.625" cy="263.397" r="1" fill="rgb(0,0,0)" />
	<circle cx="514.599" cy="607.015" r="1" fill="rgb(0,0,0)" />
	<circle cx="516.71" cy="415.07" r="1" fill="rgb(0,0,0)" />
	<circle cx="519.308" cy="425.138" r="1" fill="rgb(0,0,0)" />
	<circle cx="522.069" cy="417.343" r="1" fill="rgb(0,0,0)" />
	<circle cx="525.154" cy="311.627" r="1" fill="rgb(0,0,0)" />
	<circle cx="532.787" cy="385.352" r="1" fill="rgb(0,0,0)" />
	<circle cx="534.573" cy="184.8" r="1" fill="rgb(0,0,0)" />
	<circle cx="536.684" cy="396.07" r="1" fill="rgb(0,0,0)" />
	<circle cx="538.146" cy="307.892" r="1" fill="rgb(0,0,0)" />
	<circle cx="539.12" cy="432.933" r="1" fill="rgb(0,0,0)" />
	<circle cx="543.342" cy="244.885" r="1" fill="rgb(0,0,0)" />
	<circle cx="543.992" cy="269.081" r="1" fill="rgb(0,0,0)" />
	<circle cx="550.974" cy="388.275" r="1" fill="rgb(0,0,0)" />
	<circle cx="552.111" cy="381.942" r="1" fill="rgb(0,0,0)" />
	<circle cx="560.393" cy="229.945" r="1" fill="rgb(0,0,0)" />
	<circle cx="562.179" cy="466.548" r="1" fill="rgb(0,0,0)" />
	<circle cx="579.717" cy="463.137" r="1" fill="rgb(0,0,0)" />
	<circle cx="581.179" cy="206.236" r="1" fill="rgb(0,0,0)" />
	<circle cx="581.179" cy="28.9055" r="1" fill="rgb(0,0,0)" />
	<circle cx="582.64" cy="428.061" r="1" fill="rgb(0,0,0)" />
	<circle cx="587.025" cy="460.539" r="1" fill="rgb(0,0,0)" />
	<circle cx="589.298" cy="40.5976" r="1" fill="rgb(0,0,0)" />
	<circle cx="598.392" cy="75.8363" r="1" fill="rgb(0,0,0)" />
	<circle cx="605.7" cy="202.014" r="1" fill="rgb(0,0,0)" />
	<circle cx="609.597" cy="488.47" r="1" fill="rgb(0,0,0)" />
	<circle cx="630.058" cy="592.238" r="1" fill="rgb(0,0,0)" />
	<circle cx="630.546" cy="311.627" r="1" fill="rgb(0,0,0)" />
	<circle cx="637.691" cy="339.071" r="1" fill="rgb(0,0,0)" />
	<circle cx="638.665" cy="416.369" r="1" fill="rgb(0,0,0)" />
	<circle cx="640.614" cy="503.248" r="1" fill="rgb(0,0,0)" />
	<circle cx="642.238" cy="63.657" r="1" fill="rgb(0,0,0)" />
	<circle cx="643.374" cy="378.207" r="1" fill="rgb(0,0,0)" />
	<circle cx="651.494" cy="552.939" r="1" fill="rgb(0,0,0)" />
	<circle cx="654.579" cy="322.507" r="1" fill="rgb(0,0,0)" />
	<circle cx="655.391" cy="374.959" r="1" fill="rgb(0,0,0)" />
	<circle cx="656.366" cy="375.609" r="1" fill="rgb(0,0,0)" />
	<circle cx="661.237" cy="321.046" r="1" fill="rgb(0,0,0)" />
	<circle cx="666.109" cy="33.7772" r="1" fill="rgb(0,0,0)" />
	<circle cx="668.383" cy="177.817" r="1" fill="rgb(0,0,0)" />
	<circle cx="673.904" cy="488.957" r="1" fill="rgb(0,0,0)" />
	<circle cx="675.853" cy="306.268" r="1" fill="rgb(0,0,0)" />
	<circle cx="685.758" cy="369.925" r="1" fill="rgb(0,0,0)" />
	<circle cx="694.69" cy="222.475" r="1" fill="rgb(0,0,0)" />
	<circle cx="695.339" cy="227.347" r="1" fill="rgb(0,0,0)" />
	<circle cx="700.049" cy="37.5122" r="1" fill="rgb(0,0,0)" />
	<circle cx="706.544" cy="302.046" r="1" fill="rgb(0,0,0)" />
	<circle cx="737.399" cy="319.747" r="1" fill="rgb(0,0,0)" />
	<circle cx="742.108" cy="273.465" r="1" fill="rgb(0,0,0)" />
	<circle cx="745.843" cy="234.979" r="1" fill="rgb(0,0,0)" />
	<circle cx="747.142" cy="333.063" r="1" fill="rgb(0,0,0)" />
	<circle cx="750.715" cy="265.995" r="1" fill="rgb(0,0,0)" />
	<circle cx="755.424" cy="180.578" r="1" fill="rgb(0,0,0)" />
	<circle cx="758.184" cy="178.792" r="1" fill="rgb(0,0,0)" />
	<circle cx="763.706" cy="419.13" r="1" fill="rgb(0,0,0)" />
	<circle cx="766.791" cy="310.653" r="1" fill="rgb(0,0,0)" />
	<circle cx="772.637" cy="399.48" r="1" fill="rgb(0,0,0)" />
	<circle cx="773.449" cy="388.6" r="1" fill="rgb(0,0,0)" />
	<circle cx="775.885" cy="377.558" r="1" fill="rgb(0,0,0)" />
	<circle cx="783.68" cy="362.943" r="1" fill="rgb(0,0,0)" />
	<circle cx="787.09" cy="192.27" r="1" fill="rgb(0,0,0)" />
	<circle cx="797.483" cy="319.909" r="1" fill="rgb(0,0,0)" />
	<circle cx="810.474" cy="557.649" r="1" fill="rgb(0,0,0)" />
	<circle cx="815.021" cy="525.495" r="1" fill="rgb(0,0,0)" />
	<circle cx="839.38" cy="314.875" r="1" fill="rgb(0,0,0)" />
	<circle cx="845.388" cy="96.7847" r="1" fill="rgb(0,0,0)" />
	<circle cx="851.397" cy="487.171" r="1" fill="rgb(0,0,0)" />
	<circle cx="867.96" cy="428.061" r="1" fill="rgb(0,0,0)" />
	<circle cx="872.02" cy="412.959" r="1" fill="rgb(0,0,0)" />
	<circle cx="878.353" cy="40.4352" r="1" fill="rgb(0,0,0)" />
	<circle cx="882.088" cy="452.095" r="1" fill="rgb(0,0,0)" />
	<circle cx="885.499" cy="318.61" r="1" fill="rgb(0,0,0)" />
	<circle cx="894.105" cy="391.523" r="1" fill="rgb(0,0,0)" />
	<circle cx="895.729" cy="461.838" r="1" fill="rgb(0,0,0)" />
	<circle cx="898.815" cy="515.102" r="1" fill="rgb(0,0,0)" />
	<circle cx="902.55" cy="311.79" r="1" fill="rgb(0,0,0)" />
	<circle cx="922.686" cy="411.822" r="1" fill="rgb(0,0,0)" />
	<circle cx="927.72" cy="408.412" r="1" fill="rgb(0,0,0)" />
	<circle cx="928.694" cy="451.932" r="1" fill="rgb(0,0,0)" />
	<circle cx="930.643" cy="364.404" r="1" fill="rgb(0,0,0)" />
	<circle cx="935.19" cy="581.52" r="1" fill="rgb(0,0,0)" />
	<circle cx="940.224" cy="439.428" r="1" fill="rgb(0,0,0)" />
	<circle cx="945.745" cy="503.248" r="1" fill="rgb(0,0,0)" />
	<circle cx="950.13" cy="562.845" r="1" fill="rgb(0,0,0)" />
	<circle cx="970.591" cy="488.146" r="1" fill="rgb(0,0,0)" />
	<circle cx="974.976" cy="216.304" r="1" fill="rgb(0,0,0)" />
	<circle cx="990.728" cy="493.342" r="1" fill="rgb(0,0,0)" />
	<circle cx="1001.93" cy="255.602" r="1" fill="rgb(0,0,0)" />
	<circle cx="1004.21" cy="357.259" r="1" fill="rgb(0,0,0)" />
	<circle cx="1004.21" cy="259.662" r="1" fill="rgb(0,0,0)" />
	<circle cx="1005.18" cy="566.418" r="1" fill="rgb(0,0,0)" />
	<circle cx="1005.34" cy="596.785" r="1" fill="rgb(0,0,0)" />
	<circle cx="1007.29" cy="588.34" r="1" fill="rgb(0,0,0)" />
	<circle cx="1011.19" cy="35.0763" r="1" fill="rgb(0,0,0)" />
	<circle cx="1027.27" cy="480.513" r="1" fill="rgb(0,0,0)" />
	<circle cx="1048.05" cy="345.729" r="1" fill="rgb(0,0,0)" />
	<circle cx="1049.51" cy="518.35" r="1" fill="rgb(0,0,0)" />
	<circle cx="1050" cy="469.308" r="1" fill="rgb(0,0,0)" />
</svg>
