<?xml version="1.0" standalone="no" ?>
<!DOCTYPE svg PUBLIC "-//W3C//DTD SVG 1.1//EN" "http://www.w3.org/Graphics/SVG/1.1/DTD/svg11.dtd">
<svg width="1100px" height="575.654px" xmlns="http://www.w3.org/2000/svg" version="1.1" >
	<circle cx="50" cy="541.714" r="1" fill="rgb(0,0,0)" />
	<circle cx="52.8269" cy="500.548" r="1" fill="rgb(0,0,0)" />
	<circle cx="119.611" cy="177.933" r="1" fill="rgb(0,0,0)" />
	<circle cx="203.004" cy="85.3534" r="1" fill="rgb(0,0,0)" />
	<circle cx="249.293" cy="371.396" r="1" fill="rgb(0,0,0)" />
	<circle cx="250.707" cy="433.763" r="1" fill="rgb(0,0,0)" />
	<circle cx="264.311" cy="159.205" r="1" fill="rgb(0,0,0)" />
	<circle cx="275.618" cy="539.947" r="1" fill="rgb(0,0,0)" />
	<circle cx="303.71" cy="237.297" r="1" fill="rgb(0,0,0)" />
	<circle cx="365.548" cy="253.728" r="1" fill="rgb(0,0,0)" />
	<circle cx="395.23" cy="222.279" r="1" fill="rgb(0,0,0)" />
	<circle cx="396.996" cy="302.314" r="1" fill="rgb(0,0,0)" />
	<circle cx="404.417" cy="214.859" r="1" fill="rgb(0,0,0)" />
	<circle cx="413.958" cy="422.102" r="1" fill="rgb(0,0,0)" />
	<circle cx="414.134" cy="437.297" r="1" fill="rgb(0,0,0)" />
	<circle cx="433.746" cy="26.1661" r="1" fill="rgb(0,0,0)" />
	<circle cx="435.689" cy="236.237" r="1" fill="rgb(0,0,0)" />
	<circle cx="472.792" cy="285.177" r="1" fill="rgb(0,0,0)" />
	<circle cx="508.481" cy="376.873" r="1" fill="rgb(0,0,0)" />
	<circle cx="509.717" cy="265.742" r="1" fill="rgb(0,0,0)" />
	<circle cx="541.343" cy="381.113" r="1" fill="rgb(0,0,0)" />
	<circle cx="544.17" cy="376.343" r="1" fill="rgb(0,0,0)" />
	<circle cx="613.074" cy="368.569" r="1" fill="rgb(0,0,0)" />
	<circle cx="636.749" cy="250.194" r="1" fill="rgb(0,0,0)" />
	<circle cx="716.961" cy="293.481" r="1" fill="rgb(0,0,0)" />
	<circle cx="730.035" cy="182.703" r="1" fill="rgb(0,0,0)" />
	<circle cx="745.76" cy="238.71" r="1" fill="rgb(0,0,0)" />
	<circle cx="778.092" cy="258.322" r="1" fill="rgb(0,0,0)" />
	<circle cx="793.64" cy="229.7" r="1" fill="rgb(0,0,0)" />
	<circle cx="801.767" cy="394.894" r="1" fill="rgb(0,0,0)" />
	<circle cx="808.127" cy="200.194" r="1" fill="rgb(0,0,0)" />
	<circle cx="925.088" cy="498.781" r="1" fill="rgb(0,0,0)" />
	<circle cx="1016.61" cy="338.004" r="1" fill="rgb(0,0,0)" />
	<circle cx="1033.04" cy="498.074" r="1" fill="rgb(0,0,0)" />
	<circle cx="1050" cy="549.488" r="1" fill="rgb(0,0,0)" />
</svg>
