<?xml version="1.0" standalone="no" ?>
<!DOCTYPE svg PUBLIC "-//W3C//DTD SVG 1.1//EN" "http://www.w3.org/Graphics/SVG/1.1/DTD/svg11.dtd">
<svg width="1100px" height="585.9px" xmlns="http://www.w3.org/2000/svg" version="1.1" >
	<circle cx="50" cy="437.725" r="1" fill="rgb(0,0,0)" />
	<circle cx="86.8167" cy="130.008" r="1" fill="rgb(0,0,0)" />
	<circle cx="94.6945" cy="559.268" r="1" fill="rgb(0,0,0)" />
	<circle cx="107.717" cy="155.732" r="1" fill="rgb(0,0,0)" />
	<circle cx="179.421" cy="305.892" r="1" fill="rgb(0,0,0)" />
	<circle cx="191.318" cy="69.5579" r="1" fill="rgb(0,0,0)" />
	<circle cx="194.051" cy="491.101" r="1" fill="rgb(0,0,0)" />
	<circle cx="194.855" cy="411.68" r="1" fill="rgb(0,0,0)" />
	<circle cx="210.611" cy="76.7926" r="1" fill="rgb(0,0,0)" />
	<circle cx="219.775" cy="557.5" r="1" fill="rgb(0,0,0)" />
	<circle cx="220.579" cy="225.506" r="1" fill="rgb(0,0,0)" />
	<circle cx="237.299" cy="454.445" r="1" fill="rgb(0,0,0)" />
	<circle cx="270.579" cy="215.378" r="1" fill="rgb(0,0,0)" />
	<circle cx="299.196" cy="433.867" r="1" fill="rgb(0,0,0)" />
	<circle cx="299.196" cy="316.182" r="1" fill="rgb(0,0,0)" />
	<circle cx="318.489" cy="444.317" r="1" fill="rgb(0,0,0)" />
	<circle cx="321.383" cy="343.513" r="1" fill="rgb(0,0,0)" />
	<circle cx="331.35" cy="415.86" r="1" fill="rgb(0,0,0)" />
	<circle cx="357.235" cy="234.188" r="1" fill="rgb(0,0,0)" />
	<circle cx="372.026" cy="216.986" r="1" fill="rgb(0,0,0)" />
	<circle cx="379.1" cy="323.095" r="1" fill="rgb(0,0,0)" />
	<circle cx="386.656" cy="208.947" r="1" fill="rgb(0,0,0)" />
	<circle cx="421.704" cy="239.976" r="1" fill="rgb(0,0,0)" />
	<circle cx="423.151" cy="350.748" r="1" fill="rgb(0,0,0)" />
	<circle cx="426.527" cy="223.577" r="1" fill="rgb(0,0,0)" />
	<circle cx="429.582" cy="407.661" r="1" fill="rgb(0,0,0)" />
	<circle cx="431.994" cy="197.211" r="1" fill="rgb(0,0,0)" />
	<circle cx="445.177" cy="382.902" r="1" fill="rgb(0,0,0)" />
	<circle cx="467.846" cy="490.137" r="1" fill="rgb(0,0,0)" />
	<circle cx="477.814" cy="383.706" r="1" fill="rgb(0,0,0)" />
	<circle cx="505.466" cy="364.574" r="1" fill="rgb(0,0,0)" />
	<circle cx="511.093" cy="26.6318" r="1" fill="rgb(0,0,0)" />
	<circle cx="511.736" cy="271.648" r="1" fill="rgb(0,0,0)" />
	<circle cx="532.637" cy="399.14" r="1" fill="rgb(0,0,0)" />
	<circle cx="556.752" cy="219.558" r="1" fill="rgb(0,0,0)" />
	<circle cx="576.045" cy="455.732" r="1" fill="rgb(0,0,0)" />
	<circle cx="612.54" cy="170.844" r="1" fill="rgb(0,0,0)" />
	<circle cx="630.386" cy="221.809" r="1" fill="rgb(0,0,0)" />
	<circle cx="635.048" cy="535.153" r="1" fill="rgb(0,0,0)" />
	<circle cx="667.846" cy="327.114" r="1" fill="rgb(0,0,0)" />
	<circle cx="694.855" cy="478.722" r="1" fill="rgb(0,0,0)" />
	<circle cx="697.588" cy="28.8826" r="1" fill="rgb(0,0,0)" />
	<circle cx="710.289" cy="148.336" r="1" fill="rgb(0,0,0)" />
	<circle cx="719.614" cy="311.359" r="1" fill="rgb(0,0,0)" />
	<circle cx="757.878" cy="204.285" r="1" fill="rgb(0,0,0)" />
	<circle cx="772.99" cy="427.757" r="1" fill="rgb(0,0,0)" />
	<circle cx="789.389" cy="530.973" r="1" fill="rgb(0,0,0)" />
	<circle cx="826.045" cy="540.619" r="1" fill="rgb(0,0,0)" />
	<circle cx="1005.47" cy="332.741" r="1" fill="rgb(0,0,0)" />
	<circle cx="1050" cy="464.574" r="1" fill="rgb(0,0,0)" />
</svg>
