<?xml version="1.0" standalone="no" ?>
<!DOCTYPE svg PUBLIC "-//W3C//DTD SVG 1.1//EN" "http://www.w3.org/Graphics/SVG/1.1/DTD/svg11.dtd">
<svg width="1100px" height="484.771px" xmlns="http://www.w3.org/2000/svg" version="1.1" >
	<circle cx="50" cy="350.539" r="1" fill="rgb(0,0,0)" />
	<circle cx="102.561" cy="461.725" r="1" fill="rgb(0,0,0)" />
	<circle cx="146.193" cy="353.908" r="1" fill="rgb(0,0,0)" />
	<circle cx="193.026" cy="68.8679" r="1" fill="rgb(0,0,0)" />
	<circle cx="216.274" cy="49.4946" r="1" fill="rgb(0,0,0)" />
	<circle cx="216.611" cy="57.4124" r="1" fill="rgb(0,0,0)" />
	<circle cx="218.801" cy="103.403" r="1" fill="rgb(0,0,0)" />
	<circle cx="222.507" cy="22.035" r="1" fill="rgb(0,0,0)" />
	<circle cx="228.908" cy="245.249" r="1" fill="rgb(0,0,0)" />
	<circle cx="322.743" cy="165.398" r="1" fill="rgb(0,0,0)" />
	<circle cx="343.295" cy="94.9798" r="1" fill="rgb(0,0,0)" />
	<circle cx="359.636" cy="101.381" r="1" fill="rgb(0,0,0)" />
	<circle cx="389.454" cy="199.764" r="1" fill="rgb(0,0,0)" />
	<circle cx="389.623" cy="99.6968" r="1" fill="rgb(0,0,0)" />
	<circle cx="410.512" cy="137.264" r="1" fill="rgb(0,0,0)" />
	<circle cx="432.075" cy="42.9245" r="1" fill="rgb(0,0,0)" />
	<circle cx="444.205" cy="91.779" r="1" fill="rgb(0,0,0)" />
	<circle cx="456.503" cy="462.736" r="1" fill="rgb(0,0,0)" />
	<circle cx="470.822" cy="45.6199" r="1" fill="rgb(0,0,0)" />
	<circle cx="475.539" cy="187.129" r="1" fill="rgb(0,0,0)" />
	<circle cx="480.256" cy="234.299" r="1" fill="rgb(0,0,0)" />
	<circle cx="488.174" cy="90.2628" r="1" fill="rgb(0,0,0)" />
	<circle cx="524.057" cy="101.044" r="1" fill="rgb(0,0,0)" />
	<circle cx="527.763" cy="222.675" r="1" fill="rgb(0,0,0)" />
	<circle cx="557.581" cy="235.984" r="1" fill="rgb(0,0,0)" />
	<circle cx="628.167" cy="107.109" r="1" fill="rgb(0,0,0)" />
	<circle cx="633.221" cy="123.113" r="1" fill="rgb(0,0,0)" />
	<circle cx="646.193" cy="168.767" r="1" fill="rgb(0,0,0)" />
	<circle cx="677.358" cy="403.1" r="1" fill="rgb(0,0,0)" />
	<circle cx="692.183" cy="65.1617" r="1" fill="rgb(0,0,0)" />
	<circle cx="748.282" cy="237.332" r="1" fill="rgb(0,0,0)" />
	<circle cx="786.186" cy="275.741" r="1" fill="rgb(0,0,0)" />
	<circle cx="793.43" cy="353.571" r="1" fill="rgb(0,0,0)" />
	<circle cx="806.739" cy="390.465" r="1" fill="rgb(0,0,0)" />
	<circle cx="817.52" cy="175" r="1" fill="rgb(0,0,0)" />
	<circle cx="851.887" cy="423.147" r="1" fill="rgb(0,0,0)" />
	<circle cx="862.332" cy="323.585" r="1" fill="rgb(0,0,0)" />
	<circle cx="879.852" cy="320.889" r="1" fill="rgb(0,0,0)" />
	<circle cx="924.495" cy="358.288" r="1" fill="rgb(0,0,0)" />
	<circle cx="1050" cy="29.279" r="1" fill="rgb(0,0,0)" />
</svg>
