<?xml version="1.0" standalone="no" ?>
<!DOCTYPE svg PUBLIC "-//W3C//DTD SVG 1.1//EN" "http://www.w3.org/Graphics/SVG/1.1/DTD/svg11.dtd">
<svg width="1100px" height="993.057px" xmlns="http://www.w3.org/2000/svg" version="1.1" >
	<circle cx="50" cy="274.857" r="1" fill="rgb(0,0,0)" />
	<circle cx="110.822" cy="704.819" r="1" fill="rgb(0,0,0)" />
	<circle cx="116.623" cy="262.599" r="1" fill="rgb(0,0,0)" />
	<circle cx="185.305" cy="732.797" r="1" fill="rgb(0,0,0)" />
	<circle cx="197.937" cy="765.734" r="1" fill="rgb(0,0,0)" />
	<circle cx="213.095" cy="806.063" r="1" fill="rgb(0,0,0)" />
	<circle cx="223.014" cy="707.439" r="1" fill="rgb(0,0,0)" />
	<circle cx="234.055" cy="451.708" r="1" fill="rgb(0,0,0)" />
	<circle cx="241.448" cy="811.865" r="1" fill="rgb(0,0,0)" />
	<circle cx="248.653" cy="661.402" r="1" fill="rgb(0,0,0)" />
	<circle cx="250.337" cy="776.214" r="1" fill="rgb(0,0,0)" />
	<circle cx="268.77" cy="534.331" r="1" fill="rgb(0,0,0)" />
	<circle cx="290.947" cy="318.649" r="1" fill="rgb(0,0,0)" />
	<circle cx="295.532" cy="746.645" r="1" fill="rgb(0,0,0)" />
	<circle cx="296.936" cy="693.31" r="1" fill="rgb(0,0,0)" />
	<circle cx="307.509" cy="45.139" r="1" fill="rgb(0,0,0)" />
	<circle cx="346.996" cy="568.766" r="1" fill="rgb(0,0,0)" />
	<circle cx="351.301" cy="467.147" r="1" fill="rgb(0,0,0)" />
	<circle cx="351.394" cy="568.485" r="1" fill="rgb(0,0,0)" />
	<circle cx="397.806" cy="646.056" r="1" fill="rgb(0,0,0)" />
	<circle cx="402.952" cy="522.354" r="1" fill="rgb(0,0,0)" />
	<circle cx="417.175" cy="787.349" r="1" fill="rgb(0,0,0)" />
	<circle cx="425.971" cy="360.569" r="1" fill="rgb(0,0,0)" />
	<circle cx="451.235" cy="462.094" r="1" fill="rgb(0,0,0)" />
	<circle cx="458.814" cy="388.266" r="1" fill="rgb(0,0,0)" />
	<circle cx="459.657" cy="704.725" r="1" fill="rgb(0,0,0)" />
	<circle cx="483.892" cy="361.224" r="1" fill="rgb(0,0,0)" />
	<circle cx="503.635" cy="722.598" r="1" fill="rgb(0,0,0)" />
	<circle cx="505.413" cy="397.436" r="1" fill="rgb(0,0,0)" />
	<circle cx="522.162" cy="904.688" r="1" fill="rgb(0,0,0)" />
	<circle cx="522.63" cy="585.234" r="1" fill="rgb(0,0,0)" />
	<circle cx="550.047" cy="391.635" r="1" fill="rgb(0,0,0)" />
	<circle cx="551.731" cy="362.534" r="1" fill="rgb(0,0,0)" />
	<circle cx="565.205" cy="437.298" r="1" fill="rgb(0,0,0)" />
	<circle cx="585.136" cy="668.887" r="1" fill="rgb(0,0,0)" />
	<circle cx="587.663" cy="117.563" r="1" fill="rgb(0,0,0)" />
	<circle cx="590.657" cy="726.153" r="1" fill="rgb(0,0,0)" />
	<circle cx="592.996" cy="476.504" r="1" fill="rgb(0,0,0)" />
	<circle cx="596.271" cy="947.918" r="1" fill="rgb(0,0,0)" />
	<circle cx="599.453" cy="559.783" r="1" fill="rgb(0,0,0)" />
	<circle cx="602.54" cy="709.872" r="1" fill="rgb(0,0,0)" />
	<circle cx="602.728" cy="579.246" r="1" fill="rgb(0,0,0)" />
	<circle cx="611.055" cy="519.266" r="1" fill="rgb(0,0,0)" />
	<circle cx="611.523" cy="317.807" r="1" fill="rgb(0,0,0)" />
	<circle cx="612.833" cy="363.47" r="1" fill="rgb(0,0,0)" />
	<circle cx="616.389" cy="252.681" r="1" fill="rgb(0,0,0)" />
	<circle cx="636.32" cy="488.856" r="1" fill="rgb(0,0,0)" />
	<circle cx="641.092" cy="464.527" r="1" fill="rgb(0,0,0)" />
	<circle cx="649.233" cy="363.282" r="1" fill="rgb(0,0,0)" />
	<circle cx="651.291" cy="494.751" r="1" fill="rgb(0,0,0)" />
	<circle cx="666.824" cy="124.394" r="1" fill="rgb(0,0,0)" />
	<circle cx="670.848" cy="496.622" r="1" fill="rgb(0,0,0)" />
	<circle cx="671.316" cy="455.638" r="1" fill="rgb(0,0,0)" />
	<circle cx="675.526" cy="497.558" r="1" fill="rgb(0,0,0)" />
	<circle cx="685.539" cy="374.511" r="1" fill="rgb(0,0,0)" />
	<circle cx="688.72" cy="408.571" r="1" fill="rgb(0,0,0)" />
	<circle cx="696.393" cy="489.511" r="1" fill="rgb(0,0,0)" />
	<circle cx="740.933" cy="657.191" r="1" fill="rgb(0,0,0)" />
	<circle cx="752.162" cy="284.869" r="1" fill="rgb(0,0,0)" />
	<circle cx="790.152" cy="896.547" r="1" fill="rgb(0,0,0)" />
	<circle cx="796.982" cy="866.043" r="1" fill="rgb(0,0,0)" />
	<circle cx="829.452" cy="565.304" r="1" fill="rgb(0,0,0)" />
	<circle cx="914.134" cy="412.501" r="1" fill="rgb(0,0,0)" />
	<circle cx="946.135" cy="837.691" r="1" fill="rgb(0,0,0)" />
	<circle cx="966.721" cy="378.254" r="1" fill="rgb(0,0,0)" />
	<circle cx="980.102" cy="472.013" r="1" fill="rgb(0,0,0)" />
	<circle cx="1003.87" cy="589.164" r="1" fill="rgb(0,0,0)" />
	<circle cx="1011.64" cy="418.303" r="1" fill="rgb(0,0,0)" />
	<circle cx="1018.28" cy="648.863" r="1" fill="rgb(0,0,0)" />
	<circle cx="1050" cy="320.895" r="1" fill="rgb(0,0,0)" />
</svg>
