<?xml version="1.0" standalone="no" ?>
<!DOCTYPE svg PUBLIC "-//W3C//DTD SVG 1.1//EN" "http://www.w3.org/Graphics/SVG/1.1/DTD/svg11.dtd">
<svg width="1100px" height="702.749px" xmlns="http://www.w3.org/2000/svg" version="1.1" >
	<circle cx="50" cy="285.67" r="1" fill="rgb(0,0,0)" />
	<circle cx="101.803" cy="317.068" r="1" fill="rgb(0,0,0)" />
	<circle cx="125.907" cy="670.806" r="1" fill="rgb(0,0,0)" />
	<circle cx="243.044" cy="261.671" r="1" fill="rgb(0,0,0)" />
	<circle cx="257.316" cy="322.354" r="1" fill="rgb(0,0,0)" />
	<circle cx="301.507" cy="437.483" r="1" fill="rgb(0,0,0)" />
	<circle cx="304.255" cy="589.613" r="1" fill="rgb(0,0,0)" />
	<circle cx="324.236" cy="578.935" r="1" fill="rgb(0,0,0)" />
	<circle cx="380.373" cy="31.9431" r="1" fill="rgb(0,0,0)" />
	<circle cx="448.034" cy="340.961" r="1" fill="rgb(0,0,0)" />
	<circle cx="490.004" cy="279.749" r="1" fill="rgb(0,0,0)" />
	<circle cx="498.145" cy="415.176" r="1" fill="rgb(0,0,0)" />
	<circle cx="514.848" cy="158.172" r="1" fill="rgb(0,0,0)" />
	<circle cx="526.689" cy="352.273" r="1" fill="rgb(0,0,0)" />
	<circle cx="581.663" cy="226.995" r="1" fill="rgb(0,0,0)" />
	<circle cx="609.15" cy="338.424" r="1" fill="rgb(0,0,0)" />
	<circle cx="643.932" cy="407.247" r="1" fill="rgb(0,0,0)" />
	<circle cx="657.147" cy="200.777" r="1" fill="rgb(0,0,0)" />
	<circle cx="685.902" cy="390.015" r="1" fill="rgb(0,0,0)" />
	<circle cx="701.02" cy="316.751" r="1" fill="rgb(0,0,0)" />
	<circle cx="703.24" cy="185.976" r="1" fill="rgb(0,0,0)" />
	<circle cx="833.275" cy="423.739" r="1" fill="rgb(0,0,0)" />
	<circle cx="870.7" cy="431.88" r="1" fill="rgb(0,0,0)" />
	<circle cx="894.804" cy="387.9" r="1" fill="rgb(0,0,0)" />
	<circle cx="921.445" cy="406.824" r="1" fill="rgb(0,0,0)" />
	<circle cx="941.743" cy="389.592" r="1" fill="rgb(0,0,0)" />
	<circle cx="966.693" cy="392.552" r="1" fill="rgb(0,0,0)" />
	<circle cx="1004.33" cy="511.275" r="1" fill="rgb(0,0,0)" />
	<circle cx="1032.03" cy="276.684" r="1" fill="rgb(0,0,0)" />
	<circle cx="1050" cy="601.031" r="1" fill="rgb(0,0,0)" />
</svg>
