<?xml version="1.0" standalone="no" ?>
<!DOCTYPE svg PUBLIC "-//W3C//DTD SVG 1.1//EN" "http://www.w3.org/Graphics/SVG/1.1/DTD/svg11.dtd">
<svg width="1100px" height="1047.9px" xmlns="http://www.w3.org/2000/svg" version="1.1" >
	<circle cx="50" cy="652.185" r="1" fill="rgb(0,0,0)" />
	<circle cx="50.3672" cy="285.285" r="1" fill="rgb(0,0,0)" />
	<circle cx="61.566" cy="452.35" r="1" fill="rgb(0,0,0)" />
	<circle cx="110.676" cy="297.494" r="1" fill="rgb(0,0,0)" />
	<circle cx="125.454" cy="814.751" r="1" fill="rgb(0,0,0)" />
	<circle cx="156.022" cy="719.194" r="1" fill="rgb(0,0,0)" />
	<circle cx="158.225" cy="815.118" r="1" fill="rgb(0,0,0)" />
	<circle cx="169.607" cy="509.446" r="1" fill="rgb(0,0,0)" />
	<circle cx="192.647" cy="594.905" r="1" fill="rgb(0,0,0)" />
	<circle cx="193.749" cy="599.22" r="1" fill="rgb(0,0,0)" />
	<circle cx="194.667" cy="788.774" r="1" fill="rgb(0,0,0)" />
	<circle cx="208.436" cy="530.375" r="1" fill="rgb(0,0,0)" />
	<circle cx="247.173" cy="252.607" r="1" fill="rgb(0,0,0)" />
	<circle cx="255.251" cy="739.664" r="1" fill="rgb(0,0,0)" />
	<circle cx="261.125" cy="995.126" r="1" fill="rgb(0,0,0)" />
	<circle cx="279.484" cy="214.054" r="1" fill="rgb(0,0,0)" />
	<circle cx="295.181" cy="375.335" r="1" fill="rgb(0,0,0)" />
	<circle cx="296.558" cy="696.796" r="1" fill="rgb(0,0,0)" />
	<circle cx="306.839" cy="639.701" r="1" fill="rgb(0,0,0)" />
	<circle cx="314.641" cy="245.814" r="1" fill="rgb(0,0,0)" />
	<circle cx="315.926" cy="815.027" r="1" fill="rgb(0,0,0)" />
	<circle cx="328.135" cy="51.4871" r="1" fill="rgb(0,0,0)" />
	<circle cx="335.937" cy="219.01" r="1" fill="rgb(0,0,0)" />
	<circle cx="348.329" cy="140.894" r="1" fill="rgb(0,0,0)" />
	<circle cx="349.339" cy="413.246" r="1" fill="rgb(0,0,0)" />
	<circle cx="360.538" cy="458.959" r="1" fill="rgb(0,0,0)" />
	<circle cx="371.553" cy="562.686" r="1" fill="rgb(0,0,0)" />
	<circle cx="374.307" cy="767.294" r="1" fill="rgb(0,0,0)" />
	<circle cx="374.95" cy="410.859" r="1" fill="rgb(0,0,0)" />
	<circle cx="381.926" cy="932.431" r="1" fill="rgb(0,0,0)" />
	<circle cx="383.119" cy="638.691" r="1" fill="rgb(0,0,0)" />
	<circle cx="413.044" cy="365.238" r="1" fill="rgb(0,0,0)" />
	<circle cx="426.538" cy="411.502" r="1" fill="rgb(0,0,0)" />
	<circle cx="431.035" cy="297.31" r="1" fill="rgb(0,0,0)" />
	<circle cx="448.384" cy="376.987" r="1" fill="rgb(0,0,0)" />
	<circle cx="452.332" cy="1000.27" r="1" fill="rgb(0,0,0)" />
	<circle cx="453.8" cy="566.358" r="1" fill="rgb(0,0,0)" />
	<circle cx="459.767" cy="776.84" r="1" fill="rgb(0,0,0)" />
	<circle cx="471.241" cy="454.645" r="1" fill="rgb(0,0,0)" />
	<circle cx="477.116" cy="399.293" r="1" fill="rgb(0,0,0)" />
	<circle cx="479.227" cy="159.712" r="1" fill="rgb(0,0,0)" />
	<circle cx="482.44" cy="355.875" r="1" fill="rgb(0,0,0)" />
	<circle cx="482.715" cy="554.424" r="1" fill="rgb(0,0,0)" />
	<circle cx="482.715" cy="510.822" r="1" fill="rgb(0,0,0)" />
	<circle cx="491.711" cy="459.693" r="1" fill="rgb(0,0,0)" />
	<circle cx="492.078" cy="683.945" r="1" fill="rgb(0,0,0)" />
	<circle cx="498.871" cy="491.27" r="1" fill="rgb(0,0,0)" />
	<circle cx="504.562" cy="397.824" r="1" fill="rgb(0,0,0)" />
	<circle cx="505.48" cy="994.759" r="1" fill="rgb(0,0,0)" />
	<circle cx="508.234" cy="437.571" r="1" fill="rgb(0,0,0)" />
	<circle cx="508.509" cy="316.036" r="1" fill="rgb(0,0,0)" />
	<circle cx="513.65" cy="689.269" r="1" fill="rgb(0,0,0)" />
	<circle cx="513.925" cy="711.208" r="1" fill="rgb(0,0,0)" />
	<circle cx="517.597" cy="505.957" r="1" fill="rgb(0,0,0)" />
	<circle cx="519.616" cy="437.388" r="1" fill="rgb(0,0,0)" />
	<circle cx="521.819" cy="693.584" r="1" fill="rgb(0,0,0)" />
	<circle cx="527.786" cy="693.859" r="1" fill="rgb(0,0,0)" />
	<circle cx="530.081" cy="664.852" r="1" fill="rgb(0,0,0)" />
	<circle cx="531.182" cy="669.534" r="1" fill="rgb(0,0,0)" />
	<circle cx="538.159" cy="445.098" r="1" fill="rgb(0,0,0)" />
	<circle cx="551.836" cy="250.955" r="1" fill="rgb(0,0,0)" />
	<circle cx="556.15" cy="593.804" r="1" fill="rgb(0,0,0)" />
	<circle cx="556.793" cy="358.17" r="1" fill="rgb(0,0,0)" />
	<circle cx="579.19" cy="601.79" r="1" fill="rgb(0,0,0)" />
	<circle cx="584.147" cy="488.425" r="1" fill="rgb(0,0,0)" />
	<circle cx="601.129" cy="501.735" r="1" fill="rgb(0,0,0)" />
	<circle cx="603.24" cy="177.703" r="1" fill="rgb(0,0,0)" />
	<circle cx="603.607" cy="202.12" r="1" fill="rgb(0,0,0)" />
	<circle cx="606.728" cy="836.782" r="1" fill="rgb(0,0,0)" />
	<circle cx="638.122" cy="424.261" r="1" fill="rgb(0,0,0)" />
	<circle cx="662.723" cy="424.904" r="1" fill="rgb(0,0,0)" />
	<circle cx="676.767" cy="47.6317" r="1" fill="rgb(0,0,0)" />
	<circle cx="704.213" cy="469.515" r="1" fill="rgb(0,0,0)" />
	<circle cx="713.301" cy="459.326" r="1" fill="rgb(0,0,0)" />
	<circle cx="722.939" cy="518.166" r="1" fill="rgb(0,0,0)" />
	<circle cx="756.811" cy="811.355" r="1" fill="rgb(0,0,0)" />
	<circle cx="784.166" cy="575.812" r="1" fill="rgb(0,0,0)" />
	<circle cx="795.915" cy="67.1838" r="1" fill="rgb(0,0,0)" />
	<circle cx="800.688" cy="535.24" r="1" fill="rgb(0,0,0)" />
	<circle cx="801.79" cy="579.576" r="1" fill="rgb(0,0,0)" />
	<circle cx="811.887" cy="577.648" r="1" fill="rgb(0,0,0)" />
	<circle cx="820.883" cy="536.984" r="1" fill="rgb(0,0,0)" />
	<circle cx="912.952" cy="306.398" r="1" fill="rgb(0,0,0)" />
	<circle cx="918.919" cy="505.957" r="1" fill="rgb(0,0,0)" />
	<circle cx="928.924" cy="408.748" r="1" fill="rgb(0,0,0)" />
	<circle cx="980.42" cy="713.044" r="1" fill="rgb(0,0,0)" />
	<circle cx="981.43" cy="627.125" r="1" fill="rgb(0,0,0)" />
	<circle cx="992.445" cy="423.16" r="1" fill="rgb(0,0,0)" />
	<circle cx="1042.11" cy="777.391" r="1" fill="rgb(0,0,0)" />
	<circle cx="1050" cy="98.0264" r="1" fill="rgb(0,0,0)" />
</svg>
