<?xml version="1.0" standalone="no" ?>
<!DOCTYPE svg PUBLIC "-//W3C//DTD SVG 1.1//EN" "http://www.w3.org/Graphics/SVG/1.1/DTD/svg11.dtd">
<svg width="1100px" height="1053.86px" xmlns="http://www.w3.org/2000/svg" version="1.1" >
	<circle cx="50" cy="303.439" r="1" fill="rgb(0,0,0)" />
	<circle cx="86.5053" cy="839.851" r="1" fill="rgb(0,0,0)" />
	<circle cx="101.896" cy="237.279" r="1" fill="rgb(0,0,0)" />
	<circle cx="125.638" cy="443.548" r="1" fill="rgb(0,0,0)" />
	<circle cx="134.553" cy="279.322" r="1" fill="rgb(0,0,0)" />
	<circle cx="136.43" cy="774.254" r="1" fill="rgb(0,0,0)" />
	<circle cx="138.495" cy="47.9026" r="1" fill="rgb(0,0,0)" />
	<circle cx="159.047" cy="636.773" r="1" fill="rgb(0,0,0)" />
	<circle cx="161.674" cy="983.713" r="1" fill="rgb(0,0,0)" />
	<circle cx="165.146" cy="600.174" r="1" fill="rgb(0,0,0)" />
	<circle cx="177.44" cy="433.319" r="1" fill="rgb(0,0,0)" />
	<circle cx="197.241" cy="792.741" r="1" fill="rgb(0,0,0)" />
	<circle cx="203.435" cy="863.218" r="1" fill="rgb(0,0,0)" />
	<circle cx="207.376" cy="538.612" r="1" fill="rgb(0,0,0)" />
	<circle cx="218.637" cy="840.695" r="1" fill="rgb(0,0,0)" />
	<circle cx="226.333" cy="852.52" r="1" fill="rgb(0,0,0)" />
	<circle cx="231.212" cy="431.912" r="1" fill="rgb(0,0,0)" />
	<circle cx="236.562" cy="687.636" r="1" fill="rgb(0,0,0)" />
	<circle cx="238.063" cy="789.832" r="1" fill="rgb(0,0,0)" />
	<circle cx="248.198" cy="838.631" r="1" fill="rgb(0,0,0)" />
	<circle cx="275.131" cy="484.652" r="1" fill="rgb(0,0,0)" />
	<circle cx="291.179" cy="629.265" r="1" fill="rgb(0,0,0)" />
	<circle cx="296.34" cy="617.535" r="1" fill="rgb(0,0,0)" />
	<circle cx="312.387" cy="682.756" r="1" fill="rgb(0,0,0)" />
	<circle cx="324.493" cy="323.428" r="1" fill="rgb(0,0,0)" />
	<circle cx="328.81" cy="475.267" r="1" fill="rgb(0,0,0)" />
	<circle cx="330.593" cy="530.635" r="1" fill="rgb(0,0,0)" />
	<circle cx="352.834" cy="709.971" r="1" fill="rgb(0,0,0)" />
	<circle cx="356.306" cy="620.069" r="1" fill="rgb(0,0,0)" />
	<circle cx="365.315" cy="197.208" r="1" fill="rgb(0,0,0)" />
	<circle cx="394.595" cy="471.608" r="1" fill="rgb(0,0,0)" />
	<circle cx="397.785" cy="519.656" r="1" fill="rgb(0,0,0)" />
	<circle cx="398.442" cy="208.563" r="1" fill="rgb(0,0,0)" />
	<circle cx="400.976" cy="752.858" r="1" fill="rgb(0,0,0)" />
	<circle cx="409.422" cy="754.453" r="1" fill="rgb(0,0,0)" />
	<circle cx="411.299" cy="254.453" r="1" fill="rgb(0,0,0)" />
	<circle cx="412.519" cy="785.234" r="1" fill="rgb(0,0,0)" />
	<circle cx="419.276" cy="593.792" r="1" fill="rgb(0,0,0)" />
	<circle cx="421.528" cy="823.522" r="1" fill="rgb(0,0,0)" />
	<circle cx="423.78" cy="458.563" r="1" fill="rgb(0,0,0)" />
	<circle cx="425" cy="258.77" r="1" fill="rgb(0,0,0)" />
	<circle cx="452.965" cy="585.722" r="1" fill="rgb(0,0,0)" />
	<circle cx="464.227" cy="539.269" r="1" fill="rgb(0,0,0)" />
	<circle cx="474.55" cy="574.554" r="1" fill="rgb(0,0,0)" />
	<circle cx="480.368" cy="695.05" r="1" fill="rgb(0,0,0)" />
	<circle cx="494.069" cy="229.209" r="1" fill="rgb(0,0,0)" />
	<circle cx="502.703" cy="688.95" r="1" fill="rgb(0,0,0)" />
	<circle cx="503.923" cy="1005.95" r="1" fill="rgb(0,0,0)" />
	<circle cx="506.832" cy="828.402" r="1" fill="rgb(0,0,0)" />
	<circle cx="506.832" cy="707.719" r="1" fill="rgb(0,0,0)" />
	<circle cx="515.747" cy="535.421" r="1" fill="rgb(0,0,0)" />
	<circle cx="521.659" cy="523.972" r="1" fill="rgb(0,0,0)" />
	<circle cx="523.911" cy="679.847" r="1" fill="rgb(0,0,0)" />
	<circle cx="526.633" cy="951.9" r="1" fill="rgb(0,0,0)" />
	<circle cx="540.991" cy="503.327" r="1" fill="rgb(0,0,0)" />
	<circle cx="542.68" cy="591.728" r="1" fill="rgb(0,0,0)" />
	<circle cx="546.34" cy="719.449" r="1" fill="rgb(0,0,0)" />
	<circle cx="557.414" cy="841.352" r="1" fill="rgb(0,0,0)" />
	<circle cx="557.414" cy="509.333" r="1" fill="rgb(0,0,0)" />
	<circle cx="558.54" cy="395.969" r="1" fill="rgb(0,0,0)" />
	<circle cx="568.769" cy="610.027" r="1" fill="rgb(0,0,0)" />
	<circle cx="571.303" cy="523.785" r="1" fill="rgb(0,0,0)" />
	<circle cx="576.182" cy="567.797" r="1" fill="rgb(0,0,0)" />
	<circle cx="592.793" cy="607.306" r="1" fill="rgb(0,0,0)" />
	<circle cx="596.077" cy="560.853" r="1" fill="rgb(0,0,0)" />
	<circle cx="599.362" cy="865.095" r="1" fill="rgb(0,0,0)" />
	<circle cx="609.122" cy="544.055" r="1" fill="rgb(0,0,0)" />
	<circle cx="615.221" cy="411.829" r="1" fill="rgb(0,0,0)" />
	<circle cx="637.65" cy="375.793" r="1" fill="rgb(0,0,0)" />
	<circle cx="644.501" cy="609.089" r="1" fill="rgb(0,0,0)" />
	<circle cx="645.158" cy="571.551" r="1" fill="rgb(0,0,0)" />
	<circle cx="645.721" cy="540.114" r="1" fill="rgb(0,0,0)" />
	<circle cx="653.322" cy="726.206" r="1" fill="rgb(0,0,0)" />
	<circle cx="655.762" cy="233.338" r="1" fill="rgb(0,0,0)" />
	<circle cx="663.176" cy="854.49" r="1" fill="rgb(0,0,0)" />
	<circle cx="699.212" cy="781.292" r="1" fill="rgb(0,0,0)" />
	<circle cx="701.558" cy="756.424" r="1" fill="rgb(0,0,0)" />
	<circle cx="718.356" cy="591.54" r="1" fill="rgb(0,0,0)" />
	<circle cx="729.429" cy="518.436" r="1" fill="rgb(0,0,0)" />
	<circle cx="735.623" cy="714.475" r="1" fill="rgb(0,0,0)" />
	<circle cx="748.011" cy="668.492" r="1" fill="rgb(0,0,0)" />
	<circle cx="769.219" cy="216.165" r="1" fill="rgb(0,0,0)" />
	<circle cx="787.8" cy="426.75" r="1" fill="rgb(0,0,0)" />
	<circle cx="803.754" cy="500.418" r="1" fill="rgb(0,0,0)" />
	<circle cx="807.601" cy="840.508" r="1" fill="rgb(0,0,0)" />
	<circle cx="832.376" cy="346.608" r="1" fill="rgb(0,0,0)" />
	<circle cx="847.767" cy="953.683" r="1" fill="rgb(0,0,0)" />
	<circle cx="848.048" cy="631.142" r="1" fill="rgb(0,0,0)" />
	<circle cx="860.905" cy="615.001" r="1" fill="rgb(0,0,0)" />
	<circle cx="872.729" cy="813.95" r="1" fill="rgb(0,0,0)" />
	<circle cx="912.613" cy="927.032" r="1" fill="rgb(0,0,0)" />
	<circle cx="913.645" cy="795.463" r="1" fill="rgb(0,0,0)" />
	<circle cx="916.46" cy="129.453" r="1" fill="rgb(0,0,0)" />
	<circle cx="981.682" cy="709.971" r="1" fill="rgb(0,0,0)" />
	<circle cx="985.623" cy="576.525" r="1" fill="rgb(0,0,0)" />
	<circle cx="987.688" cy="402.445" r="1" fill="rgb(0,0,0)" />
	<circle cx="1031.51" cy="265.902" r="1" fill="rgb(0,0,0)" />
	<circle cx="1033.77" cy="878.045" r="1" fill="rgb(0,0,0)" />
	<circle cx="1046.72" cy="268.06" r="1" fill="rgb(0,0,0)" />
	<circle cx="1050" cy="833.939" r="1" fill="rgb(0,0,0)" />
</svg>
