<?xml version="1.0" standalone="no" ?>
<!DOCTYPE svg PUBLIC "-//W3C//DTD SVG 1.1//EN" "http://www.w3.org/Graphics/SVG/1.1/DTD/svg11.dtd">
<svg width="1100px" height="900.56px" xmlns="http://www.w3.org/2000/svg" version="1.1" >
	<circle cx="50" cy="516.126" r="1" fill="rgb(0,0,0)" />
	<circle cx="86.1873" cy="749.758" r="1" fill="rgb(0,0,0)" />
	<circle cx="138.323" cy="570.686" r="1" fill="rgb(0,0,0)" />
	<circle cx="138.416" cy="177.476" r="1" fill="rgb(0,0,0)" />
	<circle cx="225.713" cy="649.683" r="1" fill="rgb(0,0,0)" />
	<circle cx="230.097" cy="545.038" r="1" fill="rgb(0,0,0)" />
	<circle cx="246.046" cy="506.706" r="1" fill="rgb(0,0,0)" />
	<circle cx="256.491" cy="722.71" r="1" fill="rgb(0,0,0)" />
	<circle cx="279.155" cy="718.327" r="1" fill="rgb(0,0,0)" />
	<circle cx="283.912" cy="505.96" r="1" fill="rgb(0,0,0)" />
	<circle cx="286.057" cy="619.558" r="1" fill="rgb(0,0,0)" />
	<circle cx="289.414" cy="833.137" r="1" fill="rgb(0,0,0)" />
	<circle cx="341.83" cy="164.885" r="1" fill="rgb(0,0,0)" />
	<circle cx="364.027" cy="193.145" r="1" fill="rgb(0,0,0)" />
	<circle cx="393.779" cy="788.743" r="1" fill="rgb(0,0,0)" />
	<circle cx="429.034" cy="492.529" r="1" fill="rgb(0,0,0)" />
	<circle cx="444.143" cy="679.808" r="1" fill="rgb(0,0,0)" />
	<circle cx="467.832" cy="40.9345" r="1" fill="rgb(0,0,0)" />
	<circle cx="469.605" cy="859.625" r="1" fill="rgb(0,0,0)" />
	<circle cx="473.615" cy="427.336" r="1" fill="rgb(0,0,0)" />
	<circle cx="476.973" cy="506.892" r="1" fill="rgb(0,0,0)" />
	<circle cx="477.812" cy="461.472" r="1" fill="rgb(0,0,0)" />
	<circle cx="485.367" cy="581.226" r="1" fill="rgb(0,0,0)" />
	<circle cx="485.553" cy="558.469" r="1" fill="rgb(0,0,0)" />
	<circle cx="527.803" cy="678.595" r="1" fill="rgb(0,0,0)" />
	<circle cx="552.611" cy="752.089" r="1" fill="rgb(0,0,0)" />
	<circle cx="564.923" cy="678.689" r="1" fill="rgb(0,0,0)" />
	<circle cx="593.835" cy="614.801" r="1" fill="rgb(0,0,0)" />
	<circle cx="613.234" cy="544.852" r="1" fill="rgb(0,0,0)" />
	<circle cx="657.629" cy="637.278" r="1" fill="rgb(0,0,0)" />
	<circle cx="658.842" cy="500.177" r="1" fill="rgb(0,0,0)" />
	<circle cx="703.516" cy="537.297" r="1" fill="rgb(0,0,0)" />
	<circle cx="800.886" cy="710.679" r="1" fill="rgb(0,0,0)" />
	<circle cx="840.431" cy="515.38" r="1" fill="rgb(0,0,0)" />
	<circle cx="1050" cy="778.297" r="1" fill="rgb(0,0,0)" />
</svg>
