<?xml version="1.0" standalone="no" ?>
<!DOCTYPE svg PUBLIC "-//W3C//DTD SVG 1.1//EN" "http://www.w3.org/Graphics/SVG/1.1/DTD/svg11.dtd">
<svg width="1100px" height="1010.88px" xmlns="http://www.w3.org/2000/svg" version="1.1" >
	<circle cx="50" cy="732.578" r="1" fill="rgb(0,0,0)" />
	<circle cx="61.3985" cy="525.476" r="1" fill="rgb(0,0,0)" />
	<circle cx="96.6462" cy="424.117" r="1" fill="rgb(0,0,0)" />
	<circle cx="168.808" cy="528.106" r="1" fill="rgb(0,0,0)" />
	<circle cx="180.206" cy="567.212" r="1" fill="rgb(0,0,0)" />
	<circle cx="192.043" cy="504.169" r="1" fill="rgb(0,0,0)" />
	<circle cx="204.669" cy="766.949" r="1" fill="rgb(0,0,0)" />
	<circle cx="287.79" cy="253.84" r="1" fill="rgb(0,0,0)" />
	<circle cx="291.561" cy="665.677" r="1" fill="rgb(0,0,0)" />
	<circle cx="299.978" cy="494.437" r="1" fill="rgb(0,0,0)" />
	<circle cx="354.866" cy="463.573" r="1" fill="rgb(0,0,0)" />
	<circle cx="373.279" cy="565.897" r="1" fill="rgb(0,0,0)" />
	<circle cx="395.375" cy="649.456" r="1" fill="rgb(0,0,0)" />
	<circle cx="426.063" cy="465.677" r="1" fill="rgb(0,0,0)" />
	<circle cx="426.151" cy="457.698" r="1" fill="rgb(0,0,0)" />
	<circle cx="428.606" cy="547.045" r="1" fill="rgb(0,0,0)" />
	<circle cx="439.215" cy="809.649" r="1" fill="rgb(0,0,0)" />
	<circle cx="447.457" cy="659.978" r="1" fill="rgb(0,0,0)" />
	<circle cx="454.472" cy="426.133" r="1" fill="rgb(0,0,0)" />
	<circle cx="461.837" cy="964.932" r="1" fill="rgb(0,0,0)" />
	<circle cx="462.188" cy="506.098" r="1" fill="rgb(0,0,0)" />
	<circle cx="488.053" cy="830.079" r="1" fill="rgb(0,0,0)" />
	<circle cx="494.367" cy="706.8" r="1" fill="rgb(0,0,0)" />
	<circle cx="523.038" cy="508.378" r="1" fill="rgb(0,0,0)" />
	<circle cx="526.107" cy="548.886" r="1" fill="rgb(0,0,0)" />
	<circle cx="531.982" cy="376.155" r="1" fill="rgb(0,0,0)" />
	<circle cx="545.835" cy="264.45" r="1" fill="rgb(0,0,0)" />
	<circle cx="577.137" cy="599.917" r="1" fill="rgb(0,0,0)" />
	<circle cx="578.189" cy="512.236" r="1" fill="rgb(0,0,0)" />
	<circle cx="590.815" cy="357.391" r="1" fill="rgb(0,0,0)" />
	<circle cx="592.394" cy="568.439" r="1" fill="rgb(0,0,0)" />
	<circle cx="594.41" cy="710.745" r="1" fill="rgb(0,0,0)" />
	<circle cx="598.619" cy="45.9491" r="1" fill="rgb(0,0,0)" />
	<circle cx="605.107" cy="865.327" r="1" fill="rgb(0,0,0)" />
	<circle cx="640.53" cy="374.665" r="1" fill="rgb(0,0,0)" />
	<circle cx="670.693" cy="247.966" r="1" fill="rgb(0,0,0)" />
	<circle cx="686.125" cy="510.132" r="1" fill="rgb(0,0,0)" />
	<circle cx="687.001" cy="635.778" r="1" fill="rgb(0,0,0)" />
	<circle cx="718.917" cy="678.654" r="1" fill="rgb(0,0,0)" />
	<circle cx="722.775" cy="305.134" r="1" fill="rgb(0,0,0)" />
	<circle cx="752.499" cy="763.266" r="1" fill="rgb(0,0,0)" />
	<circle cx="789.588" cy="621.399" r="1" fill="rgb(0,0,0)" />
	<circle cx="800.197" cy="620.083" r="1" fill="rgb(0,0,0)" />
	<circle cx="850.614" cy="381.942" r="1" fill="rgb(0,0,0)" />
	<circle cx="1050" cy="837.795" r="1" fill="rgb(0,0,0)" />
</svg>
