<?xml version="1.0" standalone="no" ?>
<!DOCTYPE svg PUBLIC "-//W3C//DTD SVG 1.1//EN" "http://www.w3.org/Graphics/SVG/1.1/DTD/svg11.dtd">
<svg width="1100px" height="1081.91px" xmlns="http://www.w3.org/2000/svg" version="1.1" >
	<circle cx="50" cy="286.774" r="1" fill="rgb(0,0,0)" />
	<circle cx="58.3568" cy="653.33" r="1" fill="rgb(0,0,0)" />
	<circle cx="99.437" cy="801.904" r="1" fill="rgb(0,0,0)" />
	<circle cx="110.609" cy="528.417" r="1" fill="rgb(0,0,0)" />
	<circle cx="117.822" cy="986.37" r="1" fill="rgb(0,0,0)" />
	<circle cx="134.096" cy="373.333" r="1" fill="rgb(0,0,0)" />
	<circle cx="159.782" cy="453.646" r="1" fill="rgb(0,0,0)" />
	<circle cx="164.708" cy="840.17" r="1" fill="rgb(0,0,0)" />
	<circle cx="206.404" cy="866.912" r="1" fill="rgb(0,0,0)" />
	<circle cx="220.742" cy="847.119" r="1" fill="rgb(0,0,0)" />
	<circle cx="230.947" cy="504.931" r="1" fill="rgb(0,0,0)" />
	<circle cx="280.735" cy="605.388" r="1" fill="rgb(0,0,0)" />
	<circle cx="289.18" cy="257.921" r="1" fill="rgb(0,0,0)" />
	<circle cx="300.352" cy="261.968" r="1" fill="rgb(0,0,0)" />
	<circle cx="301.232" cy="569.586" r="1" fill="rgb(0,0,0)" />
	<circle cx="325.158" cy="657.288" r="1" fill="rgb(0,0,0)" />
	<circle cx="328.061" cy="600.198" r="1" fill="rgb(0,0,0)" />
	<circle cx="356.298" cy="639.431" r="1" fill="rgb(0,0,0)" />
	<circle cx="384.36" cy="594.832" r="1" fill="rgb(0,0,0)" />
	<circle cx="385.415" cy="477.221" r="1" fill="rgb(0,0,0)" />
	<circle cx="393.332" cy="444.146" r="1" fill="rgb(0,0,0)" />
	<circle cx="394.388" cy="659.135" r="1" fill="rgb(0,0,0)" />
	<circle cx="401.249" cy="584.804" r="1" fill="rgb(0,0,0)" />
	<circle cx="402.833" cy="895.676" r="1" fill="rgb(0,0,0)" />
	<circle cx="413.213" cy="746.134" r="1" fill="rgb(0,0,0)" />
	<circle cx="416.027" cy="714.818" r="1" fill="rgb(0,0,0)" />
	<circle cx="428.431" cy="1023.49" r="1" fill="rgb(0,0,0)" />
	<circle cx="452.973" cy="600.374" r="1" fill="rgb(0,0,0)" />
	<circle cx="458.867" cy="574.6" r="1" fill="rgb(0,0,0)" />
	<circle cx="467.048" cy="463.498" r="1" fill="rgb(0,0,0)" />
	<circle cx="474.085" cy="507.745" r="1" fill="rgb(0,0,0)" />
	<circle cx="476.372" cy="91.5772" r="1" fill="rgb(0,0,0)" />
	<circle cx="482.09" cy="637.76" r="1" fill="rgb(0,0,0)" />
	<circle cx="491.414" cy="561.405" r="1" fill="rgb(0,0,0)" />
	<circle cx="496.429" cy="560.613" r="1" fill="rgb(0,0,0)" />
	<circle cx="500.475" cy="933.326" r="1" fill="rgb(0,0,0)" />
	<circle cx="500.827" cy="955.23" r="1" fill="rgb(0,0,0)" />
	<circle cx="516.837" cy="454.262" r="1" fill="rgb(0,0,0)" />
	<circle cx="517.98" cy="813.692" r="1" fill="rgb(0,0,0)" />
	<circle cx="518.948" cy="778.945" r="1" fill="rgb(0,0,0)" />
	<circle cx="519.124" cy="196.961" r="1" fill="rgb(0,0,0)" />
	<circle cx="526.337" cy="967.017" r="1" fill="rgb(0,0,0)" />
	<circle cx="534.606" cy="488.393" r="1" fill="rgb(0,0,0)" />
	<circle cx="536.717" cy="459.628" r="1" fill="rgb(0,0,0)" />
	<circle cx="536.981" cy="479.244" r="1" fill="rgb(0,0,0)" />
	<circle cx="543.754" cy="86.0354" r="1" fill="rgb(0,0,0)" />
	<circle cx="545.69" cy="469.656" r="1" fill="rgb(0,0,0)" />
	<circle cx="577.27" cy="438.78" r="1" fill="rgb(0,0,0)" />
	<circle cx="581.14" cy="351.781" r="1" fill="rgb(0,0,0)" />
	<circle cx="583.427" cy="381.954" r="1" fill="rgb(0,0,0)" />
	<circle cx="592.224" cy="536.422" r="1" fill="rgb(0,0,0)" />
	<circle cx="596.006" cy="278.33" r="1" fill="rgb(0,0,0)" />
	<circle cx="605.331" cy="548.914" r="1" fill="rgb(0,0,0)" />
	<circle cx="605.419" cy="361.018" r="1" fill="rgb(0,0,0)" />
	<circle cx="615.359" cy="348.702" r="1" fill="rgb(0,0,0)" />
	<circle cx="619.053" cy="668.284" r="1" fill="rgb(0,0,0)" />
	<circle cx="621.605" cy="814.66" r="1" fill="rgb(0,0,0)" />
	<circle cx="626.179" cy="395.501" r="1" fill="rgb(0,0,0)" />
	<circle cx="633.744" cy="1032.73" r="1" fill="rgb(0,0,0)" />
	<circle cx="650.194" cy="502.819" r="1" fill="rgb(0,0,0)" />
	<circle cx="659.606" cy="391.102" r="1" fill="rgb(0,0,0)" />
	<circle cx="707.723" cy="211.123" r="1" fill="rgb(0,0,0)" />
	<circle cx="726.284" cy="532.992" r="1" fill="rgb(0,0,0)" />
	<circle cx="729.187" cy="505.106" r="1" fill="rgb(0,0,0)" />
	<circle cx="735.081" cy="494.726" r="1" fill="rgb(0,0,0)" />
	<circle cx="740.007" cy="415.205" r="1" fill="rgb(0,0,0)" />
	<circle cx="758.832" cy="783.695" r="1" fill="rgb(0,0,0)" />
	<circle cx="799.208" cy="555.247" r="1" fill="rgb(0,0,0)" />
	<circle cx="801.935" cy="571.785" r="1" fill="rgb(0,0,0)" />
	<circle cx="805.366" cy="418.724" r="1" fill="rgb(0,0,0)" />
	<circle cx="813.547" cy="921.011" r="1" fill="rgb(0,0,0)" />
	<circle cx="836.418" cy="49.1775" r="1" fill="rgb(0,0,0)" />
	<circle cx="843.279" cy="316.947" r="1" fill="rgb(0,0,0)" />
	<circle cx="848.381" cy="742.263" r="1" fill="rgb(0,0,0)" />
	<circle cx="872.924" cy="404.473" r="1" fill="rgb(0,0,0)" />
	<circle cx="951.302" cy="549.09" r="1" fill="rgb(0,0,0)" />
	<circle cx="971.182" cy="737.425" r="1" fill="rgb(0,0,0)" />
	<circle cx="1019.48" cy="767.598" r="1" fill="rgb(0,0,0)" />
	<circle cx="1043.49" cy="250.18" r="1" fill="rgb(0,0,0)" />
	<circle cx="1050" cy="720.8" r="1" fill="rgb(0,0,0)" />
</svg>
