<?xml version="1.0" standalone="no" ?>
<!DOCTYPE svg PUBLIC "-//W3C//DTD SVG 1.1//EN" "http://www.w3.org/Graphics/SVG/1.1/DTD/svg11.dtd">
<svg width="1100px" height="981.897px" xmlns="http://www.w3.org/2000/svg" version="1.1" >
	<circle cx="50" cy="244.861" r="1" fill="rgb(0,0,0)" />
	<circle cx="54.3823" cy="669.11" r="1" fill="rgb(0,0,0)" />
	<circle cx="109.578" cy="685.596" r="1" fill="rgb(0,0,0)" />
	<circle cx="127.421" cy="460.116" r="1" fill="rgb(0,0,0)" />
	<circle cx="143.593" cy="857.758" r="1" fill="rgb(0,0,0)" />
	<circle cx="172.913" cy="624.348" r="1" fill="rgb(0,0,0)" />
	<circle cx="212.458" cy="647.616" r="1" fill="rgb(0,0,0)" />
	<circle cx="214.023" cy="789.832" r="1" fill="rgb(0,0,0)" />
	<circle cx="273.811" cy="516.147" r="1" fill="rgb(0,0,0)" />
	<circle cx="306.052" cy="753.521" r="1" fill="rgb(0,0,0)" />
	<circle cx="307.93" cy="660.658" r="1" fill="rgb(0,0,0)" />
	<circle cx="325.981" cy="515.625" r="1" fill="rgb(0,0,0)" />
	<circle cx="369.073" cy="438.204" r="1" fill="rgb(0,0,0)" />
	<circle cx="390.255" cy="502.061" r="1" fill="rgb(0,0,0)" />
	<circle cx="394.637" cy="81.4639" r="1" fill="rgb(0,0,0)" />
	<circle cx="430.53" cy="496.009" r="1" fill="rgb(0,0,0)" />
	<circle cx="435.225" cy="435.074" r="1" fill="rgb(0,0,0)" />
	<circle cx="452.024" cy="355.254" r="1" fill="rgb(0,0,0)" />
	<circle cx="469.658" cy="499.035" r="1" fill="rgb(0,0,0)" />
	<circle cx="488.856" cy="78.125" r="1" fill="rgb(0,0,0)" />
	<circle cx="504.194" cy="393.338" r="1" fill="rgb(0,0,0)" />
	<circle cx="522.245" cy="937.265" r="1" fill="rgb(0,0,0)" />
	<circle cx="526.419" cy="564.352" r="1" fill="rgb(0,0,0)" />
	<circle cx="545.2" cy="44.6317" r="1" fill="rgb(0,0,0)" />
	<circle cx="549.478" cy="533.467" r="1" fill="rgb(0,0,0)" />
	<circle cx="561.164" cy="728.375" r="1" fill="rgb(0,0,0)" />
	<circle cx="563.669" cy="480.88" r="1" fill="rgb(0,0,0)" />
	<circle cx="569.825" cy="473.68" r="1" fill="rgb(0,0,0)" />
	<circle cx="572.225" cy="460.011" r="1" fill="rgb(0,0,0)" />
	<circle cx="584.119" cy="571.656" r="1" fill="rgb(0,0,0)" />
	<circle cx="599.979" cy="426.831" r="1" fill="rgb(0,0,0)" />
	<circle cx="636.29" cy="64.2477" r="1" fill="rgb(0,0,0)" />
	<circle cx="647.663" cy="348.889" r="1" fill="rgb(0,0,0)" />
	<circle cx="654.862" cy="217.941" r="1" fill="rgb(0,0,0)" />
	<circle cx="694.199" cy="736.201" r="1" fill="rgb(0,0,0)" />
	<circle cx="695.138" cy="841.689" r="1" fill="rgb(0,0,0)" />
	<circle cx="699.833" cy="517.294" r="1" fill="rgb(0,0,0)" />
	<circle cx="710.684" cy="667.023" r="1" fill="rgb(0,0,0)" />
	<circle cx="713.084" cy="740.27" r="1" fill="rgb(0,0,0)" />
	<circle cx="713.397" cy="402.102" r="1" fill="rgb(0,0,0)" />
	<circle cx="727.796" cy="312.578" r="1" fill="rgb(0,0,0)" />
	<circle cx="777.984" cy="360.471" r="1" fill="rgb(0,0,0)" />
	<circle cx="794.261" cy="561.013" r="1" fill="rgb(0,0,0)" />
	<circle cx="799.687" cy="286.597" r="1" fill="rgb(0,0,0)" />
	<circle cx="803.548" cy="369.235" r="1" fill="rgb(0,0,0)" />
	<circle cx="849.353" cy="532.424" r="1" fill="rgb(0,0,0)" />
	<circle cx="855.822" cy="516.042" r="1" fill="rgb(0,0,0)" />
	<circle cx="958.389" cy="403.772" r="1" fill="rgb(0,0,0)" />
	<circle cx="1029.55" cy="350.976" r="1" fill="rgb(0,0,0)" />
	<circle cx="1050" cy="717.315" r="1" fill="rgb(0,0,0)" />
</svg>
