<?xml version="1.0" standalone="no" ?>
<!DOCTYPE svg PUBLIC "-//W3C//DTD SVG 1.1//EN" "http://www.w3.org/Graphics/SVG/1.1/DTD/svg11.dtd">
<svg width="1100px" height="897.992px" xmlns="http://www.w3.org/2000/svg" version="1.1" >
	<circle cx="50" cy="479.016" r="1" fill="rgb(0,0,0)" />
	<circle cx="235.798" cy="670.005" r="1" fill="rgb(0,0,0)" />
	<circle cx="245.495" cy="602.228" r="1" fill="rgb(0,0,0)" />
	<circle cx="254.212" cy="655.215" r="1" fill="rgb(0,0,0)" />
	<circle cx="307.199" cy="325.147" r="1" fill="rgb(0,0,0)" />
	<circle cx="352.449" cy="490.083" r="1" fill="rgb(0,0,0)" />
	<circle cx="368.413" cy="381.66" r="1" fill="rgb(0,0,0)" />
	<circle cx="392.899" cy="577.253" r="1" fill="rgb(0,0,0)" />
	<circle cx="421.792" cy="438.565" r="1" fill="rgb(0,0,0)" />
	<circle cx="428.061" cy="323.188" r="1" fill="rgb(0,0,0)" />
	<circle cx="432.272" cy="317.214" r="1" fill="rgb(0,0,0)" />
	<circle cx="434.917" cy="47.2821" r="1" fill="rgb(0,0,0)" />
	<circle cx="545.299" cy="434.843" r="1" fill="rgb(0,0,0)" />
	<circle cx="555.387" cy="354.432" r="1" fill="rgb(0,0,0)" />
	<circle cx="556.366" cy="785.088" r="1" fill="rgb(0,0,0)" />
	<circle cx="575.661" cy="781.66" r="1" fill="rgb(0,0,0)" />
	<circle cx="615.524" cy="316.136" r="1" fill="rgb(0,0,0)" />
	<circle cx="624.437" cy="458.741" r="1" fill="rgb(0,0,0)" />
	<circle cx="687.708" cy="40.8178" r="1" fill="rgb(0,0,0)" />
	<circle cx="695.054" cy="455.118" r="1" fill="rgb(0,0,0)" />
	<circle cx="748.825" cy="693.315" r="1" fill="rgb(0,0,0)" />
	<circle cx="764.789" cy="337.39" r="1" fill="rgb(0,0,0)" />
	<circle cx="948.727" cy="586.361" r="1" fill="rgb(0,0,0)" />
	<circle cx="1023.07" cy="857.174" r="1" fill="rgb(0,0,0)" />
	<circle cx="1050" cy="125.343" r="1" fill="rgb(0,0,0)" />
</svg>
