<?xml version="1.0" standalone="no" ?>
<!DOCTYPE svg PUBLIC "-//W3C//DTD SVG 1.1//EN" "http://www.w3.org/Graphics/SVG/1.1/DTD/svg11.dtd">
<svg width="1100px" height="806.597px" xmlns="http://www.w3.org/2000/svg" version="1.1" >
	<circle cx="50" cy="591.23" r="1" fill="rgb(0,0,0)" />
	<circle cx="89.2806" cy="263.545" r="1" fill="rgb(0,0,0)" />
	<circle cx="137.459" cy="258.15" r="1" fill="rgb(0,0,0)" />
	<circle cx="166.611" cy="584.416" r="1" fill="rgb(0,0,0)" />
	<circle cx="198.793" cy="471.874" r="1" fill="rgb(0,0,0)" />
	<circle cx="229.934" cy="141.538" r="1" fill="rgb(0,0,0)" />
	<circle cx="413.37" cy="396.058" r="1" fill="rgb(0,0,0)" />
	<circle cx="470.54" cy="277.743" r="1" fill="rgb(0,0,0)" />
	<circle cx="525.816" cy="769.934" r="1" fill="rgb(0,0,0)" />
	<circle cx="528.372" cy="268.94" r="1" fill="rgb(0,0,0)" />
	<circle cx="560.648" cy="392.272" r="1" fill="rgb(0,0,0)" />
	<circle cx="586.11" cy="402.399" r="1" fill="rgb(0,0,0)" />
	<circle cx="625.296" cy="173.814" r="1" fill="rgb(0,0,0)" />
	<circle cx="650.568" cy="388.391" r="1" fill="rgb(0,0,0)" />
	<circle cx="704.898" cy="295.821" r="1" fill="rgb(0,0,0)" />
	<circle cx="794.912" cy="589.716" r="1" fill="rgb(0,0,0)" />
	<circle cx="840.819" cy="129.423" r="1" fill="rgb(0,0,0)" />
	<circle cx="849.811" cy="36.6635" r="1" fill="rgb(0,0,0)" />
	<circle cx="877.828" cy="361.604" r="1" fill="rgb(0,0,0)" />
	<circle cx="1050" cy="483.895" r="1" fill="rgb(0,0,0)" />
</svg>
