<?xml version="1.0" standalone="no" ?>
<!DOCTYPE svg PUBLIC "-//W3C//DTD SVG 1.1//EN" "http://www.w3.org/Graphics/SVG/1.1/DTD/svg11.dtd">
<svg width="1100px" height="1085.8px" xmlns="http://www.w3.org/2000/svg" version="1.1" >
	<circle cx="50" cy="907.746" r="1" fill="rgb(0,0,0)" />
	<circle cx="68.3714" cy="259.086" r="1" fill="rgb(0,0,0)" />
	<circle cx="155.462" cy="543.992" r="1" fill="rgb(0,0,0)" />
	<circle cx="158.044" cy="871.599" r="1" fill="rgb(0,0,0)" />
	<circle cx="175.919" cy="424.33" r="1" fill="rgb(0,0,0)" />
	<circle cx="190.119" cy="618.073" r="1" fill="rgb(0,0,0)" />
	<circle cx="224.876" cy="664.151" r="1" fill="rgb(0,0,0)" />
	<circle cx="225.869" cy="524.429" r="1" fill="rgb(0,0,0)" />
	<circle cx="250.397" cy="136.147" r="1" fill="rgb(0,0,0)" />
	<circle cx="255.859" cy="579.643" r="1" fill="rgb(0,0,0)" />
	<circle cx="258.242" cy="958.987" r="1" fill="rgb(0,0,0)" />
	<circle cx="282.771" cy="726.117" r="1" fill="rgb(0,0,0)" />
	<circle cx="284.757" cy="208.441" r="1" fill="rgb(0,0,0)" />
	<circle cx="320.209" cy="573.784" r="1" fill="rgb(0,0,0)" />
	<circle cx="323.585" cy="628.5" r="1" fill="rgb(0,0,0)" />
	<circle cx="350.794" cy="485.204" r="1" fill="rgb(0,0,0)" />
	<circle cx="355.859" cy="475.372" r="1" fill="rgb(0,0,0)" />
	<circle cx="358.937" cy="984.608" r="1" fill="rgb(0,0,0)" />
	<circle cx="406.802" cy="610.328" r="1" fill="rgb(0,0,0)" />
	<circle cx="428.352" cy="851.837" r="1" fill="rgb(0,0,0)" />
	<circle cx="430.735" cy="428.997" r="1" fill="rgb(0,0,0)" />
	<circle cx="466.187" cy="562.661" r="1" fill="rgb(0,0,0)" />
	<circle cx="477.21" cy="776.961" r="1" fill="rgb(0,0,0)" />
	<circle cx="497.666" cy="513.108" r="1" fill="rgb(0,0,0)" />
	<circle cx="504.419" cy="525.621" r="1" fill="rgb(0,0,0)" />
	<circle cx="508.292" cy="374.379" r="1" fill="rgb(0,0,0)" />
	<circle cx="510.477" cy="600.894" r="1" fill="rgb(0,0,0)" />
	<circle cx="515.74" cy="846.673" r="1" fill="rgb(0,0,0)" />
	<circle cx="522.294" cy="673.386" r="1" fill="rgb(0,0,0)" />
	<circle cx="525.174" cy="625.223" r="1" fill="rgb(0,0,0)" />
	<circle cx="537.686" cy="397.021" r="1" fill="rgb(0,0,0)" />
	<circle cx="539.573" cy="763.059" r="1" fill="rgb(0,0,0)" />
	<circle cx="545.233" cy="448.858" r="1" fill="rgb(0,0,0)" />
	<circle cx="545.829" cy="802.483" r="1" fill="rgb(0,0,0)" />
	<circle cx="568.868" cy="552.135" r="1" fill="rgb(0,0,0)" />
	<circle cx="607.001" cy="599.106" r="1" fill="rgb(0,0,0)" />
	<circle cx="624.975" cy="408.937" r="1" fill="rgb(0,0,0)" />
	<circle cx="628.451" cy="508.838" r="1" fill="rgb(0,0,0)" />
	<circle cx="631.033" cy="342.9" r="1" fill="rgb(0,0,0)" />
	<circle cx="636.495" cy="495.929" r="1" fill="rgb(0,0,0)" />
	<circle cx="645.333" cy="538.034" r="1" fill="rgb(0,0,0)" />
	<circle cx="671.251" cy="318.769" r="1" fill="rgb(0,0,0)" />
	<circle cx="685.154" cy="512.413" r="1" fill="rgb(0,0,0)" />
	<circle cx="699.652" cy="560.973" r="1" fill="rgb(0,0,0)" />
	<circle cx="726.465" cy="49.3545" r="1" fill="rgb(0,0,0)" />
	<circle cx="743.843" cy="400.695" r="1" fill="rgb(0,0,0)" />
	<circle cx="750.298" cy="597.716" r="1" fill="rgb(0,0,0)" />
	<circle cx="751.887" cy="553.823" r="1" fill="rgb(0,0,0)" />
	<circle cx="752.383" cy="538.828" r="1" fill="rgb(0,0,0)" />
	<circle cx="762.413" cy="189.374" r="1" fill="rgb(0,0,0)" />
	<circle cx="801.936" cy="517.18" r="1" fill="rgb(0,0,0)" />
	<circle cx="803.128" cy="578.749" r="1" fill="rgb(0,0,0)" />
	<circle cx="831.728" cy="434.062" r="1" fill="rgb(0,0,0)" />
	<circle cx="841.261" cy="995.929" r="1" fill="rgb(0,0,0)" />
	<circle cx="887.934" cy="620.258" r="1" fill="rgb(0,0,0)" />
	<circle cx="916.435" cy="376.663" r="1" fill="rgb(0,0,0)" />
	<circle cx="955.065" cy="779.146" r="1" fill="rgb(0,0,0)" />
	<circle cx="1015.74" cy="1036.44" r="1" fill="rgb(0,0,0)" />
	<circle cx="1025.77" cy="531.976" r="1" fill="rgb(0,0,0)" />
	<circle cx="1050" cy="646.375" r="1" fill="rgb(0,0,0)" />
</svg>
