<?xml version="1.0" standalone="no" ?>
<!DOCTYPE svg PUBLIC "-//W3C//DTD SVG 1.1//EN" "http://www.w3.org/Graphics/SVG/1.1/DTD/svg11.dtd">
<svg width="1100px" height="888.458px" xmlns="http://www.w3.org/2000/svg" version="1.1" >
	<circle cx="50" cy="848.073" r="1" fill="rgb(0,0,0)" />
	<circle cx="134.975" cy="782.32" r="1" fill="rgb(0,0,0)" />
	<circle cx="176.463" cy="499.515" r="1" fill="rgb(0,0,0)" />
	<circle cx="211.1" cy="127.167" r="1" fill="rgb(0,0,0)" />
	<circle cx="213.479" cy="627.691" r="1" fill="rgb(0,0,0)" />
	<circle cx="281.135" cy="764.335" r="1" fill="rgb(0,0,0)" />
	<circle cx="284.466" cy="677.362" r="1" fill="rgb(0,0,0)" />
	<circle cx="336.041" cy="126.787" r="1" fill="rgb(0,0,0)" />
	<circle cx="336.707" cy="136.493" r="1" fill="rgb(0,0,0)" />
	<circle cx="343.082" cy="739.214" r="1" fill="rgb(0,0,0)" />
	<circle cx="345.937" cy="158.854" r="1" fill="rgb(0,0,0)" />
	<circle cx="355.072" cy="572.976" r="1" fill="rgb(0,0,0)" />
	<circle cx="394.276" cy="328.709" r="1" fill="rgb(0,0,0)" />
	<circle cx="397.036" cy="485.812" r="1" fill="rgb(0,0,0)" />
	<circle cx="411.595" cy="176.458" r="1" fill="rgb(0,0,0)" />
	<circle cx="423.87" cy="742.259" r="1" fill="rgb(0,0,0)" />
	<circle cx="462.979" cy="369.436" r="1" fill="rgb(0,0,0)" />
	<circle cx="465.168" cy="409.497" r="1" fill="rgb(0,0,0)" />
	<circle cx="486.578" cy="177.41" r="1" fill="rgb(0,0,0)" />
	<circle cx="489.052" cy="141.916" r="1" fill="rgb(0,0,0)" />
	<circle cx="499.044" cy="40.3844" r="1" fill="rgb(0,0,0)" />
	<circle cx="523.499" cy="517.88" r="1" fill="rgb(0,0,0)" />
	<circle cx="550.238" cy="565.648" r="1" fill="rgb(0,0,0)" />
	<circle cx="569.555" cy="797.735" r="1" fill="rgb(0,0,0)" />
	<circle cx="570.792" cy="550.899" r="1" fill="rgb(0,0,0)" />
	<circle cx="602.859" cy="420.059" r="1" fill="rgb(0,0,0)" />
	<circle cx="608.474" cy="118.318" r="1" fill="rgb(0,0,0)" />
	<circle cx="630.36" cy="530.916" r="1" fill="rgb(0,0,0)" />
	<circle cx="639.304" cy="189.78" r="1" fill="rgb(0,0,0)" />
	<circle cx="661.286" cy="500.847" r="1" fill="rgb(0,0,0)" />
	<circle cx="666.329" cy="397.507" r="1" fill="rgb(0,0,0)" />
	<circle cx="668.422" cy="293.501" r="1" fill="rgb(0,0,0)" />
	<circle cx="745.214" cy="458.883" r="1" fill="rgb(0,0,0)" />
	<circle cx="803.259" cy="786.031" r="1" fill="rgb(0,0,0)" />
	<circle cx="810.206" cy="736.454" r="1" fill="rgb(0,0,0)" />
	<circle cx="860.258" cy="592.387" r="1" fill="rgb(0,0,0)" />
	<circle cx="918.018" cy="566.6" r="1" fill="rgb(0,0,0)" />
	<circle cx="940.189" cy="515.311" r="1" fill="rgb(0,0,0)" />
	<circle cx="1003.56" cy="450.128" r="1" fill="rgb(0,0,0)" />
	<circle cx="1050" cy="595.432" r="1" fill="rgb(0,0,0)" />
</svg>
