<?xml version="1.0" standalone="no" ?>
<!DOCTYPE svg PUBLIC "-//W3C//DTD SVG 1.1//EN" "http://www.w3.org/Graphics/SVG/1.1/DTD/svg11.dtd">
<svg width="1100px" height="541.913px" xmlns="http://www.w3.org/2000/svg" version="1.1" >
	<circle cx="50" cy="312.458" r="1" fill="rgb(0,0,0)" />
	<circle cx="63.3597" cy="340.285" r="1" fill="rgb(0,0,0)" />
	<circle cx="74.3478" cy="250.64" r="1" fill="rgb(0,0,0)" />
	<circle cx="82.253" cy="250.798" r="1" fill="rgb(0,0,0)" />
	<circle cx="83.7549" cy="183.209" r="1" fill="rgb(0,0,0)" />
	<circle cx="107.391" cy="216.648" r="1" fill="rgb(0,0,0)" />
	<circle cx="118.696" cy="312.538" r="1" fill="rgb(0,0,0)" />
	<circle cx="121.7" cy="272.854" r="1" fill="rgb(0,0,0)" />
	<circle cx="123.992" cy="290.877" r="1" fill="rgb(0,0,0)" />
	<circle cx="126.285" cy="480.917" r="1" fill="rgb(0,0,0)" />
	<circle cx="130.158" cy="180.285" r="1" fill="rgb(0,0,0)" />
	<circle cx="132.372" cy="420.364" r="1" fill="rgb(0,0,0)" />
	<circle cx="134.111" cy="271.352" r="1" fill="rgb(0,0,0)" />
	<circle cx="135.059" cy="252.854" r="1" fill="rgb(0,0,0)" />
	<circle cx="143.992" cy="305.423" r="1" fill="rgb(0,0,0)" />
	<circle cx="152.134" cy="444.474" r="1" fill="rgb(0,0,0)" />
	<circle cx="160.04" cy="261.47" r="1" fill="rgb(0,0,0)" />
	<circle cx="170.237" cy="366.055" r="1" fill="rgb(0,0,0)" />
	<circle cx="180.83" cy="320.285" r="1" fill="rgb(0,0,0)" />
	<circle cx="182.253" cy="292.617" r="1" fill="rgb(0,0,0)" />
	<circle cx="183.123" cy="311.668" r="1" fill="rgb(0,0,0)" />
	<circle cx="183.439" cy="240.996" r="1" fill="rgb(0,0,0)" />
	<circle cx="187.945" cy="160.601" r="1" fill="rgb(0,0,0)" />
	<circle cx="188.656" cy="213.249" r="1" fill="rgb(0,0,0)" />
	<circle cx="189.921" cy="339.099" r="1" fill="rgb(0,0,0)" />
	<circle cx="191.423" cy="150.245" r="1" fill="rgb(0,0,0)" />
	<circle cx="196.877" cy="448.585" r="1" fill="rgb(0,0,0)" />
	<circle cx="197.984" cy="350.008" r="1" fill="rgb(0,0,0)" />
	<circle cx="199.091" cy="368.98" r="1" fill="rgb(0,0,0)" />
	<circle cx="207.549" cy="257.043" r="1" fill="rgb(0,0,0)" />
	<circle cx="215.692" cy="377.043" r="1" fill="rgb(0,0,0)" />
	<circle cx="216.877" cy="243.447" r="1" fill="rgb(0,0,0)" />
	<circle cx="226.838" cy="81.2332" r="1" fill="rgb(0,0,0)" />
	<circle cx="232.767" cy="296.095" r="1" fill="rgb(0,0,0)" />
	<circle cx="237.194" cy="248.19" r="1" fill="rgb(0,0,0)" />
	<circle cx="241.779" cy="453.881" r="1" fill="rgb(0,0,0)" />
	<circle cx="255.929" cy="215.937" r="1" fill="rgb(0,0,0)" />
	<circle cx="256.877" cy="57.834" r="1" fill="rgb(0,0,0)" />
	<circle cx="257.589" cy="205.66" r="1" fill="rgb(0,0,0)" />
	<circle cx="271.502" cy="207.162" r="1" fill="rgb(0,0,0)" />
	<circle cx="275.059" cy="264.474" r="1" fill="rgb(0,0,0)" />
	<circle cx="288.103" cy="301.708" r="1" fill="rgb(0,0,0)" />
	<circle cx="296.719" cy="358.466" r="1" fill="rgb(0,0,0)" />
	<circle cx="302.727" cy="53.8814" r="1" fill="rgb(0,0,0)" />
	<circle cx="306.364" cy="168.269" r="1" fill="rgb(0,0,0)" />
	<circle cx="307.628" cy="180.68" r="1" fill="rgb(0,0,0)" />
	<circle cx="308.498" cy="459.731" r="1" fill="rgb(0,0,0)" />
	<circle cx="308.656" cy="148.269" r="1" fill="rgb(0,0,0)" />
	<circle cx="308.893" cy="440.364" r="1" fill="rgb(0,0,0)" />
	<circle cx="310.474" cy="161.391" r="1" fill="rgb(0,0,0)" />
	<circle cx="313.083" cy="489.455" r="1" fill="rgb(0,0,0)" />
	<circle cx="316.798" cy="172.063" r="1" fill="rgb(0,0,0)" />
	<circle cx="321.621" cy="228.111" r="1" fill="rgb(0,0,0)" />
	<circle cx="324.783" cy="187.953" r="1" fill="rgb(0,0,0)" />
	<circle cx="342.332" cy="367.874" r="1" fill="rgb(0,0,0)" />
	<circle cx="351.581" cy="354.751" r="1" fill="rgb(0,0,0)" />
	<circle cx="352.213" cy="366.372" r="1" fill="rgb(0,0,0)" />
	<circle cx="354.664" cy="139.81" r="1" fill="rgb(0,0,0)" />
	<circle cx="361.067" cy="103.842" r="1" fill="rgb(0,0,0)" />
	<circle cx="369.605" cy="45.1067" r="1" fill="rgb(0,0,0)" />
	<circle cx="378.696" cy="51.3518" r="1" fill="rgb(0,0,0)" />
	<circle cx="380.593" cy="40.917" r="1" fill="rgb(0,0,0)" />
	<circle cx="382.49" cy="281.945" r="1" fill="rgb(0,0,0)" />
	<circle cx="382.806" cy="305.344" r="1" fill="rgb(0,0,0)" />
	<circle cx="384.941" cy="297.36" r="1" fill="rgb(0,0,0)" />
	<circle cx="388.893" cy="302.024" r="1" fill="rgb(0,0,0)" />
	<circle cx="390.316" cy="365.423" r="1" fill="rgb(0,0,0)" />
	<circle cx="390.474" cy="306.451" r="1" fill="rgb(0,0,0)" />
	<circle cx="391.265" cy="294.119" r="1" fill="rgb(0,0,0)" />
	<circle cx="396.324" cy="281.312" r="1" fill="rgb(0,0,0)" />
	<circle cx="411.107" cy="66.6877" r="1" fill="rgb(0,0,0)" />
	<circle cx="420.751" cy="171.826" r="1" fill="rgb(0,0,0)" />
	<circle cx="423.992" cy="122.419" r="1" fill="rgb(0,0,0)" />
	<circle cx="425.099" cy="370.245" r="1" fill="rgb(0,0,0)" />
	<circle cx="425.336" cy="207.083" r="1" fill="rgb(0,0,0)" />
	<circle cx="432.213" cy="321.628" r="1" fill="rgb(0,0,0)" />
	<circle cx="432.292" cy="351.668" r="1" fill="rgb(0,0,0)" />
	<circle cx="433.636" cy="512.617" r="1" fill="rgb(0,0,0)" />
	<circle cx="442.964" cy="410.008" r="1" fill="rgb(0,0,0)" />
	<circle cx="445.652" cy="395.383" r="1" fill="rgb(0,0,0)" />
	<circle cx="453.083" cy="517.281" r="1" fill="rgb(0,0,0)" />
	<circle cx="455.929" cy="305.976" r="1" fill="rgb(0,0,0)" />
	<circle cx="457.352" cy="386.846" r="1" fill="rgb(0,0,0)" />
	<circle cx="458.063" cy="478.862" r="1" fill="rgb(0,0,0)" />
	<circle cx="462.49" cy="465.976" r="1" fill="rgb(0,0,0)" />
	<circle cx="465.178" cy="368.032" r="1" fill="rgb(0,0,0)" />
	<circle cx="466.759" cy="259.889" r="1" fill="rgb(0,0,0)" />
	<circle cx="467.075" cy="128.506" r="1" fill="rgb(0,0,0)" />
	<circle cx="467.945" cy="435.779" r="1" fill="rgb(0,0,0)" />
	<circle cx="469.605" cy="408.111" r="1" fill="rgb(0,0,0)" />
	<circle cx="470.791" cy="337.518" r="1" fill="rgb(0,0,0)" />
	<circle cx="475.85" cy="462.261" r="1" fill="rgb(0,0,0)" />
	<circle cx="485.889" cy="309.85" r="1" fill="rgb(0,0,0)" />
	<circle cx="498.458" cy="108.427" r="1" fill="rgb(0,0,0)" />
	<circle cx="503.518" cy="108.348" r="1" fill="rgb(0,0,0)" />
	<circle cx="504.625" cy="276.174" r="1" fill="rgb(0,0,0)" />
	<circle cx="508.814" cy="281.391" r="1" fill="rgb(0,0,0)" />
	<circle cx="514.506" cy="363.289" r="1" fill="rgb(0,0,0)" />
	<circle cx="520.672" cy="499.336" r="1" fill="rgb(0,0,0)" />
	<circle cx="522.806" cy="493.012" r="1" fill="rgb(0,0,0)" />
	<circle cx="529.684" cy="440.126" r="1" fill="rgb(0,0,0)" />
	<circle cx="533.083" cy="329.929" r="1" fill="rgb(0,0,0)" />
	<circle cx="538.538" cy="414.119" r="1" fill="rgb(0,0,0)" />
	<circle cx="543.123" cy="213.328" r="1" fill="rgb(0,0,0)" />
	<circle cx="555.85" cy="455.937" r="1" fill="rgb(0,0,0)" />
	<circle cx="558.696" cy="129.217" r="1" fill="rgb(0,0,0)" />
	<circle cx="559.881" cy="164.553" r="1" fill="rgb(0,0,0)" />
	<circle cx="565.889" cy="387.557" r="1" fill="rgb(0,0,0)" />
	<circle cx="566.759" cy="433.091" r="1" fill="rgb(0,0,0)" />
	<circle cx="567.47" cy="307.636" r="1" fill="rgb(0,0,0)" />
	<circle cx="568.261" cy="310.719" r="1" fill="rgb(0,0,0)" />
	<circle cx="572.767" cy="375.858" r="1" fill="rgb(0,0,0)" />
	<circle cx="574.506" cy="509.138" r="1" fill="rgb(0,0,0)" />
	<circle cx="578.617" cy="345.739" r="1" fill="rgb(0,0,0)" />
	<circle cx="579.565" cy="421.233" r="1" fill="rgb(0,0,0)" />
	<circle cx="580.277" cy="302.656" r="1" fill="rgb(0,0,0)" />
	<circle cx="586.838" cy="265.028" r="1" fill="rgb(0,0,0)" />
	<circle cx="588.577" cy="293.091" r="1" fill="rgb(0,0,0)" />
	<circle cx="590.949" cy="381.075" r="1" fill="rgb(0,0,0)" />
	<circle cx="592.292" cy="225.186" r="1" fill="rgb(0,0,0)" />
	<circle cx="594.585" cy="487.32" r="1" fill="rgb(0,0,0)" />
	<circle cx="595.929" cy="296.648" r="1" fill="rgb(0,0,0)" />
	<circle cx="596.64" cy="313.328" r="1" fill="rgb(0,0,0)" />
	<circle cx="597.668" cy="217.043" r="1" fill="rgb(0,0,0)" />
	<circle cx="602.727" cy="439.494" r="1" fill="rgb(0,0,0)" />
	<circle cx="611.107" cy="262.261" r="1" fill="rgb(0,0,0)" />
	<circle cx="612.53" cy="240.838" r="1" fill="rgb(0,0,0)" />
	<circle cx="615.534" cy="458.704" r="1" fill="rgb(0,0,0)" />
	<circle cx="616.166" cy="514.04" r="1" fill="rgb(0,0,0)" />
	<circle cx="616.957" cy="349.217" r="1" fill="rgb(0,0,0)" />
	<circle cx="619.802" cy="328.111" r="1" fill="rgb(0,0,0)" />
	<circle cx="635.455" cy="219.968" r="1" fill="rgb(0,0,0)" />
	<circle cx="641.462" cy="334.198" r="1" fill="rgb(0,0,0)" />
	<circle cx="643.36" cy="380.206" r="1" fill="rgb(0,0,0)" />
	<circle cx="643.992" cy="334.04" r="1" fill="rgb(0,0,0)" />
	<circle cx="644.466" cy="322.498" r="1" fill="rgb(0,0,0)" />
	<circle cx="645.099" cy="414.04" r="1" fill="rgb(0,0,0)" />
	<circle cx="647.47" cy="347.004" r="1" fill="rgb(0,0,0)" />
	<circle cx="660.83" cy="403.13" r="1" fill="rgb(0,0,0)" />
	<circle cx="662.174" cy="360.047" r="1" fill="rgb(0,0,0)" />
	<circle cx="665.178" cy="24.6324" r="1" fill="rgb(0,0,0)" />
	<circle cx="668.103" cy="415.383" r="1" fill="rgb(0,0,0)" />
	<circle cx="673.636" cy="286.609" r="1" fill="rgb(0,0,0)" />
	<circle cx="674.111" cy="517.043" r="1" fill="rgb(0,0,0)" />
	<circle cx="685.731" cy="108.032" r="1" fill="rgb(0,0,0)" />
	<circle cx="694.19" cy="38.3083" r="1" fill="rgb(0,0,0)" />
	<circle cx="695.613" cy="254.988" r="1" fill="rgb(0,0,0)" />
	<circle cx="710.316" cy="396.885" r="1" fill="rgb(0,0,0)" />
	<circle cx="711.344" cy="206.688" r="1" fill="rgb(0,0,0)" />
	<circle cx="715.059" cy="326.213" r="1" fill="rgb(0,0,0)" />
	<circle cx="726.364" cy="488.269" r="1" fill="rgb(0,0,0)" />
	<circle cx="727.154" cy="253.644" r="1" fill="rgb(0,0,0)" />
	<circle cx="730.237" cy="187.478" r="1" fill="rgb(0,0,0)" />
	<circle cx="731.186" cy="416.806" r="1" fill="rgb(0,0,0)" />
	<circle cx="732.055" cy="190.877" r="1" fill="rgb(0,0,0)" />
	<circle cx="745.415" cy="484.553" r="1" fill="rgb(0,0,0)" />
	<circle cx="753.399" cy="238.229" r="1" fill="rgb(0,0,0)" />
	<circle cx="754.585" cy="314.119" r="1" fill="rgb(0,0,0)" />
	<circle cx="755.296" cy="107.241" r="1" fill="rgb(0,0,0)" />
	<circle cx="756.008" cy="294.593" r="1" fill="rgb(0,0,0)" />
	<circle cx="762.727" cy="378.387" r="1" fill="rgb(0,0,0)" />
	<circle cx="766.443" cy="339.257" r="1" fill="rgb(0,0,0)" />
	<circle cx="767.154" cy="121.075" r="1" fill="rgb(0,0,0)" />
	<circle cx="770.87" cy="496.016" r="1" fill="rgb(0,0,0)" />
	<circle cx="771.897" cy="180.047" r="1" fill="rgb(0,0,0)" />
	<circle cx="774.506" cy="114.198" r="1" fill="rgb(0,0,0)" />
	<circle cx="781.621" cy="500.206" r="1" fill="rgb(0,0,0)" />
	<circle cx="806.126" cy="295.462" r="1" fill="rgb(0,0,0)" />
	<circle cx="808.735" cy="444.87" r="1" fill="rgb(0,0,0)" />
	<circle cx="816.008" cy="310.166" r="1" fill="rgb(0,0,0)" />
	<circle cx="816.561" cy="419.178" r="1" fill="rgb(0,0,0)" />
	<circle cx="835.138" cy="400.364" r="1" fill="rgb(0,0,0)" />
	<circle cx="838.142" cy="339.652" r="1" fill="rgb(0,0,0)" />
	<circle cx="850.158" cy="299.178" r="1" fill="rgb(0,0,0)" />
	<circle cx="853.241" cy="341.549" r="1" fill="rgb(0,0,0)" />
	<circle cx="858.142" cy="320.364" r="1" fill="rgb(0,0,0)" />
	<circle cx="882.964" cy="396.885" r="1" fill="rgb(0,0,0)" />
	<circle cx="886.759" cy="400.759" r="1" fill="rgb(0,0,0)" />
	<circle cx="893.636" cy="127.162" r="1" fill="rgb(0,0,0)" />
	<circle cx="907.945" cy="38.3874" r="1" fill="rgb(0,0,0)" />
	<circle cx="911.265" cy="205.502" r="1" fill="rgb(0,0,0)" />
	<circle cx="926.364" cy="274.435" r="1" fill="rgb(0,0,0)" />
	<circle cx="934.585" cy="238.387" r="1" fill="rgb(0,0,0)" />
	<circle cx="936.877" cy="406.767" r="1" fill="rgb(0,0,0)" />
	<circle cx="945.889" cy="497.834" r="1" fill="rgb(0,0,0)" />
	<circle cx="953.32" cy="371.352" r="1" fill="rgb(0,0,0)" />
	<circle cx="955.138" cy="230.324" r="1" fill="rgb(0,0,0)" />
	<circle cx="968.498" cy="229.455" r="1" fill="rgb(0,0,0)" />
	<circle cx="974.427" cy="450.087" r="1" fill="rgb(0,0,0)" />
	<circle cx="996.008" cy="260.364" r="1" fill="rgb(0,0,0)" />
	<circle cx="1001.38" cy="490.324" r="1" fill="rgb(0,0,0)" />
	<circle cx="1010.24" cy="290.798" r="1" fill="rgb(0,0,0)" />
	<circle cx="1014.11" cy="281.787" r="1" fill="rgb(0,0,0)" />
	<circle cx="1016.4" cy="208.743" r="1" fill="rgb(0,0,0)" />
	<circle cx="1023.04" cy="447.241" r="1" fill="rgb(0,0,0)" />
	<circle cx="1040.51" cy="215.462" r="1" fill="rgb(0,0,0)" />
	<circle cx="1042.41" cy="372.3" r="1" fill="rgb(0,0,0)" />
	<circle cx="1048.34" cy="186.688" r="1" fill="rgb(0,0,0)" />
	<circle cx="1048.66" cy="208.032" r="1" fill="rgb(0,0,0)" />
	<circle cx="1050" cy="314.593" r="1" fill="rgb(0,0,0)" />
</svg>
