<?xml version="1.0" standalone="no" ?>
<!DOCTYPE svg PUBLIC "-//W3C//DTD SVG 1.1//EN" "http://www.w3.org/Graphics/SVG/1.1/DTD/svg11.dtd">
<svg width="1100px" height="574.657px" xmlns="http://www.w3.org/2000/svg" version="1.1" >
	<circle cx="50" cy="275.944" r="1" fill="rgb(0,0,0)" />
	<circle cx="50.6281" cy="222.085" r="1" fill="rgb(0,0,0)" />
	<circle cx="52.4339" cy="265.659" r="1" fill="rgb(0,0,0)" />
	<circle cx="53.376" cy="266.523" r="1" fill="rgb(0,0,0)" />
	<circle cx="53.4545" cy="225.54" r="1" fill="rgb(0,0,0)" />
	<circle cx="54.0826" cy="421.426" r="1" fill="rgb(0,0,0)" />
	<circle cx="58.1652" cy="548.536" r="1" fill="rgb(0,0,0)" />
	<circle cx="58.7933" cy="484.706" r="1" fill="rgb(0,0,0)" />
	<circle cx="59.1073" cy="342.129" r="1" fill="rgb(0,0,0)" />
	<circle cx="60.128" cy="339.852" r="1" fill="rgb(0,0,0)" />
	<circle cx="60.2065" cy="355.555" r="1" fill="rgb(0,0,0)" />
	<circle cx="62.3263" cy="465.706" r="1" fill="rgb(0,0,0)" />
	<circle cx="66.0163" cy="519.172" r="1" fill="rgb(0,0,0)" />
	<circle cx="68.3717" cy="327.919" r="1" fill="rgb(0,0,0)" />
	<circle cx="69.7849" cy="417.893" r="1" fill="rgb(0,0,0)" />
	<circle cx="70.9626" cy="287.642" r="1" fill="rgb(0,0,0)" />
	<circle cx="71.1981" cy="366.232" r="1" fill="rgb(0,0,0)" />
	<circle cx="73.0038" cy="390.728" r="1" fill="rgb(0,0,0)" />
	<circle cx="73.946" cy="380.05" r="1" fill="rgb(0,0,0)" />
	<circle cx="74.103" cy="340.245" r="1" fill="rgb(0,0,0)" />
	<circle cx="76.4583" cy="344.485" r="1" fill="rgb(0,0,0)" />
	<circle cx="76.9294" cy="449.533" r="1" fill="rgb(0,0,0)" />
	<circle cx="80.0699" cy="528.515" r="1" fill="rgb(0,0,0)" />
	<circle cx="82.0327" cy="548.457" r="1" fill="rgb(0,0,0)" />
	<circle cx="82.0327" cy="437.913" r="1" fill="rgb(0,0,0)" />
	<circle cx="82.5822" cy="535.503" r="1" fill="rgb(0,0,0)" />
	<circle cx="84.3095" cy="439.483" r="1" fill="rgb(0,0,0)" />
	<circle cx="84.7806" cy="501.35" r="1" fill="rgb(0,0,0)" />
	<circle cx="84.7806" cy="361.129" r="1" fill="rgb(0,0,0)" />
	<circle cx="85.5657" cy="336.162" r="1" fill="rgb(0,0,0)" />
	<circle cx="85.9582" cy="435.793" r="1" fill="rgb(0,0,0)" />
	<circle cx="85.9582" cy="380.678" r="1" fill="rgb(0,0,0)" />
	<circle cx="87.3714" cy="335.77" r="1" fill="rgb(0,0,0)" />
	<circle cx="88.3921" cy="274.766" r="1" fill="rgb(0,0,0)" />
	<circle cx="89.2557" cy="542.647" r="1" fill="rgb(0,0,0)" />
	<circle cx="89.6483" cy="360.422" r="1" fill="rgb(0,0,0)" />
	<circle cx="91.0615" cy="459.268" r="1" fill="rgb(0,0,0)" />
	<circle cx="91.0615" cy="391.827" r="1" fill="rgb(0,0,0)" />
	<circle cx="91.297" cy="235.668" r="1" fill="rgb(0,0,0)" />
	<circle cx="91.5325" cy="235.589" r="1" fill="rgb(0,0,0)" />
	<circle cx="92.1606" cy="498.838" r="1" fill="rgb(0,0,0)" />
	<circle cx="93.2598" cy="545.709" r="1" fill="rgb(0,0,0)" />
	<circle cx="93.7309" cy="468.69" r="1" fill="rgb(0,0,0)" />
	<circle cx="96.5573" cy="459.425" r="1" fill="rgb(0,0,0)" />
	<circle cx="97.0283" cy="391.905" r="1" fill="rgb(0,0,0)" />
	<circle cx="97.892" cy="449.297" r="1" fill="rgb(0,0,0)" />
	<circle cx="99.1482" cy="327.762" r="1" fill="rgb(0,0,0)" />
	<circle cx="99.9333" cy="324.778" r="1" fill="rgb(0,0,0)" />
	<circle cx="100.247" cy="342.679" r="1" fill="rgb(0,0,0)" />
	<circle cx="101.661" cy="353.435" r="1" fill="rgb(0,0,0)" />
	<circle cx="105.194" cy="329.803" r="1" fill="rgb(0,0,0)" />
	<circle cx="105.979" cy="293.845" r="1" fill="rgb(0,0,0)" />
	<circle cx="106.999" cy="302.952" r="1" fill="rgb(0,0,0)" />
	<circle cx="110.061" cy="273.667" r="1" fill="rgb(0,0,0)" />
	<circle cx="113.908" cy="255.845" r="1" fill="rgb(0,0,0)" />
	<circle cx="114.85" cy="271.783" r="1" fill="rgb(0,0,0)" />
	<circle cx="117.755" cy="486.669" r="1" fill="rgb(0,0,0)" />
	<circle cx="118.697" cy="289.841" r="1" fill="rgb(0,0,0)" />
	<circle cx="119.64" cy="317.948" r="1" fill="rgb(0,0,0)" />
	<circle cx="121.21" cy="417.108" r="1" fill="rgb(0,0,0)" />
	<circle cx="125.685" cy="459.504" r="1" fill="rgb(0,0,0)" />
	<circle cx="126.863" cy="526.003" r="1" fill="rgb(0,0,0)" />
	<circle cx="129.061" cy="491.772" r="1" fill="rgb(0,0,0)" />
	<circle cx="129.218" cy="446.549" r="1" fill="rgb(0,0,0)" />
	<circle cx="131.809" cy="473.557" r="1" fill="rgb(0,0,0)" />
	<circle cx="133.301" cy="413.732" r="1" fill="rgb(0,0,0)" />
	<circle cx="133.379" cy="530.4" r="1" fill="rgb(0,0,0)" />
	<circle cx="134.086" cy="362.935" r="1" fill="rgb(0,0,0)" />
	<circle cx="135.185" cy="374.868" r="1" fill="rgb(0,0,0)" />
	<circle cx="136.049" cy="256.866" r="1" fill="rgb(0,0,0)" />
	<circle cx="136.049" cy="252.548" r="1" fill="rgb(0,0,0)" />
	<circle cx="136.834" cy="529.3" r="1" fill="rgb(0,0,0)" />
	<circle cx="138.011" cy="453.772" r="1" fill="rgb(0,0,0)" />
	<circle cx="139.032" cy="461.938" r="1" fill="rgb(0,0,0)" />
	<circle cx="139.896" cy="499.859" r="1" fill="rgb(0,0,0)" />
	<circle cx="145.548" cy="151.975" r="1" fill="rgb(0,0,0)" />
	<circle cx="145.941" cy="149.148" r="1" fill="rgb(0,0,0)" />
	<circle cx="146.412" cy="324.229" r="1" fill="rgb(0,0,0)" />
	<circle cx="146.491" cy="458.091" r="1" fill="rgb(0,0,0)" />
	<circle cx="146.726" cy="162.731" r="1" fill="rgb(0,0,0)" />
	<circle cx="148.532" cy="262.911" r="1" fill="rgb(0,0,0)" />
	<circle cx="150.024" cy="337.654" r="1" fill="rgb(0,0,0)" />
	<circle cx="153.635" cy="296.279" r="1" fill="rgb(0,0,0)" />
	<circle cx="154.106" cy="300.283" r="1" fill="rgb(0,0,0)" />
	<circle cx="154.263" cy="543.904" r="1" fill="rgb(0,0,0)" />
	<circle cx="154.263" cy="284.423" r="1" fill="rgb(0,0,0)" />
	<circle cx="154.891" cy="307.192" r="1" fill="rgb(0,0,0)" />
	<circle cx="165.726" cy="161.788" r="1" fill="rgb(0,0,0)" />
	<circle cx="167.846" cy="231.114" r="1" fill="rgb(0,0,0)" />
	<circle cx="170.437" cy="273.589" r="1" fill="rgb(0,0,0)" />
	<circle cx="170.829" cy="459.033" r="1" fill="rgb(0,0,0)" />
	<circle cx="171.143" cy="314.336" r="1" fill="rgb(0,0,0)" />
	<circle cx="173.813" cy="200.809" r="1" fill="rgb(0,0,0)" />
	<circle cx="176.639" cy="392.926" r="1" fill="rgb(0,0,0)" />
	<circle cx="179.622" cy="326.191" r="1" fill="rgb(0,0,0)" />
	<circle cx="182.056" cy="201.044" r="1" fill="rgb(0,0,0)" />
	<circle cx="182.841" cy="294.394" r="1" fill="rgb(0,0,0)" />
	<circle cx="183.469" cy="488.632" r="1" fill="rgb(0,0,0)" />
	<circle cx="187.238" cy="493.264" r="1" fill="rgb(0,0,0)" />
	<circle cx="189.279" cy="71.3433" r="1" fill="rgb(0,0,0)" />
	<circle cx="189.593" cy="216.354" r="1" fill="rgb(0,0,0)" />
	<circle cx="190.221" cy="341.815" r="1" fill="rgb(0,0,0)" />
	<circle cx="191.792" cy="250.035" r="1" fill="rgb(0,0,0)" />
	<circle cx="196.738" cy="279.163" r="1" fill="rgb(0,0,0)" />
	<circle cx="202.626" cy="410.277" r="1" fill="rgb(0,0,0)" />
	<circle cx="202.94" cy="309.154" r="1" fill="rgb(0,0,0)" />
	<circle cx="203.254" cy="326.191" r="1" fill="rgb(0,0,0)" />
	<circle cx="204.589" cy="366.625" r="1" fill="rgb(0,0,0)" />
	<circle cx="206.238" cy="537.78" r="1" fill="rgb(0,0,0)" />
	<circle cx="207.886" cy="299.969" r="1" fill="rgb(0,0,0)" />
	<circle cx="209.143" cy="78.8019" r="1" fill="rgb(0,0,0)" />
	<circle cx="210.87" cy="288.584" r="1" fill="rgb(0,0,0)" />
	<circle cx="210.948" cy="308.055" r="1" fill="rgb(0,0,0)" />
	<circle cx="211.498" cy="515.011" r="1" fill="rgb(0,0,0)" />
	<circle cx="214.01" cy="348.646" r="1" fill="rgb(0,0,0)" />
	<circle cx="217.779" cy="259.143" r="1" fill="rgb(0,0,0)" />
	<circle cx="219.428" cy="306.878" r="1" fill="rgb(0,0,0)" />
	<circle cx="219.977" cy="344.092" r="1" fill="rgb(0,0,0)" />
	<circle cx="220.527" cy="281.047" r="1" fill="rgb(0,0,0)" />
	<circle cx="220.998" cy="393.005" r="1" fill="rgb(0,0,0)" />
	<circle cx="224.374" cy="517.995" r="1" fill="rgb(0,0,0)" />
	<circle cx="231.047" cy="259.221" r="1" fill="rgb(0,0,0)" />
	<circle cx="234.973" cy="234.804" r="1" fill="rgb(0,0,0)" />
	<circle cx="235.13" cy="205.441" r="1" fill="rgb(0,0,0)" />
	<circle cx="236.072" cy="397.166" r="1" fill="rgb(0,0,0)" />
	<circle cx="237.721" cy="547.044" r="1" fill="rgb(0,0,0)" />
	<circle cx="240.155" cy="306.642" r="1" fill="rgb(0,0,0)" />
	<circle cx="240.469" cy="374.319" r="1" fill="rgb(0,0,0)" />
	<circle cx="240.626" cy="286.229" r="1" fill="rgb(0,0,0)" />
	<circle cx="241.803" cy="538.329" r="1" fill="rgb(0,0,0)" />
	<circle cx="242.353" cy="308.683" r="1" fill="rgb(0,0,0)" />
	<circle cx="242.824" cy="548.379" r="1" fill="rgb(0,0,0)" />
	<circle cx="248.555" cy="262.833" r="1" fill="rgb(0,0,0)" />
	<circle cx="249.969" cy="239.122" r="1" fill="rgb(0,0,0)" />
	<circle cx="260.646" cy="133.21" r="1" fill="rgb(0,0,0)" />
	<circle cx="261.353" cy="227.581" r="1" fill="rgb(0,0,0)" />
	<circle cx="271.245" cy="335.848" r="1" fill="rgb(0,0,0)" />
	<circle cx="271.873" cy="122.847" r="1" fill="rgb(0,0,0)" />
	<circle cx="273.601" cy="433.36" r="1" fill="rgb(0,0,0)" />
	<circle cx="275.563" cy="359.323" r="1" fill="rgb(0,0,0)" />
	<circle cx="277.919" cy="310.411" r="1" fill="rgb(0,0,0)" />
	<circle cx="281.766" cy="228.837" r="1" fill="rgb(0,0,0)" />
	<circle cx="282.472" cy="319.361" r="1" fill="rgb(0,0,0)" />
	<circle cx="284.906" cy="252.312" r="1" fill="rgb(0,0,0)" />
	<circle cx="293.935" cy="87.7522" r="1" fill="rgb(0,0,0)" />
	<circle cx="296.683" cy="275.316" r="1" fill="rgb(0,0,0)" />
	<circle cx="298.096" cy="380.678" r="1" fill="rgb(0,0,0)" />
	<circle cx="300.059" cy="220.751" r="1" fill="rgb(0,0,0)" />
	<circle cx="300.687" cy="195.705" r="1" fill="rgb(0,0,0)" />
	<circle cx="301.315" cy="192.172" r="1" fill="rgb(0,0,0)" />
	<circle cx="302.022" cy="509.987" r="1" fill="rgb(0,0,0)" />
	<circle cx="306.418" cy="182.358" r="1" fill="rgb(0,0,0)" />
	<circle cx="307.439" cy="392.926" r="1" fill="rgb(0,0,0)" />
	<circle cx="311.208" cy="472.851" r="1" fill="rgb(0,0,0)" />
	<circle cx="315.212" cy="98.9794" r="1" fill="rgb(0,0,0)" />
	<circle cx="315.447" cy="136.665" r="1" fill="rgb(0,0,0)" />
	<circle cx="315.997" cy="140.747" r="1" fill="rgb(0,0,0)" />
	<circle cx="316.939" cy="257.886" r="1" fill="rgb(0,0,0)" />
	<circle cx="317.017" cy="499.78" r="1" fill="rgb(0,0,0)" />
	<circle cx="317.724" cy="205.441" r="1" fill="rgb(0,0,0)" />
	<circle cx="319.451" cy="177.255" r="1" fill="rgb(0,0,0)" />
	<circle cx="320.001" cy="200.102" r="1" fill="rgb(0,0,0)" />
	<circle cx="320.864" cy="239.358" r="1" fill="rgb(0,0,0)" />
	<circle cx="323.769" cy="289.448" r="1" fill="rgb(0,0,0)" />
	<circle cx="324.162" cy="135.801" r="1" fill="rgb(0,0,0)" />
	<circle cx="328.244" cy="199.71" r="1" fill="rgb(0,0,0)" />
	<circle cx="332.406" cy="438.306" r="1" fill="rgb(0,0,0)" />
	<circle cx="334.761" cy="358.146" r="1" fill="rgb(0,0,0)" />
	<circle cx="344.81" cy="272.254" r="1" fill="rgb(0,0,0)" />
	<circle cx="347.951" cy="391.984" r="1" fill="rgb(0,0,0)" />
	<circle cx="351.013" cy="154.094" r="1" fill="rgb(0,0,0)" />
	<circle cx="353.604" cy="169.247" r="1" fill="rgb(0,0,0)" />
	<circle cx="354.86" cy="158.648" r="1" fill="rgb(0,0,0)" />
	<circle cx="356.352" cy="399.05" r="1" fill="rgb(0,0,0)" />
	<circle cx="358.628" cy="174.743" r="1" fill="rgb(0,0,0)" />
	<circle cx="359.571" cy="364.662" r="1" fill="rgb(0,0,0)" />
	<circle cx="361.612" cy="398.265" r="1" fill="rgb(0,0,0)" />
	<circle cx="365.145" cy="157.784" r="1" fill="rgb(0,0,0)" />
	<circle cx="366.008" cy="155.429" r="1" fill="rgb(0,0,0)" />
	<circle cx="367.422" cy="346.761" r="1" fill="rgb(0,0,0)" />
	<circle cx="369.227" cy="304.444" r="1" fill="rgb(0,0,0)" />
	<circle cx="369.62" cy="482.586" r="1" fill="rgb(0,0,0)" />
	<circle cx="372.289" cy="113.111" r="1" fill="rgb(0,0,0)" />
	<circle cx="372.525" cy="95.2108" r="1" fill="rgb(0,0,0)" />
	<circle cx="372.996" cy="290.783" r="1" fill="rgb(0,0,0)" />
	<circle cx="375.351" cy="92.0703" r="1" fill="rgb(0,0,0)" />
	<circle cx="375.665" cy="248.858" r="1" fill="rgb(0,0,0)" />
	<circle cx="376.843" cy="387.901" r="1" fill="rgb(0,0,0)" />
	<circle cx="378.335" cy="528.28" r="1" fill="rgb(0,0,0)" />
	<circle cx="379.748" cy="451.81" r="1" fill="rgb(0,0,0)" />
	<circle cx="380.062" cy="116.095" r="1" fill="rgb(0,0,0)" />
	<circle cx="380.612" cy="98.8223" r="1" fill="rgb(0,0,0)" />
	<circle cx="386.264" cy="135.33" r="1" fill="rgb(0,0,0)" />
	<circle cx="387.442" cy="490.045" r="1" fill="rgb(0,0,0)" />
	<circle cx="387.992" cy="317.241" r="1" fill="rgb(0,0,0)" />
	<circle cx="391.525" cy="310.568" r="1" fill="rgb(0,0,0)" />
	<circle cx="392.545" cy="336.398" r="1" fill="rgb(0,0,0)" />
	<circle cx="393.252" cy="97.0166" r="1" fill="rgb(0,0,0)" />
	<circle cx="394.508" cy="292.824" r="1" fill="rgb(0,0,0)" />
	<circle cx="395.607" cy="81.8639" r="1" fill="rgb(0,0,0)" />
	<circle cx="395.764" cy="496.483" r="1" fill="rgb(0,0,0)" />
	<circle cx="402.045" cy="521.763" r="1" fill="rgb(0,0,0)" />
	<circle cx="402.359" cy="374.319" r="1" fill="rgb(0,0,0)" />
	<circle cx="402.359" cy="374.083" r="1" fill="rgb(0,0,0)" />
	<circle cx="402.909" cy="412.397" r="1" fill="rgb(0,0,0)" />
	<circle cx="404.793" cy="512.578" r="1" fill="rgb(0,0,0)" />
	<circle cx="408.326" cy="95.8389" r="1" fill="rgb(0,0,0)" />
	<circle cx="409.739" cy="294.944" r="1" fill="rgb(0,0,0)" />
	<circle cx="414.764" cy="385.939" r="1" fill="rgb(0,0,0)" />
	<circle cx="417.905" cy="500.801" r="1" fill="rgb(0,0,0)" />
	<circle cx="420.966" cy="349.823" r="1" fill="rgb(0,0,0)" />
	<circle cx="421.359" cy="492.793" r="1" fill="rgb(0,0,0)" />
	<circle cx="421.673" cy="354.613" r="1" fill="rgb(0,0,0)" />
	<circle cx="423.165" cy="421.112" r="1" fill="rgb(0,0,0)" />
	<circle cx="424.421" cy="221.379" r="1" fill="rgb(0,0,0)" />
	<circle cx="426.698" cy="392.062" r="1" fill="rgb(0,0,0)" />
	<circle cx="427.483" cy="461.545" r="1" fill="rgb(0,0,0)" />
	<circle cx="429.289" cy="421.74" r="1" fill="rgb(0,0,0)" />
	<circle cx="430.859" cy="398.422" r="1" fill="rgb(0,0,0)" />
	<circle cx="431.33" cy="170.032" r="1" fill="rgb(0,0,0)" />
	<circle cx="431.958" cy="449.533" r="1" fill="rgb(0,0,0)" />
	<circle cx="432.272" cy="345.505" r="1" fill="rgb(0,0,0)" />
	<circle cx="433.214" cy="403.761" r="1" fill="rgb(0,0,0)" />
	<circle cx="433.842" cy="307.035" r="1" fill="rgb(0,0,0)" />
	<circle cx="434.078" cy="300.204" r="1" fill="rgb(0,0,0)" />
	<circle cx="435.727" cy="474.185" r="1" fill="rgb(0,0,0)" />
	<circle cx="437.061" cy="440.19" r="1" fill="rgb(0,0,0)" />
	<circle cx="440.437" cy="502.921" r="1" fill="rgb(0,0,0)" />
	<circle cx="441.222" cy="392.691" r="1" fill="rgb(0,0,0)" />
	<circle cx="441.772" cy="242.42" r="1" fill="rgb(0,0,0)" />
	<circle cx="442.322" cy="347.625" r="1" fill="rgb(0,0,0)" />
	<circle cx="446.326" cy="457.227" r="1" fill="rgb(0,0,0)" />
	<circle cx="448.76" cy="258.279" r="1" fill="rgb(0,0,0)" />
	<circle cx="451.9" cy="303.188" r="1" fill="rgb(0,0,0)" />
	<circle cx="452.685" cy="306.171" r="1" fill="rgb(0,0,0)" />
	<circle cx="453.313" cy="384.133" r="1" fill="rgb(0,0,0)" />
	<circle cx="457.396" cy="496.718" r="1" fill="rgb(0,0,0)" />
	<circle cx="457.396" cy="204.42" r="1" fill="rgb(0,0,0)" />
	<circle cx="458.573" cy="449.611" r="1" fill="rgb(0,0,0)" />
	<circle cx="460.301" cy="406.195" r="1" fill="rgb(0,0,0)" />
	<circle cx="461.4" cy="368.195" r="1" fill="rgb(0,0,0)" />
	<circle cx="461.871" cy="427.55" r="1" fill="rgb(0,0,0)" />
	<circle cx="462.263" cy="323.836" r="1" fill="rgb(0,0,0)" />
	<circle cx="464.933" cy="345.584" r="1" fill="rgb(0,0,0)" />
	<circle cx="466.66" cy="421.504" r="1" fill="rgb(0,0,0)" />
	<circle cx="467.288" cy="399.05" r="1" fill="rgb(0,0,0)" />
	<circle cx="467.916" cy="351.001" r="1" fill="rgb(0,0,0)" />
	<circle cx="469.801" cy="408.942" r="1" fill="rgb(0,0,0)" />
	<circle cx="469.958" cy="378.559" r="1" fill="rgb(0,0,0)" />
	<circle cx="472.234" cy="510.301" r="1" fill="rgb(0,0,0)" />
	<circle cx="472.313" cy="296.671" r="1" fill="rgb(0,0,0)" />
	<circle cx="473.491" cy="512.813" r="1" fill="rgb(0,0,0)" />
	<circle cx="473.726" cy="430.769" r="1" fill="rgb(0,0,0)" />
	<circle cx="475.061" cy="410.513" r="1" fill="rgb(0,0,0)" />
	<circle cx="475.453" cy="312.059" r="1" fill="rgb(0,0,0)" />
	<circle cx="475.61" cy="480.545" r="1" fill="rgb(0,0,0)" />
	<circle cx="477.966" cy="505.826" r="1" fill="rgb(0,0,0)" />
	<circle cx="478.28" cy="320.382" r="1" fill="rgb(0,0,0)" />
	<circle cx="479.065" cy="395.124" r="1" fill="rgb(0,0,0)" />
	<circle cx="483.383" cy="466.648" r="1" fill="rgb(0,0,0)" />
	<circle cx="488.251" cy="545.238" r="1" fill="rgb(0,0,0)" />
	<circle cx="488.408" cy="423.624" r="1" fill="rgb(0,0,0)" />
	<circle cx="493.04" cy="355.319" r="1" fill="rgb(0,0,0)" />
	<circle cx="493.59" cy="348.881" r="1" fill="rgb(0,0,0)" />
	<circle cx="495.474" cy="467.669" r="1" fill="rgb(0,0,0)" />
	<circle cx="496.651" cy="537.858" r="1" fill="rgb(0,0,0)" />
	<circle cx="499.164" cy="372.592" r="1" fill="rgb(0,0,0)" />
	<circle cx="499.87" cy="442.467" r="1" fill="rgb(0,0,0)" />
	<circle cx="504.11" cy="442.938" r="1" fill="rgb(0,0,0)" />
	<circle cx="505.052" cy="291.018" r="1" fill="rgb(0,0,0)" />
	<circle cx="505.68" cy="505.904" r="1" fill="rgb(0,0,0)" />
	<circle cx="507.722" cy="341.894" r="1" fill="rgb(0,0,0)" />
	<circle cx="510.862" cy="508.024" r="1" fill="rgb(0,0,0)" />
	<circle cx="511.961" cy="334.671" r="1" fill="rgb(0,0,0)" />
	<circle cx="514.238" cy="435.95" r="1" fill="rgb(0,0,0)" />
	<circle cx="514.552" cy="509.516" r="1" fill="rgb(0,0,0)" />
	<circle cx="515.023" cy="451.339" r="1" fill="rgb(0,0,0)" />
	<circle cx="516.515" cy="313.237" r="1" fill="rgb(0,0,0)" />
	<circle cx="518.713" cy="503.235" r="1" fill="rgb(0,0,0)" />
	<circle cx="519.106" cy="488.16" r="1" fill="rgb(0,0,0)" />
	<circle cx="519.891" cy="143.574" r="1" fill="rgb(0,0,0)" />
	<circle cx="520.126" cy="496.326" r="1" fill="rgb(0,0,0)" />
	<circle cx="520.833" cy="460.446" r="1" fill="rgb(0,0,0)" />
	<circle cx="527.114" cy="352.964" r="1" fill="rgb(0,0,0)" />
	<circle cx="528.527" cy="362.228" r="1" fill="rgb(0,0,0)" />
	<circle cx="528.684" cy="472.066" r="1" fill="rgb(0,0,0)" />
	<circle cx="529.312" cy="367.645" r="1" fill="rgb(0,0,0)" />
	<circle cx="532.139" cy="420.17" r="1" fill="rgb(0,0,0)" />
	<circle cx="532.374" cy="403.525" r="1" fill="rgb(0,0,0)" />
	<circle cx="533.709" cy="274.531" r="1" fill="rgb(0,0,0)" />
	<circle cx="533.866" cy="508.966" r="1" fill="rgb(0,0,0)" />
	<circle cx="536.535" cy="275.237" r="1" fill="rgb(0,0,0)" />
	<circle cx="537.713" cy="333.886" r="1" fill="rgb(0,0,0)" />
	<circle cx="540.618" cy="249.407" r="1" fill="rgb(0,0,0)" />
	<circle cx="540.932" cy="231.821" r="1" fill="rgb(0,0,0)" />
	<circle cx="545.878" cy="510.301" r="1" fill="rgb(0,0,0)" />
	<circle cx="547.37" cy="357.439" r="1" fill="rgb(0,0,0)" />
	<circle cx="547.37" cy="238.102" r="1" fill="rgb(0,0,0)" />
	<circle cx="548.469" cy="205.048" r="1" fill="rgb(0,0,0)" />
	<circle cx="550.118" cy="255.453" r="1" fill="rgb(0,0,0)" />
	<circle cx="550.981" cy="270.056" r="1" fill="rgb(0,0,0)" />
	<circle cx="551.374" cy="454.401" r="1" fill="rgb(0,0,0)" />
	<circle cx="551.609" cy="458.719" r="1" fill="rgb(0,0,0)" />
	<circle cx="553.572" cy="396.145" r="1" fill="rgb(0,0,0)" />
	<circle cx="555.928" cy="517.995" r="1" fill="rgb(0,0,0)" />
	<circle cx="555.928" cy="256.63" r="1" fill="rgb(0,0,0)" />
	<circle cx="557.027" cy="413.339" r="1" fill="rgb(0,0,0)" />
	<circle cx="557.262" cy="546.102" r="1" fill="rgb(0,0,0)" />
	<circle cx="559.853" cy="79.9796" r="1" fill="rgb(0,0,0)" />
	<circle cx="560.481" cy="174.821" r="1" fill="rgb(0,0,0)" />
	<circle cx="560.56" cy="96.781" r="1" fill="rgb(0,0,0)" />
	<circle cx="560.717" cy="236.688" r="1" fill="rgb(0,0,0)" />
	<circle cx="563.229" cy="219.887" r="1" fill="rgb(0,0,0)" />
	<circle cx="563.857" cy="315.2" r="1" fill="rgb(0,0,0)" />
	<circle cx="564.956" cy="215.804" r="1" fill="rgb(0,0,0)" />
	<circle cx="566.448" cy="341.423" r="1" fill="rgb(0,0,0)" />
	<circle cx="566.998" cy="261.419" r="1" fill="rgb(0,0,0)" />
	<circle cx="567.312" cy="211.722" r="1" fill="rgb(0,0,0)" />
	<circle cx="569.196" cy="259.143" r="1" fill="rgb(0,0,0)" />
	<circle cx="571.63" cy="268.093" r="1" fill="rgb(0,0,0)" />
	<circle cx="573.514" cy="529.457" r="1" fill="rgb(0,0,0)" />
	<circle cx="573.828" cy="540.292" r="1" fill="rgb(0,0,0)" />
	<circle cx="574.613" cy="540.057" r="1" fill="rgb(0,0,0)" />
	<circle cx="575.634" cy="194.528" r="1" fill="rgb(0,0,0)" />
	<circle cx="575.87" cy="539.193" r="1" fill="rgb(0,0,0)" />
	<circle cx="578.303" cy="297.535" r="1" fill="rgb(0,0,0)" />
	<circle cx="580.894" cy="357.203" r="1" fill="rgb(0,0,0)" />
	<circle cx="581.836" cy="302.167" r="1" fill="rgb(0,0,0)" />
	<circle cx="586.39" cy="435.95" r="1" fill="rgb(0,0,0)" />
	<circle cx="590.708" cy="299.341" r="1" fill="rgb(0,0,0)" />
	<circle cx="591.572" cy="494.755" r="1" fill="rgb(0,0,0)" />
	<circle cx="591.807" cy="432.103" r="1" fill="rgb(0,0,0)" />
	<circle cx="592.121" cy="376.046" r="1" fill="rgb(0,0,0)" />
	<circle cx="592.828" cy="366.939" r="1" fill="rgb(0,0,0)" />
	<circle cx="593.927" cy="282.304" r="1" fill="rgb(0,0,0)" />
	<circle cx="594.948" cy="294.002" r="1" fill="rgb(0,0,0)" />
	<circle cx="596.44" cy="333.1" r="1" fill="rgb(0,0,0)" />
	<circle cx="597.617" cy="462.487" r="1" fill="rgb(0,0,0)" />
	<circle cx="599.344" cy="273.981" r="1" fill="rgb(0,0,0)" />
	<circle cx="599.501" cy="423.86" r="1" fill="rgb(0,0,0)" />
	<circle cx="600.444" cy="336.712" r="1" fill="rgb(0,0,0)" />
	<circle cx="601.621" cy="292.431" r="1" fill="rgb(0,0,0)" />
	<circle cx="603.427" cy="436.343" r="1" fill="rgb(0,0,0)" />
	<circle cx="605.39" cy="139.413" r="1" fill="rgb(0,0,0)" />
	<circle cx="605.468" cy="151.896" r="1" fill="rgb(0,0,0)" />
	<circle cx="606.96" cy="425.979" r="1" fill="rgb(0,0,0)" />
	<circle cx="608.138" cy="362.935" r="1" fill="rgb(0,0,0)" />
	<circle cx="608.295" cy="338.204" r="1" fill="rgb(0,0,0)" />
	<circle cx="610.65" cy="446.078" r="1" fill="rgb(0,0,0)" />
	<circle cx="611.278" cy="375.968" r="1" fill="rgb(0,0,0)" />
	<circle cx="611.671" cy="254.51" r="1" fill="rgb(0,0,0)" />
	<circle cx="614.576" cy="508.809" r="1" fill="rgb(0,0,0)" />
	<circle cx="614.654" cy="363.798" r="1" fill="rgb(0,0,0)" />
	<circle cx="615.047" cy="425.43" r="1" fill="rgb(0,0,0)" />
	<circle cx="616.852" cy="84.0622" r="1" fill="rgb(0,0,0)" />
	<circle cx="617.009" cy="326.662" r="1" fill="rgb(0,0,0)" />
	<circle cx="618.423" cy="310.725" r="1" fill="rgb(0,0,0)" />
	<circle cx="619.679" cy="110.364" r="1" fill="rgb(0,0,0)" />
	<circle cx="620.071" cy="335.848" r="1" fill="rgb(0,0,0)" />
	<circle cx="620.464" cy="355.005" r="1" fill="rgb(0,0,0)" />
	<circle cx="622.348" cy="306.878" r="1" fill="rgb(0,0,0)" />
	<circle cx="623.604" cy="502.764" r="1" fill="rgb(0,0,0)" />
	<circle cx="624.311" cy="26.1208" r="1" fill="rgb(0,0,0)" />
	<circle cx="624.39" cy="307.506" r="1" fill="rgb(0,0,0)" />
	<circle cx="625.096" cy="443.173" r="1" fill="rgb(0,0,0)" />
	<circle cx="626.117" cy="455.578" r="1" fill="rgb(0,0,0)" />
	<circle cx="627.373" cy="104.789" r="1" fill="rgb(0,0,0)" />
	<circle cx="632.241" cy="436.029" r="1" fill="rgb(0,0,0)" />
	<circle cx="632.319" cy="375.418" r="1" fill="rgb(0,0,0)" />
	<circle cx="633.261" cy="345.191" r="1" fill="rgb(0,0,0)" />
	<circle cx="633.654" cy="501.821" r="1" fill="rgb(0,0,0)" />
	<circle cx="634.282" cy="42.1371" r="1" fill="rgb(0,0,0)" />
	<circle cx="635.067" cy="423.703" r="1" fill="rgb(0,0,0)" />
	<circle cx="636.245" cy="238.259" r="1" fill="rgb(0,0,0)" />
	<circle cx="636.794" cy="284.345" r="1" fill="rgb(0,0,0)" />
	<circle cx="638.757" cy="46.5337" r="1" fill="rgb(0,0,0)" />
	<circle cx="644.881" cy="230.407" r="1" fill="rgb(0,0,0)" />
	<circle cx="645.274" cy="305.386" r="1" fill="rgb(0,0,0)" />
	<circle cx="652.261" cy="521.135" r="1" fill="rgb(0,0,0)" />
	<circle cx="653.439" cy="100.079" r="1" fill="rgb(0,0,0)" />
	<circle cx="655.716" cy="484.078" r="1" fill="rgb(0,0,0)" />
	<circle cx="656.422" cy="234.726" r="1" fill="rgb(0,0,0)" />
	<circle cx="661.761" cy="319.675" r="1" fill="rgb(0,0,0)" />
	<circle cx="663.959" cy="306.014" r="1" fill="rgb(0,0,0)" />
	<circle cx="664.273" cy="325.485" r="1" fill="rgb(0,0,0)" />
	<circle cx="664.744" cy="452.987" r="1" fill="rgb(0,0,0)" />
	<circle cx="665.451" cy="347.547" r="1" fill="rgb(0,0,0)" />
	<circle cx="666.079" cy="423.938" r="1" fill="rgb(0,0,0)" />
	<circle cx="666.236" cy="240.928" r="1" fill="rgb(0,0,0)" />
	<circle cx="669.063" cy="237.316" r="1" fill="rgb(0,0,0)" />
	<circle cx="671.025" cy="173.173" r="1" fill="rgb(0,0,0)" />
	<circle cx="671.261" cy="56.5832" r="1" fill="rgb(0,0,0)" />
	<circle cx="671.418" cy="522.313" r="1" fill="rgb(0,0,0)" />
	<circle cx="671.653" cy="95.5248" r="1" fill="rgb(0,0,0)" />
	<circle cx="672.046" cy="449.14" r="1" fill="rgb(0,0,0)" />
	<circle cx="672.439" cy="170.896" r="1" fill="rgb(0,0,0)" />
	<circle cx="673.616" cy="291.018" r="1" fill="rgb(0,0,0)" />
	<circle cx="675.343" cy="233.391" r="1" fill="rgb(0,0,0)" />
	<circle cx="676.286" cy="409.963" r="1" fill="rgb(0,0,0)" />
	<circle cx="676.6" cy="441.446" r="1" fill="rgb(0,0,0)" />
	<circle cx="677.542" cy="323.679" r="1" fill="rgb(0,0,0)" />
	<circle cx="677.777" cy="440.818" r="1" fill="rgb(0,0,0)" />
	<circle cx="677.934" cy="388.294" r="1" fill="rgb(0,0,0)" />
	<circle cx="679.583" cy="324.307" r="1" fill="rgb(0,0,0)" />
	<circle cx="679.583" cy="156.842" r="1" fill="rgb(0,0,0)" />
	<circle cx="681.703" cy="521.135" r="1" fill="rgb(0,0,0)" />
	<circle cx="683.116" cy="421.818" r="1" fill="rgb(0,0,0)" />
	<circle cx="683.509" cy="283.167" r="1" fill="rgb(0,0,0)" />
	<circle cx="683.98" cy="368.666" r="1" fill="rgb(0,0,0)" />
	<circle cx="685.393" cy="276.101" r="1" fill="rgb(0,0,0)" />
	<circle cx="686.649" cy="366.703" r="1" fill="rgb(0,0,0)" />
	<circle cx="689.711" cy="190.21" r="1" fill="rgb(0,0,0)" />
	<circle cx="690.025" cy="543.197" r="1" fill="rgb(0,0,0)" />
	<circle cx="690.575" cy="116.88" r="1" fill="rgb(0,0,0)" />
	<circle cx="691.281" cy="370.786" r="1" fill="rgb(0,0,0)" />
	<circle cx="693.009" cy="432.888" r="1" fill="rgb(0,0,0)" />
	<circle cx="696.385" cy="430.298" r="1" fill="rgb(0,0,0)" />
	<circle cx="697.327" cy="299.812" r="1" fill="rgb(0,0,0)" />
	<circle cx="697.562" cy="274.609" r="1" fill="rgb(0,0,0)" />
	<circle cx="700.153" cy="408" r="1" fill="rgb(0,0,0)" />
	<circle cx="703.137" cy="340.795" r="1" fill="rgb(0,0,0)" />
	<circle cx="703.529" cy="238.337" r="1" fill="rgb(0,0,0)" />
	<circle cx="705.492" cy="509.045" r="1" fill="rgb(0,0,0)" />
	<circle cx="705.884" cy="302.638" r="1" fill="rgb(0,0,0)" />
	<circle cx="708.318" cy="361.129" r="1" fill="rgb(0,0,0)" />
	<circle cx="712.322" cy="334.278" r="1" fill="rgb(0,0,0)" />
	<circle cx="712.715" cy="458.405" r="1" fill="rgb(0,0,0)" />
	<circle cx="712.872" cy="359.716" r="1" fill="rgb(0,0,0)" />
	<circle cx="713.029" cy="79.9796" r="1" fill="rgb(0,0,0)" />
	<circle cx="715.149" cy="546.494" r="1" fill="rgb(0,0,0)" />
	<circle cx="716.012" cy="453.694" r="1" fill="rgb(0,0,0)" />
	<circle cx="718.054" cy="294.787" r="1" fill="rgb(0,0,0)" />
	<circle cx="718.132" cy="317.32" r="1" fill="rgb(0,0,0)" />
	<circle cx="719.31" cy="437.05" r="1" fill="rgb(0,0,0)" />
	<circle cx="720.095" cy="252.548" r="1" fill="rgb(0,0,0)" />
	<circle cx="720.331" cy="119.549" r="1" fill="rgb(0,0,0)" />
	<circle cx="720.488" cy="160.14" r="1" fill="rgb(0,0,0)" />
	<circle cx="721.901" cy="264.874" r="1" fill="rgb(0,0,0)" />
	<circle cx="722.293" cy="160.061" r="1" fill="rgb(0,0,0)" />
	<circle cx="722.607" cy="403.525" r="1" fill="rgb(0,0,0)" />
	<circle cx="726.297" cy="376.753" r="1" fill="rgb(0,0,0)" />
	<circle cx="726.376" cy="289.134" r="1" fill="rgb(0,0,0)" />
	<circle cx="729.673" cy="135.88" r="1" fill="rgb(0,0,0)" />
	<circle cx="730.144" cy="130.305" r="1" fill="rgb(0,0,0)" />
	<circle cx="732.107" cy="341.266" r="1" fill="rgb(0,0,0)" />
	<circle cx="735.562" cy="468.376" r="1" fill="rgb(0,0,0)" />
	<circle cx="736.425" cy="385.232" r="1" fill="rgb(0,0,0)" />
	<circle cx="736.896" cy="524.433" r="1" fill="rgb(0,0,0)" />
	<circle cx="738.074" cy="201.515" r="1" fill="rgb(0,0,0)" />
	<circle cx="739.173" cy="527.809" r="1" fill="rgb(0,0,0)" />
	<circle cx="742.314" cy="373.377" r="1" fill="rgb(0,0,0)" />
	<circle cx="748.83" cy="234.333" r="1" fill="rgb(0,0,0)" />
	<circle cx="749.772" cy="416.715" r="1" fill="rgb(0,0,0)" />
	<circle cx="752.049" cy="516.346" r="1" fill="rgb(0,0,0)" />
	<circle cx="753.855" cy="297.927" r="1" fill="rgb(0,0,0)" />
	<circle cx="753.933" cy="191.544" r="1" fill="rgb(0,0,0)" />
	<circle cx="759.194" cy="368.666" r="1" fill="rgb(0,0,0)" />
	<circle cx="760.764" cy="441.289" r="1" fill="rgb(0,0,0)" />
	<circle cx="761.942" cy="101.57" r="1" fill="rgb(0,0,0)" />
	<circle cx="762.57" cy="326.113" r="1" fill="rgb(0,0,0)" />
	<circle cx="762.962" cy="178.904" r="1" fill="rgb(0,0,0)" />
	<circle cx="764.061" cy="154.173" r="1" fill="rgb(0,0,0)" />
	<circle cx="765.71" cy="463.037" r="1" fill="rgb(0,0,0)" />
	<circle cx="766.495" cy="476.462" r="1" fill="rgb(0,0,0)" />
	<circle cx="766.731" cy="476.776" r="1" fill="rgb(0,0,0)" />
	<circle cx="768.458" cy="298.398" r="1" fill="rgb(0,0,0)" />
	<circle cx="772.855" cy="212.899" r="1" fill="rgb(0,0,0)" />
	<circle cx="773.09" cy="397.951" r="1" fill="rgb(0,0,0)" />
	<circle cx="773.326" cy="327.84" r="1" fill="rgb(0,0,0)" />
	<circle cx="773.64" cy="379.501" r="1" fill="rgb(0,0,0)" />
	<circle cx="774.425" cy="151.111" r="1" fill="rgb(0,0,0)" />
	<circle cx="776.152" cy="236.217" r="1" fill="rgb(0,0,0)" />
	<circle cx="777.487" cy="523.412" r="1" fill="rgb(0,0,0)" />
	<circle cx="780.47" cy="267.779" r="1" fill="rgb(0,0,0)" />
	<circle cx="786.123" cy="335.613" r="1" fill="rgb(0,0,0)" />
	<circle cx="787.458" cy="457.855" r="1" fill="rgb(0,0,0)" />
	<circle cx="797.115" cy="488.318" r="1" fill="rgb(0,0,0)" />
	<circle cx="797.429" cy="405.252" r="1" fill="rgb(0,0,0)" />
	<circle cx="804.809" cy="469.71" r="1" fill="rgb(0,0,0)" />
	<circle cx="807.871" cy="249.172" r="1" fill="rgb(0,0,0)" />
	<circle cx="811.718" cy="250.585" r="1" fill="rgb(0,0,0)" />
	<circle cx="811.953" cy="314.179" r="1" fill="rgb(0,0,0)" />
	<circle cx="813.445" cy="448.512" r="1" fill="rgb(0,0,0)" />
	<circle cx="815.8" cy="260.713" r="1" fill="rgb(0,0,0)" />
	<circle cx="816.9" cy="345.348" r="1" fill="rgb(0,0,0)" />
	<circle cx="818.784" cy="201.437" r="1" fill="rgb(0,0,0)" />
	<circle cx="819.098" cy="163.437" r="1" fill="rgb(0,0,0)" />
	<circle cx="819.176" cy="527.573" r="1" fill="rgb(0,0,0)" />
	<circle cx="819.255" cy="161.003" r="1" fill="rgb(0,0,0)" />
	<circle cx="821.218" cy="210.309" r="1" fill="rgb(0,0,0)" />
	<circle cx="821.296" cy="281.832" r="1" fill="rgb(0,0,0)" />
	<circle cx="825.3" cy="432.81" r="1" fill="rgb(0,0,0)" />
	<circle cx="825.3" cy="422.682" r="1" fill="rgb(0,0,0)" />
	<circle cx="831.424" cy="359.559" r="1" fill="rgb(0,0,0)" />
	<circle cx="832.602" cy="162.731" r="1" fill="rgb(0,0,0)" />
	<circle cx="834.486" cy="346.997" r="1" fill="rgb(0,0,0)" />
	<circle cx="834.879" cy="329.96" r="1" fill="rgb(0,0,0)" />
	<circle cx="835.507" cy="367.959" r="1" fill="rgb(0,0,0)" />
	<circle cx="838.49" cy="362.621" r="1" fill="rgb(0,0,0)" />
	<circle cx="850.581" cy="360.422" r="1" fill="rgb(0,0,0)" />
	<circle cx="850.974" cy="338.832" r="1" fill="rgb(0,0,0)" />
	<circle cx="851.445" cy="360.422" r="1" fill="rgb(0,0,0)" />
	<circle cx="851.68" cy="97.0951" r="1" fill="rgb(0,0,0)" />
	<circle cx="852.858" cy="395.517" r="1" fill="rgb(0,0,0)" />
	<circle cx="860.316" cy="109.186" r="1" fill="rgb(0,0,0)" />
	<circle cx="860.552" cy="245.639" r="1" fill="rgb(0,0,0)" />
	<circle cx="862.515" cy="360.501" r="1" fill="rgb(0,0,0)" />
	<circle cx="863.692" cy="115.545" r="1" fill="rgb(0,0,0)" />
	<circle cx="864.006" cy="110.442" r="1" fill="rgb(0,0,0)" />
	<circle cx="864.792" cy="420.798" r="1" fill="rgb(0,0,0)" />
	<circle cx="865.498" cy="350.451" r="1" fill="rgb(0,0,0)" />
	<circle cx="865.577" cy="333.65" r="1" fill="rgb(0,0,0)" />
	<circle cx="866.833" cy="350.687" r="1" fill="rgb(0,0,0)" />
	<circle cx="866.911" cy="428.884" r="1" fill="rgb(0,0,0)" />
	<circle cx="869.659" cy="351.001" r="1" fill="rgb(0,0,0)" />
	<circle cx="871.387" cy="324.464" r="1" fill="rgb(0,0,0)" />
	<circle cx="873.663" cy="237.238" r="1" fill="rgb(0,0,0)" />
	<circle cx="874.056" cy="360.501" r="1" fill="rgb(0,0,0)" />
	<circle cx="875.077" cy="115.074" r="1" fill="rgb(0,0,0)" />
	<circle cx="880.808" cy="443.409" r="1" fill="rgb(0,0,0)" />
	<circle cx="881.907" cy="507.396" r="1" fill="rgb(0,0,0)" />
	<circle cx="882.849" cy="358.067" r="1" fill="rgb(0,0,0)" />
	<circle cx="883.085" cy="315.592" r="1" fill="rgb(0,0,0)" />
	<circle cx="883.242" cy="421.74" r="1" fill="rgb(0,0,0)" />
	<circle cx="885.047" cy="435.165" r="1" fill="rgb(0,0,0)" />
	<circle cx="886.618" cy="396.773" r="1" fill="rgb(0,0,0)" />
	<circle cx="888.502" cy="444.508" r="1" fill="rgb(0,0,0)" />
	<circle cx="891.642" cy="302.245" r="1" fill="rgb(0,0,0)" />
	<circle cx="893.527" cy="330.824" r="1" fill="rgb(0,0,0)" />
	<circle cx="900.122" cy="315.357" r="1" fill="rgb(0,0,0)" />
	<circle cx="902.713" cy="474.028" r="1" fill="rgb(0,0,0)" />
	<circle cx="907.58" cy="390.571" r="1" fill="rgb(0,0,0)" />
	<circle cx="908.13" cy="335.142" r="1" fill="rgb(0,0,0)" />
	<circle cx="908.365" cy="381.306" r="1" fill="rgb(0,0,0)" />
	<circle cx="911.349" cy="308.919" r="1" fill="rgb(0,0,0)" />
	<circle cx="912.841" cy="83.8266" r="1" fill="rgb(0,0,0)" />
	<circle cx="913.94" cy="305.543" r="1" fill="rgb(0,0,0)" />
	<circle cx="917.551" cy="478.975" r="1" fill="rgb(0,0,0)" />
	<circle cx="920.849" cy="249.015" r="1" fill="rgb(0,0,0)" />
	<circle cx="925.01" cy="75.3474" r="1" fill="rgb(0,0,0)" />
	<circle cx="925.795" cy="337.104" r="1" fill="rgb(0,0,0)" />
	<circle cx="926.187" cy="510.772" r="1" fill="rgb(0,0,0)" />
	<circle cx="927.679" cy="323.286" r="1" fill="rgb(0,0,0)" />
	<circle cx="928.15" cy="397.558" r="1" fill="rgb(0,0,0)" />
	<circle cx="928.778" cy="433.517" r="1" fill="rgb(0,0,0)" />
	<circle cx="929.878" cy="285.444" r="1" fill="rgb(0,0,0)" />
	<circle cx="931.526" cy="274.688" r="1" fill="rgb(0,0,0)" />
	<circle cx="937.493" cy="449.69" r="1" fill="rgb(0,0,0)" />
	<circle cx="939.22" cy="78.0953" r="1" fill="rgb(0,0,0)" />
	<circle cx="942.989" cy="519.958" r="1" fill="rgb(0,0,0)" />
	<circle cx="946.6" cy="338.832" r="1" fill="rgb(0,0,0)" />
	<circle cx="947.386" cy="517.838" r="1" fill="rgb(0,0,0)" />
	<circle cx="948.406" cy="470.26" r="1" fill="rgb(0,0,0)" />
	<circle cx="949.191" cy="498.053" r="1" fill="rgb(0,0,0)" />
	<circle cx="949.427" cy="212.193" r="1" fill="rgb(0,0,0)" />
	<circle cx="954.766" cy="447.57" r="1" fill="rgb(0,0,0)" />
	<circle cx="955.472" cy="524.04" r="1" fill="rgb(0,0,0)" />
	<circle cx="957.749" cy="401.013" r="1" fill="rgb(0,0,0)" />
	<circle cx="957.906" cy="515.718" r="1" fill="rgb(0,0,0)" />
	<circle cx="960.261" cy="263.461" r="1" fill="rgb(0,0,0)" />
	<circle cx="963.009" cy="221.065" r="1" fill="rgb(0,0,0)" />
	<circle cx="965.129" cy="251.134" r="1" fill="rgb(0,0,0)" />
	<circle cx="965.836" cy="267.779" r="1" fill="rgb(0,0,0)" />
	<circle cx="972.509" cy="331.138" r="1" fill="rgb(0,0,0)" />
	<circle cx="974.472" cy="298.869" r="1" fill="rgb(0,0,0)" />
	<circle cx="974.629" cy="464.843" r="1" fill="rgb(0,0,0)" />
	<circle cx="976.042" cy="242.184" r="1" fill="rgb(0,0,0)" />
	<circle cx="977.848" cy="314.964" r="1" fill="rgb(0,0,0)" />
	<circle cx="978.476" cy="221.928" r="1" fill="rgb(0,0,0)" />
	<circle cx="979.889" cy="217.846" r="1" fill="rgb(0,0,0)" />
	<circle cx="980.36" cy="344.72" r="1" fill="rgb(0,0,0)" />
	<circle cx="983.658" cy="316.299" r="1" fill="rgb(0,0,0)" />
	<circle cx="984.286" cy="532.048" r="1" fill="rgb(0,0,0)" />
	<circle cx="988.212" cy="332.943" r="1" fill="rgb(0,0,0)" />
	<circle cx="988.918" cy="485.491" r="1" fill="rgb(0,0,0)" />
	<circle cx="995.356" cy="323.051" r="1" fill="rgb(0,0,0)" />
	<circle cx="996.141" cy="330.274" r="1" fill="rgb(0,0,0)" />
	<circle cx="997.711" cy="528.123" r="1" fill="rgb(0,0,0)" />
	<circle cx="998.732" cy="246.188" r="1" fill="rgb(0,0,0)" />
	<circle cx="998.968" cy="245.717" r="1" fill="rgb(0,0,0)" />
	<circle cx="1002.5" cy="370.629" r="1" fill="rgb(0,0,0)" />
	<circle cx="1007.13" cy="366.232" r="1" fill="rgb(0,0,0)" />
	<circle cx="1012.39" cy="538.643" r="1" fill="rgb(0,0,0)" />
	<circle cx="1014.28" cy="496.326" r="1" fill="rgb(0,0,0)" />
	<circle cx="1015.38" cy="514.776" r="1" fill="rgb(0,0,0)" />
	<circle cx="1017.18" cy="313.944" r="1" fill="rgb(0,0,0)" />
	<circle cx="1017.42" cy="414.988" r="1" fill="rgb(0,0,0)" />
	<circle cx="1017.57" cy="421.74" r="1" fill="rgb(0,0,0)" />
	<circle cx="1019.38" cy="252.234" r="1" fill="rgb(0,0,0)" />
	<circle cx="1020.32" cy="421.661" r="1" fill="rgb(0,0,0)" />
	<circle cx="1021.5" cy="421.033" r="1" fill="rgb(0,0,0)" />
	<circle cx="1022.52" cy="279.242" r="1" fill="rgb(0,0,0)" />
	<circle cx="1025.19" cy="272.882" r="1" fill="rgb(0,0,0)" />
	<circle cx="1027.15" cy="366.86" r="1" fill="rgb(0,0,0)" />
	<circle cx="1030.29" cy="477.797" r="1" fill="rgb(0,0,0)" />
	<circle cx="1040.58" cy="421.426" r="1" fill="rgb(0,0,0)" />
	<circle cx="1041.83" cy="274.766" r="1" fill="rgb(0,0,0)" />
	<circle cx="1043.64" cy="472.537" r="1" fill="rgb(0,0,0)" />
	<circle cx="1047.88" cy="332.237" r="1" fill="rgb(0,0,0)" />
	<circle cx="1050" cy="305.307" r="1" fill="rgb(0,0,0)" />
</svg>
