<?xml version="1.0" standalone="no" ?>
<!DOCTYPE svg PUBLIC "-//W3C//DTD SVG 1.1//EN" "http://www.w3.org/Graphics/SVG/1.1/DTD/svg11.dtd">
<svg width="1100px" height="577.786px" xmlns="http://www.w3.org/2000/svg" version="1.1" >
	<circle cx="50" cy="549.252" r="1" fill="rgb(0,0,0)" />
	<circle cx="53.2897" cy="488.157" r="1" fill="rgb(0,0,0)" />
	<circle cx="53.6814" cy="214.874" r="1" fill="rgb(0,0,0)" />
	<circle cx="53.9163" cy="363.147" r="1" fill="rgb(0,0,0)" />
	<circle cx="54.9346" cy="474.215" r="1" fill="rgb(0,0,0)" />
	<circle cx="59.1643" cy="544.787" r="1" fill="rgb(0,0,0)" />
	<circle cx="59.4776" cy="373.8" r="1" fill="rgb(0,0,0)" />
	<circle cx="63.9422" cy="296.178" r="1" fill="rgb(0,0,0)" />
	<circle cx="68.3285" cy="305.499" r="1" fill="rgb(0,0,0)" />
	<circle cx="76.8661" cy="220.044" r="1" fill="rgb(0,0,0)" />
	<circle cx="79.3726" cy="417.193" r="1" fill="rgb(0,0,0)" />
	<circle cx="81.3308" cy="543.847" r="1" fill="rgb(0,0,0)" />
	<circle cx="86.5787" cy="485.024" r="1" fill="rgb(0,0,0)" />
	<circle cx="86.657" cy="470.925" r="1" fill="rgb(0,0,0)" />
	<circle cx="91.4349" cy="486.277" r="1" fill="rgb(0,0,0)" />
	<circle cx="93.0015" cy="279.729" r="1" fill="rgb(0,0,0)" />
	<circle cx="94.803" cy="203.674" r="1" fill="rgb(0,0,0)" />
	<circle cx="95.6646" cy="475.546" r="1" fill="rgb(0,0,0)" />
	<circle cx="95.7429" cy="483.222" r="1" fill="rgb(0,0,0)" />
	<circle cx="97.7794" cy="481.969" r="1" fill="rgb(0,0,0)" />
	<circle cx="98.4844" cy="367.69" r="1" fill="rgb(0,0,0)" />
	<circle cx="101.696" cy="202.185" r="1" fill="rgb(0,0,0)" />
	<circle cx="103.027" cy="522.464" r="1" fill="rgb(0,0,0)" />
	<circle cx="112.192" cy="266.648" r="1" fill="rgb(0,0,0)" />
	<circle cx="113.68" cy="488.47" r="1" fill="rgb(0,0,0)" />
	<circle cx="116.891" cy="329.31" r="1" fill="rgb(0,0,0)" />
	<circle cx="119.711" cy="243.229" r="1" fill="rgb(0,0,0)" />
	<circle cx="121.591" cy="538.051" r="1" fill="rgb(0,0,0)" />
	<circle cx="122.531" cy="429.333" r="1" fill="rgb(0,0,0)" />
	<circle cx="122.687" cy="427.375" r="1" fill="rgb(0,0,0)" />
	<circle cx="122.687" cy="378.499" r="1" fill="rgb(0,0,0)" />
	<circle cx="125.429" cy="381.162" r="1" fill="rgb(0,0,0)" />
	<circle cx="125.585" cy="359.701" r="1" fill="rgb(0,0,0)" />
	<circle cx="129.658" cy="534.37" r="1" fill="rgb(0,0,0)" />
	<circle cx="130.05" cy="496.695" r="1" fill="rgb(0,0,0)" />
	<circle cx="131.617" cy="440.691" r="1" fill="rgb(0,0,0)" />
	<circle cx="132.243" cy="359.622" r="1" fill="rgb(0,0,0)" />
	<circle cx="133.418" cy="376.698" r="1" fill="rgb(0,0,0)" />
	<circle cx="136.003" cy="538.286" r="1" fill="rgb(0,0,0)" />
	<circle cx="139.763" cy="328.997" r="1" fill="rgb(0,0,0)" />
	<circle cx="140.311" cy="466.617" r="1" fill="rgb(0,0,0)" />
	<circle cx="143.366" cy="240.174" r="1" fill="rgb(0,0,0)" />
	<circle cx="144.071" cy="238.529" r="1" fill="rgb(0,0,0)" />
	<circle cx="145.324" cy="275.108" r="1" fill="rgb(0,0,0)" />
	<circle cx="145.872" cy="355.549" r="1" fill="rgb(0,0,0)" />
	<circle cx="151.042" cy="359.231" r="1" fill="rgb(0,0,0)" />
	<circle cx="154.018" cy="241.035" r="1" fill="rgb(0,0,0)" />
	<circle cx="154.88" cy="361.424" r="1" fill="rgb(0,0,0)" />
	<circle cx="160.441" cy="270.8" r="1" fill="rgb(0,0,0)" />
	<circle cx="163.496" cy="366.437" r="1" fill="rgb(0,0,0)" />
	<circle cx="164.514" cy="274.011" r="1" fill="rgb(0,0,0)" />
	<circle cx="169.135" cy="353.591" r="1" fill="rgb(0,0,0)" />
	<circle cx="174.227" cy="458.393" r="1" fill="rgb(0,0,0)" />
	<circle cx="175.871" cy="531.237" r="1" fill="rgb(0,0,0)" />
	<circle cx="176.576" cy="325.707" r="1" fill="rgb(0,0,0)" />
	<circle cx="177.438" cy="300.564" r="1" fill="rgb(0,0,0)" />
	<circle cx="182.216" cy="344.897" r="1" fill="rgb(0,0,0)" />
	<circle cx="182.842" cy="388.133" r="1" fill="rgb(0,0,0)" />
	<circle cx="185.662" cy="164.432" r="1" fill="rgb(0,0,0)" />
	<circle cx="189.892" cy="450.952" r="1" fill="rgb(0,0,0)" />
	<circle cx="190.127" cy="267.118" r="1" fill="rgb(0,0,0)" />
	<circle cx="191.067" cy="122.135" r="1" fill="rgb(0,0,0)" />
	<circle cx="191.223" cy="116.731" r="1" fill="rgb(0,0,0)" />
	<circle cx="192.712" cy="322.965" r="1" fill="rgb(0,0,0)" />
	<circle cx="194.983" cy="319.206" r="1" fill="rgb(0,0,0)" />
	<circle cx="200.074" cy="293.436" r="1" fill="rgb(0,0,0)" />
	<circle cx="200.779" cy="171.403" r="1" fill="rgb(0,0,0)" />
	<circle cx="202.816" cy="260.226" r="1" fill="rgb(0,0,0)" />
	<circle cx="203.286" cy="274.403" r="1" fill="rgb(0,0,0)" />
	<circle cx="206.654" cy="294.533" r="1" fill="rgb(0,0,0)" />
	<circle cx="207.28" cy="547.92" r="1" fill="rgb(0,0,0)" />
	<circle cx="212.058" cy="434.19" r="1" fill="rgb(0,0,0)" />
	<circle cx="213.155" cy="210.88" r="1" fill="rgb(0,0,0)" />
	<circle cx="214.487" cy="357.508" r="1" fill="rgb(0,0,0)" />
	<circle cx="224.826" cy="288.423" r="1" fill="rgb(0,0,0)" />
	<circle cx="227.567" cy="311.06" r="1" fill="rgb(0,0,0)" />
	<circle cx="229.995" cy="303.227" r="1" fill="rgb(0,0,0)" />
	<circle cx="230.387" cy="519.879" r="1" fill="rgb(0,0,0)" />
	<circle cx="231.484" cy="507.817" r="1" fill="rgb(0,0,0)" />
	<circle cx="232.658" cy="271.583" r="1" fill="rgb(0,0,0)" />
	<circle cx="235.791" cy="291.635" r="1" fill="rgb(0,0,0)" />
	<circle cx="238.141" cy="260.226" r="1" fill="rgb(0,0,0)" />
	<circle cx="241.039" cy="495.99" r="1" fill="rgb(0,0,0)" />
	<circle cx="245.347" cy="138.506" r="1" fill="rgb(0,0,0)" />
	<circle cx="250.595" cy="290.773" r="1" fill="rgb(0,0,0)" />
	<circle cx="250.752" cy="243.072" r="1" fill="rgb(0,0,0)" />
	<circle cx="256.313" cy="345.289" r="1" fill="rgb(0,0,0)" />
	<circle cx="261.561" cy="371.841" r="1" fill="rgb(0,0,0)" />
	<circle cx="264.459" cy="524.892" r="1" fill="rgb(0,0,0)" />
	<circle cx="264.616" cy="268.215" r="1" fill="rgb(0,0,0)" />
	<circle cx="264.694" cy="396.279" r="1" fill="rgb(0,0,0)" />
	<circle cx="264.929" cy="98.1671" r="1" fill="rgb(0,0,0)" />
	<circle cx="268.297" cy="324.689" r="1" fill="rgb(0,0,0)" />
	<circle cx="270.804" cy="369.022" r="1" fill="rgb(0,0,0)" />
	<circle cx="274.015" cy="129.811" r="1" fill="rgb(0,0,0)" />
	<circle cx="274.642" cy="447.427" r="1" fill="rgb(0,0,0)" />
	<circle cx="274.798" cy="229.443" r="1" fill="rgb(0,0,0)" />
	<circle cx="275.582" cy="112.579" r="1" fill="rgb(0,0,0)" />
	<circle cx="277.696" cy="225.527" r="1" fill="rgb(0,0,0)" />
	<circle cx="278.793" cy="448.289" r="1" fill="rgb(0,0,0)" />
	<circle cx="283.023" cy="233.124" r="1" fill="rgb(0,0,0)" />
	<circle cx="284.589" cy="310.746" r="1" fill="rgb(0,0,0)" />
	<circle cx="290.229" cy="527.477" r="1" fill="rgb(0,0,0)" />
	<circle cx="293.362" cy="187.851" r="1" fill="rgb(0,0,0)" />
	<circle cx="295.555" cy="395.81" r="1" fill="rgb(0,0,0)" />
	<circle cx="298.766" cy="522.073" r="1" fill="rgb(0,0,0)" />
	<circle cx="303.153" cy="219.026" r="1" fill="rgb(0,0,0)" />
	<circle cx="311.142" cy="124.25" r="1" fill="rgb(0,0,0)" />
	<circle cx="312.865" cy="204.457" r="1" fill="rgb(0,0,0)" />
	<circle cx="313.962" cy="520.036" r="1" fill="rgb(0,0,0)" />
	<circle cx="314.98" cy="280.904" r="1" fill="rgb(0,0,0)" />
	<circle cx="315.528" cy="545.336" r="1" fill="rgb(0,0,0)" />
	<circle cx="315.528" cy="146.652" r="1" fill="rgb(0,0,0)" />
	<circle cx="316.468" cy="155.267" r="1" fill="rgb(0,0,0)" />
	<circle cx="318.348" cy="513.848" r="1" fill="rgb(0,0,0)" />
	<circle cx="318.818" cy="488.705" r="1" fill="rgb(0,0,0)" />
	<circle cx="320.541" cy="186.833" r="1" fill="rgb(0,0,0)" />
	<circle cx="325.867" cy="489.88" r="1" fill="rgb(0,0,0)" />
	<circle cx="326.259" cy="523.091" r="1" fill="rgb(0,0,0)" />
	<circle cx="327.669" cy="446.722" r="1" fill="rgb(0,0,0)" />
	<circle cx="331.037" cy="122.057" r="1" fill="rgb(0,0,0)" />
	<circle cx="334.797" cy="474.058" r="1" fill="rgb(0,0,0)" />
	<circle cx="335.345" cy="292.731" r="1" fill="rgb(0,0,0)" />
	<circle cx="339.183" cy="298.684" r="1" fill="rgb(0,0,0)" />
	<circle cx="346.311" cy="540.793" r="1" fill="rgb(0,0,0)" />
	<circle cx="348.817" cy="267.04" r="1" fill="rgb(0,0,0)" />
	<circle cx="353.125" cy="181.35" r="1" fill="rgb(0,0,0)" />
	<circle cx="355.788" cy="376.933" r="1" fill="rgb(0,0,0)" />
	<circle cx="355.867" cy="425.73" r="1" fill="rgb(0,0,0)" />
	<circle cx="355.945" cy="519.096" r="1" fill="rgb(0,0,0)" />
	<circle cx="362.055" cy="512.595" r="1" fill="rgb(0,0,0)" />
	<circle cx="363.073" cy="186.442" r="1" fill="rgb(0,0,0)" />
	<circle cx="363.464" cy="155.346" r="1" fill="rgb(0,0,0)" />
	<circle cx="363.856" cy="125.19" r="1" fill="rgb(0,0,0)" />
	<circle cx="365.109" cy="254.821" r="1" fill="rgb(0,0,0)" />
	<circle cx="373.099" cy="292.496" r="1" fill="rgb(0,0,0)" />
	<circle cx="373.334" cy="307.065" r="1" fill="rgb(0,0,0)" />
	<circle cx="381.088" cy="184.875" r="1" fill="rgb(0,0,0)" />
	<circle cx="383.516" cy="478.601" r="1" fill="rgb(0,0,0)" />
	<circle cx="384.456" cy="173.283" r="1" fill="rgb(0,0,0)" />
	<circle cx="387.354" cy="89.2379" r="1" fill="rgb(0,0,0)" />
	<circle cx="387.746" cy="505.467" r="1" fill="rgb(0,0,0)" />
	<circle cx="392.68" cy="92.9976" r="1" fill="rgb(0,0,0)" />
	<circle cx="392.915" cy="290.93" r="1" fill="rgb(0,0,0)" />
	<circle cx="393.62" cy="285.838" r="1" fill="rgb(0,0,0)" />
	<circle cx="394.012" cy="174.144" r="1" fill="rgb(0,0,0)" />
	<circle cx="395.108" cy="330.25" r="1" fill="rgb(0,0,0)" />
	<circle cx="395.343" cy="433.093" r="1" fill="rgb(0,0,0)" />
	<circle cx="399.26" cy="93.0759" r="1" fill="rgb(0,0,0)" />
	<circle cx="399.965" cy="301.504" r="1" fill="rgb(0,0,0)" />
	<circle cx="400.043" cy="175.398" r="1" fill="rgb(0,0,0)" />
	<circle cx="403.098" cy="376.384" r="1" fill="rgb(0,0,0)" />
	<circle cx="406.153" cy="438.419" r="1" fill="rgb(0,0,0)" />
	<circle cx="413.28" cy="467.244" r="1" fill="rgb(0,0,0)" />
	<circle cx="413.515" cy="335.184" r="1" fill="rgb(0,0,0)" />
	<circle cx="417.118" cy="413.511" r="1" fill="rgb(0,0,0)" />
	<circle cx="419.077" cy="438.263" r="1" fill="rgb(0,0,0)" />
	<circle cx="420.721" cy="530.297" r="1" fill="rgb(0,0,0)" />
	<circle cx="422.131" cy="384.06" r="1" fill="rgb(0,0,0)" />
	<circle cx="423.463" cy="100.987" r="1" fill="rgb(0,0,0)" />
	<circle cx="423.854" cy="478.993" r="1" fill="rgb(0,0,0)" />
	<circle cx="425.421" cy="496.773" r="1" fill="rgb(0,0,0)" />
	<circle cx="425.656" cy="171.011" r="1" fill="rgb(0,0,0)" />
	<circle cx="426.126" cy="430.9" r="1" fill="rgb(0,0,0)" />
	<circle cx="428.162" cy="546.511" r="1" fill="rgb(0,0,0)" />
	<circle cx="429.181" cy="392.206" r="1" fill="rgb(0,0,0)" />
	<circle cx="431.609" cy="463.641" r="1" fill="rgb(0,0,0)" />
	<circle cx="432" cy="493.875" r="1" fill="rgb(0,0,0)" />
	<circle cx="435.525" cy="534.996" r="1" fill="rgb(0,0,0)" />
	<circle cx="435.525" cy="427.532" r="1" fill="rgb(0,0,0)" />
	<circle cx="437.797" cy="343.644" r="1" fill="rgb(0,0,0)" />
	<circle cx="439.05" cy="246.048" r="1" fill="rgb(0,0,0)" />
	<circle cx="439.285" cy="409.282" r="1" fill="rgb(0,0,0)" />
	<circle cx="439.755" cy="468.967" r="1" fill="rgb(0,0,0)" />
	<circle cx="439.99" cy="468.654" r="1" fill="rgb(0,0,0)" />
	<circle cx="440.538" cy="529.592" r="1" fill="rgb(0,0,0)" />
	<circle cx="440.851" cy="499.906" r="1" fill="rgb(0,0,0)" />
	<circle cx="444.611" cy="446.8" r="1" fill="rgb(0,0,0)" />
	<circle cx="446.099" cy="481.186" r="1" fill="rgb(0,0,0)" />
	<circle cx="446.413" cy="425.417" r="1" fill="rgb(0,0,0)" />
	<circle cx="447.431" cy="468.967" r="1" fill="rgb(0,0,0)" />
	<circle cx="447.979" cy="349.205" r="1" fill="rgb(0,0,0)" />
	<circle cx="448.214" cy="325.394" r="1" fill="rgb(0,0,0)" />
	<circle cx="450.721" cy="468.889" r="1" fill="rgb(0,0,0)" />
	<circle cx="451.034" cy="287.64" r="1" fill="rgb(0,0,0)" />
	<circle cx="451.582" cy="406.462" r="1" fill="rgb(0,0,0)" />
	<circle cx="453.619" cy="249.965" r="1" fill="rgb(0,0,0)" />
	<circle cx="454.245" cy="511.498" r="1" fill="rgb(0,0,0)" />
	<circle cx="454.794" cy="333.07" r="1" fill="rgb(0,0,0)" />
	<circle cx="455.812" cy="338.396" r="1" fill="rgb(0,0,0)" />
	<circle cx="456.125" cy="325.002" r="1" fill="rgb(0,0,0)" />
	<circle cx="464.976" cy="541.654" r="1" fill="rgb(0,0,0)" />
	<circle cx="466.934" cy="478.366" r="1" fill="rgb(0,0,0)" />
	<circle cx="467.639" cy="358.526" r="1" fill="rgb(0,0,0)" />
	<circle cx="469.676" cy="325.394" r="1" fill="rgb(0,0,0)" />
	<circle cx="470.929" cy="437.009" r="1" fill="rgb(0,0,0)" />
	<circle cx="472.026" cy="237.824" r="1" fill="rgb(0,0,0)" />
	<circle cx="474.689" cy="430.508" r="1" fill="rgb(0,0,0)" />
	<circle cx="476.412" cy="163.257" r="1" fill="rgb(0,0,0)" />
	<circle cx="476.725" cy="161.22" r="1" fill="rgb(0,0,0)" />
	<circle cx="477.587" cy="482.831" r="1" fill="rgb(0,0,0)" />
	<circle cx="478.057" cy="325.785" r="1" fill="rgb(0,0,0)" />
	<circle cx="478.683" cy="424.321" r="1" fill="rgb(0,0,0)" />
	<circle cx="478.84" cy="330.641" r="1" fill="rgb(0,0,0)" />
	<circle cx="478.918" cy="291.948" r="1" fill="rgb(0,0,0)" />
	<circle cx="479.545" cy="490.898" r="1" fill="rgb(0,0,0)" />
	<circle cx="481.816" cy="419.308" r="1" fill="rgb(0,0,0)" />
	<circle cx="481.895" cy="302.287" r="1" fill="rgb(0,0,0)" />
	<circle cx="486.986" cy="354.766" r="1" fill="rgb(0,0,0)" />
	<circle cx="489.336" cy="344.505" r="1" fill="rgb(0,0,0)" />
	<circle cx="490.902" cy="424.555" r="1" fill="rgb(0,0,0)" />
	<circle cx="492.782" cy="231.871" r="1" fill="rgb(0,0,0)" />
	<circle cx="493.174" cy="396.906" r="1" fill="rgb(0,0,0)" />
	<circle cx="494.114" cy="526.772" r="1" fill="rgb(0,0,0)" />
	<circle cx="494.192" cy="414.686" r="1" fill="rgb(0,0,0)" />
	<circle cx="494.427" cy="514.71" r="1" fill="rgb(0,0,0)" />
	<circle cx="494.975" cy="475.311" r="1" fill="rgb(0,0,0)" />
	<circle cx="498.265" cy="425.887" r="1" fill="rgb(0,0,0)" />
	<circle cx="498.578" cy="436.696" r="1" fill="rgb(0,0,0)" />
	<circle cx="500.85" cy="455.651" r="1" fill="rgb(0,0,0)" />
	<circle cx="501.946" cy="346.072" r="1" fill="rgb(0,0,0)" />
	<circle cx="502.965" cy="445.312" r="1" fill="rgb(0,0,0)" />
	<circle cx="503.356" cy="360.797" r="1" fill="rgb(0,0,0)" />
	<circle cx="503.67" cy="527.007" r="1" fill="rgb(0,0,0)" />
	<circle cx="504.845" cy="461.839" r="1" fill="rgb(0,0,0)" />
	<circle cx="508.683" cy="478.523" r="1" fill="rgb(0,0,0)" />
	<circle cx="514.322" cy="445.704" r="1" fill="rgb(0,0,0)" />
	<circle cx="514.635" cy="530.297" r="1" fill="rgb(0,0,0)" />
	<circle cx="514.792" cy="309.807" r="1" fill="rgb(0,0,0)" />
	<circle cx="518.395" cy="311.373" r="1" fill="rgb(0,0,0)" />
	<circle cx="519.1" cy="496.773" r="1" fill="rgb(0,0,0)" />
	<circle cx="521.137" cy="518.548" r="1" fill="rgb(0,0,0)" />
	<circle cx="527.089" cy="528.652" r="1" fill="rgb(0,0,0)" />
	<circle cx="528.343" cy="244.09" r="1" fill="rgb(0,0,0)" />
	<circle cx="528.969" cy="441.239" r="1" fill="rgb(0,0,0)" />
	<circle cx="534.452" cy="500.768" r="1" fill="rgb(0,0,0)" />
	<circle cx="535.392" cy="546.354" r="1" fill="rgb(0,0,0)" />
	<circle cx="535.47" cy="239.391" r="1" fill="rgb(0,0,0)" />
	<circle cx="536.88" cy="369.178" r="1" fill="rgb(0,0,0)" />
	<circle cx="539.465" cy="256.388" r="1" fill="rgb(0,0,0)" />
	<circle cx="540.327" cy="382.181" r="1" fill="rgb(0,0,0)" />
	<circle cx="540.953" cy="257.406" r="1" fill="rgb(0,0,0)" />
	<circle cx="541.58" cy="479.149" r="1" fill="rgb(0,0,0)" />
	<circle cx="542.833" cy="138.427" r="1" fill="rgb(0,0,0)" />
	<circle cx="542.99" cy="445.469" r="1" fill="rgb(0,0,0)" />
	<circle cx="543.146" cy="157.696" r="1" fill="rgb(0,0,0)" />
	<circle cx="545.261" cy="366.829" r="1" fill="rgb(0,0,0)" />
	<circle cx="545.731" cy="200.854" r="1" fill="rgb(0,0,0)" />
	<circle cx="545.888" cy="255.761" r="1" fill="rgb(0,0,0)" />
	<circle cx="547.454" cy="246.675" r="1" fill="rgb(0,0,0)" />
	<circle cx="549.491" cy="550.74" r="1" fill="rgb(0,0,0)" />
	<circle cx="549.804" cy="361.346" r="1" fill="rgb(0,0,0)" />
	<circle cx="552.702" cy="430.978" r="1" fill="rgb(0,0,0)" />
	<circle cx="552.859" cy="396.358" r="1" fill="rgb(0,0,0)" />
	<circle cx="553.564" cy="503.744" r="1" fill="rgb(0,0,0)" />
	<circle cx="554.347" cy="371.606" r="1" fill="rgb(0,0,0)" />
	<circle cx="554.66" cy="346.307" r="1" fill="rgb(0,0,0)" />
	<circle cx="555.522" cy="479.698" r="1" fill="rgb(0,0,0)" />
	<circle cx="557.167" cy="391.815" r="1" fill="rgb(0,0,0)" />
	<circle cx="559.673" cy="97.4622" r="1" fill="rgb(0,0,0)" />
	<circle cx="560.378" cy="427.532" r="1" fill="rgb(0,0,0)" />
	<circle cx="561.005" cy="534.292" r="1" fill="rgb(0,0,0)" />
	<circle cx="562.493" cy="437.401" r="1" fill="rgb(0,0,0)" />
	<circle cx="562.571" cy="206.337" r="1" fill="rgb(0,0,0)" />
	<circle cx="564.373" cy="227.877" r="1" fill="rgb(0,0,0)" />
	<circle cx="564.608" cy="497.086" r="1" fill="rgb(0,0,0)" />
	<circle cx="565.391" cy="503.431" r="1" fill="rgb(0,0,0)" />
	<circle cx="565.391" cy="250.513" r="1" fill="rgb(0,0,0)" />
	<circle cx="571.187" cy="250.67" r="1" fill="rgb(0,0,0)" />
	<circle cx="571.344" cy="293.671" r="1" fill="rgb(0,0,0)" />
	<circle cx="572.362" cy="383.904" r="1" fill="rgb(0,0,0)" />
	<circle cx="572.676" cy="444.842" r="1" fill="rgb(0,0,0)" />
	<circle cx="577.297" cy="346.542" r="1" fill="rgb(0,0,0)" />
	<circle cx="577.689" cy="312.783" r="1" fill="rgb(0,0,0)" />
	<circle cx="581.527" cy="293.671" r="1" fill="rgb(0,0,0)" />
	<circle cx="581.918" cy="475.625" r="1" fill="rgb(0,0,0)" />
	<circle cx="581.997" cy="535.858" r="1" fill="rgb(0,0,0)" />
	<circle cx="582.78" cy="544.396" r="1" fill="rgb(0,0,0)" />
	<circle cx="584.346" cy="404.112" r="1" fill="rgb(0,0,0)" />
	<circle cx="584.973" cy="418.211" r="1" fill="rgb(0,0,0)" />
	<circle cx="585.051" cy="294.298" r="1" fill="rgb(0,0,0)" />
	<circle cx="585.13" cy="424.242" r="1" fill="rgb(0,0,0)" />
	<circle cx="585.756" cy="339.101" r="1" fill="rgb(0,0,0)" />
	<circle cx="586.383" cy="257.093" r="1" fill="rgb(0,0,0)" />
	<circle cx="587.401" cy="463.092" r="1" fill="rgb(0,0,0)" />
	<circle cx="587.949" cy="382.337" r="1" fill="rgb(0,0,0)" />
	<circle cx="590.221" cy="513.378" r="1" fill="rgb(0,0,0)" />
	<circle cx="591.631" cy="307.222" r="1" fill="rgb(0,0,0)" />
	<circle cx="592.257" cy="263.045" r="1" fill="rgb(0,0,0)" />
	<circle cx="596.33" cy="356.333" r="1" fill="rgb(0,0,0)" />
	<circle cx="598.289" cy="402.389" r="1" fill="rgb(0,0,0)" />
	<circle cx="600.012" cy="421.266" r="1" fill="rgb(0,0,0)" />
	<circle cx="600.09" cy="355.393" r="1" fill="rgb(0,0,0)" />
	<circle cx="605.495" cy="543.299" r="1" fill="rgb(0,0,0)" />
	<circle cx="605.73" cy="239.704" r="1" fill="rgb(0,0,0)" />
	<circle cx="606.2" cy="551.523" r="1" fill="rgb(0,0,0)" />
	<circle cx="606.2" cy="430.665" r="1" fill="rgb(0,0,0)" />
	<circle cx="606.826" cy="500.846" r="1" fill="rgb(0,0,0)" />
	<circle cx="610.664" cy="293.828" r="1" fill="rgb(0,0,0)" />
	<circle cx="613.641" cy="358.448" r="1" fill="rgb(0,0,0)" />
	<circle cx="613.719" cy="448.132" r="1" fill="rgb(0,0,0)" />
	<circle cx="617.322" cy="116.026" r="1" fill="rgb(0,0,0)" />
	<circle cx="617.949" cy="293.436" r="1" fill="rgb(0,0,0)" />
	<circle cx="618.34" cy="354.14" r="1" fill="rgb(0,0,0)" />
	<circle cx="618.575" cy="106.47" r="1" fill="rgb(0,0,0)" />
	<circle cx="620.142" cy="443.746" r="1" fill="rgb(0,0,0)" />
	<circle cx="624.058" cy="355.314" r="1" fill="rgb(0,0,0)" />
	<circle cx="624.45" cy="36.9938" r="1" fill="rgb(0,0,0)" />
	<circle cx="627.348" cy="512.517" r="1" fill="rgb(0,0,0)" />
	<circle cx="628.288" cy="489.802" r="1" fill="rgb(0,0,0)" />
	<circle cx="633.849" cy="373.956" r="1" fill="rgb(0,0,0)" />
	<circle cx="634.789" cy="105.295" r="1" fill="rgb(0,0,0)" />
	<circle cx="636.59" cy="385.94" r="1" fill="rgb(0,0,0)" />
	<circle cx="637.53" cy="26.263" r="1" fill="rgb(0,0,0)" />
	<circle cx="639.567" cy="363.147" r="1" fill="rgb(0,0,0)" />
	<circle cx="641.76" cy="349.518" r="1" fill="rgb(0,0,0)" />
	<circle cx="642.857" cy="242.837" r="1" fill="rgb(0,0,0)" />
	<circle cx="643.013" cy="34.409" r="1" fill="rgb(0,0,0)" />
	<circle cx="643.17" cy="424.555" r="1" fill="rgb(0,0,0)" />
	<circle cx="643.64" cy="499.828" r="1" fill="rgb(0,0,0)" />
	<circle cx="647.008" cy="310.746" r="1" fill="rgb(0,0,0)" />
	<circle cx="648.183" cy="481.029" r="1" fill="rgb(0,0,0)" />
	<circle cx="651.081" cy="418.524" r="1" fill="rgb(0,0,0)" />
	<circle cx="652.099" cy="404.817" r="1" fill="rgb(0,0,0)" />
	<circle cx="652.256" cy="517.216" r="1" fill="rgb(0,0,0)" />
	<circle cx="653.117" cy="93.4675" r="1" fill="rgb(0,0,0)" />
	<circle cx="653.431" cy="393.068" r="1" fill="rgb(0,0,0)" />
	<circle cx="655.076" cy="361.346" r="1" fill="rgb(0,0,0)" />
	<circle cx="657.034" cy="320.694" r="1" fill="rgb(0,0,0)" />
	<circle cx="658.209" cy="354.453" r="1" fill="rgb(0,0,0)" />
	<circle cx="658.287" cy="365.34" r="1" fill="rgb(0,0,0)" />
	<circle cx="659.462" cy="259.129" r="1" fill="rgb(0,0,0)" />
	<circle cx="659.54" cy="511.89" r="1" fill="rgb(0,0,0)" />
	<circle cx="660.48" cy="250.905" r="1" fill="rgb(0,0,0)" />
	<circle cx="662.125" cy="243.385" r="1" fill="rgb(0,0,0)" />
	<circle cx="662.673" cy="348.187" r="1" fill="rgb(0,0,0)" />
	<circle cx="664.866" cy="95.1124" r="1" fill="rgb(0,0,0)" />
	<circle cx="665.415" cy="99.9687" r="1" fill="rgb(0,0,0)" />
	<circle cx="665.65" cy="459.803" r="1" fill="rgb(0,0,0)" />
	<circle cx="666.981" cy="405.365" r="1" fill="rgb(0,0,0)" />
	<circle cx="668.548" cy="93.9375" r="1" fill="rgb(0,0,0)" />
	<circle cx="670.506" cy="329.467" r="1" fill="rgb(0,0,0)" />
	<circle cx="672.934" cy="224.665" r="1" fill="rgb(0,0,0)" />
	<circle cx="674.109" cy="532.333" r="1" fill="rgb(0,0,0)" />
	<circle cx="675.832" cy="487.139" r="1" fill="rgb(0,0,0)" />
	<circle cx="677.634" cy="309.415" r="1" fill="rgb(0,0,0)" />
	<circle cx="678.182" cy="463.092" r="1" fill="rgb(0,0,0)" />
	<circle cx="678.73" cy="185.815" r="1" fill="rgb(0,0,0)" />
	<circle cx="681.472" cy="264.925" r="1" fill="rgb(0,0,0)" />
	<circle cx="681.628" cy="415.313" r="1" fill="rgb(0,0,0)" />
	<circle cx="681.628" cy="265.943" r="1" fill="rgb(0,0,0)" />
	<circle cx="682.725" cy="305.499" r="1" fill="rgb(0,0,0)" />
	<circle cx="683.43" cy="381.554" r="1" fill="rgb(0,0,0)" />
	<circle cx="699.644" cy="401.684" r="1" fill="rgb(0,0,0)" />
	<circle cx="700.035" cy="99.3421" r="1" fill="rgb(0,0,0)" />
	<circle cx="703.717" cy="388.682" r="1" fill="rgb(0,0,0)" />
	<circle cx="708.808" cy="378.186" r="1" fill="rgb(0,0,0)" />
	<circle cx="709.278" cy="115.712" r="1" fill="rgb(0,0,0)" />
	<circle cx="709.983" cy="440.456" r="1" fill="rgb(0,0,0)" />
	<circle cx="711.628" cy="394.008" r="1" fill="rgb(0,0,0)" />
	<circle cx="715.701" cy="184.875" r="1" fill="rgb(0,0,0)" />
	<circle cx="719.774" cy="157.931" r="1" fill="rgb(0,0,0)" />
	<circle cx="720.009" cy="128.715" r="1" fill="rgb(0,0,0)" />
	<circle cx="721.105" cy="175.319" r="1" fill="rgb(0,0,0)" />
	<circle cx="721.81" cy="130.673" r="1" fill="rgb(0,0,0)" />
	<circle cx="722.123" cy="130.829" r="1" fill="rgb(0,0,0)" />
	<circle cx="723.533" cy="187.147" r="1" fill="rgb(0,0,0)" />
	<circle cx="724.943" cy="357.586" r="1" fill="rgb(0,0,0)" />
	<circle cx="726.431" cy="238.137" r="1" fill="rgb(0,0,0)" />
	<circle cx="727.998" cy="522.386" r="1" fill="rgb(0,0,0)" />
	<circle cx="729.486" cy="419.151" r="1" fill="rgb(0,0,0)" />
	<circle cx="729.565" cy="222.315" r="1" fill="rgb(0,0,0)" />
	<circle cx="731.758" cy="530.219" r="1" fill="rgb(0,0,0)" />
	<circle cx="738.572" cy="325.159" r="1" fill="rgb(0,0,0)" />
	<circle cx="738.65" cy="315.838" r="1" fill="rgb(0,0,0)" />
	<circle cx="738.964" cy="406.384" r="1" fill="rgb(0,0,0)" />
	<circle cx="740.687" cy="412.102" r="1" fill="rgb(0,0,0)" />
	<circle cx="740.765" cy="391.815" r="1" fill="rgb(0,0,0)" />
	<circle cx="745.857" cy="174.301" r="1" fill="rgb(0,0,0)" />
	<circle cx="748.833" cy="404.817" r="1" fill="rgb(0,0,0)" />
	<circle cx="748.99" cy="411.005" r="1" fill="rgb(0,0,0)" />
	<circle cx="752.044" cy="444.451" r="1" fill="rgb(0,0,0)" />
	<circle cx="753.141" cy="154.484" r="1" fill="rgb(0,0,0)" />
	<circle cx="754.786" cy="294.533" r="1" fill="rgb(0,0,0)" />
	<circle cx="755.491" cy="337.848" r="1" fill="rgb(0,0,0)" />
	<circle cx="764.028" cy="489.88" r="1" fill="rgb(0,0,0)" />
	<circle cx="764.577" cy="283.332" r="1" fill="rgb(0,0,0)" />
	<circle cx="765.36" cy="476.095" r="1" fill="rgb(0,0,0)" />
	<circle cx="770.608" cy="79.0554" r="1" fill="rgb(0,0,0)" />
	<circle cx="771.234" cy="154.328" r="1" fill="rgb(0,0,0)" />
	<circle cx="771.783" cy="430.352" r="1" fill="rgb(0,0,0)" />
	<circle cx="771.861" cy="256.936" r="1" fill="rgb(0,0,0)" />
	<circle cx="772.331" cy="331.973" r="1" fill="rgb(0,0,0)" />
	<circle cx="773.114" cy="102.005" r="1" fill="rgb(0,0,0)" />
	<circle cx="774.368" cy="458.314" r="1" fill="rgb(0,0,0)" />
	<circle cx="778.206" cy="359.309" r="1" fill="rgb(0,0,0)" />
	<circle cx="778.91" cy="334.793" r="1" fill="rgb(0,0,0)" />
	<circle cx="780.555" cy="339.884" r="1" fill="rgb(0,0,0)" />
	<circle cx="782.122" cy="521.916" r="1" fill="rgb(0,0,0)" />
	<circle cx="784.55" cy="339.414" r="1" fill="rgb(0,0,0)" />
	<circle cx="786.038" cy="283.097" r="1" fill="rgb(0,0,0)" />
	<circle cx="790.503" cy="295.943" r="1" fill="rgb(0,0,0)" />
	<circle cx="792.774" cy="56.7322" r="1" fill="rgb(0,0,0)" />
	<circle cx="795.594" cy="349.518" r="1" fill="rgb(0,0,0)" />
	<circle cx="797.787" cy="323.122" r="1" fill="rgb(0,0,0)" />
	<circle cx="800.294" cy="438.419" r="1" fill="rgb(0,0,0)" />
	<circle cx="801.234" cy="396.671" r="1" fill="rgb(0,0,0)" />
	<circle cx="802.174" cy="404.347" r="1" fill="rgb(0,0,0)" />
	<circle cx="803.505" cy="412.493" r="1" fill="rgb(0,0,0)" />
	<circle cx="803.583" cy="327.587" r="1" fill="rgb(0,0,0)" />
	<circle cx="803.975" cy="481.499" r="1" fill="rgb(0,0,0)" />
	<circle cx="805.542" cy="328.683" r="1" fill="rgb(0,0,0)" />
	<circle cx="806.717" cy="429.49" r="1" fill="rgb(0,0,0)" />
	<circle cx="813.766" cy="287.327" r="1" fill="rgb(0,0,0)" />
	<circle cx="818.622" cy="530.845" r="1" fill="rgb(0,0,0)" />
	<circle cx="822.304" cy="464.816" r="1" fill="rgb(0,0,0)" />
	<circle cx="829.666" cy="308.945" r="1" fill="rgb(0,0,0)" />
	<circle cx="831.859" cy="172.813" r="1" fill="rgb(0,0,0)" />
	<circle cx="832.251" cy="325.629" r="1" fill="rgb(0,0,0)" />
	<circle cx="836.167" cy="105.53" r="1" fill="rgb(0,0,0)" />
	<circle cx="837.734" cy="321.242" r="1" fill="rgb(0,0,0)" />
	<circle cx="840.71" cy="415.47" r="1" fill="rgb(0,0,0)" />
	<circle cx="850.345" cy="361.502" r="1" fill="rgb(0,0,0)" />
	<circle cx="852.538" cy="326.334" r="1" fill="rgb(0,0,0)" />
	<circle cx="854.418" cy="336.673" r="1" fill="rgb(0,0,0)" />
	<circle cx="857.081" cy="354.296" r="1" fill="rgb(0,0,0)" />
	<circle cx="859.822" cy="192.629" r="1" fill="rgb(0,0,0)" />
	<circle cx="860.057" cy="187.93" r="1" fill="rgb(0,0,0)" />
	<circle cx="865.853" cy="392.598" r="1" fill="rgb(0,0,0)" />
	<circle cx="866.637" cy="398.394" r="1" fill="rgb(0,0,0)" />
	<circle cx="866.872" cy="394.635" r="1" fill="rgb(0,0,0)" />
	<circle cx="875.018" cy="304.324" r="1" fill="rgb(0,0,0)" />
	<circle cx="875.488" cy="465.755" r="1" fill="rgb(0,0,0)" />
	<circle cx="881.597" cy="473.98" r="1" fill="rgb(0,0,0)" />
	<circle cx="882.929" cy="172.186" r="1" fill="rgb(0,0,0)" />
	<circle cx="888.333" cy="255.526" r="1" fill="rgb(0,0,0)" />
	<circle cx="898.986" cy="448.68" r="1" fill="rgb(0,0,0)" />
	<circle cx="906.348" cy="520.114" r="1" fill="rgb(0,0,0)" />
	<circle cx="908.15" cy="474.136" r="1" fill="rgb(0,0,0)" />
	<circle cx="910.891" cy="347.638" r="1" fill="rgb(0,0,0)" />
	<circle cx="913.476" cy="471.317" r="1" fill="rgb(0,0,0)" />
	<circle cx="917.392" cy="244.874" r="1" fill="rgb(0,0,0)" />
	<circle cx="919.742" cy="245.108" r="1" fill="rgb(0,0,0)" />
	<circle cx="922.405" cy="457.061" r="1" fill="rgb(0,0,0)" />
	<circle cx="925.773" cy="222.629" r="1" fill="rgb(0,0,0)" />
	<circle cx="929.846" cy="321.712" r="1" fill="rgb(0,0,0)" />
	<circle cx="932.823" cy="277.771" r="1" fill="rgb(0,0,0)" />
	<circle cx="934.546" cy="82.9717" r="1" fill="rgb(0,0,0)" />
	<circle cx="937.131" cy="527.477" r="1" fill="rgb(0,0,0)" />
	<circle cx="937.131" cy="469.437" r="1" fill="rgb(0,0,0)" />
	<circle cx="940.656" cy="443.981" r="1" fill="rgb(0,0,0)" />
	<circle cx="943.005" cy="250.983" r="1" fill="rgb(0,0,0)" />
	<circle cx="947.078" cy="549.722" r="1" fill="rgb(0,0,0)" />
	<circle cx="947.94" cy="326.099" r="1" fill="rgb(0,0,0)" />
	<circle cx="948.41" cy="253.176" r="1" fill="rgb(0,0,0)" />
	<circle cx="962.117" cy="288.815" r="1" fill="rgb(0,0,0)" />
	<circle cx="962.744" cy="482.361" r="1" fill="rgb(0,0,0)" />
	<circle cx="964.389" cy="439.673" r="1" fill="rgb(0,0,0)" />
	<circle cx="970.342" cy="440.926" r="1" fill="rgb(0,0,0)" />
	<circle cx="971.438" cy="528.339" r="1" fill="rgb(0,0,0)" />
	<circle cx="971.595" cy="315.211" r="1" fill="rgb(0,0,0)" />
	<circle cx="972.691" cy="341.529" r="1" fill="rgb(0,0,0)" />
	<circle cx="972.77" cy="249.181" r="1" fill="rgb(0,0,0)" />
	<circle cx="975.824" cy="445.782" r="1" fill="rgb(0,0,0)" />
	<circle cx="975.903" cy="447.349" r="1" fill="rgb(0,0,0)" />
	<circle cx="975.981" cy="227.955" r="1" fill="rgb(0,0,0)" />
	<circle cx="978.488" cy="541.811" r="1" fill="rgb(0,0,0)" />
	<circle cx="978.566" cy="399.178" r="1" fill="rgb(0,0,0)" />
	<circle cx="979.192" cy="225.762" r="1" fill="rgb(0,0,0)" />
	<circle cx="979.349" cy="440.378" r="1" fill="rgb(0,0,0)" />
	<circle cx="979.662" cy="353.356" r="1" fill="rgb(0,0,0)" />
	<circle cx="980.681" cy="511.028" r="1" fill="rgb(0,0,0)" />
	<circle cx="980.759" cy="436.383" r="1" fill="rgb(0,0,0)" />
	<circle cx="981.386" cy="530.61" r="1" fill="rgb(0,0,0)" />
	<circle cx="982.326" cy="502.099" r="1" fill="rgb(0,0,0)" />
	<circle cx="984.205" cy="540.088" r="1" fill="rgb(0,0,0)" />
	<circle cx="986.399" cy="334.088" r="1" fill="rgb(0,0,0)" />
	<circle cx="986.868" cy="540.479" r="1" fill="rgb(0,0,0)" />
	<circle cx="989.845" cy="540.009" r="1" fill="rgb(0,0,0)" />
	<circle cx="991.255" cy="309.493" r="1" fill="rgb(0,0,0)" />
	<circle cx="995.249" cy="354.14" r="1" fill="rgb(0,0,0)" />
	<circle cx="995.954" cy="453.145" r="1" fill="rgb(0,0,0)" />
	<circle cx="996.189" cy="442.962" r="1" fill="rgb(0,0,0)" />
	<circle cx="996.346" cy="365.889" r="1" fill="rgb(0,0,0)" />
	<circle cx="998.304" cy="459.803" r="1" fill="rgb(0,0,0)" />
	<circle cx="1005.59" cy="370.118" r="1" fill="rgb(0,0,0)" />
	<circle cx="1006.69" cy="544.709" r="1" fill="rgb(0,0,0)" />
	<circle cx="1010.91" cy="212.133" r="1" fill="rgb(0,0,0)" />
	<circle cx="1013.66" cy="253.568" r="1" fill="rgb(0,0,0)" />
	<circle cx="1013.89" cy="348.265" r="1" fill="rgb(0,0,0)" />
	<circle cx="1021.65" cy="495.05" r="1" fill="rgb(0,0,0)" />
	<circle cx="1023.21" cy="488.784" r="1" fill="rgb(0,0,0)" />
	<circle cx="1024" cy="308.945" r="1" fill="rgb(0,0,0)" />
	<circle cx="1024.07" cy="471.238" r="1" fill="rgb(0,0,0)" />
	<circle cx="1027.83" cy="249.103" r="1" fill="rgb(0,0,0)" />
	<circle cx="1034.73" cy="252.863" r="1" fill="rgb(0,0,0)" />
	<circle cx="1036.21" cy="447.035" r="1" fill="rgb(0,0,0)" />
	<circle cx="1040.05" cy="397.924" r="1" fill="rgb(0,0,0)" />
	<circle cx="1049.3" cy="247.85" r="1" fill="rgb(0,0,0)" />
	<circle cx="1050" cy="413.511" r="1" fill="rgb(0,0,0)" />
</svg>
