<?xml version="1.0" standalone="no" ?>
<!DOCTYPE svg PUBLIC "-//W3C//DTD SVG 1.1//EN" "http://www.w3.org/Graphics/SVG/1.1/DTD/svg11.dtd">
<svg width="1100px" height="569.552px" xmlns="http://www.w3.org/2000/svg" version="1.1" >
	<circle cx="50" cy="226.077" r="1" fill="rgb(0,0,0)" />
	<circle cx="50.0785" cy="504.897" r="1" fill="rgb(0,0,0)" />
	<circle cx="50.4708" cy="322.365" r="1" fill="rgb(0,0,0)" />
	<circle cx="50.9417" cy="231.256" r="1" fill="rgb(0,0,0)" />
	<circle cx="54.3946" cy="270.415" r="1" fill="rgb(0,0,0)" />
	<circle cx="54.63" cy="233.532" r="1" fill="rgb(0,0,0)" />
	<circle cx="54.7869" cy="237.142" r="1" fill="rgb(0,0,0)" />
	<circle cx="56.3564" cy="429.09" r="1" fill="rgb(0,0,0)" />
	<circle cx="62.242" cy="272.299" r="1" fill="rgb(0,0,0)" />
	<circle cx="62.8698" cy="292.231" r="1" fill="rgb(0,0,0)" />
	<circle cx="68.0491" cy="542.878" r="1" fill="rgb(0,0,0)" />
	<circle cx="71.7374" cy="210.931" r="1" fill="rgb(0,0,0)" />
	<circle cx="76.6813" cy="472.801" r="1" fill="rgb(0,0,0)" />
	<circle cx="80.605" cy="538.092" r="1" fill="rgb(0,0,0)" />
	<circle cx="83.1162" cy="244.989" r="1" fill="rgb(0,0,0)" />
	<circle cx="85.7059" cy="233.454" r="1" fill="rgb(0,0,0)" />
	<circle cx="87.5893" cy="492.341" r="1" fill="rgb(0,0,0)" />
	<circle cx="91.5915" cy="445.492" r="1" fill="rgb(0,0,0)" />
	<circle cx="92.6116" cy="335.314" r="1" fill="rgb(0,0,0)" />
	<circle cx="96.7708" cy="468.72" r="1" fill="rgb(0,0,0)" />
	<circle cx="103.677" cy="347.948" r="1" fill="rgb(0,0,0)" />
	<circle cx="105.089" cy="535.345" r="1" fill="rgb(0,0,0)" />
	<circle cx="106.423" cy="456.321" r="1" fill="rgb(0,0,0)" />
	<circle cx="112.309" cy="520.513" r="1" fill="rgb(0,0,0)" />
	<circle cx="120.156" cy="541.937" r="1" fill="rgb(0,0,0)" />
	<circle cx="121.647" cy="430.425" r="1" fill="rgb(0,0,0)" />
	<circle cx="121.726" cy="353.441" r="1" fill="rgb(0,0,0)" />
	<circle cx="123.688" cy="507.251" r="1" fill="rgb(0,0,0)" />
	<circle cx="124.001" cy="330.684" r="1" fill="rgb(0,0,0)" />
	<circle cx="129.181" cy="529.616" r="1" fill="rgb(0,0,0)" />
	<circle cx="130.986" cy="521.612" r="1" fill="rgb(0,0,0)" />
	<circle cx="134.439" cy="461.422" r="1" fill="rgb(0,0,0)" />
	<circle cx="135.066" cy="302.747" r="1" fill="rgb(0,0,0)" />
	<circle cx="138.205" cy="500.659" r="1" fill="rgb(0,0,0)" />
	<circle cx="140.403" cy="322.915" r="1" fill="rgb(0,0,0)" />
	<circle cx="140.795" cy="489.045" r="1" fill="rgb(0,0,0)" />
	<circle cx="142.051" cy="317.578" r="1" fill="rgb(0,0,0)" />
	<circle cx="148.172" cy="245.225" r="1" fill="rgb(0,0,0)" />
	<circle cx="149.506" cy="304.865" r="1" fill="rgb(0,0,0)" />
	<circle cx="151.938" cy="361.602" r="1" fill="rgb(0,0,0)" />
	<circle cx="153.743" cy="376.983" r="1" fill="rgb(0,0,0)" />
	<circle cx="154.528" cy="454.673" r="1" fill="rgb(0,0,0)" />
	<circle cx="160.884" cy="508.114" r="1" fill="rgb(0,0,0)" />
	<circle cx="165.436" cy="484.18" r="1" fill="rgb(0,0,0)" />
	<circle cx="167.476" cy="330.605" r="1" fill="rgb(0,0,0)" />
	<circle cx="171.635" cy="316.244" r="1" fill="rgb(0,0,0)" />
	<circle cx="172.813" cy="370.313" r="1" fill="rgb(0,0,0)" />
	<circle cx="173.676" cy="244.283" r="1" fill="rgb(0,0,0)" />
	<circle cx="174.304" cy="141.717" r="1" fill="rgb(0,0,0)" />
	<circle cx="177.443" cy="296.626" r="1" fill="rgb(0,0,0)" />
	<circle cx="186.153" cy="261.783" r="1" fill="rgb(0,0,0)" />
	<circle cx="191.097" cy="534.796" r="1" fill="rgb(0,0,0)" />
	<circle cx="195.57" cy="341.435" r="1" fill="rgb(0,0,0)" />
	<circle cx="196.826" cy="445.178" r="1" fill="rgb(0,0,0)" />
	<circle cx="197.61" cy="264.137" r="1" fill="rgb(0,0,0)" />
	<circle cx="200.043" cy="376.826" r="1" fill="rgb(0,0,0)" />
	<circle cx="203.182" cy="378.161" r="1" fill="rgb(0,0,0)" />
	<circle cx="203.496" cy="375.806" r="1" fill="rgb(0,0,0)" />
	<circle cx="203.81" cy="462.364" r="1" fill="rgb(0,0,0)" />
	<circle cx="210.245" cy="303.061" r="1" fill="rgb(0,0,0)" />
	<circle cx="213.227" cy="514.392" r="1" fill="rgb(0,0,0)" />
	<circle cx="214.482" cy="230.079" r="1" fill="rgb(0,0,0)" />
	<circle cx="218.171" cy="331.233" r="1" fill="rgb(0,0,0)" />
	<circle cx="226.332" cy="338.923" r="1" fill="rgb(0,0,0)" />
	<circle cx="226.881" cy="512.666" r="1" fill="rgb(0,0,0)" />
	<circle cx="227.823" cy="108.915" r="1" fill="rgb(0,0,0)" />
	<circle cx="229" cy="269.395" r="1" fill="rgb(0,0,0)" />
	<circle cx="232.375" cy="518.237" r="1" fill="rgb(0,0,0)" />
	<circle cx="235.671" cy="265.471" r="1" fill="rgb(0,0,0)" />
	<circle cx="235.828" cy="86.3925" r="1" fill="rgb(0,0,0)" />
	<circle cx="236.22" cy="297.332" r="1" fill="rgb(0,0,0)" />
	<circle cx="240.928" cy="418.81" r="1" fill="rgb(0,0,0)" />
	<circle cx="242.969" cy="313.341" r="1" fill="rgb(0,0,0)" />
	<circle cx="247.206" cy="82.0764" r="1" fill="rgb(0,0,0)" />
	<circle cx="247.756" cy="244.754" r="1" fill="rgb(0,0,0)" />
	<circle cx="251.209" cy="516.668" r="1" fill="rgb(0,0,0)" />
	<circle cx="259.919" cy="312.556" r="1" fill="rgb(0,0,0)" />
	<circle cx="260.39" cy="436.389" r="1" fill="rgb(0,0,0)" />
	<circle cx="261.096" cy="303.845" r="1" fill="rgb(0,0,0)" />
	<circle cx="265.334" cy="278.733" r="1" fill="rgb(0,0,0)" />
	<circle cx="265.962" cy="284.227" r="1" fill="rgb(0,0,0)" />
	<circle cx="266.354" cy="225.449" r="1" fill="rgb(0,0,0)" />
	<circle cx="273.338" cy="129.475" r="1" fill="rgb(0,0,0)" />
	<circle cx="274.515" cy="226.94" r="1" fill="rgb(0,0,0)" />
	<circle cx="275.457" cy="430.425" r="1" fill="rgb(0,0,0)" />
	<circle cx="277.419" cy="339.473" r="1" fill="rgb(0,0,0)" />
	<circle cx="277.576" cy="327.231" r="1" fill="rgb(0,0,0)" />
	<circle cx="282.363" cy="527.419" r="1" fill="rgb(0,0,0)" />
	<circle cx="284.403" cy="515.726" r="1" fill="rgb(0,0,0)" />
	<circle cx="284.874" cy="510.39" r="1" fill="rgb(0,0,0)" />
	<circle cx="285.973" cy="116.762" r="1" fill="rgb(0,0,0)" />
	<circle cx="287.228" cy="86.7849" r="1" fill="rgb(0,0,0)" />
	<circle cx="289.347" cy="238.084" r="1" fill="rgb(0,0,0)" />
	<circle cx="289.739" cy="279.597" r="1" fill="rgb(0,0,0)" />
	<circle cx="291.309" cy="127.278" r="1" fill="rgb(0,0,0)" />
	<circle cx="292.957" cy="505.525" r="1" fill="rgb(0,0,0)" />
	<circle cx="294.291" cy="341.199" r="1" fill="rgb(0,0,0)" />
	<circle cx="294.762" cy="347.869" r="1" fill="rgb(0,0,0)" />
	<circle cx="299.313" cy="268.924" r="1" fill="rgb(0,0,0)" />
	<circle cx="302.06" cy="417.162" r="1" fill="rgb(0,0,0)" />
	<circle cx="302.374" cy="296.312" r="1" fill="rgb(0,0,0)" />
	<circle cx="305.591" cy="205.909" r="1" fill="rgb(0,0,0)" />
	<circle cx="308.181" cy="504.112" r="1" fill="rgb(0,0,0)" />
	<circle cx="308.338" cy="467.7" r="1" fill="rgb(0,0,0)" />
	<circle cx="309.907" cy="174.99" r="1" fill="rgb(0,0,0)" />
	<circle cx="315.322" cy="374.708" r="1" fill="rgb(0,0,0)" />
	<circle cx="316.421" cy="197.669" r="1" fill="rgb(0,0,0)" />
	<circle cx="327.015" cy="184.721" r="1" fill="rgb(0,0,0)" />
	<circle cx="328.192" cy="196.414" r="1" fill="rgb(0,0,0)" />
	<circle cx="329.448" cy="269.473" r="1" fill="rgb(0,0,0)" />
	<circle cx="332.037" cy="456.949" r="1" fill="rgb(0,0,0)" />
	<circle cx="333.685" cy="251.503" r="1" fill="rgb(0,0,0)" />
	<circle cx="336.824" cy="456.321" r="1" fill="rgb(0,0,0)" />
	<circle cx="340.277" cy="244.205" r="1" fill="rgb(0,0,0)" />
	<circle cx="348.438" cy="197.826" r="1" fill="rgb(0,0,0)" />
	<circle cx="351.185" cy="442.353" r="1" fill="rgb(0,0,0)" />
	<circle cx="351.97" cy="186.526" r="1" fill="rgb(0,0,0)" />
	<circle cx="352.519" cy="167.064" r="1" fill="rgb(0,0,0)" />
	<circle cx="352.598" cy="527.497" r="1" fill="rgb(0,0,0)" />
	<circle cx="363.035" cy="104.599" r="1" fill="rgb(0,0,0)" />
	<circle cx="363.741" cy="147.995" r="1" fill="rgb(0,0,0)" />
	<circle cx="374.727" cy="522.24" r="1" fill="rgb(0,0,0)" />
	<circle cx="377.16" cy="382.084" r="1" fill="rgb(0,0,0)" />
	<circle cx="377.395" cy="458.911" r="1" fill="rgb(0,0,0)" />
	<circle cx="380.927" cy="73.2088" r="1" fill="rgb(0,0,0)" />
	<circle cx="382.575" cy="439.998" r="1" fill="rgb(0,0,0)" />
	<circle cx="385.086" cy="77.211" r="1" fill="rgb(0,0,0)" />
	<circle cx="389.324" cy="502.386" r="1" fill="rgb(0,0,0)" />
	<circle cx="390.108" cy="543.663" r="1" fill="rgb(0,0,0)" />
	<circle cx="395.366" cy="320.011" r="1" fill="rgb(0,0,0)" />
	<circle cx="396.857" cy="84.823" r="1" fill="rgb(0,0,0)" />
	<circle cx="398.427" cy="344.652" r="1" fill="rgb(0,0,0)" />
	<circle cx="404.548" cy="490.144" r="1" fill="rgb(0,0,0)" />
	<circle cx="404.861" cy="510.39" r="1" fill="rgb(0,0,0)" />
	<circle cx="406.117" cy="409.236" r="1" fill="rgb(0,0,0)" />
	<circle cx="414.906" cy="528.518" r="1" fill="rgb(0,0,0)" />
	<circle cx="416.633" cy="92.592" r="1" fill="rgb(0,0,0)" />
	<circle cx="417.81" cy="534.874" r="1" fill="rgb(0,0,0)" />
	<circle cx="418.83" cy="87.0988" r="1" fill="rgb(0,0,0)" />
	<circle cx="421.263" cy="474.763" r="1" fill="rgb(0,0,0)" />
	<circle cx="424.323" cy="454.987" r="1" fill="rgb(0,0,0)" />
	<circle cx="427.619" cy="324.719" r="1" fill="rgb(0,0,0)" />
	<circle cx="429.738" cy="519.728" r="1" fill="rgb(0,0,0)" />
	<circle cx="429.816" cy="342.219" r="1" fill="rgb(0,0,0)" />
	<circle cx="433.976" cy="487.162" r="1" fill="rgb(0,0,0)" />
	<circle cx="435.937" cy="454.83" r="1" fill="rgb(0,0,0)" />
	<circle cx="439.469" cy="250.247" r="1" fill="rgb(0,0,0)" />
	<circle cx="441.588" cy="431.68" r="1" fill="rgb(0,0,0)" />
	<circle cx="441.901" cy="340.257" r="1" fill="rgb(0,0,0)" />
	<circle cx="443.706" cy="319.148" r="1" fill="rgb(0,0,0)" />
	<circle cx="447.552" cy="342.612" r="1" fill="rgb(0,0,0)" />
	<circle cx="448.101" cy="420.458" r="1" fill="rgb(0,0,0)" />
	<circle cx="450.22" cy="427.678" r="1" fill="rgb(0,0,0)" />
	<circle cx="451.004" cy="253.465" r="1" fill="rgb(0,0,0)" />
	<circle cx="451.868" cy="402.645" r="1" fill="rgb(0,0,0)" />
	<circle cx="454.222" cy="300.942" r="1" fill="rgb(0,0,0)" />
	<circle cx="455.007" cy="275.908" r="1" fill="rgb(0,0,0)" />
	<circle cx="457.518" cy="533.226" r="1" fill="rgb(0,0,0)" />
	<circle cx="457.91" cy="542.721" r="1" fill="rgb(0,0,0)" />
	<circle cx="458.538" cy="404.136" r="1" fill="rgb(0,0,0)" />
	<circle cx="461.049" cy="416.142" r="1" fill="rgb(0,0,0)" />
	<circle cx="462.305" cy="408.295" r="1" fill="rgb(0,0,0)" />
	<circle cx="462.54" cy="144.071" r="1" fill="rgb(0,0,0)" />
	<circle cx="463.011" cy="445.884" r="1" fill="rgb(0,0,0)" />
	<circle cx="466.621" cy="286.973" r="1" fill="rgb(0,0,0)" />
	<circle cx="469.603" cy="276.772" r="1" fill="rgb(0,0,0)" />
	<circle cx="476.509" cy="533.226" r="1" fill="rgb(0,0,0)" />
	<circle cx="482.787" cy="339.237" r="1" fill="rgb(0,0,0)" />
	<circle cx="483.336" cy="280.303" r="1" fill="rgb(0,0,0)" />
	<circle cx="483.571" cy="420.615" r="1" fill="rgb(0,0,0)" />
	<circle cx="486.396" cy="487.162" r="1" fill="rgb(0,0,0)" />
	<circle cx="488.515" cy="248.992" r="1" fill="rgb(0,0,0)" />
	<circle cx="495.735" cy="495.166" r="1" fill="rgb(0,0,0)" />
	<circle cx="496.127" cy="367.41" r="1" fill="rgb(0,0,0)" />
	<circle cx="498.011" cy="387.185" r="1" fill="rgb(0,0,0)" />
	<circle cx="499.659" cy="468.406" r="1" fill="rgb(0,0,0)" />
	<circle cx="500.208" cy="465.032" r="1" fill="rgb(0,0,0)" />
	<circle cx="500.914" cy="500.11" r="1" fill="rgb(0,0,0)" />
	<circle cx="501.777" cy="341.827" r="1" fill="rgb(0,0,0)" />
	<circle cx="502.876" cy="484.415" r="1" fill="rgb(0,0,0)" />
	<circle cx="507.114" cy="328.957" r="1" fill="rgb(0,0,0)" />
	<circle cx="507.271" cy="393.306" r="1" fill="rgb(0,0,0)" />
	<circle cx="507.349" cy="428.541" r="1" fill="rgb(0,0,0)" />
	<circle cx="509.546" cy="161.022" r="1" fill="rgb(0,0,0)" />
	<circle cx="514.412" cy="410.335" r="1" fill="rgb(0,0,0)" />
	<circle cx="518.257" cy="385.773" r="1" fill="rgb(0,0,0)" />
	<circle cx="526.34" cy="141.56" r="1" fill="rgb(0,0,0)" />
	<circle cx="535.678" cy="422.891" r="1" fill="rgb(0,0,0)" />
	<circle cx="537.64" cy="390.952" r="1" fill="rgb(0,0,0)" />
	<circle cx="538.817" cy="442.98" r="1" fill="rgb(0,0,0)" />
	<circle cx="538.896" cy="485.671" r="1" fill="rgb(0,0,0)" />
	<circle cx="542.898" cy="438.194" r="1" fill="rgb(0,0,0)" />
	<circle cx="546.272" cy="473.35" r="1" fill="rgb(0,0,0)" />
	<circle cx="547.136" cy="248.05" r="1" fill="rgb(0,0,0)" />
	<circle cx="547.999" cy="279.047" r="1" fill="rgb(0,0,0)" />
	<circle cx="549.176" cy="325.347" r="1" fill="rgb(0,0,0)" />
	<circle cx="549.49" cy="341.278" r="1" fill="rgb(0,0,0)" />
	<circle cx="551.923" cy="242.321" r="1" fill="rgb(0,0,0)" />
	<circle cx="553.257" cy="445.256" r="1" fill="rgb(0,0,0)" />
	<circle cx="555.454" cy="377.062" r="1" fill="rgb(0,0,0)" />
	<circle cx="558.514" cy="272.926" r="1" fill="rgb(0,0,0)" />
	<circle cx="560.869" cy="195.08" r="1" fill="rgb(0,0,0)" />
	<circle cx="561.026" cy="276.065" r="1" fill="rgb(0,0,0)" />
	<circle cx="564.322" cy="502.7" r="1" fill="rgb(0,0,0)" />
	<circle cx="565.106" cy="485.121" r="1" fill="rgb(0,0,0)" />
	<circle cx="566.754" cy="541.466" r="1" fill="rgb(0,0,0)" />
	<circle cx="567.068" cy="380.986" r="1" fill="rgb(0,0,0)" />
	<circle cx="567.853" cy="281.245" r="1" fill="rgb(0,0,0)" />
	<circle cx="567.931" cy="444.707" r="1" fill="rgb(0,0,0)" />
	<circle cx="568.481" cy="317.5" r="1" fill="rgb(0,0,0)" />
	<circle cx="570.6" cy="441.254" r="1" fill="rgb(0,0,0)" />
	<circle cx="571.934" cy="478.529" r="1" fill="rgb(0,0,0)" />
	<circle cx="572.248" cy="432.386" r="1" fill="rgb(0,0,0)" />
	<circle cx="575.151" cy="523.103" r="1" fill="rgb(0,0,0)" />
	<circle cx="575.386" cy="264.608" r="1" fill="rgb(0,0,0)" />
	<circle cx="580.252" cy="395.033" r="1" fill="rgb(0,0,0)" />
	<circle cx="580.644" cy="529.852" r="1" fill="rgb(0,0,0)" />
	<circle cx="588.57" cy="427.992" r="1" fill="rgb(0,0,0)" />
	<circle cx="592.494" cy="523.966" r="1" fill="rgb(0,0,0)" />
	<circle cx="594.063" cy="488.339" r="1" fill="rgb(0,0,0)" />
	<circle cx="594.377" cy="408.138" r="1" fill="rgb(0,0,0)" />
	<circle cx="594.927" cy="280.695" r="1" fill="rgb(0,0,0)" />
	<circle cx="597.124" cy="245.617" r="1" fill="rgb(0,0,0)" />
	<circle cx="603.245" cy="355.952" r="1" fill="rgb(0,0,0)" />
	<circle cx="604.422" cy="394.169" r="1" fill="rgb(0,0,0)" />
	<circle cx="609.601" cy="291.211" r="1" fill="rgb(0,0,0)" />
	<circle cx="615.016" cy="233.218" r="1" fill="rgb(0,0,0)" />
	<circle cx="618.39" cy="281.402" r="1" fill="rgb(0,0,0)" />
	<circle cx="618.626" cy="256.447" r="1" fill="rgb(0,0,0)" />
	<circle cx="620.745" cy="515.648" r="1" fill="rgb(0,0,0)" />
	<circle cx="620.902" cy="501.679" r="1" fill="rgb(0,0,0)" />
	<circle cx="623.727" cy="376.513" r="1" fill="rgb(0,0,0)" />
	<circle cx="624.825" cy="374.08" r="1" fill="rgb(0,0,0)" />
	<circle cx="625.846" cy="41.0343" r="1" fill="rgb(0,0,0)" />
	<circle cx="627.258" cy="334.293" r="1" fill="rgb(0,0,0)" />
	<circle cx="627.964" cy="491.87" r="1" fill="rgb(0,0,0)" />
	<circle cx="629.534" cy="105.069" r="1" fill="rgb(0,0,0)" />
	<circle cx="629.612" cy="385.773" r="1" fill="rgb(0,0,0)" />
	<circle cx="630.24" cy="481.354" r="1" fill="rgb(0,0,0)" />
	<circle cx="631.731" cy="349.36" r="1" fill="rgb(0,0,0)" />
	<circle cx="632.28" cy="370.784" r="1" fill="rgb(0,0,0)" />
	<circle cx="635.262" cy="510.547" r="1" fill="rgb(0,0,0)" />
	<circle cx="635.498" cy="219.407" r="1" fill="rgb(0,0,0)" />
	<circle cx="636.283" cy="368.116" r="1" fill="rgb(0,0,0)" />
	<circle cx="637.46" cy="447.846" r="1" fill="rgb(0,0,0)" />
	<circle cx="638.323" cy="36.6397" r="1" fill="rgb(0,0,0)" />
	<circle cx="641.384" cy="290.662" r="1" fill="rgb(0,0,0)" />
	<circle cx="642.875" cy="391.423" r="1" fill="rgb(0,0,0)" />
	<circle cx="644.209" cy="25.8887" r="1" fill="rgb(0,0,0)" />
	<circle cx="645.229" cy="324.327" r="1" fill="rgb(0,0,0)" />
	<circle cx="645.307" cy="365.762" r="1" fill="rgb(0,0,0)" />
	<circle cx="646.955" cy="419.752" r="1" fill="rgb(0,0,0)" />
	<circle cx="648.289" cy="367.645" r="1" fill="rgb(0,0,0)" />
	<circle cx="655.273" cy="339.708" r="1" fill="rgb(0,0,0)" />
	<circle cx="656.686" cy="276.772" r="1" fill="rgb(0,0,0)" />
	<circle cx="658.334" cy="388.048" r="1" fill="rgb(0,0,0)" />
	<circle cx="662.179" cy="412.689" r="1" fill="rgb(0,0,0)" />
	<circle cx="663.906" cy="374.001" r="1" fill="rgb(0,0,0)" />
	<circle cx="664.69" cy="51.6283" r="1" fill="rgb(0,0,0)" />
	<circle cx="666.417" cy="321.11" r="1" fill="rgb(0,0,0)" />
	<circle cx="670.654" cy="349.831" r="1" fill="rgb(0,0,0)" />
	<circle cx="675.598" cy="416.927" r="1" fill="rgb(0,0,0)" />
	<circle cx="677.246" cy="348.183" r="1" fill="rgb(0,0,0)" />
	<circle cx="678.894" cy="205.203" r="1" fill="rgb(0,0,0)" />
	<circle cx="681.955" cy="180.562" r="1" fill="rgb(0,0,0)" />
	<circle cx="684.701" cy="241.772" r="1" fill="rgb(0,0,0)" />
	<circle cx="688.782" cy="445.178" r="1" fill="rgb(0,0,0)" />
	<circle cx="689.881" cy="315.067" r="1" fill="rgb(0,0,0)" />
	<circle cx="690.273" cy="327.466" r="1" fill="rgb(0,0,0)" />
	<circle cx="690.901" cy="538.955" r="1" fill="rgb(0,0,0)" />
	<circle cx="693.804" cy="74.8568" r="1" fill="rgb(0,0,0)" />
	<circle cx="693.883" cy="521.69" r="1" fill="rgb(0,0,0)" />
	<circle cx="700.004" cy="72.3456" r="1" fill="rgb(0,0,0)" />
	<circle cx="705.34" cy="317.892" r="1" fill="rgb(0,0,0)" />
	<circle cx="714.051" cy="292.545" r="1" fill="rgb(0,0,0)" />
	<circle cx="715.62" cy="232.904" r="1" fill="rgb(0,0,0)" />
	<circle cx="718.21" cy="115.036" r="1" fill="rgb(0,0,0)" />
	<circle cx="718.681" cy="155.842" r="1" fill="rgb(0,0,0)" />
	<circle cx="718.916" cy="293.801" r="1" fill="rgb(0,0,0)" />
	<circle cx="721.584" cy="142.894" r="1" fill="rgb(0,0,0)" />
	<circle cx="722.84" cy="438.35" r="1" fill="rgb(0,0,0)" />
	<circle cx="723.703" cy="118.567" r="1" fill="rgb(0,0,0)" />
	<circle cx="728.255" cy="446.669" r="1" fill="rgb(0,0,0)" />
	<circle cx="728.412" cy="328.094" r="1" fill="rgb(0,0,0)" />
	<circle cx="729.196" cy="358.856" r="1" fill="rgb(0,0,0)" />
	<circle cx="730.452" cy="383.889" r="1" fill="rgb(0,0,0)" />
	<circle cx="730.844" cy="174.833" r="1" fill="rgb(0,0,0)" />
	<circle cx="731.08" cy="234.552" r="1" fill="rgb(0,0,0)" />
	<circle cx="731.158" cy="141.717" r="1" fill="rgb(0,0,0)" />
	<circle cx="731.394" cy="146.661" r="1" fill="rgb(0,0,0)" />
	<circle cx="737.75" cy="520.435" r="1" fill="rgb(0,0,0)" />
	<circle cx="737.829" cy="342.769" r="1" fill="rgb(0,0,0)" />
	<circle cx="738.143" cy="203.241" r="1" fill="rgb(0,0,0)" />
	<circle cx="741.674" cy="331.076" r="1" fill="rgb(0,0,0)" />
	<circle cx="742.773" cy="365.134" r="1" fill="rgb(0,0,0)" />
	<circle cx="744.264" cy="244.205" r="1" fill="rgb(0,0,0)" />
	<circle cx="747.952" cy="311.693" r="1" fill="rgb(0,0,0)" />
	<circle cx="749.521" cy="439.371" r="1" fill="rgb(0,0,0)" />
	<circle cx="751.64" cy="463.855" r="1" fill="rgb(0,0,0)" />
	<circle cx="753.21" cy="317.657" r="1" fill="rgb(0,0,0)" />
	<circle cx="754.308" cy="139.441" r="1" fill="rgb(0,0,0)" />
	<circle cx="757.212" cy="379.338" r="1" fill="rgb(0,0,0)" />
	<circle cx="757.683" cy="370.392" r="1" fill="rgb(0,0,0)" />
	<circle cx="763.647" cy="158.746" r="1" fill="rgb(0,0,0)" />
	<circle cx="765.766" cy="391.423" r="1" fill="rgb(0,0,0)" />
	<circle cx="767.257" cy="436.703" r="1" fill="rgb(0,0,0)" />
	<circle cx="767.335" cy="175.069" r="1" fill="rgb(0,0,0)" />
	<circle cx="767.649" cy="367.331" r="1" fill="rgb(0,0,0)" />
	<circle cx="774.712" cy="340.336" r="1" fill="rgb(0,0,0)" />
	<circle cx="779.655" cy="271.749" r="1" fill="rgb(0,0,0)" />
	<circle cx="782.716" cy="421.714" r="1" fill="rgb(0,0,0)" />
	<circle cx="783.265" cy="419.36" r="1" fill="rgb(0,0,0)" />
	<circle cx="788.915" cy="341.748" r="1" fill="rgb(0,0,0)" />
	<circle cx="790.485" cy="244.754" r="1" fill="rgb(0,0,0)" />
	<circle cx="794.801" cy="355.952" r="1" fill="rgb(0,0,0)" />
	<circle cx="799.666" cy="317.5" r="1" fill="rgb(0,0,0)" />
	<circle cx="802.178" cy="230.079" r="1" fill="rgb(0,0,0)" />
	<circle cx="803.198" cy="227.647" r="1" fill="rgb(0,0,0)" />
	<circle cx="807.043" cy="360.739" r="1" fill="rgb(0,0,0)" />
	<circle cx="810.261" cy="390.324" r="1" fill="rgb(0,0,0)" />
	<circle cx="810.261" cy="313.655" r="1" fill="rgb(0,0,0)" />
	<circle cx="810.731" cy="320.325" r="1" fill="rgb(0,0,0)" />
	<circle cx="818.893" cy="391.109" r="1" fill="rgb(0,0,0)" />
	<circle cx="819.442" cy="277.87" r="1" fill="rgb(0,0,0)" />
	<circle cx="825.955" cy="352.107" r="1" fill="rgb(0,0,0)" />
	<circle cx="826.897" cy="334.921" r="1" fill="rgb(0,0,0)" />
	<circle cx="828.31" cy="298.587" r="1" fill="rgb(0,0,0)" />
	<circle cx="828.467" cy="229.608" r="1" fill="rgb(0,0,0)" />
	<circle cx="829.722" cy="243.263" r="1" fill="rgb(0,0,0)" />
	<circle cx="830.742" cy="241.144" r="1" fill="rgb(0,0,0)" />
	<circle cx="834.588" cy="241.223" r="1" fill="rgb(0,0,0)" />
	<circle cx="838.433" cy="358.307" r="1" fill="rgb(0,0,0)" />
	<circle cx="838.825" cy="480.334" r="1" fill="rgb(0,0,0)" />
	<circle cx="859.542" cy="243.028" r="1" fill="rgb(0,0,0)" />
	<circle cx="861.975" cy="300.078" r="1" fill="rgb(0,0,0)" />
	<circle cx="865.114" cy="166.672" r="1" fill="rgb(0,0,0)" />
	<circle cx="865.507" cy="168.555" r="1" fill="rgb(0,0,0)" />
	<circle cx="866.291" cy="323.856" r="1" fill="rgb(0,0,0)" />
	<circle cx="867.704" cy="245.696" r="1" fill="rgb(0,0,0)" />
	<circle cx="880.495" cy="356.188" r="1" fill="rgb(0,0,0)" />
	<circle cx="887.009" cy="399.506" r="1" fill="rgb(0,0,0)" />
	<circle cx="887.479" cy="465.503" r="1" fill="rgb(0,0,0)" />
	<circle cx="894.699" cy="320.56" r="1" fill="rgb(0,0,0)" />
	<circle cx="895.013" cy="329.506" r="1" fill="rgb(0,0,0)" />
	<circle cx="898.78" cy="340.885" r="1" fill="rgb(0,0,0)" />
	<circle cx="899.564" cy="198.454" r="1" fill="rgb(0,0,0)" />
	<circle cx="903.802" cy="469.976" r="1" fill="rgb(0,0,0)" />
	<circle cx="904.43" cy="517.453" r="1" fill="rgb(0,0,0)" />
	<circle cx="907.176" cy="94.6323" r="1" fill="rgb(0,0,0)" />
	<circle cx="910.394" cy="234.945" r="1" fill="rgb(0,0,0)" />
	<circle cx="915.338" cy="79.9576" r="1" fill="rgb(0,0,0)" />
	<circle cx="918.948" cy="540.446" r="1" fill="rgb(0,0,0)" />
	<circle cx="918.948" cy="336.648" r="1" fill="rgb(0,0,0)" />
	<circle cx="919.34" cy="334.372" r="1" fill="rgb(0,0,0)" />
	<circle cx="920.91" cy="480.02" r="1" fill="rgb(0,0,0)" />
	<circle cx="923.97" cy="458.518" r="1" fill="rgb(0,0,0)" />
	<circle cx="927.815" cy="511.646" r="1" fill="rgb(0,0,0)" />
	<circle cx="928.914" cy="539.583" r="1" fill="rgb(0,0,0)" />
	<circle cx="930.326" cy="301.099" r="1" fill="rgb(0,0,0)" />
	<circle cx="930.876" cy="342.455" r="1" fill="rgb(0,0,0)" />
	<circle cx="932.681" cy="265.55" r="1" fill="rgb(0,0,0)" />
	<circle cx="934.643" cy="80.35" r="1" fill="rgb(0,0,0)" />
	<circle cx="940.607" cy="324.406" r="1" fill="rgb(0,0,0)" />
	<circle cx="941.234" cy="389.382" r="1" fill="rgb(0,0,0)" />
	<circle cx="942.255" cy="310.829" r="1" fill="rgb(0,0,0)" />
	<circle cx="946.178" cy="416.692" r="1" fill="rgb(0,0,0)" />
	<circle cx="946.414" cy="493.989" r="1" fill="rgb(0,0,0)" />
	<circle cx="946.885" cy="282.579" r="1" fill="rgb(0,0,0)" />
	<circle cx="948.376" cy="432.465" r="1" fill="rgb(0,0,0)" />
	<circle cx="949.788" cy="90.7871" r="1" fill="rgb(0,0,0)" />
	<circle cx="952.378" cy="301.334" r="1" fill="rgb(0,0,0)" />
	<circle cx="954.026" cy="236.122" r="1" fill="rgb(0,0,0)" />
	<circle cx="957.479" cy="113.702" r="1" fill="rgb(0,0,0)" />
	<circle cx="976.705" cy="316.794" r="1" fill="rgb(0,0,0)" />
	<circle cx="978.274" cy="455.929" r="1" fill="rgb(0,0,0)" />
	<circle cx="985.102" cy="500.267" r="1" fill="rgb(0,0,0)" />
	<circle cx="1001.74" cy="494.617" r="1" fill="rgb(0,0,0)" />
	<circle cx="1006.45" cy="515.02" r="1" fill="rgb(0,0,0)" />
	<circle cx="1006.68" cy="341.278" r="1" fill="rgb(0,0,0)" />
	<circle cx="1009.35" cy="511.332" r="1" fill="rgb(0,0,0)" />
	<circle cx="1010.21" cy="521.063" r="1" fill="rgb(0,0,0)" />
	<circle cx="1014.06" cy="393.699" r="1" fill="rgb(0,0,0)" />
	<circle cx="1015.08" cy="480.57" r="1" fill="rgb(0,0,0)" />
	<circle cx="1015.24" cy="362.623" r="1" fill="rgb(0,0,0)" />
	<circle cx="1016.26" cy="509.684" r="1" fill="rgb(0,0,0)" />
	<circle cx="1017.43" cy="507.094" r="1" fill="rgb(0,0,0)" />
	<circle cx="1018.77" cy="523.809" r="1" fill="rgb(0,0,0)" />
	<circle cx="1022.06" cy="285.482" r="1" fill="rgb(0,0,0)" />
	<circle cx="1024.89" cy="494.774" r="1" fill="rgb(0,0,0)" />
	<circle cx="1025.59" cy="221.682" r="1" fill="rgb(0,0,0)" />
	<circle cx="1027.56" cy="301.648" r="1" fill="rgb(0,0,0)" />
	<circle cx="1030.38" cy="288.072" r="1" fill="rgb(0,0,0)" />
	<circle cx="1030.7" cy="362.858" r="1" fill="rgb(0,0,0)" />
	<circle cx="1032.11" cy="245.774" r="1" fill="rgb(0,0,0)" />
	<circle cx="1034.46" cy="243.812" r="1" fill="rgb(0,0,0)" />
	<circle cx="1035.01" cy="246.088" r="1" fill="rgb(0,0,0)" />
	<circle cx="1044.35" cy="432.7" r="1" fill="rgb(0,0,0)" />
	<circle cx="1044.82" cy="444.001" r="1" fill="rgb(0,0,0)" />
	<circle cx="1046.15" cy="295.527" r="1" fill="rgb(0,0,0)" />
	<circle cx="1050" cy="239.025" r="1" fill="rgb(0,0,0)" />
</svg>
