<?xml version="1.0" standalone="no" ?>
<!DOCTYPE svg PUBLIC "-//W3C//DTD SVG 1.1//EN" "http://www.w3.org/Graphics/SVG/1.1/DTD/svg11.dtd">
<svg width="1100px" height="579.682px" xmlns="http://www.w3.org/2000/svg" version="1.1" >
	<circle cx="50" cy="346.158" r="1" fill="rgb(0,0,0)" />
	<circle cx="50.3133" cy="550.513" r="1" fill="rgb(0,0,0)" />
	<circle cx="52.2715" cy="517.224" r="1" fill="rgb(0,0,0)" />
	<circle cx="53.7597" cy="285.925" r="1" fill="rgb(0,0,0)" />
	<circle cx="55.4829" cy="248.484" r="1" fill="rgb(0,0,0)" />
	<circle cx="57.911" cy="491.69" r="1" fill="rgb(0,0,0)" />
	<circle cx="59.1643" cy="258.98" r="1" fill="rgb(0,0,0)" />
	<circle cx="59.7125" cy="494.588" r="1" fill="rgb(0,0,0)" />
	<circle cx="71.7749" cy="494.039" r="1" fill="rgb(0,0,0)" />
	<circle cx="73.2631" cy="445.242" r="1" fill="rgb(0,0,0)" />
	<circle cx="74.9863" cy="345.923" r="1" fill="rgb(0,0,0)" />
	<circle cx="76.3179" cy="287.256" r="1" fill="rgb(0,0,0)" />
	<circle cx="76.8661" cy="546.753" r="1" fill="rgb(0,0,0)" />
	<circle cx="79.9992" cy="534.691" r="1" fill="rgb(0,0,0)" />
	<circle cx="80.0775" cy="445.085" r="1" fill="rgb(0,0,0)" />
	<circle cx="81.4874" cy="547.38" r="1" fill="rgb(0,0,0)" />
	<circle cx="82.114" cy="375.296" r="1" fill="rgb(0,0,0)" />
	<circle cx="82.4274" cy="285.925" r="1" fill="rgb(0,0,0)" />
	<circle cx="87.5186" cy="374.591" r="1" fill="rgb(0,0,0)" />
	<circle cx="89.3201" cy="503.282" r="1" fill="rgb(0,0,0)" />
	<circle cx="90.1817" cy="348.43" r="1" fill="rgb(0,0,0)" />
	<circle cx="92.3749" cy="515.188" r="1" fill="rgb(0,0,0)" />
	<circle cx="94.0981" cy="455.111" r="1" fill="rgb(0,0,0)" />
	<circle cx="94.803" cy="352.659" r="1" fill="rgb(0,0,0)" />
	<circle cx="96.3695" cy="305.976" r="1" fill="rgb(0,0,0)" />
	<circle cx="97.0745" cy="333.704" r="1" fill="rgb(0,0,0)" />
	<circle cx="97.4661" cy="333.782" r="1" fill="rgb(0,0,0)" />
	<circle cx="99.8943" cy="330.101" r="1" fill="rgb(0,0,0)" />
	<circle cx="101.304" cy="500.932" r="1" fill="rgb(0,0,0)" />
	<circle cx="108.51" cy="267.439" r="1" fill="rgb(0,0,0)" />
	<circle cx="108.902" cy="460.594" r="1" fill="rgb(0,0,0)" />
	<circle cx="110.155" cy="345.061" r="1" fill="rgb(0,0,0)" />
	<circle cx="112.192" cy="550.591" r="1" fill="rgb(0,0,0)" />
	<circle cx="112.192" cy="457.852" r="1" fill="rgb(0,0,0)" />
	<circle cx="116.97" cy="443.675" r="1" fill="rgb(0,0,0)" />
	<circle cx="117.518" cy="347.96" r="1" fill="rgb(0,0,0)" />
	<circle cx="121.199" cy="312.477" r="1" fill="rgb(0,0,0)" />
	<circle cx="121.278" cy="317.725" r="1" fill="rgb(0,0,0)" />
	<circle cx="121.826" cy="319.135" r="1" fill="rgb(0,0,0)" />
	<circle cx="121.904" cy="324.227" r="1" fill="rgb(0,0,0)" />
	<circle cx="124.176" cy="433.963" r="1" fill="rgb(0,0,0)" />
	<circle cx="126.604" cy="309.971" r="1" fill="rgb(0,0,0)" />
	<circle cx="128.327" cy="479.001" r="1" fill="rgb(0,0,0)" />
	<circle cx="133.34" cy="499.052" r="1" fill="rgb(0,0,0)" />
	<circle cx="133.81" cy="540.017" r="1" fill="rgb(0,0,0)" />
	<circle cx="137.883" cy="326.811" r="1" fill="rgb(0,0,0)" />
	<circle cx="141.643" cy="372.946" r="1" fill="rgb(0,0,0)" />
	<circle cx="141.877" cy="534.221" r="1" fill="rgb(0,0,0)" />
	<circle cx="142.112" cy="539.469" r="1" fill="rgb(0,0,0)" />
	<circle cx="142.191" cy="277.465" r="1" fill="rgb(0,0,0)" />
	<circle cx="143.992" cy="249.894" r="1" fill="rgb(0,0,0)" />
	<circle cx="144.149" cy="234.464" r="1" fill="rgb(0,0,0)" />
	<circle cx="144.384" cy="167.729" r="1" fill="rgb(0,0,0)" />
	<circle cx="144.697" cy="369.499" r="1" fill="rgb(0,0,0)" />
	<circle cx="144.932" cy="467.017" r="1" fill="rgb(0,0,0)" />
	<circle cx="145.402" cy="277.387" r="1" fill="rgb(0,0,0)" />
	<circle cx="146.264" cy="480.724" r="1" fill="rgb(0,0,0)" />
	<circle cx="146.969" cy="384.617" r="1" fill="rgb(0,0,0)" />
	<circle cx="155.115" cy="345.845" r="1" fill="rgb(0,0,0)" />
	<circle cx="156.133" cy="349.448" r="1" fill="rgb(0,0,0)" />
	<circle cx="157.151" cy="361.353" r="1" fill="rgb(0,0,0)" />
	<circle cx="157.465" cy="348.508" r="1" fill="rgb(0,0,0)" />
	<circle cx="157.465" cy="267.988" r="1" fill="rgb(0,0,0)" />
	<circle cx="158.326" cy="510.175" r="1" fill="rgb(0,0,0)" />
	<circle cx="159.344" cy="361.119" r="1" fill="rgb(0,0,0)" />
	<circle cx="160.128" cy="457.226" r="1" fill="rgb(0,0,0)" />
	<circle cx="162.712" cy="167.651" r="1" fill="rgb(0,0,0)" />
	<circle cx="162.947" cy="293.757" r="1" fill="rgb(0,0,0)" />
	<circle cx="163.261" cy="373.416" r="1" fill="rgb(0,0,0)" />
	<circle cx="164.984" cy="334.017" r="1" fill="rgb(0,0,0)" />
	<circle cx="168.352" cy="316.394" r="1" fill="rgb(0,0,0)" />
	<circle cx="169.449" cy="258.354" r="1" fill="rgb(0,0,0)" />
	<circle cx="169.997" cy="239.555" r="1" fill="rgb(0,0,0)" />
	<circle cx="170.154" cy="320.389" r="1" fill="rgb(0,0,0)" />
	<circle cx="171.72" cy="419.707" r="1" fill="rgb(0,0,0)" />
	<circle cx="171.955" cy="169.844" r="1" fill="rgb(0,0,0)" />
	<circle cx="173.443" cy="317.804" r="1" fill="rgb(0,0,0)" />
	<circle cx="173.443" cy="206.658" r="1" fill="rgb(0,0,0)" />
	<circle cx="176.733" cy="362.058" r="1" fill="rgb(0,0,0)" />
	<circle cx="179.318" cy="363.155" r="1" fill="rgb(0,0,0)" />
	<circle cx="182.764" cy="298.222" r="1" fill="rgb(0,0,0)" />
	<circle cx="185.427" cy="499.992" r="1" fill="rgb(0,0,0)" />
	<circle cx="188.404" cy="77.34" r="1" fill="rgb(0,0,0)" />
	<circle cx="188.795" cy="273.157" r="1" fill="rgb(0,0,0)" />
	<circle cx="188.952" cy="455.659" r="1" fill="rgb(0,0,0)" />
	<circle cx="189.422" cy="121.203" r="1" fill="rgb(0,0,0)" />
	<circle cx="189.814" cy="138.592" r="1" fill="rgb(0,0,0)" />
	<circle cx="192.242" cy="340.049" r="1" fill="rgb(0,0,0)" />
	<circle cx="193.26" cy="175.249" r="1" fill="rgb(0,0,0)" />
	<circle cx="194.67" cy="302.452" r="1" fill="rgb(0,0,0)" />
	<circle cx="198.508" cy="369.891" r="1" fill="rgb(0,0,0)" />
	<circle cx="199.683" cy="459.419" r="1" fill="rgb(0,0,0)" />
	<circle cx="201.719" cy="492.864" r="1" fill="rgb(0,0,0)" />
	<circle cx="203.129" cy="273.941" r="1" fill="rgb(0,0,0)" />
	<circle cx="203.834" cy="214.021" r="1" fill="rgb(0,0,0)" />
	<circle cx="206.106" cy="409.76" r="1" fill="rgb(0,0,0)" />
	<circle cx="206.262" cy="234.307" r="1" fill="rgb(0,0,0)" />
	<circle cx="207.202" cy="240.965" r="1" fill="rgb(0,0,0)" />
	<circle cx="207.672" cy="528.581" r="1" fill="rgb(0,0,0)" />
	<circle cx="208.455" cy="280.128" r="1" fill="rgb(0,0,0)" />
	<circle cx="208.534" cy="355.166" r="1" fill="rgb(0,0,0)" />
	<circle cx="209.239" cy="323.208" r="1" fill="rgb(0,0,0)" />
	<circle cx="210.335" cy="328.143" r="1" fill="rgb(0,0,0)" />
	<circle cx="211.119" cy="296.499" r="1" fill="rgb(0,0,0)" />
	<circle cx="213.547" cy="280.755" r="1" fill="rgb(0,0,0)" />
	<circle cx="214.878" cy="350.544" r="1" fill="rgb(0,0,0)" />
	<circle cx="218.246" cy="264.541" r="1" fill="rgb(0,0,0)" />
	<circle cx="218.56" cy="521.219" r="1" fill="rgb(0,0,0)" />
	<circle cx="218.951" cy="264.15" r="1" fill="rgb(0,0,0)" />
	<circle cx="220.518" cy="238.928" r="1" fill="rgb(0,0,0)" />
	<circle cx="226.784" cy="295.637" r="1" fill="rgb(0,0,0)" />
	<circle cx="228.664" cy="275.585" r="1" fill="rgb(0,0,0)" />
	<circle cx="229.134" cy="264.933" r="1" fill="rgb(0,0,0)" />
	<circle cx="229.525" cy="377.88" r="1" fill="rgb(0,0,0)" />
	<circle cx="230.074" cy="506.885" r="1" fill="rgb(0,0,0)" />
	<circle cx="230.465" cy="517.381" r="1" fill="rgb(0,0,0)" />
	<circle cx="231.092" cy="296.734" r="1" fill="rgb(0,0,0)" />
	<circle cx="234.225" cy="531.088" r="1" fill="rgb(0,0,0)" />
	<circle cx="234.538" cy="103.031" r="1" fill="rgb(0,0,0)" />
	<circle cx="235.165" cy="273.784" r="1" fill="rgb(0,0,0)" />
	<circle cx="235.322" cy="413.754" r="1" fill="rgb(0,0,0)" />
	<circle cx="236.575" cy="254.359" r="1" fill="rgb(0,0,0)" />
	<circle cx="236.81" cy="102.091" r="1" fill="rgb(0,0,0)" />
	<circle cx="238.533" cy="415.007" r="1" fill="rgb(0,0,0)" />
	<circle cx="239.864" cy="252.636" r="1" fill="rgb(0,0,0)" />
	<circle cx="241.509" cy="279.972" r="1" fill="rgb(0,0,0)" />
	<circle cx="241.588" cy="256.944" r="1" fill="rgb(0,0,0)" />
	<circle cx="242.214" cy="315.846" r="1" fill="rgb(0,0,0)" />
	<circle cx="243.154" cy="523.569" r="1" fill="rgb(0,0,0)" />
	<circle cx="246.601" cy="310.128" r="1" fill="rgb(0,0,0)" />
	<circle cx="250.282" cy="332.529" r="1" fill="rgb(0,0,0)" />
	<circle cx="255.138" cy="306.055" r="1" fill="rgb(0,0,0)" />
	<circle cx="256" cy="241.357" r="1" fill="rgb(0,0,0)" />
	<circle cx="259.133" cy="254.829" r="1" fill="rgb(0,0,0)" />
	<circle cx="259.838" cy="524.665" r="1" fill="rgb(0,0,0)" />
	<circle cx="260.073" cy="233.916" r="1" fill="rgb(0,0,0)" />
	<circle cx="263.598" cy="338.325" r="1" fill="rgb(0,0,0)" />
	<circle cx="265.791" cy="545.735" r="1" fill="rgb(0,0,0)" />
	<circle cx="267.201" cy="321.642" r="1" fill="rgb(0,0,0)" />
	<circle cx="268.61" cy="537.746" r="1" fill="rgb(0,0,0)" />
	<circle cx="268.767" cy="105.224" r="1" fill="rgb(0,0,0)" />
	<circle cx="270.255" cy="332.764" r="1" fill="rgb(0,0,0)" />
	<circle cx="271.979" cy="333.312" r="1" fill="rgb(0,0,0)" />
	<circle cx="272.214" cy="440.542" r="1" fill="rgb(0,0,0)" />
	<circle cx="272.683" cy="132.482" r="1" fill="rgb(0,0,0)" />
	<circle cx="272.762" cy="441.09" r="1" fill="rgb(0,0,0)" />
	<circle cx="272.918" cy="436.626" r="1" fill="rgb(0,0,0)" />
	<circle cx="273.467" cy="333.782" r="1" fill="rgb(0,0,0)" />
	<circle cx="274.328" cy="365.035" r="1" fill="rgb(0,0,0)" />
	<circle cx="274.563" cy="317.725" r="1" fill="rgb(0,0,0)" />
	<circle cx="275.19" cy="547.458" r="1" fill="rgb(0,0,0)" />
	<circle cx="275.503" cy="326.263" r="1" fill="rgb(0,0,0)" />
	<circle cx="275.582" cy="108.592" r="1" fill="rgb(0,0,0)" />
	<circle cx="278.636" cy="280.99" r="1" fill="rgb(0,0,0)" />
	<circle cx="279.106" cy="309.736" r="1" fill="rgb(0,0,0)" />
	<circle cx="279.89" cy="453.858" r="1" fill="rgb(0,0,0)" />
	<circle cx="280.438" cy="534.378" r="1" fill="rgb(0,0,0)" />
	<circle cx="284.824" cy="520.279" r="1" fill="rgb(0,0,0)" />
	<circle cx="286.077" cy="339.344" r="1" fill="rgb(0,0,0)" />
	<circle cx="286.782" cy="248.798" r="1" fill="rgb(0,0,0)" />
	<circle cx="289.915" cy="246.526" r="1" fill="rgb(0,0,0)" />
	<circle cx="291.325" cy="257.962" r="1" fill="rgb(0,0,0)" />
	<circle cx="296.338" cy="186.606" r="1" fill="rgb(0,0,0)" />
	<circle cx="297.513" cy="490.436" r="1" fill="rgb(0,0,0)" />
	<circle cx="297.748" cy="481.429" r="1" fill="rgb(0,0,0)" />
	<circle cx="300.411" cy="404.512" r="1" fill="rgb(0,0,0)" />
	<circle cx="302.056" cy="478.374" r="1" fill="rgb(0,0,0)" />
	<circle cx="302.839" cy="212.062" r="1" fill="rgb(0,0,0)" />
	<circle cx="304.014" cy="180.967" r="1" fill="rgb(0,0,0)" />
	<circle cx="307.696" cy="511.741" r="1" fill="rgb(0,0,0)" />
	<circle cx="308.949" cy="376.862" r="1" fill="rgb(0,0,0)" />
	<circle cx="309.497" cy="131.934" r="1" fill="rgb(0,0,0)" />
	<circle cx="309.654" cy="119.872" r="1" fill="rgb(0,0,0)" />
	<circle cx="309.81" cy="215.352" r="1" fill="rgb(0,0,0)" />
	<circle cx="310.907" cy="109.141" r="1" fill="rgb(0,0,0)" />
	<circle cx="312.944" cy="371.144" r="1" fill="rgb(0,0,0)" />
	<circle cx="312.944" cy="273.471" r="1" fill="rgb(0,0,0)" />
	<circle cx="312.944" cy="228.824" r="1" fill="rgb(0,0,0)" />
	<circle cx="312.944" cy="187.233" r="1" fill="rgb(0,0,0)" />
	<circle cx="313.648" cy="493.961" r="1" fill="rgb(0,0,0)" />
	<circle cx="313.805" cy="143.291" r="1" fill="rgb(0,0,0)" />
	<circle cx="314.588" cy="179.478" r="1" fill="rgb(0,0,0)" />
	<circle cx="314.98" cy="134.675" r="1" fill="rgb(0,0,0)" />
	<circle cx="315.92" cy="175.405" r="1" fill="rgb(0,0,0)" />
	<circle cx="317.565" cy="547.38" r="1" fill="rgb(0,0,0)" />
	<circle cx="317.643" cy="177.442" r="1" fill="rgb(0,0,0)" />
	<circle cx="317.956" cy="464.197" r="1" fill="rgb(0,0,0)" />
	<circle cx="319.523" cy="227.649" r="1" fill="rgb(0,0,0)" />
	<circle cx="320.62" cy="185.431" r="1" fill="rgb(0,0,0)" />
	<circle cx="321.246" cy="185.431" r="1" fill="rgb(0,0,0)" />
	<circle cx="322.186" cy="228.668" r="1" fill="rgb(0,0,0)" />
	<circle cx="322.421" cy="96.6868" r="1" fill="rgb(0,0,0)" />
	<circle cx="322.499" cy="466.782" r="1" fill="rgb(0,0,0)" />
	<circle cx="323.283" cy="187.389" r="1" fill="rgb(0,0,0)" />
	<circle cx="324.693" cy="173.212" r="1" fill="rgb(0,0,0)" />
	<circle cx="324.771" cy="465.137" r="1" fill="rgb(0,0,0)" />
	<circle cx="325.789" cy="493.334" r="1" fill="rgb(0,0,0)" />
	<circle cx="326.572" cy="502.342" r="1" fill="rgb(0,0,0)" />
	<circle cx="326.886" cy="173.291" r="1" fill="rgb(0,0,0)" />
	<circle cx="327.669" cy="218.955" r="1" fill="rgb(0,0,0)" />
	<circle cx="327.982" cy="251.931" r="1" fill="rgb(0,0,0)" />
	<circle cx="328.452" cy="366.68" r="1" fill="rgb(0,0,0)" />
	<circle cx="330.097" cy="271.669" r="1" fill="rgb(0,0,0)" />
	<circle cx="331.429" cy="124.101" r="1" fill="rgb(0,0,0)" />
	<circle cx="331.585" cy="300.18" r="1" fill="rgb(0,0,0)" />
	<circle cx="334.562" cy="134.127" r="1" fill="rgb(0,0,0)" />
	<circle cx="334.64" cy="337.542" r="1" fill="rgb(0,0,0)" />
	<circle cx="334.718" cy="331.746" r="1" fill="rgb(0,0,0)" />
	<circle cx="335.032" cy="437.722" r="1" fill="rgb(0,0,0)" />
	<circle cx="336.52" cy="418.924" r="1" fill="rgb(0,0,0)" />
	<circle cx="338.008" cy="278.405" r="1" fill="rgb(0,0,0)" />
	<circle cx="338.478" cy="321.093" r="1" fill="rgb(0,0,0)" />
	<circle cx="343.961" cy="542.994" r="1" fill="rgb(0,0,0)" />
	<circle cx="344.118" cy="486.52" r="1" fill="rgb(0,0,0)" />
	<circle cx="344.196" cy="422.683" r="1" fill="rgb(0,0,0)" />
	<circle cx="347.721" cy="286.943" r="1" fill="rgb(0,0,0)" />
	<circle cx="348.347" cy="235.952" r="1" fill="rgb(0,0,0)" />
	<circle cx="348.896" cy="446.495" r="1" fill="rgb(0,0,0)" />
	<circle cx="351.48" cy="168.434" r="1" fill="rgb(0,0,0)" />
	<circle cx="353.204" cy="383.128" r="1" fill="rgb(0,0,0)" />
	<circle cx="353.36" cy="510.488" r="1" fill="rgb(0,0,0)" />
	<circle cx="354.143" cy="262.583" r="1" fill="rgb(0,0,0)" />
	<circle cx="358.451" cy="377.019" r="1" fill="rgb(0,0,0)" />
	<circle cx="361.428" cy="120.498" r="1" fill="rgb(0,0,0)" />
	<circle cx="361.898" cy="165.379" r="1" fill="rgb(0,0,0)" />
	<circle cx="362.055" cy="387.75" r="1" fill="rgb(0,0,0)" />
	<circle cx="362.446" cy="210.183" r="1" fill="rgb(0,0,0)" />
	<circle cx="362.446" cy="179.87" r="1" fill="rgb(0,0,0)" />
	<circle cx="362.681" cy="414.146" r="1" fill="rgb(0,0,0)" />
	<circle cx="364.169" cy="193.812" r="1" fill="rgb(0,0,0)" />
	<circle cx="365.031" cy="285.69" r="1" fill="rgb(0,0,0)" />
	<circle cx="367.302" cy="377.645" r="1" fill="rgb(0,0,0)" />
	<circle cx="367.302" cy="267.988" r="1" fill="rgb(0,0,0)" />
	<circle cx="368.869" cy="224.83" r="1" fill="rgb(0,0,0)" />
	<circle cx="368.947" cy="479.862" r="1" fill="rgb(0,0,0)" />
	<circle cx="370.279" cy="481.35" r="1" fill="rgb(0,0,0)" />
	<circle cx="375.683" cy="372.398" r="1" fill="rgb(0,0,0)" />
	<circle cx="376.153" cy="373.103" r="1" fill="rgb(0,0,0)" />
	<circle cx="378.112" cy="526.858" r="1" fill="rgb(0,0,0)" />
	<circle cx="380.07" cy="534.064" r="1" fill="rgb(0,0,0)" />
	<circle cx="380.305" cy="324.305" r="1" fill="rgb(0,0,0)" />
	<circle cx="382.498" cy="338.09" r="1" fill="rgb(0,0,0)" />
	<circle cx="386.258" cy="252.166" r="1" fill="rgb(0,0,0)" />
	<circle cx="386.728" cy="479.079" r="1" fill="rgb(0,0,0)" />
	<circle cx="387.432" cy="485.423" r="1" fill="rgb(0,0,0)" />
	<circle cx="391.819" cy="415.712" r="1" fill="rgb(0,0,0)" />
	<circle cx="392.524" cy="316.002" r="1" fill="rgb(0,0,0)" />
	<circle cx="393.542" cy="467.721" r="1" fill="rgb(0,0,0)" />
	<circle cx="398.242" cy="434.433" r="1" fill="rgb(0,0,0)" />
	<circle cx="398.32" cy="403.728" r="1" fill="rgb(0,0,0)" />
	<circle cx="398.398" cy="506.885" r="1" fill="rgb(0,0,0)" />
	<circle cx="399.495" cy="504.065" r="1" fill="rgb(0,0,0)" />
	<circle cx="400.905" cy="374.199" r="1" fill="rgb(0,0,0)" />
	<circle cx="401.14" cy="323.678" r="1" fill="rgb(0,0,0)" />
	<circle cx="403.803" cy="553.02" r="1" fill="rgb(0,0,0)" />
	<circle cx="404.664" cy="175.249" r="1" fill="rgb(0,0,0)" />
	<circle cx="404.821" cy="302.765" r="1" fill="rgb(0,0,0)" />
	<circle cx="406.074" cy="431.221" r="1" fill="rgb(0,0,0)" />
	<circle cx="407.327" cy="106.869" r="1" fill="rgb(0,0,0)" />
	<circle cx="408.424" cy="433.179" r="1" fill="rgb(0,0,0)" />
	<circle cx="408.972" cy="553.333" r="1" fill="rgb(0,0,0)" />
	<circle cx="411.009" cy="481.037" r="1" fill="rgb(0,0,0)" />
	<circle cx="412.34" cy="538.921" r="1" fill="rgb(0,0,0)" />
	<circle cx="413.829" cy="448.766" r="1" fill="rgb(0,0,0)" />
	<circle cx="413.985" cy="97.705" r="1" fill="rgb(0,0,0)" />
	<circle cx="415.317" cy="550.905" r="1" fill="rgb(0,0,0)" />
	<circle cx="415.708" cy="102.483" r="1" fill="rgb(0,0,0)" />
	<circle cx="416.022" cy="443.753" r="1" fill="rgb(0,0,0)" />
	<circle cx="416.492" cy="434.589" r="1" fill="rgb(0,0,0)" />
	<circle cx="418.528" cy="520.435" r="1" fill="rgb(0,0,0)" />
	<circle cx="418.92" cy="518.007" r="1" fill="rgb(0,0,0)" />
	<circle cx="418.92" cy="232.114" r="1" fill="rgb(0,0,0)" />
	<circle cx="419.938" cy="137.808" r="1" fill="rgb(0,0,0)" />
	<circle cx="420.565" cy="232.819" r="1" fill="rgb(0,0,0)" />
	<circle cx="422.993" cy="432.239" r="1" fill="rgb(0,0,0)" />
	<circle cx="424.089" cy="405.452" r="1" fill="rgb(0,0,0)" />
	<circle cx="424.951" cy="433.258" r="1" fill="rgb(0,0,0)" />
	<circle cx="426.126" cy="409.055" r="1" fill="rgb(0,0,0)" />
	<circle cx="426.283" cy="386.418" r="1" fill="rgb(0,0,0)" />
	<circle cx="427.692" cy="518.869" r="1" fill="rgb(0,0,0)" />
	<circle cx="428.711" cy="497.564" r="1" fill="rgb(0,0,0)" />
	<circle cx="430.512" cy="172.586" r="1" fill="rgb(0,0,0)" />
	<circle cx="431.687" cy="533.516" r="1" fill="rgb(0,0,0)" />
	<circle cx="432.079" cy="271.043" r="1" fill="rgb(0,0,0)" />
	<circle cx="433.88" cy="420.882" r="1" fill="rgb(0,0,0)" />
	<circle cx="435.134" cy="131.307" r="1" fill="rgb(0,0,0)" />
	<circle cx="435.525" cy="325.323" r="1" fill="rgb(0,0,0)" />
	<circle cx="436.23" cy="542.915" r="1" fill="rgb(0,0,0)" />
	<circle cx="436.7" cy="485.267" r="1" fill="rgb(0,0,0)" />
	<circle cx="438.345" cy="291.329" r="1" fill="rgb(0,0,0)" />
	<circle cx="439.363" cy="346.55" r="1" fill="rgb(0,0,0)" />
	<circle cx="440.225" cy="529.208" r="1" fill="rgb(0,0,0)" />
	<circle cx="441.321" cy="283.966" r="1" fill="rgb(0,0,0)" />
	<circle cx="441.321" cy="168.278" r="1" fill="rgb(0,0,0)" />
	<circle cx="441.87" cy="452.213" r="1" fill="rgb(0,0,0)" />
	<circle cx="442.888" cy="469.053" r="1" fill="rgb(0,0,0)" />
	<circle cx="444.219" cy="543.777" r="1" fill="rgb(0,0,0)" />
	<circle cx="444.219" cy="435.216" r="1" fill="rgb(0,0,0)" />
	<circle cx="445.943" cy="520.592" r="1" fill="rgb(0,0,0)" />
	<circle cx="446.804" cy="211.279" r="1" fill="rgb(0,0,0)" />
	<circle cx="447.588" cy="356.341" r="1" fill="rgb(0,0,0)" />
	<circle cx="447.979" cy="343.808" r="1" fill="rgb(0,0,0)" />
	<circle cx="448.057" cy="529.756" r="1" fill="rgb(0,0,0)" />
	<circle cx="448.292" cy="488.791" r="1" fill="rgb(0,0,0)" />
	<circle cx="449.076" cy="121.673" r="1" fill="rgb(0,0,0)" />
	<circle cx="449.389" cy="401.535" r="1" fill="rgb(0,0,0)" />
	<circle cx="449.624" cy="128.644" r="1" fill="rgb(0,0,0)" />
	<circle cx="450.172" cy="359.709" r="1" fill="rgb(0,0,0)" />
	<circle cx="450.956" cy="439.289" r="1" fill="rgb(0,0,0)" />
	<circle cx="451.034" cy="501.95" r="1" fill="rgb(0,0,0)" />
	<circle cx="452.287" cy="418.924" r="1" fill="rgb(0,0,0)" />
	<circle cx="453.384" cy="357.672" r="1" fill="rgb(0,0,0)" />
	<circle cx="454.559" cy="251.539" r="1" fill="rgb(0,0,0)" />
	<circle cx="455.342" cy="324.227" r="1" fill="rgb(0,0,0)" />
	<circle cx="456.36" cy="456.677" r="1" fill="rgb(0,0,0)" />
	<circle cx="456.673" cy="465.998" r="1" fill="rgb(0,0,0)" />
	<circle cx="456.752" cy="417.436" r="1" fill="rgb(0,0,0)" />
	<circle cx="457.848" cy="345.296" r="1" fill="rgb(0,0,0)" />
	<circle cx="459.493" cy="163.343" r="1" fill="rgb(0,0,0)" />
	<circle cx="459.807" cy="358.612" r="1" fill="rgb(0,0,0)" />
	<circle cx="459.885" cy="471.716" r="1" fill="rgb(0,0,0)" />
	<circle cx="459.963" cy="502.577" r="1" fill="rgb(0,0,0)" />
	<circle cx="460.981" cy="442.579" r="1" fill="rgb(0,0,0)" />
	<circle cx="461.373" cy="236.892" r="1" fill="rgb(0,0,0)" />
	<circle cx="462.47" cy="345.375" r="1" fill="rgb(0,0,0)" />
	<circle cx="463.88" cy="417.749" r="1" fill="rgb(0,0,0)" />
	<circle cx="464.741" cy="372.084" r="1" fill="rgb(0,0,0)" />
	<circle cx="464.819" cy="542.602" r="1" fill="rgb(0,0,0)" />
	<circle cx="465.759" cy="361.275" r="1" fill="rgb(0,0,0)" />
	<circle cx="466.151" cy="426.443" r="1" fill="rgb(0,0,0)" />
	<circle cx="466.229" cy="310.284" r="1" fill="rgb(0,0,0)" />
	<circle cx="467.483" cy="345.531" r="1" fill="rgb(0,0,0)" />
	<circle cx="472.104" cy="209.869" r="1" fill="rgb(0,0,0)" />
	<circle cx="475.394" cy="393.076" r="1" fill="rgb(0,0,0)" />
	<circle cx="477.665" cy="345.453" r="1" fill="rgb(0,0,0)" />
	<circle cx="478.448" cy="441.247" r="1" fill="rgb(0,0,0)" />
	<circle cx="480.328" cy="475.398" r="1" fill="rgb(0,0,0)" />
	<circle cx="481.503" cy="258.902" r="1" fill="rgb(0,0,0)" />
	<circle cx="483.07" cy="171.097" r="1" fill="rgb(0,0,0)" />
	<circle cx="483.148" cy="409.29" r="1" fill="rgb(0,0,0)" />
	<circle cx="487.613" cy="546.597" r="1" fill="rgb(0,0,0)" />
	<circle cx="490.902" cy="457.461" r="1" fill="rgb(0,0,0)" />
	<circle cx="491.372" cy="249.033" r="1" fill="rgb(0,0,0)" />
	<circle cx="491.686" cy="470.463" r="1" fill="rgb(0,0,0)" />
	<circle cx="491.764" cy="478.061" r="1" fill="rgb(0,0,0)" />
	<circle cx="492.86" cy="386.496" r="1" fill="rgb(0,0,0)" />
	<circle cx="495.524" cy="431.769" r="1" fill="rgb(0,0,0)" />
	<circle cx="495.602" cy="489.653" r="1" fill="rgb(0,0,0)" />
	<circle cx="495.759" cy="369.343" r="1" fill="rgb(0,0,0)" />
	<circle cx="497.09" cy="327.125" r="1" fill="rgb(0,0,0)" />
	<circle cx="497.952" cy="508.608" r="1" fill="rgb(0,0,0)" />
	<circle cx="498.813" cy="480.019" r="1" fill="rgb(0,0,0)" />
	<circle cx="498.892" cy="380.074" r="1" fill="rgb(0,0,0)" />
	<circle cx="500.145" cy="435.059" r="1" fill="rgb(0,0,0)" />
	<circle cx="500.223" cy="535.474" r="1" fill="rgb(0,0,0)" />
	<circle cx="503.826" cy="381.797" r="1" fill="rgb(0,0,0)" />
	<circle cx="504.218" cy="503.674" r="1" fill="rgb(0,0,0)" />
	<circle cx="504.296" cy="338.56" r="1" fill="rgb(0,0,0)" />
	<circle cx="507.116" cy="348.351" r="1" fill="rgb(0,0,0)" />
	<circle cx="507.586" cy="373.338" r="1" fill="rgb(0,0,0)" />
	<circle cx="509.466" cy="322.268" r="1" fill="rgb(0,0,0)" />
	<circle cx="511.189" cy="470.228" r="1" fill="rgb(0,0,0)" />
	<circle cx="513.069" cy="356.184" r="1" fill="rgb(0,0,0)" />
	<circle cx="514.557" cy="509.783" r="1" fill="rgb(0,0,0)" />
	<circle cx="514.949" cy="416.339" r="1" fill="rgb(0,0,0)" />
	<circle cx="516.124" cy="340.754" r="1" fill="rgb(0,0,0)" />
	<circle cx="518.082" cy="359.865" r="1" fill="rgb(0,0,0)" />
	<circle cx="518.238" cy="340.205" r="1" fill="rgb(0,0,0)" />
	<circle cx="518.552" cy="440.307" r="1" fill="rgb(0,0,0)" />
	<circle cx="519.335" cy="545.108" r="1" fill="rgb(0,0,0)" />
	<circle cx="520.745" cy="342.947" r="1" fill="rgb(0,0,0)" />
	<circle cx="521.45" cy="491.533" r="1" fill="rgb(0,0,0)" />
	<circle cx="521.528" cy="403.415" r="1" fill="rgb(0,0,0)" />
	<circle cx="521.92" cy="458.557" r="1" fill="rgb(0,0,0)" />
	<circle cx="522.233" cy="369.656" r="1" fill="rgb(0,0,0)" />
	<circle cx="522.703" cy="336.446" r="1" fill="rgb(0,0,0)" />
	<circle cx="523.408" cy="389.316" r="1" fill="rgb(0,0,0)" />
	<circle cx="525.21" cy="481.194" r="1" fill="rgb(0,0,0)" />
	<circle cx="526.698" cy="499.522" r="1" fill="rgb(0,0,0)" />
	<circle cx="529.674" cy="414.068" r="1" fill="rgb(0,0,0)" />
	<circle cx="532.964" cy="503.282" r="1" fill="rgb(0,0,0)" />
	<circle cx="533.042" cy="133.265" r="1" fill="rgb(0,0,0)" />
	<circle cx="534.217" cy="131.464" r="1" fill="rgb(0,0,0)" />
	<circle cx="536.645" cy="241.67" r="1" fill="rgb(0,0,0)" />
	<circle cx="538.447" cy="362.058" r="1" fill="rgb(0,0,0)" />
	<circle cx="541.267" cy="168.513" r="1" fill="rgb(0,0,0)" />
	<circle cx="541.267" cy="159.74" r="1" fill="rgb(0,0,0)" />
	<circle cx="542.833" cy="265.403" r="1" fill="rgb(0,0,0)" />
	<circle cx="543.695" cy="317.49" r="1" fill="rgb(0,0,0)" />
	<circle cx="543.773" cy="423.467" r="1" fill="rgb(0,0,0)" />
	<circle cx="544.87" cy="510.801" r="1" fill="rgb(0,0,0)" />
	<circle cx="545.575" cy="248.876" r="1" fill="rgb(0,0,0)" />
	<circle cx="546.906" cy="205.17" r="1" fill="rgb(0,0,0)" />
	<circle cx="546.984" cy="430.36" r="1" fill="rgb(0,0,0)" />
	<circle cx="547.768" cy="228.746" r="1" fill="rgb(0,0,0)" />
	<circle cx="550.509" cy="437.644" r="1" fill="rgb(0,0,0)" />
	<circle cx="552.232" cy="454.563" r="1" fill="rgb(0,0,0)" />
	<circle cx="553.564" cy="540.174" r="1" fill="rgb(0,0,0)" />
	<circle cx="553.877" cy="518.869" r="1" fill="rgb(0,0,0)" />
	<circle cx="555.13" cy="283.575" r="1" fill="rgb(0,0,0)" />
	<circle cx="556.932" cy="509.391" r="1" fill="rgb(0,0,0)" />
	<circle cx="557.48" cy="414.929" r="1" fill="rgb(0,0,0)" />
	<circle cx="558.185" cy="114.31" r="1" fill="rgb(0,0,0)" />
	<circle cx="558.263" cy="190.679" r="1" fill="rgb(0,0,0)" />
	<circle cx="558.263" cy="105.929" r="1" fill="rgb(0,0,0)" />
	<circle cx="558.342" cy="459.497" r="1" fill="rgb(0,0,0)" />
	<circle cx="558.342" cy="71.1522" r="1" fill="rgb(0,0,0)" />
	<circle cx="558.42" cy="434.981" r="1" fill="rgb(0,0,0)" />
	<circle cx="558.577" cy="167.729" r="1" fill="rgb(0,0,0)" />
	<circle cx="560.065" cy="490.906" r="1" fill="rgb(0,0,0)" />
	<circle cx="560.065" cy="357.985" r="1" fill="rgb(0,0,0)" />
	<circle cx="560.143" cy="387.123" r="1" fill="rgb(0,0,0)" />
	<circle cx="560.222" cy="418.689" r="1" fill="rgb(0,0,0)" />
	<circle cx="562.415" cy="226.083" r="1" fill="rgb(0,0,0)" />
	<circle cx="563.746" cy="415.321" r="1" fill="rgb(0,0,0)" />
	<circle cx="564.451" cy="532.028" r="1" fill="rgb(0,0,0)" />
	<circle cx="564.451" cy="327.986" r="1" fill="rgb(0,0,0)" />
	<circle cx="564.608" cy="310.128" r="1" fill="rgb(0,0,0)" />
	<circle cx="564.765" cy="419.237" r="1" fill="rgb(0,0,0)" />
	<circle cx="565.47" cy="378.82" r="1" fill="rgb(0,0,0)" />
	<circle cx="566.801" cy="361.197" r="1" fill="rgb(0,0,0)" />
	<circle cx="566.958" cy="476.651" r="1" fill="rgb(0,0,0)" />
	<circle cx="567.036" cy="370.674" r="1" fill="rgb(0,0,0)" />
	<circle cx="567.271" cy="371.458" r="1" fill="rgb(0,0,0)" />
	<circle cx="569.543" cy="273.157" r="1" fill="rgb(0,0,0)" />
	<circle cx="569.543" cy="248.563" r="1" fill="rgb(0,0,0)" />
	<circle cx="569.856" cy="533.438" r="1" fill="rgb(0,0,0)" />
	<circle cx="570.796" cy="507.512" r="1" fill="rgb(0,0,0)" />
	<circle cx="570.796" cy="465.607" r="1" fill="rgb(0,0,0)" />
	<circle cx="572.676" cy="501.245" r="1" fill="rgb(0,0,0)" />
	<circle cx="574.634" cy="340.832" r="1" fill="rgb(0,0,0)" />
	<circle cx="574.869" cy="77.34" r="1" fill="rgb(0,0,0)" />
	<circle cx="575.025" cy="352.033" r="1" fill="rgb(0,0,0)" />
	<circle cx="575.652" cy="500.932" r="1" fill="rgb(0,0,0)" />
	<circle cx="575.652" cy="384.068" r="1" fill="rgb(0,0,0)" />
	<circle cx="576.357" cy="257.1" r="1" fill="rgb(0,0,0)" />
	<circle cx="576.905" cy="246.683" r="1" fill="rgb(0,0,0)" />
	<circle cx="579.882" cy="260.782" r="1" fill="rgb(0,0,0)" />
	<circle cx="580.587" cy="347.881" r="1" fill="rgb(0,0,0)" />
	<circle cx="582.858" cy="331.589" r="1" fill="rgb(0,0,0)" />
	<circle cx="582.936" cy="297.752" r="1" fill="rgb(0,0,0)" />
	<circle cx="583.015" cy="405.843" r="1" fill="rgb(0,0,0)" />
	<circle cx="583.72" cy="460.515" r="1" fill="rgb(0,0,0)" />
	<circle cx="584.111" cy="315.376" r="1" fill="rgb(0,0,0)" />
	<circle cx="584.581" cy="239.477" r="1" fill="rgb(0,0,0)" />
	<circle cx="584.738" cy="78.6716" r="1" fill="rgb(0,0,0)" />
	<circle cx="586.07" cy="482.447" r="1" fill="rgb(0,0,0)" />
	<circle cx="586.696" cy="291.721" r="1" fill="rgb(0,0,0)" />
	<circle cx="588.733" cy="404.825" r="1" fill="rgb(0,0,0)" />
	<circle cx="589.594" cy="543.542" r="1" fill="rgb(0,0,0)" />
	<circle cx="590.534" cy="533.359" r="1" fill="rgb(0,0,0)" />
	<circle cx="591.787" cy="335.036" r="1" fill="rgb(0,0,0)" />
	<circle cx="591.944" cy="433.179" r="1" fill="rgb(0,0,0)" />
	<circle cx="592.962" cy="394.956" r="1" fill="rgb(0,0,0)" />
	<circle cx="593.041" cy="386.105" r="1" fill="rgb(0,0,0)" />
	<circle cx="593.432" cy="489.496" r="1" fill="rgb(0,0,0)" />
	<circle cx="595.077" cy="457.696" r="1" fill="rgb(0,0,0)" />
	<circle cx="595.155" cy="507.512" r="1" fill="rgb(0,0,0)" />
	<circle cx="596.957" cy="386.966" r="1" fill="rgb(0,0,0)" />
	<circle cx="597.427" cy="477.669" r="1" fill="rgb(0,0,0)" />
	<circle cx="597.584" cy="376.392" r="1" fill="rgb(0,0,0)" />
	<circle cx="597.74" cy="455.581" r="1" fill="rgb(0,0,0)" />
	<circle cx="598.132" cy="466.625" r="1" fill="rgb(0,0,0)" />
	<circle cx="598.367" cy="432.631" r="1" fill="rgb(0,0,0)" />
	<circle cx="598.915" cy="403.337" r="1" fill="rgb(0,0,0)" />
	<circle cx="598.993" cy="547.772" r="1" fill="rgb(0,0,0)" />
	<circle cx="599.15" cy="324.305" r="1" fill="rgb(0,0,0)" />
	<circle cx="599.307" cy="550.67" r="1" fill="rgb(0,0,0)" />
	<circle cx="599.385" cy="434.119" r="1" fill="rgb(0,0,0)" />
	<circle cx="599.777" cy="368.403" r="1" fill="rgb(0,0,0)" />
	<circle cx="601.813" cy="551.375" r="1" fill="rgb(0,0,0)" />
	<circle cx="601.813" cy="353.834" r="1" fill="rgb(0,0,0)" />
	<circle cx="603.85" cy="69.664" r="1" fill="rgb(0,0,0)" />
	<circle cx="604.163" cy="372.633" r="1" fill="rgb(0,0,0)" />
	<circle cx="604.32" cy="357.515" r="1" fill="rgb(0,0,0)" />
	<circle cx="604.946" cy="440.15" r="1" fill="rgb(0,0,0)" />
	<circle cx="605.338" cy="309.344" r="1" fill="rgb(0,0,0)" />
	<circle cx="607.218" cy="452.683" r="1" fill="rgb(0,0,0)" />
	<circle cx="607.374" cy="521.297" r="1" fill="rgb(0,0,0)" />
	<circle cx="607.766" cy="289.371" r="1" fill="rgb(0,0,0)" />
	<circle cx="609.881" cy="337.777" r="1" fill="rgb(0,0,0)" />
	<circle cx="610.116" cy="241.278" r="1" fill="rgb(0,0,0)" />
	<circle cx="611.056" cy="425.503" r="1" fill="rgb(0,0,0)" />
	<circle cx="611.917" cy="495.528" r="1" fill="rgb(0,0,0)" />
	<circle cx="612.466" cy="417.906" r="1" fill="rgb(0,0,0)" />
	<circle cx="612.701" cy="509.47" r="1" fill="rgb(0,0,0)" />
	<circle cx="612.701" cy="284.515" r="1" fill="rgb(0,0,0)" />
	<circle cx="613.484" cy="333.077" r="1" fill="rgb(0,0,0)" />
	<circle cx="614.267" cy="412.344" r="1" fill="rgb(0,0,0)" />
	<circle cx="615.129" cy="421.822" r="1" fill="rgb(0,0,0)" />
	<circle cx="615.755" cy="459.889" r="1" fill="rgb(0,0,0)" />
	<circle cx="617.087" cy="500.775" r="1" fill="rgb(0,0,0)" />
	<circle cx="618.105" cy="342.398" r="1" fill="rgb(0,0,0)" />
	<circle cx="618.732" cy="353.912" r="1" fill="rgb(0,0,0)" />
	<circle cx="619.515" cy="550.67" r="1" fill="rgb(0,0,0)" />
	<circle cx="620.377" cy="282.87" r="1" fill="rgb(0,0,0)" />
	<circle cx="621.473" cy="124.101" r="1" fill="rgb(0,0,0)" />
	<circle cx="621.63" cy="465.058" r="1" fill="rgb(0,0,0)" />
	<circle cx="622.413" cy="509.47" r="1" fill="rgb(0,0,0)" />
	<circle cx="622.413" cy="86.3476" r="1" fill="rgb(0,0,0)" />
	<circle cx="622.962" cy="504.535" r="1" fill="rgb(0,0,0)" />
	<circle cx="623.432" cy="430.438" r="1" fill="rgb(0,0,0)" />
	<circle cx="623.51" cy="397.697" r="1" fill="rgb(0,0,0)" />
	<circle cx="628.209" cy="276.839" r="1" fill="rgb(0,0,0)" />
	<circle cx="628.679" cy="442.187" r="1" fill="rgb(0,0,0)" />
	<circle cx="628.758" cy="316.942" r="1" fill="rgb(0,0,0)" />
	<circle cx="628.914" cy="283.418" r="1" fill="rgb(0,0,0)" />
	<circle cx="628.993" cy="504.613" r="1" fill="rgb(0,0,0)" />
	<circle cx="629.776" cy="356.497" r="1" fill="rgb(0,0,0)" />
	<circle cx="631.186" cy="520.279" r="1" fill="rgb(0,0,0)" />
	<circle cx="631.499" cy="476.181" r="1" fill="rgb(0,0,0)" />
	<circle cx="631.499" cy="59.0115" r="1" fill="rgb(0,0,0)" />
	<circle cx="631.812" cy="435.999" r="1" fill="rgb(0,0,0)" />
	<circle cx="633.301" cy="478.374" r="1" fill="rgb(0,0,0)" />
	<circle cx="634.319" cy="535.631" r="1" fill="rgb(0,0,0)" />
	<circle cx="635.181" cy="47.5758" r="1" fill="rgb(0,0,0)" />
	<circle cx="635.416" cy="409.838" r="1" fill="rgb(0,0,0)" />
	<circle cx="636.747" cy="439.054" r="1" fill="rgb(0,0,0)" />
	<circle cx="636.747" cy="260.938" r="1" fill="rgb(0,0,0)" />
	<circle cx="637.765" cy="386.888" r="1" fill="rgb(0,0,0)" />
	<circle cx="638.784" cy="519.417" r="1" fill="rgb(0,0,0)" />
	<circle cx="639.724" cy="387.828" r="1" fill="rgb(0,0,0)" />
	<circle cx="639.724" cy="26.3492" r="1" fill="rgb(0,0,0)" />
	<circle cx="640.35" cy="375.609" r="1" fill="rgb(0,0,0)" />
	<circle cx="640.742" cy="42.0929" r="1" fill="rgb(0,0,0)" />
	<circle cx="641.368" cy="468.191" r="1" fill="rgb(0,0,0)" />
	<circle cx="641.76" cy="497.251" r="1" fill="rgb(0,0,0)" />
	<circle cx="642.152" cy="366.288" r="1" fill="rgb(0,0,0)" />
	<circle cx="643.562" cy="528.268" r="1" fill="rgb(0,0,0)" />
	<circle cx="644.658" cy="455.737" r="1" fill="rgb(0,0,0)" />
	<circle cx="645.128" cy="444.537" r="1" fill="rgb(0,0,0)" />
	<circle cx="646.146" cy="466.938" r="1" fill="rgb(0,0,0)" />
	<circle cx="648.026" cy="287.021" r="1" fill="rgb(0,0,0)" />
	<circle cx="649.828" cy="96.9218" r="1" fill="rgb(0,0,0)" />
	<circle cx="650.533" cy="363.233" r="1" fill="rgb(0,0,0)" />
	<circle cx="650.689" cy="359.082" r="1" fill="rgb(0,0,0)" />
	<circle cx="650.689" cy="80.0031" r="1" fill="rgb(0,0,0)" />
	<circle cx="651.003" cy="32.9286" r="1" fill="rgb(0,0,0)" />
	<circle cx="651.238" cy="365.113" r="1" fill="rgb(0,0,0)" />
	<circle cx="651.551" cy="74.6769" r="1" fill="rgb(0,0,0)" />
	<circle cx="653.666" cy="427.618" r="1" fill="rgb(0,0,0)" />
	<circle cx="654.841" cy="443.205" r="1" fill="rgb(0,0,0)" />
	<circle cx="655.702" cy="472.578" r="1" fill="rgb(0,0,0)" />
	<circle cx="658.052" cy="526.702" r="1" fill="rgb(0,0,0)" />
	<circle cx="658.052" cy="74.7552" r="1" fill="rgb(0,0,0)" />
	<circle cx="658.757" cy="404.042" r="1" fill="rgb(0,0,0)" />
	<circle cx="659.07" cy="57.2883" r="1" fill="rgb(0,0,0)" />
	<circle cx="659.462" cy="394.016" r="1" fill="rgb(0,0,0)" />
	<circle cx="659.697" cy="430.281" r="1" fill="rgb(0,0,0)" />
	<circle cx="662.987" cy="440.229" r="1" fill="rgb(0,0,0)" />
	<circle cx="663.222" cy="362.215" r="1" fill="rgb(0,0,0)" />
	<circle cx="665.415" cy="309.893" r="1" fill="rgb(0,0,0)" />
	<circle cx="665.728" cy="432.396" r="1" fill="rgb(0,0,0)" />
	<circle cx="666.041" cy="309.736" r="1" fill="rgb(0,0,0)" />
	<circle cx="668.548" cy="400.282" r="1" fill="rgb(0,0,0)" />
	<circle cx="670.663" cy="331.824" r="1" fill="rgb(0,0,0)" />
	<circle cx="671.838" cy="425.425" r="1" fill="rgb(0,0,0)" />
	<circle cx="673.326" cy="426.287" r="1" fill="rgb(0,0,0)" />
	<circle cx="675.284" cy="93.7103" r="1" fill="rgb(0,0,0)" />
	<circle cx="676.067" cy="449.08" r="1" fill="rgb(0,0,0)" />
	<circle cx="676.615" cy="461.534" r="1" fill="rgb(0,0,0)" />
	<circle cx="676.929" cy="322.347" r="1" fill="rgb(0,0,0)" />
	<circle cx="676.929" cy="223.655" r="1" fill="rgb(0,0,0)" />
	<circle cx="680.923" cy="257.257" r="1" fill="rgb(0,0,0)" />
	<circle cx="681.315" cy="255.142" r="1" fill="rgb(0,0,0)" />
	<circle cx="681.55" cy="241.67" r="1" fill="rgb(0,0,0)" />
	<circle cx="682.177" cy="87.3659" r="1" fill="rgb(0,0,0)" />
	<circle cx="686.72" cy="99.1932" r="1" fill="rgb(0,0,0)" />
	<circle cx="687.19" cy="239.163" r="1" fill="rgb(0,0,0)" />
	<circle cx="687.503" cy="271.356" r="1" fill="rgb(0,0,0)" />
	<circle cx="688.286" cy="118.697" r="1" fill="rgb(0,0,0)" />
	<circle cx="688.443" cy="253.967" r="1" fill="rgb(0,0,0)" />
	<circle cx="689.069" cy="396.131" r="1" fill="rgb(0,0,0)" />
	<circle cx="689.304" cy="275.977" r="1" fill="rgb(0,0,0)" />
	<circle cx="689.461" cy="367.306" r="1" fill="rgb(0,0,0)" />
	<circle cx="690.244" cy="91.9088" r="1" fill="rgb(0,0,0)" />
	<circle cx="692.203" cy="149.479" r="1" fill="rgb(0,0,0)" />
	<circle cx="692.829" cy="400.83" r="1" fill="rgb(0,0,0)" />
	<circle cx="695.336" cy="287.726" r="1" fill="rgb(0,0,0)" />
	<circle cx="696.511" cy="438.741" r="1" fill="rgb(0,0,0)" />
	<circle cx="697.215" cy="253.811" r="1" fill="rgb(0,0,0)" />
	<circle cx="699.644" cy="390.569" r="1" fill="rgb(0,0,0)" />
	<circle cx="701.993" cy="299.867" r="1" fill="rgb(0,0,0)" />
	<circle cx="702.385" cy="399.107" r="1" fill="rgb(0,0,0)" />
	<circle cx="704.578" cy="56.74" r="1" fill="rgb(0,0,0)" />
	<circle cx="711.158" cy="252.714" r="1" fill="rgb(0,0,0)" />
	<circle cx="712.254" cy="461.455" r="1" fill="rgb(0,0,0)" />
	<circle cx="712.568" cy="445.868" r="1" fill="rgb(0,0,0)" />
	<circle cx="713.899" cy="342.712" r="1" fill="rgb(0,0,0)" />
	<circle cx="714.369" cy="530.931" r="1" fill="rgb(0,0,0)" />
	<circle cx="715.231" cy="377.097" r="1" fill="rgb(0,0,0)" />
	<circle cx="715.387" cy="363.625" r="1" fill="rgb(0,0,0)" />
	<circle cx="717.267" cy="367.071" r="1" fill="rgb(0,0,0)" />
	<circle cx="717.424" cy="129.036" r="1" fill="rgb(0,0,0)" />
	<circle cx="717.58" cy="173.525" r="1" fill="rgb(0,0,0)" />
	<circle cx="720.87" cy="552.628" r="1" fill="rgb(0,0,0)" />
	<circle cx="721.027" cy="339.892" r="1" fill="rgb(0,0,0)" />
	<circle cx="721.34" cy="435.059" r="1" fill="rgb(0,0,0)" />
	<circle cx="722.515" cy="142.273" r="1" fill="rgb(0,0,0)" />
	<circle cx="723.22" cy="407.958" r="1" fill="rgb(0,0,0)" />
	<circle cx="723.455" cy="177.442" r="1" fill="rgb(0,0,0)" />
	<circle cx="725.257" cy="118.305" r="1" fill="rgb(0,0,0)" />
	<circle cx="725.648" cy="183.238" r="1" fill="rgb(0,0,0)" />
	<circle cx="726.666" cy="313.652" r="1" fill="rgb(0,0,0)" />
	<circle cx="727.136" cy="514.248" r="1" fill="rgb(0,0,0)" />
	<circle cx="727.606" cy="180.027" r="1" fill="rgb(0,0,0)" />
	<circle cx="728.625" cy="189.583" r="1" fill="rgb(0,0,0)" />
	<circle cx="729.016" cy="246.84" r="1" fill="rgb(0,0,0)" />
	<circle cx="729.251" cy="423.545" r="1" fill="rgb(0,0,0)" />
	<circle cx="730.818" cy="391.666" r="1" fill="rgb(0,0,0)" />
	<circle cx="731.836" cy="331.198" r="1" fill="rgb(0,0,0)" />
	<circle cx="732.698" cy="338.952" r="1" fill="rgb(0,0,0)" />
	<circle cx="733.794" cy="391.509" r="1" fill="rgb(0,0,0)" />
	<circle cx="735.909" cy="443.127" r="1" fill="rgb(0,0,0)" />
	<circle cx="737.084" cy="381.875" r="1" fill="rgb(0,0,0)" />
	<circle cx="737.867" cy="469.288" r="1" fill="rgb(0,0,0)" />
	<circle cx="738.18" cy="274.254" r="1" fill="rgb(0,0,0)" />
	<circle cx="739.277" cy="379.525" r="1" fill="rgb(0,0,0)" />
	<circle cx="740.687" cy="289.058" r="1" fill="rgb(0,0,0)" />
	<circle cx="741.157" cy="317.882" r="1" fill="rgb(0,0,0)" />
	<circle cx="742.567" cy="338.874" r="1" fill="rgb(0,0,0)" />
	<circle cx="744.055" cy="252.714" r="1" fill="rgb(0,0,0)" />
	<circle cx="745.308" cy="79.7682" r="1" fill="rgb(0,0,0)" />
	<circle cx="746.64" cy="446.495" r="1" fill="rgb(0,0,0)" />
	<circle cx="748.206" cy="173.212" r="1" fill="rgb(0,0,0)" />
	<circle cx="748.285" cy="423.858" r="1" fill="rgb(0,0,0)" />
	<circle cx="749.695" cy="178.695" r="1" fill="rgb(0,0,0)" />
	<circle cx="750.243" cy="302.608" r="1" fill="rgb(0,0,0)" />
	<circle cx="751.653" cy="147.364" r="1" fill="rgb(0,0,0)" />
	<circle cx="752.593" cy="298.379" r="1" fill="rgb(0,0,0)" />
	<circle cx="754.394" cy="275.429" r="1" fill="rgb(0,0,0)" />
	<circle cx="754.551" cy="209.713" r="1" fill="rgb(0,0,0)" />
	<circle cx="758.154" cy="172.664" r="1" fill="rgb(0,0,0)" />
	<circle cx="763.558" cy="475.632" r="1" fill="rgb(0,0,0)" />
	<circle cx="764.812" cy="211.357" r="1" fill="rgb(0,0,0)" />
	<circle cx="766.065" cy="428.323" r="1" fill="rgb(0,0,0)" />
	<circle cx="768.963" cy="434.981" r="1" fill="rgb(0,0,0)" />
	<circle cx="769.198" cy="393.624" r="1" fill="rgb(0,0,0)" />
	<circle cx="770.295" cy="527.093" r="1" fill="rgb(0,0,0)" />
	<circle cx="770.608" cy="251.617" r="1" fill="rgb(0,0,0)" />
	<circle cx="772.566" cy="119.793" r="1" fill="rgb(0,0,0)" />
	<circle cx="772.644" cy="285.533" r="1" fill="rgb(0,0,0)" />
	<circle cx="775.621" cy="476.729" r="1" fill="rgb(0,0,0)" />
	<circle cx="777.814" cy="351.719" r="1" fill="rgb(0,0,0)" />
	<circle cx="778.519" cy="337.934" r="1" fill="rgb(0,0,0)" />
	<circle cx="781.417" cy="232.036" r="1" fill="rgb(0,0,0)" />
	<circle cx="785.647" cy="287.57" r="1" fill="rgb(0,0,0)" />
	<circle cx="786.195" cy="524.274" r="1" fill="rgb(0,0,0)" />
	<circle cx="786.9" cy="235.404" r="1" fill="rgb(0,0,0)" />
	<circle cx="790.66" cy="529.13" r="1" fill="rgb(0,0,0)" />
	<circle cx="793.401" cy="438.584" r="1" fill="rgb(0,0,0)" />
	<circle cx="793.636" cy="394.956" r="1" fill="rgb(0,0,0)" />
	<circle cx="800.294" cy="468.27" r="1" fill="rgb(0,0,0)" />
	<circle cx="801.469" cy="351.484" r="1" fill="rgb(0,0,0)" />
	<circle cx="804.132" cy="482.682" r="1" fill="rgb(0,0,0)" />
	<circle cx="804.68" cy="432.004" r="1" fill="rgb(0,0,0)" />
	<circle cx="805.072" cy="433.806" r="1" fill="rgb(0,0,0)" />
	<circle cx="809.066" cy="256.787" r="1" fill="rgb(0,0,0)" />
	<circle cx="810.006" cy="479.236" r="1" fill="rgb(0,0,0)" />
	<circle cx="815.098" cy="400.282" r="1" fill="rgb(0,0,0)" />
	<circle cx="815.098" cy="262.583" r="1" fill="rgb(0,0,0)" />
	<circle cx="817.291" cy="181.75" r="1" fill="rgb(0,0,0)" />
	<circle cx="818.466" cy="320.78" r="1" fill="rgb(0,0,0)" />
	<circle cx="819.171" cy="401.065" r="1" fill="rgb(0,0,0)" />
	<circle cx="819.562" cy="348.351" r="1" fill="rgb(0,0,0)" />
	<circle cx="822.617" cy="265.246" r="1" fill="rgb(0,0,0)" />
	<circle cx="823.713" cy="331.824" r="1" fill="rgb(0,0,0)" />
	<circle cx="828.256" cy="398.01" r="1" fill="rgb(0,0,0)" />
	<circle cx="830.841" cy="107.888" r="1" fill="rgb(0,0,0)" />
	<circle cx="833.818" cy="442.579" r="1" fill="rgb(0,0,0)" />
	<circle cx="834.758" cy="439.367" r="1" fill="rgb(0,0,0)" />
	<circle cx="834.758" cy="139.688" r="1" fill="rgb(0,0,0)" />
	<circle cx="836.872" cy="364.878" r="1" fill="rgb(0,0,0)" />
	<circle cx="839.222" cy="508.686" r="1" fill="rgb(0,0,0)" />
	<circle cx="841.964" cy="330.963" r="1" fill="rgb(0,0,0)" />
	<circle cx="842.277" cy="334.096" r="1" fill="rgb(0,0,0)" />
	<circle cx="842.747" cy="551.923" r="1" fill="rgb(0,0,0)" />
	<circle cx="842.747" cy="358.22" r="1" fill="rgb(0,0,0)" />
	<circle cx="844.47" cy="348.43" r="1" fill="rgb(0,0,0)" />
	<circle cx="846.663" cy="347.098" r="1" fill="rgb(0,0,0)" />
	<circle cx="847.447" cy="107.809" r="1" fill="rgb(0,0,0)" />
	<circle cx="847.682" cy="454.014" r="1" fill="rgb(0,0,0)" />
	<circle cx="850.345" cy="446.808" r="1" fill="rgb(0,0,0)" />
	<circle cx="852.616" cy="324.775" r="1" fill="rgb(0,0,0)" />
	<circle cx="853.243" cy="325.793" r="1" fill="rgb(0,0,0)" />
	<circle cx="856.611" cy="107.888" r="1" fill="rgb(0,0,0)" />
	<circle cx="859.274" cy="318.822" r="1" fill="rgb(0,0,0)" />
	<circle cx="862.25" cy="452.213" r="1" fill="rgb(0,0,0)" />
	<circle cx="862.799" cy="397.306" r="1" fill="rgb(0,0,0)" />
	<circle cx="865.775" cy="360.57" r="1" fill="rgb(0,0,0)" />
	<circle cx="868.595" cy="432.396" r="1" fill="rgb(0,0,0)" />
	<circle cx="869.77" cy="317.882" r="1" fill="rgb(0,0,0)" />
	<circle cx="872.668" cy="364.017" r="1" fill="rgb(0,0,0)" />
	<circle cx="873.843" cy="356.419" r="1" fill="rgb(0,0,0)" />
	<circle cx="877.054" cy="356.497" r="1" fill="rgb(0,0,0)" />
	<circle cx="877.837" cy="453.309" r="1" fill="rgb(0,0,0)" />
	<circle cx="878.934" cy="384.617" r="1" fill="rgb(0,0,0)" />
	<circle cx="879.639" cy="363.312" r="1" fill="rgb(0,0,0)" />
	<circle cx="879.717" cy="433.806" r="1" fill="rgb(0,0,0)" />
	<circle cx="880.892" cy="341.302" r="1" fill="rgb(0,0,0)" />
	<circle cx="881.597" cy="319.292" r="1" fill="rgb(0,0,0)" />
	<circle cx="882.38" cy="462.004" r="1" fill="rgb(0,0,0)" />
	<circle cx="887.158" cy="490.671" r="1" fill="rgb(0,0,0)" />
	<circle cx="887.315" cy="343.573" r="1" fill="rgb(0,0,0)" />
	<circle cx="888.96" cy="320.858" r="1" fill="rgb(0,0,0)" />
	<circle cx="890.761" cy="166.084" r="1" fill="rgb(0,0,0)" />
	<circle cx="891.858" cy="329.161" r="1" fill="rgb(0,0,0)" />
	<circle cx="894.599" cy="372.398" r="1" fill="rgb(0,0,0)" />
	<circle cx="898.672" cy="309.736" r="1" fill="rgb(0,0,0)" />
	<circle cx="901.179" cy="186.293" r="1" fill="rgb(0,0,0)" />
	<circle cx="901.492" cy="329.944" r="1" fill="rgb(0,0,0)" />
	<circle cx="901.57" cy="323.835" r="1" fill="rgb(0,0,0)" />
	<circle cx="906.818" cy="387.123" r="1" fill="rgb(0,0,0)" />
	<circle cx="907.132" cy="485.737" r="1" fill="rgb(0,0,0)" />
	<circle cx="907.68" cy="346.393" r="1" fill="rgb(0,0,0)" />
	<circle cx="911.91" cy="393.937" r="1" fill="rgb(0,0,0)" />
	<circle cx="912.928" cy="485.815" r="1" fill="rgb(0,0,0)" />
	<circle cx="915.043" cy="321.955" r="1" fill="rgb(0,0,0)" />
	<circle cx="915.121" cy="410.151" r="1" fill="rgb(0,0,0)" />
	<circle cx="916.844" cy="553.02" r="1" fill="rgb(0,0,0)" />
	<circle cx="916.923" cy="458.871" r="1" fill="rgb(0,0,0)" />
	<circle cx="924.129" cy="526.075" r="1" fill="rgb(0,0,0)" />
	<circle cx="924.129" cy="348.038" r="1" fill="rgb(0,0,0)" />
	<circle cx="924.834" cy="322.503" r="1" fill="rgb(0,0,0)" />
	<circle cx="933.998" cy="474.928" r="1" fill="rgb(0,0,0)" />
	<circle cx="936.504" cy="258.119" r="1" fill="rgb(0,0,0)" />
	<circle cx="942.457" cy="479.157" r="1" fill="rgb(0,0,0)" />
	<circle cx="943.084" cy="89.559" r="1" fill="rgb(0,0,0)" />
	<circle cx="945.355" cy="291.408" r="1" fill="rgb(0,0,0)" />
	<circle cx="946.217" cy="249.503" r="1" fill="rgb(0,0,0)" />
	<circle cx="947.94" cy="346.55" r="1" fill="rgb(0,0,0)" />
	<circle cx="948.567" cy="485.032" r="1" fill="rgb(0,0,0)" />
	<circle cx="948.567" cy="404.198" r="1" fill="rgb(0,0,0)" />
	<circle cx="955.224" cy="332.216" r="1" fill="rgb(0,0,0)" />
	<circle cx="959.611" cy="532.576" r="1" fill="rgb(0,0,0)" />
	<circle cx="959.846" cy="430.986" r="1" fill="rgb(0,0,0)" />
	<circle cx="960.472" cy="322.582" r="1" fill="rgb(0,0,0)" />
	<circle cx="960.707" cy="526.545" r="1" fill="rgb(0,0,0)" />
	<circle cx="961.491" cy="311.773" r="1" fill="rgb(0,0,0)" />
	<circle cx="962.274" cy="489.105" r="1" fill="rgb(0,0,0)" />
	<circle cx="964.859" cy="466.86" r="1" fill="rgb(0,0,0)" />
	<circle cx="965.564" cy="261.957" r="1" fill="rgb(0,0,0)" />
	<circle cx="965.72" cy="430.986" r="1" fill="rgb(0,0,0)" />
	<circle cx="969.793" cy="526.702" r="1" fill="rgb(0,0,0)" />
	<circle cx="970.498" cy="446.573" r="1" fill="rgb(0,0,0)" />
	<circle cx="971.046" cy="312.243" r="1" fill="rgb(0,0,0)" />
	<circle cx="973.475" cy="530.853" r="1" fill="rgb(0,0,0)" />
	<circle cx="974.336" cy="467.252" r="1" fill="rgb(0,0,0)" />
	<circle cx="975.589" cy="322.425" r="1" fill="rgb(0,0,0)" />
	<circle cx="976.059" cy="410.464" r="1" fill="rgb(0,0,0)" />
	<circle cx="976.608" cy="319.762" r="1" fill="rgb(0,0,0)" />
	<circle cx="977.313" cy="541.662" r="1" fill="rgb(0,0,0)" />
	<circle cx="977.469" cy="442.735" r="1" fill="rgb(0,0,0)" />
	<circle cx="978.644" cy="346.55" r="1" fill="rgb(0,0,0)" />
	<circle cx="979.192" cy="308.796" r="1" fill="rgb(0,0,0)" />
	<circle cx="979.741" cy="348.273" r="1" fill="rgb(0,0,0)" />
	<circle cx="981.464" cy="291.956" r="1" fill="rgb(0,0,0)" />
	<circle cx="985.615" cy="461.142" r="1" fill="rgb(0,0,0)" />
	<circle cx="986.947" cy="333.391" r="1" fill="rgb(0,0,0)" />
	<circle cx="987.338" cy="470.306" r="1" fill="rgb(0,0,0)" />
	<circle cx="987.495" cy="250.913" r="1" fill="rgb(0,0,0)" />
	<circle cx="992.508" cy="502.185" r="1" fill="rgb(0,0,0)" />
	<circle cx="992.743" cy="522.864" r="1" fill="rgb(0,0,0)" />
	<circle cx="994.388" cy="486.05" r="1" fill="rgb(0,0,0)" />
	<circle cx="994.78" cy="467.33" r="1" fill="rgb(0,0,0)" />
	<circle cx="997.129" cy="359.317" r="1" fill="rgb(0,0,0)" />
	<circle cx="997.364" cy="382.737" r="1" fill="rgb(0,0,0)" />
	<circle cx="1000.65" cy="527.25" r="1" fill="rgb(0,0,0)" />
	<circle cx="1002.46" cy="531.715" r="1" fill="rgb(0,0,0)" />
	<circle cx="1004.96" cy="331.746" r="1" fill="rgb(0,0,0)" />
	<circle cx="1005.35" cy="470.228" r="1" fill="rgb(0,0,0)" />
	<circle cx="1007.86" cy="239.007" r="1" fill="rgb(0,0,0)" />
	<circle cx="1010.44" cy="308.953" r="1" fill="rgb(0,0,0)" />
	<circle cx="1013.81" cy="337.464" r="1" fill="rgb(0,0,0)" />
	<circle cx="1015.54" cy="539.156" r="1" fill="rgb(0,0,0)" />
	<circle cx="1023.68" cy="292.896" r="1" fill="rgb(0,0,0)" />
	<circle cx="1025.09" cy="452.683" r="1" fill="rgb(0,0,0)" />
	<circle cx="1026.82" cy="280.912" r="1" fill="rgb(0,0,0)" />
	<circle cx="1027.13" cy="502.264" r="1" fill="rgb(0,0,0)" />
	<circle cx="1028.15" cy="335.192" r="1" fill="rgb(0,0,0)" />
	<circle cx="1029.48" cy="468.27" r="1" fill="rgb(0,0,0)" />
	<circle cx="1030.34" cy="270.181" r="1" fill="rgb(0,0,0)" />
	<circle cx="1031.2" cy="510.096" r="1" fill="rgb(0,0,0)" />
	<circle cx="1032.45" cy="453.623" r="1" fill="rgb(0,0,0)" />
	<circle cx="1033.08" cy="437.957" r="1" fill="rgb(0,0,0)" />
	<circle cx="1034.02" cy="495.293" r="1" fill="rgb(0,0,0)" />
	<circle cx="1037" cy="260.312" r="1" fill="rgb(0,0,0)" />
	<circle cx="1038.02" cy="550.435" r="1" fill="rgb(0,0,0)" />
	<circle cx="1041.38" cy="333.234" r="1" fill="rgb(0,0,0)" />
	<circle cx="1041.85" cy="329.396" r="1" fill="rgb(0,0,0)" />
	<circle cx="1043.03" cy="349.996" r="1" fill="rgb(0,0,0)" />
	<circle cx="1043.34" cy="263.132" r="1" fill="rgb(0,0,0)" />
	<circle cx="1043.34" cy="252.244" r="1" fill="rgb(0,0,0)" />
	<circle cx="1044.52" cy="507.982" r="1" fill="rgb(0,0,0)" />
	<circle cx="1045.46" cy="266.735" r="1" fill="rgb(0,0,0)" />
	<circle cx="1047.1" cy="509.235" r="1" fill="rgb(0,0,0)" />
	<circle cx="1047.89" cy="454.328" r="1" fill="rgb(0,0,0)" />
	<circle cx="1048.28" cy="222.245" r="1" fill="rgb(0,0,0)" />
	<circle cx="1049.45" cy="303.392" r="1" fill="rgb(0,0,0)" />
	<circle cx="1050" cy="456.912" r="1" fill="rgb(0,0,0)" />
</svg>
