<?xml version="1.0" standalone="no" ?>
<!DOCTYPE svg PUBLIC "-//W3C//DTD SVG 1.1//EN" "http://www.w3.org/Graphics/SVG/1.1/DTD/svg11.dtd">
<svg width="1100px" height="602.008px" xmlns="http://www.w3.org/2000/svg" version="1.1" >
	<circle cx="50" cy="404.657" r="1" fill="rgb(0,0,0)" />
	<circle cx="50.6325" cy="571.64" r="1" fill="rgb(0,0,0)" />
	<circle cx="50.7116" cy="316.817" r="1" fill="rgb(0,0,0)" />
	<circle cx="52.3719" cy="511.709" r="1" fill="rgb(0,0,0)" />
	<circle cx="56.0089" cy="315.552" r="1" fill="rgb(0,0,0)" />
	<circle cx="57.1157" cy="507.993" r="1" fill="rgb(0,0,0)" />
	<circle cx="57.1948" cy="469.964" r="1" fill="rgb(0,0,0)" />
	<circle cx="60.1992" cy="568.952" r="1" fill="rgb(0,0,0)" />
	<circle cx="60.5946" cy="391.058" r="1" fill="rgb(0,0,0)" />
	<circle cx="61.2271" cy="370.264" r="1" fill="rgb(0,0,0)" />
	<circle cx="62.7293" cy="295.232" r="1" fill="rgb(0,0,0)" />
	<circle cx="65.5756" cy="238.702" r="1" fill="rgb(0,0,0)" />
	<circle cx="70.4775" cy="296.814" r="1" fill="rgb(0,0,0)" />
	<circle cx="73.561" cy="555.115" r="1" fill="rgb(0,0,0)" />
	<circle cx="73.6401" cy="415.884" r="1" fill="rgb(0,0,0)" />
	<circle cx="74.747" cy="404.341" r="1" fill="rgb(0,0,0)" />
	<circle cx="75.8539" cy="507.045" r="1" fill="rgb(0,0,0)" />
	<circle cx="76.012" cy="298.632" r="1" fill="rgb(0,0,0)" />
	<circle cx="76.2492" cy="296.102" r="1" fill="rgb(0,0,0)" />
	<circle cx="76.6445" cy="384.337" r="1" fill="rgb(0,0,0)" />
	<circle cx="78.6211" cy="497.399" r="1" fill="rgb(0,0,0)" />
	<circle cx="78.9374" cy="437.073" r="1" fill="rgb(0,0,0)" />
	<circle cx="79.2536" cy="390.583" r="1" fill="rgb(0,0,0)" />
	<circle cx="80.4396" cy="307.487" r="1" fill="rgb(0,0,0)" />
	<circle cx="80.6768" cy="566.817" r="1" fill="rgb(0,0,0)" />
	<circle cx="82.4953" cy="263.844" r="1" fill="rgb(0,0,0)" />
	<circle cx="82.7324" cy="237.516" r="1" fill="rgb(0,0,0)" />
	<circle cx="83.1278" cy="514.872" r="1" fill="rgb(0,0,0)" />
	<circle cx="83.365" cy="423" r="1" fill="rgb(0,0,0)" />
	<circle cx="85.2625" cy="537.484" r="1" fill="rgb(0,0,0)" />
	<circle cx="86.4485" cy="352.949" r="1" fill="rgb(0,0,0)" />
	<circle cx="86.5275" cy="377.301" r="1" fill="rgb(0,0,0)" />
	<circle cx="88.1088" cy="391.453" r="1" fill="rgb(0,0,0)" />
	<circle cx="89.2948" cy="394.537" r="1" fill="rgb(0,0,0)" />
	<circle cx="93.7223" cy="352.87" r="1" fill="rgb(0,0,0)" />
	<circle cx="95.4617" cy="569.031" r="1" fill="rgb(0,0,0)" />
	<circle cx="97.6755" cy="496.371" r="1" fill="rgb(0,0,0)" />
	<circle cx="99.0196" cy="260.049" r="1" fill="rgb(0,0,0)" />
	<circle cx="100.285" cy="483.879" r="1" fill="rgb(0,0,0)" />
	<circle cx="103.922" cy="477.712" r="1" fill="rgb(0,0,0)" />
	<circle cx="104.001" cy="286.456" r="1" fill="rgb(0,0,0)" />
	<circle cx="110.405" cy="320.77" r="1" fill="rgb(0,0,0)" />
	<circle cx="111.433" cy="482.219" r="1" fill="rgb(0,0,0)" />
	<circle cx="117.521" cy="546.102" r="1" fill="rgb(0,0,0)" />
	<circle cx="118.074" cy="388.133" r="1" fill="rgb(0,0,0)" />
	<circle cx="119.339" cy="322.509" r="1" fill="rgb(0,0,0)" />
	<circle cx="120.367" cy="334.685" r="1" fill="rgb(0,0,0)" />
	<circle cx="121.157" cy="543.572" r="1" fill="rgb(0,0,0)" />
	<circle cx="121.316" cy="346.15" r="1" fill="rgb(0,0,0)" />
	<circle cx="121.632" cy="236.488" r="1" fill="rgb(0,0,0)" />
	<circle cx="122.106" cy="526.811" r="1" fill="rgb(0,0,0)" />
	<circle cx="122.818" cy="432.171" r="1" fill="rgb(0,0,0)" />
	<circle cx="124.162" cy="292.386" r="1" fill="rgb(0,0,0)" />
	<circle cx="125.822" cy="437.468" r="1" fill="rgb(0,0,0)" />
	<circle cx="126.692" cy="294.284" r="1" fill="rgb(0,0,0)" />
	<circle cx="130.724" cy="383.389" r="1" fill="rgb(0,0,0)" />
	<circle cx="138.552" cy="177.823" r="1" fill="rgb(0,0,0)" />
	<circle cx="140.133" cy="477.949" r="1" fill="rgb(0,0,0)" />
	<circle cx="144.402" cy="474.945" r="1" fill="rgb(0,0,0)" />
	<circle cx="144.798" cy="304.246" r="1" fill="rgb(0,0,0)" />
	<circle cx="145.035" cy="312.547" r="1" fill="rgb(0,0,0)" />
	<circle cx="145.351" cy="334.448" r="1" fill="rgb(0,0,0)" />
	<circle cx="147.881" cy="260.602" r="1" fill="rgb(0,0,0)" />
	<circle cx="148.672" cy="368.287" r="1" fill="rgb(0,0,0)" />
	<circle cx="152.071" cy="530.368" r="1" fill="rgb(0,0,0)" />
	<circle cx="153.495" cy="551.478" r="1" fill="rgb(0,0,0)" />
	<circle cx="158.238" cy="185.176" r="1" fill="rgb(0,0,0)" />
	<circle cx="162.113" cy="267.718" r="1" fill="rgb(0,0,0)" />
	<circle cx="163.931" cy="400.387" r="1" fill="rgb(0,0,0)" />
	<circle cx="165.591" cy="401.415" r="1" fill="rgb(0,0,0)" />
	<circle cx="167.41" cy="393.983" r="1" fill="rgb(0,0,0)" />
	<circle cx="167.963" cy="280.289" r="1" fill="rgb(0,0,0)" />
	<circle cx="169.624" cy="352.238" r="1" fill="rgb(0,0,0)" />
	<circle cx="171.363" cy="322.668" r="1" fill="rgb(0,0,0)" />
	<circle cx="173.102" cy="313.892" r="1" fill="rgb(0,0,0)" />
	<circle cx="175.633" cy="297.921" r="1" fill="rgb(0,0,0)" />
	<circle cx="176.186" cy="286.298" r="1" fill="rgb(0,0,0)" />
	<circle cx="176.898" cy="409.559" r="1" fill="rgb(0,0,0)" />
	<circle cx="177.609" cy="303.613" r="1" fill="rgb(0,0,0)" />
	<circle cx="179.507" cy="561.757" r="1" fill="rgb(0,0,0)" />
	<circle cx="180.218" cy="92.3545" r="1" fill="rgb(0,0,0)" />
	<circle cx="182.037" cy="362.279" r="1" fill="rgb(0,0,0)" />
	<circle cx="183.381" cy="345.359" r="1" fill="rgb(0,0,0)" />
	<circle cx="184.092" cy="385.602" r="1" fill="rgb(0,0,0)" />
	<circle cx="184.092" cy="140.9" r="1" fill="rgb(0,0,0)" />
	<circle cx="184.962" cy="370.027" r="1" fill="rgb(0,0,0)" />
	<circle cx="188.757" cy="269.141" r="1" fill="rgb(0,0,0)" />
	<circle cx="189.627" cy="342.038" r="1" fill="rgb(0,0,0)" />
	<circle cx="190.813" cy="347.968" r="1" fill="rgb(0,0,0)" />
	<circle cx="191.05" cy="290.963" r="1" fill="rgb(0,0,0)" />
	<circle cx="191.129" cy="321.086" r="1" fill="rgb(0,0,0)" />
	<circle cx="192.631" cy="386.156" r="1" fill="rgb(0,0,0)" />
	<circle cx="192.948" cy="440.157" r="1" fill="rgb(0,0,0)" />
	<circle cx="196.189" cy="313.892" r="1" fill="rgb(0,0,0)" />
	<circle cx="198.561" cy="346.071" r="1" fill="rgb(0,0,0)" />
	<circle cx="199.273" cy="278.234" r="1" fill="rgb(0,0,0)" />
	<circle cx="199.905" cy="323.854" r="1" fill="rgb(0,0,0)" />
	<circle cx="200.538" cy="566.422" r="1" fill="rgb(0,0,0)" />
	<circle cx="201.407" cy="377.696" r="1" fill="rgb(0,0,0)" />
	<circle cx="202.593" cy="396.039" r="1" fill="rgb(0,0,0)" />
	<circle cx="207.97" cy="263.053" r="1" fill="rgb(0,0,0)" />
	<circle cx="209.788" cy="457.551" r="1" fill="rgb(0,0,0)" />
	<circle cx="213.188" cy="548.316" r="1" fill="rgb(0,0,0)" />
	<circle cx="214.453" cy="391.374" r="1" fill="rgb(0,0,0)" />
	<circle cx="215.56" cy="388.212" r="1" fill="rgb(0,0,0)" />
	<circle cx="217.141" cy="325.435" r="1" fill="rgb(0,0,0)" />
	<circle cx="219.434" cy="284.164" r="1" fill="rgb(0,0,0)" />
	<circle cx="221.015" cy="529.578" r="1" fill="rgb(0,0,0)" />
	<circle cx="225.285" cy="314.287" r="1" fill="rgb(0,0,0)" />
	<circle cx="225.522" cy="528.471" r="1" fill="rgb(0,0,0)" />
	<circle cx="225.838" cy="265.583" r="1" fill="rgb(0,0,0)" />
	<circle cx="226.233" cy="391.216" r="1" fill="rgb(0,0,0)" />
	<circle cx="226.233" cy="282.424" r="1" fill="rgb(0,0,0)" />
	<circle cx="226.787" cy="107.298" r="1" fill="rgb(0,0,0)" />
	<circle cx="229.317" cy="258.389" r="1" fill="rgb(0,0,0)" />
	<circle cx="230.582" cy="113.386" r="1" fill="rgb(0,0,0)" />
	<circle cx="234.14" cy="554.325" r="1" fill="rgb(0,0,0)" />
	<circle cx="234.219" cy="305.748" r="1" fill="rgb(0,0,0)" />
	<circle cx="235.879" cy="418.493" r="1" fill="rgb(0,0,0)" />
	<circle cx="236.749" cy="310.966" r="1" fill="rgb(0,0,0)" />
	<circle cx="236.907" cy="232.06" r="1" fill="rgb(0,0,0)" />
	<circle cx="237.935" cy="272.778" r="1" fill="rgb(0,0,0)" />
	<circle cx="240.307" cy="316.58" r="1" fill="rgb(0,0,0)" />
	<circle cx="240.86" cy="367.576" r="1" fill="rgb(0,0,0)" />
	<circle cx="243.865" cy="282.661" r="1" fill="rgb(0,0,0)" />
	<circle cx="244.497" cy="262.737" r="1" fill="rgb(0,0,0)" />
	<circle cx="246.316" cy="375.087" r="1" fill="rgb(0,0,0)" />
	<circle cx="248.292" cy="261.788" r="1" fill="rgb(0,0,0)" />
	<circle cx="249.953" cy="316.817" r="1" fill="rgb(0,0,0)" />
	<circle cx="250.348" cy="336.662" r="1" fill="rgb(0,0,0)" />
	<circle cx="251.613" cy="371.292" r="1" fill="rgb(0,0,0)" />
	<circle cx="254.538" cy="262.342" r="1" fill="rgb(0,0,0)" />
	<circle cx="256.12" cy="475.34" r="1" fill="rgb(0,0,0)" />
	<circle cx="256.12" cy="332.076" r="1" fill="rgb(0,0,0)" />
	<circle cx="257.938" cy="474.628" r="1" fill="rgb(0,0,0)" />
	<circle cx="259.203" cy="348.047" r="1" fill="rgb(0,0,0)" />
	<circle cx="259.836" cy="542.861" r="1" fill="rgb(0,0,0)" />
	<circle cx="263.156" cy="540.805" r="1" fill="rgb(0,0,0)" />
	<circle cx="264.738" cy="135.998" r="1" fill="rgb(0,0,0)" />
	<circle cx="266.24" cy="556.064" r="1" fill="rgb(0,0,0)" />
	<circle cx="268.137" cy="155.448" r="1" fill="rgb(0,0,0)" />
	<circle cx="270.114" cy="250.245" r="1" fill="rgb(0,0,0)" />
	<circle cx="273.039" cy="351.447" r="1" fill="rgb(0,0,0)" />
	<circle cx="274.304" cy="310.176" r="1" fill="rgb(0,0,0)" />
	<circle cx="277.071" cy="549.028" r="1" fill="rgb(0,0,0)" />
	<circle cx="277.151" cy="470.359" r="1" fill="rgb(0,0,0)" />
	<circle cx="278.969" cy="533.294" r="1" fill="rgb(0,0,0)" />
	<circle cx="280.708" cy="545.312" r="1" fill="rgb(0,0,0)" />
	<circle cx="282.052" cy="157.187" r="1" fill="rgb(0,0,0)" />
	<circle cx="282.132" cy="556.539" r="1" fill="rgb(0,0,0)" />
	<circle cx="283.792" cy="291.358" r="1" fill="rgb(0,0,0)" />
	<circle cx="286.006" cy="343.224" r="1" fill="rgb(0,0,0)" />
	<circle cx="286.48" cy="111.409" r="1" fill="rgb(0,0,0)" />
	<circle cx="290.038" cy="200.04" r="1" fill="rgb(0,0,0)" />
	<circle cx="293.833" cy="274.755" r="1" fill="rgb(0,0,0)" />
	<circle cx="294.466" cy="186.915" r="1" fill="rgb(0,0,0)" />
	<circle cx="294.624" cy="303.534" r="1" fill="rgb(0,0,0)" />
	<circle cx="296.205" cy="252.38" r="1" fill="rgb(0,0,0)" />
	<circle cx="297.944" cy="501.668" r="1" fill="rgb(0,0,0)" />
	<circle cx="299.13" cy="190.157" r="1" fill="rgb(0,0,0)" />
	<circle cx="300.395" cy="278.55" r="1" fill="rgb(0,0,0)" />
	<circle cx="302.293" cy="175.134" r="1" fill="rgb(0,0,0)" />
	<circle cx="303.479" cy="194.189" r="1" fill="rgb(0,0,0)" />
	<circle cx="303.558" cy="543.572" r="1" fill="rgb(0,0,0)" />
	<circle cx="304.902" cy="150.071" r="1" fill="rgb(0,0,0)" />
	<circle cx="305.455" cy="206.365" r="1" fill="rgb(0,0,0)" />
	<circle cx="306.879" cy="570.77" r="1" fill="rgb(0,0,0)" />
	<circle cx="307.037" cy="570.296" r="1" fill="rgb(0,0,0)" />
	<circle cx="307.432" cy="210.318" r="1" fill="rgb(0,0,0)" />
	<circle cx="309.804" cy="552.902" r="1" fill="rgb(0,0,0)" />
	<circle cx="309.883" cy="216.959" r="1" fill="rgb(0,0,0)" />
	<circle cx="314.152" cy="537.405" r="1" fill="rgb(0,0,0)" />
	<circle cx="316.524" cy="557.408" r="1" fill="rgb(0,0,0)" />
	<circle cx="318.106" cy="335.713" r="1" fill="rgb(0,0,0)" />
	<circle cx="318.185" cy="388.607" r="1" fill="rgb(0,0,0)" />
	<circle cx="319.687" cy="201.937" r="1" fill="rgb(0,0,0)" />
	<circle cx="320.003" cy="270.011" r="1" fill="rgb(0,0,0)" />
	<circle cx="321.347" cy="495.422" r="1" fill="rgb(0,0,0)" />
	<circle cx="321.505" cy="298.869" r="1" fill="rgb(0,0,0)" />
	<circle cx="323.008" cy="231.428" r="1" fill="rgb(0,0,0)" />
	<circle cx="326.882" cy="328.044" r="1" fill="rgb(0,0,0)" />
	<circle cx="328.937" cy="485.697" r="1" fill="rgb(0,0,0)" />
	<circle cx="335.342" cy="431.064" r="1" fill="rgb(0,0,0)" />
	<circle cx="338.109" cy="425.846" r="1" fill="rgb(0,0,0)" />
	<circle cx="339.453" cy="504.435" r="1" fill="rgb(0,0,0)" />
	<circle cx="341.271" cy="250.482" r="1" fill="rgb(0,0,0)" />
	<circle cx="342.694" cy="423.632" r="1" fill="rgb(0,0,0)" />
	<circle cx="344.987" cy="568.161" r="1" fill="rgb(0,0,0)" />
	<circle cx="350.68" cy="444.979" r="1" fill="rgb(0,0,0)" />
	<circle cx="350.759" cy="420.786" r="1" fill="rgb(0,0,0)" />
	<circle cx="353.922" cy="555.194" r="1" fill="rgb(0,0,0)" />
	<circle cx="356.293" cy="425.451" r="1" fill="rgb(0,0,0)" />
	<circle cx="357.005" cy="137.579" r="1" fill="rgb(0,0,0)" />
	<circle cx="358.27" cy="403.866" r="1" fill="rgb(0,0,0)" />
	<circle cx="358.824" cy="192.528" r="1" fill="rgb(0,0,0)" />
	<circle cx="359.772" cy="363.465" r="1" fill="rgb(0,0,0)" />
	<circle cx="365.228" cy="201.937" r="1" fill="rgb(0,0,0)" />
	<circle cx="365.939" cy="415.251" r="1" fill="rgb(0,0,0)" />
	<circle cx="367.283" cy="102.396" r="1" fill="rgb(0,0,0)" />
	<circle cx="367.521" cy="97.8099" r="1" fill="rgb(0,0,0)" />
	<circle cx="367.679" cy="350.024" r="1" fill="rgb(0,0,0)" />
	<circle cx="370.446" cy="155.131" r="1" fill="rgb(0,0,0)" />
	<circle cx="375.427" cy="321.244" r="1" fill="rgb(0,0,0)" />
	<circle cx="378.036" cy="367.971" r="1" fill="rgb(0,0,0)" />
	<circle cx="378.906" cy="365.204" r="1" fill="rgb(0,0,0)" />
	<circle cx="379.696" cy="170.628" r="1" fill="rgb(0,0,0)" />
	<circle cx="380.25" cy="519.853" r="1" fill="rgb(0,0,0)" />
	<circle cx="384.361" cy="325.198" r="1" fill="rgb(0,0,0)" />
	<circle cx="385.547" cy="228.582" r="1" fill="rgb(0,0,0)" />
	<circle cx="390.844" cy="345.675" r="1" fill="rgb(0,0,0)" />
	<circle cx="391.872" cy="429.72" r="1" fill="rgb(0,0,0)" />
	<circle cx="393.374" cy="318.635" r="1" fill="rgb(0,0,0)" />
	<circle cx="397.96" cy="447.351" r="1" fill="rgb(0,0,0)" />
	<circle cx="399.7" cy="503.487" r="1" fill="rgb(0,0,0)" />
	<circle cx="403.336" cy="457.788" r="1" fill="rgb(0,0,0)" />
	<circle cx="404.127" cy="501.036" r="1" fill="rgb(0,0,0)" />
	<circle cx="404.76" cy="364.888" r="1" fill="rgb(0,0,0)" />
	<circle cx="406.183" cy="558.752" r="1" fill="rgb(0,0,0)" />
	<circle cx="408.318" cy="473.838" r="1" fill="rgb(0,0,0)" />
	<circle cx="409.899" cy="227.949" r="1" fill="rgb(0,0,0)" />
	<circle cx="411.164" cy="111.646" r="1" fill="rgb(0,0,0)" />
	<circle cx="411.243" cy="276.652" r="1" fill="rgb(0,0,0)" />
	<circle cx="411.954" cy="362.674" r="1" fill="rgb(0,0,0)" />
	<circle cx="412.271" cy="546.577" r="1" fill="rgb(0,0,0)" />
	<circle cx="415.591" cy="451.384" r="1" fill="rgb(0,0,0)" />
	<circle cx="416.856" cy="557.329" r="1" fill="rgb(0,0,0)" />
	<circle cx="418.912" cy="360.539" r="1" fill="rgb(0,0,0)" />
	<circle cx="424.051" cy="534.638" r="1" fill="rgb(0,0,0)" />
	<circle cx="427.767" cy="461.978" r="1" fill="rgb(0,0,0)" />
	<circle cx="427.767" cy="451.146" r="1" fill="rgb(0,0,0)" />
	<circle cx="429.269" cy="500.008" r="1" fill="rgb(0,0,0)" />
	<circle cx="431.799" cy="454.072" r="1" fill="rgb(0,0,0)" />
	<circle cx="432.669" cy="563.18" r="1" fill="rgb(0,0,0)" />
	<circle cx="433.223" cy="527.285" r="1" fill="rgb(0,0,0)" />
	<circle cx="433.855" cy="268.904" r="1" fill="rgb(0,0,0)" />
	<circle cx="437.492" cy="441.026" r="1" fill="rgb(0,0,0)" />
	<circle cx="438.757" cy="274.676" r="1" fill="rgb(0,0,0)" />
	<circle cx="439.627" cy="487.437" r="1" fill="rgb(0,0,0)" />
	<circle cx="440.101" cy="256.886" r="1" fill="rgb(0,0,0)" />
	<circle cx="440.497" cy="256.017" r="1" fill="rgb(0,0,0)" />
	<circle cx="440.655" cy="375.482" r="1" fill="rgb(0,0,0)" />
	<circle cx="440.734" cy="510.049" r="1" fill="rgb(0,0,0)" />
	<circle cx="441.129" cy="319.031" r="1" fill="rgb(0,0,0)" />
	<circle cx="441.208" cy="321.244" r="1" fill="rgb(0,0,0)" />
	<circle cx="442.552" cy="408.926" r="1" fill="rgb(0,0,0)" />
	<circle cx="442.789" cy="558.673" r="1" fill="rgb(0,0,0)" />
	<circle cx="443.185" cy="359.907" r="1" fill="rgb(0,0,0)" />
	<circle cx="443.264" cy="413.196" r="1" fill="rgb(0,0,0)" />
	<circle cx="443.501" cy="552.664" r="1" fill="rgb(0,0,0)" />
	<circle cx="443.659" cy="307.171" r="1" fill="rgb(0,0,0)" />
	<circle cx="444.45" cy="505.701" r="1" fill="rgb(0,0,0)" />
	<circle cx="445.794" cy="193.873" r="1" fill="rgb(0,0,0)" />
	<circle cx="446.268" cy="140.109" r="1" fill="rgb(0,0,0)" />
	<circle cx="446.584" cy="139.951" r="1" fill="rgb(0,0,0)" />
	<circle cx="449.035" cy="135.602" r="1" fill="rgb(0,0,0)" />
	<circle cx="449.194" cy="533.215" r="1" fill="rgb(0,0,0)" />
	<circle cx="449.273" cy="228.503" r="1" fill="rgb(0,0,0)" />
	<circle cx="449.51" cy="456.997" r="1" fill="rgb(0,0,0)" />
	<circle cx="451.091" cy="410.429" r="1" fill="rgb(0,0,0)" />
	<circle cx="452.356" cy="303.929" r="1" fill="rgb(0,0,0)" />
	<circle cx="452.435" cy="532.898" r="1" fill="rgb(0,0,0)" />
	<circle cx="453.7" cy="354.609" r="1" fill="rgb(0,0,0)" />
	<circle cx="453.779" cy="491.074" r="1" fill="rgb(0,0,0)" />
	<circle cx="454.412" cy="517.955" r="1" fill="rgb(0,0,0)" />
	<circle cx="454.886" cy="473.284" r="1" fill="rgb(0,0,0)" />
	<circle cx="456.072" cy="439.524" r="1" fill="rgb(0,0,0)" />
	<circle cx="456.705" cy="475.103" r="1" fill="rgb(0,0,0)" />
	<circle cx="456.863" cy="343.936" r="1" fill="rgb(0,0,0)" />
	<circle cx="457.574" cy="546.339" r="1" fill="rgb(0,0,0)" />
	<circle cx="458.049" cy="534.796" r="1" fill="rgb(0,0,0)" />
	<circle cx="458.286" cy="468.699" r="1" fill="rgb(0,0,0)" />
	<circle cx="459.077" cy="386.472" r="1" fill="rgb(0,0,0)" />
	<circle cx="459.63" cy="346.624" r="1" fill="rgb(0,0,0)" />
	<circle cx="463.504" cy="493.367" r="1" fill="rgb(0,0,0)" />
	<circle cx="465.323" cy="452.095" r="1" fill="rgb(0,0,0)" />
	<circle cx="468.011" cy="445.612" r="1" fill="rgb(0,0,0)" />
	<circle cx="471.094" cy="464.587" r="1" fill="rgb(0,0,0)" />
	<circle cx="471.41" cy="335.634" r="1" fill="rgb(0,0,0)" />
	<circle cx="471.49" cy="486.883" r="1" fill="rgb(0,0,0)" />
	<circle cx="473.229" cy="262.421" r="1" fill="rgb(0,0,0)" />
	<circle cx="475.047" cy="179.009" r="1" fill="rgb(0,0,0)" />
	<circle cx="475.759" cy="311.757" r="1" fill="rgb(0,0,0)" />
	<circle cx="475.917" cy="572.668" r="1" fill="rgb(0,0,0)" />
	<circle cx="476.629" cy="318.161" r="1" fill="rgb(0,0,0)" />
	<circle cx="477.498" cy="530.764" r="1" fill="rgb(0,0,0)" />
	<circle cx="477.736" cy="451.384" r="1" fill="rgb(0,0,0)" />
	<circle cx="479.396" cy="426.241" r="1" fill="rgb(0,0,0)" />
	<circle cx="480.187" cy="432.804" r="1" fill="rgb(0,0,0)" />
	<circle cx="481.056" cy="548.474" r="1" fill="rgb(0,0,0)" />
	<circle cx="483.033" cy="415.33" r="1" fill="rgb(0,0,0)" />
	<circle cx="489.437" cy="227.396" r="1" fill="rgb(0,0,0)" />
	<circle cx="489.674" cy="553.376" r="1" fill="rgb(0,0,0)" />
	<circle cx="492.125" cy="505.701" r="1" fill="rgb(0,0,0)" />
	<circle cx="492.125" cy="165.33" r="1" fill="rgb(0,0,0)" />
	<circle cx="493.707" cy="562.231" r="1" fill="rgb(0,0,0)" />
	<circle cx="494.102" cy="501.668" r="1" fill="rgb(0,0,0)" />
	<circle cx="494.813" cy="463.559" r="1" fill="rgb(0,0,0)" />
	<circle cx="495.209" cy="335.002" r="1" fill="rgb(0,0,0)" />
	<circle cx="496.395" cy="391.295" r="1" fill="rgb(0,0,0)" />
	<circle cx="498.213" cy="535.349" r="1" fill="rgb(0,0,0)" />
	<circle cx="498.846" cy="432.25" r="1" fill="rgb(0,0,0)" />
	<circle cx="499.399" cy="327.174" r="1" fill="rgb(0,0,0)" />
	<circle cx="500.506" cy="401.02" r="1" fill="rgb(0,0,0)" />
	<circle cx="502.008" cy="518.667" r="1" fill="rgb(0,0,0)" />
	<circle cx="502.087" cy="362.2" r="1" fill="rgb(0,0,0)" />
	<circle cx="504.222" cy="434.227" r="1" fill="rgb(0,0,0)" />
	<circle cx="506.436" cy="319.742" r="1" fill="rgb(0,0,0)" />
	<circle cx="507.306" cy="552.902" r="1" fill="rgb(0,0,0)" />
	<circle cx="507.938" cy="276.415" r="1" fill="rgb(0,0,0)" />
	<circle cx="508.808" cy="410.982" r="1" fill="rgb(0,0,0)" />
	<circle cx="509.677" cy="422.051" r="1" fill="rgb(0,0,0)" />
	<circle cx="513.156" cy="435.017" r="1" fill="rgb(0,0,0)" />
	<circle cx="513.235" cy="517.323" r="1" fill="rgb(0,0,0)" />
	<circle cx="513.235" cy="498.98" r="1" fill="rgb(0,0,0)" />
	<circle cx="514.896" cy="446.086" r="1" fill="rgb(0,0,0)" />
	<circle cx="516.793" cy="344.173" r="1" fill="rgb(0,0,0)" />
	<circle cx="516.872" cy="326.463" r="1" fill="rgb(0,0,0)" />
	<circle cx="517.584" cy="506.412" r="1" fill="rgb(0,0,0)" />
	<circle cx="518.295" cy="488.86" r="1" fill="rgb(0,0,0)" />
	<circle cx="518.691" cy="478.661" r="1" fill="rgb(0,0,0)" />
	<circle cx="521.932" cy="518.114" r="1" fill="rgb(0,0,0)" />
	<circle cx="522.17" cy="517.165" r="1" fill="rgb(0,0,0)" />
	<circle cx="523.355" cy="461.504" r="1" fill="rgb(0,0,0)" />
	<circle cx="524.067" cy="519.458" r="1" fill="rgb(0,0,0)" />
	<circle cx="524.541" cy="150.387" r="1" fill="rgb(0,0,0)" />
	<circle cx="528.178" cy="563.892" r="1" fill="rgb(0,0,0)" />
	<circle cx="528.653" cy="546.656" r="1" fill="rgb(0,0,0)" />
	<circle cx="529.364" cy="197.193" r="1" fill="rgb(0,0,0)" />
	<circle cx="530.55" cy="564.682" r="1" fill="rgb(0,0,0)" />
	<circle cx="531.262" cy="522.857" r="1" fill="rgb(0,0,0)" />
	<circle cx="531.578" cy="367.576" r="1" fill="rgb(0,0,0)" />
	<circle cx="531.657" cy="537.089" r="1" fill="rgb(0,0,0)" />
	<circle cx="532.922" cy="502.617" r="1" fill="rgb(0,0,0)" />
	<circle cx="532.922" cy="371.055" r="1" fill="rgb(0,0,0)" />
	<circle cx="533.238" cy="373.269" r="1" fill="rgb(0,0,0)" />
	<circle cx="533.318" cy="341.406" r="1" fill="rgb(0,0,0)" />
	<circle cx="533.713" cy="423.79" r="1" fill="rgb(0,0,0)" />
	<circle cx="539.089" cy="292.623" r="1" fill="rgb(0,0,0)" />
	<circle cx="540.196" cy="444.584" r="1" fill="rgb(0,0,0)" />
	<circle cx="542.568" cy="474.945" r="1" fill="rgb(0,0,0)" />
	<circle cx="542.568" cy="468.62" r="1" fill="rgb(0,0,0)" />
	<circle cx="545.019" cy="470.675" r="1" fill="rgb(0,0,0)" />
	<circle cx="545.019" cy="179.088" r="1" fill="rgb(0,0,0)" />
	<circle cx="547.707" cy="574.644" r="1" fill="rgb(0,0,0)" />
	<circle cx="548.577" cy="401.099" r="1" fill="rgb(0,0,0)" />
	<circle cx="548.735" cy="289.54" r="1" fill="rgb(0,0,0)" />
	<circle cx="549.447" cy="480.4" r="1" fill="rgb(0,0,0)" />
	<circle cx="550.158" cy="371.845" r="1" fill="rgb(0,0,0)" />
	<circle cx="551.344" cy="187.943" r="1" fill="rgb(0,0,0)" />
	<circle cx="553.716" cy="431.855" r="1" fill="rgb(0,0,0)" />
	<circle cx="555.455" cy="304.404" r="1" fill="rgb(0,0,0)" />
	<circle cx="556.325" cy="514.951" r="1" fill="rgb(0,0,0)" />
	<circle cx="556.404" cy="139.556" r="1" fill="rgb(0,0,0)" />
	<circle cx="556.483" cy="131.175" r="1" fill="rgb(0,0,0)" />
	<circle cx="557.511" cy="510.444" r="1" fill="rgb(0,0,0)" />
	<circle cx="557.59" cy="538.828" r="1" fill="rgb(0,0,0)" />
	<circle cx="557.669" cy="550.846" r="1" fill="rgb(0,0,0)" />
	<circle cx="558.065" cy="415.41" r="1" fill="rgb(0,0,0)" />
	<circle cx="558.618" cy="395.723" r="1" fill="rgb(0,0,0)" />
	<circle cx="559.25" cy="392.481" r="1" fill="rgb(0,0,0)" />
	<circle cx="561.227" cy="497.083" r="1" fill="rgb(0,0,0)" />
	<circle cx="561.306" cy="274.439" r="1" fill="rgb(0,0,0)" />
	<circle cx="562.334" cy="486.962" r="1" fill="rgb(0,0,0)" />
	<circle cx="562.808" cy="87.0572" r="1" fill="rgb(0,0,0)" />
	<circle cx="562.887" cy="322.589" r="1" fill="rgb(0,0,0)" />
	<circle cx="563.046" cy="399.676" r="1" fill="rgb(0,0,0)" />
	<circle cx="563.204" cy="438.575" r="1" fill="rgb(0,0,0)" />
	<circle cx="563.994" cy="241.548" r="1" fill="rgb(0,0,0)" />
	<circle cx="564.469" cy="388.053" r="1" fill="rgb(0,0,0)" />
	<circle cx="564.627" cy="434.859" r="1" fill="rgb(0,0,0)" />
	<circle cx="565.101" cy="489.571" r="1" fill="rgb(0,0,0)" />
	<circle cx="565.497" cy="254.515" r="1" fill="rgb(0,0,0)" />
	<circle cx="565.813" cy="384.337" r="1" fill="rgb(0,0,0)" />
	<circle cx="566.999" cy="475.498" r="1" fill="rgb(0,0,0)" />
	<circle cx="567.789" cy="335.318" r="1" fill="rgb(0,0,0)" />
	<circle cx="568.027" cy="405.843" r="1" fill="rgb(0,0,0)" />
	<circle cx="571.268" cy="320.296" r="1" fill="rgb(0,0,0)" />
	<circle cx="572.059" cy="256.175" r="1" fill="rgb(0,0,0)" />
	<circle cx="572.217" cy="218.303" r="1" fill="rgb(0,0,0)" />
	<circle cx="572.849" cy="454.072" r="1" fill="rgb(0,0,0)" />
	<circle cx="573.403" cy="365.599" r="1" fill="rgb(0,0,0)" />
	<circle cx="574.668" cy="363.386" r="1" fill="rgb(0,0,0)" />
	<circle cx="575.854" cy="325.514" r="1" fill="rgb(0,0,0)" />
	<circle cx="576.012" cy="508.626" r="1" fill="rgb(0,0,0)" />
	<circle cx="577.277" cy="483.325" r="1" fill="rgb(0,0,0)" />
	<circle cx="579.491" cy="377.538" r="1" fill="rgb(0,0,0)" />
	<circle cx="582.258" cy="355.242" r="1" fill="rgb(0,0,0)" />
	<circle cx="582.416" cy="500.64" r="1" fill="rgb(0,0,0)" />
	<circle cx="583.286" cy="551.083" r="1" fill="rgb(0,0,0)" />
	<circle cx="583.997" cy="542.702" r="1" fill="rgb(0,0,0)" />
	<circle cx="586.132" cy="427.269" r="1" fill="rgb(0,0,0)" />
	<circle cx="586.607" cy="371.45" r="1" fill="rgb(0,0,0)" />
	<circle cx="589.216" cy="437.231" r="1" fill="rgb(0,0,0)" />
	<circle cx="590.56" cy="413.749" r="1" fill="rgb(0,0,0)" />
	<circle cx="591.113" cy="414.856" r="1" fill="rgb(0,0,0)" />
	<circle cx="591.429" cy="498.031" r="1" fill="rgb(0,0,0)" />
	<circle cx="592.062" cy="540.805" r="1" fill="rgb(0,0,0)" />
	<circle cx="596.094" cy="529.973" r="1" fill="rgb(0,0,0)" />
	<circle cx="596.331" cy="409.796" r="1" fill="rgb(0,0,0)" />
	<circle cx="596.49" cy="401.257" r="1" fill="rgb(0,0,0)" />
	<circle cx="599.02" cy="446.482" r="1" fill="rgb(0,0,0)" />
	<circle cx="600.759" cy="294.126" r="1" fill="rgb(0,0,0)" />
	<circle cx="600.838" cy="386.551" r="1" fill="rgb(0,0,0)" />
	<circle cx="601.708" cy="560.334" r="1" fill="rgb(0,0,0)" />
	<circle cx="602.973" cy="462.927" r="1" fill="rgb(0,0,0)" />
	<circle cx="603.289" cy="411.614" r="1" fill="rgb(0,0,0)" />
	<circle cx="603.447" cy="328.439" r="1" fill="rgb(0,0,0)" />
	<circle cx="605.898" cy="412.721" r="1" fill="rgb(0,0,0)" />
	<circle cx="607.005" cy="319.189" r="1" fill="rgb(0,0,0)" />
	<circle cx="607.084" cy="485.381" r="1" fill="rgb(0,0,0)" />
	<circle cx="609.298" cy="501.826" r="1" fill="rgb(0,0,0)" />
	<circle cx="610.089" cy="420.074" r="1" fill="rgb(0,0,0)" />
	<circle cx="610.8" cy="413.749" r="1" fill="rgb(0,0,0)" />
	<circle cx="611.116" cy="312.152" r="1" fill="rgb(0,0,0)" />
	<circle cx="611.67" cy="526.336" r="1" fill="rgb(0,0,0)" />
	<circle cx="611.749" cy="400.783" r="1" fill="rgb(0,0,0)" />
	<circle cx="612.54" cy="382.993" r="1" fill="rgb(0,0,0)" />
	<circle cx="612.856" cy="350.656" r="1" fill="rgb(0,0,0)" />
	<circle cx="614.516" cy="381.175" r="1" fill="rgb(0,0,0)" />
	<circle cx="616.018" cy="341.564" r="1" fill="rgb(0,0,0)" />
	<circle cx="618.627" cy="510.049" r="1" fill="rgb(0,0,0)" />
	<circle cx="620.209" cy="442.449" r="1" fill="rgb(0,0,0)" />
	<circle cx="620.604" cy="398.648" r="1" fill="rgb(0,0,0)" />
	<circle cx="621.078" cy="509.258" r="1" fill="rgb(0,0,0)" />
	<circle cx="622.185" cy="572.747" r="1" fill="rgb(0,0,0)" />
	<circle cx="622.185" cy="328.281" r="1" fill="rgb(0,0,0)" />
	<circle cx="622.818" cy="389.556" r="1" fill="rgb(0,0,0)" />
	<circle cx="625.901" cy="566.738" r="1" fill="rgb(0,0,0)" />
	<circle cx="627.562" cy="269.932" r="1" fill="rgb(0,0,0)" />
	<circle cx="628.906" cy="499.85" r="1" fill="rgb(0,0,0)" />
	<circle cx="630.487" cy="124.613" r="1" fill="rgb(0,0,0)" />
	<circle cx="630.566" cy="307.804" r="1" fill="rgb(0,0,0)" />
	<circle cx="630.566" cy="61.7568" r="1" fill="rgb(0,0,0)" />
	<circle cx="630.645" cy="416.596" r="1" fill="rgb(0,0,0)" />
	<circle cx="633.254" cy="534.954" r="1" fill="rgb(0,0,0)" />
	<circle cx="635.784" cy="465.378" r="1" fill="rgb(0,0,0)" />
	<circle cx="638.947" cy="352.475" r="1" fill="rgb(0,0,0)" />
	<circle cx="640.607" cy="55.1945" r="1" fill="rgb(0,0,0)" />
	<circle cx="643.058" cy="544.363" r="1" fill="rgb(0,0,0)" />
	<circle cx="643.137" cy="472.652" r="1" fill="rgb(0,0,0)" />
	<circle cx="645.825" cy="486.725" r="1" fill="rgb(0,0,0)" />
	<circle cx="648.435" cy="382.045" r="1" fill="rgb(0,0,0)" />
	<circle cx="648.672" cy="95.6752" r="1" fill="rgb(0,0,0)" />
	<circle cx="648.83" cy="266.69" r="1" fill="rgb(0,0,0)" />
	<circle cx="649.62" cy="49.8182" r="1" fill="rgb(0,0,0)" />
	<circle cx="649.779" cy="27.364" r="1" fill="rgb(0,0,0)" />
	<circle cx="651.202" cy="115.441" r="1" fill="rgb(0,0,0)" />
	<circle cx="653.416" cy="258.942" r="1" fill="rgb(0,0,0)" />
	<circle cx="656.499" cy="358.958" r="1" fill="rgb(0,0,0)" />
	<circle cx="659.424" cy="346.308" r="1" fill="rgb(0,0,0)" />
	<circle cx="660.848" cy="332.155" r="1" fill="rgb(0,0,0)" />
	<circle cx="662.113" cy="330.021" r="1" fill="rgb(0,0,0)" />
	<circle cx="662.666" cy="507.914" r="1" fill="rgb(0,0,0)" />
	<circle cx="663.773" cy="564.208" r="1" fill="rgb(0,0,0)" />
	<circle cx="665.275" cy="307.013" r="1" fill="rgb(0,0,0)" />
	<circle cx="665.591" cy="439.682" r="1" fill="rgb(0,0,0)" />
	<circle cx="665.591" cy="125.878" r="1" fill="rgb(0,0,0)" />
	<circle cx="665.908" cy="141.928" r="1" fill="rgb(0,0,0)" />
	<circle cx="667.41" cy="396.83" r="1" fill="rgb(0,0,0)" />
	<circle cx="667.805" cy="420.47" r="1" fill="rgb(0,0,0)" />
	<circle cx="670.019" cy="414.54" r="1" fill="rgb(0,0,0)" />
	<circle cx="670.81" cy="355.637" r="1" fill="rgb(0,0,0)" />
	<circle cx="670.81" cy="109.353" r="1" fill="rgb(0,0,0)" />
	<circle cx="671.6" cy="192.528" r="1" fill="rgb(0,0,0)" />
	<circle cx="671.679" cy="343.54" r="1" fill="rgb(0,0,0)" />
	<circle cx="672.391" cy="278.076" r="1" fill="rgb(0,0,0)" />
	<circle cx="673.261" cy="358.721" r="1" fill="rgb(0,0,0)" />
	<circle cx="673.261" cy="317.528" r="1" fill="rgb(0,0,0)" />
	<circle cx="673.498" cy="115.599" r="1" fill="rgb(0,0,0)" />
	<circle cx="673.972" cy="418.414" r="1" fill="rgb(0,0,0)" />
	<circle cx="674.209" cy="509.258" r="1" fill="rgb(0,0,0)" />
	<circle cx="679.428" cy="570.454" r="1" fill="rgb(0,0,0)" />
	<circle cx="680.93" cy="530.21" r="1" fill="rgb(0,0,0)" />
	<circle cx="681.641" cy="329.546" r="1" fill="rgb(0,0,0)" />
	<circle cx="683.144" cy="549.502" r="1" fill="rgb(0,0,0)" />
	<circle cx="684.725" cy="476.526" r="1" fill="rgb(0,0,0)" />
	<circle cx="687.097" cy="364.809" r="1" fill="rgb(0,0,0)" />
	<circle cx="691.208" cy="403.866" r="1" fill="rgb(0,0,0)" />
	<circle cx="692.552" cy="294.046" r="1" fill="rgb(0,0,0)" />
	<circle cx="695.003" cy="543.967" r="1" fill="rgb(0,0,0)" />
	<circle cx="696.664" cy="271.83" r="1" fill="rgb(0,0,0)" />
	<circle cx="697.612" cy="288.986" r="1" fill="rgb(0,0,0)" />
	<circle cx="697.929" cy="277.206" r="1" fill="rgb(0,0,0)" />
	<circle cx="698.956" cy="462.769" r="1" fill="rgb(0,0,0)" />
	<circle cx="699.747" cy="452.016" r="1" fill="rgb(0,0,0)" />
	<circle cx="701.249" cy="430.115" r="1" fill="rgb(0,0,0)" />
	<circle cx="701.328" cy="322.035" r="1" fill="rgb(0,0,0)" />
	<circle cx="704.57" cy="74.4861" r="1" fill="rgb(0,0,0)" />
	<circle cx="704.649" cy="487.516" r="1" fill="rgb(0,0,0)" />
	<circle cx="705.202" cy="268.114" r="1" fill="rgb(0,0,0)" />
	<circle cx="707.258" cy="354.214" r="1" fill="rgb(0,0,0)" />
	<circle cx="710.658" cy="191.58" r="1" fill="rgb(0,0,0)" />
	<circle cx="711.132" cy="416.912" r="1" fill="rgb(0,0,0)" />
	<circle cx="712.318" cy="398.727" r="1" fill="rgb(0,0,0)" />
	<circle cx="714.848" cy="424.897" r="1" fill="rgb(0,0,0)" />
	<circle cx="715.085" cy="212.373" r="1" fill="rgb(0,0,0)" />
	<circle cx="715.797" cy="298.395" r="1" fill="rgb(0,0,0)" />
	<circle cx="719.276" cy="478.661" r="1" fill="rgb(0,0,0)" />
	<circle cx="720.383" cy="265.583" r="1" fill="rgb(0,0,0)" />
	<circle cx="721.015" cy="183.436" r="1" fill="rgb(0,0,0)" />
	<circle cx="721.173" cy="329.625" r="1" fill="rgb(0,0,0)" />
	<circle cx="723.229" cy="113.148" r="1" fill="rgb(0,0,0)" />
	<circle cx="724.731" cy="310.571" r="1" fill="rgb(0,0,0)" />
	<circle cx="727.261" cy="432.487" r="1" fill="rgb(0,0,0)" />
	<circle cx="729.396" cy="330.495" r="1" fill="rgb(0,0,0)" />
	<circle cx="729.554" cy="310.65" r="1" fill="rgb(0,0,0)" />
	<circle cx="729.554" cy="264.477" r="1" fill="rgb(0,0,0)" />
	<circle cx="730.503" cy="455.495" r="1" fill="rgb(0,0,0)" />
	<circle cx="731.214" cy="494.869" r="1" fill="rgb(0,0,0)" />
	<circle cx="733.744" cy="307.725" r="1" fill="rgb(0,0,0)" />
	<circle cx="734.061" cy="426.083" r="1" fill="rgb(0,0,0)" />
	<circle cx="734.298" cy="412.721" r="1" fill="rgb(0,0,0)" />
	<circle cx="734.693" cy="276.652" r="1" fill="rgb(0,0,0)" />
	<circle cx="734.93" cy="298.237" r="1" fill="rgb(0,0,0)" />
	<circle cx="735.721" cy="488.148" r="1" fill="rgb(0,0,0)" />
	<circle cx="737.381" cy="202.095" r="1" fill="rgb(0,0,0)" />
	<circle cx="739.437" cy="307.487" r="1" fill="rgb(0,0,0)" />
	<circle cx="742.362" cy="541.121" r="1" fill="rgb(0,0,0)" />
	<circle cx="743.944" cy="466.01" r="1" fill="rgb(0,0,0)" />
	<circle cx="745.367" cy="398.964" r="1" fill="rgb(0,0,0)" />
	<circle cx="745.683" cy="270.169" r="1" fill="rgb(0,0,0)" />
	<circle cx="746.948" cy="537.01" r="1" fill="rgb(0,0,0)" />
	<circle cx="748.688" cy="547.051" r="1" fill="rgb(0,0,0)" />
	<circle cx="751.455" cy="401.494" r="1" fill="rgb(0,0,0)" />
	<circle cx="754.855" cy="336.029" r="1" fill="rgb(0,0,0)" />
	<circle cx="757.226" cy="215.615" r="1" fill="rgb(0,0,0)" />
	<circle cx="760.784" cy="488.702" r="1" fill="rgb(0,0,0)" />
	<circle cx="762.603" cy="462.215" r="1" fill="rgb(0,0,0)" />
	<circle cx="764.342" cy="395.248" r="1" fill="rgb(0,0,0)" />
	<circle cx="764.421" cy="513.133" r="1" fill="rgb(0,0,0)" />
	<circle cx="765.37" cy="237.516" r="1" fill="rgb(0,0,0)" />
	<circle cx="766.714" cy="512.105" r="1" fill="rgb(0,0,0)" />
	<circle cx="767.663" cy="120.659" r="1" fill="rgb(0,0,0)" />
	<circle cx="768.849" cy="414.777" r="1" fill="rgb(0,0,0)" />
	<circle cx="768.849" cy="111.962" r="1" fill="rgb(0,0,0)" />
	<circle cx="769.007" cy="91.9592" r="1" fill="rgb(0,0,0)" />
	<circle cx="769.086" cy="291.279" r="1" fill="rgb(0,0,0)" />
	<circle cx="771.221" cy="458.737" r="1" fill="rgb(0,0,0)" />
	<circle cx="772.09" cy="137.737" r="1" fill="rgb(0,0,0)" />
	<circle cx="774.779" cy="454.072" r="1" fill="rgb(0,0,0)" />
	<circle cx="775.49" cy="557.408" r="1" fill="rgb(0,0,0)" />
	<circle cx="775.648" cy="360.302" r="1" fill="rgb(0,0,0)" />
	<circle cx="777.388" cy="412.721" r="1" fill="rgb(0,0,0)" />
	<circle cx="778.574" cy="291.437" r="1" fill="rgb(0,0,0)" />
	<circle cx="778.89" cy="234.353" r="1" fill="rgb(0,0,0)" />
	<circle cx="779.602" cy="533.136" r="1" fill="rgb(0,0,0)" />
	<circle cx="780.234" cy="532.108" r="1" fill="rgb(0,0,0)" />
	<circle cx="786.796" cy="337.611" r="1" fill="rgb(0,0,0)" />
	<circle cx="789.326" cy="353.186" r="1" fill="rgb(0,0,0)" />
	<circle cx="789.564" cy="521.434" r="1" fill="rgb(0,0,0)" />
	<circle cx="794.228" cy="265.9" r="1" fill="rgb(0,0,0)" />
	<circle cx="801.186" cy="495.422" r="1" fill="rgb(0,0,0)" />
	<circle cx="802.293" cy="437.073" r="1" fill="rgb(0,0,0)" />
	<circle cx="802.925" cy="366.548" r="1" fill="rgb(0,0,0)" />
	<circle cx="803.004" cy="411.773" r="1" fill="rgb(0,0,0)" />
	<circle cx="804.032" cy="449.802" r="1" fill="rgb(0,0,0)" />
	<circle cx="806.246" cy="255.78" r="1" fill="rgb(0,0,0)" />
	<circle cx="806.641" cy="86.0294" r="1" fill="rgb(0,0,0)" />
	<circle cx="808.46" cy="251.51" r="1" fill="rgb(0,0,0)" />
	<circle cx="809.092" cy="440.236" r="1" fill="rgb(0,0,0)" />
	<circle cx="810.674" cy="348.759" r="1" fill="rgb(0,0,0)" />
	<circle cx="814.706" cy="360.144" r="1" fill="rgb(0,0,0)" />
	<circle cx="815.022" cy="318.952" r="1" fill="rgb(0,0,0)" />
	<circle cx="815.259" cy="277.601" r="1" fill="rgb(0,0,0)" />
	<circle cx="815.417" cy="304.404" r="1" fill="rgb(0,0,0)" />
	<circle cx="815.576" cy="256.254" r="1" fill="rgb(0,0,0)" />
	<circle cx="815.971" cy="242.497" r="1" fill="rgb(0,0,0)" />
	<circle cx="817.315" cy="209.369" r="1" fill="rgb(0,0,0)" />
	<circle cx="818.185" cy="414.224" r="1" fill="rgb(0,0,0)" />
	<circle cx="818.738" cy="239.967" r="1" fill="rgb(0,0,0)" />
	<circle cx="821.426" cy="273.806" r="1" fill="rgb(0,0,0)" />
	<circle cx="823.087" cy="350.814" r="1" fill="rgb(0,0,0)" />
	<circle cx="826.328" cy="531.475" r="1" fill="rgb(0,0,0)" />
	<circle cx="828.305" cy="417.623" r="1" fill="rgb(0,0,0)" />
	<circle cx="834.709" cy="359.195" r="1" fill="rgb(0,0,0)" />
	<circle cx="835.104" cy="399.122" r="1" fill="rgb(0,0,0)" />
	<circle cx="835.895" cy="141.611" r="1" fill="rgb(0,0,0)" />
	<circle cx="836.923" cy="441.659" r="1" fill="rgb(0,0,0)" />
	<circle cx="838.109" cy="370.818" r="1" fill="rgb(0,0,0)" />
	<circle cx="840.006" cy="367.022" r="1" fill="rgb(0,0,0)" />
	<circle cx="842.062" cy="375.878" r="1" fill="rgb(0,0,0)" />
	<circle cx="844.276" cy="369.632" r="1" fill="rgb(0,0,0)" />
	<circle cx="845.778" cy="335.634" r="1" fill="rgb(0,0,0)" />
	<circle cx="847.834" cy="270.96" r="1" fill="rgb(0,0,0)" />
	<circle cx="848.387" cy="456.127" r="1" fill="rgb(0,0,0)" />
	<circle cx="848.782" cy="365.995" r="1" fill="rgb(0,0,0)" />
	<circle cx="859.535" cy="331.602" r="1" fill="rgb(0,0,0)" />
	<circle cx="863.014" cy="533.689" r="1" fill="rgb(0,0,0)" />
	<circle cx="868.153" cy="447.826" r="1" fill="rgb(0,0,0)" />
	<circle cx="868.232" cy="424.581" r="1" fill="rgb(0,0,0)" />
	<circle cx="870.841" cy="440.077" r="1" fill="rgb(0,0,0)" />
	<circle cx="872.739" cy="463.639" r="1" fill="rgb(0,0,0)" />
	<circle cx="873.371" cy="474.787" r="1" fill="rgb(0,0,0)" />
	<circle cx="876.376" cy="434.622" r="1" fill="rgb(0,0,0)" />
	<circle cx="878.748" cy="273.648" r="1" fill="rgb(0,0,0)" />
	<circle cx="879.064" cy="179.088" r="1" fill="rgb(0,0,0)" />
	<circle cx="879.696" cy="265.03" r="1" fill="rgb(0,0,0)" />
	<circle cx="884.44" cy="322.747" r="1" fill="rgb(0,0,0)" />
	<circle cx="884.598" cy="196.877" r="1" fill="rgb(0,0,0)" />
	<circle cx="889.5" cy="506.412" r="1" fill="rgb(0,0,0)" />
	<circle cx="894.56" cy="470.359" r="1" fill="rgb(0,0,0)" />
	<circle cx="894.798" cy="472.652" r="1" fill="rgb(0,0,0)" />
	<circle cx="897.723" cy="178.929" r="1" fill="rgb(0,0,0)" />
	<circle cx="898.672" cy="496.924" r="1" fill="rgb(0,0,0)" />
	<circle cx="900.016" cy="539.303" r="1" fill="rgb(0,0,0)" />
	<circle cx="902.941" cy="411.852" r="1" fill="rgb(0,0,0)" />
	<circle cx="903.969" cy="438.892" r="1" fill="rgb(0,0,0)" />
	<circle cx="905.392" cy="355.874" r="1" fill="rgb(0,0,0)" />
	<circle cx="906.815" cy="357.693" r="1" fill="rgb(0,0,0)" />
	<circle cx="907.369" cy="261.63" r="1" fill="rgb(0,0,0)" />
	<circle cx="911.322" cy="271.118" r="1" fill="rgb(0,0,0)" />
	<circle cx="914.485" cy="365.125" r="1" fill="rgb(0,0,0)" />
	<circle cx="916.145" cy="510.049" r="1" fill="rgb(0,0,0)" />
	<circle cx="918.201" cy="368.841" r="1" fill="rgb(0,0,0)" />
	<circle cx="918.754" cy="275.546" r="1" fill="rgb(0,0,0)" />
	<circle cx="923.498" cy="275.862" r="1" fill="rgb(0,0,0)" />
	<circle cx="924.842" cy="478.186" r="1" fill="rgb(0,0,0)" />
	<circle cx="925.158" cy="498.98" r="1" fill="rgb(0,0,0)" />
	<circle cx="926.66" cy="185.096" r="1" fill="rgb(0,0,0)" />
	<circle cx="926.818" cy="349.312" r="1" fill="rgb(0,0,0)" />
	<circle cx="929.111" cy="415.41" r="1" fill="rgb(0,0,0)" />
	<circle cx="930.376" cy="505.621" r="1" fill="rgb(0,0,0)" />
	<circle cx="933.302" cy="453.281" r="1" fill="rgb(0,0,0)" />
	<circle cx="933.302" cy="349.154" r="1" fill="rgb(0,0,0)" />
	<circle cx="935.832" cy="374.771" r="1" fill="rgb(0,0,0)" />
	<circle cx="936.781" cy="364.809" r="1" fill="rgb(0,0,0)" />
	<circle cx="937.571" cy="462.927" r="1" fill="rgb(0,0,0)" />
	<circle cx="938.362" cy="558.041" r="1" fill="rgb(0,0,0)" />
	<circle cx="940.497" cy="347.81" r="1" fill="rgb(0,0,0)" />
	<circle cx="940.892" cy="340.536" r="1" fill="rgb(0,0,0)" />
	<circle cx="943.027" cy="415.41" r="1" fill="rgb(0,0,0)" />
	<circle cx="945.873" cy="466.169" r="1" fill="rgb(0,0,0)" />
	<circle cx="946.031" cy="514.081" r="1" fill="rgb(0,0,0)" />
	<circle cx="948.087" cy="573.933" r="1" fill="rgb(0,0,0)" />
	<circle cx="948.245" cy="422.683" r="1" fill="rgb(0,0,0)" />
	<circle cx="950.775" cy="444.979" r="1" fill="rgb(0,0,0)" />
	<circle cx="952.119" cy="271.671" r="1" fill="rgb(0,0,0)" />
	<circle cx="954.649" cy="139.714" r="1" fill="rgb(0,0,0)" />
	<circle cx="957.891" cy="447.589" r="1" fill="rgb(0,0,0)" />
	<circle cx="961.528" cy="479.372" r="1" fill="rgb(0,0,0)" />
	<circle cx="963.662" cy="499.454" r="1" fill="rgb(0,0,0)" />
	<circle cx="963.82" cy="445.691" r="1" fill="rgb(0,0,0)" />
	<circle cx="965.085" cy="294.442" r="1" fill="rgb(0,0,0)" />
	<circle cx="967.615" cy="446.561" r="1" fill="rgb(0,0,0)" />
	<circle cx="971.49" cy="268.746" r="1" fill="rgb(0,0,0)" />
	<circle cx="972.596" cy="475.498" r="1" fill="rgb(0,0,0)" />
	<circle cx="973.466" cy="343.778" r="1" fill="rgb(0,0,0)" />
	<circle cx="979.317" cy="519.141" r="1" fill="rgb(0,0,0)" />
	<circle cx="980.424" cy="320.691" r="1" fill="rgb(0,0,0)" />
	<circle cx="985.326" cy="369.236" r="1" fill="rgb(0,0,0)" />
	<circle cx="985.879" cy="236.251" r="1" fill="rgb(0,0,0)" />
	<circle cx="988.409" cy="332.867" r="1" fill="rgb(0,0,0)" />
	<circle cx="990.228" cy="321.64" r="1" fill="rgb(0,0,0)" />
	<circle cx="991.572" cy="271.039" r="1" fill="rgb(0,0,0)" />
	<circle cx="992.837" cy="267.481" r="1" fill="rgb(0,0,0)" />
	<circle cx="993.232" cy="509.575" r="1" fill="rgb(0,0,0)" />
	<circle cx="993.786" cy="513.37" r="1" fill="rgb(0,0,0)" />
	<circle cx="994.892" cy="309.385" r="1" fill="rgb(0,0,0)" />
	<circle cx="996.869" cy="536.535" r="1" fill="rgb(0,0,0)" />
	<circle cx="998.688" cy="543.73" r="1" fill="rgb(0,0,0)" />
	<circle cx="998.925" cy="309.385" r="1" fill="rgb(0,0,0)" />
	<circle cx="1000.74" cy="270.96" r="1" fill="rgb(0,0,0)" />
	<circle cx="1000.82" cy="235.46" r="1" fill="rgb(0,0,0)" />
	<circle cx="1001.14" cy="540.172" r="1" fill="rgb(0,0,0)" />
	<circle cx="1004.54" cy="350.024" r="1" fill="rgb(0,0,0)" />
	<circle cx="1006.04" cy="369.79" r="1" fill="rgb(0,0,0)" />
	<circle cx="1006.59" cy="539.303" r="1" fill="rgb(0,0,0)" />
	<circle cx="1006.99" cy="390.109" r="1" fill="rgb(0,0,0)" />
	<circle cx="1011.42" cy="403.471" r="1" fill="rgb(0,0,0)" />
	<circle cx="1014.97" cy="519.932" r="1" fill="rgb(0,0,0)" />
	<circle cx="1015.84" cy="353.74" r="1" fill="rgb(0,0,0)" />
	<circle cx="1016.71" cy="546.339" r="1" fill="rgb(0,0,0)" />
	<circle cx="1017.19" cy="537.642" r="1" fill="rgb(0,0,0)" />
	<circle cx="1018.22" cy="419.995" r="1" fill="rgb(0,0,0)" />
	<circle cx="1018.69" cy="537.642" r="1" fill="rgb(0,0,0)" />
	<circle cx="1019.72" cy="338.164" r="1" fill="rgb(0,0,0)" />
	<circle cx="1020.75" cy="526.811" r="1" fill="rgb(0,0,0)" />
	<circle cx="1022.64" cy="331.918" r="1" fill="rgb(0,0,0)" />
	<circle cx="1024.15" cy="512.026" r="1" fill="rgb(0,0,0)" />
	<circle cx="1027.55" cy="398.332" r="1" fill="rgb(0,0,0)" />
	<circle cx="1028.42" cy="235.776" r="1" fill="rgb(0,0,0)" />
	<circle cx="1029.6" cy="529.736" r="1" fill="rgb(0,0,0)" />
	<circle cx="1031.18" cy="483.958" r="1" fill="rgb(0,0,0)" />
	<circle cx="1032.13" cy="515.583" r="1" fill="rgb(0,0,0)" />
	<circle cx="1032.69" cy="515.03" r="1" fill="rgb(0,0,0)" />
	<circle cx="1034.66" cy="409.243" r="1" fill="rgb(0,0,0)" />
	<circle cx="1034.74" cy="235.144" r="1" fill="rgb(0,0,0)" />
	<circle cx="1037.35" cy="390.9" r="1" fill="rgb(0,0,0)" />
	<circle cx="1038.38" cy="450.119" r="1" fill="rgb(0,0,0)" />
	<circle cx="1039.01" cy="425.213" r="1" fill="rgb(0,0,0)" />
	<circle cx="1039.72" cy="564.287" r="1" fill="rgb(0,0,0)" />
	<circle cx="1040.67" cy="240.441" r="1" fill="rgb(0,0,0)" />
	<circle cx="1041.78" cy="492.102" r="1" fill="rgb(0,0,0)" />
	<circle cx="1043.04" cy="488.465" r="1" fill="rgb(0,0,0)" />
	<circle cx="1043.44" cy="279.024" r="1" fill="rgb(0,0,0)" />
	<circle cx="1044.54" cy="356.349" r="1" fill="rgb(0,0,0)" />
	<circle cx="1046.28" cy="268.746" r="1" fill="rgb(0,0,0)" />
	<circle cx="1046.92" cy="342.592" r="1" fill="rgb(0,0,0)" />
	<circle cx="1047.55" cy="426.004" r="1" fill="rgb(0,0,0)" />
	<circle cx="1050" cy="254.277" r="1" fill="rgb(0,0,0)" />
</svg>
