<?xml version="1.0" standalone="no" ?>
<!DOCTYPE svg PUBLIC "-//W3C//DTD SVG 1.1//EN" "http://www.w3.org/Graphics/SVG/1.1/DTD/svg11.dtd">
<svg width="1100px" height="567.392px" xmlns="http://www.w3.org/2000/svg" version="1.1" >
	<circle cx="50" cy="465.644" r="1" fill="rgb(0,0,0)" />
	<circle cx="50.3178" cy="470.253" r="1" fill="rgb(0,0,0)" />
	<circle cx="56.3563" cy="288.622" r="1" fill="rgb(0,0,0)" />
	<circle cx="64.54" cy="504.735" r="1" fill="rgb(0,0,0)" />
	<circle cx="67.1619" cy="242.619" r="1" fill="rgb(0,0,0)" />
	<circle cx="79.1594" cy="321.516" r="1" fill="rgb(0,0,0)" />
	<circle cx="83.6088" cy="535.563" r="1" fill="rgb(0,0,0)" />
	<circle cx="86.3896" cy="527.697" r="1" fill="rgb(0,0,0)" />
	<circle cx="89.4883" cy="460.083" r="1" fill="rgb(0,0,0)" />
	<circle cx="101.247" cy="255.808" r="1" fill="rgb(0,0,0)" />
	<circle cx="109.352" cy="363.308" r="1" fill="rgb(0,0,0)" />
	<circle cx="110.305" cy="231.257" r="1" fill="rgb(0,0,0)" />
	<circle cx="110.861" cy="526.823" r="1" fill="rgb(0,0,0)" />
	<circle cx="111.894" cy="529.366" r="1" fill="rgb(0,0,0)" />
	<circle cx="113.722" cy="232.29" r="1" fill="rgb(0,0,0)" />
	<circle cx="113.881" cy="513.555" r="1" fill="rgb(0,0,0)" />
	<circle cx="116.105" cy="442.603" r="1" fill="rgb(0,0,0)" />
	<circle cx="121.111" cy="428.699" r="1" fill="rgb(0,0,0)" />
	<circle cx="125.322" cy="496.234" r="1" fill="rgb(0,0,0)" />
	<circle cx="128.023" cy="480.979" r="1" fill="rgb(0,0,0)" />
	<circle cx="129.056" cy="528.73" r="1" fill="rgb(0,0,0)" />
	<circle cx="133.823" cy="524.917" r="1" fill="rgb(0,0,0)" />
	<circle cx="133.903" cy="522.295" r="1" fill="rgb(0,0,0)" />
	<circle cx="141.133" cy="450.469" r="1" fill="rgb(0,0,0)" />
	<circle cx="151.7" cy="285.285" r="1" fill="rgb(0,0,0)" />
	<circle cx="153.766" cy="293.548" r="1" fill="rgb(0,0,0)" />
	<circle cx="163.142" cy="233.005" r="1" fill="rgb(0,0,0)" />
	<circle cx="164.572" cy="340.664" r="1" fill="rgb(0,0,0)" />
	<circle cx="170.213" cy="345.431" r="1" fill="rgb(0,0,0)" />
	<circle cx="181.177" cy="226.887" r="1" fill="rgb(0,0,0)" />
	<circle cx="183.641" cy="182.552" r="1" fill="rgb(0,0,0)" />
	<circle cx="187.216" cy="335.579" r="1" fill="rgb(0,0,0)" />
	<circle cx="187.772" cy="353.774" r="1" fill="rgb(0,0,0)" />
	<circle cx="195.32" cy="430.685" r="1" fill="rgb(0,0,0)" />
	<circle cx="200.326" cy="260.257" r="1" fill="rgb(0,0,0)" />
	<circle cx="200.882" cy="361.163" r="1" fill="rgb(0,0,0)" />
	<circle cx="204.457" cy="424.726" r="1" fill="rgb(0,0,0)" />
	<circle cx="206.92" cy="197.807" r="1" fill="rgb(0,0,0)" />
	<circle cx="222.573" cy="73.3831" r="1" fill="rgb(0,0,0)" />
	<circle cx="228.293" cy="517.925" r="1" fill="rgb(0,0,0)" />
	<circle cx="230.677" cy="258.271" r="1" fill="rgb(0,0,0)" />
	<circle cx="231.869" cy="246.512" r="1" fill="rgb(0,0,0)" />
	<circle cx="233.14" cy="410.106" r="1" fill="rgb(0,0,0)" />
	<circle cx="233.537" cy="518.163" r="1" fill="rgb(0,0,0)" />
	<circle cx="236.477" cy="253.504" r="1" fill="rgb(0,0,0)" />
	<circle cx="238.146" cy="245.479" r="1" fill="rgb(0,0,0)" />
	<circle cx="244.105" cy="222.358" r="1" fill="rgb(0,0,0)" />
	<circle cx="256.34" cy="532.703" r="1" fill="rgb(0,0,0)" />
	<circle cx="257.612" cy="107.071" r="1" fill="rgb(0,0,0)" />
	<circle cx="258.088" cy="254.934" r="1" fill="rgb(0,0,0)" />
	<circle cx="259.598" cy="528.73" r="1" fill="rgb(0,0,0)" />
	<circle cx="265.001" cy="353.695" r="1" fill="rgb(0,0,0)" />
	<circle cx="267.305" cy="523.328" r="1" fill="rgb(0,0,0)" />
	<circle cx="268.815" cy="89.4327" r="1" fill="rgb(0,0,0)" />
	<circle cx="276.045" cy="511.251" r="1" fill="rgb(0,0,0)" />
	<circle cx="278.27" cy="294.661" r="1" fill="rgb(0,0,0)" />
	<circle cx="285.182" cy="177.308" r="1" fill="rgb(0,0,0)" />
	<circle cx="288.122" cy="403.75" r="1" fill="rgb(0,0,0)" />
	<circle cx="293.207" cy="283.299" r="1" fill="rgb(0,0,0)" />
	<circle cx="303.059" cy="512.76" r="1" fill="rgb(0,0,0)" />
	<circle cx="308.621" cy="512.522" r="1" fill="rgb(0,0,0)" />
	<circle cx="312.593" cy="231.813" r="1" fill="rgb(0,0,0)" />
	<circle cx="317.043" cy="198.999" r="1" fill="rgb(0,0,0)" />
	<circle cx="326.974" cy="432.353" r="1" fill="rgb(0,0,0)" />
	<circle cx="332.377" cy="305.149" r="1" fill="rgb(0,0,0)" />
	<circle cx="333.807" cy="398.268" r="1" fill="rgb(0,0,0)" />
	<circle cx="336.191" cy="151.804" r="1" fill="rgb(0,0,0)" />
	<circle cx="336.906" cy="469.458" r="1" fill="rgb(0,0,0)" />
	<circle cx="337.78" cy="285.762" r="1" fill="rgb(0,0,0)" />
	<circle cx="340.164" cy="404.306" r="1" fill="rgb(0,0,0)" />
	<circle cx="341.753" cy="182.711" r="1" fill="rgb(0,0,0)" />
	<circle cx="342.627" cy="200.27" r="1" fill="rgb(0,0,0)" />
	<circle cx="343.739" cy="190.974" r="1" fill="rgb(0,0,0)" />
	<circle cx="343.977" cy="288.622" r="1" fill="rgb(0,0,0)" />
	<circle cx="346.361" cy="165.867" r="1" fill="rgb(0,0,0)" />
	<circle cx="347.712" cy="506.007" r="1" fill="rgb(0,0,0)" />
	<circle cx="352.241" cy="196.536" r="1" fill="rgb(0,0,0)" />
	<circle cx="353.115" cy="510.536" r="1" fill="rgb(0,0,0)" />
	<circle cx="355.895" cy="169.998" r="1" fill="rgb(0,0,0)" />
	<circle cx="371.707" cy="272.334" r="1" fill="rgb(0,0,0)" />
	<circle cx="377.904" cy="501.16" r="1" fill="rgb(0,0,0)" />
	<circle cx="381.559" cy="430.526" r="1" fill="rgb(0,0,0)" />
	<circle cx="385.373" cy="251.279" r="1" fill="rgb(0,0,0)" />
	<circle cx="386.644" cy="324.774" r="1" fill="rgb(0,0,0)" />
	<circle cx="387.995" cy="310.234" r="1" fill="rgb(0,0,0)" />
	<circle cx="388.471" cy="492.182" r="1" fill="rgb(0,0,0)" />
	<circle cx="389.584" cy="309.836" r="1" fill="rgb(0,0,0)" />
	<circle cx="391.093" cy="236.183" r="1" fill="rgb(0,0,0)" />
	<circle cx="393.715" cy="251.438" r="1" fill="rgb(0,0,0)" />
	<circle cx="397.291" cy="336.85" r="1" fill="rgb(0,0,0)" />
	<circle cx="399.436" cy="72.5091" r="1" fill="rgb(0,0,0)" />
	<circle cx="399.992" cy="341.856" r="1" fill="rgb(0,0,0)" />
	<circle cx="402.932" cy="193.676" r="1" fill="rgb(0,0,0)" />
	<circle cx="403.409" cy="298.157" r="1" fill="rgb(0,0,0)" />
	<circle cx="408.335" cy="321.993" r="1" fill="rgb(0,0,0)" />
	<circle cx="410.321" cy="535.246" r="1" fill="rgb(0,0,0)" />
	<circle cx="417.075" cy="84.3477" r="1" fill="rgb(0,0,0)" />
	<circle cx="419.935" cy="536.914" r="1" fill="rgb(0,0,0)" />
	<circle cx="420.57" cy="426.871" r="1" fill="rgb(0,0,0)" />
	<circle cx="423.034" cy="455.157" r="1" fill="rgb(0,0,0)" />
	<circle cx="424.066" cy="211.394" r="1" fill="rgb(0,0,0)" />
	<circle cx="427.324" cy="303.003" r="1" fill="rgb(0,0,0)" />
	<circle cx="433.442" cy="379.914" r="1" fill="rgb(0,0,0)" />
	<circle cx="434.395" cy="237.693" r="1" fill="rgb(0,0,0)" />
	<circle cx="435.269" cy="415.748" r="1" fill="rgb(0,0,0)" />
	<circle cx="437.097" cy="233.164" r="1" fill="rgb(0,0,0)" />
	<circle cx="440.752" cy="309.042" r="1" fill="rgb(0,0,0)" />
	<circle cx="443.374" cy="243.89" r="1" fill="rgb(0,0,0)" />
	<circle cx="443.612" cy="345.193" r="1" fill="rgb(0,0,0)" />
	<circle cx="444.804" cy="483.204" r="1" fill="rgb(0,0,0)" />
	<circle cx="448.22" cy="423.296" r="1" fill="rgb(0,0,0)" />
	<circle cx="449.73" cy="408.994" r="1" fill="rgb(0,0,0)" />
	<circle cx="451.16" cy="288.304" r="1" fill="rgb(0,0,0)" />
	<circle cx="465.621" cy="491.546" r="1" fill="rgb(0,0,0)" />
	<circle cx="467.448" cy="427.666" r="1" fill="rgb(0,0,0)" />
	<circle cx="470.706" cy="370.618" r="1" fill="rgb(0,0,0)" />
	<circle cx="472.771" cy="496.552" r="1" fill="rgb(0,0,0)" />
	<circle cx="473.169" cy="304.513" r="1" fill="rgb(0,0,0)" />
	<circle cx="476.744" cy="373.24" r="1" fill="rgb(0,0,0)" />
	<circle cx="479.684" cy="333.672" r="1" fill="rgb(0,0,0)" />
	<circle cx="487.709" cy="443.397" r="1" fill="rgb(0,0,0)" />
	<circle cx="491.999" cy="480.025" r="1" fill="rgb(0,0,0)" />
	<circle cx="494.224" cy="438.63" r="1" fill="rgb(0,0,0)" />
	<circle cx="497.561" cy="428.937" r="1" fill="rgb(0,0,0)" />
	<circle cx="499.706" cy="440.378" r="1" fill="rgb(0,0,0)" />
	<circle cx="501.295" cy="408.756" r="1" fill="rgb(0,0,0)" />
	<circle cx="505.506" cy="445.066" r="1" fill="rgb(0,0,0)" />
	<circle cx="508.684" cy="354.171" r="1" fill="rgb(0,0,0)" />
	<circle cx="511.068" cy="386.986" r="1" fill="rgb(0,0,0)" />
	<circle cx="515.676" cy="454.203" r="1" fill="rgb(0,0,0)" />
	<circle cx="517.901" cy="157.445" r="1" fill="rgb(0,0,0)" />
	<circle cx="518.457" cy="310.631" r="1" fill="rgb(0,0,0)" />
	<circle cx="520.205" cy="318.02" r="1" fill="rgb(0,0,0)" />
	<circle cx="520.682" cy="429.255" r="1" fill="rgb(0,0,0)" />
	<circle cx="524.416" cy="435.373" r="1" fill="rgb(0,0,0)" />
	<circle cx="529.739" cy="113.904" r="1" fill="rgb(0,0,0)" />
	<circle cx="532.123" cy="250.167" r="1" fill="rgb(0,0,0)" />
	<circle cx="533.553" cy="425.362" r="1" fill="rgb(0,0,0)" />
	<circle cx="539.83" cy="201.621" r="1" fill="rgb(0,0,0)" />
	<circle cx="540.227" cy="330.494" r="1" fill="rgb(0,0,0)" />
	<circle cx="546.186" cy="270.825" r="1" fill="rgb(0,0,0)" />
	<circle cx="549.603" cy="470.173" r="1" fill="rgb(0,0,0)" />
	<circle cx="550.556" cy="132.338" r="1" fill="rgb(0,0,0)" />
	<circle cx="552.225" cy="314.286" r="1" fill="rgb(0,0,0)" />
	<circle cx="553.416" cy="462.466" r="1" fill="rgb(0,0,0)" />
	<circle cx="553.655" cy="270.03" r="1" fill="rgb(0,0,0)" />
	<circle cx="555.244" cy="93.6437" r="1" fill="rgb(0,0,0)" />
	<circle cx="556.277" cy="380.709" r="1" fill="rgb(0,0,0)" />
	<circle cx="556.436" cy="541.602" r="1" fill="rgb(0,0,0)" />
	<circle cx="558.581" cy="387.462" r="1" fill="rgb(0,0,0)" />
	<circle cx="558.978" cy="185.651" r="1" fill="rgb(0,0,0)" />
	<circle cx="560.806" cy="204.72" r="1" fill="rgb(0,0,0)" />
	<circle cx="562.554" cy="237.216" r="1" fill="rgb(0,0,0)" />
	<circle cx="568.751" cy="309.201" r="1" fill="rgb(0,0,0)" />
	<circle cx="569.943" cy="327.078" r="1" fill="rgb(0,0,0)" />
	<circle cx="570.181" cy="448.403" r="1" fill="rgb(0,0,0)" />
	<circle cx="573.041" cy="363.308" r="1" fill="rgb(0,0,0)" />
	<circle cx="574.154" cy="390.005" r="1" fill="rgb(0,0,0)" />
	<circle cx="574.392" cy="259.145" r="1" fill="rgb(0,0,0)" />
	<circle cx="575.028" cy="264.151" r="1" fill="rgb(0,0,0)" />
	<circle cx="575.346" cy="495.916" r="1" fill="rgb(0,0,0)" />
	<circle cx="583.688" cy="348.53" r="1" fill="rgb(0,0,0)" />
	<circle cx="586.231" cy="501.319" r="1" fill="rgb(0,0,0)" />
	<circle cx="588.058" cy="535.325" r="1" fill="rgb(0,0,0)" />
	<circle cx="589.886" cy="341.538" r="1" fill="rgb(0,0,0)" />
	<circle cx="593.302" cy="490.911" r="1" fill="rgb(0,0,0)" />
	<circle cx="595.05" cy="293.389" r="1" fill="rgb(0,0,0)" />
	<circle cx="598.387" cy="456.031" r="1" fill="rgb(0,0,0)" />
	<circle cx="599.42" cy="233.084" r="1" fill="rgb(0,0,0)" />
	<circle cx="599.738" cy="225.06" r="1" fill="rgb(0,0,0)" />
	<circle cx="601.486" cy="132.814" r="1" fill="rgb(0,0,0)" />
	<circle cx="602.598" cy="421.548" r="1" fill="rgb(0,0,0)" />
	<circle cx="609.669" cy="436.962" r="1" fill="rgb(0,0,0)" />
	<circle cx="612.848" cy="268.679" r="1" fill="rgb(0,0,0)" />
	<circle cx="617.376" cy="306.579" r="1" fill="rgb(0,0,0)" />
	<circle cx="620.396" cy="364.421" r="1" fill="rgb(0,0,0)" />
	<circle cx="623.256" cy="232.21" r="1" fill="rgb(0,0,0)" />
	<circle cx="627.785" cy="256.603" r="1" fill="rgb(0,0,0)" />
	<circle cx="629.215" cy="463.34" r="1" fill="rgb(0,0,0)" />
	<circle cx="629.215" cy="260.416" r="1" fill="rgb(0,0,0)" />
	<circle cx="630.566" cy="505.848" r="1" fill="rgb(0,0,0)" />
	<circle cx="632.79" cy="476.768" r="1" fill="rgb(0,0,0)" />
	<circle cx="636.922" cy="370.062" r="1" fill="rgb(0,0,0)" />
	<circle cx="637.24" cy="25.7906" r="1" fill="rgb(0,0,0)" />
	<circle cx="637.399" cy="470.412" r="1" fill="rgb(0,0,0)" />
	<circle cx="639.623" cy="250.564" r="1" fill="rgb(0,0,0)" />
	<circle cx="642.166" cy="292.992" r="1" fill="rgb(0,0,0)" />
	<circle cx="643.993" cy="28.4125" r="1" fill="rgb(0,0,0)" />
	<circle cx="644.867" cy="272.97" r="1" fill="rgb(0,0,0)" />
	<circle cx="645.344" cy="530.876" r="1" fill="rgb(0,0,0)" />
	<circle cx="645.503" cy="509.105" r="1" fill="rgb(0,0,0)" />
	<circle cx="658.057" cy="72.827" r="1" fill="rgb(0,0,0)" />
	<circle cx="664.095" cy="238.169" r="1" fill="rgb(0,0,0)" />
	<circle cx="666.081" cy="237.057" r="1" fill="rgb(0,0,0)" />
	<circle cx="666.32" cy="443.239" r="1" fill="rgb(0,0,0)" />
	<circle cx="671.643" cy="43.5087" r="1" fill="rgb(0,0,0)" />
	<circle cx="673.153" cy="368.155" r="1" fill="rgb(0,0,0)" />
	<circle cx="673.629" cy="295.694" r="1" fill="rgb(0,0,0)" />
	<circle cx="676.966" cy="154.664" r="1" fill="rgb(0,0,0)" />
	<circle cx="679.112" cy="273.685" r="1" fill="rgb(0,0,0)" />
	<circle cx="685.786" cy="258.351" r="1" fill="rgb(0,0,0)" />
	<circle cx="688.01" cy="107.071" r="1" fill="rgb(0,0,0)" />
	<circle cx="688.408" cy="357.826" r="1" fill="rgb(0,0,0)" />
	<circle cx="690.791" cy="255.411" r="1" fill="rgb(0,0,0)" />
	<circle cx="697.068" cy="311.266" r="1" fill="rgb(0,0,0)" />
	<circle cx="700.008" cy="430.129" r="1" fill="rgb(0,0,0)" />
	<circle cx="700.246" cy="376.418" r="1" fill="rgb(0,0,0)" />
	<circle cx="709.701" cy="315.08" r="1" fill="rgb(0,0,0)" />
	<circle cx="712.879" cy="233.641" r="1" fill="rgb(0,0,0)" />
	<circle cx="713.118" cy="135.277" r="1" fill="rgb(0,0,0)" />
	<circle cx="717.488" cy="293.231" r="1" fill="rgb(0,0,0)" />
	<circle cx="723.049" cy="155.776" r="1" fill="rgb(0,0,0)" />
	<circle cx="723.526" cy="173.097" r="1" fill="rgb(0,0,0)" />
	<circle cx="724.877" cy="238.726" r="1" fill="rgb(0,0,0)" />
	<circle cx="728.77" cy="410.106" r="1" fill="rgb(0,0,0)" />
	<circle cx="737.033" cy="302.05" r="1" fill="rgb(0,0,0)" />
	<circle cx="741.721" cy="242.301" r="1" fill="rgb(0,0,0)" />
	<circle cx="743.866" cy="254.14" r="1" fill="rgb(0,0,0)" />
	<circle cx="748.633" cy="501.796" r="1" fill="rgb(0,0,0)" />
	<circle cx="749.666" cy="407.961" r="1" fill="rgb(0,0,0)" />
	<circle cx="749.825" cy="130.748" r="1" fill="rgb(0,0,0)" />
	<circle cx="750.779" cy="158.478" r="1" fill="rgb(0,0,0)" />
	<circle cx="756.102" cy="453.806" r="1" fill="rgb(0,0,0)" />
	<circle cx="758.486" cy="435.69" r="1" fill="rgb(0,0,0)" />
	<circle cx="762.061" cy="362.991" r="1" fill="rgb(0,0,0)" />
	<circle cx="765.398" cy="143.382" r="1" fill="rgb(0,0,0)" />
	<circle cx="765.557" cy="322.469" r="1" fill="rgb(0,0,0)" />
	<circle cx="771.675" cy="293.151" r="1" fill="rgb(0,0,0)" />
	<circle cx="774.138" cy="438.71" r="1" fill="rgb(0,0,0)" />
	<circle cx="779.223" cy="203.846" r="1" fill="rgb(0,0,0)" />
	<circle cx="780.176" cy="415.112" r="1" fill="rgb(0,0,0)" />
	<circle cx="791.697" cy="467.472" r="1" fill="rgb(0,0,0)" />
	<circle cx="794.001" cy="363.15" r="1" fill="rgb(0,0,0)" />
	<circle cx="794.319" cy="377.531" r="1" fill="rgb(0,0,0)" />
	<circle cx="794.796" cy="323.661" r="1" fill="rgb(0,0,0)" />
	<circle cx="795.511" cy="359.495" r="1" fill="rgb(0,0,0)" />
	<circle cx="797.1" cy="449.913" r="1" fill="rgb(0,0,0)" />
	<circle cx="809.892" cy="329.938" r="1" fill="rgb(0,0,0)" />
	<circle cx="812.196" cy="297.839" r="1" fill="rgb(0,0,0)" />
	<circle cx="814.659" cy="368.076" r="1" fill="rgb(0,0,0)" />
	<circle cx="819.983" cy="528.174" r="1" fill="rgb(0,0,0)" />
	<circle cx="820.38" cy="281.71" r="1" fill="rgb(0,0,0)" />
	<circle cx="825.226" cy="365.613" r="1" fill="rgb(0,0,0)" />
	<circle cx="838.495" cy="130.431" r="1" fill="rgb(0,0,0)" />
	<circle cx="840.084" cy="422.501" r="1" fill="rgb(0,0,0)" />
	<circle cx="841.355" cy="470.173" r="1" fill="rgb(0,0,0)" />
	<circle cx="849.301" cy="316.828" r="1" fill="rgb(0,0,0)" />
	<circle cx="852.241" cy="383.331" r="1" fill="rgb(0,0,0)" />
	<circle cx="852.558" cy="417.575" r="1" fill="rgb(0,0,0)" />
	<circle cx="863.523" cy="238.249" r="1" fill="rgb(0,0,0)" />
	<circle cx="864" cy="332.322" r="1" fill="rgb(0,0,0)" />
	<circle cx="865.986" cy="347.02" r="1" fill="rgb(0,0,0)" />
	<circle cx="866.622" cy="438.312" r="1" fill="rgb(0,0,0)" />
	<circle cx="870.912" cy="226.331" r="1" fill="rgb(0,0,0)" />
	<circle cx="882.91" cy="174.845" r="1" fill="rgb(0,0,0)" />
	<circle cx="885.69" cy="238.726" r="1" fill="rgb(0,0,0)" />
	<circle cx="885.849" cy="325.648" r="1" fill="rgb(0,0,0)" />
	<circle cx="887.995" cy="377.769" r="1" fill="rgb(0,0,0)" />
	<circle cx="889.822" cy="383.728" r="1" fill="rgb(0,0,0)" />
	<circle cx="889.822" cy="288.861" r="1" fill="rgb(0,0,0)" />
	<circle cx="892.682" cy="437.438" r="1" fill="rgb(0,0,0)" />
	<circle cx="893" cy="296.091" r="1" fill="rgb(0,0,0)" />
	<circle cx="903.488" cy="111.6" r="1" fill="rgb(0,0,0)" />
	<circle cx="906.825" cy="538.583" r="1" fill="rgb(0,0,0)" />
	<circle cx="909.924" cy="237.057" r="1" fill="rgb(0,0,0)" />
	<circle cx="918.664" cy="480.82" r="1" fill="rgb(0,0,0)" />
	<circle cx="922.001" cy="538.741" r="1" fill="rgb(0,0,0)" />
	<circle cx="929.787" cy="333.672" r="1" fill="rgb(0,0,0)" />
	<circle cx="938.924" cy="238.964" r="1" fill="rgb(0,0,0)" />
	<circle cx="939.48" cy="313.412" r="1" fill="rgb(0,0,0)" />
	<circle cx="944.248" cy="236.739" r="1" fill="rgb(0,0,0)" />
	<circle cx="948.618" cy="398.506" r="1" fill="rgb(0,0,0)" />
	<circle cx="948.618" cy="311.108" r="1" fill="rgb(0,0,0)" />
	<circle cx="953.464" cy="477.721" r="1" fill="rgb(0,0,0)" />
	<circle cx="953.861" cy="408.438" r="1" fill="rgb(0,0,0)" />
	<circle cx="958.629" cy="257.953" r="1" fill="rgb(0,0,0)" />
	<circle cx="960.138" cy="284.093" r="1" fill="rgb(0,0,0)" />
	<circle cx="962.681" cy="233.164" r="1" fill="rgb(0,0,0)" />
	<circle cx="962.84" cy="455.157" r="1" fill="rgb(0,0,0)" />
	<circle cx="968.004" cy="232.687" r="1" fill="rgb(0,0,0)" />
	<circle cx="969.593" cy="432.433" r="1" fill="rgb(0,0,0)" />
	<circle cx="976.426" cy="485.269" r="1" fill="rgb(0,0,0)" />
	<circle cx="991.999" cy="504.577" r="1" fill="rgb(0,0,0)" />
	<circle cx="992.078" cy="517.21" r="1" fill="rgb(0,0,0)" />
	<circle cx="993.747" cy="524.917" r="1" fill="rgb(0,0,0)" />
	<circle cx="1000.34" cy="491.149" r="1" fill="rgb(0,0,0)" />
	<circle cx="1009.8" cy="473.192" r="1" fill="rgb(0,0,0)" />
	<circle cx="1010.99" cy="310.869" r="1" fill="rgb(0,0,0)" />
	<circle cx="1011.78" cy="535.087" r="1" fill="rgb(0,0,0)" />
	<circle cx="1016.87" cy="218.147" r="1" fill="rgb(0,0,0)" />
	<circle cx="1025.05" cy="309.121" r="1" fill="rgb(0,0,0)" />
	<circle cx="1027.12" cy="464.532" r="1" fill="rgb(0,0,0)" />
	<circle cx="1027.12" cy="410.424" r="1" fill="rgb(0,0,0)" />
	<circle cx="1027.67" cy="369.585" r="1" fill="rgb(0,0,0)" />
	<circle cx="1030.45" cy="345.273" r="1" fill="rgb(0,0,0)" />
	<circle cx="1039.83" cy="387.462" r="1" fill="rgb(0,0,0)" />
	<circle cx="1040.7" cy="322.231" r="1" fill="rgb(0,0,0)" />
	<circle cx="1041.82" cy="317.464" r="1" fill="rgb(0,0,0)" />
	<circle cx="1043.41" cy="482.25" r="1" fill="rgb(0,0,0)" />
	<circle cx="1050" cy="342.651" r="1" fill="rgb(0,0,0)" />
</svg>
