<?xml version="1.0" standalone="no" ?>
<!DOCTYPE svg PUBLIC "-//W3C//DTD SVG 1.1//EN" "http://www.w3.org/Graphics/SVG/1.1/DTD/svg11.dtd">
<svg width="1100px" height="1142.57px" xmlns="http://www.w3.org/2000/svg" version="1.1" >
	<circle cx="50" cy="268.229" r="1" fill="rgb(0,0,0)" />
	<circle cx="52.9824" cy="484.218" r="1" fill="rgb(0,0,0)" />
	<circle cx="55.1079" cy="1032.79" r="1" fill="rgb(0,0,0)" />
	<circle cx="57.2268" cy="252.272" r="1" fill="rgb(0,0,0)" />
	<circle cx="58.4251" cy="617.951" r="1" fill="rgb(0,0,0)" />
	<circle cx="58.6226" cy="598.932" r="1" fill="rgb(0,0,0)" />
	<circle cx="58.6661" cy="616.623" r="1" fill="rgb(0,0,0)" />
	<circle cx="68.4602" cy="1068.75" r="1" fill="rgb(0,0,0)" />
	<circle cx="68.5539" cy="330.605" r="1" fill="rgb(0,0,0)" />
	<circle cx="71.7338" cy="649.396" r="1" fill="rgb(0,0,0)" />
	<circle cx="73.22" cy="924.863" r="1" fill="rgb(0,0,0)" />
	<circle cx="77.4208" cy="679.461" r="1" fill="rgb(0,0,0)" />
	<circle cx="77.6484" cy="292.349" r="1" fill="rgb(0,0,0)" />
	<circle cx="84.4267" cy="903.176" r="1" fill="rgb(0,0,0)" />
	<circle cx="86.4317" cy="522.742" r="1" fill="rgb(0,0,0)" />
	<circle cx="87.9145" cy="935.57" r="1" fill="rgb(0,0,0)" />
	<circle cx="94.4986" cy="653.804" r="1" fill="rgb(0,0,0)" />
	<circle cx="97.8291" cy="283.204" r="1" fill="rgb(0,0,0)" />
	<circle cx="98.3245" cy="1065.47" r="1" fill="rgb(0,0,0)" />
	<circle cx="98.4216" cy="284.118" r="1" fill="rgb(0,0,0)" />
	<circle cx="98.7396" cy="288.342" r="1" fill="rgb(0,0,0)" />
	<circle cx="100.778" cy="312.965" r="1" fill="rgb(0,0,0)" />
	<circle cx="101.471" cy="309.788" r="1" fill="rgb(0,0,0)" />
	<circle cx="105.916" cy="1003.19" r="1" fill="rgb(0,0,0)" />
	<circle cx="106.087" cy="315.837" r="1" fill="rgb(0,0,0)" />
	<circle cx="106.994" cy="311.449" r="1" fill="rgb(0,0,0)" />
	<circle cx="107.007" cy="494.859" r="1" fill="rgb(0,0,0)" />
	<circle cx="108.001" cy="777.901" r="1" fill="rgb(0,0,0)" />
	<circle cx="108.105" cy="1089.9" r="1" fill="rgb(0,0,0)" />
	<circle cx="108.346" cy="1028.05" r="1" fill="rgb(0,0,0)" />
	<circle cx="108.463" cy="311.874" r="1" fill="rgb(0,0,0)" />
	<circle cx="108.986" cy="178.468" r="1" fill="rgb(0,0,0)" />
	<circle cx="114.355" cy="981.753" r="1" fill="rgb(0,0,0)" />
	<circle cx="119.151" cy="415.207" r="1" fill="rgb(0,0,0)" />
	<circle cx="121.052" cy="629.362" r="1" fill="rgb(0,0,0)" />
	<circle cx="123.071" cy="203.449" r="1" fill="rgb(0,0,0)" />
	<circle cx="127.208" cy="313.316" r="1" fill="rgb(0,0,0)" />
	<circle cx="128.524" cy="314.819" r="1" fill="rgb(0,0,0)" />
	<circle cx="130.053" cy="550.624" r="1" fill="rgb(0,0,0)" />
	<circle cx="130.519" cy="1008.77" r="1" fill="rgb(0,0,0)" />
	<circle cx="131.205" cy="857.907" r="1" fill="rgb(0,0,0)" />
	<circle cx="131.329" cy="214.846" r="1" fill="rgb(0,0,0)" />
	<circle cx="132.473" cy="135.824" r="1" fill="rgb(0,0,0)" />
	<circle cx="135.001" cy="342.2" r="1" fill="rgb(0,0,0)" />
	<circle cx="135.017" cy="726.477" r="1" fill="rgb(0,0,0)" />
	<circle cx="135.195" cy="109.578" r="1" fill="rgb(0,0,0)" />
	<circle cx="135.841" cy="876.16" r="1" fill="rgb(0,0,0)" />
	<circle cx="136.45" cy="342.203" r="1" fill="rgb(0,0,0)" />
	<circle cx="137.079" cy="343.927" r="1" fill="rgb(0,0,0)" />
	<circle cx="137.993" cy="722.286" r="1" fill="rgb(0,0,0)" />
	<circle cx="143.091" cy="726.654" r="1" fill="rgb(0,0,0)" />
	<circle cx="144.798" cy="728.739" r="1" fill="rgb(0,0,0)" />
	<circle cx="144.902" cy="680.766" r="1" fill="rgb(0,0,0)" />
	<circle cx="146.318" cy="259.449" r="1" fill="rgb(0,0,0)" />
	<circle cx="147.051" cy="855.715" r="1" fill="rgb(0,0,0)" />
	<circle cx="148.256" cy="503.388" r="1" fill="rgb(0,0,0)" />
	<circle cx="149.387" cy="515.605" r="1" fill="rgb(0,0,0)" />
	<circle cx="150.318" cy="508.201" r="1" fill="rgb(0,0,0)" />
	<circle cx="151.821" cy="516.335" r="1" fill="rgb(0,0,0)" />
	<circle cx="153.253" cy="146.833" r="1" fill="rgb(0,0,0)" />
	<circle cx="153.534" cy="508.897" r="1" fill="rgb(0,0,0)" />
	<circle cx="153.585" cy="514.638" r="1" fill="rgb(0,0,0)" />
	<circle cx="154.535" cy="1064.26" r="1" fill="rgb(0,0,0)" />
	<circle cx="155.7" cy="515.411" r="1" fill="rgb(0,0,0)" />
	<circle cx="155.774" cy="517.975" r="1" fill="rgb(0,0,0)" />
	<circle cx="161.163" cy="319.957" r="1" fill="rgb(0,0,0)" />
	<circle cx="163.087" cy="144.554" r="1" fill="rgb(0,0,0)" />
	<circle cx="163.332" cy="518.4" r="1" fill="rgb(0,0,0)" />
	<circle cx="164.105" cy="341.895" r="1" fill="rgb(0,0,0)" />
	<circle cx="164.232" cy="512.258" r="1" fill="rgb(0,0,0)" />
	<circle cx="166.304" cy="319.87" r="1" fill="rgb(0,0,0)" />
	<circle cx="168.667" cy="752.887" r="1" fill="rgb(0,0,0)" />
	<circle cx="169.26" cy="641.017" r="1" fill="rgb(0,0,0)" />
	<circle cx="170.03" cy="332.915" r="1" fill="rgb(0,0,0)" />
	<circle cx="171.231" cy="642.219" r="1" fill="rgb(0,0,0)" />
	<circle cx="172.888" cy="647.796" r="1" fill="rgb(0,0,0)" />
	<circle cx="173.173" cy="745.586" r="1" fill="rgb(0,0,0)" />
	<circle cx="174.994" cy="141.933" r="1" fill="rgb(0,0,0)" />
	<circle cx="177.424" cy="500.519" r="1" fill="rgb(0,0,0)" />
	<circle cx="177.427" cy="501.443" r="1" fill="rgb(0,0,0)" />
	<circle cx="177.628" cy="216.52" r="1" fill="rgb(0,0,0)" />
	<circle cx="178.334" cy="799.327" r="1" fill="rgb(0,0,0)" />
	<circle cx="178.739" cy="637.928" r="1" fill="rgb(0,0,0)" />
	<circle cx="179.653" cy="176.544" r="1" fill="rgb(0,0,0)" />
	<circle cx="180.048" cy="1033.88" r="1" fill="rgb(0,0,0)" />
	<circle cx="180.764" cy="943.346" r="1" fill="rgb(0,0,0)" />
	<circle cx="181.876" cy="59.0177" r="1" fill="rgb(0,0,0)" />
	<circle cx="183.221" cy="56.7583" r="1" fill="rgb(0,0,0)" />
	<circle cx="183.238" cy="400.684" r="1" fill="rgb(0,0,0)" />
	<circle cx="183.382" cy="190.806" r="1" fill="rgb(0,0,0)" />
	<circle cx="183.646" cy="56.1759" r="1" fill="rgb(0,0,0)" />
	<circle cx="185.005" cy="580.924" r="1" fill="rgb(0,0,0)" />
	<circle cx="186.863" cy="578.785" r="1" fill="rgb(0,0,0)" />
	<circle cx="186.913" cy="1039.77" r="1" fill="rgb(0,0,0)" />
	<circle cx="187.318" cy="1051.87" r="1" fill="rgb(0,0,0)" />
	<circle cx="187.543" cy="1040.93" r="1" fill="rgb(0,0,0)" />
	<circle cx="188.443" cy="816.28" r="1" fill="rgb(0,0,0)" />
	<circle cx="190.016" cy="149.672" r="1" fill="rgb(0,0,0)" />
	<circle cx="196.707" cy="1047.6" r="1" fill="rgb(0,0,0)" />
	<circle cx="197.946" cy="1041.04" r="1" fill="rgb(0,0,0)" />
	<circle cx="198.13" cy="1041.53" r="1" fill="rgb(0,0,0)" />
	<circle cx="198.612" cy="426.086" r="1" fill="rgb(0,0,0)" />
	<circle cx="198.692" cy="1043.77" r="1" fill="rgb(0,0,0)" />
	<circle cx="199.064" cy="1003.54" r="1" fill="rgb(0,0,0)" />
	<circle cx="200.945" cy="664.127" r="1" fill="rgb(0,0,0)" />
	<circle cx="206.22" cy="200.885" r="1" fill="rgb(0,0,0)" />
	<circle cx="206.475" cy="203.382" r="1" fill="rgb(0,0,0)" />
	<circle cx="209.467" cy="792.622" r="1" fill="rgb(0,0,0)" />
	<circle cx="212.286" cy="308.188" r="1" fill="rgb(0,0,0)" />
	<circle cx="214.23" cy="409.273" r="1" fill="rgb(0,0,0)" />
	<circle cx="214.595" cy="534.865" r="1" fill="rgb(0,0,0)" />
	<circle cx="219.188" cy="688.063" r="1" fill="rgb(0,0,0)" />
	<circle cx="224.912" cy="393.731" r="1" fill="rgb(0,0,0)" />
	<circle cx="225.186" cy="207.831" r="1" fill="rgb(0,0,0)" />
	<circle cx="228.004" cy="723.939" r="1" fill="rgb(0,0,0)" />
	<circle cx="228.219" cy="370.494" r="1" fill="rgb(0,0,0)" />
	<circle cx="228.657" cy="693.402" r="1" fill="rgb(0,0,0)" />
	<circle cx="228.697" cy="635.374" r="1" fill="rgb(0,0,0)" />
	<circle cx="234.491" cy="187.623" r="1" fill="rgb(0,0,0)" />
	<circle cx="238.836" cy="640.274" r="1" fill="rgb(0,0,0)" />
	<circle cx="239.653" cy="1012.95" r="1" fill="rgb(0,0,0)" />
	<circle cx="242.16" cy="352.627" r="1" fill="rgb(0,0,0)" />
	<circle cx="243.378" cy="592.666" r="1" fill="rgb(0,0,0)" />
	<circle cx="244.62" cy="121.819" r="1" fill="rgb(0,0,0)" />
	<circle cx="247.599" cy="1055.13" r="1" fill="rgb(0,0,0)" />
	<circle cx="252.316" cy="389.179" r="1" fill="rgb(0,0,0)" />
	<circle cx="260.597" cy="949.405" r="1" fill="rgb(0,0,0)" />
	<circle cx="261.785" cy="603.016" r="1" fill="rgb(0,0,0)" />
	<circle cx="262.97" cy="284.175" r="1" fill="rgb(0,0,0)" />
	<circle cx="263.539" cy="600.194" r="1" fill="rgb(0,0,0)" />
	<circle cx="263.616" cy="926.804" r="1" fill="rgb(0,0,0)" />
	<circle cx="263.713" cy="606.544" r="1" fill="rgb(0,0,0)" />
	<circle cx="263.897" cy="920.394" r="1" fill="rgb(0,0,0)" />
	<circle cx="267.824" cy="395.753" r="1" fill="rgb(0,0,0)" />
	<circle cx="269.507" cy="156.089" r="1" fill="rgb(0,0,0)" />
	<circle cx="270.003" cy="508.616" r="1" fill="rgb(0,0,0)" />
	<circle cx="275.191" cy="635.21" r="1" fill="rgb(0,0,0)" />
	<circle cx="275.79" cy="154" r="1" fill="rgb(0,0,0)" />
	<circle cx="276.453" cy="953.565" r="1" fill="rgb(0,0,0)" />
	<circle cx="278.752" cy="892.18" r="1" fill="rgb(0,0,0)" />
	<circle cx="279.546" cy="297.102" r="1" fill="rgb(0,0,0)" />
	<circle cx="279.991" cy="302.234" r="1" fill="rgb(0,0,0)" />
	<circle cx="282.344" cy="304.209" r="1" fill="rgb(0,0,0)" />
	<circle cx="283.057" cy="294.742" r="1" fill="rgb(0,0,0)" />
	<circle cx="283.352" cy="293.554" r="1" fill="rgb(0,0,0)" />
	<circle cx="284.105" cy="294.595" r="1" fill="rgb(0,0,0)" />
	<circle cx="285.333" cy="301.651" r="1" fill="rgb(0,0,0)" />
	<circle cx="285.403" cy="719.089" r="1" fill="rgb(0,0,0)" />
	<circle cx="287.02" cy="734.433" r="1" fill="rgb(0,0,0)" />
	<circle cx="287.187" cy="720.676" r="1" fill="rgb(0,0,0)" />
	<circle cx="287.485" cy="148.557" r="1" fill="rgb(0,0,0)" />
	<circle cx="289.112" cy="295.027" r="1" fill="rgb(0,0,0)" />
	<circle cx="289.239" cy="298.08" r="1" fill="rgb(0,0,0)" />
	<circle cx="292.309" cy="471.913" r="1" fill="rgb(0,0,0)" />
	<circle cx="292.998" cy="300.908" r="1" fill="rgb(0,0,0)" />
	<circle cx="295.837" cy="451.512" r="1" fill="rgb(0,0,0)" />
	<circle cx="296.014" cy="742.821" r="1" fill="rgb(0,0,0)" />
	<circle cx="296.111" cy="617.272" r="1" fill="rgb(0,0,0)" />
	<circle cx="296.751" cy="287.981" r="1" fill="rgb(0,0,0)" />
	<circle cx="297.708" cy="1050.12" r="1" fill="rgb(0,0,0)" />
	<circle cx="298.565" cy="888.622" r="1" fill="rgb(0,0,0)" />
	<circle cx="299.967" cy="811.946" r="1" fill="rgb(0,0,0)" />
	<circle cx="300.088" cy="343.736" r="1" fill="rgb(0,0,0)" />
	<circle cx="300.975" cy="811.989" r="1" fill="rgb(0,0,0)" />
	<circle cx="308.858" cy="1068.51" r="1" fill="rgb(0,0,0)" />
	<circle cx="310.615" cy="646.276" r="1" fill="rgb(0,0,0)" />
	<circle cx="311.592" cy="611.886" r="1" fill="rgb(0,0,0)" />
	<circle cx="311.703" cy="506.216" r="1" fill="rgb(0,0,0)" />
	<circle cx="312.238" cy="552.911" r="1" fill="rgb(0,0,0)" />
	<circle cx="313.263" cy="327.884" r="1" fill="rgb(0,0,0)" />
	<circle cx="316.824" cy="702.811" r="1" fill="rgb(0,0,0)" />
	<circle cx="317.497" cy="648.997" r="1" fill="rgb(0,0,0)" />
	<circle cx="317.591" cy="337.768" r="1" fill="rgb(0,0,0)" />
	<circle cx="318.879" cy="211.596" r="1" fill="rgb(0,0,0)" />
	<circle cx="319.408" cy="702.51" r="1" fill="rgb(0,0,0)" />
	<circle cx="320.57" cy="211.262" r="1" fill="rgb(0,0,0)" />
	<circle cx="321.41" cy="971.038" r="1" fill="rgb(0,0,0)" />
	<circle cx="322.16" cy="703.096" r="1" fill="rgb(0,0,0)" />
	<circle cx="322.417" cy="242.344" r="1" fill="rgb(0,0,0)" />
	<circle cx="325.055" cy="86.7331" r="1" fill="rgb(0,0,0)" />
	<circle cx="326.478" cy="522.902" r="1" fill="rgb(0,0,0)" />
	<circle cx="327.87" cy="755.394" r="1" fill="rgb(0,0,0)" />
	<circle cx="329.654" cy="523.348" r="1" fill="rgb(0,0,0)" />
	<circle cx="330.033" cy="495.15" r="1" fill="rgb(0,0,0)" />
	<circle cx="330.658" cy="576.412" r="1" fill="rgb(0,0,0)" />
	<circle cx="332.466" cy="695.093" r="1" fill="rgb(0,0,0)" />
	<circle cx="332.63" cy="381.949" r="1" fill="rgb(0,0,0)" />
	<circle cx="333.547" cy="384.392" r="1" fill="rgb(0,0,0)" />
	<circle cx="333.765" cy="848.695" r="1" fill="rgb(0,0,0)" />
	<circle cx="335.291" cy="160.145" r="1" fill="rgb(0,0,0)" />
	<circle cx="336.115" cy="286.773" r="1" fill="rgb(0,0,0)" />
	<circle cx="338.608" cy="394.665" r="1" fill="rgb(0,0,0)" />
	<circle cx="341.273" cy="660.137" r="1" fill="rgb(0,0,0)" />
	<circle cx="341.463" cy="396.195" r="1" fill="rgb(0,0,0)" />
	<circle cx="341.671" cy="390.417" r="1" fill="rgb(0,0,0)" />
	<circle cx="342.528" cy="660.191" r="1" fill="rgb(0,0,0)" />
	<circle cx="343.847" cy="393.249" r="1" fill="rgb(0,0,0)" />
	<circle cx="343.914" cy="1039.4" r="1" fill="rgb(0,0,0)" />
	<circle cx="344.426" cy="388.911" r="1" fill="rgb(0,0,0)" />
	<circle cx="344.834" cy="787.618" r="1" fill="rgb(0,0,0)" />
	<circle cx="346.347" cy="303.054" r="1" fill="rgb(0,0,0)" />
	<circle cx="347.8" cy="446.883" r="1" fill="rgb(0,0,0)" />
	<circle cx="348.684" cy="571.016" r="1" fill="rgb(0,0,0)" />
	<circle cx="350.173" cy="991.289" r="1" fill="rgb(0,0,0)" />
	<circle cx="351.629" cy="784.826" r="1" fill="rgb(0,0,0)" />
	<circle cx="352.59" cy="792.431" r="1" fill="rgb(0,0,0)" />
	<circle cx="353.326" cy="549.014" r="1" fill="rgb(0,0,0)" />
	<circle cx="353.688" cy="721.573" r="1" fill="rgb(0,0,0)" />
	<circle cx="354.508" cy="491.137" r="1" fill="rgb(0,0,0)" />
	<circle cx="355.157" cy="780.655" r="1" fill="rgb(0,0,0)" />
	<circle cx="356.339" cy="777.419" r="1" fill="rgb(0,0,0)" />
	<circle cx="356.409" cy="491.364" r="1" fill="rgb(0,0,0)" />
	<circle cx="356.426" cy="786.51" r="1" fill="rgb(0,0,0)" />
	<circle cx="356.69" cy="792.414" r="1" fill="rgb(0,0,0)" />
	<circle cx="359.492" cy="777.753" r="1" fill="rgb(0,0,0)" />
	<circle cx="359.887" cy="778.58" r="1" fill="rgb(0,0,0)" />
	<circle cx="360.098" cy="566.089" r="1" fill="rgb(0,0,0)" />
	<circle cx="360.717" cy="759.558" r="1" fill="rgb(0,0,0)" />
	<circle cx="363.395" cy="776.987" r="1" fill="rgb(0,0,0)" />
	<circle cx="364.446" cy="756.338" r="1" fill="rgb(0,0,0)" />
	<circle cx="364.924" cy="300.717" r="1" fill="rgb(0,0,0)" />
	<circle cx="369.36" cy="141.069" r="1" fill="rgb(0,0,0)" />
	<circle cx="371.047" cy="933.191" r="1" fill="rgb(0,0,0)" />
	<circle cx="371.375" cy="746.319" r="1" fill="rgb(0,0,0)" />
	<circle cx="372.242" cy="745.255" r="1" fill="rgb(0,0,0)" />
	<circle cx="374.508" cy="838.295" r="1" fill="rgb(0,0,0)" />
	<circle cx="375.13" cy="735.196" r="1" fill="rgb(0,0,0)" />
	<circle cx="375.247" cy="132.654" r="1" fill="rgb(0,0,0)" />
	<circle cx="377.032" cy="1072.97" r="1" fill="rgb(0,0,0)" />
	<circle cx="384.268" cy="886.71" r="1" fill="rgb(0,0,0)" />
	<circle cx="385.775" cy="379.181" r="1" fill="rgb(0,0,0)" />
	<circle cx="386.022" cy="460.626" r="1" fill="rgb(0,0,0)" />
	<circle cx="386.578" cy="609.389" r="1" fill="rgb(0,0,0)" />
	<circle cx="387.669" cy="874.262" r="1" fill="rgb(0,0,0)" />
	<circle cx="390.611" cy="418.628" r="1" fill="rgb(0,0,0)" />
	<circle cx="392.088" cy="703.317" r="1" fill="rgb(0,0,0)" />
	<circle cx="393.985" cy="415.636" r="1" fill="rgb(0,0,0)" />
	<circle cx="394.086" cy="414.063" r="1" fill="rgb(0,0,0)" />
	<circle cx="394.29" cy="883.373" r="1" fill="rgb(0,0,0)" />
	<circle cx="395.01" cy="883.895" r="1" fill="rgb(0,0,0)" />
	<circle cx="401.098" cy="506.464" r="1" fill="rgb(0,0,0)" />
	<circle cx="403.545" cy="805.67" r="1" fill="rgb(0,0,0)" />
	<circle cx="403.957" cy="606.745" r="1" fill="rgb(0,0,0)" />
	<circle cx="405.945" cy="834.918" r="1" fill="rgb(0,0,0)" />
	<circle cx="410.149" cy="777.988" r="1" fill="rgb(0,0,0)" />
	<circle cx="410.33" cy="1018.79" r="1" fill="rgb(0,0,0)" />
	<circle cx="410.564" cy="1018.12" r="1" fill="rgb(0,0,0)" />
	<circle cx="410.963" cy="692.385" r="1" fill="rgb(0,0,0)" />
	<circle cx="411.549" cy="986.66" r="1" fill="rgb(0,0,0)" />
	<circle cx="411.743" cy="1019.4" r="1" fill="rgb(0,0,0)" />
	<circle cx="412.479" cy="900.986" r="1" fill="rgb(0,0,0)" />
	<circle cx="414.856" cy="264.021" r="1" fill="rgb(0,0,0)" />
	<circle cx="417.349" cy="745.633" r="1" fill="rgb(0,0,0)" />
	<circle cx="417.985" cy="786.818" r="1" fill="rgb(0,0,0)" />
	<circle cx="418.504" cy="801.288" r="1" fill="rgb(0,0,0)" />
	<circle cx="419.843" cy="1081.71" r="1" fill="rgb(0,0,0)" />
	<circle cx="420" cy="325.835" r="1" fill="rgb(0,0,0)" />
	<circle cx="420.817" cy="235.616" r="1" fill="rgb(0,0,0)" />
	<circle cx="423.281" cy="379.217" r="1" fill="rgb(0,0,0)" />
	<circle cx="424.024" cy="1081.26" r="1" fill="rgb(0,0,0)" />
	<circle cx="424.683" cy="213.086" r="1" fill="rgb(0,0,0)" />
	<circle cx="426.056" cy="754.316" r="1" fill="rgb(0,0,0)" />
	<circle cx="426.635" cy="247.529" r="1" fill="rgb(0,0,0)" />
	<circle cx="428.466" cy="664.873" r="1" fill="rgb(0,0,0)" />
	<circle cx="428.774" cy="1090.63" r="1" fill="rgb(0,0,0)" />
	<circle cx="428.807" cy="376.874" r="1" fill="rgb(0,0,0)" />
	<circle cx="429.329" cy="602.899" r="1" fill="rgb(0,0,0)" />
	<circle cx="430.082" cy="692.418" r="1" fill="rgb(0,0,0)" />
	<circle cx="430.133" cy="684.515" r="1" fill="rgb(0,0,0)" />
	<circle cx="430.21" cy="692.371" r="1" fill="rgb(0,0,0)" />
	<circle cx="430.333" cy="376.817" r="1" fill="rgb(0,0,0)" />
	<circle cx="430.568" cy="1089.06" r="1" fill="rgb(0,0,0)" />
	<circle cx="431.515" cy="347.064" r="1" fill="rgb(0,0,0)" />
	<circle cx="433.503" cy="354.863" r="1" fill="rgb(0,0,0)" />
	<circle cx="434.076" cy="780.17" r="1" fill="rgb(0,0,0)" />
	<circle cx="434.772" cy="440.265" r="1" fill="rgb(0,0,0)" />
	<circle cx="435.046" cy="726.865" r="1" fill="rgb(0,0,0)" />
	<circle cx="436.546" cy="781.094" r="1" fill="rgb(0,0,0)" />
	<circle cx="438.39" cy="736.796" r="1" fill="rgb(0,0,0)" />
	<circle cx="438.862" cy="211.513" r="1" fill="rgb(0,0,0)" />
	<circle cx="439.545" cy="725.208" r="1" fill="rgb(0,0,0)" />
	<circle cx="442.919" cy="1042.65" r="1" fill="rgb(0,0,0)" />
	<circle cx="443.003" cy="891.216" r="1" fill="rgb(0,0,0)" />
	<circle cx="445.189" cy="804.327" r="1" fill="rgb(0,0,0)" />
	<circle cx="447.468" cy="928.086" r="1" fill="rgb(0,0,0)" />
	<circle cx="447.702" cy="930.068" r="1" fill="rgb(0,0,0)" />
	<circle cx="449.316" cy="866.212" r="1" fill="rgb(0,0,0)" />
	<circle cx="452.238" cy="194.435" r="1" fill="rgb(0,0,0)" />
	<circle cx="455.046" cy="309.373" r="1" fill="rgb(0,0,0)" />
	<circle cx="455.756" cy="1038.13" r="1" fill="rgb(0,0,0)" />
	<circle cx="455.759" cy="619.304" r="1" fill="rgb(0,0,0)" />
	<circle cx="456.412" cy="1080.46" r="1" fill="rgb(0,0,0)" />
	<circle cx="456.65" cy="851.842" r="1" fill="rgb(0,0,0)" />
	<circle cx="457.788" cy="801.151" r="1" fill="rgb(0,0,0)" />
	<circle cx="458.179" cy="511.568" r="1" fill="rgb(0,0,0)" />
	<circle cx="458.702" cy="660.877" r="1" fill="rgb(0,0,0)" />
	<circle cx="458.835" cy="856.638" r="1" fill="rgb(0,0,0)" />
	<circle cx="459.947" cy="334.307" r="1" fill="rgb(0,0,0)" />
	<circle cx="460.399" cy="801.984" r="1" fill="rgb(0,0,0)" />
	<circle cx="460.968" cy="569.657" r="1" fill="rgb(0,0,0)" />
	<circle cx="461.286" cy="334.967" r="1" fill="rgb(0,0,0)" />
	<circle cx="461.701" cy="423.006" r="1" fill="rgb(0,0,0)" />
	<circle cx="461.868" cy="799.547" r="1" fill="rgb(0,0,0)" />
	<circle cx="463.254" cy="927.169" r="1" fill="rgb(0,0,0)" />
	<circle cx="463.257" cy="426.304" r="1" fill="rgb(0,0,0)" />
	<circle cx="465.637" cy="769.472" r="1" fill="rgb(0,0,0)" />
	<circle cx="466.29" cy="624.432" r="1" fill="rgb(0,0,0)" />
	<circle cx="470.33" cy="998.258" r="1" fill="rgb(0,0,0)" />
	<circle cx="472.646" cy="544.352" r="1" fill="rgb(0,0,0)" />
	<circle cx="473.707" cy="137.21" r="1" fill="rgb(0,0,0)" />
	<circle cx="477.075" cy="91.9682" r="1" fill="rgb(0,0,0)" />
	<circle cx="478.34" cy="294.036" r="1" fill="rgb(0,0,0)" />
	<circle cx="480.968" cy="473.985" r="1" fill="rgb(0,0,0)" />
	<circle cx="481.808" cy="205.344" r="1" fill="rgb(0,0,0)" />
	<circle cx="487.659" cy="366.217" r="1" fill="rgb(0,0,0)" />
	<circle cx="487.706" cy="424.985" r="1" fill="rgb(0,0,0)" />
	<circle cx="488.05" cy="446.889" r="1" fill="rgb(0,0,0)" />
	<circle cx="489.386" cy="219.593" r="1" fill="rgb(0,0,0)" />
	<circle cx="493.209" cy="1077.12" r="1" fill="rgb(0,0,0)" />
	<circle cx="494.199" cy="663.903" r="1" fill="rgb(0,0,0)" />
	<circle cx="494.317" cy="441.925" r="1" fill="rgb(0,0,0)" />
	<circle cx="494.427" cy="658.872" r="1" fill="rgb(0,0,0)" />
	<circle cx="500.05" cy="169.494" r="1" fill="rgb(0,0,0)" />
	<circle cx="501.634" cy="166.264" r="1" fill="rgb(0,0,0)" />
	<circle cx="501.908" cy="567.98" r="1" fill="rgb(0,0,0)" />
	<circle cx="502.092" cy="164.932" r="1" fill="rgb(0,0,0)" />
	<circle cx="502.37" cy="870.215" r="1" fill="rgb(0,0,0)" />
	<circle cx="506.119" cy="347.348" r="1" fill="rgb(0,0,0)" />
	<circle cx="506.698" cy="960.32" r="1" fill="rgb(0,0,0)" />
	<circle cx="508.71" cy="456.503" r="1" fill="rgb(0,0,0)" />
	<circle cx="508.864" cy="399.465" r="1" fill="rgb(0,0,0)" />
	<circle cx="509.634" cy="734.543" r="1" fill="rgb(0,0,0)" />
	<circle cx="510.708" cy="970.188" r="1" fill="rgb(0,0,0)" />
	<circle cx="512.107" cy="961.361" r="1" fill="rgb(0,0,0)" />
	<circle cx="512.238" cy="976.789" r="1" fill="rgb(0,0,0)" />
	<circle cx="513.449" cy="1003.73" r="1" fill="rgb(0,0,0)" />
	<circle cx="513.547" cy="975.527" r="1" fill="rgb(0,0,0)" />
	<circle cx="514.146" cy="451.19" r="1" fill="rgb(0,0,0)" />
	<circle cx="514.403" cy="419.78" r="1" fill="rgb(0,0,0)" />
	<circle cx="516.937" cy="966.77" r="1" fill="rgb(0,0,0)" />
	<circle cx="519.886" cy="603.669" r="1" fill="rgb(0,0,0)" />
	<circle cx="520.221" cy="268.296" r="1" fill="rgb(0,0,0)" />
	<circle cx="521.014" cy="606.397" r="1" fill="rgb(0,0,0)" />
	<circle cx="521.419" cy="352.279" r="1" fill="rgb(0,0,0)" />
	<circle cx="521.677" cy="256.326" r="1" fill="rgb(0,0,0)" />
	<circle cx="521.952" cy="868.468" r="1" fill="rgb(0,0,0)" />
	<circle cx="522.149" cy="1039.37" r="1" fill="rgb(0,0,0)" />
	<circle cx="522.571" cy="534.082" r="1" fill="rgb(0,0,0)" />
	<circle cx="522.835" cy="137.186" r="1" fill="rgb(0,0,0)" />
	<circle cx="523.99" cy="433.062" r="1" fill="rgb(0,0,0)" />
	<circle cx="524.546" cy="896.414" r="1" fill="rgb(0,0,0)" />
	<circle cx="524.961" cy="762.081" r="1" fill="rgb(0,0,0)" />
	<circle cx="525.058" cy="957.006" r="1" fill="rgb(0,0,0)" />
	<circle cx="527.006" cy="500.107" r="1" fill="rgb(0,0,0)" />
	<circle cx="527.662" cy="944.039" r="1" fill="rgb(0,0,0)" />
	<circle cx="527.689" cy="604.927" r="1" fill="rgb(0,0,0)" />
	<circle cx="527.926" cy="547.652" r="1" fill="rgb(0,0,0)" />
	<circle cx="528.137" cy="1023.51" r="1" fill="rgb(0,0,0)" />
	<circle cx="529.406" cy="390.381" r="1" fill="rgb(0,0,0)" />
	<circle cx="530.106" cy="322.491" r="1" fill="rgb(0,0,0)" />
	<circle cx="530.236" cy="61.0562" r="1" fill="rgb(0,0,0)" />
	<circle cx="531.695" cy="659.3" r="1" fill="rgb(0,0,0)" />
	<circle cx="532.044" cy="780.381" r="1" fill="rgb(0,0,0)" />
	<circle cx="532.234" cy="780.438" r="1" fill="rgb(0,0,0)" />
	<circle cx="533.476" cy="442.759" r="1" fill="rgb(0,0,0)" />
	<circle cx="536.72" cy="514.859" r="1" fill="rgb(0,0,0)" />
	<circle cx="539.732" cy="578.437" r="1" fill="rgb(0,0,0)" />
	<circle cx="541.392" cy="864.561" r="1" fill="rgb(0,0,0)" />
	<circle cx="541.908" cy="428.275" r="1" fill="rgb(0,0,0)" />
	<circle cx="542.36" cy="605.881" r="1" fill="rgb(0,0,0)" />
	<circle cx="542.587" cy="610.313" r="1" fill="rgb(0,0,0)" />
	<circle cx="543.719" cy="607.227" r="1" fill="rgb(0,0,0)" />
	<circle cx="543.9" cy="628.174" r="1" fill="rgb(0,0,0)" />
	<circle cx="544.653" cy="884.27" r="1" fill="rgb(0,0,0)" />
	<circle cx="547.056" cy="617.412" r="1" fill="rgb(0,0,0)" />
	<circle cx="547.156" cy="378.575" r="1" fill="rgb(0,0,0)" />
	<circle cx="549.978" cy="429.587" r="1" fill="rgb(0,0,0)" />
	<circle cx="550.055" cy="357.547" r="1" fill="rgb(0,0,0)" />
	<circle cx="550.571" cy="609.483" r="1" fill="rgb(0,0,0)" />
	<circle cx="551.14" cy="512.871" r="1" fill="rgb(0,0,0)" />
	<circle cx="551.762" cy="602.126" r="1" fill="rgb(0,0,0)" />
	<circle cx="552.087" cy="469.296" r="1" fill="rgb(0,0,0)" />
	<circle cx="553.282" cy="870.714" r="1" fill="rgb(0,0,0)" />
	<circle cx="555.25" cy="451.545" r="1" fill="rgb(0,0,0)" />
	<circle cx="557.697" cy="447.836" r="1" fill="rgb(0,0,0)" />
	<circle cx="558.688" cy="597.65" r="1" fill="rgb(0,0,0)" />
	<circle cx="563.347" cy="444.375" r="1" fill="rgb(0,0,0)" />
	<circle cx="563.364" cy="443.773" r="1" fill="rgb(0,0,0)" />
	<circle cx="566.089" cy="533.506" r="1" fill="rgb(0,0,0)" />
	<circle cx="570.296" cy="546.102" r="1" fill="rgb(0,0,0)" />
	<circle cx="570.614" cy="729.238" r="1" fill="rgb(0,0,0)" />
	<circle cx="570.952" cy="886.744" r="1" fill="rgb(0,0,0)" />
	<circle cx="571.146" cy="545.476" r="1" fill="rgb(0,0,0)" />
	<circle cx="571.354" cy="133.173" r="1" fill="rgb(0,0,0)" />
	<circle cx="571.869" cy="887.012" r="1" fill="rgb(0,0,0)" />
	<circle cx="573.339" cy="731.277" r="1" fill="rgb(0,0,0)" />
	<circle cx="573.643" cy="734.543" r="1" fill="rgb(0,0,0)" />
	<circle cx="574.417" cy="209.749" r="1" fill="rgb(0,0,0)" />
	<circle cx="574.698" cy="522.514" r="1" fill="rgb(0,0,0)" />
	<circle cx="574.925" cy="618.286" r="1" fill="rgb(0,0,0)" />
	<circle cx="575.762" cy="940.116" r="1" fill="rgb(0,0,0)" />
	<circle cx="575.899" cy="484.854" r="1" fill="rgb(0,0,0)" />
	<circle cx="576.174" cy="618.286" r="1" fill="rgb(0,0,0)" />
	<circle cx="578.658" cy="1029.31" r="1" fill="rgb(0,0,0)" />
	<circle cx="578.735" cy="208.256" r="1" fill="rgb(0,0,0)" />
	<circle cx="580.087" cy="604.144" r="1" fill="rgb(0,0,0)" />
	<circle cx="581.121" cy="74.8469" r="1" fill="rgb(0,0,0)" />
	<circle cx="583.2" cy="980.99" r="1" fill="rgb(0,0,0)" />
	<circle cx="583.243" cy="212.594" r="1" fill="rgb(0,0,0)" />
	<circle cx="586.403" cy="682.674" r="1" fill="rgb(0,0,0)" />
	<circle cx="588.964" cy="518.156" r="1" fill="rgb(0,0,0)" />
	<circle cx="589.088" cy="592.157" r="1" fill="rgb(0,0,0)" />
	<circle cx="589.791" cy="978.764" r="1" fill="rgb(0,0,0)" />
	<circle cx="590.169" cy="167.121" r="1" fill="rgb(0,0,0)" />
	<circle cx="590.467" cy="730.215" r="1" fill="rgb(0,0,0)" />
	<circle cx="590.627" cy="980.923" r="1" fill="rgb(0,0,0)" />
	<circle cx="590.771" cy="979.49" r="1" fill="rgb(0,0,0)" />
	<circle cx="591.217" cy="977.164" r="1" fill="rgb(0,0,0)" />
	<circle cx="591.27" cy="504.951" r="1" fill="rgb(0,0,0)" />
	<circle cx="592.114" cy="420.945" r="1" fill="rgb(0,0,0)" />
	<circle cx="592.361" cy="860.973" r="1" fill="rgb(0,0,0)" />
	<circle cx="601.001" cy="722.999" r="1" fill="rgb(0,0,0)" />
	<circle cx="601.275" cy="1043.68" r="1" fill="rgb(0,0,0)" />
	<circle cx="601.275" cy="928.357" r="1" fill="rgb(0,0,0)" />
	<circle cx="608.14" cy="122.907" r="1" fill="rgb(0,0,0)" />
	<circle cx="608.184" cy="640.472" r="1" fill="rgb(0,0,0)" />
	<circle cx="608.873" cy="976.638" r="1" fill="rgb(0,0,0)" />
	<circle cx="610.748" cy="508.633" r="1" fill="rgb(0,0,0)" />
	<circle cx="611.27" cy="984.153" r="1" fill="rgb(0,0,0)" />
	<circle cx="611.883" cy="696.421" r="1" fill="rgb(0,0,0)" />
	<circle cx="612.237" cy="446.521" r="1" fill="rgb(0,0,0)" />
	<circle cx="614.413" cy="425.979" r="1" fill="rgb(0,0,0)" />
	<circle cx="614.581" cy="988.936" r="1" fill="rgb(0,0,0)" />
	<circle cx="615.27" cy="983.701" r="1" fill="rgb(0,0,0)" />
	<circle cx="621.586" cy="899.249" r="1" fill="rgb(0,0,0)" />
	<circle cx="622.259" cy="149.002" r="1" fill="rgb(0,0,0)" />
	<circle cx="625.084" cy="403.234" r="1" fill="rgb(0,0,0)" />
	<circle cx="626.032" cy="926.483" r="1" fill="rgb(0,0,0)" />
	<circle cx="631.411" cy="678.604" r="1" fill="rgb(0,0,0)" />
	<circle cx="632.82" cy="718.644" r="1" fill="rgb(0,0,0)" />
	<circle cx="634.985" cy="673.821" r="1" fill="rgb(0,0,0)" />
	<circle cx="635.337" cy="203.208" r="1" fill="rgb(0,0,0)" />
	<circle cx="635.464" cy="902.235" r="1" fill="rgb(0,0,0)" />
	<circle cx="635.96" cy="676.944" r="1" fill="rgb(0,0,0)" />
	<circle cx="636.703" cy="563.856" r="1" fill="rgb(0,0,0)" />
	<circle cx="642.189" cy="148.721" r="1" fill="rgb(0,0,0)" />
	<circle cx="645.874" cy="680.1" r="1" fill="rgb(0,0,0)" />
	<circle cx="646.654" cy="511.217" r="1" fill="rgb(0,0,0)" />
	<circle cx="649.235" cy="980.651" r="1" fill="rgb(0,0,0)" />
	<circle cx="651.287" cy="783.477" r="1" fill="rgb(0,0,0)" />
	<circle cx="651.99" cy="824.12" r="1" fill="rgb(0,0,0)" />
	<circle cx="652.388" cy="727.678" r="1" fill="rgb(0,0,0)" />
	<circle cx="652.964" cy="262.666" r="1" fill="rgb(0,0,0)" />
	<circle cx="653.439" cy="487.595" r="1" fill="rgb(0,0,0)" />
	<circle cx="654.239" cy="51.9349" r="1" fill="rgb(0,0,0)" />
	<circle cx="656.572" cy="832.555" r="1" fill="rgb(0,0,0)" />
	<circle cx="656.726" cy="952.739" r="1" fill="rgb(0,0,0)" />
	<circle cx="658.001" cy="500.395" r="1" fill="rgb(0,0,0)" />
	<circle cx="658.544" cy="755.953" r="1" fill="rgb(0,0,0)" />
	<circle cx="661.051" cy="82.9909" r="1" fill="rgb(0,0,0)" />
	<circle cx="663.216" cy="633.871" r="1" fill="rgb(0,0,0)" />
	<circle cx="663.267" cy="543.712" r="1" fill="rgb(0,0,0)" />
	<circle cx="665.335" cy="626.828" r="1" fill="rgb(0,0,0)" />
	<circle cx="665.821" cy="543.12" r="1" fill="rgb(0,0,0)" />
	<circle cx="667.641" cy="543.953" r="1" fill="rgb(0,0,0)" />
	<circle cx="673.492" cy="502.876" r="1" fill="rgb(0,0,0)" />
	<circle cx="674.664" cy="817.198" r="1" fill="rgb(0,0,0)" />
	<circle cx="676.154" cy="354.002" r="1" fill="rgb(0,0,0)" />
	<circle cx="676.826" cy="345.219" r="1" fill="rgb(0,0,0)" />
	<circle cx="676.833" cy="981.823" r="1" fill="rgb(0,0,0)" />
	<circle cx="677.221" cy="741.713" r="1" fill="rgb(0,0,0)" />
	<circle cx="678.145" cy="354.776" r="1" fill="rgb(0,0,0)" />
	<circle cx="678.296" cy="348.172" r="1" fill="rgb(0,0,0)" />
	<circle cx="678.343" cy="355.08" r="1" fill="rgb(0,0,0)" />
	<circle cx="678.373" cy="625.838" r="1" fill="rgb(0,0,0)" />
	<circle cx="680.344" cy="734.185" r="1" fill="rgb(0,0,0)" />
	<circle cx="681.6" cy="357.708" r="1" fill="rgb(0,0,0)" />
	<circle cx="683.079" cy="391.375" r="1" fill="rgb(0,0,0)" />
	<circle cx="683.253" cy="798.011" r="1" fill="rgb(0,0,0)" />
	<circle cx="684.164" cy="897.93" r="1" fill="rgb(0,0,0)" />
	<circle cx="685.67" cy="901.957" r="1" fill="rgb(0,0,0)" />
	<circle cx="686.175" cy="699.795" r="1" fill="rgb(0,0,0)" />
	<circle cx="688.093" cy="950.757" r="1" fill="rgb(0,0,0)" />
	<circle cx="689.663" cy="316.48" r="1" fill="rgb(0,0,0)" />
	<circle cx="689.861" cy="485.821" r="1" fill="rgb(0,0,0)" />
	<circle cx="691.655" cy="411.716" r="1" fill="rgb(0,0,0)" />
	<circle cx="692.073" cy="760.702" r="1" fill="rgb(0,0,0)" />
	<circle cx="692.073" cy="314.893" r="1" fill="rgb(0,0,0)" />
	<circle cx="695.708" cy="520.673" r="1" fill="rgb(0,0,0)" />
	<circle cx="695.802" cy="910.212" r="1" fill="rgb(0,0,0)" />
	<circle cx="696.692" cy="474.092" r="1" fill="rgb(0,0,0)" />
	<circle cx="699.986" cy="562.112" r="1" fill="rgb(0,0,0)" />
	<circle cx="700.194" cy="433.52" r="1" fill="rgb(0,0,0)" />
	<circle cx="700.515" cy="914.068" r="1" fill="rgb(0,0,0)" />
	<circle cx="702.523" cy="476.097" r="1" fill="rgb(0,0,0)" />
	<circle cx="702.841" cy="539.163" r="1" fill="rgb(0,0,0)" />
	<circle cx="702.989" cy="371.13" r="1" fill="rgb(0,0,0)" />
	<circle cx="703.698" cy="278.746" r="1" fill="rgb(0,0,0)" />
	<circle cx="703.758" cy="479.167" r="1" fill="rgb(0,0,0)" />
	<circle cx="704.244" cy="479.251" r="1" fill="rgb(0,0,0)" />
	<circle cx="705.292" cy="661.024" r="1" fill="rgb(0,0,0)" />
	<circle cx="705.379" cy="431.455" r="1" fill="rgb(0,0,0)" />
	<circle cx="705.385" cy="480.519" r="1" fill="rgb(0,0,0)" />
	<circle cx="706.195" cy="354.163" r="1" fill="rgb(0,0,0)" />
	<circle cx="707.501" cy="910.422" r="1" fill="rgb(0,0,0)" />
	<circle cx="711.675" cy="444.506" r="1" fill="rgb(0,0,0)" />
	<circle cx="713.479" cy="894.834" r="1" fill="rgb(0,0,0)" />
	<circle cx="715.986" cy="741.251" r="1" fill="rgb(0,0,0)" />
	<circle cx="716.95" cy="1037.89" r="1" fill="rgb(0,0,0)" />
	<circle cx="717.626" cy="669.058" r="1" fill="rgb(0,0,0)" />
	<circle cx="718.296" cy="296.657" r="1" fill="rgb(0,0,0)" />
	<circle cx="718.393" cy="812.063" r="1" fill="rgb(0,0,0)" />
	<circle cx="719.477" cy="293.705" r="1" fill="rgb(0,0,0)" />
	<circle cx="720.609" cy="809.663" r="1" fill="rgb(0,0,0)" />
	<circle cx="721.335" cy="751.621" r="1" fill="rgb(0,0,0)" />
	<circle cx="723.343" cy="419.405" r="1" fill="rgb(0,0,0)" />
	<circle cx="724.666" cy="117.17" r="1" fill="rgb(0,0,0)" />
	<circle cx="729.432" cy="931.5" r="1" fill="rgb(0,0,0)" />
	<circle cx="732.478" cy="702.564" r="1" fill="rgb(0,0,0)" />
	<circle cx="734.021" cy="556.834" r="1" fill="rgb(0,0,0)" />
	<circle cx="736.716" cy="925.422" r="1" fill="rgb(0,0,0)" />
	<circle cx="738.506" cy="920.765" r="1" fill="rgb(0,0,0)" />
	<circle cx="738.798" cy="863.992" r="1" fill="rgb(0,0,0)" />
	<circle cx="739.337" cy="720.298" r="1" fill="rgb(0,0,0)" />
	<circle cx="739.551" cy="501.798" r="1" fill="rgb(0,0,0)" />
	<circle cx="739.785" cy="243.151" r="1" fill="rgb(0,0,0)" />
	<circle cx="740.622" cy="102.937" r="1" fill="rgb(0,0,0)" />
	<circle cx="744.404" cy="913.957" r="1" fill="rgb(0,0,0)" />
	<circle cx="744.742" cy="276.774" r="1" fill="rgb(0,0,0)" />
	<circle cx="744.803" cy="270.746" r="1" fill="rgb(0,0,0)" />
	<circle cx="749.609" cy="75.2888" r="1" fill="rgb(0,0,0)" />
	<circle cx="749.874" cy="843.594" r="1" fill="rgb(0,0,0)" />
	<circle cx="752.893" cy="660.221" r="1" fill="rgb(0,0,0)" />
	<circle cx="753.251" cy="866.59" r="1" fill="rgb(0,0,0)" />
	<circle cx="754.51" cy="401.145" r="1" fill="rgb(0,0,0)" />
	<circle cx="755.681" cy="398.826" r="1" fill="rgb(0,0,0)" />
	<circle cx="758.178" cy="686.55" r="1" fill="rgb(0,0,0)" />
	<circle cx="759.065" cy="127.593" r="1" fill="rgb(0,0,0)" />
	<circle cx="759.102" cy="418.18" r="1" fill="rgb(0,0,0)" />
	<circle cx="760.133" cy="452.586" r="1" fill="rgb(0,0,0)" />
	<circle cx="760.776" cy="686.848" r="1" fill="rgb(0,0,0)" />
	<circle cx="761.248" cy="709.482" r="1" fill="rgb(0,0,0)" />
	<circle cx="761.442" cy="457.021" r="1" fill="rgb(0,0,0)" />
	<circle cx="761.469" cy="756.17" r="1" fill="rgb(0,0,0)" />
	<circle cx="761.904" cy="756.893" r="1" fill="rgb(0,0,0)" />
	<circle cx="762.945" cy="292.416" r="1" fill="rgb(0,0,0)" />
	<circle cx="763.243" cy="455.595" r="1" fill="rgb(0,0,0)" />
	<circle cx="764.622" cy="688.883" r="1" fill="rgb(0,0,0)" />
	<circle cx="764.809" cy="841.037" r="1" fill="rgb(0,0,0)" />
	<circle cx="765.666" cy="469.714" r="1" fill="rgb(0,0,0)" />
	<circle cx="766.058" cy="465.791" r="1" fill="rgb(0,0,0)" />
	<circle cx="767.527" cy="463.867" r="1" fill="rgb(0,0,0)" />
	<circle cx="768.833" cy="424.101" r="1" fill="rgb(0,0,0)" />
	<circle cx="770.198" cy="763.912" r="1" fill="rgb(0,0,0)" />
	<circle cx="770.396" cy="557.044" r="1" fill="rgb(0,0,0)" />
	<circle cx="770.677" cy="421.865" r="1" fill="rgb(0,0,0)" />
	<circle cx="770.871" cy="463.063" r="1" fill="rgb(0,0,0)" />
	<circle cx="771.815" cy="770.895" r="1" fill="rgb(0,0,0)" />
	<circle cx="771.986" cy="67.5566" r="1" fill="rgb(0,0,0)" />
	<circle cx="772.662" cy="464.041" r="1" fill="rgb(0,0,0)" />
	<circle cx="776.331" cy="859.889" r="1" fill="rgb(0,0,0)" />
	<circle cx="776.669" cy="468.991" r="1" fill="rgb(0,0,0)" />
	<circle cx="776.779" cy="628.947" r="1" fill="rgb(0,0,0)" />
	<circle cx="777.609" cy="464.871" r="1" fill="rgb(0,0,0)" />
	<circle cx="778.403" cy="516.194" r="1" fill="rgb(0,0,0)" />
	<circle cx="778.814" cy="467.652" r="1" fill="rgb(0,0,0)" />
	<circle cx="779.206" cy="516.345" r="1" fill="rgb(0,0,0)" />
	<circle cx="779.28" cy="515.659" r="1" fill="rgb(0,0,0)" />
	<circle cx="779.675" cy="524.151" r="1" fill="rgb(0,0,0)" />
	<circle cx="782.376" cy="776.585" r="1" fill="rgb(0,0,0)" />
	<circle cx="782.533" cy="475.19" r="1" fill="rgb(0,0,0)" />
	<circle cx="785.917" cy="277.494" r="1" fill="rgb(0,0,0)" />
	<circle cx="786.014" cy="898.586" r="1" fill="rgb(0,0,0)" />
	<circle cx="786.366" cy="478.176" r="1" fill="rgb(0,0,0)" />
	<circle cx="787.249" cy="365.644" r="1" fill="rgb(0,0,0)" />
	<circle cx="787.872" cy="120.33" r="1" fill="rgb(0,0,0)" />
	<circle cx="792.528" cy="987.155" r="1" fill="rgb(0,0,0)" />
	<circle cx="792.89" cy="556.737" r="1" fill="rgb(0,0,0)" />
	<circle cx="793.214" cy="556.773" r="1" fill="rgb(0,0,0)" />
	<circle cx="796.585" cy="406.458" r="1" fill="rgb(0,0,0)" />
	<circle cx="797.02" cy="863.306" r="1" fill="rgb(0,0,0)" />
	<circle cx="797.348" cy="622.882" r="1" fill="rgb(0,0,0)" />
	<circle cx="797.609" cy="679.073" r="1" fill="rgb(0,0,0)" />
	<circle cx="813.987" cy="350.776" r="1" fill="rgb(0,0,0)" />
	<circle cx="815.216" cy="1000.39" r="1" fill="rgb(0,0,0)" />
	<circle cx="818.751" cy="665.921" r="1" fill="rgb(0,0,0)" />
	<circle cx="820.163" cy="754.982" r="1" fill="rgb(0,0,0)" />
	<circle cx="821.479" cy="518.775" r="1" fill="rgb(0,0,0)" />
	<circle cx="831.835" cy="365.3" r="1" fill="rgb(0,0,0)" />
	<circle cx="832.183" cy="1031.13" r="1" fill="rgb(0,0,0)" />
	<circle cx="832.561" cy="104.648" r="1" fill="rgb(0,0,0)" />
	<circle cx="834.422" cy="909.873" r="1" fill="rgb(0,0,0)" />
	<circle cx="835.942" cy="679.183" r="1" fill="rgb(0,0,0)" />
	<circle cx="840.126" cy="699.216" r="1" fill="rgb(0,0,0)" />
	<circle cx="840.13" cy="857.76" r="1" fill="rgb(0,0,0)" />
	<circle cx="843.373" cy="676.254" r="1" fill="rgb(0,0,0)" />
	<circle cx="843.447" cy="873.951" r="1" fill="rgb(0,0,0)" />
	<circle cx="844.116" cy="601.567" r="1" fill="rgb(0,0,0)" />
	<circle cx="846.242" cy="1034.48" r="1" fill="rgb(0,0,0)" />
	<circle cx="846.734" cy="111.299" r="1" fill="rgb(0,0,0)" />
	<circle cx="847.015" cy="873.455" r="1" fill="rgb(0,0,0)" />
	<circle cx="850.985" cy="194.284" r="1" fill="rgb(0,0,0)" />
	<circle cx="853.833" cy="738.276" r="1" fill="rgb(0,0,0)" />
	<circle cx="853.984" cy="591.16" r="1" fill="rgb(0,0,0)" />
	<circle cx="860.605" cy="380.048" r="1" fill="rgb(0,0,0)" />
	<circle cx="865.02" cy="356.021" r="1" fill="rgb(0,0,0)" />
	<circle cx="865.964" cy="549.393" r="1" fill="rgb(0,0,0)" />
	<circle cx="866.305" cy="554.678" r="1" fill="rgb(0,0,0)" />
	<circle cx="866.797" cy="804.398" r="1" fill="rgb(0,0,0)" />
	<circle cx="867.567" cy="200.858" r="1" fill="rgb(0,0,0)" />
	<circle cx="871.132" cy="724.676" r="1" fill="rgb(0,0,0)" />
	<circle cx="873.214" cy="709.837" r="1" fill="rgb(0,0,0)" />
	<circle cx="875.858" cy="899.149" r="1" fill="rgb(0,0,0)" />
	<circle cx="877.006" cy="636.368" r="1" fill="rgb(0,0,0)" />
	<circle cx="878.914" cy="402.166" r="1" fill="rgb(0,0,0)" />
	<circle cx="879.393" cy="959.513" r="1" fill="rgb(0,0,0)" />
	<circle cx="881.033" cy="497.082" r="1" fill="rgb(0,0,0)" />
	<circle cx="886.794" cy="689.466" r="1" fill="rgb(0,0,0)" />
	<circle cx="889.488" cy="803.872" r="1" fill="rgb(0,0,0)" />
	<circle cx="890.181" cy="569.128" r="1" fill="rgb(0,0,0)" />
	<circle cx="890.466" cy="601.881" r="1" fill="rgb(0,0,0)" />
	<circle cx="895.895" cy="881.023" r="1" fill="rgb(0,0,0)" />
	<circle cx="896.009" cy="411.937" r="1" fill="rgb(0,0,0)" />
	<circle cx="897.462" cy="410.404" r="1" fill="rgb(0,0,0)" />
	<circle cx="901.07" cy="889.04" r="1" fill="rgb(0,0,0)" />
	<circle cx="901.672" cy="631.012" r="1" fill="rgb(0,0,0)" />
	<circle cx="903.634" cy="1059.06" r="1" fill="rgb(0,0,0)" />
	<circle cx="907.005" cy="645.429" r="1" fill="rgb(0,0,0)" />
	<circle cx="909.609" cy="658.085" r="1" fill="rgb(0,0,0)" />
	<circle cx="909.833" cy="463.395" r="1" fill="rgb(0,0,0)" />
	<circle cx="910.546" cy="361.035" r="1" fill="rgb(0,0,0)" />
	<circle cx="911.313" cy="272.902" r="1" fill="rgb(0,0,0)" />
	<circle cx="911.413" cy="795.665" r="1" fill="rgb(0,0,0)" />
	<circle cx="912.628" cy="129.592" r="1" fill="rgb(0,0,0)" />
	<circle cx="912.906" cy="634.865" r="1" fill="rgb(0,0,0)" />
	<circle cx="913.438" cy="72.1792" r="1" fill="rgb(0,0,0)" />
	<circle cx="917.602" cy="784.147" r="1" fill="rgb(0,0,0)" />
	<circle cx="918.693" cy="203.519" r="1" fill="rgb(0,0,0)" />
	<circle cx="919.179" cy="688.418" r="1" fill="rgb(0,0,0)" />
	<circle cx="920.206" cy="834.864" r="1" fill="rgb(0,0,0)" />
	<circle cx="920.26" cy="915.708" r="1" fill="rgb(0,0,0)" />
	<circle cx="922.041" cy="919.433" r="1" fill="rgb(0,0,0)" />
	<circle cx="929.271" cy="317.541" r="1" fill="rgb(0,0,0)" />
	<circle cx="932.812" cy="64.1625" r="1" fill="rgb(0,0,0)" />
	<circle cx="933.046" cy="240.011" r="1" fill="rgb(0,0,0)" />
	<circle cx="933.056" cy="250.933" r="1" fill="rgb(0,0,0)" />
	<circle cx="934.556" cy="298.682" r="1" fill="rgb(0,0,0)" />
	<circle cx="934.77" cy="518.655" r="1" fill="rgb(0,0,0)" />
	<circle cx="937.428" cy="513.43" r="1" fill="rgb(0,0,0)" />
	<circle cx="938.094" cy="458.477" r="1" fill="rgb(0,0,0)" />
	<circle cx="941.314" cy="762.868" r="1" fill="rgb(0,0,0)" />
	<circle cx="942.395" cy="651.528" r="1" fill="rgb(0,0,0)" />
	<circle cx="945.244" cy="81.7055" r="1" fill="rgb(0,0,0)" />
	<circle cx="947.125" cy="876.578" r="1" fill="rgb(0,0,0)" />
	<circle cx="948.738" cy="339" r="1" fill="rgb(0,0,0)" />
	<circle cx="950.101" cy="867.832" r="1" fill="rgb(0,0,0)" />
	<circle cx="952.896" cy="564.09" r="1" fill="rgb(0,0,0)" />
	<circle cx="954.248" cy="368.309" r="1" fill="rgb(0,0,0)" />
	<circle cx="954.666" cy="808.485" r="1" fill="rgb(0,0,0)" />
	<circle cx="955.125" cy="660.974" r="1" fill="rgb(0,0,0)" />
	<circle cx="955.373" cy="807.996" r="1" fill="rgb(0,0,0)" />
	<circle cx="956.139" cy="884.384" r="1" fill="rgb(0,0,0)" />
	<circle cx="956.936" cy="995.222" r="1" fill="rgb(0,0,0)" />
	<circle cx="959.235" cy="802.855" r="1" fill="rgb(0,0,0)" />
	<circle cx="959.51" cy="122.341" r="1" fill="rgb(0,0,0)" />
	<circle cx="962.492" cy="842.091" r="1" fill="rgb(0,0,0)" />
	<circle cx="962.958" cy="844.628" r="1" fill="rgb(0,0,0)" />
	<circle cx="969.786" cy="761.275" r="1" fill="rgb(0,0,0)" />
	<circle cx="970.174" cy="749.616" r="1" fill="rgb(0,0,0)" />
	<circle cx="973.866" cy="761.911" r="1" fill="rgb(0,0,0)" />
	<circle cx="975.306" cy="455.883" r="1" fill="rgb(0,0,0)" />
	<circle cx="975.423" cy="121.133" r="1" fill="rgb(0,0,0)" />
	<circle cx="979.751" cy="482.092" r="1" fill="rgb(0,0,0)" />
	<circle cx="980.772" cy="754.841" r="1" fill="rgb(0,0,0)" />
	<circle cx="982.188" cy="843.403" r="1" fill="rgb(0,0,0)" />
	<circle cx="984.303" cy="741.305" r="1" fill="rgb(0,0,0)" />
	<circle cx="996.685" cy="116.788" r="1" fill="rgb(0,0,0)" />
	<circle cx="997.09" cy="977.81" r="1" fill="rgb(0,0,0)" />
	<circle cx="999.47" cy="554.932" r="1" fill="rgb(0,0,0)" />
	<circle cx="1010.76" cy="310.987" r="1" fill="rgb(0,0,0)" />
	<circle cx="1012.19" cy="421.47" r="1" fill="rgb(0,0,0)" />
	<circle cx="1017.22" cy="327.733" r="1" fill="rgb(0,0,0)" />
	<circle cx="1018.7" cy="431.763" r="1" fill="rgb(0,0,0)" />
	<circle cx="1021.77" cy="777.666" r="1" fill="rgb(0,0,0)" />
	<circle cx="1021.9" cy="716.833" r="1" fill="rgb(0,0,0)" />
	<circle cx="1022.96" cy="631.069" r="1" fill="rgb(0,0,0)" />
	<circle cx="1023.43" cy="714.965" r="1" fill="rgb(0,0,0)" />
	<circle cx="1024.21" cy="612.489" r="1" fill="rgb(0,0,0)" />
	<circle cx="1027.42" cy="715.019" r="1" fill="rgb(0,0,0)" />
	<circle cx="1027.86" cy="715.166" r="1" fill="rgb(0,0,0)" />
	<circle cx="1027.99" cy="145.26" r="1" fill="rgb(0,0,0)" />
	<circle cx="1030.66" cy="146.78" r="1" fill="rgb(0,0,0)" />
	<circle cx="1032.95" cy="235.981" r="1" fill="rgb(0,0,0)" />
	<circle cx="1033.57" cy="288.808" r="1" fill="rgb(0,0,0)" />
	<circle cx="1033.97" cy="109.856" r="1" fill="rgb(0,0,0)" />
	<circle cx="1041.45" cy="461.339" r="1" fill="rgb(0,0,0)" />
	<circle cx="1047.47" cy="864.28" r="1" fill="rgb(0,0,0)" />
	<circle cx="1047.88" cy="428.034" r="1" fill="rgb(0,0,0)" />
	<circle cx="1049.86" cy="716.947" r="1" fill="rgb(0,0,0)" />
	<circle cx="1050" cy="521.245" r="1" fill="rgb(0,0,0)" />
</svg>
