<?xml version="1.0" standalone="no" ?>
<!DOCTYPE svg PUBLIC "-//W3C//DTD SVG 1.1//EN" "http://www.w3.org/Graphics/SVG/1.1/DTD/svg11.dtd">
<svg width="1100px" height="1054.88px" xmlns="http://www.w3.org/2000/svg" version="1.1" >
	<circle cx="50" cy="267.71" r="1" fill="rgb(0,0,0)" />
	<circle cx="99.6076" cy="204.007" r="1" fill="rgb(0,0,0)" />
	<circle cx="130.393" cy="674.388" r="1" fill="rgb(0,0,0)" />
	<circle cx="161.763" cy="857.898" r="1" fill="rgb(0,0,0)" />
	<circle cx="189.151" cy="775.84" r="1" fill="rgb(0,0,0)" />
	<circle cx="194.258" cy="190.667" r="1" fill="rgb(0,0,0)" />
	<circle cx="265.852" cy="93.8105" r="1" fill="rgb(0,0,0)" />
	<circle cx="270.183" cy="69.2622" r="1" fill="rgb(0,0,0)" />
	<circle cx="301.209" cy="750.638" r="1" fill="rgb(0,0,0)" />
	<circle cx="340.38" cy="343.541" r="1" fill="rgb(0,0,0)" />
	<circle cx="345.774" cy="624.019" r="1" fill="rgb(0,0,0)" />
	<circle cx="352.055" cy="741.566" r="1" fill="rgb(0,0,0)" />
	<circle cx="383.673" cy="515.484" r="1" fill="rgb(0,0,0)" />
	<circle cx="398.888" cy="239.723" r="1" fill="rgb(0,0,0)" />
	<circle cx="442.624" cy="831.498" r="1" fill="rgb(0,0,0)" />
	<circle cx="464.083" cy="719.728" r="1" fill="rgb(0,0,0)" />
	<circle cx="495.856" cy="476.069" r="1" fill="rgb(0,0,0)" />
	<circle cx="511.91" cy="47.9491" r="1" fill="rgb(0,0,0)" />
	<circle cx="517.254" cy="889.888" r="1" fill="rgb(0,0,0)" />
	<circle cx="538.167" cy="547.778" r="1" fill="rgb(0,0,0)" />
	<circle cx="538.174" cy="378.485" r="1" fill="rgb(0,0,0)" />
	<circle cx="540.025" cy="374.492" r="1" fill="rgb(0,0,0)" />
	<circle cx="542.161" cy="376.207" r="1" fill="rgb(0,0,0)" />
	<circle cx="551.653" cy="821.782" r="1" fill="rgb(0,0,0)" />
	<circle cx="659.84" cy="227.388" r="1" fill="rgb(0,0,0)" />
	<circle cx="682.354" cy="556.384" r="1" fill="rgb(0,0,0)" />
	<circle cx="683.816" cy="370.349" r="1" fill="rgb(0,0,0)" />
	<circle cx="692.327" cy="854.412" r="1" fill="rgb(0,0,0)" />
	<circle cx="724.141" cy="364.546" r="1" fill="rgb(0,0,0)" />
	<circle cx="735.718" cy="75.7563" r="1" fill="rgb(0,0,0)" />
	<circle cx="740.202" cy="864.459" r="1" fill="rgb(0,0,0)" />
	<circle cx="754.557" cy="397.037" r="1" fill="rgb(0,0,0)" />
	<circle cx="766.656" cy="507.135" r="1" fill="rgb(0,0,0)" />
	<circle cx="770.439" cy="504.834" r="1" fill="rgb(0,0,0)" />
	<circle cx="770.855" cy="369.49" r="1" fill="rgb(0,0,0)" />
	<circle cx="771.569" cy="406.231" r="1" fill="rgb(0,0,0)" />
	<circle cx="774.111" cy="380.898" r="1" fill="rgb(0,0,0)" />
	<circle cx="800.53" cy="80.3553" r="1" fill="rgb(0,0,0)" />
	<circle cx="864.412" cy="411.967" r="1" fill="rgb(0,0,0)" />
	<circle cx="876.054" cy="148.795" r="1" fill="rgb(0,0,0)" />
	<circle cx="888.605" cy="834.825" r="1" fill="rgb(0,0,0)" />
	<circle cx="890.981" cy="560.235" r="1" fill="rgb(0,0,0)" />
	<circle cx="901.079" cy="766.54" r="1" fill="rgb(0,0,0)" />
	<circle cx="903.84" cy="843.61" r="1" fill="rgb(0,0,0)" />
	<circle cx="909.671" cy="1006.93" r="1" fill="rgb(0,0,0)" />
	<circle cx="913.928" cy="489.507" r="1" fill="rgb(0,0,0)" />
	<circle cx="917.634" cy="469.439" r="1" fill="rgb(0,0,0)" />
	<circle cx="1002.1" cy="502.411" r="1" fill="rgb(0,0,0)" />
	<circle cx="1029.66" cy="86.9881" r="1" fill="rgb(0,0,0)" />
	<circle cx="1050" cy="99.5668" r="1" fill="rgb(0,0,0)" />
</svg>
