<?xml version="1.0" standalone="no" ?>
<!DOCTYPE svg PUBLIC "-//W3C//DTD SVG 1.1//EN" "http://www.w3.org/Graphics/SVG/1.1/DTD/svg11.dtd">
<svg width="1100px" height="1135.91px" xmlns="http://www.w3.org/2000/svg" version="1.1" >
	<circle cx="50" cy="823.499" r="1" fill="rgb(0,0,0)" />
	<circle cx="52.8132" cy="702.413" r="1" fill="rgb(0,0,0)" />
	<circle cx="60.3953" cy="594.475" r="1" fill="rgb(0,0,0)" />
	<circle cx="60.412" cy="428.51" r="1" fill="rgb(0,0,0)" />
	<circle cx="60.996" cy="612.906" r="1" fill="rgb(0,0,0)" />
	<circle cx="63.609" cy="619.514" r="1" fill="rgb(0,0,0)" />
	<circle cx="71.7084" cy="937.671" r="1" fill="rgb(0,0,0)" />
	<circle cx="71.8953" cy="248.86" r="1" fill="rgb(0,0,0)" />
	<circle cx="86.0482" cy="53.4812" r="1" fill="rgb(0,0,0)" />
	<circle cx="88.5778" cy="427.826" r="1" fill="rgb(0,0,0)" />
	<circle cx="96.28" cy="819.368" r="1" fill="rgb(0,0,0)" />
	<circle cx="97.1777" cy="933.036" r="1" fill="rgb(0,0,0)" />
	<circle cx="101.242" cy="831.629" r="1" fill="rgb(0,0,0)" />
	<circle cx="102.26" cy="223.891" r="1" fill="rgb(0,0,0)" />
	<circle cx="103.458" cy="166.985" r="1" fill="rgb(0,0,0)" />
	<circle cx="105.414" cy="576.017" r="1" fill="rgb(0,0,0)" />
	<circle cx="105.431" cy="689.158" r="1" fill="rgb(0,0,0)" />
	<circle cx="105.791" cy="575.433" r="1" fill="rgb(0,0,0)" />
	<circle cx="106.675" cy="710.095" r="1" fill="rgb(0,0,0)" />
	<circle cx="111.344" cy="835.243" r="1" fill="rgb(0,0,0)" />
	<circle cx="111.611" cy="297.409" r="1" fill="rgb(0,0,0)" />
	<circle cx="123.258" cy="845.822" r="1" fill="rgb(0,0,0)" />
	<circle cx="124.996" cy="412.071" r="1" fill="rgb(0,0,0)" />
	<circle cx="125.537" cy="676.023" r="1" fill="rgb(0,0,0)" />
	<circle cx="125.614" cy="409.208" r="1" fill="rgb(0,0,0)" />
	<circle cx="128.394" cy="379.951" r="1" fill="rgb(0,0,0)" />
	<circle cx="131.464" cy="691.233" r="1" fill="rgb(0,0,0)" />
	<circle cx="132.055" cy="630.874" r="1" fill="rgb(0,0,0)" />
	<circle cx="140.167" cy="721.248" r="1" fill="rgb(0,0,0)" />
	<circle cx="140.341" cy="721.622" r="1" fill="rgb(0,0,0)" />
	<circle cx="143.648" cy="672.882" r="1" fill="rgb(0,0,0)" />
	<circle cx="151.467" cy="506.774" r="1" fill="rgb(0,0,0)" />
	<circle cx="153.366" cy="603.022" r="1" fill="rgb(0,0,0)" />
	<circle cx="154.924" cy="803.213" r="1" fill="rgb(0,0,0)" />
	<circle cx="157.36" cy="501.675" r="1" fill="rgb(0,0,0)" />
	<circle cx="158.178" cy="524.668" r="1" fill="rgb(0,0,0)" />
	<circle cx="158.348" cy="566.58" r="1" fill="rgb(0,0,0)" />
	<circle cx="158.805" cy="496.492" r="1" fill="rgb(0,0,0)" />
	<circle cx="159.086" cy="319.541" r="1" fill="rgb(0,0,0)" />
	<circle cx="159.536" cy="503.891" r="1" fill="rgb(0,0,0)" />
	<circle cx="161.916" cy="661.819" r="1" fill="rgb(0,0,0)" />
	<circle cx="163.194" cy="198.285" r="1" fill="rgb(0,0,0)" />
	<circle cx="164.215" cy="1043.74" r="1" fill="rgb(0,0,0)" />
	<circle cx="165.88" cy="1015.43" r="1" fill="rgb(0,0,0)" />
	<circle cx="165.927" cy="474.63" r="1" fill="rgb(0,0,0)" />
	<circle cx="166.007" cy="337.222" r="1" fill="rgb(0,0,0)" />
	<circle cx="166.561" cy="505.86" r="1" fill="rgb(0,0,0)" />
	<circle cx="166.821" cy="317.199" r="1" fill="rgb(0,0,0)" />
	<circle cx="167.752" cy="171.507" r="1" fill="rgb(0,0,0)" />
	<circle cx="168.85" cy="859.257" r="1" fill="rgb(0,0,0)" />
	<circle cx="171.243" cy="439.964" r="1" fill="rgb(0,0,0)" />
	<circle cx="175.048" cy="499.299" r="1" fill="rgb(0,0,0)" />
	<circle cx="175.284" cy="121.666" r="1" fill="rgb(0,0,0)" />
	<circle cx="175.371" cy="741.308" r="1" fill="rgb(0,0,0)" />
	<circle cx="176.269" cy="641.72" r="1" fill="rgb(0,0,0)" />
	<circle cx="176.519" cy="114.281" r="1" fill="rgb(0,0,0)" />
	<circle cx="176.853" cy="124.226" r="1" fill="rgb(0,0,0)" />
	<circle cx="178.665" cy="501.371" r="1" fill="rgb(0,0,0)" />
	<circle cx="180.681" cy="360.919" r="1" fill="rgb(0,0,0)" />
	<circle cx="180.918" cy="211.387" r="1" fill="rgb(0,0,0)" />
	<circle cx="187.372" cy="987.635" r="1" fill="rgb(0,0,0)" />
	<circle cx="187.772" cy="186.414" r="1" fill="rgb(0,0,0)" />
	<circle cx="188.683" cy="1046.75" r="1" fill="rgb(0,0,0)" />
	<circle cx="189.06" cy="51.6324" r="1" fill="rgb(0,0,0)" />
	<circle cx="190.519" cy="467.212" r="1" fill="rgb(0,0,0)" />
	<circle cx="190.969" cy="385.304" r="1" fill="rgb(0,0,0)" />
	<circle cx="191.413" cy="1029.26" r="1" fill="rgb(0,0,0)" />
	<circle cx="193.702" cy="1039.94" r="1" fill="rgb(0,0,0)" />
	<circle cx="197.163" cy="317.586" r="1" fill="rgb(0,0,0)" />
	<circle cx="197.263" cy="1035.15" r="1" fill="rgb(0,0,0)" />
	<circle cx="199.569" cy="1039.05" r="1" fill="rgb(0,0,0)" />
	<circle cx="202.386" cy="273.171" r="1" fill="rgb(0,0,0)" />
	<circle cx="203.597" cy="341.58" r="1" fill="rgb(0,0,0)" />
	<circle cx="204.932" cy="618.89" r="1" fill="rgb(0,0,0)" />
	<circle cx="208.853" cy="200.574" r="1" fill="rgb(0,0,0)" />
	<circle cx="214.126" cy="745.876" r="1" fill="rgb(0,0,0)" />
	<circle cx="214.576" cy="406.598" r="1" fill="rgb(0,0,0)" />
	<circle cx="217.954" cy="945.427" r="1" fill="rgb(0,0,0)" />
	<circle cx="229.277" cy="668.771" r="1" fill="rgb(0,0,0)" />
	<circle cx="237.319" cy="423.158" r="1" fill="rgb(0,0,0)" />
	<circle cx="241.708" cy="766.881" r="1" fill="rgb(0,0,0)" />
	<circle cx="242.432" cy="783.24" r="1" fill="rgb(0,0,0)" />
	<circle cx="247.882" cy="775.984" r="1" fill="rgb(0,0,0)" />
	<circle cx="250.388" cy="545.028" r="1" fill="rgb(0,0,0)" />
	<circle cx="251.109" cy="545.625" r="1" fill="rgb(0,0,0)" />
	<circle cx="254.369" cy="391.217" r="1" fill="rgb(0,0,0)" />
	<circle cx="255.293" cy="66.7932" r="1" fill="rgb(0,0,0)" />
	<circle cx="260.606" cy="469.454" r="1" fill="rgb(0,0,0)" />
	<circle cx="264.501" cy="943.211" r="1" fill="rgb(0,0,0)" />
	<circle cx="264.504" cy="213.803" r="1" fill="rgb(0,0,0)" />
	<circle cx="266.707" cy="497.824" r="1" fill="rgb(0,0,0)" />
	<circle cx="267.037" cy="589.019" r="1" fill="rgb(0,0,0)" />
	<circle cx="271.265" cy="147.563" r="1" fill="rgb(0,0,0)" />
	<circle cx="271.899" cy="146.569" r="1" fill="rgb(0,0,0)" />
	<circle cx="272.31" cy="149.005" r="1" fill="rgb(0,0,0)" />
	<circle cx="273.618" cy="707.342" r="1" fill="rgb(0,0,0)" />
	<circle cx="275.75" cy="428.06" r="1" fill="rgb(0,0,0)" />
	<circle cx="276.888" cy="818.173" r="1" fill="rgb(0,0,0)" />
	<circle cx="281.617" cy="297.463" r="1" fill="rgb(0,0,0)" />
	<circle cx="283.529" cy="158.312" r="1" fill="rgb(0,0,0)" />
	<circle cx="287.36" cy="728.62" r="1" fill="rgb(0,0,0)" />
	<circle cx="288.859" cy="729.631" r="1" fill="rgb(0,0,0)" />
	<circle cx="289.603" cy="520.65" r="1" fill="rgb(0,0,0)" />
	<circle cx="289.673" cy="531.419" r="1" fill="rgb(0,0,0)" />
	<circle cx="291.559" cy="731.149" r="1" fill="rgb(0,0,0)" />
	<circle cx="291.582" cy="272.694" r="1" fill="rgb(0,0,0)" />
	<circle cx="294.395" cy="290.845" r="1" fill="rgb(0,0,0)" />
	<circle cx="297.512" cy="650.68" r="1" fill="rgb(0,0,0)" />
	<circle cx="304.5" cy="88.4215" r="1" fill="rgb(0,0,0)" />
	<circle cx="306.045" cy="598.189" r="1" fill="rgb(0,0,0)" />
	<circle cx="307" cy="679.32" r="1" fill="rgb(0,0,0)" />
	<circle cx="309.91" cy="959.977" r="1" fill="rgb(0,0,0)" />
	<circle cx="313.437" cy="379.163" r="1" fill="rgb(0,0,0)" />
	<circle cx="316.354" cy="603.879" r="1" fill="rgb(0,0,0)" />
	<circle cx="316.387" cy="637.371" r="1" fill="rgb(0,0,0)" />
	<circle cx="318.216" cy="333.174" r="1" fill="rgb(0,0,0)" />
	<circle cx="318.36" cy="428.731" r="1" fill="rgb(0,0,0)" />
	<circle cx="320.028" cy="694.954" r="1" fill="rgb(0,0,0)" />
	<circle cx="320.666" cy="692.054" r="1" fill="rgb(0,0,0)" />
	<circle cx="322.581" cy="415.929" r="1" fill="rgb(0,0,0)" />
	<circle cx="326.759" cy="560.963" r="1" fill="rgb(0,0,0)" />
	<circle cx="329.082" cy="323.733" r="1" fill="rgb(0,0,0)" />
	<circle cx="330.944" cy="939.169" r="1" fill="rgb(0,0,0)" />
	<circle cx="332.756" cy="746.701" r="1" fill="rgb(0,0,0)" />
	<circle cx="333.787" cy="968.587" r="1" fill="rgb(0,0,0)" />
	<circle cx="334.989" cy="387.396" r="1" fill="rgb(0,0,0)" />
	<circle cx="337.028" cy="843.552" r="1" fill="rgb(0,0,0)" />
	<circle cx="338.433" cy="385.481" r="1" fill="rgb(0,0,0)" />
	<circle cx="339.17" cy="128.214" r="1" fill="rgb(0,0,0)" />
	<circle cx="341.503" cy="680.942" r="1" fill="rgb(0,0,0)" />
	<circle cx="342.961" cy="174.287" r="1" fill="rgb(0,0,0)" />
	<circle cx="343.051" cy="171.427" r="1" fill="rgb(0,0,0)" />
	<circle cx="347.129" cy="387.536" r="1" fill="rgb(0,0,0)" />
	<circle cx="349.088" cy="773.685" r="1" fill="rgb(0,0,0)" />
	<circle cx="351.648" cy="782.862" r="1" fill="rgb(0,0,0)" />
	<circle cx="352.783" cy="187.603" r="1" fill="rgb(0,0,0)" />
	<circle cx="353.497" cy="783.096" r="1" fill="rgb(0,0,0)" />
	<circle cx="356.987" cy="782.045" r="1" fill="rgb(0,0,0)" />
	<circle cx="359.34" cy="781.815" r="1" fill="rgb(0,0,0)" />
	<circle cx="362.337" cy="899.33" r="1" fill="rgb(0,0,0)" />
	<circle cx="364.359" cy="642.41" r="1" fill="rgb(0,0,0)" />
	<circle cx="364.6" cy="1050.18" r="1" fill="rgb(0,0,0)" />
	<circle cx="364.77" cy="643.185" r="1" fill="rgb(0,0,0)" />
	<circle cx="369.008" cy="978.939" r="1" fill="rgb(0,0,0)" />
	<circle cx="373.126" cy="509.948" r="1" fill="rgb(0,0,0)" />
	<circle cx="373.984" cy="1084.28" r="1" fill="rgb(0,0,0)" />
	<circle cx="386.101" cy="876.3" r="1" fill="rgb(0,0,0)" />
	<circle cx="388.153" cy="776.408" r="1" fill="rgb(0,0,0)" />
	<circle cx="388.377" cy="604.126" r="1" fill="rgb(0,0,0)" />
	<circle cx="388.517" cy="374.118" r="1" fill="rgb(0,0,0)" />
	<circle cx="390.973" cy="704.759" r="1" fill="rgb(0,0,0)" />
	<circle cx="393.469" cy="1039.29" r="1" fill="rgb(0,0,0)" />
	<circle cx="393.79" cy="444.269" r="1" fill="rgb(0,0,0)" />
	<circle cx="394.537" cy="491.627" r="1" fill="rgb(0,0,0)" />
	<circle cx="397.464" cy="448.15" r="1" fill="rgb(0,0,0)" />
	<circle cx="399.62" cy="615.423" r="1" fill="rgb(0,0,0)" />
	<circle cx="404.299" cy="519.856" r="1" fill="rgb(0,0,0)" />
	<circle cx="406.154" cy="363.205" r="1" fill="rgb(0,0,0)" />
	<circle cx="407.115" cy="540.229" r="1" fill="rgb(0,0,0)" />
	<circle cx="408.53" cy="851.011" r="1" fill="rgb(0,0,0)" />
	<circle cx="411.04" cy="693.473" r="1" fill="rgb(0,0,0)" />
	<circle cx="412.638" cy="257.119" r="1" fill="rgb(0,0,0)" />
	<circle cx="419.666" cy="780.39" r="1" fill="rgb(0,0,0)" />
	<circle cx="425.697" cy="437.694" r="1" fill="rgb(0,0,0)" />
	<circle cx="427.038" cy="370.674" r="1" fill="rgb(0,0,0)" />
	<circle cx="427.792" cy="367.447" r="1" fill="rgb(0,0,0)" />
	<circle cx="427.876" cy="242.536" r="1" fill="rgb(0,0,0)" />
	<circle cx="429.741" cy="547.424" r="1" fill="rgb(0,0,0)" />
	<circle cx="429.768" cy="82.6114" r="1" fill="rgb(0,0,0)" />
	<circle cx="429.901" cy="94.7788" r="1" fill="rgb(0,0,0)" />
	<circle cx="432.197" cy="999.419" r="1" fill="rgb(0,0,0)" />
	<circle cx="434.38" cy="71.9391" r="1" fill="rgb(0,0,0)" />
	<circle cx="436.639" cy="1004.12" r="1" fill="rgb(0,0,0)" />
	<circle cx="438.658" cy="482.936" r="1" fill="rgb(0,0,0)" />
	<circle cx="438.879" cy="108.344" r="1" fill="rgb(0,0,0)" />
	<circle cx="439.509" cy="328.168" r="1" fill="rgb(0,0,0)" />
	<circle cx="440.05" cy="207.265" r="1" fill="rgb(0,0,0)" />
	<circle cx="440.247" cy="107.173" r="1" fill="rgb(0,0,0)" />
	<circle cx="444.398" cy="822.088" r="1" fill="rgb(0,0,0)" />
	<circle cx="446.758" cy="920.568" r="1" fill="rgb(0,0,0)" />
	<circle cx="447.448" cy="800.786" r="1" fill="rgb(0,0,0)" />
	<circle cx="448.53" cy="52.7737" r="1" fill="rgb(0,0,0)" />
	<circle cx="452.257" cy="340.425" r="1" fill="rgb(0,0,0)" />
	<circle cx="460.817" cy="820.019" r="1" fill="rgb(0,0,0)" />
	<circle cx="461.111" cy="329.199" r="1" fill="rgb(0,0,0)" />
	<circle cx="461.458" cy="793.014" r="1" fill="rgb(0,0,0)" />
	<circle cx="461.655" cy="668.551" r="1" fill="rgb(0,0,0)" />
	<circle cx="462.422" cy="580.509" r="1" fill="rgb(0,0,0)" />
	<circle cx="465.843" cy="551.382" r="1" fill="rgb(0,0,0)" />
	<circle cx="470.044" cy="278.027" r="1" fill="rgb(0,0,0)" />
	<circle cx="471.636" cy="205.547" r="1" fill="rgb(0,0,0)" />
	<circle cx="473.228" cy="540.376" r="1" fill="rgb(0,0,0)" />
	<circle cx="473.365" cy="889.305" r="1" fill="rgb(0,0,0)" />
	<circle cx="478.004" cy="462.323" r="1" fill="rgb(0,0,0)" />
	<circle cx="478.895" cy="884.85" r="1" fill="rgb(0,0,0)" />
	<circle cx="481" cy="634.805" r="1" fill="rgb(0,0,0)" />
	<circle cx="481.124" cy="223.774" r="1" fill="rgb(0,0,0)" />
	<circle cx="484.805" cy="215.401" r="1" fill="rgb(0,0,0)" />
	<circle cx="487.201" cy="406.008" r="1" fill="rgb(0,0,0)" />
	<circle cx="489.557" cy="442.216" r="1" fill="rgb(0,0,0)" />
	<circle cx="492.046" cy="377.959" r="1" fill="rgb(0,0,0)" />
	<circle cx="493.001" cy="803.446" r="1" fill="rgb(0,0,0)" />
	<circle cx="495.794" cy="236.335" r="1" fill="rgb(0,0,0)" />
	<circle cx="497.106" cy="729.134" r="1" fill="rgb(0,0,0)" />
	<circle cx="497.209" cy="388.604" r="1" fill="rgb(0,0,0)" />
	<circle cx="497.716" cy="729.591" r="1" fill="rgb(0,0,0)" />
	<circle cx="502.155" cy="948.65" r="1" fill="rgb(0,0,0)" />
	<circle cx="505.839" cy="874.411" r="1" fill="rgb(0,0,0)" />
	<circle cx="506.567" cy="956.583" r="1" fill="rgb(0,0,0)" />
	<circle cx="507.828" cy="955.101" r="1" fill="rgb(0,0,0)" />
	<circle cx="509.47" cy="446.798" r="1" fill="rgb(0,0,0)" />
	<circle cx="509.794" cy="956.142" r="1" fill="rgb(0,0,0)" />
	<circle cx="512.6" cy="218.815" r="1" fill="rgb(0,0,0)" />
	<circle cx="513.358" cy="957.547" r="1" fill="rgb(0,0,0)" />
	<circle cx="513.475" cy="633.323" r="1" fill="rgb(0,0,0)" />
	<circle cx="513.711" cy="960.941" r="1" fill="rgb(0,0,0)" />
	<circle cx="514.99" cy="958.819" r="1" fill="rgb(0,0,0)" />
	<circle cx="516.865" cy="967.766" r="1" fill="rgb(0,0,0)" />
	<circle cx="517.499" cy="958.311" r="1" fill="rgb(0,0,0)" />
	<circle cx="517.85" cy="952.224" r="1" fill="rgb(0,0,0)" />
	<circle cx="519.184" cy="1042.55" r="1" fill="rgb(0,0,0)" />
	<circle cx="521.681" cy="597.809" r="1" fill="rgb(0,0,0)" />
	<circle cx="522.151" cy="208.814" r="1" fill="rgb(0,0,0)" />
	<circle cx="523.943" cy="954.701" r="1" fill="rgb(0,0,0)" />
	<circle cx="524.017" cy="347.557" r="1" fill="rgb(0,0,0)" />
	<circle cx="525.078" cy="599.521" r="1" fill="rgb(0,0,0)" />
	<circle cx="525.805" cy="756.112" r="1" fill="rgb(0,0,0)" />
	<circle cx="527.791" cy="95.0825" r="1" fill="rgb(0,0,0)" />
	<circle cx="529.313" cy="495.841" r="1" fill="rgb(0,0,0)" />
	<circle cx="532.32" cy="614.779" r="1" fill="rgb(0,0,0)" />
	<circle cx="533.895" cy="145.294" r="1" fill="rgb(0,0,0)" />
	<circle cx="535.754" cy="602.194" r="1" fill="rgb(0,0,0)" />
	<circle cx="539.428" cy="591.969" r="1" fill="rgb(0,0,0)" />
	<circle cx="539.481" cy="496.389" r="1" fill="rgb(0,0,0)" />
	<circle cx="540.516" cy="424.769" r="1" fill="rgb(0,0,0)" />
	<circle cx="541.003" cy="417.678" r="1" fill="rgb(0,0,0)" />
	<circle cx="541.654" cy="820.656" r="1" fill="rgb(0,0,0)" />
	<circle cx="544.851" cy="385.664" r="1" fill="rgb(0,0,0)" />
	<circle cx="546.399" cy="427.379" r="1" fill="rgb(0,0,0)" />
	<circle cx="548.058" cy="599.307" r="1" fill="rgb(0,0,0)" />
	<circle cx="548.371" cy="597.492" r="1" fill="rgb(0,0,0)" />
	<circle cx="550.364" cy="1055.02" r="1" fill="rgb(0,0,0)" />
	<circle cx="553.07" cy="307.584" r="1" fill="rgb(0,0,0)" />
	<circle cx="553.214" cy="435.228" r="1" fill="rgb(0,0,0)" />
	<circle cx="553.424" cy="594.228" r="1" fill="rgb(0,0,0)" />
	<circle cx="555.48" cy="869.392" r="1" fill="rgb(0,0,0)" />
	<circle cx="555.643" cy="867.11" r="1" fill="rgb(0,0,0)" />
	<circle cx="556.634" cy="868.344" r="1" fill="rgb(0,0,0)" />
	<circle cx="556.754" cy="747.638" r="1" fill="rgb(0,0,0)" />
	<circle cx="557.168" cy="376.023" r="1" fill="rgb(0,0,0)" />
	<circle cx="561.176" cy="590.694" r="1" fill="rgb(0,0,0)" />
	<circle cx="561.403" cy="588.749" r="1" fill="rgb(0,0,0)" />
	<circle cx="563.679" cy="601.91" r="1" fill="rgb(0,0,0)" />
	<circle cx="567.964" cy="725.773" r="1" fill="rgb(0,0,0)" />
	<circle cx="569.172" cy="345.655" r="1" fill="rgb(0,0,0)" />
	<circle cx="571.615" cy="728.68" r="1" fill="rgb(0,0,0)" />
	<circle cx="573.047" cy="859.794" r="1" fill="rgb(0,0,0)" />
	<circle cx="574.475" cy="209.765" r="1" fill="rgb(0,0,0)" />
	<circle cx="574.595" cy="203.988" r="1" fill="rgb(0,0,0)" />
	<circle cx="575.206" cy="915.395" r="1" fill="rgb(0,0,0)" />
	<circle cx="575.61" cy="879.25" r="1" fill="rgb(0,0,0)" />
	<circle cx="575.746" cy="1023.74" r="1" fill="rgb(0,0,0)" />
	<circle cx="576.594" cy="518.344" r="1" fill="rgb(0,0,0)" />
	<circle cx="576.738" cy="212.418" r="1" fill="rgb(0,0,0)" />
	<circle cx="577.041" cy="1024.88" r="1" fill="rgb(0,0,0)" />
	<circle cx="577.772" cy="919.039" r="1" fill="rgb(0,0,0)" />
	<circle cx="577.845" cy="927.596" r="1" fill="rgb(0,0,0)" />
	<circle cx="578.172" cy="927.699" r="1" fill="rgb(0,0,0)" />
	<circle cx="578.656" cy="914.691" r="1" fill="rgb(0,0,0)" />
	<circle cx="578.673" cy="660.621" r="1" fill="rgb(0,0,0)" />
	<circle cx="579.714" cy="63.9933" r="1" fill="rgb(0,0,0)" />
	<circle cx="581.159" cy="210.542" r="1" fill="rgb(0,0,0)" />
	<circle cx="582.494" cy="968.99" r="1" fill="rgb(0,0,0)" />
	<circle cx="583.045" cy="480.036" r="1" fill="rgb(0,0,0)" />
	<circle cx="586.168" cy="965.924" r="1" fill="rgb(0,0,0)" />
	<circle cx="587.43" cy="215.244" r="1" fill="rgb(0,0,0)" />
	<circle cx="591.591" cy="150.066" r="1" fill="rgb(0,0,0)" />
	<circle cx="592.322" cy="216.072" r="1" fill="rgb(0,0,0)" />
	<circle cx="593.343" cy="93.781" r="1" fill="rgb(0,0,0)" />
	<circle cx="593.677" cy="854.358" r="1" fill="rgb(0,0,0)" />
	<circle cx="594.905" cy="977.961" r="1" fill="rgb(0,0,0)" />
	<circle cx="597.275" cy="593" r="1" fill="rgb(0,0,0)" />
	<circle cx="599.22" cy="981.588" r="1" fill="rgb(0,0,0)" />
	<circle cx="600.685" cy="979.276" r="1" fill="rgb(0,0,0)" />
	<circle cx="605.434" cy="529.814" r="1" fill="rgb(0,0,0)" />
	<circle cx="609.789" cy="118.803" r="1" fill="rgb(0,0,0)" />
	<circle cx="610.733" cy="822.488" r="1" fill="rgb(0,0,0)" />
	<circle cx="611.735" cy="122.568" r="1" fill="rgb(0,0,0)" />
	<circle cx="612.302" cy="710.369" r="1" fill="rgb(0,0,0)" />
	<circle cx="612.999" cy="691.27" r="1" fill="rgb(0,0,0)" />
	<circle cx="614.508" cy="775.424" r="1" fill="rgb(0,0,0)" />
	<circle cx="614.851" cy="352.109" r="1" fill="rgb(0,0,0)" />
	<circle cx="618.122" cy="175.992" r="1" fill="rgb(0,0,0)" />
	<circle cx="620.935" cy="939.453" r="1" fill="rgb(0,0,0)" />
	<circle cx="623.598" cy="307.344" r="1" fill="rgb(0,0,0)" />
	<circle cx="624.99" cy="475.251" r="1" fill="rgb(0,0,0)" />
	<circle cx="627.152" cy="684.539" r="1" fill="rgb(0,0,0)" />
	<circle cx="630.176" cy="787.958" r="1" fill="rgb(0,0,0)" />
	<circle cx="630.756" cy="447.496" r="1" fill="rgb(0,0,0)" />
	<circle cx="630.92" cy="117.618" r="1" fill="rgb(0,0,0)" />
	<circle cx="632.295" cy="671.227" r="1" fill="rgb(0,0,0)" />
	<circle cx="632.365" cy="900.331" r="1" fill="rgb(0,0,0)" />
	<circle cx="638.699" cy="845.912" r="1" fill="rgb(0,0,0)" />
	<circle cx="641.135" cy="260.994" r="1" fill="rgb(0,0,0)" />
	<circle cx="641.409" cy="315.74" r="1" fill="rgb(0,0,0)" />
	<circle cx="641.983" cy="598.45" r="1" fill="rgb(0,0,0)" />
	<circle cx="643.942" cy="520.336" r="1" fill="rgb(0,0,0)" />
	<circle cx="646.728" cy="887.944" r="1" fill="rgb(0,0,0)" />
	<circle cx="649.071" cy="736.152" r="1" fill="rgb(0,0,0)" />
	<circle cx="651.457" cy="889.275" r="1" fill="rgb(0,0,0)" />
	<circle cx="651.567" cy="363.068" r="1" fill="rgb(0,0,0)" />
	<circle cx="652.251" cy="673.453" r="1" fill="rgb(0,0,0)" />
	<circle cx="653.63" cy="630.226" r="1" fill="rgb(0,0,0)" />
	<circle cx="653.763" cy="819.218" r="1" fill="rgb(0,0,0)" />
	<circle cx="657.781" cy="946.785" r="1" fill="rgb(0,0,0)" />
	<circle cx="660.681" cy="547.274" r="1" fill="rgb(0,0,0)" />
	<circle cx="661.031" cy="544.988" r="1" fill="rgb(0,0,0)" />
	<circle cx="663.878" cy="568.328" r="1" fill="rgb(0,0,0)" />
	<circle cx="668.16" cy="538.277" r="1" fill="rgb(0,0,0)" />
	<circle cx="668.517" cy="901.426" r="1" fill="rgb(0,0,0)" />
	<circle cx="668.59" cy="806.423" r="1" fill="rgb(0,0,0)" />
	<circle cx="671.333" cy="519.669" r="1" fill="rgb(0,0,0)" />
	<circle cx="672.755" cy="405.717" r="1" fill="rgb(0,0,0)" />
	<circle cx="674.657" cy="811.282" r="1" fill="rgb(0,0,0)" />
	<circle cx="677.21" cy="229.908" r="1" fill="rgb(0,0,0)" />
	<circle cx="677.664" cy="108.488" r="1" fill="rgb(0,0,0)" />
	<circle cx="678.298" cy="106.839" r="1" fill="rgb(0,0,0)" />
	<circle cx="681.462" cy="358.883" r="1" fill="rgb(0,0,0)" />
	<circle cx="683.444" cy="1007.26" r="1" fill="rgb(0,0,0)" />
	<circle cx="683.694" cy="914.371" r="1" fill="rgb(0,0,0)" />
	<circle cx="685.994" cy="839.584" r="1" fill="rgb(0,0,0)" />
	<circle cx="686.06" cy="427.132" r="1" fill="rgb(0,0,0)" />
	<circle cx="687.405" cy="341.924" r="1" fill="rgb(0,0,0)" />
	<circle cx="689.671" cy="315.253" r="1" fill="rgb(0,0,0)" />
	<circle cx="690.525" cy="896.08" r="1" fill="rgb(0,0,0)" />
	<circle cx="693.032" cy="755.254" r="1" fill="rgb(0,0,0)" />
	<circle cx="694.684" cy="894.298" r="1" fill="rgb(0,0,0)" />
	<circle cx="695.735" cy="894.802" r="1" fill="rgb(0,0,0)" />
	<circle cx="699.009" cy="905.274" r="1" fill="rgb(0,0,0)" />
	<circle cx="699.289" cy="899.277" r="1" fill="rgb(0,0,0)" />
	<circle cx="701.061" cy="478.632" r="1" fill="rgb(0,0,0)" />
	<circle cx="703.026" cy="909.472" r="1" fill="rgb(0,0,0)" />
	<circle cx="703.303" cy="492.758" r="1" fill="rgb(0,0,0)" />
	<circle cx="705.693" cy="502.366" r="1" fill="rgb(0,0,0)" />
	<circle cx="705.816" cy="471.407" r="1" fill="rgb(0,0,0)" />
	<circle cx="706.043" cy="502.022" r="1" fill="rgb(0,0,0)" />
	<circle cx="706.314" cy="473.906" r="1" fill="rgb(0,0,0)" />
	<circle cx="707.151" cy="475.301" r="1" fill="rgb(0,0,0)" />
	<circle cx="709.868" cy="543.603" r="1" fill="rgb(0,0,0)" />
	<circle cx="710.839" cy="264.294" r="1" fill="rgb(0,0,0)" />
	<circle cx="713.395" cy="670.509" r="1" fill="rgb(0,0,0)" />
	<circle cx="713.919" cy="369.696" r="1" fill="rgb(0,0,0)" />
	<circle cx="714.593" cy="887.436" r="1" fill="rgb(0,0,0)" />
	<circle cx="715.951" cy="735.705" r="1" fill="rgb(0,0,0)" />
	<circle cx="716.949" cy="693.993" r="1" fill="rgb(0,0,0)" />
	<circle cx="717.613" cy="401.299" r="1" fill="rgb(0,0,0)" />
	<circle cx="718.304" cy="400.835" r="1" fill="rgb(0,0,0)" />
	<circle cx="720.617" cy="400.061" r="1" fill="rgb(0,0,0)" />
	<circle cx="727.325" cy="82.8384" r="1" fill="rgb(0,0,0)" />
	<circle cx="727.591" cy="575.28" r="1" fill="rgb(0,0,0)" />
	<circle cx="733.064" cy="633.5" r="1" fill="rgb(0,0,0)" />
	<circle cx="733.872" cy="687.853" r="1" fill="rgb(0,0,0)" />
	<circle cx="736.445" cy="609.666" r="1" fill="rgb(0,0,0)" />
	<circle cx="738.885" cy="616.677" r="1" fill="rgb(0,0,0)" />
	<circle cx="739.772" cy="715.571" r="1" fill="rgb(0,0,0)" />
	<circle cx="741.488" cy="903.832" r="1" fill="rgb(0,0,0)" />
	<circle cx="742.252" cy="779.081" r="1" fill="rgb(0,0,0)" />
	<circle cx="749.704" cy="932.638" r="1" fill="rgb(0,0,0)" />
	<circle cx="752.397" cy="865.534" r="1" fill="rgb(0,0,0)" />
	<circle cx="754.846" cy="336.297" r="1" fill="rgb(0,0,0)" />
	<circle cx="755.454" cy="63.1356" r="1" fill="rgb(0,0,0)" />
	<circle cx="758.4" cy="1032.47" r="1" fill="rgb(0,0,0)" />
	<circle cx="765.362" cy="706.594" r="1" fill="rgb(0,0,0)" />
	<circle cx="765.916" cy="457.03" r="1" fill="rgb(0,0,0)" />
	<circle cx="766.103" cy="961.261" r="1" fill="rgb(0,0,0)" />
	<circle cx="766.613" cy="448.954" r="1" fill="rgb(0,0,0)" />
	<circle cx="766.65" cy="493.856" r="1" fill="rgb(0,0,0)" />
	<circle cx="766.69" cy="468.156" r="1" fill="rgb(0,0,0)" />
	<circle cx="768.719" cy="457.427" r="1" fill="rgb(0,0,0)" />
	<circle cx="771.602" cy="456.583" r="1" fill="rgb(0,0,0)" />
	<circle cx="772.633" cy="420.705" r="1" fill="rgb(0,0,0)" />
	<circle cx="773.771" cy="457.03" r="1" fill="rgb(0,0,0)" />
	<circle cx="776.665" cy="521.848" r="1" fill="rgb(0,0,0)" />
	<circle cx="777.272" cy="457.103" r="1" fill="rgb(0,0,0)" />
	<circle cx="781.701" cy="773.745" r="1" fill="rgb(0,0,0)" />
	<circle cx="782.308" cy="735.514" r="1" fill="rgb(0,0,0)" />
	<circle cx="782.815" cy="770.648" r="1" fill="rgb(0,0,0)" />
	<circle cx="784.007" cy="719.613" r="1" fill="rgb(0,0,0)" />
	<circle cx="786.823" cy="236.095" r="1" fill="rgb(0,0,0)" />
	<circle cx="787.664" cy="866.489" r="1" fill="rgb(0,0,0)" />
	<circle cx="789.266" cy="900.965" r="1" fill="rgb(0,0,0)" />
	<circle cx="793.708" cy="76.2775" r="1" fill="rgb(0,0,0)" />
	<circle cx="794.455" cy="399.26" r="1" fill="rgb(0,0,0)" />
	<circle cx="795.547" cy="979.706" r="1" fill="rgb(0,0,0)" />
	<circle cx="796.628" cy="56.755" r="1" fill="rgb(0,0,0)" />
	<circle cx="799.952" cy="779.979" r="1" fill="rgb(0,0,0)" />
	<circle cx="800.065" cy="621.48" r="1" fill="rgb(0,0,0)" />
	<circle cx="800.502" cy="886.635" r="1" fill="rgb(0,0,0)" />
	<circle cx="800.839" cy="886.662" r="1" fill="rgb(0,0,0)" />
	<circle cx="801.563" cy="291.743" r="1" fill="rgb(0,0,0)" />
	<circle cx="812.776" cy="760.51" r="1" fill="rgb(0,0,0)" />
	<circle cx="815.783" cy="404.035" r="1" fill="rgb(0,0,0)" />
	<circle cx="824.416" cy="515.16" r="1" fill="rgb(0,0,0)" />
	<circle cx="825.625" cy="395.849" r="1" fill="rgb(0,0,0)" />
	<circle cx="826.435" cy="648.998" r="1" fill="rgb(0,0,0)" />
	<circle cx="826.883" cy="676.697" r="1" fill="rgb(0,0,0)" />
	<circle cx="827.246" cy="518.044" r="1" fill="rgb(0,0,0)" />
	<circle cx="828.982" cy="472.875" r="1" fill="rgb(0,0,0)" />
	<circle cx="829.045" cy="814.896" r="1" fill="rgb(0,0,0)" />
	<circle cx="829.496" cy="692.208" r="1" fill="rgb(0,0,0)" />
	<circle cx="829.546" cy="952.892" r="1" fill="rgb(0,0,0)" />
	<circle cx="832.202" cy="357.742" r="1" fill="rgb(0,0,0)" />
	<circle cx="837.635" cy="636.764" r="1" fill="rgb(0,0,0)" />
	<circle cx="852.789" cy="327.013" r="1" fill="rgb(0,0,0)" />
	<circle cx="852.859" cy="792.273" r="1" fill="rgb(0,0,0)" />
	<circle cx="853.303" cy="293.308" r="1" fill="rgb(0,0,0)" />
	<circle cx="856.437" cy="867.066" r="1" fill="rgb(0,0,0)" />
	<circle cx="856.497" cy="939.994" r="1" fill="rgb(0,0,0)" />
	<circle cx="856.827" cy="291.92" r="1" fill="rgb(0,0,0)" />
	<circle cx="860.722" cy="1017.28" r="1" fill="rgb(0,0,0)" />
	<circle cx="862.27" cy="373.133" r="1" fill="rgb(0,0,0)" />
	<circle cx="870.763" cy="787.635" r="1" fill="rgb(0,0,0)" />
	<circle cx="876.857" cy="576.044" r="1" fill="rgb(0,0,0)" />
	<circle cx="882.57" cy="492.915" r="1" fill="rgb(0,0,0)" />
	<circle cx="885.157" cy="585.014" r="1" fill="rgb(0,0,0)" />
	<circle cx="895.445" cy="944.322" r="1" fill="rgb(0,0,0)" />
	<circle cx="898.852" cy="808.599" r="1" fill="rgb(0,0,0)" />
	<circle cx="902.43" cy="147.403" r="1" fill="rgb(0,0,0)" />
	<circle cx="903.368" cy="312.086" r="1" fill="rgb(0,0,0)" />
	<circle cx="905.323" cy="1015.64" r="1" fill="rgb(0,0,0)" />
	<circle cx="907.195" cy="1046.73" r="1" fill="rgb(0,0,0)" />
	<circle cx="910.242" cy="787.404" r="1" fill="rgb(0,0,0)" />
	<circle cx="912.742" cy="68.5319" r="1" fill="rgb(0,0,0)" />
	<circle cx="912.875" cy="610.12" r="1" fill="rgb(0,0,0)" />
	<circle cx="913.506" cy="480.006" r="1" fill="rgb(0,0,0)" />
	<circle cx="914.103" cy="68.8756" r="1" fill="rgb(0,0,0)" />
	<circle cx="914.918" cy="394.184" r="1" fill="rgb(0,0,0)" />
	<circle cx="918.879" cy="682.326" r="1" fill="rgb(0,0,0)" />
	<circle cx="920.591" cy="855.636" r="1" fill="rgb(0,0,0)" />
	<circle cx="920.921" cy="829.55" r="1" fill="rgb(0,0,0)" />
	<circle cx="922.253" cy="913.346" r="1" fill="rgb(0,0,0)" />
	<circle cx="922.77" cy="915.609" r="1" fill="rgb(0,0,0)" />
	<circle cx="925.823" cy="1037.18" r="1" fill="rgb(0,0,0)" />
	<circle cx="931.14" cy="635.042" r="1" fill="rgb(0,0,0)" />
	<circle cx="933.679" cy="235.544" r="1" fill="rgb(0,0,0)" />
	<circle cx="933.696" cy="510.665" r="1" fill="rgb(0,0,0)" />
	<circle cx="937.25" cy="603.699" r="1" fill="rgb(0,0,0)" />
	<circle cx="937.6" cy="1036.22" r="1" fill="rgb(0,0,0)" />
	<circle cx="937.64" cy="644.056" r="1" fill="rgb(0,0,0)" />
	<circle cx="941.605" cy="757.84" r="1" fill="rgb(0,0,0)" />
	<circle cx="944.111" cy="439.73" r="1" fill="rgb(0,0,0)" />
	<circle cx="944.705" cy="438.966" r="1" fill="rgb(0,0,0)" />
	<circle cx="955.144" cy="556.071" r="1" fill="rgb(0,0,0)" />
	<circle cx="957.333" cy="597.912" r="1" fill="rgb(0,0,0)" />
	<circle cx="959.589" cy="799.104" r="1" fill="rgb(0,0,0)" />
	<circle cx="963.674" cy="863.282" r="1" fill="rgb(0,0,0)" />
	<circle cx="972.1" cy="611.331" r="1" fill="rgb(0,0,0)" />
	<circle cx="973.518" cy="279.772" r="1" fill="rgb(0,0,0)" />
	<circle cx="973.672" cy="117.649" r="1" fill="rgb(0,0,0)" />
	<circle cx="976.392" cy="642.601" r="1" fill="rgb(0,0,0)" />
	<circle cx="978.671" cy="838.55" r="1" fill="rgb(0,0,0)" />
	<circle cx="980.71" cy="752.074" r="1" fill="rgb(0,0,0)" />
	<circle cx="983.854" cy="475.027" r="1" fill="rgb(0,0,0)" />
	<circle cx="988.352" cy="105.498" r="1" fill="rgb(0,0,0)" />
	<circle cx="988.683" cy="1028.19" r="1" fill="rgb(0,0,0)" />
	<circle cx="989.987" cy="864.039" r="1" fill="rgb(0,0,0)" />
	<circle cx="992.524" cy="1001.3" r="1" fill="rgb(0,0,0)" />
	<circle cx="992.737" cy="1045.81" r="1" fill="rgb(0,0,0)" />
	<circle cx="995.16" cy="169.435" r="1" fill="rgb(0,0,0)" />
	<circle cx="997.426" cy="548.966" r="1" fill="rgb(0,0,0)" />
	<circle cx="999.859" cy="985.199" r="1" fill="rgb(0,0,0)" />
	<circle cx="1002.36" cy="215.792" r="1" fill="rgb(0,0,0)" />
	<circle cx="1005.25" cy="552.146" r="1" fill="rgb(0,0,0)" />
	<circle cx="1005.4" cy="330.648" r="1" fill="rgb(0,0,0)" />
	<circle cx="1008.62" cy="462.146" r="1" fill="rgb(0,0,0)" />
	<circle cx="1015.33" cy="231.306" r="1" fill="rgb(0,0,0)" />
	<circle cx="1016.27" cy="568.729" r="1" fill="rgb(0,0,0)" />
	<circle cx="1016.52" cy="609.87" r="1" fill="rgb(0,0,0)" />
	<circle cx="1019.7" cy="745.082" r="1" fill="rgb(0,0,0)" />
	<circle cx="1019.86" cy="748.389" r="1" fill="rgb(0,0,0)" />
	<circle cx="1022.42" cy="314.189" r="1" fill="rgb(0,0,0)" />
	<circle cx="1023.72" cy="313.778" r="1" fill="rgb(0,0,0)" />
	<circle cx="1024.23" cy="414.558" r="1" fill="rgb(0,0,0)" />
	<circle cx="1030.02" cy="315.373" r="1" fill="rgb(0,0,0)" />
	<circle cx="1032.07" cy="892.285" r="1" fill="rgb(0,0,0)" />
	<circle cx="1032.25" cy="314.148" r="1" fill="rgb(0,0,0)" />
	<circle cx="1033.72" cy="107.327" r="1" fill="rgb(0,0,0)" />
	<circle cx="1034.37" cy="554.873" r="1" fill="rgb(0,0,0)" />
	<circle cx="1034.69" cy="596.347" r="1" fill="rgb(0,0,0)" />
	<circle cx="1035" cy="1051.88" r="1" fill="rgb(0,0,0)" />
	<circle cx="1036.08" cy="120.719" r="1" fill="rgb(0,0,0)" />
	<circle cx="1036.94" cy="676.653" r="1" fill="rgb(0,0,0)" />
	<circle cx="1038" cy="126.429" r="1" fill="rgb(0,0,0)" />
	<circle cx="1041.52" cy="720.374" r="1" fill="rgb(0,0,0)" />
	<circle cx="1041.76" cy="258.377" r="1" fill="rgb(0,0,0)" />
	<circle cx="1042.37" cy="257.543" r="1" fill="rgb(0,0,0)" />
	<circle cx="1045.37" cy="151.938" r="1" fill="rgb(0,0,0)" />
	<circle cx="1048.21" cy="623.932" r="1" fill="rgb(0,0,0)" />
	<circle cx="1048.77" cy="151.735" r="1" fill="rgb(0,0,0)" />
	<circle cx="1050" cy="149.245" r="1" fill="rgb(0,0,0)" />
</svg>
