<?xml version="1.0" standalone="no" ?>
<!DOCTYPE svg PUBLIC "-//W3C//DTD SVG 1.1//EN" "http://www.w3.org/Graphics/SVG/1.1/DTD/svg11.dtd">
<svg width="1100px" height="1085.65px" xmlns="http://www.w3.org/2000/svg" version="1.1" >
	<circle cx="50" cy="255.417" r="1" fill="rgb(0,0,0)" />
	<circle cx="57.8765" cy="424.818" r="1" fill="rgb(0,0,0)" />
	<circle cx="64.4673" cy="282.972" r="1" fill="rgb(0,0,0)" />
	<circle cx="116.437" cy="142.494" r="1" fill="rgb(0,0,0)" />
	<circle cx="158.024" cy="368.62" r="1" fill="rgb(0,0,0)" />
	<circle cx="311.37" cy="400.814" r="1" fill="rgb(0,0,0)" />
	<circle cx="387.776" cy="1036.31" r="1" fill="rgb(0,0,0)" />
	<circle cx="407.707" cy="348.023" r="1" fill="rgb(0,0,0)" />
	<circle cx="416.704" cy="304.026" r="1" fill="rgb(0,0,0)" />
	<circle cx="440.924" cy="1009.49" r="1" fill="rgb(0,0,0)" />
	<circle cx="468.13" cy="328.632" r="1" fill="rgb(0,0,0)" />
	<circle cx="538.727" cy="588.709" r="1" fill="rgb(0,0,0)" />
	<circle cx="574.631" cy="989.739" r="1" fill="rgb(0,0,0)" />
	<circle cx="622.758" cy="384.87" r="1" fill="rgb(0,0,0)" />
	<circle cx="773.446" cy="992.851" r="1" fill="rgb(0,0,0)" />
	<circle cx="905.568" cy="49.3479" r="1" fill="rgb(0,0,0)" />
	<circle cx="926.493" cy="233.667" r="1" fill="rgb(0,0,0)" />
	<circle cx="1024.22" cy="615.108" r="1" fill="rgb(0,0,0)" />
	<circle cx="1047.89" cy="248.905" r="1" fill="rgb(0,0,0)" />
	<circle cx="1050" cy="171.011" r="1" fill="rgb(0,0,0)" />
</svg>
