<?xml version="1.0" standalone="no" ?>
<!DOCTYPE svg PUBLIC "-//W3C//DTD SVG 1.1//EN" "http://www.w3.org/Graphics/SVG/1.1/DTD/svg11.dtd">
<svg width="1100px" height="1158.35px" xmlns="http://www.w3.org/2000/svg" version="1.1" >
	<circle cx="50" cy="1090.8" r="1" fill="rgb(0,0,0)" />
	<circle cx="64.0226" cy="1100.14" r="1" fill="rgb(0,0,0)" />
	<circle cx="75.2227" cy="611.163" r="1" fill="rgb(0,0,0)" />
	<circle cx="77.6857" cy="626.045" r="1" fill="rgb(0,0,0)" />
	<circle cx="93.1286" cy="335.054" r="1" fill="rgb(0,0,0)" />
	<circle cx="115.072" cy="830.304" r="1" fill="rgb(0,0,0)" />
	<circle cx="119.527" cy="364.35" r="1" fill="rgb(0,0,0)" />
	<circle cx="126.661" cy="1013.96" r="1" fill="rgb(0,0,0)" />
	<circle cx="131.946" cy="105.877" r="1" fill="rgb(0,0,0)" />
	<circle cx="133.366" cy="604.22" r="1" fill="rgb(0,0,0)" />
	<circle cx="135.818" cy="1093.51" r="1" fill="rgb(0,0,0)" />
	<circle cx="138.174" cy="426.83" r="1" fill="rgb(0,0,0)" />
	<circle cx="158.197" cy="1086.2" r="1" fill="rgb(0,0,0)" />
	<circle cx="171.688" cy="799.738" r="1" fill="rgb(0,0,0)" />
	<circle cx="193.976" cy="351.446" r="1" fill="rgb(0,0,0)" />
	<circle cx="215.974" cy="706.002" r="1" fill="rgb(0,0,0)" />
	<circle cx="217.703" cy="385.956" r="1" fill="rgb(0,0,0)" />
	<circle cx="228.645" cy="960.826" r="1" fill="rgb(0,0,0)" />
	<circle cx="235.063" cy="1058.74" r="1" fill="rgb(0,0,0)" />
	<circle cx="257.916" cy="758.253" r="1" fill="rgb(0,0,0)" />
	<circle cx="267.333" cy="412.39" r="1" fill="rgb(0,0,0)" />
	<circle cx="278.986" cy="965.694" r="1" fill="rgb(0,0,0)" />
	<circle cx="327.249" cy="818.392" r="1" fill="rgb(0,0,0)" />
	<circle cx="346.906" cy="884.445" r="1" fill="rgb(0,0,0)" />
	<circle cx="352.565" cy="1005.41" r="1" fill="rgb(0,0,0)" />
	<circle cx="352.716" cy="136.828" r="1" fill="rgb(0,0,0)" />
	<circle cx="360.982" cy="905.055" r="1" fill="rgb(0,0,0)" />
	<circle cx="376.767" cy="728.356" r="1" fill="rgb(0,0,0)" />
	<circle cx="382.588" cy="789.811" r="1" fill="rgb(0,0,0)" />
	<circle cx="418.011" cy="166.922" r="1" fill="rgb(0,0,0)" />
	<circle cx="418.234" cy="1007.75" r="1" fill="rgb(0,0,0)" />
	<circle cx="458.54" cy="166.732" r="1" fill="rgb(0,0,0)" />
	<circle cx="466.425" cy="683.944" r="1" fill="rgb(0,0,0)" />
	<circle cx="474.076" cy="76.8323" r="1" fill="rgb(0,0,0)" />
	<circle cx="474.752" cy="447.713" r="1" fill="rgb(0,0,0)" />
	<circle cx="492.59" cy="1010.7" r="1" fill="rgb(0,0,0)" />
	<circle cx="506.012" cy="257.383" r="1" fill="rgb(0,0,0)" />
	<circle cx="509.36" cy="447.371" r="1" fill="rgb(0,0,0)" />
	<circle cx="517.072" cy="809.579" r="1" fill="rgb(0,0,0)" />
	<circle cx="566.597" cy="199.983" r="1" fill="rgb(0,0,0)" />
	<circle cx="612.487" cy="534.204" r="1" fill="rgb(0,0,0)" />
	<circle cx="619.833" cy="598.726" r="1" fill="rgb(0,0,0)" />
	<circle cx="622.907" cy="939.461" r="1" fill="rgb(0,0,0)" />
	<circle cx="625.179" cy="951.747" r="1" fill="rgb(0,0,0)" />
	<circle cx="628.383" cy="986.422" r="1" fill="rgb(0,0,0)" />
	<circle cx="648.788" cy="200.292" r="1" fill="rgb(0,0,0)" />
	<circle cx="649.877" cy="654.87" r="1" fill="rgb(0,0,0)" />
	<circle cx="661.005" cy="646.992" r="1" fill="rgb(0,0,0)" />
	<circle cx="673.683" cy="1105.7" r="1" fill="rgb(0,0,0)" />
	<circle cx="689.737" cy="932.288" r="1" fill="rgb(0,0,0)" />
	<circle cx="698.352" cy="569.4" r="1" fill="rgb(0,0,0)" />
	<circle cx="710.839" cy="191.26" r="1" fill="rgb(0,0,0)" />
	<circle cx="715.589" cy="222.722" r="1" fill="rgb(0,0,0)" />
	<circle cx="738.417" cy="958.453" r="1" fill="rgb(0,0,0)" />
	<circle cx="752.695" cy="443.1" r="1" fill="rgb(0,0,0)" />
	<circle cx="756.388" cy="815.188" r="1" fill="rgb(0,0,0)" />
	<circle cx="761.569" cy="103.155" r="1" fill="rgb(0,0,0)" />
	<circle cx="764.104" cy="491.812" r="1" fill="rgb(0,0,0)" />
	<circle cx="773.161" cy="421.113" r="1" fill="rgb(0,0,0)" />
	<circle cx="784.66" cy="252.313" r="1" fill="rgb(0,0,0)" />
	<circle cx="794.109" cy="211.406" r="1" fill="rgb(0,0,0)" />
	<circle cx="819.022" cy="111.209" r="1" fill="rgb(0,0,0)" />
	<circle cx="852.723" cy="781.965" r="1" fill="rgb(0,0,0)" />
	<circle cx="853.913" cy="274.163" r="1" fill="rgb(0,0,0)" />
	<circle cx="862.503" cy="210.026" r="1" fill="rgb(0,0,0)" />
	<circle cx="892.17" cy="1058.05" r="1" fill="rgb(0,0,0)" />
	<circle cx="936.1" cy="815.792" r="1" fill="rgb(0,0,0)" />
	<circle cx="962.855" cy="52.6523" r="1" fill="rgb(0,0,0)" />
	<circle cx="1012.79" cy="831.839" r="1" fill="rgb(0,0,0)" />
	<circle cx="1050" cy="119.677" r="1" fill="rgb(0,0,0)" />
</svg>
