<?xml version="1.0" standalone="no" ?>
<!DOCTYPE svg PUBLIC "-//W3C//DTD SVG 1.1//EN" "http://www.w3.org/Graphics/SVG/1.1/DTD/svg11.dtd">
<svg width="1100px" height="1318.86px" xmlns="http://www.w3.org/2000/svg" version="1.1" >
	<circle cx="50" cy="319.69" r="1" fill="rgb(0,0,0)" />
	<circle cx="79.3037" cy="664.307" r="1" fill="rgb(0,0,0)" />
	<circle cx="95.4162" cy="833.056" r="1" fill="rgb(0,0,0)" />
	<circle cx="120.696" cy="1231.17" r="1" fill="rgb(0,0,0)" />
	<circle cx="173.876" cy="1258.91" r="1" fill="rgb(0,0,0)" />
	<circle cx="207.665" cy="768.61" r="1" fill="rgb(0,0,0)" />
	<circle cx="247.633" cy="123.044" r="1" fill="rgb(0,0,0)" />
	<circle cx="280.187" cy="701.725" r="1" fill="rgb(0,0,0)" />
	<circle cx="328.829" cy="124.48" r="1" fill="rgb(0,0,0)" />
	<circle cx="329.101" cy="985.64" r="1" fill="rgb(0,0,0)" />
	<circle cx="333.174" cy="1122.54" r="1" fill="rgb(0,0,0)" />
	<circle cx="334.569" cy="414.571" r="1" fill="rgb(0,0,0)" />
	<circle cx="374.184" cy="1084.68" r="1" fill="rgb(0,0,0)" />
	<circle cx="402.764" cy="1007.94" r="1" fill="rgb(0,0,0)" />
	<circle cx="451.702" cy="910.842" r="1" fill="rgb(0,0,0)" />
	<circle cx="496.785" cy="59.9481" r="1" fill="rgb(0,0,0)" />
	<circle cx="508.918" cy="766.775" r="1" fill="rgb(0,0,0)" />
	<circle cx="555.009" cy="1129.4" r="1" fill="rgb(0,0,0)" />
	<circle cx="577.063" cy="321.801" r="1" fill="rgb(0,0,0)" />
	<circle cx="578.701" cy="846.227" r="1" fill="rgb(0,0,0)" />
	<circle cx="582.207" cy="457.132" r="1" fill="rgb(0,0,0)" />
	<circle cx="591.921" cy="854.366" r="1" fill="rgb(0,0,0)" />
	<circle cx="593.472" cy="676.066" r="1" fill="rgb(0,0,0)" />
	<circle cx="594.818" cy="433.354" r="1" fill="rgb(0,0,0)" />
	<circle cx="606.091" cy="744.075" r="1" fill="rgb(0,0,0)" />
	<circle cx="607.165" cy="482.881" r="1" fill="rgb(0,0,0)" />
	<circle cx="633.297" cy="193.263" r="1" fill="rgb(0,0,0)" />
	<circle cx="742.319" cy="249.616" r="1" fill="rgb(0,0,0)" />
	<circle cx="750.623" cy="376.088" r="1" fill="rgb(0,0,0)" />
	<circle cx="809.633" cy="615.278" r="1" fill="rgb(0,0,0)" />
	<circle cx="900.478" cy="704.008" r="1" fill="rgb(0,0,0)" />
	<circle cx="911.789" cy="1197.49" r="1" fill="rgb(0,0,0)" />
	<circle cx="945.832" cy="69.8353" r="1" fill="rgb(0,0,0)" />
	<circle cx="955.358" cy="1061.34" r="1" fill="rgb(0,0,0)" />
	<circle cx="1050" cy="1136.98" r="1" fill="rgb(0,0,0)" />
</svg>
