<?xml version="1.0" standalone="no" ?>
<!DOCTYPE svg PUBLIC "-//W3C//DTD SVG 1.1//EN" "http://www.w3.org/Graphics/SVG/1.1/DTD/svg11.dtd">
<svg width="1100px" height="1130.39px" xmlns="http://www.w3.org/2000/svg" version="1.1" >
	<circle cx="50" cy="992.833" r="1" fill="rgb(0,0,0)" />
	<circle cx="54.4737" cy="501.827" r="1" fill="rgb(0,0,0)" />
	<circle cx="55.1243" cy="320.963" r="1" fill="rgb(0,0,0)" />
	<circle cx="55.9917" cy="852.616" r="1" fill="rgb(0,0,0)" />
	<circle cx="60.4287" cy="289.16" r="1" fill="rgb(0,0,0)" />
	<circle cx="61.8299" cy="426.434" r="1" fill="rgb(0,0,0)" />
	<circle cx="62.7173" cy="494.751" r="1" fill="rgb(0,0,0)" />
	<circle cx="62.794" cy="704.896" r="1" fill="rgb(0,0,0)" />
	<circle cx="66.4971" cy="998.431" r="1" fill="rgb(0,0,0)" />
	<circle cx="71.4646" cy="354.894" r="1" fill="rgb(0,0,0)" />
	<circle cx="72.6822" cy="574.307" r="1" fill="rgb(0,0,0)" />
	<circle cx="75.6847" cy="126.514" r="1" fill="rgb(0,0,0)" />
	<circle cx="82.3603" cy="285.884" r="1" fill="rgb(0,0,0)" />
	<circle cx="87.5013" cy="441.98" r="1" fill="rgb(0,0,0)" />
	<circle cx="92.5922" cy="591.281" r="1" fill="rgb(0,0,0)" />
	<circle cx="93.146" cy="600.452" r="1" fill="rgb(0,0,0)" />
	<circle cx="94.417" cy="228.779" r="1" fill="rgb(0,0,0)" />
	<circle cx="96.2018" cy="402.577" r="1" fill="rgb(0,0,0)" />
	<circle cx="98.2702" cy="961.743" r="1" fill="rgb(0,0,0)" />
	<circle cx="101.373" cy="1056.25" r="1" fill="rgb(0,0,0)" />
	<circle cx="102.787" cy="284.329" r="1" fill="rgb(0,0,0)" />
	<circle cx="105.029" cy="511.472" r="1" fill="rgb(0,0,0)" />
	<circle cx="106.34" cy="1012.09" r="1" fill="rgb(0,0,0)" />
	<circle cx="106.387" cy="1016.9" r="1" fill="rgb(0,0,0)" />
	<circle cx="106.871" cy="308.309" r="1" fill="rgb(0,0,0)" />
	<circle cx="107.828" cy="913.93" r="1" fill="rgb(0,0,0)" />
	<circle cx="107.868" cy="703.301" r="1" fill="rgb(0,0,0)" />
	<circle cx="108.188" cy="305.617" r="1" fill="rgb(0,0,0)" />
	<circle cx="110.427" cy="310.211" r="1" fill="rgb(0,0,0)" />
	<circle cx="111.678" cy="574.584" r="1" fill="rgb(0,0,0)" />
	<circle cx="115.311" cy="1065" r="1" fill="rgb(0,0,0)" />
	<circle cx="115.458" cy="356.416" r="1" fill="rgb(0,0,0)" />
	<circle cx="115.601" cy="977.25" r="1" fill="rgb(0,0,0)" />
	<circle cx="118.867" cy="98.831" r="1" fill="rgb(0,0,0)" />
	<circle cx="119.154" cy="972.316" r="1" fill="rgb(0,0,0)" />
	<circle cx="125.69" cy="230.344" r="1" fill="rgb(0,0,0)" />
	<circle cx="125.933" cy="407.208" r="1" fill="rgb(0,0,0)" />
	<circle cx="133.553" cy="840.979" r="1" fill="rgb(0,0,0)" />
	<circle cx="133.807" cy="999.291" r="1" fill="rgb(0,0,0)" />
	<circle cx="134.757" cy="206.868" r="1" fill="rgb(0,0,0)" />
	<circle cx="135.608" cy="636.799" r="1" fill="rgb(0,0,0)" />
	<circle cx="135.628" cy="692.566" r="1" fill="rgb(0,0,0)" />
	<circle cx="135.711" cy="1071.11" r="1" fill="rgb(0,0,0)" />
	<circle cx="138.35" cy="206.197" r="1" fill="rgb(0,0,0)" />
	<circle cx="142.444" cy="706.321" r="1" fill="rgb(0,0,0)" />
	<circle cx="143.631" cy="716.819" r="1" fill="rgb(0,0,0)" />
	<circle cx="147.621" cy="718.334" r="1" fill="rgb(0,0,0)" />
	<circle cx="147.781" cy="716.816" r="1" fill="rgb(0,0,0)" />
	<circle cx="149.67" cy="517.32" r="1" fill="rgb(0,0,0)" />
	<circle cx="153.276" cy="514.611" r="1" fill="rgb(0,0,0)" />
	<circle cx="154.207" cy="600.386" r="1" fill="rgb(0,0,0)" />
	<circle cx="155.902" cy="564.035" r="1" fill="rgb(0,0,0)" />
	<circle cx="156.512" cy="785.423" r="1" fill="rgb(0,0,0)" />
	<circle cx="157.973" cy="600.239" r="1" fill="rgb(0,0,0)" />
	<circle cx="158.594" cy="758.281" r="1" fill="rgb(0,0,0)" />
	<circle cx="160.689" cy="510.014" r="1" fill="rgb(0,0,0)" />
	<circle cx="160.992" cy="510.574" r="1" fill="rgb(0,0,0)" />
	<circle cx="163.705" cy="315.061" r="1" fill="rgb(0,0,0)" />
	<circle cx="165.63" cy="315.635" r="1" fill="rgb(0,0,0)" />
	<circle cx="167.421" cy="686.604" r="1" fill="rgb(0,0,0)" />
	<circle cx="169.306" cy="772.402" r="1" fill="rgb(0,0,0)" />
	<circle cx="169.843" cy="546.761" r="1" fill="rgb(0,0,0)" />
	<circle cx="171.838" cy="896.032" r="1" fill="rgb(0,0,0)" />
	<circle cx="173.736" cy="327.085" r="1" fill="rgb(0,0,0)" />
	<circle cx="174.01" cy="511.879" r="1" fill="rgb(0,0,0)" />
	<circle cx="177.079" cy="652.579" r="1" fill="rgb(0,0,0)" />
	<circle cx="178.13" cy="494.431" r="1" fill="rgb(0,0,0)" />
	<circle cx="178.287" cy="109.55" r="1" fill="rgb(0,0,0)" />
	<circle cx="178.497" cy="586.207" r="1" fill="rgb(0,0,0)" />
	<circle cx="178.534" cy="498.221" r="1" fill="rgb(0,0,0)" />
	<circle cx="179.368" cy="999.428" r="1" fill="rgb(0,0,0)" />
	<circle cx="179.405" cy="606.454" r="1" fill="rgb(0,0,0)" />
	<circle cx="179.651" cy="953.04" r="1" fill="rgb(0,0,0)" />
	<circle cx="180.842" cy="122.487" r="1" fill="rgb(0,0,0)" />
	<circle cx="181.276" cy="495.745" r="1" fill="rgb(0,0,0)" />
	<circle cx="182.033" cy="631.922" r="1" fill="rgb(0,0,0)" />
	<circle cx="184.168" cy="407.305" r="1" fill="rgb(0,0,0)" />
	<circle cx="184.365" cy="195.985" r="1" fill="rgb(0,0,0)" />
	<circle cx="187.314" cy="577.707" r="1" fill="rgb(0,0,0)" />
	<circle cx="188.062" cy="578.15" r="1" fill="rgb(0,0,0)" />
	<circle cx="188.329" cy="138.127" r="1" fill="rgb(0,0,0)" />
	<circle cx="188.475" cy="580.009" r="1" fill="rgb(0,0,0)" />
	<circle cx="189.973" cy="51.6417" r="1" fill="rgb(0,0,0)" />
	<circle cx="190.434" cy="174.147" r="1" fill="rgb(0,0,0)" />
	<circle cx="190.55" cy="1032.1" r="1" fill="rgb(0,0,0)" />
	<circle cx="190.57" cy="51.3815" r="1" fill="rgb(0,0,0)" />
	<circle cx="191.378" cy="972.309" r="1" fill="rgb(0,0,0)" />
	<circle cx="197.41" cy="776.319" r="1" fill="rgb(0,0,0)" />
	<circle cx="199.341" cy="1033.04" r="1" fill="rgb(0,0,0)" />
	<circle cx="200.272" cy="1034.67" r="1" fill="rgb(0,0,0)" />
	<circle cx="205.226" cy="118.197" r="1" fill="rgb(0,0,0)" />
	<circle cx="205.72" cy="115.318" r="1" fill="rgb(0,0,0)" />
	<circle cx="206.047" cy="339.702" r="1" fill="rgb(0,0,0)" />
	<circle cx="210.25" cy="858.614" r="1" fill="rgb(0,0,0)" />
	<circle cx="214.48" cy="740.676" r="1" fill="rgb(0,0,0)" />
	<circle cx="215.665" cy="66.7776" r="1" fill="rgb(0,0,0)" />
	<circle cx="220.209" cy="752.562" r="1" fill="rgb(0,0,0)" />
	<circle cx="220.555" cy="508.069" r="1" fill="rgb(0,0,0)" />
	<circle cx="221.817" cy="1041.9" r="1" fill="rgb(0,0,0)" />
	<circle cx="224.168" cy="375.315" r="1" fill="rgb(0,0,0)" />
	<circle cx="224.242" cy="407.442" r="1" fill="rgb(0,0,0)" />
	<circle cx="228.869" cy="82.781" r="1" fill="rgb(0,0,0)" />
	<circle cx="230.133" cy="716.362" r="1" fill="rgb(0,0,0)" />
	<circle cx="238.224" cy="312.646" r="1" fill="rgb(0,0,0)" />
	<circle cx="240.088" cy="939.538" r="1" fill="rgb(0,0,0)" />
	<circle cx="244.282" cy="842.04" r="1" fill="rgb(0,0,0)" />
	<circle cx="247.795" cy="618.317" r="1" fill="rgb(0,0,0)" />
	<circle cx="249.48" cy="845.907" r="1" fill="rgb(0,0,0)" />
	<circle cx="249.947" cy="1047.57" r="1" fill="rgb(0,0,0)" />
	<circle cx="251.198" cy="542.834" r="1" fill="rgb(0,0,0)" />
	<circle cx="252.479" cy="955.391" r="1" fill="rgb(0,0,0)" />
	<circle cx="252.762" cy="1048.01" r="1" fill="rgb(0,0,0)" />
	<circle cx="253.636" cy="1046.58" r="1" fill="rgb(0,0,0)" />
	<circle cx="254.06" cy="805.657" r="1" fill="rgb(0,0,0)" />
	<circle cx="256.902" cy="955.061" r="1" fill="rgb(0,0,0)" />
	<circle cx="256.932" cy="799.502" r="1" fill="rgb(0,0,0)" />
	<circle cx="263.968" cy="587.889" r="1" fill="rgb(0,0,0)" />
	<circle cx="264.369" cy="617.8" r="1" fill="rgb(0,0,0)" />
	<circle cx="266.884" cy="162.751" r="1" fill="rgb(0,0,0)" />
	<circle cx="267.638" cy="1074.81" r="1" fill="rgb(0,0,0)" />
	<circle cx="273.78" cy="319.235" r="1" fill="rgb(0,0,0)" />
	<circle cx="275.031" cy="428.749" r="1" fill="rgb(0,0,0)" />
	<circle cx="275.758" cy="146.644" r="1" fill="rgb(0,0,0)" />
	<circle cx="276.225" cy="145.58" r="1" fill="rgb(0,0,0)" />
	<circle cx="276.382" cy="413.747" r="1" fill="rgb(0,0,0)" />
	<circle cx="278.721" cy="144.179" r="1" fill="rgb(0,0,0)" />
	<circle cx="281.563" cy="412.015" r="1" fill="rgb(0,0,0)" />
	<circle cx="284.352" cy="287.889" r="1" fill="rgb(0,0,0)" />
	<circle cx="285.436" cy="287.665" r="1" fill="rgb(0,0,0)" />
	<circle cx="286.947" cy="583.919" r="1" fill="rgb(0,0,0)" />
	<circle cx="287.064" cy="284.462" r="1" fill="rgb(0,0,0)" />
	<circle cx="287.588" cy="1042.53" r="1" fill="rgb(0,0,0)" />
	<circle cx="289.253" cy="234.227" r="1" fill="rgb(0,0,0)" />
	<circle cx="290.754" cy="804.182" r="1" fill="rgb(0,0,0)" />
	<circle cx="293.306" cy="285.824" r="1" fill="rgb(0,0,0)" />
	<circle cx="296.289" cy="686.451" r="1" fill="rgb(0,0,0)" />
	<circle cx="296.295" cy="293.063" r="1" fill="rgb(0,0,0)" />
	<circle cx="300.128" cy="1060.89" r="1" fill="rgb(0,0,0)" />
	<circle cx="305.716" cy="80.5425" r="1" fill="rgb(0,0,0)" />
	<circle cx="307.054" cy="517.16" r="1" fill="rgb(0,0,0)" />
	<circle cx="307.101" cy="517.086" r="1" fill="rgb(0,0,0)" />
	<circle cx="309.75" cy="766.911" r="1" fill="rgb(0,0,0)" />
	<circle cx="318.41" cy="696.029" r="1" fill="rgb(0,0,0)" />
	<circle cx="318.59" cy="156.896" r="1" fill="rgb(0,0,0)" />
	<circle cx="318.771" cy="694.577" r="1" fill="rgb(0,0,0)" />
	<circle cx="321.386" cy="435.862" r="1" fill="rgb(0,0,0)" />
	<circle cx="322.04" cy="582.691" r="1" fill="rgb(0,0,0)" />
	<circle cx="322.627" cy="692.519" r="1" fill="rgb(0,0,0)" />
	<circle cx="324.162" cy="236.813" r="1" fill="rgb(0,0,0)" />
	<circle cx="326.063" cy="689.443" r="1" fill="rgb(0,0,0)" />
	<circle cx="328.899" cy="81.9203" r="1" fill="rgb(0,0,0)" />
	<circle cx="329.106" cy="788.889" r="1" fill="rgb(0,0,0)" />
	<circle cx="329.943" cy="556.249" r="1" fill="rgb(0,0,0)" />
	<circle cx="331.431" cy="935.485" r="1" fill="rgb(0,0,0)" />
	<circle cx="332.048" cy="1016.68" r="1" fill="rgb(0,0,0)" />
	<circle cx="336.329" cy="383.605" r="1" fill="rgb(0,0,0)" />
	<circle cx="337.053" cy="121.583" r="1" fill="rgb(0,0,0)" />
	<circle cx="337.213" cy="378.658" r="1" fill="rgb(0,0,0)" />
	<circle cx="338.504" cy="796.753" r="1" fill="rgb(0,0,0)" />
	<circle cx="339.138" cy="840.429" r="1" fill="rgb(0,0,0)" />
	<circle cx="339.791" cy="797.493" r="1" fill="rgb(0,0,0)" />
	<circle cx="341.66" cy="385.423" r="1" fill="rgb(0,0,0)" />
	<circle cx="342.957" cy="955.195" r="1" fill="rgb(0,0,0)" />
	<circle cx="343.875" cy="661.19" r="1" fill="rgb(0,0,0)" />
	<circle cx="349.086" cy="297.006" r="1" fill="rgb(0,0,0)" />
	<circle cx="352.335" cy="564.969" r="1" fill="rgb(0,0,0)" />
	<circle cx="352.916" cy="565.874" r="1" fill="rgb(0,0,0)" />
	<circle cx="356.168" cy="774.254" r="1" fill="rgb(0,0,0)" />
	<circle cx="356.952" cy="73.2797" r="1" fill="rgb(0,0,0)" />
	<circle cx="359.374" cy="487.025" r="1" fill="rgb(0,0,0)" />
	<circle cx="360.842" cy="485.023" r="1" fill="rgb(0,0,0)" />
	<circle cx="361.253" cy="777.15" r="1" fill="rgb(0,0,0)" />
	<circle cx="362.994" cy="630.788" r="1" fill="rgb(0,0,0)" />
	<circle cx="364.839" cy="414.327" r="1" fill="rgb(0,0,0)" />
	<circle cx="364.932" cy="680.959" r="1" fill="rgb(0,0,0)" />
	<circle cx="364.972" cy="167.582" r="1" fill="rgb(0,0,0)" />
	<circle cx="366.15" cy="749.723" r="1" fill="rgb(0,0,0)" />
	<circle cx="366.934" cy="546.194" r="1" fill="rgb(0,0,0)" />
	<circle cx="374.804" cy="453.326" r="1" fill="rgb(0,0,0)" />
	<circle cx="384.429" cy="73.1796" r="1" fill="rgb(0,0,0)" />
	<circle cx="385.653" cy="72.459" r="1" fill="rgb(0,0,0)" />
	<circle cx="391.958" cy="757.753" r="1" fill="rgb(0,0,0)" />
	<circle cx="393.043" cy="589.627" r="1" fill="rgb(0,0,0)" />
	<circle cx="393.289" cy="276.339" r="1" fill="rgb(0,0,0)" />
	<circle cx="394.07" cy="442.394" r="1" fill="rgb(0,0,0)" />
	<circle cx="394.537" cy="407.648" r="1" fill="rgb(0,0,0)" />
	<circle cx="396.132" cy="894.234" r="1" fill="rgb(0,0,0)" />
	<circle cx="397.169" cy="413.954" r="1" fill="rgb(0,0,0)" />
	<circle cx="397.953" cy="558.531" r="1" fill="rgb(0,0,0)" />
	<circle cx="400.339" cy="262.944" r="1" fill="rgb(0,0,0)" />
	<circle cx="400.565" cy="262.411" r="1" fill="rgb(0,0,0)" />
	<circle cx="401.847" cy="469.143" r="1" fill="rgb(0,0,0)" />
	<circle cx="402.681" cy="723.592" r="1" fill="rgb(0,0,0)" />
	<circle cx="404.372" cy="1038.32" r="1" fill="rgb(0,0,0)" />
	<circle cx="410.711" cy="1009.17" r="1" fill="rgb(0,0,0)" />
	<circle cx="415.284" cy="255.331" r="1" fill="rgb(0,0,0)" />
	<circle cx="416.158" cy="893.61" r="1" fill="rgb(0,0,0)" />
	<circle cx="416.719" cy="256.603" r="1" fill="rgb(0,0,0)" />
	<circle cx="420.922" cy="653.023" r="1" fill="rgb(0,0,0)" />
	<circle cx="424.352" cy="1012.14" r="1" fill="rgb(0,0,0)" />
	<circle cx="424.392" cy="109.5" r="1" fill="rgb(0,0,0)" />
	<circle cx="424.926" cy="108.322" r="1" fill="rgb(0,0,0)" />
	<circle cx="425.373" cy="435.969" r="1" fill="rgb(0,0,0)" />
	<circle cx="425.837" cy="1075.29" r="1" fill="rgb(0,0,0)" />
	<circle cx="426.133" cy="107.972" r="1" fill="rgb(0,0,0)" />
	<circle cx="428.689" cy="241.874" r="1" fill="rgb(0,0,0)" />
	<circle cx="428.772" cy="350.611" r="1" fill="rgb(0,0,0)" />
	<circle cx="430.994" cy="996.863" r="1" fill="rgb(0,0,0)" />
	<circle cx="431.088" cy="431.018" r="1" fill="rgb(0,0,0)" />
	<circle cx="432.525" cy="1079.01" r="1" fill="rgb(0,0,0)" />
	<circle cx="432.632" cy="366.411" r="1" fill="rgb(0,0,0)" />
	<circle cx="433.203" cy="340.119" r="1" fill="rgb(0,0,0)" />
	<circle cx="434.18" cy="490.958" r="1" fill="rgb(0,0,0)" />
	<circle cx="434.861" cy="489.243" r="1" fill="rgb(0,0,0)" />
	<circle cx="435.958" cy="209.193" r="1" fill="rgb(0,0,0)" />
	<circle cx="436.192" cy="339.318" r="1" fill="rgb(0,0,0)" />
	<circle cx="436.465" cy="348.539" r="1" fill="rgb(0,0,0)" />
	<circle cx="436.839" cy="349.383" r="1" fill="rgb(0,0,0)" />
	<circle cx="438.087" cy="1043.43" r="1" fill="rgb(0,0,0)" />
	<circle cx="439.882" cy="262.481" r="1" fill="rgb(0,0,0)" />
	<circle cx="439.898" cy="773.67" r="1" fill="rgb(0,0,0)" />
	<circle cx="440.232" cy="194.377" r="1" fill="rgb(0,0,0)" />
	<circle cx="440.489" cy="481.33" r="1" fill="rgb(0,0,0)" />
	<circle cx="441.813" cy="751.231" r="1" fill="rgb(0,0,0)" />
	<circle cx="442.04" cy="869.4" r="1" fill="rgb(0,0,0)" />
	<circle cx="450.677" cy="362.961" r="1" fill="rgb(0,0,0)" />
	<circle cx="451.261" cy="94.5441" r="1" fill="rgb(0,0,0)" />
	<circle cx="451.835" cy="796.866" r="1" fill="rgb(0,0,0)" />
	<circle cx="452.642" cy="1052.22" r="1" fill="rgb(0,0,0)" />
	<circle cx="460.532" cy="1008.24" r="1" fill="rgb(0,0,0)" />
	<circle cx="462.994" cy="636.596" r="1" fill="rgb(0,0,0)" />
	<circle cx="463.004" cy="666.748" r="1" fill="rgb(0,0,0)" />
	<circle cx="463.124" cy="991.291" r="1" fill="rgb(0,0,0)" />
	<circle cx="467.274" cy="735.492" r="1" fill="rgb(0,0,0)" />
	<circle cx="472.522" cy="790.991" r="1" fill="rgb(0,0,0)" />
	<circle cx="472.762" cy="639.145" r="1" fill="rgb(0,0,0)" />
	<circle cx="473.807" cy="705.163" r="1" fill="rgb(0,0,0)" />
	<circle cx="474.524" cy="536.686" r="1" fill="rgb(0,0,0)" />
	<circle cx="475.224" cy="151.128" r="1" fill="rgb(0,0,0)" />
	<circle cx="477.693" cy="1009.99" r="1" fill="rgb(0,0,0)" />
	<circle cx="477.887" cy="644.863" r="1" fill="rgb(0,0,0)" />
	<circle cx="479.548" cy="184.292" r="1" fill="rgb(0,0,0)" />
	<circle cx="481.583" cy="217.34" r="1" fill="rgb(0,0,0)" />
	<circle cx="482.514" cy="62.3073" r="1" fill="rgb(0,0,0)" />
	<circle cx="483.021" cy="721.283" r="1" fill="rgb(0,0,0)" />
	<circle cx="484.022" cy="488.936" r="1" fill="rgb(0,0,0)" />
	<circle cx="484.639" cy="595.171" r="1" fill="rgb(0,0,0)" />
	<circle cx="485.977" cy="722.674" r="1" fill="rgb(0,0,0)" />
	<circle cx="487.711" cy="990.204" r="1" fill="rgb(0,0,0)" />
	<circle cx="490.684" cy="417.847" r="1" fill="rgb(0,0,0)" />
	<circle cx="491.281" cy="182.968" r="1" fill="rgb(0,0,0)" />
	<circle cx="494.957" cy="633.003" r="1" fill="rgb(0,0,0)" />
	<circle cx="499.665" cy="580.689" r="1" fill="rgb(0,0,0)" />
	<circle cx="501.69" cy="159.665" r="1" fill="rgb(0,0,0)" />
	<circle cx="502.047" cy="396.422" r="1" fill="rgb(0,0,0)" />
	<circle cx="502.264" cy="397.87" r="1" fill="rgb(0,0,0)" />
	<circle cx="502.49" cy="397.703" r="1" fill="rgb(0,0,0)" />
	<circle cx="504.325" cy="161.577" r="1" fill="rgb(0,0,0)" />
	<circle cx="505.71" cy="921.026" r="1" fill="rgb(0,0,0)" />
	<circle cx="506.04" cy="552.949" r="1" fill="rgb(0,0,0)" />
	<circle cx="506.877" cy="669.834" r="1" fill="rgb(0,0,0)" />
	<circle cx="509.837" cy="951.351" r="1" fill="rgb(0,0,0)" />
	<circle cx="512.766" cy="691.522" r="1" fill="rgb(0,0,0)" />
	<circle cx="512.882" cy="963.875" r="1" fill="rgb(0,0,0)" />
	<circle cx="513.673" cy="217.146" r="1" fill="rgb(0,0,0)" />
	<circle cx="514.29" cy="950.044" r="1" fill="rgb(0,0,0)" />
	<circle cx="515.621" cy="490.304" r="1" fill="rgb(0,0,0)" />
	<circle cx="516.222" cy="952.299" r="1" fill="rgb(0,0,0)" />
	<circle cx="516.732" cy="959.662" r="1" fill="rgb(0,0,0)" />
	<circle cx="517.436" cy="541.286" r="1" fill="rgb(0,0,0)" />
	<circle cx="521.446" cy="727.635" r="1" fill="rgb(0,0,0)" />
	<circle cx="522.867" cy="620.459" r="1" fill="rgb(0,0,0)" />
	<circle cx="523.588" cy="225.093" r="1" fill="rgb(0,0,0)" />
	<circle cx="524.138" cy="124.706" r="1" fill="rgb(0,0,0)" />
	<circle cx="524.165" cy="1030.98" r="1" fill="rgb(0,0,0)" />
	<circle cx="525.223" cy="340.686" r="1" fill="rgb(0,0,0)" />
	<circle cx="525.943" cy="598.988" r="1" fill="rgb(0,0,0)" />
	<circle cx="526.697" cy="612.226" r="1" fill="rgb(0,0,0)" />
	<circle cx="526.974" cy="355.088" r="1" fill="rgb(0,0,0)" />
	<circle cx="527.418" cy="715.335" r="1" fill="rgb(0,0,0)" />
	<circle cx="528.048" cy="94.2739" r="1" fill="rgb(0,0,0)" />
	<circle cx="529.98" cy="541.513" r="1" fill="rgb(0,0,0)" />
	<circle cx="530.193" cy="319.438" r="1" fill="rgb(0,0,0)" />
	<circle cx="532.048" cy="613.213" r="1" fill="rgb(0,0,0)" />
	<circle cx="533.51" cy="534.821" r="1" fill="rgb(0,0,0)" />
	<circle cx="533.983" cy="530.414" r="1" fill="rgb(0,0,0)" />
	<circle cx="534.244" cy="651.268" r="1" fill="rgb(0,0,0)" />
	<circle cx="534.781" cy="714.541" r="1" fill="rgb(0,0,0)" />
	<circle cx="536.405" cy="599.782" r="1" fill="rgb(0,0,0)" />
	<circle cx="538.18" cy="608.866" r="1" fill="rgb(0,0,0)" />
	<circle cx="538.45" cy="746.18" r="1" fill="rgb(0,0,0)" />
	<circle cx="541.987" cy="719.091" r="1" fill="rgb(0,0,0)" />
	<circle cx="542.947" cy="614.681" r="1" fill="rgb(0,0,0)" />
	<circle cx="543.645" cy="571.325" r="1" fill="rgb(0,0,0)" />
	<circle cx="543.988" cy="657.747" r="1" fill="rgb(0,0,0)" />
	<circle cx="545.463" cy="529.447" r="1" fill="rgb(0,0,0)" />
	<circle cx="548.292" cy="855.155" r="1" fill="rgb(0,0,0)" />
	<circle cx="548.332" cy="587.702" r="1" fill="rgb(0,0,0)" />
	<circle cx="548.792" cy="422.301" r="1" fill="rgb(0,0,0)" />
	<circle cx="548.932" cy="419.205" r="1" fill="rgb(0,0,0)" />
	<circle cx="549.159" cy="373.563" r="1" fill="rgb(0,0,0)" />
	<circle cx="549.69" cy="422.668" r="1" fill="rgb(0,0,0)" />
	<circle cx="551.394" cy="558.861" r="1" fill="rgb(0,0,0)" />
	<circle cx="551.431" cy="603.872" r="1" fill="rgb(0,0,0)" />
	<circle cx="552.999" cy="932.486" r="1" fill="rgb(0,0,0)" />
	<circle cx="553.64" cy="976.603" r="1" fill="rgb(0,0,0)" />
	<circle cx="553.94" cy="815.365" r="1" fill="rgb(0,0,0)" />
	<circle cx="556.669" cy="624.539" r="1" fill="rgb(0,0,0)" />
	<circle cx="558.183" cy="587.141" r="1" fill="rgb(0,0,0)" />
	<circle cx="559.528" cy="704.713" r="1" fill="rgb(0,0,0)" />
	<circle cx="559.558" cy="705.373" r="1" fill="rgb(0,0,0)" />
	<circle cx="560.932" cy="137.5" r="1" fill="rgb(0,0,0)" />
	<circle cx="561.436" cy="584.609" r="1" fill="rgb(0,0,0)" />
	<circle cx="562.02" cy="441.497" r="1" fill="rgb(0,0,0)" />
	<circle cx="562.981" cy="398.147" r="1" fill="rgb(0,0,0)" />
	<circle cx="563.895" cy="441.637" r="1" fill="rgb(0,0,0)" />
	<circle cx="565.743" cy="437.38" r="1" fill="rgb(0,0,0)" />
	<circle cx="566.113" cy="440.032" r="1" fill="rgb(0,0,0)" />
	<circle cx="567.281" cy="444.476" r="1" fill="rgb(0,0,0)" />
	<circle cx="568.756" cy="92.1455" r="1" fill="rgb(0,0,0)" />
	<circle cx="569.47" cy="723.018" r="1" fill="rgb(0,0,0)" />
	<circle cx="571.588" cy="997.947" r="1" fill="rgb(0,0,0)" />
	<circle cx="571.895" cy="941.763" r="1" fill="rgb(0,0,0)" />
	<circle cx="572.015" cy="723.391" r="1" fill="rgb(0,0,0)" />
	<circle cx="573.603" cy="877.553" r="1" fill="rgb(0,0,0)" />
	<circle cx="574.033" cy="539.338" r="1" fill="rgb(0,0,0)" />
	<circle cx="574.304" cy="1026.64" r="1" fill="rgb(0,0,0)" />
	<circle cx="576.385" cy="211.205" r="1" fill="rgb(0,0,0)" />
	<circle cx="576.736" cy="149.21" r="1" fill="rgb(0,0,0)" />
	<circle cx="577.403" cy="718.714" r="1" fill="rgb(0,0,0)" />
	<circle cx="578.994" cy="721.603" r="1" fill="rgb(0,0,0)" />
	<circle cx="582.017" cy="213.66" r="1" fill="rgb(0,0,0)" />
	<circle cx="582.911" cy="207.085" r="1" fill="rgb(0,0,0)" />
	<circle cx="583.992" cy="712.986" r="1" fill="rgb(0,0,0)" />
	<circle cx="588.859" cy="617.02" r="1" fill="rgb(0,0,0)" />
	<circle cx="588.982" cy="973.503" r="1" fill="rgb(0,0,0)" />
	<circle cx="589.403" cy="967.745" r="1" fill="rgb(0,0,0)" />
	<circle cx="589.676" cy="970.834" r="1" fill="rgb(0,0,0)" />
	<circle cx="590.003" cy="499.942" r="1" fill="rgb(0,0,0)" />
	<circle cx="591.715" cy="585.38" r="1" fill="rgb(0,0,0)" />
	<circle cx="591.818" cy="456.169" r="1" fill="rgb(0,0,0)" />
	<circle cx="593.827" cy="611.702" r="1" fill="rgb(0,0,0)" />
	<circle cx="595.081" cy="580.526" r="1" fill="rgb(0,0,0)" />
	<circle cx="596.185" cy="477.163" r="1" fill="rgb(0,0,0)" />
	<circle cx="596.552" cy="963.328" r="1" fill="rgb(0,0,0)" />
	<circle cx="601.586" cy="254.257" r="1" fill="rgb(0,0,0)" />
	<circle cx="602.24" cy="983.458" r="1" fill="rgb(0,0,0)" />
	<circle cx="602.29" cy="975.842" r="1" fill="rgb(0,0,0)" />
	<circle cx="604.108" cy="715.275" r="1" fill="rgb(0,0,0)" />
	<circle cx="607.485" cy="505.84" r="1" fill="rgb(0,0,0)" />
	<circle cx="608.115" cy="660.105" r="1" fill="rgb(0,0,0)" />
	<circle cx="608.262" cy="780.966" r="1" fill="rgb(0,0,0)" />
	<circle cx="609.466" cy="118.134" r="1" fill="rgb(0,0,0)" />
	<circle cx="611.061" cy="195.839" r="1" fill="rgb(0,0,0)" />
	<circle cx="611.701" cy="119.418" r="1" fill="rgb(0,0,0)" />
	<circle cx="611.842" cy="978.531" r="1" fill="rgb(0,0,0)" />
	<circle cx="613.219" cy="909.58" r="1" fill="rgb(0,0,0)" />
	<circle cx="616.215" cy="1058.78" r="1" fill="rgb(0,0,0)" />
	<circle cx="616.215" cy="689.75" r="1" fill="rgb(0,0,0)" />
	<circle cx="617.493" cy="974.971" r="1" fill="rgb(0,0,0)" />
	<circle cx="620.962" cy="979.021" r="1" fill="rgb(0,0,0)" />
	<circle cx="621.466" cy="175.925" r="1" fill="rgb(0,0,0)" />
	<circle cx="621.563" cy="173.917" r="1" fill="rgb(0,0,0)" />
	<circle cx="621.66" cy="571.708" r="1" fill="rgb(0,0,0)" />
	<circle cx="627.445" cy="920.469" r="1" fill="rgb(0,0,0)" />
	<circle cx="628.442" cy="581.31" r="1" fill="rgb(0,0,0)" />
	<circle cx="633.103" cy="598.551" r="1" fill="rgb(0,0,0)" />
	<circle cx="633.733" cy="666.057" r="1" fill="rgb(0,0,0)" />
	<circle cx="635.872" cy="451.381" r="1" fill="rgb(0,0,0)" />
	<circle cx="637.73" cy="894.06" r="1" fill="rgb(0,0,0)" />
	<circle cx="642.674" cy="869.76" r="1" fill="rgb(0,0,0)" />
	<circle cx="643.445" cy="559.381" r="1" fill="rgb(0,0,0)" />
	<circle cx="643.918" cy="600.886" r="1" fill="rgb(0,0,0)" />
	<circle cx="643.988" cy="597.353" r="1" fill="rgb(0,0,0)" />
	<circle cx="647.905" cy="568.416" r="1" fill="rgb(0,0,0)" />
	<circle cx="648.462" cy="1031.33" r="1" fill="rgb(0,0,0)" />
	<circle cx="653.386" cy="166.087" r="1" fill="rgb(0,0,0)" />
	<circle cx="654.701" cy="747.762" r="1" fill="rgb(0,0,0)" />
	<circle cx="654.847" cy="628.149" r="1" fill="rgb(0,0,0)" />
	<circle cx="655.535" cy="882.01" r="1" fill="rgb(0,0,0)" />
	<circle cx="656.649" cy="492.529" r="1" fill="rgb(0,0,0)" />
	<circle cx="658.077" cy="882.364" r="1" fill="rgb(0,0,0)" />
	<circle cx="660.192" cy="993.597" r="1" fill="rgb(0,0,0)" />
	<circle cx="660.626" cy="543.255" r="1" fill="rgb(0,0,0)" />
	<circle cx="661.957" cy="549.206" r="1" fill="rgb(0,0,0)" />
	<circle cx="662.404" cy="275.622" r="1" fill="rgb(0,0,0)" />
	<circle cx="663.251" cy="543.201" r="1" fill="rgb(0,0,0)" />
	<circle cx="663.778" cy="471.231" r="1" fill="rgb(0,0,0)" />
	<circle cx="665.339" cy="327.738" r="1" fill="rgb(0,0,0)" />
	<circle cx="665.67" cy="335.385" r="1" fill="rgb(0,0,0)" />
	<circle cx="667.018" cy="565.02" r="1" fill="rgb(0,0,0)" />
	<circle cx="667.348" cy="619.295" r="1" fill="rgb(0,0,0)" />
	<circle cx="670.043" cy="688.899" r="1" fill="rgb(0,0,0)" />
	<circle cx="672.535" cy="518.671" r="1" fill="rgb(0,0,0)" />
	<circle cx="674.207" cy="810.547" r="1" fill="rgb(0,0,0)" />
	<circle cx="678.183" cy="341.393" r="1" fill="rgb(0,0,0)" />
	<circle cx="681.239" cy="346.464" r="1" fill="rgb(0,0,0)" />
	<circle cx="683.515" cy="383.742" r="1" fill="rgb(0,0,0)" />
	<circle cx="685.373" cy="912.396" r="1" fill="rgb(0,0,0)" />
	<circle cx="685.376" cy="1005.6" r="1" fill="rgb(0,0,0)" />
	<circle cx="686.767" cy="732.619" r="1" fill="rgb(0,0,0)" />
	<circle cx="687.028" cy="742.421" r="1" fill="rgb(0,0,0)" />
	<circle cx="689.146" cy="892.059" r="1" fill="rgb(0,0,0)" />
	<circle cx="690.49" cy="942.838" r="1" fill="rgb(0,0,0)" />
	<circle cx="692.098" cy="889.637" r="1" fill="rgb(0,0,0)" />
	<circle cx="693.466" cy="744.199" r="1" fill="rgb(0,0,0)" />
	<circle cx="693.623" cy="311.598" r="1" fill="rgb(0,0,0)" />
	<circle cx="694.517" cy="450.891" r="1" fill="rgb(0,0,0)" />
	<circle cx="694.654" cy="895.125" r="1" fill="rgb(0,0,0)" />
	<circle cx="695.168" cy="309.427" r="1" fill="rgb(0,0,0)" />
	<circle cx="697.083" cy="263.265" r="1" fill="rgb(0,0,0)" />
	<circle cx="697.413" cy="313.173" r="1" fill="rgb(0,0,0)" />
	<circle cx="697.533" cy="893.513" r="1" fill="rgb(0,0,0)" />
	<circle cx="697.57" cy="985.683" r="1" fill="rgb(0,0,0)" />
	<circle cx="700.292" cy="638.124" r="1" fill="rgb(0,0,0)" />
	<circle cx="700.982" cy="708.442" r="1" fill="rgb(0,0,0)" />
	<circle cx="703.511" cy="987.448" r="1" fill="rgb(0,0,0)" />
	<circle cx="704.252" cy="593.47" r="1" fill="rgb(0,0,0)" />
	<circle cx="704.379" cy="470.971" r="1" fill="rgb(0,0,0)" />
	<circle cx="709.533" cy="970.431" r="1" fill="rgb(0,0,0)" />
	<circle cx="710.14" cy="906.297" r="1" fill="rgb(0,0,0)" />
	<circle cx="711.815" cy="713.42" r="1" fill="rgb(0,0,0)" />
	<circle cx="713.106" cy="904.352" r="1" fill="rgb(0,0,0)" />
	<circle cx="718.54" cy="422.321" r="1" fill="rgb(0,0,0)" />
	<circle cx="719.378" cy="422.217" r="1" fill="rgb(0,0,0)" />
	<circle cx="721.867" cy="442.057" r="1" fill="rgb(0,0,0)" />
	<circle cx="721.907" cy="848.996" r="1" fill="rgb(0,0,0)" />
	<circle cx="723.181" cy="643.725" r="1" fill="rgb(0,0,0)" />
	<circle cx="724.702" cy="414.681" r="1" fill="rgb(0,0,0)" />
	<circle cx="725.023" cy="114.16" r="1" fill="rgb(0,0,0)" />
	<circle cx="727.198" cy="111.135" r="1" fill="rgb(0,0,0)" />
	<circle cx="734.264" cy="202.104" r="1" fill="rgb(0,0,0)" />
	<circle cx="734.407" cy="127.125" r="1" fill="rgb(0,0,0)" />
	<circle cx="735.872" cy="575.368" r="1" fill="rgb(0,0,0)" />
	<circle cx="735.935" cy="1033.32" r="1" fill="rgb(0,0,0)" />
	<circle cx="736.439" cy="686.424" r="1" fill="rgb(0,0,0)" />
	<circle cx="738.497" cy="177.533" r="1" fill="rgb(0,0,0)" />
	<circle cx="738.697" cy="917.213" r="1" fill="rgb(0,0,0)" />
	<circle cx="738.727" cy="901.944" r="1" fill="rgb(0,0,0)" />
	<circle cx="740.449" cy="911.712" r="1" fill="rgb(0,0,0)" />
	<circle cx="743.521" cy="182.858" r="1" fill="rgb(0,0,0)" />
	<circle cx="743.892" cy="900.949" r="1" fill="rgb(0,0,0)" />
	<circle cx="745.55" cy="269.497" r="1" fill="rgb(0,0,0)" />
	<circle cx="748.078" cy="396.065" r="1" fill="rgb(0,0,0)" />
	<circle cx="748.198" cy="460.466" r="1" fill="rgb(0,0,0)" />
	<circle cx="751.081" cy="592.926" r="1" fill="rgb(0,0,0)" />
	<circle cx="755.668" cy="392.759" r="1" fill="rgb(0,0,0)" />
	<circle cx="756.782" cy="63.3815" r="1" fill="rgb(0,0,0)" />
	<circle cx="758.307" cy="348.569" r="1" fill="rgb(0,0,0)" />
	<circle cx="761.863" cy="482.164" r="1" fill="rgb(0,0,0)" />
	<circle cx="763.438" cy="560.809" r="1" fill="rgb(0,0,0)" />
	<circle cx="764.575" cy="679.495" r="1" fill="rgb(0,0,0)" />
	<circle cx="764.769" cy="463.672" r="1" fill="rgb(0,0,0)" />
	<circle cx="764.776" cy="461.827" r="1" fill="rgb(0,0,0)" />
	<circle cx="766.15" cy="450.147" r="1" fill="rgb(0,0,0)" />
	<circle cx="769.089" cy="453.7" r="1" fill="rgb(0,0,0)" />
	<circle cx="770.103" cy="452.739" r="1" fill="rgb(0,0,0)" />
	<circle cx="771.164" cy="460.709" r="1" fill="rgb(0,0,0)" />
	<circle cx="771.868" cy="670.501" r="1" fill="rgb(0,0,0)" />
	<circle cx="772.058" cy="284.983" r="1" fill="rgb(0,0,0)" />
	<circle cx="772.135" cy="285.046" r="1" fill="rgb(0,0,0)" />
	<circle cx="773.85" cy="458.127" r="1" fill="rgb(0,0,0)" />
	<circle cx="777.056" cy="879.221" r="1" fill="rgb(0,0,0)" />
	<circle cx="778.897" cy="464.663" r="1" fill="rgb(0,0,0)" />
	<circle cx="779.475" cy="77.5466" r="1" fill="rgb(0,0,0)" />
	<circle cx="780.375" cy="461.443" r="1" fill="rgb(0,0,0)" />
	<circle cx="780.989" cy="1058.83" r="1" fill="rgb(0,0,0)" />
	<circle cx="781.907" cy="461.653" r="1" fill="rgb(0,0,0)" />
	<circle cx="782.29" cy="259.952" r="1" fill="rgb(0,0,0)" />
	<circle cx="782.404" cy="439.622" r="1" fill="rgb(0,0,0)" />
	<circle cx="782.54" cy="771.205" r="1" fill="rgb(0,0,0)" />
	<circle cx="784.659" cy="646.084" r="1" fill="rgb(0,0,0)" />
	<circle cx="789.726" cy="972.022" r="1" fill="rgb(0,0,0)" />
	<circle cx="790.53" cy="508.459" r="1" fill="rgb(0,0,0)" />
	<circle cx="792.692" cy="812.075" r="1" fill="rgb(0,0,0)" />
	<circle cx="793.963" cy="949.273" r="1" fill="rgb(0,0,0)" />
	<circle cx="794.454" cy="71.8986" r="1" fill="rgb(0,0,0)" />
	<circle cx="798.764" cy="764.105" r="1" fill="rgb(0,0,0)" />
	<circle cx="799.465" cy="616.693" r="1" fill="rgb(0,0,0)" />
	<circle cx="801.68" cy="316.262" r="1" fill="rgb(0,0,0)" />
	<circle cx="804.195" cy="1013.17" r="1" fill="rgb(0,0,0)" />
	<circle cx="808.122" cy="809.897" r="1" fill="rgb(0,0,0)" />
	<circle cx="813.626" cy="893.45" r="1" fill="rgb(0,0,0)" />
	<circle cx="818.444" cy="505.83" r="1" fill="rgb(0,0,0)" />
	<circle cx="821.189" cy="657.68" r="1" fill="rgb(0,0,0)" />
	<circle cx="821.299" cy="508.039" r="1" fill="rgb(0,0,0)" />
	<circle cx="822.46" cy="374.374" r="1" fill="rgb(0,0,0)" />
	<circle cx="824.509" cy="722.02" r="1" fill="rgb(0,0,0)" />
	<circle cx="824.982" cy="393.954" r="1" fill="rgb(0,0,0)" />
	<circle cx="826.45" cy="614.841" r="1" fill="rgb(0,0,0)" />
	<circle cx="827.822" cy="675.765" r="1" fill="rgb(0,0,0)" />
	<circle cx="829.196" cy="675.155" r="1" fill="rgb(0,0,0)" />
	<circle cx="829.503" cy="117.25" r="1" fill="rgb(0,0,0)" />
	<circle cx="832.182" cy="469.453" r="1" fill="rgb(0,0,0)" />
	<circle cx="833.67" cy="1021.93" r="1" fill="rgb(0,0,0)" />
	<circle cx="834.671" cy="100.883" r="1" fill="rgb(0,0,0)" />
	<circle cx="835.064" cy="468.953" r="1" fill="rgb(0,0,0)" />
	<circle cx="836.435" cy="947.535" r="1" fill="rgb(0,0,0)" />
	<circle cx="840.239" cy="256.763" r="1" fill="rgb(0,0,0)" />
	<circle cx="841.233" cy="255.975" r="1" fill="rgb(0,0,0)" />
	<circle cx="842.007" cy="896.192" r="1" fill="rgb(0,0,0)" />
	<circle cx="842.25" cy="459.158" r="1" fill="rgb(0,0,0)" />
	<circle cx="843.341" cy="894.481" r="1" fill="rgb(0,0,0)" />
	<circle cx="843.421" cy="481.27" r="1" fill="rgb(0,0,0)" />
	<circle cx="843.855" cy="980.599" r="1" fill="rgb(0,0,0)" />
	<circle cx="844.145" cy="710.884" r="1" fill="rgb(0,0,0)" />
	<circle cx="844.529" cy="1004.1" r="1" fill="rgb(0,0,0)" />
	<circle cx="846.774" cy="764.586" r="1" fill="rgb(0,0,0)" />
	<circle cx="847.815" cy="912.382" r="1" fill="rgb(0,0,0)" />
	<circle cx="848.992" cy="69.253" r="1" fill="rgb(0,0,0)" />
	<circle cx="849.279" cy="856.282" r="1" fill="rgb(0,0,0)" />
	<circle cx="856.485" cy="563.798" r="1" fill="rgb(0,0,0)" />
	<circle cx="858.677" cy="212.579" r="1" fill="rgb(0,0,0)" />
	<circle cx="859.581" cy="893.096" r="1" fill="rgb(0,0,0)" />
	<circle cx="860.512" cy="163.498" r="1" fill="rgb(0,0,0)" />
	<circle cx="865.993" cy="652.352" r="1" fill="rgb(0,0,0)" />
	<circle cx="869.566" cy="68.6125" r="1" fill="rgb(0,0,0)" />
	<circle cx="871.511" cy="299.742" r="1" fill="rgb(0,0,0)" />
	<circle cx="873.106" cy="467.341" r="1" fill="rgb(0,0,0)" />
	<circle cx="873.43" cy="715.475" r="1" fill="rgb(0,0,0)" />
	<circle cx="877.576" cy="661.12" r="1" fill="rgb(0,0,0)" />
	<circle cx="880.869" cy="952.446" r="1" fill="rgb(0,0,0)" />
	<circle cx="881.943" cy="637.897" r="1" fill="rgb(0,0,0)" />
	<circle cx="889.289" cy="226.961" r="1" fill="rgb(0,0,0)" />
	<circle cx="891.738" cy="759.005" r="1" fill="rgb(0,0,0)" />
	<circle cx="894.854" cy="419.258" r="1" fill="rgb(0,0,0)" />
	<circle cx="895.074" cy="814.11" r="1" fill="rgb(0,0,0)" />
	<circle cx="897.533" cy="405.233" r="1" fill="rgb(0,0,0)" />
	<circle cx="897.843" cy="405.727" r="1" fill="rgb(0,0,0)" />
	<circle cx="899.181" cy="260.913" r="1" fill="rgb(0,0,0)" />
	<circle cx="900.452" cy="526.134" r="1" fill="rgb(0,0,0)" />
	<circle cx="900.525" cy="881.156" r="1" fill="rgb(0,0,0)" />
	<circle cx="901.476" cy="807.008" r="1" fill="rgb(0,0,0)" />
	<circle cx="903.341" cy="885.11" r="1" fill="rgb(0,0,0)" />
	<circle cx="904.992" cy="584.319" r="1" fill="rgb(0,0,0)" />
	<circle cx="907.118" cy="656.963" r="1" fill="rgb(0,0,0)" />
	<circle cx="915.098" cy="803.528" r="1" fill="rgb(0,0,0)" />
	<circle cx="916.792" cy="996.339" r="1" fill="rgb(0,0,0)" />
	<circle cx="916.859" cy="953.34" r="1" fill="rgb(0,0,0)" />
	<circle cx="919.208" cy="776.306" r="1" fill="rgb(0,0,0)" />
	<circle cx="921.023" cy="495.335" r="1" fill="rgb(0,0,0)" />
	<circle cx="921.763" cy="826.998" r="1" fill="rgb(0,0,0)" />
	<circle cx="922.073" cy="907.985" r="1" fill="rgb(0,0,0)" />
	<circle cx="926.934" cy="677.894" r="1" fill="rgb(0,0,0)" />
	<circle cx="928.465" cy="310.137" r="1" fill="rgb(0,0,0)" />
	<circle cx="930.314" cy="76.389" r="1" fill="rgb(0,0,0)" />
	<circle cx="931.558" cy="697.09" r="1" fill="rgb(0,0,0)" />
	<circle cx="932.786" cy="745.45" r="1" fill="rgb(0,0,0)" />
	<circle cx="933.47" cy="179.298" r="1" fill="rgb(0,0,0)" />
	<circle cx="934.717" cy="506.007" r="1" fill="rgb(0,0,0)" />
	<circle cx="935.421" cy="989.306" r="1" fill="rgb(0,0,0)" />
	<circle cx="936.022" cy="988.362" r="1" fill="rgb(0,0,0)" />
	<circle cx="936.706" cy="244.399" r="1" fill="rgb(0,0,0)" />
	<circle cx="937.837" cy="1034.19" r="1" fill="rgb(0,0,0)" />
	<circle cx="939.041" cy="1069.48" r="1" fill="rgb(0,0,0)" />
	<circle cx="939.041" cy="645.76" r="1" fill="rgb(0,0,0)" />
	<circle cx="939.761" cy="642.207" r="1" fill="rgb(0,0,0)" />
	<circle cx="940.589" cy="923.248" r="1" fill="rgb(0,0,0)" />
	<circle cx="947.218" cy="1062.88" r="1" fill="rgb(0,0,0)" />
	<circle cx="947.975" cy="867.558" r="1" fill="rgb(0,0,0)" />
	<circle cx="950.394" cy="785.653" r="1" fill="rgb(0,0,0)" />
	<circle cx="951.775" cy="556.643" r="1" fill="rgb(0,0,0)" />
	<circle cx="952.055" cy="509.38" r="1" fill="rgb(0,0,0)" />
	<circle cx="963.158" cy="993.02" r="1" fill="rgb(0,0,0)" />
	<circle cx="964.435" cy="459.171" r="1" fill="rgb(0,0,0)" />
	<circle cx="965.236" cy="141.276" r="1" fill="rgb(0,0,0)" />
	<circle cx="966.417" cy="834.074" r="1" fill="rgb(0,0,0)" />
	<circle cx="966.637" cy="834.611" r="1" fill="rgb(0,0,0)" />
	<circle cx="969.943" cy="611.108" r="1" fill="rgb(0,0,0)" />
	<circle cx="977.076" cy="745.633" r="1" fill="rgb(0,0,0)" />
	<circle cx="977.957" cy="747.091" r="1" fill="rgb(0,0,0)" />
	<circle cx="978.01" cy="741.884" r="1" fill="rgb(0,0,0)" />
	<circle cx="984.979" cy="875.328" r="1" fill="rgb(0,0,0)" />
	<circle cx="988.786" cy="102.658" r="1" fill="rgb(0,0,0)" />
	<circle cx="991.611" cy="1043.67" r="1" fill="rgb(0,0,0)" />
	<circle cx="992.826" cy="1001.42" r="1" fill="rgb(0,0,0)" />
	<circle cx="994.304" cy="1003.72" r="1" fill="rgb(0,0,0)" />
	<circle cx="995.948" cy="766.868" r="1" fill="rgb(0,0,0)" />
	<circle cx="996.639" cy="970.958" r="1" fill="rgb(0,0,0)" />
	<circle cx="997.246" cy="968.969" r="1" fill="rgb(0,0,0)" />
	<circle cx="997.87" cy="766.037" r="1" fill="rgb(0,0,0)" />
	<circle cx="998.811" cy="547.255" r="1" fill="rgb(0,0,0)" />
	<circle cx="1000.72" cy="298.808" r="1" fill="rgb(0,0,0)" />
	<circle cx="1001.93" cy="546.604" r="1" fill="rgb(0,0,0)" />
	<circle cx="1003.34" cy="75.1046" r="1" fill="rgb(0,0,0)" />
	<circle cx="1003.58" cy="452.953" r="1" fill="rgb(0,0,0)" />
	<circle cx="1006.92" cy="760.429" r="1" fill="rgb(0,0,0)" />
	<circle cx="1010.44" cy="304.733" r="1" fill="rgb(0,0,0)" />
	<circle cx="1020.32" cy="1031.82" r="1" fill="rgb(0,0,0)" />
	<circle cx="1021.69" cy="130.924" r="1" fill="rgb(0,0,0)" />
	<circle cx="1026.45" cy="184.656" r="1" fill="rgb(0,0,0)" />
	<circle cx="1026.54" cy="706.991" r="1" fill="rgb(0,0,0)" />
	<circle cx="1030.06" cy="139.025" r="1" fill="rgb(0,0,0)" />
	<circle cx="1031.43" cy="1042.19" r="1" fill="rgb(0,0,0)" />
	<circle cx="1033.45" cy="929.103" r="1" fill="rgb(0,0,0)" />
	<circle cx="1034.85" cy="1050.06" r="1" fill="rgb(0,0,0)" />
	<circle cx="1036.38" cy="888.479" r="1" fill="rgb(0,0,0)" />
	<circle cx="1040.64" cy="382.511" r="1" fill="rgb(0,0,0)" />
	<circle cx="1042.38" cy="256.299" r="1" fill="rgb(0,0,0)" />
	<circle cx="1050" cy="355.642" r="1" fill="rgb(0,0,0)" />
</svg>
