<?xml version="1.0" standalone="no" ?>
<!DOCTYPE svg PUBLIC "-//W3C//DTD SVG 1.1//EN" "http://www.w3.org/Graphics/SVG/1.1/DTD/svg11.dtd">
<svg width="1100px" height="1011.34px" xmlns="http://www.w3.org/2000/svg" version="1.1" >
	<circle cx="50" cy="160.705" r="1" fill="rgb(0,0,0)" />
	<circle cx="58.3404" cy="713.161" r="1" fill="rgb(0,0,0)" />
	<circle cx="94.5826" cy="217.024" r="1" fill="rgb(0,0,0)" />
	<circle cx="116.592" cy="45.9698" r="1" fill="rgb(0,0,0)" />
	<circle cx="171.324" cy="666.304" r="1" fill="rgb(0,0,0)" />
	<circle cx="195.455" cy="530.809" r="1" fill="rgb(0,0,0)" />
	<circle cx="220.433" cy="495.047" r="1" fill="rgb(0,0,0)" />
	<circle cx="257.918" cy="347.201" r="1" fill="rgb(0,0,0)" />
	<circle cx="292.038" cy="251.606" r="1" fill="rgb(0,0,0)" />
	<circle cx="300.005" cy="198.647" r="1" fill="rgb(0,0,0)" />
	<circle cx="305.751" cy="665.959" r="1" fill="rgb(0,0,0)" />
	<circle cx="312.926" cy="801.498" r="1" fill="rgb(0,0,0)" />
	<circle cx="329.345" cy="704.515" r="1" fill="rgb(0,0,0)" />
	<circle cx="369.539" cy="293.486" r="1" fill="rgb(0,0,0)" />
	<circle cx="388.218" cy="946.238" r="1" fill="rgb(0,0,0)" />
	<circle cx="416.523" cy="900.438" r="1" fill="rgb(0,0,0)" />
	<circle cx="419.589" cy="641.381" r="1" fill="rgb(0,0,0)" />
	<circle cx="422.778" cy="329.383" r="1" fill="rgb(0,0,0)" />
	<circle cx="456.561" cy="432.156" r="1" fill="rgb(0,0,0)" />
	<circle cx="465.559" cy="90.2182" r="1" fill="rgb(0,0,0)" />
	<circle cx="477.408" cy="719.245" r="1" fill="rgb(0,0,0)" />
	<circle cx="497.319" cy="707.349" r="1" fill="rgb(0,0,0)" />
	<circle cx="534.077" cy="502.123" r="1" fill="rgb(0,0,0)" />
	<circle cx="558.553" cy="945.642" r="1" fill="rgb(0,0,0)" />
	<circle cx="565.422" cy="965.367" r="1" fill="rgb(0,0,0)" />
	<circle cx="578.863" cy="339.336" r="1" fill="rgb(0,0,0)" />
	<circle cx="596.397" cy="123.616" r="1" fill="rgb(0,0,0)" />
	<circle cx="599.292" cy="90.9484" r="1" fill="rgb(0,0,0)" />
	<circle cx="635.197" cy="574.509" r="1" fill="rgb(0,0,0)" />
	<circle cx="653.933" cy="807.724" r="1" fill="rgb(0,0,0)" />
	<circle cx="654.565" cy="417.153" r="1" fill="rgb(0,0,0)" />
	<circle cx="680.164" cy="227.882" r="1" fill="rgb(0,0,0)" />
	<circle cx="696.369" cy="659.017" r="1" fill="rgb(0,0,0)" />
	<circle cx="780.318" cy="532.927" r="1" fill="rgb(0,0,0)" />
	<circle cx="783.896" cy="348.196" r="1" fill="rgb(0,0,0)" />
	<circle cx="793.628" cy="156.574" r="1" fill="rgb(0,0,0)" />
	<circle cx="877.515" cy="770.955" r="1" fill="rgb(0,0,0)" />
	<circle cx="911.181" cy="379.56" r="1" fill="rgb(0,0,0)" />
	<circle cx="914.098" cy="161.231" r="1" fill="rgb(0,0,0)" />
	<circle cx="1050" cy="312.023" r="1" fill="rgb(0,0,0)" />
</svg>
