<?xml version="1.0" standalone="no" ?>
<!DOCTYPE svg PUBLIC "-//W3C//DTD SVG 1.1//EN" "http://www.w3.org/Graphics/SVG/1.1/DTD/svg11.dtd">
<svg width="1100px" height="1130.28px" xmlns="http://www.w3.org/2000/svg" version="1.1" >
	<circle cx="50" cy="757.896" r="1" fill="rgb(0,0,0)" />
	<circle cx="55.2811" cy="264.608" r="1" fill="rgb(0,0,0)" />
	<circle cx="60.3785" cy="510.111" r="1" fill="rgb(0,0,0)" />
	<circle cx="65.369" cy="562.819" r="1" fill="rgb(0,0,0)" />
	<circle cx="73.3825" cy="675.773" r="1" fill="rgb(0,0,0)" />
	<circle cx="74.3813" cy="51.3762" r="1" fill="rgb(0,0,0)" />
	<circle cx="75.1696" cy="937.523" r="1" fill="rgb(0,0,0)" />
	<circle cx="80.7413" cy="349.72" r="1" fill="rgb(0,0,0)" />
	<circle cx="88.658" cy="743.702" r="1" fill="rgb(0,0,0)" />
	<circle cx="89.1791" cy="52.7358" r="1" fill="rgb(0,0,0)" />
	<circle cx="90.7591" cy="601.66" r="1" fill="rgb(0,0,0)" />
	<circle cx="93.0739" cy="1020.14" r="1" fill="rgb(0,0,0)" />
	<circle cx="93.1908" cy="973.953" r="1" fill="rgb(0,0,0)" />
	<circle cx="94.871" cy="793.237" r="1" fill="rgb(0,0,0)" />
	<circle cx="97.0456" cy="979.789" r="1" fill="rgb(0,0,0)" />
	<circle cx="104.288" cy="496.713" r="1" fill="rgb(0,0,0)" />
	<circle cx="105.353" cy="691.282" r="1" fill="rgb(0,0,0)" />
	<circle cx="110.377" cy="304.051" r="1" fill="rgb(0,0,0)" />
	<circle cx="114.987" cy="1020.23" r="1" fill="rgb(0,0,0)" />
	<circle cx="115.017" cy="1021.77" r="1" fill="rgb(0,0,0)" />
	<circle cx="122.89" cy="409.563" r="1" fill="rgb(0,0,0)" />
	<circle cx="125.298" cy="594.746" r="1" fill="rgb(0,0,0)" />
	<circle cx="130.068" cy="986.861" r="1" fill="rgb(0,0,0)" />
	<circle cx="130.877" cy="711.094" r="1" fill="rgb(0,0,0)" />
	<circle cx="140.791" cy="188.558" r="1" fill="rgb(0,0,0)" />
	<circle cx="140.991" cy="105.931" r="1" fill="rgb(0,0,0)" />
	<circle cx="151.163" cy="808.896" r="1" fill="rgb(0,0,0)" />
	<circle cx="154.911" cy="513.475" r="1" fill="rgb(0,0,0)" />
	<circle cx="156.728" cy="509.366" r="1" fill="rgb(0,0,0)" />
	<circle cx="157.399" cy="507.469" r="1" fill="rgb(0,0,0)" />
	<circle cx="159.277" cy="513.097" r="1" fill="rgb(0,0,0)" />
	<circle cx="162.109" cy="320.405" r="1" fill="rgb(0,0,0)" />
	<circle cx="163.161" cy="316.15" r="1" fill="rgb(0,0,0)" />
	<circle cx="165.279" cy="361.949" r="1" fill="rgb(0,0,0)" />
	<circle cx="166.679" cy="324.264" r="1" fill="rgb(0,0,0)" />
	<circle cx="167.093" cy="1044.15" r="1" fill="rgb(0,0,0)" />
	<circle cx="170.116" cy="969.668" r="1" fill="rgb(0,0,0)" />
	<circle cx="170.968" cy="171.462" r="1" fill="rgb(0,0,0)" />
	<circle cx="171.97" cy="171.572" r="1" fill="rgb(0,0,0)" />
	<circle cx="174.352" cy="635.02" r="1" fill="rgb(0,0,0)" />
	<circle cx="176.185" cy="635.952" r="1" fill="rgb(0,0,0)" />
	<circle cx="176.633" cy="637.77" r="1" fill="rgb(0,0,0)" />
	<circle cx="177.398" cy="517.38" r="1" fill="rgb(0,0,0)" />
	<circle cx="182.499" cy="172.885" r="1" fill="rgb(0,0,0)" />
	<circle cx="187.075" cy="815.701" r="1" fill="rgb(0,0,0)" />
	<circle cx="188.625" cy="490.687" r="1" fill="rgb(0,0,0)" />
	<circle cx="190.88" cy="1043.36" r="1" fill="rgb(0,0,0)" />
	<circle cx="195.676" cy="1047.41" r="1" fill="rgb(0,0,0)" />
	<circle cx="202.227" cy="1049.08" r="1" fill="rgb(0,0,0)" />
	<circle cx="202.992" cy="514.654" r="1" fill="rgb(0,0,0)" />
	<circle cx="206.138" cy="1038.45" r="1" fill="rgb(0,0,0)" />
	<circle cx="207.488" cy="342.746" r="1" fill="rgb(0,0,0)" />
	<circle cx="208.617" cy="199.695" r="1" fill="rgb(0,0,0)" />
	<circle cx="208.694" cy="1030.27" r="1" fill="rgb(0,0,0)" />
	<circle cx="208.774" cy="504.232" r="1" fill="rgb(0,0,0)" />
	<circle cx="213.701" cy="743.529" r="1" fill="rgb(0,0,0)" />
	<circle cx="214.342" cy="405.551" r="1" fill="rgb(0,0,0)" />
	<circle cx="214.957" cy="786.943" r="1" fill="rgb(0,0,0)" />
	<circle cx="220.058" cy="407.175" r="1" fill="rgb(0,0,0)" />
	<circle cx="222.279" cy="904.671" r="1" fill="rgb(0,0,0)" />
	<circle cx="224.971" cy="538.481" r="1" fill="rgb(0,0,0)" />
	<circle cx="228.626" cy="724.465" r="1" fill="rgb(0,0,0)" />
	<circle cx="231.438" cy="84.9435" r="1" fill="rgb(0,0,0)" />
	<circle cx="235.487" cy="284.109" r="1" fill="rgb(0,0,0)" />
	<circle cx="235.881" cy="1070.26" r="1" fill="rgb(0,0,0)" />
	<circle cx="237.083" cy="632.442" r="1" fill="rgb(0,0,0)" />
	<circle cx="240.471" cy="612.63" r="1" fill="rgb(0,0,0)" />
	<circle cx="241.413" cy="569.93" r="1" fill="rgb(0,0,0)" />
	<circle cx="241.723" cy="209.359" r="1" fill="rgb(0,0,0)" />
	<circle cx="244.716" cy="1007.56" r="1" fill="rgb(0,0,0)" />
	<circle cx="249.857" cy="750.71" r="1" fill="rgb(0,0,0)" />
	<circle cx="251.27" cy="1049.23" r="1" fill="rgb(0,0,0)" />
	<circle cx="252.596" cy="210.982" r="1" fill="rgb(0,0,0)" />
	<circle cx="259.771" cy="948.74" r="1" fill="rgb(0,0,0)" />
	<circle cx="261.662" cy="947.167" r="1" fill="rgb(0,0,0)" />
	<circle cx="262.534" cy="759.629" r="1" fill="rgb(0,0,0)" />
	<circle cx="268.142" cy="918.68" r="1" fill="rgb(0,0,0)" />
	<circle cx="268.62" cy="497.458" r="1" fill="rgb(0,0,0)" />
	<circle cx="277.562" cy="236.509" r="1" fill="rgb(0,0,0)" />
	<circle cx="279.419" cy="429.448" r="1" fill="rgb(0,0,0)" />
	<circle cx="280.986" cy="149.543" r="1" fill="rgb(0,0,0)" />
	<circle cx="286.384" cy="907.697" r="1" fill="rgb(0,0,0)" />
	<circle cx="289.467" cy="1059.69" r="1" fill="rgb(0,0,0)" />
	<circle cx="291.555" cy="288.305" r="1" fill="rgb(0,0,0)" />
	<circle cx="300.4" cy="286.584" r="1" fill="rgb(0,0,0)" />
	<circle cx="301.245" cy="879.151" r="1" fill="rgb(0,0,0)" />
	<circle cx="304.529" cy="1042.57" r="1" fill="rgb(0,0,0)" />
	<circle cx="312.419" cy="941.298" r="1" fill="rgb(0,0,0)" />
	<circle cx="314.226" cy="636.52" r="1" fill="rgb(0,0,0)" />
	<circle cx="315.685" cy="606.474" r="1" fill="rgb(0,0,0)" />
	<circle cx="321.922" cy="241.59" r="1" fill="rgb(0,0,0)" />
	<circle cx="325.55" cy="740.289" r="1" fill="rgb(0,0,0)" />
	<circle cx="331.118" cy="323.702" r="1" fill="rgb(0,0,0)" />
	<circle cx="334.228" cy="244.048" r="1" fill="rgb(0,0,0)" />
	<circle cx="336.99" cy="889.967" r="1" fill="rgb(0,0,0)" />
	<circle cx="337.595" cy="869.28" r="1" fill="rgb(0,0,0)" />
	<circle cx="344.008" cy="381.26" r="1" fill="rgb(0,0,0)" />
	<circle cx="344.917" cy="383.692" r="1" fill="rgb(0,0,0)" />
	<circle cx="345.261" cy="386.267" r="1" fill="rgb(0,0,0)" />
	<circle cx="347.76" cy="391.011" r="1" fill="rgb(0,0,0)" />
	<circle cx="351.13" cy="781.525" r="1" fill="rgb(0,0,0)" />
	<circle cx="352.353" cy="777.026" r="1" fill="rgb(0,0,0)" />
	<circle cx="353.318" cy="852.424" r="1" fill="rgb(0,0,0)" />
	<circle cx="354.18" cy="567.245" r="1" fill="rgb(0,0,0)" />
	<circle cx="354.37" cy="395.072" r="1" fill="rgb(0,0,0)" />
	<circle cx="355.409" cy="205.23" r="1" fill="rgb(0,0,0)" />
	<circle cx="358.459" cy="303.891" r="1" fill="rgb(0,0,0)" />
	<circle cx="361.178" cy="490.37" r="1" fill="rgb(0,0,0)" />
	<circle cx="363.423" cy="399.555" r="1" fill="rgb(0,0,0)" />
	<circle cx="363.783" cy="783.028" r="1" fill="rgb(0,0,0)" />
	<circle cx="364.127" cy="341.129" r="1" fill="rgb(0,0,0)" />
	<circle cx="370.858" cy="333.74" r="1" fill="rgb(0,0,0)" />
	<circle cx="371.155" cy="332.982" r="1" fill="rgb(0,0,0)" />
	<circle cx="373.941" cy="104.381" r="1" fill="rgb(0,0,0)" />
	<circle cx="377.813" cy="468.534" r="1" fill="rgb(0,0,0)" />
	<circle cx="379.319" cy="927.997" r="1" fill="rgb(0,0,0)" />
	<circle cx="381.574" cy="426.218" r="1" fill="rgb(0,0,0)" />
	<circle cx="386.875" cy="71.6656" r="1" fill="rgb(0,0,0)" />
	<circle cx="396.526" cy="324.37" r="1" fill="rgb(0,0,0)" />
	<circle cx="399.245" cy="992.462" r="1" fill="rgb(0,0,0)" />
	<circle cx="406.473" cy="272.628" r="1" fill="rgb(0,0,0)" />
	<circle cx="410.592" cy="731.674" r="1" fill="rgb(0,0,0)" />
	<circle cx="417.346" cy="255.405" r="1" fill="rgb(0,0,0)" />
	<circle cx="417.54" cy="956.69" r="1" fill="rgb(0,0,0)" />
	<circle cx="417.63" cy="689.171" r="1" fill="rgb(0,0,0)" />
	<circle cx="417.974" cy="871.461" r="1" fill="rgb(0,0,0)" />
	<circle cx="418.672" cy="991.968" r="1" fill="rgb(0,0,0)" />
	<circle cx="421.712" cy="739.46" r="1" fill="rgb(0,0,0)" />
	<circle cx="424.281" cy="441.991" r="1" fill="rgb(0,0,0)" />
	<circle cx="424.858" cy="1074.65" r="1" fill="rgb(0,0,0)" />
	<circle cx="431.963" cy="367.768" r="1" fill="rgb(0,0,0)" />
	<circle cx="434.198" cy="491.268" r="1" fill="rgb(0,0,0)" />
	<circle cx="435.217" cy="367.942" r="1" fill="rgb(0,0,0)" />
	<circle cx="435.33" cy="805.145" r="1" fill="rgb(0,0,0)" />
	<circle cx="439.135" cy="786.155" r="1" fill="rgb(0,0,0)" />
	<circle cx="442.095" cy="107.905" r="1" fill="rgb(0,0,0)" />
	<circle cx="447.867" cy="480.305" r="1" fill="rgb(0,0,0)" />
	<circle cx="452.4" cy="366.345" r="1" fill="rgb(0,0,0)" />
	<circle cx="455.794" cy="134.922" r="1" fill="rgb(0,0,0)" />
	<circle cx="460.881" cy="847.284" r="1" fill="rgb(0,0,0)" />
	<circle cx="461.315" cy="1011.05" r="1" fill="rgb(0,0,0)" />
	<circle cx="461.739" cy="542.706" r="1" fill="rgb(0,0,0)" />
	<circle cx="462.641" cy="587.34" r="1" fill="rgb(0,0,0)" />
	<circle cx="463.837" cy="850.056" r="1" fill="rgb(0,0,0)" />
	<circle cx="463.941" cy="985.671" r="1" fill="rgb(0,0,0)" />
	<circle cx="465.4" cy="848.145" r="1" fill="rgb(0,0,0)" />
	<circle cx="465.547" cy="626.676" r="1" fill="rgb(0,0,0)" />
	<circle cx="465.932" cy="797.823" r="1" fill="rgb(0,0,0)" />
	<circle cx="466.322" cy="372.806" r="1" fill="rgb(0,0,0)" />
	<circle cx="469.773" cy="1025.85" r="1" fill="rgb(0,0,0)" />
	<circle cx="471.844" cy="903.228" r="1" fill="rgb(0,0,0)" />
	<circle cx="476.918" cy="742.206" r="1" fill="rgb(0,0,0)" />
	<circle cx="477.793" cy="85.6517" r="1" fill="rgb(0,0,0)" />
	<circle cx="478.591" cy="806.608" r="1" fill="rgb(0,0,0)" />
	<circle cx="479.891" cy="683.973" r="1" fill="rgb(0,0,0)" />
	<circle cx="482.029" cy="761.75" r="1" fill="rgb(0,0,0)" />
	<circle cx="484.09" cy="657.832" r="1" fill="rgb(0,0,0)" />
	<circle cx="486.996" cy="637.659" r="1" fill="rgb(0,0,0)" />
	<circle cx="487.049" cy="637.061" r="1" fill="rgb(0,0,0)" />
	<circle cx="491.375" cy="887.535" r="1" fill="rgb(0,0,0)" />
	<circle cx="496.873" cy="236.439" r="1" fill="rgb(0,0,0)" />
	<circle cx="498.092" cy="653.506" r="1" fill="rgb(0,0,0)" />
	<circle cx="498.303" cy="608.244" r="1" fill="rgb(0,0,0)" />
	<circle cx="498.771" cy="331.335" r="1" fill="rgb(0,0,0)" />
	<circle cx="499.502" cy="659.218" r="1" fill="rgb(0,0,0)" />
	<circle cx="501.9" cy="583.993" r="1" fill="rgb(0,0,0)" />
	<circle cx="504.306" cy="1029.99" r="1" fill="rgb(0,0,0)" />
	<circle cx="504.726" cy="1078.9" r="1" fill="rgb(0,0,0)" />
	<circle cx="504.726" cy="502.903" r="1" fill="rgb(0,0,0)" />
	<circle cx="506.383" cy="956.747" r="1" fill="rgb(0,0,0)" />
	<circle cx="507.953" cy="876.238" r="1" fill="rgb(0,0,0)" />
	<circle cx="511.036" cy="970.914" r="1" fill="rgb(0,0,0)" />
	<circle cx="516.03" cy="349.249" r="1" fill="rgb(0,0,0)" />
	<circle cx="517.41" cy="970.777" r="1" fill="rgb(0,0,0)" />
	<circle cx="517.677" cy="960.842" r="1" fill="rgb(0,0,0)" />
	<circle cx="520.403" cy="1077.28" r="1" fill="rgb(0,0,0)" />
	<circle cx="523.937" cy="597.001" r="1" fill="rgb(0,0,0)" />
	<circle cx="524.201" cy="331.596" r="1" fill="rgb(0,0,0)" />
	<circle cx="525.043" cy="596.526" r="1" fill="rgb(0,0,0)" />
	<circle cx="526.235" cy="529.636" r="1" fill="rgb(0,0,0)" />
	<circle cx="526.81" cy="257.51" r="1" fill="rgb(0,0,0)" />
	<circle cx="528.166" cy="319.2" r="1" fill="rgb(0,0,0)" />
	<circle cx="529.549" cy="619.558" r="1" fill="rgb(0,0,0)" />
	<circle cx="530.143" cy="541.688" r="1" fill="rgb(0,0,0)" />
	<circle cx="534.88" cy="385.669" r="1" fill="rgb(0,0,0)" />
	<circle cx="539.222" cy="169.979" r="1" fill="rgb(0,0,0)" />
	<circle cx="539.82" cy="750.463" r="1" fill="rgb(0,0,0)" />
	<circle cx="541.627" cy="566.834" r="1" fill="rgb(0,0,0)" />
	<circle cx="542.519" cy="414.386" r="1" fill="rgb(0,0,0)" />
	<circle cx="542.736" cy="580.633" r="1" fill="rgb(0,0,0)" />
	<circle cx="542.82" cy="605.248" r="1" fill="rgb(0,0,0)" />
	<circle cx="543.632" cy="77.735" r="1" fill="rgb(0,0,0)" />
	<circle cx="544.113" cy="595.347" r="1" fill="rgb(0,0,0)" />
	<circle cx="544.176" cy="600.328" r="1" fill="rgb(0,0,0)" />
	<circle cx="545.923" cy="422.884" r="1" fill="rgb(0,0,0)" />
	<circle cx="546.895" cy="418.599" r="1" fill="rgb(0,0,0)" />
	<circle cx="547.39" cy="609.741" r="1" fill="rgb(0,0,0)" />
	<circle cx="554.935" cy="811.535" r="1" fill="rgb(0,0,0)" />
	<circle cx="555.37" cy="415.759" r="1" fill="rgb(0,0,0)" />
	<circle cx="555.416" cy="867.185" r="1" fill="rgb(0,0,0)" />
	<circle cx="558.954" cy="665.601" r="1" fill="rgb(0,0,0)" />
	<circle cx="559.772" cy="1022.36" r="1" fill="rgb(0,0,0)" />
	<circle cx="560.16" cy="375.769" r="1" fill="rgb(0,0,0)" />
	<circle cx="560.227" cy="865.388" r="1" fill="rgb(0,0,0)" />
	<circle cx="561.994" cy="940.346" r="1" fill="rgb(0,0,0)" />
	<circle cx="562.114" cy="864.947" r="1" fill="rgb(0,0,0)" />
	<circle cx="564.175" cy="442.472" r="1" fill="rgb(0,0,0)" />
	<circle cx="565.755" cy="400.754" r="1" fill="rgb(0,0,0)" />
	<circle cx="565.792" cy="669.386" r="1" fill="rgb(0,0,0)" />
	<circle cx="566.67" cy="602.175" r="1" fill="rgb(0,0,0)" />
	<circle cx="567.973" cy="602.97" r="1" fill="rgb(0,0,0)" />
	<circle cx="568.07" cy="398.229" r="1" fill="rgb(0,0,0)" />
	<circle cx="569.272" cy="546.598" r="1" fill="rgb(0,0,0)" />
	<circle cx="572.643" cy="940.336" r="1" fill="rgb(0,0,0)" />
	<circle cx="573.618" cy="867.533" r="1" fill="rgb(0,0,0)" />
	<circle cx="575.889" cy="727.311" r="1" fill="rgb(0,0,0)" />
	<circle cx="576.107" cy="214.686" r="1" fill="rgb(0,0,0)" />
	<circle cx="578.044" cy="203.623" r="1" fill="rgb(0,0,0)" />
	<circle cx="579.267" cy="517.076" r="1" fill="rgb(0,0,0)" />
	<circle cx="580.175" cy="517.67" r="1" fill="rgb(0,0,0)" />
	<circle cx="581.398" cy="785.657" r="1" fill="rgb(0,0,0)" />
	<circle cx="584.518" cy="210.304" r="1" fill="rgb(0,0,0)" />
	<circle cx="584.691" cy="214.539" r="1" fill="rgb(0,0,0)" />
	<circle cx="588.032" cy="582.891" r="1" fill="rgb(0,0,0)" />
	<circle cx="589.805" cy="628.787" r="1" fill="rgb(0,0,0)" />
	<circle cx="592.01" cy="967.353" r="1" fill="rgb(0,0,0)" />
	<circle cx="593.563" cy="162.059" r="1" fill="rgb(0,0,0)" />
	<circle cx="593.63" cy="966.488" r="1" fill="rgb(0,0,0)" />
	<circle cx="594.211" cy="458.656" r="1" fill="rgb(0,0,0)" />
	<circle cx="596.179" cy="392.507" r="1" fill="rgb(0,0,0)" />
	<circle cx="599.526" cy="438.661" r="1" fill="rgb(0,0,0)" />
	<circle cx="599.806" cy="635.448" r="1" fill="rgb(0,0,0)" />
	<circle cx="600.855" cy="972.277" r="1" fill="rgb(0,0,0)" />
	<circle cx="601.594" cy="668.995" r="1" fill="rgb(0,0,0)" />
	<circle cx="602.128" cy="437.585" r="1" fill="rgb(0,0,0)" />
	<circle cx="607.078" cy="913.533" r="1" fill="rgb(0,0,0)" />
	<circle cx="609.073" cy="245.688" r="1" fill="rgb(0,0,0)" />
	<circle cx="612.059" cy="636.14" r="1" fill="rgb(0,0,0)" />
	<circle cx="613.041" cy="942.273" r="1" fill="rgb(0,0,0)" />
	<circle cx="613.271" cy="108.927" r="1" fill="rgb(0,0,0)" />
	<circle cx="616.368" cy="712.731" r="1" fill="rgb(0,0,0)" />
	<circle cx="616.492" cy="581.414" r="1" fill="rgb(0,0,0)" />
	<circle cx="616.906" cy="690.641" r="1" fill="rgb(0,0,0)" />
	<circle cx="622.758" cy="642.864" r="1" fill="rgb(0,0,0)" />
	<circle cx="628.994" cy="327.928" r="1" fill="rgb(0,0,0)" />
	<circle cx="633.905" cy="901.912" r="1" fill="rgb(0,0,0)" />
	<circle cx="635.204" cy="672.543" r="1" fill="rgb(0,0,0)" />
	<circle cx="635.381" cy="1036.99" r="1" fill="rgb(0,0,0)" />
	<circle cx="639.66" cy="287.299" r="1" fill="rgb(0,0,0)" />
	<circle cx="641.978" cy="307.261" r="1" fill="rgb(0,0,0)" />
	<circle cx="644.651" cy="880.974" r="1" fill="rgb(0,0,0)" />
	<circle cx="646.728" cy="434.97" r="1" fill="rgb(0,0,0)" />
	<circle cx="652.193" cy="116.209" r="1" fill="rgb(0,0,0)" />
	<circle cx="652.845" cy="961.627" r="1" fill="rgb(0,0,0)" />
	<circle cx="656.583" cy="127.069" r="1" fill="rgb(0,0,0)" />
	<circle cx="658.106" cy="516.271" r="1" fill="rgb(0,0,0)" />
	<circle cx="658.183" cy="497.812" r="1" fill="rgb(0,0,0)" />
	<circle cx="659.295" cy="328.369" r="1" fill="rgb(0,0,0)" />
	<circle cx="665.127" cy="758.834" r="1" fill="rgb(0,0,0)" />
	<circle cx="667.516" cy="538.077" r="1" fill="rgb(0,0,0)" />
	<circle cx="668.377" cy="568.795" r="1" fill="rgb(0,0,0)" />
	<circle cx="668.661" cy="559.745" r="1" fill="rgb(0,0,0)" />
	<circle cx="669.136" cy="540.051" r="1" fill="rgb(0,0,0)" />
	<circle cx="671.45" cy="521.849" r="1" fill="rgb(0,0,0)" />
	<circle cx="673.962" cy="507.238" r="1" fill="rgb(0,0,0)" />
	<circle cx="676.237" cy="481.989" r="1" fill="rgb(0,0,0)" />
	<circle cx="676.321" cy="812.3" r="1" fill="rgb(0,0,0)" />
	<circle cx="676.772" cy="500.02" r="1" fill="rgb(0,0,0)" />
	<circle cx="677.8" cy="487.674" r="1" fill="rgb(0,0,0)" />
	<circle cx="678.221" cy="108.814" r="1" fill="rgb(0,0,0)" />
	<circle cx="680.783" cy="348.341" r="1" fill="rgb(0,0,0)" />
	<circle cx="680.917" cy="339.442" r="1" fill="rgb(0,0,0)" />
	<circle cx="682.674" cy="287.222" r="1" fill="rgb(0,0,0)" />
	<circle cx="684.181" cy="350.175" r="1" fill="rgb(0,0,0)" />
	<circle cx="688.029" cy="898" r="1" fill="rgb(0,0,0)" />
	<circle cx="689.034" cy="705.94" r="1" fill="rgb(0,0,0)" />
	<circle cx="689.325" cy="733.758" r="1" fill="rgb(0,0,0)" />
	<circle cx="691.252" cy="902.62" r="1" fill="rgb(0,0,0)" />
	<circle cx="691.636" cy="972.046" r="1" fill="rgb(0,0,0)" />
	<circle cx="692.962" cy="745.443" r="1" fill="rgb(0,0,0)" />
	<circle cx="693.086" cy="340.428" r="1" fill="rgb(0,0,0)" />
	<circle cx="693.477" cy="570.284" r="1" fill="rgb(0,0,0)" />
	<circle cx="694.633" cy="465.327" r="1" fill="rgb(0,0,0)" />
	<circle cx="695.752" cy="895.034" r="1" fill="rgb(0,0,0)" />
	<circle cx="696.37" cy="896.597" r="1" fill="rgb(0,0,0)" />
	<circle cx="698.467" cy="666.684" r="1" fill="rgb(0,0,0)" />
	<circle cx="700.017" cy="87.7494" r="1" fill="rgb(0,0,0)" />
	<circle cx="700.408" cy="893.818" r="1" fill="rgb(0,0,0)" />
	<circle cx="701.768" cy="711.458" r="1" fill="rgb(0,0,0)" />
	<circle cx="701.985" cy="922.575" r="1" fill="rgb(0,0,0)" />
	<circle cx="709.541" cy="655.443" r="1" fill="rgb(0,0,0)" />
	<circle cx="710.065" cy="347.603" r="1" fill="rgb(0,0,0)" />
	<circle cx="713.582" cy="320.232" r="1" fill="rgb(0,0,0)" />
	<circle cx="721.352" cy="664.726" r="1" fill="rgb(0,0,0)" />
	<circle cx="723.406" cy="928.043" r="1" fill="rgb(0,0,0)" />
	<circle cx="724.612" cy="645.807" r="1" fill="rgb(0,0,0)" />
	<circle cx="730.368" cy="969.347" r="1" fill="rgb(0,0,0)" />
	<circle cx="731.069" cy="401.606" r="1" fill="rgb(0,0,0)" />
	<circle cx="732.863" cy="522.307" r="1" fill="rgb(0,0,0)" />
	<circle cx="737.743" cy="687.918" r="1" fill="rgb(0,0,0)" />
	<circle cx="739.423" cy="265.076" r="1" fill="rgb(0,0,0)" />
	<circle cx="740.031" cy="450.275" r="1" fill="rgb(0,0,0)" />
	<circle cx="742.483" cy="905.119" r="1" fill="rgb(0,0,0)" />
	<circle cx="743.766" cy="112.348" r="1" fill="rgb(0,0,0)" />
	<circle cx="744.31" cy="241.593" r="1" fill="rgb(0,0,0)" />
	<circle cx="745.256" cy="310.505" r="1" fill="rgb(0,0,0)" />
	<circle cx="745.914" cy="604.5" r="1" fill="rgb(0,0,0)" />
	<circle cx="752.975" cy="698.093" r="1" fill="rgb(0,0,0)" />
	<circle cx="756.419" cy="397.688" r="1" fill="rgb(0,0,0)" />
	<circle cx="761.296" cy="619.024" r="1" fill="rgb(0,0,0)" />
	<circle cx="762.295" cy="681.495" r="1" fill="rgb(0,0,0)" />
	<circle cx="764.222" cy="705.161" r="1" fill="rgb(0,0,0)" />
	<circle cx="764.266" cy="706.2" r="1" fill="rgb(0,0,0)" />
	<circle cx="766.995" cy="156.013" r="1" fill="rgb(0,0,0)" />
	<circle cx="767.82" cy="739.674" r="1" fill="rgb(0,0,0)" />
	<circle cx="768.475" cy="461.185" r="1" fill="rgb(0,0,0)" />
	<circle cx="774.911" cy="463.012" r="1" fill="rgb(0,0,0)" />
	<circle cx="774.992" cy="465.45" r="1" fill="rgb(0,0,0)" />
	<circle cx="775.269" cy="826.517" r="1" fill="rgb(0,0,0)" />
	<circle cx="777.43" cy="464.121" r="1" fill="rgb(0,0,0)" />
	<circle cx="778.559" cy="459.745" r="1" fill="rgb(0,0,0)" />
	<circle cx="778.81" cy="455.596" r="1" fill="rgb(0,0,0)" />
	<circle cx="788.229" cy="747.237" r="1" fill="rgb(0,0,0)" />
	<circle cx="788.263" cy="335.651" r="1" fill="rgb(0,0,0)" />
	<circle cx="789.696" cy="273.774" r="1" fill="rgb(0,0,0)" />
	<circle cx="789.823" cy="976.028" r="1" fill="rgb(0,0,0)" />
	<circle cx="794.927" cy="341.289" r="1" fill="rgb(0,0,0)" />
	<circle cx="795.822" cy="587.901" r="1" fill="rgb(0,0,0)" />
	<circle cx="797.081" cy="1071.83" r="1" fill="rgb(0,0,0)" />
	<circle cx="802.085" cy="524.929" r="1" fill="rgb(0,0,0)" />
	<circle cx="804.21" cy="646.628" r="1" fill="rgb(0,0,0)" />
	<circle cx="804.3" cy="732.97" r="1" fill="rgb(0,0,0)" />
	<circle cx="808.125" cy="761.77" r="1" fill="rgb(0,0,0)" />
	<circle cx="812.166" cy="658.874" r="1" fill="rgb(0,0,0)" />
	<circle cx="812.804" cy="1018.64" r="1" fill="rgb(0,0,0)" />
	<circle cx="813.052" cy="991.19" r="1" fill="rgb(0,0,0)" />
	<circle cx="825.074" cy="534.85" r="1" fill="rgb(0,0,0)" />
	<circle cx="829.336" cy="678.028" r="1" fill="rgb(0,0,0)" />
	<circle cx="831.584" cy="180.247" r="1" fill="rgb(0,0,0)" />
	<circle cx="834.948" cy="228.96" r="1" fill="rgb(0,0,0)" />
	<circle cx="835.155" cy="229.287" r="1" fill="rgb(0,0,0)" />
	<circle cx="841.789" cy="103.553" r="1" fill="rgb(0,0,0)" />
	<circle cx="846.699" cy="500.698" r="1" fill="rgb(0,0,0)" />
	<circle cx="849.966" cy="868.425" r="1" fill="rgb(0,0,0)" />
	<circle cx="852.471" cy="398.42" r="1" fill="rgb(0,0,0)" />
	<circle cx="864.907" cy="468.494" r="1" fill="rgb(0,0,0)" />
	<circle cx="873.639" cy="950.471" r="1" fill="rgb(0,0,0)" />
	<circle cx="874.588" cy="1006.02" r="1" fill="rgb(0,0,0)" />
	<circle cx="874.812" cy="719.659" r="1" fill="rgb(0,0,0)" />
	<circle cx="875.984" cy="277.859" r="1" fill="rgb(0,0,0)" />
	<circle cx="879.956" cy="576.193" r="1" fill="rgb(0,0,0)" />
	<circle cx="880.864" cy="499.459" r="1" fill="rgb(0,0,0)" />
	<circle cx="883.787" cy="640.161" r="1" fill="rgb(0,0,0)" />
	<circle cx="888.173" cy="993.565" r="1" fill="rgb(0,0,0)" />
	<circle cx="888.985" cy="373.875" r="1" fill="rgb(0,0,0)" />
	<circle cx="890.812" cy="534.299" r="1" fill="rgb(0,0,0)" />
	<circle cx="907.266" cy="412.967" r="1" fill="rgb(0,0,0)" />
	<circle cx="914.532" cy="985.257" r="1" fill="rgb(0,0,0)" />
	<circle cx="915.297" cy="490.039" r="1" fill="rgb(0,0,0)" />
	<circle cx="915.537" cy="740.656" r="1" fill="rgb(0,0,0)" />
	<circle cx="916.075" cy="391.789" r="1" fill="rgb(0,0,0)" />
	<circle cx="916.583" cy="70.0388" r="1" fill="rgb(0,0,0)" />
	<circle cx="924.539" cy="912.324" r="1" fill="rgb(0,0,0)" />
	<circle cx="937.32" cy="991.263" r="1" fill="rgb(0,0,0)" />
	<circle cx="941.702" cy="511.808" r="1" fill="rgb(0,0,0)" />
	<circle cx="949.659" cy="76.8698" r="1" fill="rgb(0,0,0)" />
	<circle cx="954.406" cy="555.507" r="1" fill="rgb(0,0,0)" />
	<circle cx="955.13" cy="607.199" r="1" fill="rgb(0,0,0)" />
	<circle cx="956.156" cy="786.619" r="1" fill="rgb(0,0,0)" />
	<circle cx="958.113" cy="177.999" r="1" fill="rgb(0,0,0)" />
	<circle cx="959.326" cy="931.437" r="1" fill="rgb(0,0,0)" />
	<circle cx="961.253" cy="797.943" r="1" fill="rgb(0,0,0)" />
	<circle cx="968.114" cy="623.737" r="1" fill="rgb(0,0,0)" />
	<circle cx="971.989" cy="839.801" r="1" fill="rgb(0,0,0)" />
	<circle cx="981.556" cy="754.508" r="1" fill="rgb(0,0,0)" />
	<circle cx="984.81" cy="983.984" r="1" fill="rgb(0,0,0)" />
	<circle cx="989.226" cy="614.641" r="1" fill="rgb(0,0,0)" />
	<circle cx="989.259" cy="351.371" r="1" fill="rgb(0,0,0)" />
	<circle cx="989.286" cy="739.798" r="1" fill="rgb(0,0,0)" />
	<circle cx="992.743" cy="262.143" r="1" fill="rgb(0,0,0)" />
	<circle cx="995.542" cy="506.42" r="1" fill="rgb(0,0,0)" />
	<circle cx="999.808" cy="919.759" r="1" fill="rgb(0,0,0)" />
	<circle cx="1000.06" cy="451.892" r="1" fill="rgb(0,0,0)" />
	<circle cx="1005.05" cy="300.951" r="1" fill="rgb(0,0,0)" />
	<circle cx="1019.04" cy="568.561" r="1" fill="rgb(0,0,0)" />
	<circle cx="1020.26" cy="790.347" r="1" fill="rgb(0,0,0)" />
	<circle cx="1022.45" cy="1035.56" r="1" fill="rgb(0,0,0)" />
	<circle cx="1024.1" cy="747.811" r="1" fill="rgb(0,0,0)" />
	<circle cx="1029.69" cy="414.27" r="1" fill="rgb(0,0,0)" />
	<circle cx="1033.02" cy="764.72" r="1" fill="rgb(0,0,0)" />
	<circle cx="1033.17" cy="764.717" r="1" fill="rgb(0,0,0)" />
	<circle cx="1036.88" cy="1052.77" r="1" fill="rgb(0,0,0)" />
	<circle cx="1038.92" cy="122.225" r="1" fill="rgb(0,0,0)" />
	<circle cx="1039.9" cy="674.337" r="1" fill="rgb(0,0,0)" />
	<circle cx="1041.52" cy="126.107" r="1" fill="rgb(0,0,0)" />
	<circle cx="1045.15" cy="258.646" r="1" fill="rgb(0,0,0)" />
	<circle cx="1045.28" cy="187.833" r="1" fill="rgb(0,0,0)" />
	<circle cx="1046.83" cy="253.949" r="1" fill="rgb(0,0,0)" />
	<circle cx="1048.28" cy="149.75" r="1" fill="rgb(0,0,0)" />
	<circle cx="1050" cy="149.937" r="1" fill="rgb(0,0,0)" />
</svg>
