<?xml version="1.0" standalone="no" ?>
<!DOCTYPE svg PUBLIC "-//W3C//DTD SVG 1.1//EN" "http://www.w3.org/Graphics/SVG/1.1/DTD/svg11.dtd">
<svg width="1100px" height="1189.76px" xmlns="http://www.w3.org/2000/svg" version="1.1" >
	<circle cx="50" cy="566.56" r="1" fill="rgb(0,0,0)" />
	<circle cx="102.6" cy="69.207" r="1" fill="rgb(0,0,0)" />
	<circle cx="102.608" cy="68.845" r="1" fill="rgb(0,0,0)" />
	<circle cx="103.812" cy="708.037" r="1" fill="rgb(0,0,0)" />
	<circle cx="123.144" cy="342.257" r="1" fill="rgb(0,0,0)" />
	<circle cx="123.993" cy="386.021" r="1" fill="rgb(0,0,0)" />
	<circle cx="126.277" cy="336.26" r="1" fill="rgb(0,0,0)" />
	<circle cx="127.155" cy="826.942" r="1" fill="rgb(0,0,0)" />
	<circle cx="127.492" cy="715.74" r="1" fill="rgb(0,0,0)" />
	<circle cx="138.307" cy="131.023" r="1" fill="rgb(0,0,0)" />
	<circle cx="149.537" cy="54.08" r="1" fill="rgb(0,0,0)" />
	<circle cx="159.212" cy="1111.81" r="1" fill="rgb(0,0,0)" />
	<circle cx="161.112" cy="1107.45" r="1" fill="rgb(0,0,0)" />
	<circle cx="177.318" cy="882.55" r="1" fill="rgb(0,0,0)" />
	<circle cx="180.978" cy="564.75" r="1" fill="rgb(0,0,0)" />
	<circle cx="191.38" cy="214.444" r="1" fill="rgb(0,0,0)" />
	<circle cx="192.481" cy="413.146" r="1" fill="rgb(0,0,0)" />
	<circle cx="206.93" cy="851.174" r="1" fill="rgb(0,0,0)" />
	<circle cx="228.069" cy="822.113" r="1" fill="rgb(0,0,0)" />
	<circle cx="228.954" cy="117.104" r="1" fill="rgb(0,0,0)" />
	<circle cx="246.805" cy="149.438" r="1" fill="rgb(0,0,0)" />
	<circle cx="248.332" cy="439.36" r="1" fill="rgb(0,0,0)" />
	<circle cx="252.007" cy="303.393" r="1" fill="rgb(0,0,0)" />
	<circle cx="259.868" cy="408.64" r="1" fill="rgb(0,0,0)" />
	<circle cx="268.998" cy="664.663" r="1" fill="rgb(0,0,0)" />
	<circle cx="272.339" cy="83.1224" r="1" fill="rgb(0,0,0)" />
	<circle cx="273.564" cy="723.046" r="1" fill="rgb(0,0,0)" />
	<circle cx="280.916" cy="1135.68" r="1" fill="rgb(0,0,0)" />
	<circle cx="290.598" cy="746.88" r="1" fill="rgb(0,0,0)" />
	<circle cx="297.696" cy="1094.92" r="1" fill="rgb(0,0,0)" />
	<circle cx="311.156" cy="194.51" r="1" fill="rgb(0,0,0)" />
	<circle cx="321.05" cy="713.776" r="1" fill="rgb(0,0,0)" />
	<circle cx="330.061" cy="457.118" r="1" fill="rgb(0,0,0)" />
	<circle cx="336.41" cy="588.87" r="1" fill="rgb(0,0,0)" />
	<circle cx="342.898" cy="899.759" r="1" fill="rgb(0,0,0)" />
	<circle cx="372.804" cy="745.819" r="1" fill="rgb(0,0,0)" />
	<circle cx="373.74" cy="961.318" r="1" fill="rgb(0,0,0)" />
	<circle cx="432.022" cy="635.474" r="1" fill="rgb(0,0,0)" />
	<circle cx="439.316" cy="625.433" r="1" fill="rgb(0,0,0)" />
	<circle cx="441.446" cy="853.661" r="1" fill="rgb(0,0,0)" />
	<circle cx="449.597" cy="499.711" r="1" fill="rgb(0,0,0)" />
	<circle cx="465.839" cy="643.686" r="1" fill="rgb(0,0,0)" />
	<circle cx="465.968" cy="343.895" r="1" fill="rgb(0,0,0)" />
	<circle cx="470.323" cy="1060.37" r="1" fill="rgb(0,0,0)" />
	<circle cx="499.47" cy="1021.65" r="1" fill="rgb(0,0,0)" />
	<circle cx="501.577" cy="685.486" r="1" fill="rgb(0,0,0)" />
	<circle cx="517.826" cy="626.527" r="1" fill="rgb(0,0,0)" />
	<circle cx="518.615" cy="827.433" r="1" fill="rgb(0,0,0)" />
	<circle cx="556.988" cy="552.404" r="1" fill="rgb(0,0,0)" />
	<circle cx="557.544" cy="1003.21" r="1" fill="rgb(0,0,0)" />
	<circle cx="561.799" cy="940.136" r="1" fill="rgb(0,0,0)" />
	<circle cx="565.667" cy="812.367" r="1" fill="rgb(0,0,0)" />
	<circle cx="570.19" cy="1094.98" r="1" fill="rgb(0,0,0)" />
	<circle cx="578.503" cy="1039.61" r="1" fill="rgb(0,0,0)" />
	<circle cx="579.066" cy="1039.38" r="1" fill="rgb(0,0,0)" />
	<circle cx="582.586" cy="837.839" r="1" fill="rgb(0,0,0)" />
	<circle cx="599.595" cy="945.011" r="1" fill="rgb(0,0,0)" />
	<circle cx="600.283" cy="675.729" r="1" fill="rgb(0,0,0)" />
	<circle cx="609.402" cy="369.625" r="1" fill="rgb(0,0,0)" />
	<circle cx="656.092" cy="582.171" r="1" fill="rgb(0,0,0)" />
	<circle cx="667.369" cy="449.232" r="1" fill="rgb(0,0,0)" />
	<circle cx="681.79" cy="286.746" r="1" fill="rgb(0,0,0)" />
	<circle cx="688.862" cy="794.336" r="1" fill="rgb(0,0,0)" />
	<circle cx="708.448" cy="499.578" r="1" fill="rgb(0,0,0)" />
	<circle cx="719.027" cy="708.03" r="1" fill="rgb(0,0,0)" />
	<circle cx="725.927" cy="872.907" r="1" fill="rgb(0,0,0)" />
	<circle cx="732.558" cy="410.425" r="1" fill="rgb(0,0,0)" />
	<circle cx="733.064" cy="674.757" r="1" fill="rgb(0,0,0)" />
	<circle cx="738.387" cy="116.832" r="1" fill="rgb(0,0,0)" />
	<circle cx="752.191" cy="808.535" r="1" fill="rgb(0,0,0)" />
	<circle cx="783.929" cy="551.691" r="1" fill="rgb(0,0,0)" />
	<circle cx="793.909" cy="208.161" r="1" fill="rgb(0,0,0)" />
	<circle cx="795.353" cy="360.155" r="1" fill="rgb(0,0,0)" />
	<circle cx="798.472" cy="1017.71" r="1" fill="rgb(0,0,0)" />
	<circle cx="827.013" cy="479.268" r="1" fill="rgb(0,0,0)" />
	<circle cx="838.103" cy="726.15" r="1" fill="rgb(0,0,0)" />
	<circle cx="841.197" cy="182.348" r="1" fill="rgb(0,0,0)" />
	<circle cx="888.395" cy="1047.86" r="1" fill="rgb(0,0,0)" />
	<circle cx="895.916" cy="1060.68" r="1" fill="rgb(0,0,0)" />
	<circle cx="938.082" cy="886.181" r="1" fill="rgb(0,0,0)" />
	<circle cx="940.29" cy="761.322" r="1" fill="rgb(0,0,0)" />
	<circle cx="944.527" cy="79.0503" r="1" fill="rgb(0,0,0)" />
	<circle cx="965.984" cy="362.639" r="1" fill="rgb(0,0,0)" />
	<circle cx="969.569" cy="595.111" r="1" fill="rgb(0,0,0)" />
	<circle cx="989.456" cy="806.796" r="1" fill="rgb(0,0,0)" />
	<circle cx="996.245" cy="799.656" r="1" fill="rgb(0,0,0)" />
	<circle cx="1005.34" cy="812.463" r="1" fill="rgb(0,0,0)" />
	<circle cx="1038.7" cy="558.813" r="1" fill="rgb(0,0,0)" />
	<circle cx="1040.65" cy="519.598" r="1" fill="rgb(0,0,0)" />
	<circle cx="1050" cy="543.443" r="1" fill="rgb(0,0,0)" />
</svg>
