<?xml version="1.0" standalone="no" ?>
<!DOCTYPE svg PUBLIC "-//W3C//DTD SVG 1.1//EN" "http://www.w3.org/Graphics/SVG/1.1/DTD/svg11.dtd">
<svg width="1100px" height="1210.96px" xmlns="http://www.w3.org/2000/svg" version="1.1" >
	<circle cx="50" cy="486.382" r="1" fill="rgb(0,0,0)" />
	<circle cx="55.9111" cy="496.421" r="1" fill="rgb(0,0,0)" />
	<circle cx="128.03" cy="791.412" r="1" fill="rgb(0,0,0)" />
	<circle cx="129.889" cy="607.092" r="1" fill="rgb(0,0,0)" />
	<circle cx="155.386" cy="135.328" r="1" fill="rgb(0,0,0)" />
	<circle cx="227.662" cy="1155.92" r="1" fill="rgb(0,0,0)" />
	<circle cx="229.174" cy="1064.44" r="1" fill="rgb(0,0,0)" />
	<circle cx="229.727" cy="108.675" r="1" fill="rgb(0,0,0)" />
	<circle cx="258.865" cy="307.376" r="1" fill="rgb(0,0,0)" />
	<circle cx="264.904" cy="307.431" r="1" fill="rgb(0,0,0)" />
	<circle cx="267.331" cy="434.342" r="1" fill="rgb(0,0,0)" />
	<circle cx="285.65" cy="688.117" r="1" fill="rgb(0,0,0)" />
	<circle cx="332.214" cy="475.273" r="1" fill="rgb(0,0,0)" />
	<circle cx="383.906" cy="654.107" r="1" fill="rgb(0,0,0)" />
	<circle cx="386.288" cy="540.658" r="1" fill="rgb(0,0,0)" />
	<circle cx="441.172" cy="682.491" r="1" fill="rgb(0,0,0)" />
	<circle cx="472.294" cy="684.131" r="1" fill="rgb(0,0,0)" />
	<circle cx="493.903" cy="162.56" r="1" fill="rgb(0,0,0)" />
	<circle cx="494.818" cy="1033.46" r="1" fill="rgb(0,0,0)" />
	<circle cx="527.77" cy="701.249" r="1" fill="rgb(0,0,0)" />
	<circle cx="532.58" cy="449.235" r="1" fill="rgb(0,0,0)" />
	<circle cx="548.369" cy="620.397" r="1" fill="rgb(0,0,0)" />
	<circle cx="566.406" cy="690.836" r="1" fill="rgb(0,0,0)" />
	<circle cx="571.575" cy="779.634" r="1" fill="rgb(0,0,0)" />
	<circle cx="577.295" cy="508.8" r="1" fill="rgb(0,0,0)" />
	<circle cx="588.107" cy="1054.31" r="1" fill="rgb(0,0,0)" />
	<circle cx="592.602" cy="390.728" r="1" fill="rgb(0,0,0)" />
	<circle cx="679.548" cy="553.801" r="1" fill="rgb(0,0,0)" />
	<circle cx="700.242" cy="906.388" r="1" fill="rgb(0,0,0)" />
	<circle cx="730.127" cy="634.763" r="1" fill="rgb(0,0,0)" />
	<circle cx="734.238" cy="547.714" r="1" fill="rgb(0,0,0)" />
	<circle cx="747.674" cy="58.2755" r="1" fill="rgb(0,0,0)" />
	<circle cx="771.425" cy="55.0436" r="1" fill="rgb(0,0,0)" />
	<circle cx="778.902" cy="496.839" r="1" fill="rgb(0,0,0)" />
	<circle cx="780.121" cy="733.82" r="1" fill="rgb(0,0,0)" />
	<circle cx="806.898" cy="112.054" r="1" fill="rgb(0,0,0)" />
	<circle cx="846.929" cy="1109.7" r="1" fill="rgb(0,0,0)" />
	<circle cx="847.87" cy="548.768" r="1" fill="rgb(0,0,0)" />
	<circle cx="862.825" cy="625.916" r="1" fill="rgb(0,0,0)" />
	<circle cx="900.081" cy="327.671" r="1" fill="rgb(0,0,0)" />
	<circle cx="905.938" cy="824.599" r="1" fill="rgb(0,0,0)" />
	<circle cx="946.525" cy="550.522" r="1" fill="rgb(0,0,0)" />
	<circle cx="1010.21" cy="286.605" r="1" fill="rgb(0,0,0)" />
	<circle cx="1024.05" cy="778.825" r="1" fill="rgb(0,0,0)" />
	<circle cx="1050" cy="318.598" r="1" fill="rgb(0,0,0)" />
</svg>
