<?xml version="1.0" standalone="no" ?>
<!DOCTYPE svg PUBLIC "-//W3C//DTD SVG 1.1//EN" "http://www.w3.org/Graphics/SVG/1.1/DTD/svg11.dtd">
<svg width="1100px" height="1131.12px" xmlns="http://www.w3.org/2000/svg" version="1.1" >
	<circle cx="50" cy="584.686" r="1" fill="rgb(0,0,0)" />
	<circle cx="50.1799" cy="766.984" r="1" fill="rgb(0,0,0)" />
	<circle cx="50.7662" cy="108.34" r="1" fill="rgb(0,0,0)" />
	<circle cx="54.1239" cy="262.571" r="1" fill="rgb(0,0,0)" />
	<circle cx="64.6336" cy="703.403" r="1" fill="rgb(0,0,0)" />
	<circle cx="64.8967" cy="560.109" r="1" fill="rgb(0,0,0)" />
	<circle cx="67.8381" cy="684.273" r="1" fill="rgb(0,0,0)" />
	<circle cx="68.6909" cy="1009.4" r="1" fill="rgb(0,0,0)" />
	<circle cx="71.962" cy="601.545" r="1" fill="rgb(0,0,0)" />
	<circle cx="72.5516" cy="92.041" r="1" fill="rgb(0,0,0)" />
	<circle cx="73.1312" cy="246.548" r="1" fill="rgb(0,0,0)" />
	<circle cx="78.3311" cy="810.932" r="1" fill="rgb(0,0,0)" />
	<circle cx="79.1872" cy="254.656" r="1" fill="rgb(0,0,0)" />
	<circle cx="80.3797" cy="841.355" r="1" fill="rgb(0,0,0)" />
	<circle cx="85.8561" cy="905.236" r="1" fill="rgb(0,0,0)" />
	<circle cx="86.3658" cy="273.95" r="1" fill="rgb(0,0,0)" />
	<circle cx="88.5576" cy="892.774" r="1" fill="rgb(0,0,0)" />
	<circle cx="88.984" cy="597.377" r="1" fill="rgb(0,0,0)" />
	<circle cx="89.5037" cy="598.507" r="1" fill="rgb(0,0,0)" />
	<circle cx="91.1159" cy="515.489" r="1" fill="rgb(0,0,0)" />
	<circle cx="92.1386" cy="353.88" r="1" fill="rgb(0,0,0)" />
	<circle cx="93.1046" cy="666.758" r="1" fill="rgb(0,0,0)" />
	<circle cx="94.0273" cy="776.771" r="1" fill="rgb(0,0,0)" />
	<circle cx="102.911" cy="309.409" r="1" fill="rgb(0,0,0)" />
	<circle cx="103.827" cy="511.838" r="1" fill="rgb(0,0,0)" />
	<circle cx="104.294" cy="688.49" r="1" fill="rgb(0,0,0)" />
	<circle cx="104.527" cy="302.261" r="1" fill="rgb(0,0,0)" />
	<circle cx="104.544" cy="620.495" r="1" fill="rgb(0,0,0)" />
	<circle cx="104.564" cy="689.383" r="1" fill="rgb(0,0,0)" />
	<circle cx="105.999" cy="1012.11" r="1" fill="rgb(0,0,0)" />
	<circle cx="106.772" cy="572.534" r="1" fill="rgb(0,0,0)" />
	<circle cx="107.295" cy="1047.65" r="1" fill="rgb(0,0,0)" />
	<circle cx="107.525" cy="684.946" r="1" fill="rgb(0,0,0)" />
	<circle cx="108.688" cy="307.454" r="1" fill="rgb(0,0,0)" />
	<circle cx="109.114" cy="301.028" r="1" fill="rgb(0,0,0)" />
	<circle cx="109.157" cy="298.114" r="1" fill="rgb(0,0,0)" />
	<circle cx="110.23" cy="296.441" r="1" fill="rgb(0,0,0)" />
	<circle cx="110.52" cy="304.399" r="1" fill="rgb(0,0,0)" />
	<circle cx="111.039" cy="573.134" r="1" fill="rgb(0,0,0)" />
	<circle cx="111.409" cy="578.137" r="1" fill="rgb(0,0,0)" />
	<circle cx="112.055" cy="301.391" r="1" fill="rgb(0,0,0)" />
	<circle cx="113.794" cy="530.699" r="1" fill="rgb(0,0,0)" />
	<circle cx="114.011" cy="1016.05" r="1" fill="rgb(0,0,0)" />
	<circle cx="116.329" cy="554.246" r="1" fill="rgb(0,0,0)" />
	<circle cx="116.462" cy="356.415" r="1" fill="rgb(0,0,0)" />
	<circle cx="118.318" cy="98.0436" r="1" fill="rgb(0,0,0)" />
	<circle cx="118.874" cy="971.381" r="1" fill="rgb(0,0,0)" />
	<circle cx="118.891" cy="328.187" r="1" fill="rgb(0,0,0)" />
	<circle cx="125.207" cy="280.002" r="1" fill="rgb(0,0,0)" />
	<circle cx="125.879" cy="230.009" r="1" fill="rgb(0,0,0)" />
	<circle cx="129.134" cy="797.504" r="1" fill="rgb(0,0,0)" />
	<circle cx="134.121" cy="997.774" r="1" fill="rgb(0,0,0)" />
	<circle cx="140.2" cy="333.966" r="1" fill="rgb(0,0,0)" />
	<circle cx="141.109" cy="717.134" r="1" fill="rgb(0,0,0)" />
	<circle cx="141.586" cy="286.368" r="1" fill="rgb(0,0,0)" />
	<circle cx="143.917" cy="721.378" r="1" fill="rgb(0,0,0)" />
	<circle cx="144.97" cy="721.052" r="1" fill="rgb(0,0,0)" />
	<circle cx="145.57" cy="661.828" r="1" fill="rgb(0,0,0)" />
	<circle cx="148.698" cy="717.221" r="1" fill="rgb(0,0,0)" />
	<circle cx="148.728" cy="716.172" r="1" fill="rgb(0,0,0)" />
	<circle cx="149.694" cy="764.063" r="1" fill="rgb(0,0,0)" />
	<circle cx="149.89" cy="659.093" r="1" fill="rgb(0,0,0)" />
	<circle cx="152.791" cy="490.705" r="1" fill="rgb(0,0,0)" />
	<circle cx="153.931" cy="490.692" r="1" fill="rgb(0,0,0)" />
	<circle cx="156.982" cy="502.464" r="1" fill="rgb(0,0,0)" />
	<circle cx="158.211" cy="508.803" r="1" fill="rgb(0,0,0)" />
	<circle cx="160.42" cy="343" r="1" fill="rgb(0,0,0)" />
	<circle cx="160.44" cy="507.564" r="1" fill="rgb(0,0,0)" />
	<circle cx="160.713" cy="501.525" r="1" fill="rgb(0,0,0)" />
	<circle cx="162.375" cy="181.575" r="1" fill="rgb(0,0,0)" />
	<circle cx="163.358" cy="313.7" r="1" fill="rgb(0,0,0)" />
	<circle cx="163.544" cy="319.026" r="1" fill="rgb(0,0,0)" />
	<circle cx="163.837" cy="502.284" r="1" fill="rgb(0,0,0)" />
	<circle cx="164.184" cy="359.406" r="1" fill="rgb(0,0,0)" />
	<circle cx="165.19" cy="92.0343" r="1" fill="rgb(0,0,0)" />
	<circle cx="165.21" cy="318.6" r="1" fill="rgb(0,0,0)" />
	<circle cx="166.086" cy="317.571" r="1" fill="rgb(0,0,0)" />
	<circle cx="166.103" cy="1039.86" r="1" fill="rgb(0,0,0)" />
	<circle cx="166.339" cy="991.988" r="1" fill="rgb(0,0,0)" />
	<circle cx="167.318" cy="470.838" r="1" fill="rgb(0,0,0)" />
	<circle cx="167.485" cy="835.375" r="1" fill="rgb(0,0,0)" />
	<circle cx="167.578" cy="320.372" r="1" fill="rgb(0,0,0)" />
	<circle cx="169.843" cy="317.188" r="1" fill="rgb(0,0,0)" />
	<circle cx="169.9" cy="963.557" r="1" fill="rgb(0,0,0)" />
	<circle cx="170.346" cy="295.322" r="1" fill="rgb(0,0,0)" />
	<circle cx="171.123" cy="629.772" r="1" fill="rgb(0,0,0)" />
	<circle cx="172.288" cy="516.285" r="1" fill="rgb(0,0,0)" />
	<circle cx="172.648" cy="435.695" r="1" fill="rgb(0,0,0)" />
	<circle cx="173.005" cy="895.722" r="1" fill="rgb(0,0,0)" />
	<circle cx="176.572" cy="494.543" r="1" fill="rgb(0,0,0)" />
	<circle cx="176.602" cy="653.94" r="1" fill="rgb(0,0,0)" />
	<circle cx="176.739" cy="843.81" r="1" fill="rgb(0,0,0)" />
	<circle cx="177.335" cy="736.834" r="1" fill="rgb(0,0,0)" />
	<circle cx="179.114" cy="495.569" r="1" fill="rgb(0,0,0)" />
	<circle cx="179.231" cy="997.97" r="1" fill="rgb(0,0,0)" />
	<circle cx="181.089" cy="420.402" r="1" fill="rgb(0,0,0)" />
	<circle cx="182.915" cy="713.623" r="1" fill="rgb(0,0,0)" />
	<circle cx="183.264" cy="1022.34" r="1" fill="rgb(0,0,0)" />
	<circle cx="185.117" cy="851.028" r="1" fill="rgb(0,0,0)" />
	<circle cx="185.949" cy="811.378" r="1" fill="rgb(0,0,0)" />
	<circle cx="187.069" cy="1025.28" r="1" fill="rgb(0,0,0)" />
	<circle cx="187.981" cy="392.054" r="1" fill="rgb(0,0,0)" />
	<circle cx="189.96" cy="51.4147" r="1" fill="rgb(0,0,0)" />
	<circle cx="191.895" cy="955.928" r="1" fill="rgb(0,0,0)" />
	<circle cx="192.129" cy="464.619" r="1" fill="rgb(0,0,0)" />
	<circle cx="193.105" cy="974.776" r="1" fill="rgb(0,0,0)" />
	<circle cx="193.514" cy="974.243" r="1" fill="rgb(0,0,0)" />
	<circle cx="195.41" cy="517.421" r="1" fill="rgb(0,0,0)" />
	<circle cx="197.941" cy="691.818" r="1" fill="rgb(0,0,0)" />
	<circle cx="200.326" cy="1035.66" r="1" fill="rgb(0,0,0)" />
	<circle cx="200.57" cy="388.62" r="1" fill="rgb(0,0,0)" />
	<circle cx="201.209" cy="1039.22" r="1" fill="rgb(0,0,0)" />
	<circle cx="202.568" cy="271.245" r="1" fill="rgb(0,0,0)" />
	<circle cx="202.615" cy="695.855" r="1" fill="rgb(0,0,0)" />
	<circle cx="202.665" cy="436.904" r="1" fill="rgb(0,0,0)" />
	<circle cx="203.085" cy="1043.77" r="1" fill="rgb(0,0,0)" />
	<circle cx="203.115" cy="255.279" r="1" fill="rgb(0,0,0)" />
	<circle cx="206.775" cy="118.227" r="1" fill="rgb(0,0,0)" />
	<circle cx="208.101" cy="249.849" r="1" fill="rgb(0,0,0)" />
	<circle cx="211.179" cy="456.518" r="1" fill="rgb(0,0,0)" />
	<circle cx="213.711" cy="764.829" r="1" fill="rgb(0,0,0)" />
	<circle cx="214.92" cy="709.246" r="1" fill="rgb(0,0,0)" />
	<circle cx="216.622" cy="402.564" r="1" fill="rgb(0,0,0)" />
	<circle cx="219.151" cy="645.782" r="1" fill="rgb(0,0,0)" />
	<circle cx="221.246" cy="728.01" r="1" fill="rgb(0,0,0)" />
	<circle cx="227.312" cy="720.622" r="1" fill="rgb(0,0,0)" />
	<circle cx="229.81" cy="611.675" r="1" fill="rgb(0,0,0)" />
	<circle cx="230.33" cy="665.592" r="1" fill="rgb(0,0,0)" />
	<circle cx="230.586" cy="180.695" r="1" fill="rgb(0,0,0)" />
	<circle cx="231.569" cy="327.764" r="1" fill="rgb(0,0,0)" />
	<circle cx="231.972" cy="603.95" r="1" fill="rgb(0,0,0)" />
	<circle cx="234.637" cy="171.371" r="1" fill="rgb(0,0,0)" />
	<circle cx="237.598" cy="294.686" r="1" fill="rgb(0,0,0)" />
	<circle cx="238.518" cy="619.623" r="1" fill="rgb(0,0,0)" />
	<circle cx="238.601" cy="1009.14" r="1" fill="rgb(0,0,0)" />
	<circle cx="240.306" cy="937.534" r="1" fill="rgb(0,0,0)" />
	<circle cx="240.573" cy="199.646" r="1" fill="rgb(0,0,0)" />
	<circle cx="242.388" cy="1003.84" r="1" fill="rgb(0,0,0)" />
	<circle cx="244.081" cy="111.405" r="1" fill="rgb(0,0,0)" />
	<circle cx="244.484" cy="234.343" r="1" fill="rgb(0,0,0)" />
	<circle cx="245.68" cy="652.174" r="1" fill="rgb(0,0,0)" />
	<circle cx="247.245" cy="742.824" r="1" fill="rgb(0,0,0)" />
	<circle cx="248.491" cy="772.621" r="1" fill="rgb(0,0,0)" />
	<circle cx="249.947" cy="429.133" r="1" fill="rgb(0,0,0)" />
	<circle cx="253.784" cy="678.417" r="1" fill="rgb(0,0,0)" />
	<circle cx="256.785" cy="450.659" r="1" fill="rgb(0,0,0)" />
	<circle cx="259.171" cy="798.593" r="1" fill="rgb(0,0,0)" />
	<circle cx="259.27" cy="785.719" r="1" fill="rgb(0,0,0)" />
	<circle cx="262.365" cy="466.518" r="1" fill="rgb(0,0,0)" />
	<circle cx="265.137" cy="284.529" r="1" fill="rgb(0,0,0)" />
	<circle cx="265.207" cy="720.772" r="1" fill="rgb(0,0,0)" />
	<circle cx="266.269" cy="928.557" r="1" fill="rgb(0,0,0)" />
	<circle cx="266.905" cy="596.715" r="1" fill="rgb(0,0,0)" />
	<circle cx="268.601" cy="505.655" r="1" fill="rgb(0,0,0)" />
	<circle cx="270.43" cy="147.174" r="1" fill="rgb(0,0,0)" />
	<circle cx="270.993" cy="65.7618" r="1" fill="rgb(0,0,0)" />
	<circle cx="272.258" cy="147.384" r="1" fill="rgb(0,0,0)" />
	<circle cx="272.758" cy="65.9783" r="1" fill="rgb(0,0,0)" />
	<circle cx="273.491" cy="150.116" r="1" fill="rgb(0,0,0)" />
	<circle cx="274.207" cy="148.244" r="1" fill="rgb(0,0,0)" />
	<circle cx="274.507" cy="150.479" r="1" fill="rgb(0,0,0)" />
	<circle cx="275.097" cy="704.526" r="1" fill="rgb(0,0,0)" />
	<circle cx="275.38" cy="317.83" r="1" fill="rgb(0,0,0)" />
	<circle cx="276.719" cy="145.689" r="1" fill="rgb(0,0,0)" />
	<circle cx="277.628" cy="152.161" r="1" fill="rgb(0,0,0)" />
	<circle cx="277.881" cy="144.733" r="1" fill="rgb(0,0,0)" />
	<circle cx="278.834" cy="148.773" r="1" fill="rgb(0,0,0)" />
	<circle cx="279.214" cy="881.625" r="1" fill="rgb(0,0,0)" />
	<circle cx="280.25" cy="319.516" r="1" fill="rgb(0,0,0)" />
	<circle cx="281.392" cy="305.882" r="1" fill="rgb(0,0,0)" />
	<circle cx="283.168" cy="290.805" r="1" fill="rgb(0,0,0)" />
	<circle cx="283.584" cy="483.796" r="1" fill="rgb(0,0,0)" />
	<circle cx="283.594" cy="710.729" r="1" fill="rgb(0,0,0)" />
	<circle cx="283.907" cy="710.532" r="1" fill="rgb(0,0,0)" />
	<circle cx="284.664" cy="467.487" r="1" fill="rgb(0,0,0)" />
	<circle cx="285.633" cy="708.98" r="1" fill="rgb(0,0,0)" />
	<circle cx="285.979" cy="291.255" r="1" fill="rgb(0,0,0)" />
	<circle cx="286.243" cy="290.659" r="1" fill="rgb(0,0,0)" />
	<circle cx="286.862" cy="709.729" r="1" fill="rgb(0,0,0)" />
	<circle cx="287.002" cy="294.06" r="1" fill="rgb(0,0,0)" />
	<circle cx="287.971" cy="1040.92" r="1" fill="rgb(0,0,0)" />
	<circle cx="288.228" cy="287.714" r="1" fill="rgb(0,0,0)" />
	<circle cx="289.857" cy="288.24" r="1" fill="rgb(0,0,0)" />
	<circle cx="291.356" cy="297.327" r="1" fill="rgb(0,0,0)" />
	<circle cx="293.135" cy="682.977" r="1" fill="rgb(0,0,0)" />
	<circle cx="293.135" cy="289.836" r="1" fill="rgb(0,0,0)" />
	<circle cx="293.844" cy="1047.88" r="1" fill="rgb(0,0,0)" />
	<circle cx="293.921" cy="292.151" r="1" fill="rgb(0,0,0)" />
	<circle cx="295.33" cy="289.19" r="1" fill="rgb(0,0,0)" />
	<circle cx="296.452" cy="290.069" r="1" fill="rgb(0,0,0)" />
	<circle cx="297.768" cy="772.201" r="1" fill="rgb(0,0,0)" />
	<circle cx="298.151" cy="284.319" r="1" fill="rgb(0,0,0)" />
	<circle cx="300.796" cy="114.526" r="1" fill="rgb(0,0,0)" />
	<circle cx="300.819" cy="279.809" r="1" fill="rgb(0,0,0)" />
	<circle cx="301.193" cy="620.649" r="1" fill="rgb(0,0,0)" />
	<circle cx="301.243" cy="875.322" r="1" fill="rgb(0,0,0)" />
	<circle cx="301.489" cy="297.574" r="1" fill="rgb(0,0,0)" />
	<circle cx="303.231" cy="80.0523" r="1" fill="rgb(0,0,0)" />
	<circle cx="304.027" cy="460.639" r="1" fill="rgb(0,0,0)" />
	<circle cx="305.027" cy="80.1223" r="1" fill="rgb(0,0,0)" />
	<circle cx="309.41" cy="443.234" r="1" fill="rgb(0,0,0)" />
	<circle cx="311.089" cy="918.973" r="1" fill="rgb(0,0,0)" />
	<circle cx="312.728" cy="603.124" r="1" fill="rgb(0,0,0)" />
	<circle cx="313.294" cy="638.307" r="1" fill="rgb(0,0,0)" />
	<circle cx="314.823" cy="635.895" r="1" fill="rgb(0,0,0)" />
	<circle cx="315.999" cy="634.536" r="1" fill="rgb(0,0,0)" />
	<circle cx="316.835" cy="637.834" r="1" fill="rgb(0,0,0)" />
	<circle cx="317.598" cy="730.818" r="1" fill="rgb(0,0,0)" />
	<circle cx="318.368" cy="635.332" r="1" fill="rgb(0,0,0)" />
	<circle cx="320.52" cy="696.874" r="1" fill="rgb(0,0,0)" />
	<circle cx="321.612" cy="739.359" r="1" fill="rgb(0,0,0)" />
	<circle cx="322.705" cy="234.376" r="1" fill="rgb(0,0,0)" />
	<circle cx="323.128" cy="236.222" r="1" fill="rgb(0,0,0)" />
	<circle cx="323.215" cy="518.39" r="1" fill="rgb(0,0,0)" />
	<circle cx="323.518" cy="891.561" r="1" fill="rgb(0,0,0)" />
	<circle cx="324.357" cy="690.719" r="1" fill="rgb(0,0,0)" />
	<circle cx="325.203" cy="1011.11" r="1" fill="rgb(0,0,0)" />
	<circle cx="325.546" cy="688.573" r="1" fill="rgb(0,0,0)" />
	<circle cx="326.286" cy="697.474" r="1" fill="rgb(0,0,0)" />
	<circle cx="327.602" cy="694.22" r="1" fill="rgb(0,0,0)" />
	<circle cx="330.753" cy="514.18" r="1" fill="rgb(0,0,0)" />
	<circle cx="331.569" cy="746.521" r="1" fill="rgb(0,0,0)" />
	<circle cx="337.908" cy="420.992" r="1" fill="rgb(0,0,0)" />
	<circle cx="338.031" cy="779.106" r="1" fill="rgb(0,0,0)" />
	<circle cx="339.081" cy="379.719" r="1" fill="rgb(0,0,0)" />
	<circle cx="339.377" cy="384.496" r="1" fill="rgb(0,0,0)" />
	<circle cx="340.143" cy="381.301" r="1" fill="rgb(0,0,0)" />
	<circle cx="341.079" cy="959.546" r="1" fill="rgb(0,0,0)" />
	<circle cx="341.992" cy="306.245" r="1" fill="rgb(0,0,0)" />
	<circle cx="342.305" cy="386.571" r="1" fill="rgb(0,0,0)" />
	<circle cx="345.117" cy="952.188" r="1" fill="rgb(0,0,0)" />
	<circle cx="345.606" cy="615.978" r="1" fill="rgb(0,0,0)" />
	<circle cx="347.348" cy="768.007" r="1" fill="rgb(0,0,0)" />
	<circle cx="348.694" cy="387.377" r="1" fill="rgb(0,0,0)" />
	<circle cx="349.171" cy="656.971" r="1" fill="rgb(0,0,0)" />
	<circle cx="351.119" cy="778.8" r="1" fill="rgb(0,0,0)" />
	<circle cx="351.436" cy="860.042" r="1" fill="rgb(0,0,0)" />
	<circle cx="354.091" cy="771.725" r="1" fill="rgb(0,0,0)" />
	<circle cx="354.963" cy="776.298" r="1" fill="rgb(0,0,0)" />
	<circle cx="355.583" cy="501.238" r="1" fill="rgb(0,0,0)" />
	<circle cx="355.64" cy="774.573" r="1" fill="rgb(0,0,0)" />
	<circle cx="355.979" cy="254.04" r="1" fill="rgb(0,0,0)" />
	<circle cx="356.046" cy="254.17" r="1" fill="rgb(0,0,0)" />
	<circle cx="356.262" cy="779.929" r="1" fill="rgb(0,0,0)" />
	<circle cx="357.538" cy="780.818" r="1" fill="rgb(0,0,0)" />
	<circle cx="358.264" cy="706.008" r="1" fill="rgb(0,0,0)" />
	<circle cx="359.89" cy="658.397" r="1" fill="rgb(0,0,0)" />
	<circle cx="361.512" cy="557.687" r="1" fill="rgb(0,0,0)" />
	<circle cx="362.652" cy="406.711" r="1" fill="rgb(0,0,0)" />
	<circle cx="362.865" cy="777.82" r="1" fill="rgb(0,0,0)" />
	<circle cx="362.948" cy="775.399" r="1" fill="rgb(0,0,0)" />
	<circle cx="363.238" cy="771.498" r="1" fill="rgb(0,0,0)" />
	<circle cx="364.031" cy="381.465" r="1" fill="rgb(0,0,0)" />
	<circle cx="365.903" cy="788.087" r="1" fill="rgb(0,0,0)" />
	<circle cx="366.552" cy="638.53" r="1" fill="rgb(0,0,0)" />
	<circle cx="366.586" cy="887.681" r="1" fill="rgb(0,0,0)" />
	<circle cx="366.779" cy="545.342" r="1" fill="rgb(0,0,0)" />
	<circle cx="367.295" cy="573.896" r="1" fill="rgb(0,0,0)" />
	<circle cx="368.191" cy="749.319" r="1" fill="rgb(0,0,0)" />
	<circle cx="368.264" cy="118.27" r="1" fill="rgb(0,0,0)" />
	<circle cx="370.426" cy="975.569" r="1" fill="rgb(0,0,0)" />
	<circle cx="370.826" cy="1061.81" r="1" fill="rgb(0,0,0)" />
	<circle cx="371.799" cy="101.641" r="1" fill="rgb(0,0,0)" />
	<circle cx="375.979" cy="1079.3" r="1" fill="rgb(0,0,0)" />
	<circle cx="377.072" cy="605.875" r="1" fill="rgb(0,0,0)" />
	<circle cx="377.478" cy="829.499" r="1" fill="rgb(0,0,0)" />
	<circle cx="380.333" cy="386.222" r="1" fill="rgb(0,0,0)" />
	<circle cx="380.43" cy="153.26" r="1" fill="rgb(0,0,0)" />
	<circle cx="382.352" cy="1076.74" r="1" fill="rgb(0,0,0)" />
	<circle cx="383.581" cy="1076.29" r="1" fill="rgb(0,0,0)" />
	<circle cx="384.544" cy="72.8171" r="1" fill="rgb(0,0,0)" />
	<circle cx="385.586" cy="521.095" r="1" fill="rgb(0,0,0)" />
	<circle cx="385.663" cy="356.235" r="1" fill="rgb(0,0,0)" />
	<circle cx="387.751" cy="872.807" r="1" fill="rgb(0,0,0)" />
	<circle cx="387.921" cy="298.826" r="1" fill="rgb(0,0,0)" />
	<circle cx="389.161" cy="370.282" r="1" fill="rgb(0,0,0)" />
	<circle cx="389.28" cy="451.621" r="1" fill="rgb(0,0,0)" />
	<circle cx="390.017" cy="681.438" r="1" fill="rgb(0,0,0)" />
	<circle cx="391.772" cy="755.838" r="1" fill="rgb(0,0,0)" />
	<circle cx="392.878" cy="405.132" r="1" fill="rgb(0,0,0)" />
	<circle cx="396.269" cy="693.983" r="1" fill="rgb(0,0,0)" />
	<circle cx="397.961" cy="696.498" r="1" fill="rgb(0,0,0)" />
	<circle cx="398.651" cy="411.678" r="1" fill="rgb(0,0,0)" />
	<circle cx="399.9" cy="426.911" r="1" fill="rgb(0,0,0)" />
	<circle cx="404.94" cy="516.092" r="1" fill="rgb(0,0,0)" />
	<circle cx="407.042" cy="827.208" r="1" fill="rgb(0,0,0)" />
	<circle cx="408.318" cy="1005.77" r="1" fill="rgb(0,0,0)" />
	<circle cx="415.786" cy="655.419" r="1" fill="rgb(0,0,0)" />
	<circle cx="418.521" cy="251.718" r="1" fill="rgb(0,0,0)" />
	<circle cx="420.15" cy="791.361" r="1" fill="rgb(0,0,0)" />
	<circle cx="421.779" cy="126.771" r="1" fill="rgb(0,0,0)" />
	<circle cx="422.365" cy="253.157" r="1" fill="rgb(0,0,0)" />
	<circle cx="422.725" cy="375.625" r="1" fill="rgb(0,0,0)" />
	<circle cx="423.195" cy="1071.22" r="1" fill="rgb(0,0,0)" />
	<circle cx="424.077" cy="1070.05" r="1" fill="rgb(0,0,0)" />
	<circle cx="424.374" cy="230.445" r="1" fill="rgb(0,0,0)" />
	<circle cx="425.013" cy="1071.91" r="1" fill="rgb(0,0,0)" />
	<circle cx="425.966" cy="1075.21" r="1" fill="rgb(0,0,0)" />
	<circle cx="426.529" cy="456.265" r="1" fill="rgb(0,0,0)" />
	<circle cx="426.606" cy="1070.42" r="1" fill="rgb(0,0,0)" />
	<circle cx="426.825" cy="508.094" r="1" fill="rgb(0,0,0)" />
	<circle cx="427.968" cy="369.456" r="1" fill="rgb(0,0,0)" />
	<circle cx="429.44" cy="370.382" r="1" fill="rgb(0,0,0)" />
	<circle cx="430.859" cy="544.166" r="1" fill="rgb(0,0,0)" />
	<circle cx="432.005" cy="994.289" r="1" fill="rgb(0,0,0)" />
	<circle cx="432.518" cy="366.475" r="1" fill="rgb(0,0,0)" />
	<circle cx="432.585" cy="249.449" r="1" fill="rgb(0,0,0)" />
	<circle cx="432.652" cy="1079.71" r="1" fill="rgb(0,0,0)" />
	<circle cx="433.634" cy="800.808" r="1" fill="rgb(0,0,0)" />
	<circle cx="435.183" cy="800.255" r="1" fill="rgb(0,0,0)" />
	<circle cx="435.793" cy="405.485" r="1" fill="rgb(0,0,0)" />
	<circle cx="435.973" cy="340.082" r="1" fill="rgb(0,0,0)" />
	<circle cx="438.185" cy="717.824" r="1" fill="rgb(0,0,0)" />
	<circle cx="439.5" cy="947.024" r="1" fill="rgb(0,0,0)" />
	<circle cx="445.463" cy="407.684" r="1" fill="rgb(0,0,0)" />
	<circle cx="446.069" cy="876.318" r="1" fill="rgb(0,0,0)" />
	<circle cx="448.887" cy="62.3474" r="1" fill="rgb(0,0,0)" />
	<circle cx="449.567" cy="362.804" r="1" fill="rgb(0,0,0)" />
	<circle cx="449.933" cy="377.357" r="1" fill="rgb(0,0,0)" />
	<circle cx="457.272" cy="133.786" r="1" fill="rgb(0,0,0)" />
	<circle cx="458.398" cy="611.431" r="1" fill="rgb(0,0,0)" />
	<circle cx="460.187" cy="804.093" r="1" fill="rgb(0,0,0)" />
	<circle cx="460.653" cy="584.802" r="1" fill="rgb(0,0,0)" />
	<circle cx="462.085" cy="652.104" r="1" fill="rgb(0,0,0)" />
	<circle cx="462.811" cy="814.076" r="1" fill="rgb(0,0,0)" />
	<circle cx="463.408" cy="664.479" r="1" fill="rgb(0,0,0)" />
	<circle cx="464.783" cy="1012.01" r="1" fill="rgb(0,0,0)" />
	<circle cx="467.162" cy="733.387" r="1" fill="rgb(0,0,0)" />
	<circle cx="473.151" cy="884.656" r="1" fill="rgb(0,0,0)" />
	<circle cx="473.578" cy="1067.68" r="1" fill="rgb(0,0,0)" />
	<circle cx="474.061" cy="534.972" r="1" fill="rgb(0,0,0)" />
	<circle cx="474.414" cy="535.662" r="1" fill="rgb(0,0,0)" />
	<circle cx="476.639" cy="854.326" r="1" fill="rgb(0,0,0)" />
	<circle cx="477.189" cy="506.891" r="1" fill="rgb(0,0,0)" />
	<circle cx="477.342" cy="63.6532" r="1" fill="rgb(0,0,0)" />
	<circle cx="478.907" cy="517.644" r="1" fill="rgb(0,0,0)" />
	<circle cx="479.407" cy="607.967" r="1" fill="rgb(0,0,0)" />
	<circle cx="479.92" cy="225.199" r="1" fill="rgb(0,0,0)" />
	<circle cx="480.037" cy="557.944" r="1" fill="rgb(0,0,0)" />
	<circle cx="480.806" cy="720.422" r="1" fill="rgb(0,0,0)" />
	<circle cx="481.782" cy="287.334" r="1" fill="rgb(0,0,0)" />
	<circle cx="482.155" cy="719.23" r="1" fill="rgb(0,0,0)" />
	<circle cx="482.528" cy="322.651" r="1" fill="rgb(0,0,0)" />
	<circle cx="482.941" cy="382.118" r="1" fill="rgb(0,0,0)" />
	<circle cx="484.307" cy="450.455" r="1" fill="rgb(0,0,0)" />
	<circle cx="485.573" cy="708.71" r="1" fill="rgb(0,0,0)" />
	<circle cx="491.592" cy="911.268" r="1" fill="rgb(0,0,0)" />
	<circle cx="493.614" cy="414.752" r="1" fill="rgb(0,0,0)" />
	<circle cx="496.606" cy="605.265" r="1" fill="rgb(0,0,0)" />
	<circle cx="497.415" cy="792.038" r="1" fill="rgb(0,0,0)" />
	<circle cx="501.709" cy="755.262" r="1" fill="rgb(0,0,0)" />
	<circle cx="504.587" cy="1070.34" r="1" fill="rgb(0,0,0)" />
	<circle cx="505.313" cy="1017.62" r="1" fill="rgb(0,0,0)" />
	<circle cx="505.593" cy="1018.15" r="1" fill="rgb(0,0,0)" />
	<circle cx="507.095" cy="949.566" r="1" fill="rgb(0,0,0)" />
	<circle cx="507.595" cy="975.329" r="1" fill="rgb(0,0,0)" />
	<circle cx="507.632" cy="947.907" r="1" fill="rgb(0,0,0)" />
	<circle cx="508.551" cy="697.864" r="1" fill="rgb(0,0,0)" />
	<circle cx="508.711" cy="173.637" r="1" fill="rgb(0,0,0)" />
	<circle cx="511.502" cy="953.164" r="1" fill="rgb(0,0,0)" />
	<circle cx="511.789" cy="952.364" r="1" fill="rgb(0,0,0)" />
	<circle cx="511.999" cy="894.643" r="1" fill="rgb(0,0,0)" />
	<circle cx="513.115" cy="951.801" r="1" fill="rgb(0,0,0)" />
	<circle cx="513.121" cy="296.435" r="1" fill="rgb(0,0,0)" />
	<circle cx="514.057" cy="951.978" r="1" fill="rgb(0,0,0)" />
	<circle cx="514.161" cy="59.4427" r="1" fill="rgb(0,0,0)" />
	<circle cx="515.886" cy="729.549" r="1" fill="rgb(0,0,0)" />
	<circle cx="516.626" cy="959.236" r="1" fill="rgb(0,0,0)" />
	<circle cx="517.229" cy="399.416" r="1" fill="rgb(0,0,0)" />
	<circle cx="518.694" cy="958.573" r="1" fill="rgb(0,0,0)" />
	<circle cx="519.25" cy="609.003" r="1" fill="rgb(0,0,0)" />
	<circle cx="519.833" cy="949.576" r="1" fill="rgb(0,0,0)" />
	<circle cx="520.153" cy="955.069" r="1" fill="rgb(0,0,0)" />
	<circle cx="520.503" cy="469.106" r="1" fill="rgb(0,0,0)" />
	<circle cx="521.362" cy="967.564" r="1" fill="rgb(0,0,0)" />
	<circle cx="523.731" cy="1028.57" r="1" fill="rgb(0,0,0)" />
	<circle cx="524.334" cy="345.285" r="1" fill="rgb(0,0,0)" />
	<circle cx="524.627" cy="959.379" r="1" fill="rgb(0,0,0)" />
	<circle cx="526.436" cy="968" r="1" fill="rgb(0,0,0)" />
	<circle cx="526.602" cy="948.743" r="1" fill="rgb(0,0,0)" />
	<circle cx="526.709" cy="887.088" r="1" fill="rgb(0,0,0)" />
	<circle cx="526.932" cy="616.012" r="1" fill="rgb(0,0,0)" />
	<circle cx="527.115" cy="426.235" r="1" fill="rgb(0,0,0)" />
	<circle cx="527.622" cy="423.903" r="1" fill="rgb(0,0,0)" />
	<circle cx="528.658" cy="824.276" r="1" fill="rgb(0,0,0)" />
	<circle cx="528.894" cy="825.086" r="1" fill="rgb(0,0,0)" />
	<circle cx="531.083" cy="943.3" r="1" fill="rgb(0,0,0)" />
	<circle cx="531.825" cy="775.875" r="1" fill="rgb(0,0,0)" />
	<circle cx="532.662" cy="770.489" r="1" fill="rgb(0,0,0)" />
	<circle cx="533.804" cy="783.283" r="1" fill="rgb(0,0,0)" />
	<circle cx="534.051" cy="652.337" r="1" fill="rgb(0,0,0)" />
	<circle cx="534.807" cy="944.143" r="1" fill="rgb(0,0,0)" />
	<circle cx="535.69" cy="775.862" r="1" fill="rgb(0,0,0)" />
	<circle cx="535.899" cy="248.976" r="1" fill="rgb(0,0,0)" />
	<circle cx="536.802" cy="943.337" r="1" fill="rgb(0,0,0)" />
	<circle cx="537.335" cy="595.682" r="1" fill="rgb(0,0,0)" />
	<circle cx="537.722" cy="1014.04" r="1" fill="rgb(0,0,0)" />
	<circle cx="538.934" cy="87.8638" r="1" fill="rgb(0,0,0)" />
	<circle cx="539.527" cy="492.264" r="1" fill="rgb(0,0,0)" />
	<circle cx="540.969" cy="590.842" r="1" fill="rgb(0,0,0)" />
	<circle cx="541.915" cy="606.854" r="1" fill="rgb(0,0,0)" />
	<circle cx="541.975" cy="977.78" r="1" fill="rgb(0,0,0)" />
	<circle cx="543.195" cy="604.982" r="1" fill="rgb(0,0,0)" />
	<circle cx="543.384" cy="589.293" r="1" fill="rgb(0,0,0)" />
	<circle cx="543.648" cy="592.88" r="1" fill="rgb(0,0,0)" />
	<circle cx="543.991" cy="594.046" r="1" fill="rgb(0,0,0)" />
	<circle cx="544.124" cy="592.311" r="1" fill="rgb(0,0,0)" />
	<circle cx="544.4" cy="589.369" r="1" fill="rgb(0,0,0)" />
	<circle cx="544.89" cy="1074.65" r="1" fill="rgb(0,0,0)" />
	<circle cx="545.14" cy="758.863" r="1" fill="rgb(0,0,0)" />
	<circle cx="545.473" cy="1075.09" r="1" fill="rgb(0,0,0)" />
	<circle cx="545.506" cy="599.439" r="1" fill="rgb(0,0,0)" />
	<circle cx="545.573" cy="601.518" r="1" fill="rgb(0,0,0)" />
	<circle cx="546.632" cy="597.591" r="1" fill="rgb(0,0,0)" />
	<circle cx="547.119" cy="618.883" r="1" fill="rgb(0,0,0)" />
	<circle cx="548.298" cy="474.343" r="1" fill="rgb(0,0,0)" />
	<circle cx="548.304" cy="594.409" r="1" fill="rgb(0,0,0)" />
	<circle cx="548.388" cy="603.3" r="1" fill="rgb(0,0,0)" />
	<circle cx="548.501" cy="596.365" r="1" fill="rgb(0,0,0)" />
	<circle cx="550.003" cy="412.637" r="1" fill="rgb(0,0,0)" />
	<circle cx="550.103" cy="413.273" r="1" fill="rgb(0,0,0)" />
	<circle cx="551.083" cy="599.113" r="1" fill="rgb(0,0,0)" />
	<circle cx="551.572" cy="396.331" r="1" fill="rgb(0,0,0)" />
	<circle cx="551.975" cy="350.072" r="1" fill="rgb(0,0,0)" />
	<circle cx="552.109" cy="274.706" r="1" fill="rgb(0,0,0)" />
	<circle cx="552.628" cy="604.719" r="1" fill="rgb(0,0,0)" />
	<circle cx="552.771" cy="591.818" r="1" fill="rgb(0,0,0)" />
	<circle cx="554.027" cy="854.856" r="1" fill="rgb(0,0,0)" />
	<circle cx="554.217" cy="505.522" r="1" fill="rgb(0,0,0)" />
	<circle cx="554.734" cy="863.623" r="1" fill="rgb(0,0,0)" />
	<circle cx="555.813" cy="862.481" r="1" fill="rgb(0,0,0)" />
	<circle cx="557.385" cy="1017.8" r="1" fill="rgb(0,0,0)" />
	<circle cx="558.524" cy="935.615" r="1" fill="rgb(0,0,0)" />
	<circle cx="559.467" cy="442.417" r="1" fill="rgb(0,0,0)" />
	<circle cx="561.006" cy="832.82" r="1" fill="rgb(0,0,0)" />
	<circle cx="562.805" cy="602.224" r="1" fill="rgb(0,0,0)" />
	<circle cx="563.045" cy="147.174" r="1" fill="rgb(0,0,0)" />
	<circle cx="564.607" cy="847.904" r="1" fill="rgb(0,0,0)" />
	<circle cx="564.727" cy="435.412" r="1" fill="rgb(0,0,0)" />
	<circle cx="565.033" cy="446.498" r="1" fill="rgb(0,0,0)" />
	<circle cx="567.089" cy="752.671" r="1" fill="rgb(0,0,0)" />
	<circle cx="570.943" cy="940.609" r="1" fill="rgb(0,0,0)" />
	<circle cx="573.524" cy="720.086" r="1" fill="rgb(0,0,0)" />
	<circle cx="574.294" cy="724.186" r="1" fill="rgb(0,0,0)" />
	<circle cx="574.384" cy="717.711" r="1" fill="rgb(0,0,0)" />
	<circle cx="574.464" cy="876.788" r="1" fill="rgb(0,0,0)" />
	<circle cx="575.24" cy="820.835" r="1" fill="rgb(0,0,0)" />
	<circle cx="575.513" cy="660.595" r="1" fill="rgb(0,0,0)" />
	<circle cx="575.839" cy="1020.83" r="1" fill="rgb(0,0,0)" />
	<circle cx="575.849" cy="913.44" r="1" fill="rgb(0,0,0)" />
	<circle cx="576.342" cy="204.919" r="1" fill="rgb(0,0,0)" />
	<circle cx="576.559" cy="1020.98" r="1" fill="rgb(0,0,0)" />
	<circle cx="576.762" cy="201.345" r="1" fill="rgb(0,0,0)" />
	<circle cx="577.245" cy="724.253" r="1" fill="rgb(0,0,0)" />
	<circle cx="577.808" cy="723.49" r="1" fill="rgb(0,0,0)" />
	<circle cx="578.394" cy="464.639" r="1" fill="rgb(0,0,0)" />
	<circle cx="578.528" cy="351.598" r="1" fill="rgb(0,0,0)" />
	<circle cx="579.744" cy="838.533" r="1" fill="rgb(0,0,0)" />
	<circle cx="579.88" cy="569.01" r="1" fill="rgb(0,0,0)" />
	<circle cx="579.943" cy="792.591" r="1" fill="rgb(0,0,0)" />
	<circle cx="580.203" cy="911.904" r="1" fill="rgb(0,0,0)" />
	<circle cx="580.373" cy="209.013" r="1" fill="rgb(0,0,0)" />
	<circle cx="581.329" cy="1019.81" r="1" fill="rgb(0,0,0)" />
	<circle cx="581.546" cy="916.168" r="1" fill="rgb(0,0,0)" />
	<circle cx="583.165" cy="68.4734" r="1" fill="rgb(0,0,0)" />
	<circle cx="583.178" cy="204.499" r="1" fill="rgb(0,0,0)" />
	<circle cx="584.424" cy="68.6765" r="1" fill="rgb(0,0,0)" />
	<circle cx="586.099" cy="451.142" r="1" fill="rgb(0,0,0)" />
	<circle cx="586.139" cy="211.448" r="1" fill="rgb(0,0,0)" />
	<circle cx="587.692" cy="199.979" r="1" fill="rgb(0,0,0)" />
	<circle cx="588.105" cy="387.331" r="1" fill="rgb(0,0,0)" />
	<circle cx="589.763" cy="509.999" r="1" fill="rgb(0,0,0)" />
	<circle cx="590.523" cy="965.495" r="1" fill="rgb(0,0,0)" />
	<circle cx="590.596" cy="585.875" r="1" fill="rgb(0,0,0)" />
	<circle cx="593.424" cy="965.818" r="1" fill="rgb(0,0,0)" />
	<circle cx="594.694" cy="691.325" r="1" fill="rgb(0,0,0)" />
	<circle cx="594.987" cy="918.577" r="1" fill="rgb(0,0,0)" />
	<circle cx="595.62" cy="282.134" r="1" fill="rgb(0,0,0)" />
	<circle cx="598.001" cy="280.559" r="1" fill="rgb(0,0,0)" />
	<circle cx="599.444" cy="570.212" r="1" fill="rgb(0,0,0)" />
	<circle cx="599.55" cy="790.505" r="1" fill="rgb(0,0,0)" />
	<circle cx="599.737" cy="942.784" r="1" fill="rgb(0,0,0)" />
	<circle cx="602.552" cy="919.802" r="1" fill="rgb(0,0,0)" />
	<circle cx="611.136" cy="973.906" r="1" fill="rgb(0,0,0)" />
	<circle cx="611.322" cy="975.026" r="1" fill="rgb(0,0,0)" />
	<circle cx="611.632" cy="119.086" r="1" fill="rgb(0,0,0)" />
	<circle cx="613.601" cy="324.133" r="1" fill="rgb(0,0,0)" />
	<circle cx="614.047" cy="439.09" r="1" fill="rgb(0,0,0)" />
	<circle cx="614.664" cy="616.808" r="1" fill="rgb(0,0,0)" />
	<circle cx="614.903" cy="616.235" r="1" fill="rgb(0,0,0)" />
	<circle cx="615.57" cy="773.283" r="1" fill="rgb(0,0,0)" />
	<circle cx="615.823" cy="974.386" r="1" fill="rgb(0,0,0)" />
	<circle cx="616.472" cy="418.707" r="1" fill="rgb(0,0,0)" />
	<circle cx="617.195" cy="446.914" r="1" fill="rgb(0,0,0)" />
	<circle cx="620.163" cy="980.862" r="1" fill="rgb(0,0,0)" />
	<circle cx="621.539" cy="518.813" r="1" fill="rgb(0,0,0)" />
	<circle cx="622.422" cy="580.822" r="1" fill="rgb(0,0,0)" />
	<circle cx="623.551" cy="842.331" r="1" fill="rgb(0,0,0)" />
	<circle cx="623.584" cy="981.278" r="1" fill="rgb(0,0,0)" />
	<circle cx="623.734" cy="634.746" r="1" fill="rgb(0,0,0)" />
	<circle cx="625.883" cy="475.778" r="1" fill="rgb(0,0,0)" />
	<circle cx="627.535" cy="645.685" r="1" fill="rgb(0,0,0)" />
	<circle cx="629.247" cy="1060.3" r="1" fill="rgb(0,0,0)" />
	<circle cx="631.982" cy="692.074" r="1" fill="rgb(0,0,0)" />
	<circle cx="632.252" cy="899.113" r="1" fill="rgb(0,0,0)" />
	<circle cx="632.392" cy="698.04" r="1" fill="rgb(0,0,0)" />
	<circle cx="633.221" cy="897.001" r="1" fill="rgb(0,0,0)" />
	<circle cx="637.332" cy="285.392" r="1" fill="rgb(0,0,0)" />
	<circle cx="637.751" cy="665.026" r="1" fill="rgb(0,0,0)" />
	<circle cx="640.306" cy="618.707" r="1" fill="rgb(0,0,0)" />
	<circle cx="640.993" cy="639.269" r="1" fill="rgb(0,0,0)" />
	<circle cx="641.179" cy="618.407" r="1" fill="rgb(0,0,0)" />
	<circle cx="642.045" cy="201.458" r="1" fill="rgb(0,0,0)" />
	<circle cx="642.099" cy="965.462" r="1" fill="rgb(0,0,0)" />
	<circle cx="643.364" cy="878.137" r="1" fill="rgb(0,0,0)" />
	<circle cx="647.282" cy="566.075" r="1" fill="rgb(0,0,0)" />
	<circle cx="647.308" cy="1030.15" r="1" fill="rgb(0,0,0)" />
	<circle cx="648.891" cy="966.954" r="1" fill="rgb(0,0,0)" />
	<circle cx="649.64" cy="797.984" r="1" fill="rgb(0,0,0)" />
	<circle cx="650.33" cy="583.077" r="1" fill="rgb(0,0,0)" />
	<circle cx="652.538" cy="166.345" r="1" fill="rgb(0,0,0)" />
	<circle cx="653.008" cy="975.402" r="1" fill="rgb(0,0,0)" />
	<circle cx="653.638" cy="744.066" r="1" fill="rgb(0,0,0)" />
	<circle cx="654.41" cy="774.583" r="1" fill="rgb(0,0,0)" />
	<circle cx="656.706" cy="255.865" r="1" fill="rgb(0,0,0)" />
	<circle cx="657.332" cy="592.511" r="1" fill="rgb(0,0,0)" />
	<circle cx="658.644" cy="191.245" r="1" fill="rgb(0,0,0)" />
	<circle cx="659.011" cy="516.172" r="1" fill="rgb(0,0,0)" />
	<circle cx="660.147" cy="698.024" r="1" fill="rgb(0,0,0)" />
	<circle cx="660.21" cy="993.01" r="1" fill="rgb(0,0,0)" />
	<circle cx="661.326" cy="1021.85" r="1" fill="rgb(0,0,0)" />
	<circle cx="662.815" cy="903.3" r="1" fill="rgb(0,0,0)" />
	<circle cx="663.135" cy="951.035" r="1" fill="rgb(0,0,0)" />
	<circle cx="663.324" cy="85.2888" r="1" fill="rgb(0,0,0)" />
	<circle cx="664.31" cy="905.699" r="1" fill="rgb(0,0,0)" />
	<circle cx="665.5" cy="833.99" r="1" fill="rgb(0,0,0)" />
	<circle cx="666.449" cy="535.715" r="1" fill="rgb(0,0,0)" />
	<circle cx="667.618" cy="386.771" r="1" fill="rgb(0,0,0)" />
	<circle cx="668.314" cy="893.913" r="1" fill="rgb(0,0,0)" />
	<circle cx="674.614" cy="619.553" r="1" fill="rgb(0,0,0)" />
	<circle cx="675.476" cy="782.954" r="1" fill="rgb(0,0,0)" />
	<circle cx="676.742" cy="550.729" r="1" fill="rgb(0,0,0)" />
	<circle cx="677.548" cy="104.822" r="1" fill="rgb(0,0,0)" />
	<circle cx="677.941" cy="336.571" r="1" fill="rgb(0,0,0)" />
	<circle cx="678.331" cy="972.084" r="1" fill="rgb(0,0,0)" />
	<circle cx="680.63" cy="348.643" r="1" fill="rgb(0,0,0)" />
	<circle cx="682.435" cy="558.393" r="1" fill="rgb(0,0,0)" />
	<circle cx="683.861" cy="382.387" r="1" fill="rgb(0,0,0)" />
	<circle cx="684.667" cy="381.705" r="1" fill="rgb(0,0,0)" />
	<circle cx="685.303" cy="836.361" r="1" fill="rgb(0,0,0)" />
	<circle cx="685.493" cy="898.174" r="1" fill="rgb(0,0,0)" />
	<circle cx="687.655" cy="420.755" r="1" fill="rgb(0,0,0)" />
	<circle cx="687.805" cy="900.612" r="1" fill="rgb(0,0,0)" />
	<circle cx="687.941" cy="967.301" r="1" fill="rgb(0,0,0)" />
	<circle cx="688.961" cy="393.157" r="1" fill="rgb(0,0,0)" />
	<circle cx="689.454" cy="941.871" r="1" fill="rgb(0,0,0)" />
	<circle cx="691.496" cy="745.176" r="1" fill="rgb(0,0,0)" />
	<circle cx="691.726" cy="433.29" r="1" fill="rgb(0,0,0)" />
	<circle cx="691.739" cy="312.228" r="1" fill="rgb(0,0,0)" />
	<circle cx="692.009" cy="889.003" r="1" fill="rgb(0,0,0)" />
	<circle cx="692.382" cy="345.965" r="1" fill="rgb(0,0,0)" />
	<circle cx="695.58" cy="86.6412" r="1" fill="rgb(0,0,0)" />
	<circle cx="696.076" cy="773.607" r="1" fill="rgb(0,0,0)" />
	<circle cx="696.999" cy="891.238" r="1" fill="rgb(0,0,0)" />
	<circle cx="698.308" cy="129.822" r="1" fill="rgb(0,0,0)" />
	<circle cx="698.994" cy="312.018" r="1" fill="rgb(0,0,0)" />
	<circle cx="699.5" cy="467.721" r="1" fill="rgb(0,0,0)" />
	<circle cx="701.556" cy="470.725" r="1" fill="rgb(0,0,0)" />
	<circle cx="701.562" cy="417.884" r="1" fill="rgb(0,0,0)" />
	<circle cx="702.165" cy="343.886" r="1" fill="rgb(0,0,0)" />
	<circle cx="702.239" cy="474.503" r="1" fill="rgb(0,0,0)" />
	<circle cx="705.3" cy="468.273" r="1" fill="rgb(0,0,0)" />
	<circle cx="709.574" cy="767.824" r="1" fill="rgb(0,0,0)" />
	<circle cx="711.043" cy="126.748" r="1" fill="rgb(0,0,0)" />
	<circle cx="711.163" cy="900.159" r="1" fill="rgb(0,0,0)" />
	<circle cx="711.476" cy="904.073" r="1" fill="rgb(0,0,0)" />
	<circle cx="711.979" cy="774.683" r="1" fill="rgb(0,0,0)" />
	<circle cx="714.097" cy="749.606" r="1" fill="rgb(0,0,0)" />
	<circle cx="714.92" cy="890.412" r="1" fill="rgb(0,0,0)" />
	<circle cx="715.839" cy="885.495" r="1" fill="rgb(0,0,0)" />
	<circle cx="718.205" cy="339.616" r="1" fill="rgb(0,0,0)" />
	<circle cx="718.235" cy="591.981" r="1" fill="rgb(0,0,0)" />
	<circle cx="718.791" cy="800.749" r="1" fill="rgb(0,0,0)" />
	<circle cx="719.121" cy="803.477" r="1" fill="rgb(0,0,0)" />
	<circle cx="719.644" cy="397.907" r="1" fill="rgb(0,0,0)" />
	<circle cx="720.463" cy="848.487" r="1" fill="rgb(0,0,0)" />
	<circle cx="721.282" cy="848.513" r="1" fill="rgb(0,0,0)" />
	<circle cx="721.289" cy="846.085" r="1" fill="rgb(0,0,0)" />
	<circle cx="722.482" cy="510.422" r="1" fill="rgb(0,0,0)" />
	<circle cx="722.652" cy="1011.48" r="1" fill="rgb(0,0,0)" />
	<circle cx="723.434" cy="413.174" r="1" fill="rgb(0,0,0)" />
	<circle cx="723.448" cy="111.878" r="1" fill="rgb(0,0,0)" />
	<circle cx="724.161" cy="803.48" r="1" fill="rgb(0,0,0)" />
	<circle cx="724.507" cy="800.642" r="1" fill="rgb(0,0,0)" />
	<circle cx="730.083" cy="720.555" r="1" fill="rgb(0,0,0)" />
	<circle cx="736.639" cy="207.447" r="1" fill="rgb(0,0,0)" />
	<circle cx="738.148" cy="687.957" r="1" fill="rgb(0,0,0)" />
	<circle cx="739.117" cy="902.83" r="1" fill="rgb(0,0,0)" />
	<circle cx="740.11" cy="853.117" r="1" fill="rgb(0,0,0)" />
	<circle cx="741.109" cy="835.022" r="1" fill="rgb(0,0,0)" />
	<circle cx="742.282" cy="308.177" r="1" fill="rgb(0,0,0)" />
	<circle cx="744.224" cy="239.886" r="1" fill="rgb(0,0,0)" />
	<circle cx="744.68" cy="583.886" r="1" fill="rgb(0,0,0)" />
	<circle cx="745.03" cy="587.741" r="1" fill="rgb(0,0,0)" />
	<circle cx="745.44" cy="330.792" r="1" fill="rgb(0,0,0)" />
	<circle cx="746.779" cy="323.067" r="1" fill="rgb(0,0,0)" />
	<circle cx="750" cy="775.988" r="1" fill="rgb(0,0,0)" />
	<circle cx="750.147" cy="930.349" r="1" fill="rgb(0,0,0)" />
	<circle cx="751.342" cy="394.939" r="1" fill="rgb(0,0,0)" />
	<circle cx="752.625" cy="1012.71" r="1" fill="rgb(0,0,0)" />
	<circle cx="752.931" cy="463.217" r="1" fill="rgb(0,0,0)" />
	<circle cx="753.414" cy="1023.56" r="1" fill="rgb(0,0,0)" />
	<circle cx="754.84" cy="158.61" r="1" fill="rgb(0,0,0)" />
	<circle cx="754.963" cy="332.724" r="1" fill="rgb(0,0,0)" />
	<circle cx="756.166" cy="989.659" r="1" fill="rgb(0,0,0)" />
	<circle cx="756.332" cy="559.862" r="1" fill="rgb(0,0,0)" />
	<circle cx="757.049" cy="579.033" r="1" fill="rgb(0,0,0)" />
	<circle cx="759.014" cy="465.705" r="1" fill="rgb(0,0,0)" />
	<circle cx="759.46" cy="212.301" r="1" fill="rgb(0,0,0)" />
	<circle cx="760.786" cy="680.066" r="1" fill="rgb(0,0,0)" />
	<circle cx="761.179" cy="701.695" r="1" fill="rgb(0,0,0)" />
	<circle cx="762.355" cy="453.856" r="1" fill="rgb(0,0,0)" />
	<circle cx="762.598" cy="682.857" r="1" fill="rgb(0,0,0)" />
	<circle cx="763.618" cy="478.22" r="1" fill="rgb(0,0,0)" />
	<circle cx="764.737" cy="459.24" r="1" fill="rgb(0,0,0)" />
	<circle cx="767.278" cy="677.384" r="1" fill="rgb(0,0,0)" />
	<circle cx="769.36" cy="458.443" r="1" fill="rgb(0,0,0)" />
	<circle cx="770.969" cy="456.178" r="1" fill="rgb(0,0,0)" />
	<circle cx="772.005" cy="456.058" r="1" fill="rgb(0,0,0)" />
	<circle cx="773.055" cy="785.269" r="1" fill="rgb(0,0,0)" />
	<circle cx="775.386" cy="83.8298" r="1" fill="rgb(0,0,0)" />
	<circle cx="776.029" cy="809.483" r="1" fill="rgb(0,0,0)" />
	<circle cx="776.302" cy="517.104" r="1" fill="rgb(0,0,0)" />
	<circle cx="776.459" cy="456.851" r="1" fill="rgb(0,0,0)" />
	<circle cx="777.722" cy="485.042" r="1" fill="rgb(0,0,0)" />
	<circle cx="778.601" cy="234.013" r="1" fill="rgb(0,0,0)" />
	<circle cx="778.684" cy="534.739" r="1" fill="rgb(0,0,0)" />
	<circle cx="779.507" cy="519.343" r="1" fill="rgb(0,0,0)" />
	<circle cx="780.496" cy="610.449" r="1" fill="rgb(0,0,0)" />
	<circle cx="781.612" cy="732.401" r="1" fill="rgb(0,0,0)" />
	<circle cx="784.324" cy="644.016" r="1" fill="rgb(0,0,0)" />
	<circle cx="784.477" cy="423.21" r="1" fill="rgb(0,0,0)" />
	<circle cx="787.132" cy="1038.94" r="1" fill="rgb(0,0,0)" />
	<circle cx="788.638" cy="415.978" r="1" fill="rgb(0,0,0)" />
	<circle cx="789.737" cy="195.549" r="1" fill="rgb(0,0,0)" />
	<circle cx="789.903" cy="949.339" r="1" fill="rgb(0,0,0)" />
	<circle cx="794.54" cy="455.169" r="1" fill="rgb(0,0,0)" />
	<circle cx="794.554" cy="834.356" r="1" fill="rgb(0,0,0)" />
	<circle cx="795.573" cy="56.3947" r="1" fill="rgb(0,0,0)" />
	<circle cx="795.986" cy="910.382" r="1" fill="rgb(0,0,0)" />
	<circle cx="796.812" cy="344.886" r="1" fill="rgb(0,0,0)" />
	<circle cx="798.404" cy="879.663" r="1" fill="rgb(0,0,0)" />
	<circle cx="798.498" cy="624.792" r="1" fill="rgb(0,0,0)" />
	<circle cx="799.744" cy="882.827" r="1" fill="rgb(0,0,0)" />
	<circle cx="800.183" cy="733.93" r="1" fill="rgb(0,0,0)" />
	<circle cx="802.229" cy="613.347" r="1" fill="rgb(0,0,0)" />
	<circle cx="803.844" cy="630.339" r="1" fill="rgb(0,0,0)" />
	<circle cx="805.04" cy="580.206" r="1" fill="rgb(0,0,0)" />
	<circle cx="807.099" cy="874.156" r="1" fill="rgb(0,0,0)" />
	<circle cx="807.645" cy="460.855" r="1" fill="rgb(0,0,0)" />
	<circle cx="813.461" cy="857.131" r="1" fill="rgb(0,0,0)" />
	<circle cx="814.863" cy="271.508" r="1" fill="rgb(0,0,0)" />
	<circle cx="814.88" cy="840.189" r="1" fill="rgb(0,0,0)" />
	<circle cx="815.193" cy="840.435" r="1" fill="rgb(0,0,0)" />
	<circle cx="820.59" cy="508.58" r="1" fill="rgb(0,0,0)" />
	<circle cx="821.499" cy="512.467" r="1" fill="rgb(0,0,0)" />
	<circle cx="826.066" cy="514.19" r="1" fill="rgb(0,0,0)" />
	<circle cx="830.713" cy="739.889" r="1" fill="rgb(0,0,0)" />
	<circle cx="831.113" cy="117.641" r="1" fill="rgb(0,0,0)" />
	<circle cx="833.181" cy="739.153" r="1" fill="rgb(0,0,0)" />
	<circle cx="836.036" cy="359.289" r="1" fill="rgb(0,0,0)" />
	<circle cx="837.322" cy="787.108" r="1" fill="rgb(0,0,0)" />
	<circle cx="845.073" cy="902.651" r="1" fill="rgb(0,0,0)" />
	<circle cx="850.73" cy="875.945" r="1" fill="rgb(0,0,0)" />
	<circle cx="851.243" cy="675.682" r="1" fill="rgb(0,0,0)" />
	<circle cx="851.532" cy="261.998" r="1" fill="rgb(0,0,0)" />
	<circle cx="852.492" cy="489.756" r="1" fill="rgb(0,0,0)" />
	<circle cx="853.524" cy="218.05" r="1" fill="rgb(0,0,0)" />
	<circle cx="859.147" cy="165.146" r="1" fill="rgb(0,0,0)" />
	<circle cx="861.076" cy="1013.34" r="1" fill="rgb(0,0,0)" />
	<circle cx="862.422" cy="457.777" r="1" fill="rgb(0,0,0)" />
	<circle cx="864.077" cy="194.303" r="1" fill="rgb(0,0,0)" />
	<circle cx="864.557" cy="419.859" r="1" fill="rgb(0,0,0)" />
	<circle cx="865.636" cy="349.283" r="1" fill="rgb(0,0,0)" />
	<circle cx="869.47" cy="715.725" r="1" fill="rgb(0,0,0)" />
	<circle cx="872.528" cy="497.148" r="1" fill="rgb(0,0,0)" />
	<circle cx="873.361" cy="275.762" r="1" fill="rgb(0,0,0)" />
	<circle cx="874.407" cy="198.293" r="1" fill="rgb(0,0,0)" />
	<circle cx="876.942" cy="627.434" r="1" fill="rgb(0,0,0)" />
	<circle cx="878.005" cy="150.405" r="1" fill="rgb(0,0,0)" />
	<circle cx="878.827" cy="394.113" r="1" fill="rgb(0,0,0)" />
	<circle cx="879.803" cy="930.649" r="1" fill="rgb(0,0,0)" />
	<circle cx="884.337" cy="633.127" r="1" fill="rgb(0,0,0)" />
	<circle cx="889.31" cy="627.264" r="1" fill="rgb(0,0,0)" />
	<circle cx="890.31" cy="626.162" r="1" fill="rgb(0,0,0)" />
	<circle cx="891.772" cy="560.945" r="1" fill="rgb(0,0,0)" />
	<circle cx="893.238" cy="286.968" r="1" fill="rgb(0,0,0)" />
	<circle cx="894.61" cy="405.888" r="1" fill="rgb(0,0,0)" />
	<circle cx="897.142" cy="870.422" r="1" fill="rgb(0,0,0)" />
	<circle cx="897.305" cy="162.397" r="1" fill="rgb(0,0,0)" />
	<circle cx="898.288" cy="483.643" r="1" fill="rgb(0,0,0)" />
	<circle cx="900.736" cy="802.897" r="1" fill="rgb(0,0,0)" />
	<circle cx="900.963" cy="407.267" r="1" fill="rgb(0,0,0)" />
	<circle cx="901.689" cy="884.006" r="1" fill="rgb(0,0,0)" />
	<circle cx="905.01" cy="687.241" r="1" fill="rgb(0,0,0)" />
	<circle cx="905.403" cy="687.92" r="1" fill="rgb(0,0,0)" />
	<circle cx="908.341" cy="51.7978" r="1" fill="rgb(0,0,0)" />
	<circle cx="909.194" cy="636.555" r="1" fill="rgb(0,0,0)" />
	<circle cx="911.646" cy="774.986" r="1" fill="rgb(0,0,0)" />
	<circle cx="911.722" cy="370.912" r="1" fill="rgb(0,0,0)" />
	<circle cx="913.254" cy="804.073" r="1" fill="rgb(0,0,0)" />
	<circle cx="913.781" cy="626.871" r="1" fill="rgb(0,0,0)" />
	<circle cx="915.986" cy="425.269" r="1" fill="rgb(0,0,0)" />
	<circle cx="917.608" cy="277.544" r="1" fill="rgb(0,0,0)" />
	<circle cx="917.685" cy="909.969" r="1" fill="rgb(0,0,0)" />
	<circle cx="918.964" cy="623.087" r="1" fill="rgb(0,0,0)" />
	<circle cx="919.797" cy="850.669" r="1" fill="rgb(0,0,0)" />
	<circle cx="920.71" cy="494.583" r="1" fill="rgb(0,0,0)" />
	<circle cx="921.149" cy="679.826" r="1" fill="rgb(0,0,0)" />
	<circle cx="925.946" cy="946.058" r="1" fill="rgb(0,0,0)" />
	<circle cx="932.921" cy="376.625" r="1" fill="rgb(0,0,0)" />
	<circle cx="933.045" cy="765.639" r="1" fill="rgb(0,0,0)" />
	<circle cx="934.937" cy="244.17" r="1" fill="rgb(0,0,0)" />
	<circle cx="935.943" cy="530.712" r="1" fill="rgb(0,0,0)" />
	<circle cx="936.559" cy="595.549" r="1" fill="rgb(0,0,0)" />
	<circle cx="936.805" cy="643.973" r="1" fill="rgb(0,0,0)" />
	<circle cx="938.787" cy="1031.86" r="1" fill="rgb(0,0,0)" />
	<circle cx="943.648" cy="435.885" r="1" fill="rgb(0,0,0)" />
	<circle cx="944.094" cy="253.866" r="1" fill="rgb(0,0,0)" />
	<circle cx="946.939" cy="642.387" r="1" fill="rgb(0,0,0)" />
	<circle cx="950.46" cy="552.054" r="1" fill="rgb(0,0,0)" />
	<circle cx="950.773" cy="556.132" r="1" fill="rgb(0,0,0)" />
	<circle cx="952.085" cy="553.717" r="1" fill="rgb(0,0,0)" />
	<circle cx="952.535" cy="554.363" r="1" fill="rgb(0,0,0)" />
	<circle cx="956.622" cy="925.079" r="1" fill="rgb(0,0,0)" />
	<circle cx="956.639" cy="541.628" r="1" fill="rgb(0,0,0)" />
	<circle cx="957.941" cy="595.136" r="1" fill="rgb(0,0,0)" />
	<circle cx="958.571" cy="594.04" r="1" fill="rgb(0,0,0)" />
	<circle cx="959.833" cy="794.476" r="1" fill="rgb(0,0,0)" />
	<circle cx="963.944" cy="858.75" r="1" fill="rgb(0,0,0)" />
	<circle cx="964.117" cy="619.616" r="1" fill="rgb(0,0,0)" />
	<circle cx="964.803" cy="113.737" r="1" fill="rgb(0,0,0)" />
	<circle cx="967.635" cy="475.908" r="1" fill="rgb(0,0,0)" />
	<circle cx="969.937" cy="816.455" r="1" fill="rgb(0,0,0)" />
	<circle cx="971.252" cy="574.989" r="1" fill="rgb(0,0,0)" />
	<circle cx="971.532" cy="765.908" r="1" fill="rgb(0,0,0)" />
	<circle cx="972.685" cy="117.401" r="1" fill="rgb(0,0,0)" />
	<circle cx="973.764" cy="751.708" r="1" fill="rgb(0,0,0)" />
	<circle cx="974.384" cy="752.641" r="1" fill="rgb(0,0,0)" />
	<circle cx="975.193" cy="417.347" r="1" fill="rgb(0,0,0)" />
	<circle cx="975.23" cy="253.89" r="1" fill="rgb(0,0,0)" />
	<circle cx="975.516" cy="253.946" r="1" fill="rgb(0,0,0)" />
	<circle cx="976.579" cy="746.455" r="1" fill="rgb(0,0,0)" />
	<circle cx="981.009" cy="739.952" r="1" fill="rgb(0,0,0)" />
	<circle cx="981.662" cy="905.052" r="1" fill="rgb(0,0,0)" />
	<circle cx="981.729" cy="431.711" r="1" fill="rgb(0,0,0)" />
	<circle cx="982.292" cy="739.046" r="1" fill="rgb(0,0,0)" />
	<circle cx="983.268" cy="834.383" r="1" fill="rgb(0,0,0)" />
	<circle cx="985.879" cy="348.227" r="1" fill="rgb(0,0,0)" />
	<circle cx="987.079" cy="348.377" r="1" fill="rgb(0,0,0)" />
	<circle cx="988.544" cy="907.291" r="1" fill="rgb(0,0,0)" />
	<circle cx="989.217" cy="1023.55" r="1" fill="rgb(0,0,0)" />
	<circle cx="997.029" cy="713.687" r="1" fill="rgb(0,0,0)" />
	<circle cx="998.521" cy="891.685" r="1" fill="rgb(0,0,0)" />
	<circle cx="999.147" cy="726.778" r="1" fill="rgb(0,0,0)" />
	<circle cx="999.42" cy="155.712" r="1" fill="rgb(0,0,0)" />
	<circle cx="1003.31" cy="891.395" r="1" fill="rgb(0,0,0)" />
	<circle cx="1003.45" cy="907.657" r="1" fill="rgb(0,0,0)" />
	<circle cx="1005.56" cy="836.108" r="1" fill="rgb(0,0,0)" />
	<circle cx="1007.73" cy="599.303" r="1" fill="rgb(0,0,0)" />
	<circle cx="1012.7" cy="414.243" r="1" fill="rgb(0,0,0)" />
	<circle cx="1013.26" cy="220.355" r="1" fill="rgb(0,0,0)" />
	<circle cx="1014" cy="222.367" r="1" fill="rgb(0,0,0)" />
	<circle cx="1014.57" cy="898.53" r="1" fill="rgb(0,0,0)" />
	<circle cx="1015.62" cy="898.387" r="1" fill="rgb(0,0,0)" />
	<circle cx="1016.34" cy="626.831" r="1" fill="rgb(0,0,0)" />
	<circle cx="1016.55" cy="716.615" r="1" fill="rgb(0,0,0)" />
	<circle cx="1020.22" cy="661.408" r="1" fill="rgb(0,0,0)" />
	<circle cx="1021.13" cy="706.911" r="1" fill="rgb(0,0,0)" />
	<circle cx="1021.71" cy="61.0516" r="1" fill="rgb(0,0,0)" />
	<circle cx="1021.93" cy="712.657" r="1" fill="rgb(0,0,0)" />
	<circle cx="1023.39" cy="81.025" r="1" fill="rgb(0,0,0)" />
	<circle cx="1023.46" cy="455.142" r="1" fill="rgb(0,0,0)" />
	<circle cx="1023.85" cy="410.828" r="1" fill="rgb(0,0,0)" />
	<circle cx="1025.48" cy="998.717" r="1" fill="rgb(0,0,0)" />
	<circle cx="1025.95" cy="959.892" r="1" fill="rgb(0,0,0)" />
	<circle cx="1026.58" cy="110.962" r="1" fill="rgb(0,0,0)" />
	<circle cx="1027.71" cy="231.811" r="1" fill="rgb(0,0,0)" />
	<circle cx="1028.91" cy="309.822" r="1" fill="rgb(0,0,0)" />
	<circle cx="1033.09" cy="104.413" r="1" fill="rgb(0,0,0)" />
	<circle cx="1033.3" cy="104.832" r="1" fill="rgb(0,0,0)" />
	<circle cx="1034.32" cy="469.939" r="1" fill="rgb(0,0,0)" />
	<circle cx="1036.01" cy="670.729" r="1" fill="rgb(0,0,0)" />
	<circle cx="1037.82" cy="676.575" r="1" fill="rgb(0,0,0)" />
	<circle cx="1039.62" cy="79.0296" r="1" fill="rgb(0,0,0)" />
	<circle cx="1040.51" cy="834.283" r="1" fill="rgb(0,0,0)" />
	<circle cx="1046.02" cy="286.648" r="1" fill="rgb(0,0,0)" />
	<circle cx="1047.97" cy="155.402" r="1" fill="rgb(0,0,0)" />
	<circle cx="1049.14" cy="595.968" r="1" fill="rgb(0,0,0)" />
	<circle cx="1050" cy="337.704" r="1" fill="rgb(0,0,0)" />
</svg>
