<?xml version="1.0" standalone="no" ?>
<!DOCTYPE svg PUBLIC "-//W3C//DTD SVG 1.1//EN" "http://www.w3.org/Graphics/SVG/1.1/DTD/svg11.dtd">
<svg width="1100px" height="1142.24px" xmlns="http://www.w3.org/2000/svg" version="1.1" >
	<circle cx="50" cy="860.062" r="1" fill="rgb(0,0,0)" />
	<circle cx="51.8446" cy="234.283" r="1" fill="rgb(0,0,0)" />
	<circle cx="52.7333" cy="591.913" r="1" fill="rgb(0,0,0)" />
	<circle cx="53.7025" cy="141.928" r="1" fill="rgb(0,0,0)" />
	<circle cx="59.5012" cy="953.487" r="1" fill="rgb(0,0,0)" />
	<circle cx="60.1518" cy="317.335" r="1" fill="rgb(0,0,0)" />
	<circle cx="64.7263" cy="572.636" r="1" fill="rgb(0,0,0)" />
	<circle cx="77.5477" cy="383.387" r="1" fill="rgb(0,0,0)" />
	<circle cx="81.0389" cy="301.985" r="1" fill="rgb(0,0,0)" />
	<circle cx="87.0757" cy="155.245" r="1" fill="rgb(0,0,0)" />
	<circle cx="95.175" cy="986.3" r="1" fill="rgb(0,0,0)" />
	<circle cx="102.728" cy="314.086" r="1" fill="rgb(0,0,0)" />
	<circle cx="103.405" cy="581.51" r="1" fill="rgb(0,0,0)" />
	<circle cx="104.351" cy="828.768" r="1" fill="rgb(0,0,0)" />
	<circle cx="104.914" cy="1081.7" r="1" fill="rgb(0,0,0)" />
	<circle cx="123.803" cy="715.244" r="1" fill="rgb(0,0,0)" />
	<circle cx="136.399" cy="611.003" r="1" fill="rgb(0,0,0)" />
	<circle cx="140.89" cy="547.962" r="1" fill="rgb(0,0,0)" />
	<circle cx="154.637" cy="316.976" r="1" fill="rgb(0,0,0)" />
	<circle cx="155.935" cy="508.616" r="1" fill="rgb(0,0,0)" />
	<circle cx="157.843" cy="322.289" r="1" fill="rgb(0,0,0)" />
	<circle cx="157.96" cy="504.417" r="1" fill="rgb(0,0,0)" />
	<circle cx="158.269" cy="515.414" r="1" fill="rgb(0,0,0)" />
	<circle cx="160.14" cy="508.14" r="1" fill="rgb(0,0,0)" />
	<circle cx="162.87" cy="442.678" r="1" fill="rgb(0,0,0)" />
	<circle cx="163.048" cy="519.046" r="1" fill="rgb(0,0,0)" />
	<circle cx="163.491" cy="93.285" r="1" fill="rgb(0,0,0)" />
	<circle cx="164.242" cy="320.609" r="1" fill="rgb(0,0,0)" />
	<circle cx="176.705" cy="126.064" r="1" fill="rgb(0,0,0)" />
	<circle cx="177.821" cy="174.107" r="1" fill="rgb(0,0,0)" />
	<circle cx="178.807" cy="411.7" r="1" fill="rgb(0,0,0)" />
	<circle cx="178.895" cy="867.682" r="1" fill="rgb(0,0,0)" />
	<circle cx="180.709" cy="733.619" r="1" fill="rgb(0,0,0)" />
	<circle cx="182.768" cy="1037.8" r="1" fill="rgb(0,0,0)" />
	<circle cx="184.21" cy="57.0175" r="1" fill="rgb(0,0,0)" />
	<circle cx="184.921" cy="1044.62" r="1" fill="rgb(0,0,0)" />
	<circle cx="187.551" cy="1048.62" r="1" fill="rgb(0,0,0)" />
	<circle cx="197.055" cy="703.097" r="1" fill="rgb(0,0,0)" />
	<circle cx="200.597" cy="123.2" r="1" fill="rgb(0,0,0)" />
	<circle cx="203.122" cy="253.054" r="1" fill="rgb(0,0,0)" />
	<circle cx="205.46" cy="459.98" r="1" fill="rgb(0,0,0)" />
	<circle cx="205.976" cy="561.478" r="1" fill="rgb(0,0,0)" />
	<circle cx="208.381" cy="774.116" r="1" fill="rgb(0,0,0)" />
	<circle cx="210.192" cy="829.727" r="1" fill="rgb(0,0,0)" />
	<circle cx="211.148" cy="407.722" r="1" fill="rgb(0,0,0)" />
	<circle cx="211.862" cy="852.057" r="1" fill="rgb(0,0,0)" />
	<circle cx="225.703" cy="366.3" r="1" fill="rgb(0,0,0)" />
	<circle cx="233.893" cy="947.33" r="1" fill="rgb(0,0,0)" />
	<circle cx="242.783" cy="818.962" r="1" fill="rgb(0,0,0)" />
	<circle cx="246.221" cy="443.205" r="1" fill="rgb(0,0,0)" />
	<circle cx="255.115" cy="527.662" r="1" fill="rgb(0,0,0)" />
	<circle cx="263.365" cy="474.079" r="1" fill="rgb(0,0,0)" />
	<circle cx="266.649" cy="146.925" r="1" fill="rgb(0,0,0)" />
	<circle cx="274.339" cy="149.796" r="1" fill="rgb(0,0,0)" />
	<circle cx="274.607" cy="278.288" r="1" fill="rgb(0,0,0)" />
	<circle cx="279.953" cy="293.846" r="1" fill="rgb(0,0,0)" />
	<circle cx="287.096" cy="274.79" r="1" fill="rgb(0,0,0)" />
	<circle cx="288.934" cy="288.963" r="1" fill="rgb(0,0,0)" />
	<circle cx="293.435" cy="407.809" r="1" fill="rgb(0,0,0)" />
	<circle cx="293.734" cy="406.642" r="1" fill="rgb(0,0,0)" />
	<circle cx="294.528" cy="884.91" r="1" fill="rgb(0,0,0)" />
	<circle cx="296.91" cy="884.021" r="1" fill="rgb(0,0,0)" />
	<circle cx="301.283" cy="328.627" r="1" fill="rgb(0,0,0)" />
	<circle cx="301.35" cy="296.408" r="1" fill="rgb(0,0,0)" />
	<circle cx="302.155" cy="602.303" r="1" fill="rgb(0,0,0)" />
	<circle cx="307.393" cy="1011.48" r="1" fill="rgb(0,0,0)" />
	<circle cx="307.484" cy="1067.68" r="1" fill="rgb(0,0,0)" />
	<circle cx="310.261" cy="442.96" r="1" fill="rgb(0,0,0)" />
	<circle cx="315.563" cy="587.563" r="1" fill="rgb(0,0,0)" />
	<circle cx="317.934" cy="695.128" r="1" fill="rgb(0,0,0)" />
	<circle cx="319.5" cy="240.072" r="1" fill="rgb(0,0,0)" />
	<circle cx="319.792" cy="239.904" r="1" fill="rgb(0,0,0)" />
	<circle cx="321.127" cy="702.205" r="1" fill="rgb(0,0,0)" />
	<circle cx="321.791" cy="296.931" r="1" fill="rgb(0,0,0)" />
	<circle cx="324.682" cy="706.957" r="1" fill="rgb(0,0,0)" />
	<circle cx="327.026" cy="79.6184" r="1" fill="rgb(0,0,0)" />
	<circle cx="329.337" cy="987.568" r="1" fill="rgb(0,0,0)" />
	<circle cx="330.531" cy="575.202" r="1" fill="rgb(0,0,0)" />
	<circle cx="332.57" cy="895.421" r="1" fill="rgb(0,0,0)" />
	<circle cx="339.462" cy="963.522" r="1" fill="rgb(0,0,0)" />
	<circle cx="342.47" cy="390.917" r="1" fill="rgb(0,0,0)" />
	<circle cx="347.3" cy="508.636" r="1" fill="rgb(0,0,0)" />
	<circle cx="351.924" cy="891.819" r="1" fill="rgb(0,0,0)" />
	<circle cx="358.203" cy="894.23" r="1" fill="rgb(0,0,0)" />
	<circle cx="370.373" cy="1090.32" r="1" fill="rgb(0,0,0)" />
	<circle cx="370.799" cy="537.747" r="1" fill="rgb(0,0,0)" />
	<circle cx="374.763" cy="1017.06" r="1" fill="rgb(0,0,0)" />
	<circle cx="380.934" cy="436.195" r="1" fill="rgb(0,0,0)" />
	<circle cx="384.208" cy="995.356" r="1" fill="rgb(0,0,0)" />
	<circle cx="385.844" cy="871.331" r="1" fill="rgb(0,0,0)" />
	<circle cx="386.86" cy="660.839" r="1" fill="rgb(0,0,0)" />
	<circle cx="395.798" cy="267.086" r="1" fill="rgb(0,0,0)" />
	<circle cx="396.972" cy="136.092" r="1" fill="rgb(0,0,0)" />
	<circle cx="397.559" cy="79.823" r="1" fill="rgb(0,0,0)" />
	<circle cx="398.837" cy="729.695" r="1" fill="rgb(0,0,0)" />
	<circle cx="401.151" cy="351.369" r="1" fill="rgb(0,0,0)" />
	<circle cx="401.251" cy="522.611" r="1" fill="rgb(0,0,0)" />
	<circle cx="402.412" cy="835.633" r="1" fill="rgb(0,0,0)" />
	<circle cx="403.663" cy="804.534" r="1" fill="rgb(0,0,0)" />
	<circle cx="404.541" cy="835.992" r="1" fill="rgb(0,0,0)" />
	<circle cx="405.007" cy="661.742" r="1" fill="rgb(0,0,0)" />
	<circle cx="412.174" cy="70.2112" r="1" fill="rgb(0,0,0)" />
	<circle cx="413.217" cy="263.595" r="1" fill="rgb(0,0,0)" />
	<circle cx="416.719" cy="428.552" r="1" fill="rgb(0,0,0)" />
	<circle cx="417.282" cy="112.918" r="1" fill="rgb(0,0,0)" />
	<circle cx="417.41" cy="81.5167" r="1" fill="rgb(0,0,0)" />
	<circle cx="420.589" cy="113.049" r="1" fill="rgb(0,0,0)" />
	<circle cx="422.249" cy="1081.95" r="1" fill="rgb(0,0,0)" />
	<circle cx="422.37" cy="78.458" r="1" fill="rgb(0,0,0)" />
	<circle cx="423.403" cy="513.318" r="1" fill="rgb(0,0,0)" />
	<circle cx="424.295" cy="918.253" r="1" fill="rgb(0,0,0)" />
	<circle cx="425.053" cy="367.789" r="1" fill="rgb(0,0,0)" />
	<circle cx="425.881" cy="371.793" r="1" fill="rgb(0,0,0)" />
	<circle cx="431.874" cy="347.519" r="1" fill="rgb(0,0,0)" />
	<circle cx="434.433" cy="726.989" r="1" fill="rgb(0,0,0)" />
	<circle cx="438.709" cy="446.82" r="1" fill="rgb(0,0,0)" />
	<circle cx="442.184" cy="1041.98" r="1" fill="rgb(0,0,0)" />
	<circle cx="445.4" cy="604.493" r="1" fill="rgb(0,0,0)" />
	<circle cx="447.617" cy="382.656" r="1" fill="rgb(0,0,0)" />
	<circle cx="453.644" cy="344.722" r="1" fill="rgb(0,0,0)" />
	<circle cx="456.286" cy="1080.22" r="1" fill="rgb(0,0,0)" />
	<circle cx="459.117" cy="802.217" r="1" fill="rgb(0,0,0)" />
	<circle cx="461.206" cy="801.603" r="1" fill="rgb(0,0,0)" />
	<circle cx="467.894" cy="905.261" r="1" fill="rgb(0,0,0)" />
	<circle cx="469.607" cy="286.622" r="1" fill="rgb(0,0,0)" />
	<circle cx="470.224" cy="894.243" r="1" fill="rgb(0,0,0)" />
	<circle cx="470.956" cy="892.982" r="1" fill="rgb(0,0,0)" />
	<circle cx="471.096" cy="819.831" r="1" fill="rgb(0,0,0)" />
	<circle cx="471.942" cy="541.366" r="1" fill="rgb(0,0,0)" />
	<circle cx="472.502" cy="1024.22" r="1" fill="rgb(0,0,0)" />
	<circle cx="478.528" cy="476.226" r="1" fill="rgb(0,0,0)" />
	<circle cx="487.178" cy="543.552" r="1" fill="rgb(0,0,0)" />
	<circle cx="492.936" cy="305.577" r="1" fill="rgb(0,0,0)" />
	<circle cx="496.625" cy="864.871" r="1" fill="rgb(0,0,0)" />
	<circle cx="498.305" cy="563.963" r="1" fill="rgb(0,0,0)" />
	<circle cx="500.599" cy="160.346" r="1" fill="rgb(0,0,0)" />
	<circle cx="502.987" cy="270.105" r="1" fill="rgb(0,0,0)" />
	<circle cx="507.572" cy="183.534" r="1" fill="rgb(0,0,0)" />
	<circle cx="511.496" cy="107.565" r="1" fill="rgb(0,0,0)" />
	<circle cx="513.88" cy="963.596" r="1" fill="rgb(0,0,0)" />
	<circle cx="513.907" cy="505.377" r="1" fill="rgb(0,0,0)" />
	<circle cx="515.349" cy="965.893" r="1" fill="rgb(0,0,0)" />
	<circle cx="516.52" cy="496.985" r="1" fill="rgb(0,0,0)" />
	<circle cx="517.308" cy="601.327" r="1" fill="rgb(0,0,0)" />
	<circle cx="519.102" cy="968.532" r="1" fill="rgb(0,0,0)" />
	<circle cx="519.873" cy="593.084" r="1" fill="rgb(0,0,0)" />
	<circle cx="520.474" cy="128.271" r="1" fill="rgb(0,0,0)" />
	<circle cx="523.237" cy="134.529" r="1" fill="rgb(0,0,0)" />
	<circle cx="523.479" cy="324.824" r="1" fill="rgb(0,0,0)" />
	<circle cx="523.482" cy="977.061" r="1" fill="rgb(0,0,0)" />
	<circle cx="526.819" cy="546.064" r="1" fill="rgb(0,0,0)" />
	<circle cx="530.562" cy="784.247" r="1" fill="rgb(0,0,0)" />
	<circle cx="534.241" cy="613.746" r="1" fill="rgb(0,0,0)" />
	<circle cx="535.207" cy="613.458" r="1" fill="rgb(0,0,0)" />
	<circle cx="536.806" cy="129.871" r="1" fill="rgb(0,0,0)" />
	<circle cx="539.469" cy="425.859" r="1" fill="rgb(0,0,0)" />
	<circle cx="540.703" cy="766.935" r="1" fill="rgb(0,0,0)" />
	<circle cx="543.118" cy="600.62" r="1" fill="rgb(0,0,0)" />
	<circle cx="548.179" cy="419.611" r="1" fill="rgb(0,0,0)" />
	<circle cx="549.356" cy="511.598" r="1" fill="rgb(0,0,0)" />
	<circle cx="549.661" cy="279.602" r="1" fill="rgb(0,0,0)" />
	<circle cx="550.708" cy="398.919" r="1" fill="rgb(0,0,0)" />
	<circle cx="552.804" cy="308.666" r="1" fill="rgb(0,0,0)" />
	<circle cx="553.558" cy="581.161" r="1" fill="rgb(0,0,0)" />
	<circle cx="556.58" cy="435.773" r="1" fill="rgb(0,0,0)" />
	<circle cx="559.615" cy="401.317" r="1" fill="rgb(0,0,0)" />
	<circle cx="560.819" cy="439.935" r="1" fill="rgb(0,0,0)" />
	<circle cx="560.823" cy="447.316" r="1" fill="rgb(0,0,0)" />
	<circle cx="562.872" cy="760.402" r="1" fill="rgb(0,0,0)" />
	<circle cx="563.231" cy="446.263" r="1" fill="rgb(0,0,0)" />
	<circle cx="569.381" cy="343.075" r="1" fill="rgb(0,0,0)" />
	<circle cx="569.72" cy="201.648" r="1" fill="rgb(0,0,0)" />
	<circle cx="570.495" cy="726.103" r="1" fill="rgb(0,0,0)" />
	<circle cx="571.259" cy="1028.03" r="1" fill="rgb(0,0,0)" />
	<circle cx="571.87" cy="545.085" r="1" fill="rgb(0,0,0)" />
	<circle cx="575.988" cy="208.872" r="1" fill="rgb(0,0,0)" />
	<circle cx="576.173" cy="209.036" r="1" fill="rgb(0,0,0)" />
	<circle cx="576.199" cy="213.376" r="1" fill="rgb(0,0,0)" />
	<circle cx="577.856" cy="211.662" r="1" fill="rgb(0,0,0)" />
	<circle cx="580.016" cy="602.407" r="1" fill="rgb(0,0,0)" />
	<circle cx="580.502" cy="677.555" r="1" fill="rgb(0,0,0)" />
	<circle cx="582.333" cy="689.085" r="1" fill="rgb(0,0,0)" />
	<circle cx="591.332" cy="93.8585" r="1" fill="rgb(0,0,0)" />
	<circle cx="595.497" cy="823" r="1" fill="rgb(0,0,0)" />
	<circle cx="607.929" cy="430.538" r="1" fill="rgb(0,0,0)" />
	<circle cx="609.277" cy="121.896" r="1" fill="rgb(0,0,0)" />
	<circle cx="609.596" cy="918.618" r="1" fill="rgb(0,0,0)" />
	<circle cx="612.299" cy="827.886" r="1" fill="rgb(0,0,0)" />
	<circle cx="612.557" cy="850.226" r="1" fill="rgb(0,0,0)" />
	<circle cx="613.57" cy="982.813" r="1" fill="rgb(0,0,0)" />
	<circle cx="617.273" cy="988.776" r="1" fill="rgb(0,0,0)" />
	<circle cx="618.426" cy="525.214" r="1" fill="rgb(0,0,0)" />
	<circle cx="624.846" cy="688.414" r="1" fill="rgb(0,0,0)" />
	<circle cx="628.769" cy="676.19" r="1" fill="rgb(0,0,0)" />
	<circle cx="631.395" cy="909.513" r="1" fill="rgb(0,0,0)" />
	<circle cx="641.621" cy="476.92" r="1" fill="rgb(0,0,0)" />
	<circle cx="642.154" cy="370.338" r="1" fill="rgb(0,0,0)" />
	<circle cx="642.926" cy="523.852" r="1" fill="rgb(0,0,0)" />
	<circle cx="652.789" cy="633.567" r="1" fill="rgb(0,0,0)" />
	<circle cx="653.775" cy="889.397" r="1" fill="rgb(0,0,0)" />
	<circle cx="656.019" cy="518.406" r="1" fill="rgb(0,0,0)" />
	<circle cx="657.766" cy="341.506" r="1" fill="rgb(0,0,0)" />
	<circle cx="659.805" cy="552.235" r="1" fill="rgb(0,0,0)" />
	<circle cx="660.234" cy="552.51" r="1" fill="rgb(0,0,0)" />
	<circle cx="663.209" cy="628.114" r="1" fill="rgb(0,0,0)" />
	<circle cx="663.427" cy="364.777" r="1" fill="rgb(0,0,0)" />
	<circle cx="669.35" cy="484.691" r="1" fill="rgb(0,0,0)" />
	<circle cx="671.151" cy="823.798" r="1" fill="rgb(0,0,0)" />
	<circle cx="671.775" cy="499.4" r="1" fill="rgb(0,0,0)" />
	<circle cx="677.097" cy="946.911" r="1" fill="rgb(0,0,0)" />
	<circle cx="679.049" cy="642.575" r="1" fill="rgb(0,0,0)" />
	<circle cx="687.725" cy="898.224" r="1" fill="rgb(0,0,0)" />
	<circle cx="689.154" cy="753.745" r="1" fill="rgb(0,0,0)" />
	<circle cx="689.462" cy="315.766" r="1" fill="rgb(0,0,0)" />
	<circle cx="698.692" cy="475.937" r="1" fill="rgb(0,0,0)" />
	<circle cx="703.068" cy="276.272" r="1" fill="rgb(0,0,0)" />
	<circle cx="705.58" cy="977.614" r="1" fill="rgb(0,0,0)" />
	<circle cx="706.768" cy="476.145" r="1" fill="rgb(0,0,0)" />
	<circle cx="712.157" cy="310.393" r="1" fill="rgb(0,0,0)" />
	<circle cx="718.009" cy="403.178" r="1" fill="rgb(0,0,0)" />
	<circle cx="719.582" cy="855.357" r="1" fill="rgb(0,0,0)" />
	<circle cx="722.228" cy="661.433" r="1" fill="rgb(0,0,0)" />
	<circle cx="728.929" cy="822.373" r="1" fill="rgb(0,0,0)" />
	<circle cx="731.387" cy="456.335" r="1" fill="rgb(0,0,0)" />
	<circle cx="731.914" cy="79.8867" r="1" fill="rgb(0,0,0)" />
	<circle cx="734.221" cy="433.915" r="1" fill="rgb(0,0,0)" />
	<circle cx="735.409" cy="754.627" r="1" fill="rgb(0,0,0)" />
	<circle cx="753.287" cy="997.338" r="1" fill="rgb(0,0,0)" />
	<circle cx="753.287" cy="729.964" r="1" fill="rgb(0,0,0)" />
	<circle cx="753.77" cy="398.02" r="1" fill="rgb(0,0,0)" />
	<circle cx="761.373" cy="452.21" r="1" fill="rgb(0,0,0)" />
	<circle cx="761.943" cy="484.798" r="1" fill="rgb(0,0,0)" />
	<circle cx="761.95" cy="681.395" r="1" fill="rgb(0,0,0)" />
	<circle cx="763.261" cy="453.357" r="1" fill="rgb(0,0,0)" />
	<circle cx="765.965" cy="457.237" r="1" fill="rgb(0,0,0)" />
	<circle cx="767.796" cy="421.026" r="1" fill="rgb(0,0,0)" />
	<circle cx="768.349" cy="53.0534" r="1" fill="rgb(0,0,0)" />
	<circle cx="768.493" cy="422.502" r="1" fill="rgb(0,0,0)" />
	<circle cx="770.271" cy="420.705" r="1" fill="rgb(0,0,0)" />
	<circle cx="773.078" cy="642.28" r="1" fill="rgb(0,0,0)" />
	<circle cx="773.849" cy="87.5702" r="1" fill="rgb(0,0,0)" />
	<circle cx="776.039" cy="453.464" r="1" fill="rgb(0,0,0)" />
	<circle cx="776.747" cy="452.465" r="1" fill="rgb(0,0,0)" />
	<circle cx="779.846" cy="153.25" r="1" fill="rgb(0,0,0)" />
	<circle cx="791.47" cy="76.4659" r="1" fill="rgb(0,0,0)" />
	<circle cx="793.596" cy="684.114" r="1" fill="rgb(0,0,0)" />
	<circle cx="796.474" cy="405.079" r="1" fill="rgb(0,0,0)" />
	<circle cx="799.287" cy="622.714" r="1" fill="rgb(0,0,0)" />
	<circle cx="799.287" cy="411.8" r="1" fill="rgb(0,0,0)" />
	<circle cx="799.777" cy="890.487" r="1" fill="rgb(0,0,0)" />
	<circle cx="800.193" cy="284.271" r="1" fill="rgb(0,0,0)" />
	<circle cx="801.263" cy="621.101" r="1" fill="rgb(0,0,0)" />
	<circle cx="819.695" cy="664.116" r="1" fill="rgb(0,0,0)" />
	<circle cx="829.317" cy="958.092" r="1" fill="rgb(0,0,0)" />
	<circle cx="831.594" cy="1019.76" r="1" fill="rgb(0,0,0)" />
	<circle cx="832.65" cy="904.724" r="1" fill="rgb(0,0,0)" />
	<circle cx="840.974" cy="383.813" r="1" fill="rgb(0,0,0)" />
	<circle cx="850.274" cy="682.491" r="1" fill="rgb(0,0,0)" />
	<circle cx="852.246" cy="495.704" r="1" fill="rgb(0,0,0)" />
	<circle cx="870.075" cy="1019.9" r="1" fill="rgb(0,0,0)" />
	<circle cx="877.101" cy="605.637" r="1" fill="rgb(0,0,0)" />
	<circle cx="884.345" cy="576.178" r="1" fill="rgb(0,0,0)" />
	<circle cx="891.12" cy="459.383" r="1" fill="rgb(0,0,0)" />
	<circle cx="898.595" cy="703.201" r="1" fill="rgb(0,0,0)" />
	<circle cx="899.782" cy="408.202" r="1" fill="rgb(0,0,0)" />
	<circle cx="908.093" cy="494.913" r="1" fill="rgb(0,0,0)" />
	<circle cx="910.192" cy="934.099" r="1" fill="rgb(0,0,0)" />
	<circle cx="911.742" cy="811.755" r="1" fill="rgb(0,0,0)" />
	<circle cx="923.222" cy="467.218" r="1" fill="rgb(0,0,0)" />
	<circle cx="924.982" cy="379.507" r="1" fill="rgb(0,0,0)" />
	<circle cx="928.138" cy="702.171" r="1" fill="rgb(0,0,0)" />
	<circle cx="931.002" cy="330.489" r="1" fill="rgb(0,0,0)" />
	<circle cx="933.038" cy="248.594" r="1" fill="rgb(0,0,0)" />
	<circle cx="935.718" cy="605.996" r="1" fill="rgb(0,0,0)" />
	<circle cx="940.057" cy="464.209" r="1" fill="rgb(0,0,0)" />
	<circle cx="941.801" cy="514.12" r="1" fill="rgb(0,0,0)" />
	<circle cx="945.105" cy="77.4318" r="1" fill="rgb(0,0,0)" />
	<circle cx="953.466" cy="366.313" r="1" fill="rgb(0,0,0)" />
	<circle cx="955.558" cy="606.475" r="1" fill="rgb(0,0,0)" />
	<circle cx="970.758" cy="418.545" r="1" fill="rgb(0,0,0)" />
	<circle cx="970.795" cy="413.45" r="1" fill="rgb(0,0,0)" />
	<circle cx="971.039" cy="304.796" r="1" fill="rgb(0,0,0)" />
	<circle cx="986.514" cy="158.297" r="1" fill="rgb(0,0,0)" />
	<circle cx="987.55" cy="51.9199" r="1" fill="rgb(0,0,0)" />
	<circle cx="991.47" cy="1008.62" r="1" fill="rgb(0,0,0)" />
	<circle cx="992.426" cy="1009.48" r="1" fill="rgb(0,0,0)" />
	<circle cx="994.807" cy="860.914" r="1" fill="rgb(0,0,0)" />
	<circle cx="996.125" cy="772.764" r="1" fill="rgb(0,0,0)" />
	<circle cx="1007.27" cy="845.044" r="1" fill="rgb(0,0,0)" />
	<circle cx="1016.26" cy="900.079" r="1" fill="rgb(0,0,0)" />
	<circle cx="1016.57" cy="530.825" r="1" fill="rgb(0,0,0)" />
	<circle cx="1021.01" cy="741.749" r="1" fill="rgb(0,0,0)" />
	<circle cx="1021.32" cy="751.24" r="1" fill="rgb(0,0,0)" />
	<circle cx="1022.3" cy="317.275" r="1" fill="rgb(0,0,0)" />
	<circle cx="1025.9" cy="713.752" r="1" fill="rgb(0,0,0)" />
	<circle cx="1028.6" cy="235.423" r="1" fill="rgb(0,0,0)" />
	<circle cx="1029.57" cy="473.804" r="1" fill="rgb(0,0,0)" />
	<circle cx="1036.78" cy="122.003" r="1" fill="rgb(0,0,0)" />
	<circle cx="1048.97" cy="700.125" r="1" fill="rgb(0,0,0)" />
	<circle cx="1050" cy="657.352" r="1" fill="rgb(0,0,0)" />
</svg>
