<?xml version="1.0" standalone="no" ?>
<!DOCTYPE svg PUBLIC "-//W3C//DTD SVG 1.1//EN" "http://www.w3.org/Graphics/SVG/1.1/DTD/svg11.dtd">
<svg width="1100px" height="1284.28px" xmlns="http://www.w3.org/2000/svg" version="1.1" >
	<circle cx="50" cy="814.164" r="1" fill="rgb(0,0,0)" />
	<circle cx="74.5554" cy="577.596" r="1" fill="rgb(0,0,0)" />
	<circle cx="75.9004" cy="615.203" r="1" fill="rgb(0,0,0)" />
	<circle cx="89.389" cy="181.023" r="1" fill="rgb(0,0,0)" />
	<circle cx="107.215" cy="1187.57" r="1" fill="rgb(0,0,0)" />
	<circle cx="114.864" cy="282.387" r="1" fill="rgb(0,0,0)" />
	<circle cx="137.021" cy="1045.1" r="1" fill="rgb(0,0,0)" />
	<circle cx="137.128" cy="347.753" r="1" fill="rgb(0,0,0)" />
	<circle cx="143.623" cy="1106.07" r="1" fill="rgb(0,0,0)" />
	<circle cx="201.207" cy="672.928" r="1" fill="rgb(0,0,0)" />
	<circle cx="212.714" cy="487.234" r="1" fill="rgb(0,0,0)" />
	<circle cx="215.301" cy="514.038" r="1" fill="rgb(0,0,0)" />
	<circle cx="216.201" cy="1087.2" r="1" fill="rgb(0,0,0)" />
	<circle cx="221.263" cy="58.3763" r="1" fill="rgb(0,0,0)" />
	<circle cx="235.143" cy="1134.24" r="1" fill="rgb(0,0,0)" />
	<circle cx="241.875" cy="1090.63" r="1" fill="rgb(0,0,0)" />
	<circle cx="257.142" cy="613.36" r="1" fill="rgb(0,0,0)" />
	<circle cx="257.951" cy="288.641" r="1" fill="rgb(0,0,0)" />
	<circle cx="261.419" cy="344.929" r="1" fill="rgb(0,0,0)" />
	<circle cx="265.228" cy="1097.58" r="1" fill="rgb(0,0,0)" />
	<circle cx="279.41" cy="285.261" r="1" fill="rgb(0,0,0)" />
	<circle cx="282.027" cy="882.837" r="1" fill="rgb(0,0,0)" />
	<circle cx="293.404" cy="879.752" r="1" fill="rgb(0,0,0)" />
	<circle cx="297.93" cy="1148.71" r="1" fill="rgb(0,0,0)" />
	<circle cx="308.479" cy="664.157" r="1" fill="rgb(0,0,0)" />
	<circle cx="320.941" cy="1225.9" r="1" fill="rgb(0,0,0)" />
	<circle cx="332.195" cy="1142.35" r="1" fill="rgb(0,0,0)" />
	<circle cx="344.259" cy="881.61" r="1" fill="rgb(0,0,0)" />
	<circle cx="356.398" cy="743.571" r="1" fill="rgb(0,0,0)" />
	<circle cx="376.206" cy="94.8646" r="1" fill="rgb(0,0,0)" />
	<circle cx="377.21" cy="274.255" r="1" fill="rgb(0,0,0)" />
	<circle cx="390.61" cy="495.139" r="1" fill="rgb(0,0,0)" />
	<circle cx="391.683" cy="857.365" r="1" fill="rgb(0,0,0)" />
	<circle cx="394.986" cy="989.178" r="1" fill="rgb(0,0,0)" />
	<circle cx="399.175" cy="95.6003" r="1" fill="rgb(0,0,0)" />
	<circle cx="415.798" cy="832.419" r="1" fill="rgb(0,0,0)" />
	<circle cx="419.316" cy="863.167" r="1" fill="rgb(0,0,0)" />
	<circle cx="436.042" cy="753.158" r="1" fill="rgb(0,0,0)" />
	<circle cx="436.146" cy="217.753" r="1" fill="rgb(0,0,0)" />
	<circle cx="443.388" cy="903.587" r="1" fill="rgb(0,0,0)" />
	<circle cx="455.536" cy="617.28" r="1" fill="rgb(0,0,0)" />
	<circle cx="460.153" cy="175.106" r="1" fill="rgb(0,0,0)" />
	<circle cx="467.898" cy="510.934" r="1" fill="rgb(0,0,0)" />
	<circle cx="471.205" cy="1080.25" r="1" fill="rgb(0,0,0)" />
	<circle cx="474.615" cy="655.347" r="1" fill="rgb(0,0,0)" />
	<circle cx="498.603" cy="680.504" r="1" fill="rgb(0,0,0)" />
	<circle cx="501.964" cy="669.655" r="1" fill="rgb(0,0,0)" />
	<circle cx="503.347" cy="668.184" r="1" fill="rgb(0,0,0)" />
	<circle cx="504.516" cy="691.601" r="1" fill="rgb(0,0,0)" />
	<circle cx="504.926" cy="929.533" r="1" fill="rgb(0,0,0)" />
	<circle cx="513.897" cy="417.189" r="1" fill="rgb(0,0,0)" />
	<circle cx="514.663" cy="673.706" r="1" fill="rgb(0,0,0)" />
	<circle cx="516.775" cy="978.261" r="1" fill="rgb(0,0,0)" />
	<circle cx="516.89" cy="858.151" r="1" fill="rgb(0,0,0)" />
	<circle cx="521.783" cy="479.405" r="1" fill="rgb(0,0,0)" />
	<circle cx="540.694" cy="1163.08" r="1" fill="rgb(0,0,0)" />
	<circle cx="543.84" cy="225.275" r="1" fill="rgb(0,0,0)" />
	<circle cx="544.457" cy="1136.45" r="1" fill="rgb(0,0,0)" />
	<circle cx="586.092" cy="774.69" r="1" fill="rgb(0,0,0)" />
	<circle cx="595.258" cy="504.041" r="1" fill="rgb(0,0,0)" />
	<circle cx="626.822" cy="786.064" r="1" fill="rgb(0,0,0)" />
	<circle cx="628.381" cy="122.466" r="1" fill="rgb(0,0,0)" />
	<circle cx="662.544" cy="383.739" r="1" fill="rgb(0,0,0)" />
	<circle cx="674.185" cy="759.493" r="1" fill="rgb(0,0,0)" />
	<circle cx="677.672" cy="656.044" r="1" fill="rgb(0,0,0)" />
	<circle cx="679.477" cy="992.298" r="1" fill="rgb(0,0,0)" />
	<circle cx="680.447" cy="1014.09" r="1" fill="rgb(0,0,0)" />
	<circle cx="693" cy="525.994" r="1" fill="rgb(0,0,0)" />
	<circle cx="698.357" cy="1022.29" r="1" fill="rgb(0,0,0)" />
	<circle cx="715.253" cy="115.814" r="1" fill="rgb(0,0,0)" />
	<circle cx="734.332" cy="441.69" r="1" fill="rgb(0,0,0)" />
	<circle cx="757.144" cy="522.576" r="1" fill="rgb(0,0,0)" />
	<circle cx="761.409" cy="1015.62" r="1" fill="rgb(0,0,0)" />
	<circle cx="761.409" cy="525.239" r="1" fill="rgb(0,0,0)" />
	<circle cx="767.586" cy="1196.19" r="1" fill="rgb(0,0,0)" />
	<circle cx="775.679" cy="579.427" r="1" fill="rgb(0,0,0)" />
	<circle cx="792.743" cy="262.518" r="1" fill="rgb(0,0,0)" />
	<circle cx="797.548" cy="863.297" r="1" fill="rgb(0,0,0)" />
	<circle cx="800.07" cy="1004.77" r="1" fill="rgb(0,0,0)" />
	<circle cx="804.806" cy="857.798" r="1" fill="rgb(0,0,0)" />
	<circle cx="814.781" cy="1013.41" r="1" fill="rgb(0,0,0)" />
	<circle cx="819.379" cy="653.293" r="1" fill="rgb(0,0,0)" />
	<circle cx="827.595" cy="846.793" r="1" fill="rgb(0,0,0)" />
	<circle cx="840.091" cy="399.102" r="1" fill="rgb(0,0,0)" />
	<circle cx="879.852" cy="1135.45" r="1" fill="rgb(0,0,0)" />
	<circle cx="897.429" cy="561.114" r="1" fill="rgb(0,0,0)" />
	<circle cx="907.017" cy="416.131" r="1" fill="rgb(0,0,0)" />
	<circle cx="914.524" cy="916.102" r="1" fill="rgb(0,0,0)" />
	<circle cx="931.492" cy="437.732" r="1" fill="rgb(0,0,0)" />
	<circle cx="937.159" cy="549.956" r="1" fill="rgb(0,0,0)" />
	<circle cx="947.824" cy="875.299" r="1" fill="rgb(0,0,0)" />
	<circle cx="952.231" cy="806.182" r="1" fill="rgb(0,0,0)" />
	<circle cx="953.507" cy="196.339" r="1" fill="rgb(0,0,0)" />
	<circle cx="967.421" cy="180.843" r="1" fill="rgb(0,0,0)" />
	<circle cx="968.505" cy="412.506" r="1" fill="rgb(0,0,0)" />
	<circle cx="976.154" cy="436.165" r="1" fill="rgb(0,0,0)" />
	<circle cx="978.79" cy="886.699" r="1" fill="rgb(0,0,0)" />
	<circle cx="986.799" cy="513.881" r="1" fill="rgb(0,0,0)" />
	<circle cx="1022.69" cy="1144.6" r="1" fill="rgb(0,0,0)" />
	<circle cx="1050" cy="589.728" r="1" fill="rgb(0,0,0)" />
</svg>
