<?xml version="1.0" standalone="no" ?>
<!DOCTYPE svg PUBLIC "-//W3C//DTD SVG 1.1//EN" "http://www.w3.org/Graphics/SVG/1.1/DTD/svg11.dtd">
<svg width="1100px" height="1125.24px" xmlns="http://www.w3.org/2000/svg" version="1.1" >
	<circle cx="50" cy="285.241" r="1" fill="rgb(0,0,0)" />
	<circle cx="98.7471" cy="742.396" r="1" fill="rgb(0,0,0)" />
	<circle cx="137.739" cy="314.53" r="1" fill="rgb(0,0,0)" />
	<circle cx="144.227" cy="1074.09" r="1" fill="rgb(0,0,0)" />
	<circle cx="153.531" cy="514.661" r="1" fill="rgb(0,0,0)" />
	<circle cx="245.521" cy="957.861" r="1" fill="rgb(0,0,0)" />
	<circle cx="277.263" cy="956.959" r="1" fill="rgb(0,0,0)" />
	<circle cx="310.839" cy="798.421" r="1" fill="rgb(0,0,0)" />
	<circle cx="314.789" cy="775.052" r="1" fill="rgb(0,0,0)" />
	<circle cx="324.629" cy="804.564" r="1" fill="rgb(0,0,0)" />
	<circle cx="392.559" cy="661.403" r="1" fill="rgb(0,0,0)" />
	<circle cx="447.857" cy="51.1471" r="1" fill="rgb(0,0,0)" />
	<circle cx="471.907" cy="828.645" r="1" fill="rgb(0,0,0)" />
	<circle cx="476.153" cy="541.97" r="1" fill="rgb(0,0,0)" />
	<circle cx="490.892" cy="504.627" r="1" fill="rgb(0,0,0)" />
	<circle cx="492.199" cy="479.93" r="1" fill="rgb(0,0,0)" />
	<circle cx="515.582" cy="606.918" r="1" fill="rgb(0,0,0)" />
	<circle cx="588.421" cy="97.4238" r="1" fill="rgb(0,0,0)" />
	<circle cx="610.648" cy="689.646" r="1" fill="rgb(0,0,0)" />
	<circle cx="845.552" cy="818.1" r="1" fill="rgb(0,0,0)" />
	<circle cx="883.956" cy="62.4352" r="1" fill="rgb(0,0,0)" />
	<circle cx="930.402" cy="241.766" r="1" fill="rgb(0,0,0)" />
	<circle cx="969.253" cy="769.73" r="1" fill="rgb(0,0,0)" />
	<circle cx="1015.46" cy="899.5" r="1" fill="rgb(0,0,0)" />
	<circle cx="1050" cy="879.76" r="1" fill="rgb(0,0,0)" />
</svg>
