<?xml version="1.0" standalone="no" ?>
<!DOCTYPE svg PUBLIC "-//W3C//DTD SVG 1.1//EN" "http://www.w3.org/Graphics/SVG/1.1/DTD/svg11.dtd">
<svg width="1100px" height="1129.24px" xmlns="http://www.w3.org/2000/svg" version="1.1" >
	<circle cx="50" cy="262.754" r="1" fill="rgb(0,0,0)" />
	<circle cx="87.8974" cy="153.088" r="1" fill="rgb(0,0,0)" />
	<circle cx="100.237" cy="785.963" r="1" fill="rgb(0,0,0)" />
	<circle cx="105.55" cy="311.432" r="1" fill="rgb(0,0,0)" />
	<circle cx="120.008" cy="595.539" r="1" fill="rgb(0,0,0)" />
	<circle cx="136.495" cy="124.508" r="1" fill="rgb(0,0,0)" />
	<circle cx="138.45" cy="722.833" r="1" fill="rgb(0,0,0)" />
	<circle cx="160.189" cy="653.987" r="1" fill="rgb(0,0,0)" />
	<circle cx="160.26" cy="112.874" r="1" fill="rgb(0,0,0)" />
	<circle cx="183.064" cy="101.018" r="1" fill="rgb(0,0,0)" />
	<circle cx="183.276" cy="395.711" r="1" fill="rgb(0,0,0)" />
	<circle cx="184.646" cy="511.586" r="1" fill="rgb(0,0,0)" />
	<circle cx="191.733" cy="981.761" r="1" fill="rgb(0,0,0)" />
	<circle cx="197.644" cy="491.146" r="1" fill="rgb(0,0,0)" />
	<circle cx="257.459" cy="1012.72" r="1" fill="rgb(0,0,0)" />
	<circle cx="270.889" cy="1044.68" r="1" fill="rgb(0,0,0)" />
	<circle cx="282.778" cy="439.952" r="1" fill="rgb(0,0,0)" />
	<circle cx="298.389" cy="303.986" r="1" fill="rgb(0,0,0)" />
	<circle cx="311.232" cy="378.525" r="1" fill="rgb(0,0,0)" />
	<circle cx="312.269" cy="638.558" r="1" fill="rgb(0,0,0)" />
	<circle cx="336.427" cy="345.602" r="1" fill="rgb(0,0,0)" />
	<circle cx="347.138" cy="881.227" r="1" fill="rgb(0,0,0)" />
	<circle cx="364.061" cy="577.339" r="1" fill="rgb(0,0,0)" />
	<circle cx="392.41" cy="491.344" r="1" fill="rgb(0,0,0)" />
	<circle cx="396.323" cy="51.329" r="1" fill="rgb(0,0,0)" />
	<circle cx="411.886" cy="1014.65" r="1" fill="rgb(0,0,0)" />
	<circle cx="419.597" cy="379.284" r="1" fill="rgb(0,0,0)" />
	<circle cx="424.346" cy="246.469" r="1" fill="rgb(0,0,0)" />
	<circle cx="433.445" cy="371.284" r="1" fill="rgb(0,0,0)" />
	<circle cx="471.799" cy="891.652" r="1" fill="rgb(0,0,0)" />
	<circle cx="495.513" cy="608.613" r="1" fill="rgb(0,0,0)" />
	<circle cx="501.357" cy="870.722" r="1" fill="rgb(0,0,0)" />
	<circle cx="501.585" cy="1077.91" r="1" fill="rgb(0,0,0)" />
	<circle cx="504.49" cy="502.259" r="1" fill="rgb(0,0,0)" />
	<circle cx="510.969" cy="966.345" r="1" fill="rgb(0,0,0)" />
	<circle cx="512.047" cy="968.629" r="1" fill="rgb(0,0,0)" />
	<circle cx="512.655" cy="731.233" r="1" fill="rgb(0,0,0)" />
	<circle cx="521.945" cy="842.641" r="1" fill="rgb(0,0,0)" />
	<circle cx="542.532" cy="426.374" r="1" fill="rgb(0,0,0)" />
	<circle cx="563.197" cy="397.125" r="1" fill="rgb(0,0,0)" />
	<circle cx="571.634" cy="726.779" r="1" fill="rgb(0,0,0)" />
	<circle cx="572.682" cy="444.161" r="1" fill="rgb(0,0,0)" />
	<circle cx="572.732" cy="728.069" r="1" fill="rgb(0,0,0)" />
	<circle cx="580.134" cy="615.66" r="1" fill="rgb(0,0,0)" />
	<circle cx="606.317" cy="567.724" r="1" fill="rgb(0,0,0)" />
	<circle cx="610.515" cy="916.092" r="1" fill="rgb(0,0,0)" />
	<circle cx="615.818" cy="348" r="1" fill="rgb(0,0,0)" />
	<circle cx="624.997" cy="732.865" r="1" fill="rgb(0,0,0)" />
	<circle cx="642.435" cy="884.216" r="1" fill="rgb(0,0,0)" />
	<circle cx="645.796" cy="1045.29" r="1" fill="rgb(0,0,0)" />
	<circle cx="665.336" cy="421.198" r="1" fill="rgb(0,0,0)" />
	<circle cx="670.482" cy="507.707" r="1" fill="rgb(0,0,0)" />
	<circle cx="671.674" cy="952.32" r="1" fill="rgb(0,0,0)" />
	<circle cx="674.844" cy="483.536" r="1" fill="rgb(0,0,0)" />
	<circle cx="685.508" cy="425.541" r="1" fill="rgb(0,0,0)" />
	<circle cx="707.187" cy="706.632" r="1" fill="rgb(0,0,0)" />
	<circle cx="722.172" cy="1039.77" r="1" fill="rgb(0,0,0)" />
	<circle cx="727.502" cy="583.106" r="1" fill="rgb(0,0,0)" />
	<circle cx="727.885" cy="399.889" r="1" fill="rgb(0,0,0)" />
	<circle cx="746.078" cy="56.4003" r="1" fill="rgb(0,0,0)" />
	<circle cx="759.042" cy="543.038" r="1" fill="rgb(0,0,0)" />
	<circle cx="773.944" cy="368.151" r="1" fill="rgb(0,0,0)" />
	<circle cx="776.923" cy="518.051" r="1" fill="rgb(0,0,0)" />
	<circle cx="780.251" cy="520.567" r="1" fill="rgb(0,0,0)" />
	<circle cx="796.127" cy="53.465" r="1" fill="rgb(0,0,0)" />
	<circle cx="796.523" cy="836.814" r="1" fill="rgb(0,0,0)" />
	<circle cx="865.033" cy="390.142" r="1" fill="rgb(0,0,0)" />
	<circle cx="870.917" cy="893.489" r="1" fill="rgb(0,0,0)" />
	<circle cx="874.928" cy="499.398" r="1" fill="rgb(0,0,0)" />
	<circle cx="900.15" cy="886.893" r="1" fill="rgb(0,0,0)" />
	<circle cx="908.563" cy="489.578" r="1" fill="rgb(0,0,0)" />
	<circle cx="912.67" cy="986.762" r="1" fill="rgb(0,0,0)" />
	<circle cx="914.686" cy="297.991" r="1" fill="rgb(0,0,0)" />
	<circle cx="950.447" cy="558.884" r="1" fill="rgb(0,0,0)" />
	<circle cx="956.613" cy="73.0249" r="1" fill="rgb(0,0,0)" />
	<circle cx="971.266" cy="272.591" r="1" fill="rgb(0,0,0)" />
	<circle cx="973.278" cy="750.85" r="1" fill="rgb(0,0,0)" />
	<circle cx="1029.77" cy="185.125" r="1" fill="rgb(0,0,0)" />
	<circle cx="1037.03" cy="479.529" r="1" fill="rgb(0,0,0)" />
	<circle cx="1050" cy="1027.66" r="1" fill="rgb(0,0,0)" />
</svg>
