<?xml version="1.0" standalone="no" ?>
<!DOCTYPE svg PUBLIC "-//W3C//DTD SVG 1.1//EN" "http://www.w3.org/Graphics/SVG/1.1/DTD/svg11.dtd">
<svg width="1100px" height="948.865px" xmlns="http://www.w3.org/2000/svg" version="1.1" >
	<circle cx="50" cy="357.164" r="1" fill="rgb(0,0,0)" />
	<circle cx="79.6368" cy="456.284" r="1" fill="rgb(0,0,0)" />
	<circle cx="113.93" cy="43.1302" r="1" fill="rgb(0,0,0)" />
	<circle cx="115.261" cy="174.805" r="1" fill="rgb(0,0,0)" />
	<circle cx="124.795" cy="113.847" r="1" fill="rgb(0,0,0)" />
	<circle cx="166.334" cy="237.427" r="1" fill="rgb(0,0,0)" />
	<circle cx="252.725" cy="146.329" r="1" fill="rgb(0,0,0)" />
	<circle cx="316.109" cy="69.4226" r="1" fill="rgb(0,0,0)" />
	<circle cx="340.876" cy="349.426" r="1" fill="rgb(0,0,0)" />
	<circle cx="378.174" cy="346.498" r="1" fill="rgb(0,0,0)" />
	<circle cx="414.836" cy="482.805" r="1" fill="rgb(0,0,0)" />
	<circle cx="467.29" cy="812.848" r="1" fill="rgb(0,0,0)" />
	<circle cx="474.771" cy="440.936" r="1" fill="rgb(0,0,0)" />
	<circle cx="486.785" cy="789.206" r="1" fill="rgb(0,0,0)" />
	<circle cx="502.817" cy="368.491" r="1" fill="rgb(0,0,0)" />
	<circle cx="503.977" cy="438.601" r="1" fill="rgb(0,0,0)" />
	<circle cx="578.089" cy="433.51" r="1" fill="rgb(0,0,0)" />
	<circle cx="597.548" cy="564.328" r="1" fill="rgb(0,0,0)" />
	<circle cx="609.707" cy="866.756" r="1" fill="rgb(0,0,0)" />
	<circle cx="626.024" cy="662.726" r="1" fill="rgb(0,0,0)" />
	<circle cx="639.767" cy="432.306" r="1" fill="rgb(0,0,0)" />
	<circle cx="727.918" cy="852.062" r="1" fill="rgb(0,0,0)" />
	<circle cx="733.729" cy="652.877" r="1" fill="rgb(0,0,0)" />
	<circle cx="831.667" cy="905.735" r="1" fill="rgb(0,0,0)" />
	<circle cx="926.221" cy="469.235" r="1" fill="rgb(0,0,0)" />
	<circle cx="954.43" cy="412.334" r="1" fill="rgb(0,0,0)" />
	<circle cx="970.881" cy="596.261" r="1" fill="rgb(0,0,0)" />
	<circle cx="1025.24" cy="68.1283" r="1" fill="rgb(0,0,0)" />
	<circle cx="1032.74" cy="514.791" r="1" fill="rgb(0,0,0)" />
	<circle cx="1050" cy="472.728" r="1" fill="rgb(0,0,0)" />
</svg>
