<?xml version="1.0" standalone="no" ?>
<!DOCTYPE svg PUBLIC "-//W3C//DTD SVG 1.1//EN" "http://www.w3.org/Graphics/SVG/1.1/DTD/svg11.dtd">
<svg width="1100px" height="1188.81px" xmlns="http://www.w3.org/2000/svg" version="1.1" >
	<circle cx="50" cy="888.62" r="1" fill="rgb(0,0,0)" />
	<circle cx="99.0391" cy="852.981" r="1" fill="rgb(0,0,0)" />
	<circle cx="106.488" cy="318.668" r="1" fill="rgb(0,0,0)" />
	<circle cx="110.07" cy="668.513" r="1" fill="rgb(0,0,0)" />
	<circle cx="129.591" cy="676.297" r="1" fill="rgb(0,0,0)" />
	<circle cx="141.651" cy="865.13" r="1" fill="rgb(0,0,0)" />
	<circle cx="155.579" cy="95.0627" r="1" fill="rgb(0,0,0)" />
	<circle cx="155.852" cy="522.779" r="1" fill="rgb(0,0,0)" />
	<circle cx="197.726" cy="331.046" r="1" fill="rgb(0,0,0)" />
	<circle cx="222.113" cy="976.516" r="1" fill="rgb(0,0,0)" />
	<circle cx="251.676" cy="282.7" r="1" fill="rgb(0,0,0)" />
	<circle cx="255.225" cy="285.49" r="1" fill="rgb(0,0,0)" />
	<circle cx="255.73" cy="336.514" r="1" fill="rgb(0,0,0)" />
	<circle cx="275.823" cy="570.744" r="1" fill="rgb(0,0,0)" />
	<circle cx="278.125" cy="1131.49" r="1" fill="rgb(0,0,0)" />
	<circle cx="280.859" cy="438.975" r="1" fill="rgb(0,0,0)" />
	<circle cx="319.538" cy="1134.78" r="1" fill="rgb(0,0,0)" />
	<circle cx="326.253" cy="835.276" r="1" fill="rgb(0,0,0)" />
	<circle cx="405.327" cy="1068.36" r="1" fill="rgb(0,0,0)" />
	<circle cx="457.251" cy="475.241" r="1" fill="rgb(0,0,0)" />
	<circle cx="481.269" cy="405.464" r="1" fill="rgb(0,0,0)" />
	<circle cx="516.565" cy="615.721" r="1" fill="rgb(0,0,0)" />
	<circle cx="523.136" cy="634.257" r="1" fill="rgb(0,0,0)" />
	<circle cx="533.105" cy="626.609" r="1" fill="rgb(0,0,0)" />
	<circle cx="537.742" cy="526.343" r="1" fill="rgb(0,0,0)" />
	<circle cx="554.54" cy="456.713" r="1" fill="rgb(0,0,0)" />
	<circle cx="564.003" cy="139.542" r="1" fill="rgb(0,0,0)" />
	<circle cx="565.18" cy="199.324" r="1" fill="rgb(0,0,0)" />
	<circle cx="565.482" cy="355.853" r="1" fill="rgb(0,0,0)" />
	<circle cx="569.286" cy="632.667" r="1" fill="rgb(0,0,0)" />
	<circle cx="579.31" cy="605.498" r="1" fill="rgb(0,0,0)" />
	<circle cx="580.771" cy="615.29" r="1" fill="rgb(0,0,0)" />
	<circle cx="596.813" cy="247.854" r="1" fill="rgb(0,0,0)" />
	<circle cx="598.333" cy="1082.59" r="1" fill="rgb(0,0,0)" />
	<circle cx="618.347" cy="599.562" r="1" fill="rgb(0,0,0)" />
	<circle cx="622.789" cy="959.523" r="1" fill="rgb(0,0,0)" />
	<circle cx="682.528" cy="343.228" r="1" fill="rgb(0,0,0)" />
	<circle cx="688.268" cy="919.061" r="1" fill="rgb(0,0,0)" />
	<circle cx="689.202" cy="1038.4" r="1" fill="rgb(0,0,0)" />
	<circle cx="705.191" cy="555.352" r="1" fill="rgb(0,0,0)" />
	<circle cx="715.802" cy="612.921" r="1" fill="rgb(0,0,0)" />
	<circle cx="733.198" cy="555.275" r="1" fill="rgb(0,0,0)" />
	<circle cx="745.627" cy="962.142" r="1" fill="rgb(0,0,0)" />
	<circle cx="757.953" cy="1064.4" r="1" fill="rgb(0,0,0)" />
	<circle cx="764.863" cy="1039.38" r="1" fill="rgb(0,0,0)" />
	<circle cx="787.8" cy="867.063" r="1" fill="rgb(0,0,0)" />
	<circle cx="806.14" cy="916.53" r="1" fill="rgb(0,0,0)" />
	<circle cx="824.915" cy="981.947" r="1" fill="rgb(0,0,0)" />
	<circle cx="839.359" cy="786.55" r="1" fill="rgb(0,0,0)" />
	<circle cx="863.034" cy="927.344" r="1" fill="rgb(0,0,0)" />
	<circle cx="912.195" cy="54.0369" r="1" fill="rgb(0,0,0)" />
	<circle cx="915.415" cy="415.47" r="1" fill="rgb(0,0,0)" />
	<circle cx="916.12" cy="834.294" r="1" fill="rgb(0,0,0)" />
	<circle cx="932.604" cy="672.67" r="1" fill="rgb(0,0,0)" />
	<circle cx="970.276" cy="368.01" r="1" fill="rgb(0,0,0)" />
	<circle cx="981.529" cy="839.234" r="1" fill="rgb(0,0,0)" />
	<circle cx="982.861" cy="687.395" r="1" fill="rgb(0,0,0)" />
	<circle cx="994.316" cy="655.622" r="1" fill="rgb(0,0,0)" />
	<circle cx="1001.09" cy="906.185" r="1" fill="rgb(0,0,0)" />
	<circle cx="1050" cy="676.371" r="1" fill="rgb(0,0,0)" />
</svg>
