<?xml version="1.0" standalone="no" ?>
<!DOCTYPE svg PUBLIC "-//W3C//DTD SVG 1.1//EN" "http://www.w3.org/Graphics/SVG/1.1/DTD/svg11.dtd">
<svg width="1100px" height="1120.7px" xmlns="http://www.w3.org/2000/svg" version="1.1" >
	<circle cx="50" cy="753.558" r="1" fill="rgb(0,0,0)" />
	<circle cx="50.9934" cy="584.474" r="1" fill="rgb(0,0,0)" />
	<circle cx="72.3554" cy="1000.16" r="1" fill="rgb(0,0,0)" />
	<circle cx="83.2328" cy="709.145" r="1" fill="rgb(0,0,0)" />
	<circle cx="90.8009" cy="598.043" r="1" fill="rgb(0,0,0)" />
	<circle cx="91.9655" cy="587.954" r="1" fill="rgb(0,0,0)" />
	<circle cx="103.668" cy="298.216" r="1" fill="rgb(0,0,0)" />
	<circle cx="110.908" cy="573.392" r="1" fill="rgb(0,0,0)" />
	<circle cx="110.988" cy="572.103" r="1" fill="rgb(0,0,0)" />
	<circle cx="112.002" cy="304.043" r="1" fill="rgb(0,0,0)" />
	<circle cx="115.418" cy="600.003" r="1" fill="rgb(0,0,0)" />
	<circle cx="125.457" cy="590.079" r="1" fill="rgb(0,0,0)" />
	<circle cx="126.997" cy="728.964" r="1" fill="rgb(0,0,0)" />
	<circle cx="144.775" cy="738.582" r="1" fill="rgb(0,0,0)" />
	<circle cx="152.994" cy="598.56" r="1" fill="rgb(0,0,0)" />
	<circle cx="157.035" cy="385.641" r="1" fill="rgb(0,0,0)" />
	<circle cx="158.663" cy="560.806" r="1" fill="rgb(0,0,0)" />
	<circle cx="159.465" cy="571.848" r="1" fill="rgb(0,0,0)" />
	<circle cx="159.525" cy="490.085" r="1" fill="rgb(0,0,0)" />
	<circle cx="160.666" cy="309.11" r="1" fill="rgb(0,0,0)" />
	<circle cx="162.683" cy="508.339" r="1" fill="rgb(0,0,0)" />
	<circle cx="165.647" cy="1040.71" r="1" fill="rgb(0,0,0)" />
	<circle cx="176.732" cy="630.739" r="1" fill="rgb(0,0,0)" />
	<circle cx="177.32" cy="761.079" r="1" fill="rgb(0,0,0)" />
	<circle cx="187.247" cy="1029.27" r="1" fill="rgb(0,0,0)" />
	<circle cx="188.496" cy="111.479" r="1" fill="rgb(0,0,0)" />
	<circle cx="188.532" cy="168.004" r="1" fill="rgb(0,0,0)" />
	<circle cx="190.657" cy="810.713" r="1" fill="rgb(0,0,0)" />
	<circle cx="192.251" cy="1038.34" r="1" fill="rgb(0,0,0)" />
	<circle cx="206.283" cy="887.15" r="1" fill="rgb(0,0,0)" />
	<circle cx="206.488" cy="63.523" r="1" fill="rgb(0,0,0)" />
	<circle cx="216.201" cy="380.701" r="1" fill="rgb(0,0,0)" />
	<circle cx="217.446" cy="398.193" r="1" fill="rgb(0,0,0)" />
	<circle cx="220.728" cy="571.2" r="1" fill="rgb(0,0,0)" />
	<circle cx="234.733" cy="970.46" r="1" fill="rgb(0,0,0)" />
	<circle cx="242.469" cy="472.66" r="1" fill="rgb(0,0,0)" />
	<circle cx="244.027" cy="107.636" r="1" fill="rgb(0,0,0)" />
	<circle cx="255.334" cy="633.273" r="1" fill="rgb(0,0,0)" />
	<circle cx="277.833" cy="144.712" r="1" fill="rgb(0,0,0)" />
	<circle cx="291.785" cy="288.01" r="1" fill="rgb(0,0,0)" />
	<circle cx="292.429" cy="802.621" r="1" fill="rgb(0,0,0)" />
	<circle cx="292.513" cy="710.266" r="1" fill="rgb(0,0,0)" />
	<circle cx="292.748" cy="956.894" r="1" fill="rgb(0,0,0)" />
	<circle cx="294.064" cy="682.118" r="1" fill="rgb(0,0,0)" />
	<circle cx="295.235" cy="1050.19" r="1" fill="rgb(0,0,0)" />
	<circle cx="297.766" cy="331.392" r="1" fill="rgb(0,0,0)" />
	<circle cx="300.508" cy="400.771" r="1" fill="rgb(0,0,0)" />
	<circle cx="301.84" cy="875.014" r="1" fill="rgb(0,0,0)" />
	<circle cx="301.88" cy="618.62" r="1" fill="rgb(0,0,0)" />
	<circle cx="305.451" cy="583.36" r="1" fill="rgb(0,0,0)" />
	<circle cx="311.486" cy="162.077" r="1" fill="rgb(0,0,0)" />
	<circle cx="315.983" cy="959.921" r="1" fill="rgb(0,0,0)" />
	<circle cx="319.215" cy="976.001" r="1" fill="rgb(0,0,0)" />
	<circle cx="321.601" cy="422.532" r="1" fill="rgb(0,0,0)" />
	<circle cx="322.97" cy="693.935" r="1" fill="rgb(0,0,0)" />
	<circle cx="323.491" cy="639.126" r="1" fill="rgb(0,0,0)" />
	<circle cx="338.288" cy="378.013" r="1" fill="rgb(0,0,0)" />
	<circle cx="341.577" cy="955.209" r="1" fill="rgb(0,0,0)" />
	<circle cx="353.179" cy="773.929" r="1" fill="rgb(0,0,0)" />
	<circle cx="353.84" cy="779.783" r="1" fill="rgb(0,0,0)" />
	<circle cx="358.469" cy="480.57" r="1" fill="rgb(0,0,0)" />
	<circle cx="360.489" cy="685.907" r="1" fill="rgb(0,0,0)" />
	<circle cx="363.218" cy="772.453" r="1" fill="rgb(0,0,0)" />
	<circle cx="368.836" cy="655.262" r="1" fill="rgb(0,0,0)" />
	<circle cx="371.041" cy="1069.76" r="1" fill="rgb(0,0,0)" />
	<circle cx="374.33" cy="1057.26" r="1" fill="rgb(0,0,0)" />
	<circle cx="374.679" cy="490.87" r="1" fill="rgb(0,0,0)" />
	<circle cx="381.415" cy="516.914" r="1" fill="rgb(0,0,0)" />
	<circle cx="382.928" cy="957.948" r="1" fill="rgb(0,0,0)" />
	<circle cx="398.34" cy="634.182" r="1" fill="rgb(0,0,0)" />
	<circle cx="399.682" cy="634.018" r="1" fill="rgb(0,0,0)" />
	<circle cx="407.626" cy="796.775" r="1" fill="rgb(0,0,0)" />
	<circle cx="421.209" cy="247.575" r="1" fill="rgb(0,0,0)" />
	<circle cx="422.521" cy="580.185" r="1" fill="rgb(0,0,0)" />
	<circle cx="437.922" cy="360.114" r="1" fill="rgb(0,0,0)" />
	<circle cx="448.249" cy="671.405" r="1" fill="rgb(0,0,0)" />
	<circle cx="450.377" cy="918.057" r="1" fill="rgb(0,0,0)" />
	<circle cx="451.683" cy="388.229" r="1" fill="rgb(0,0,0)" />
	<circle cx="462.782" cy="666.811" r="1" fill="rgb(0,0,0)" />
	<circle cx="462.966" cy="794.036" r="1" fill="rgb(0,0,0)" />
	<circle cx="466.886" cy="621.986" r="1" fill="rgb(0,0,0)" />
	<circle cx="469.91" cy="77.6659" r="1" fill="rgb(0,0,0)" />
	<circle cx="480.17" cy="757.36" r="1" fill="rgb(0,0,0)" />
	<circle cx="496.451" cy="197.058" r="1" fill="rgb(0,0,0)" />
	<circle cx="499.045" cy="792.727" r="1" fill="rgb(0,0,0)" />
	<circle cx="508.019" cy="511.581" r="1" fill="rgb(0,0,0)" />
	<circle cx="509.895" cy="495.723" r="1" fill="rgb(0,0,0)" />
	<circle cx="509.986" cy="779.964" r="1" fill="rgb(0,0,0)" />
	<circle cx="516.581" cy="965.483" r="1" fill="rgb(0,0,0)" />
	<circle cx="528.878" cy="421.666" r="1" fill="rgb(0,0,0)" />
	<circle cx="529.526" cy="681.497" r="1" fill="rgb(0,0,0)" />
	<circle cx="535.04" cy="409.53" r="1" fill="rgb(0,0,0)" />
	<circle cx="536.161" cy="526.113" r="1" fill="rgb(0,0,0)" />
	<circle cx="540.326" cy="406.211" r="1" fill="rgb(0,0,0)" />
	<circle cx="546.629" cy="595.076" r="1" fill="rgb(0,0,0)" />
	<circle cx="549.455" cy="601.805" r="1" fill="rgb(0,0,0)" />
	<circle cx="549.569" cy="379.462" r="1" fill="rgb(0,0,0)" />
	<circle cx="555.402" cy="596.69" r="1" fill="rgb(0,0,0)" />
	<circle cx="556.073" cy="854.92" r="1" fill="rgb(0,0,0)" />
	<circle cx="559.59" cy="582.809" r="1" fill="rgb(0,0,0)" />
	<circle cx="564.366" cy="864.878" r="1" fill="rgb(0,0,0)" />
	<circle cx="567.273" cy="581.282" r="1" fill="rgb(0,0,0)" />
	<circle cx="576.435" cy="400.301" r="1" fill="rgb(0,0,0)" />
	<circle cx="578.385" cy="725.775" r="1" fill="rgb(0,0,0)" />
	<circle cx="579.113" cy="200.931" r="1" fill="rgb(0,0,0)" />
	<circle cx="581.452" cy="196.353" r="1" fill="rgb(0,0,0)" />
	<circle cx="585.611" cy="205.294" r="1" fill="rgb(0,0,0)" />
	<circle cx="586.698" cy="475.737" r="1" fill="rgb(0,0,0)" />
	<circle cx="590.041" cy="614.025" r="1" fill="rgb(0,0,0)" />
	<circle cx="591.259" cy="208.795" r="1" fill="rgb(0,0,0)" />
	<circle cx="595.518" cy="719.627" r="1" fill="rgb(0,0,0)" />
	<circle cx="598.928" cy="967.614" r="1" fill="rgb(0,0,0)" />
	<circle cx="605.237" cy="979.579" r="1" fill="rgb(0,0,0)" />
	<circle cx="613.823" cy="347.622" r="1" fill="rgb(0,0,0)" />
	<circle cx="614.041" cy="966.839" r="1" fill="rgb(0,0,0)" />
	<circle cx="614.071" cy="737.767" r="1" fill="rgb(0,0,0)" />
	<circle cx="617.501" cy="769.54" r="1" fill="rgb(0,0,0)" />
	<circle cx="617.894" cy="451.355" r="1" fill="rgb(0,0,0)" />
	<circle cx="623.331" cy="973.373" r="1" fill="rgb(0,0,0)" />
	<circle cx="646.941" cy="92.2853" r="1" fill="rgb(0,0,0)" />
	<circle cx="652.566" cy="471.398" r="1" fill="rgb(0,0,0)" />
	<circle cx="653.318" cy="510.729" r="1" fill="rgb(0,0,0)" />
	<circle cx="653.358" cy="913.237" r="1" fill="rgb(0,0,0)" />
	<circle cx="659.554" cy="1008.02" r="1" fill="rgb(0,0,0)" />
	<circle cx="662.591" cy="512.276" r="1" fill="rgb(0,0,0)" />
	<circle cx="668.434" cy="789.026" r="1" fill="rgb(0,0,0)" />
	<circle cx="671.273" cy="177.025" r="1" fill="rgb(0,0,0)" />
	<circle cx="679.389" cy="782.669" r="1" fill="rgb(0,0,0)" />
	<circle cx="680.154" cy="338.997" r="1" fill="rgb(0,0,0)" />
	<circle cx="681.117" cy="334.58" r="1" fill="rgb(0,0,0)" />
	<circle cx="681.312" cy="688.726" r="1" fill="rgb(0,0,0)" />
	<circle cx="682" cy="338.292" r="1" fill="rgb(0,0,0)" />
	<circle cx="687.027" cy="352.731" r="1" fill="rgb(0,0,0)" />
	<circle cx="687.175" cy="381.53" r="1" fill="rgb(0,0,0)" />
	<circle cx="688.94" cy="265.464" r="1" fill="rgb(0,0,0)" />
	<circle cx="690.538" cy="347.669" r="1" fill="rgb(0,0,0)" />
	<circle cx="691.494" cy="691.747" r="1" fill="rgb(0,0,0)" />
	<circle cx="695.334" cy="475.694" r="1" fill="rgb(0,0,0)" />
	<circle cx="697.451" cy="300.938" r="1" fill="rgb(0,0,0)" />
	<circle cx="699.338" cy="892.832" r="1" fill="rgb(0,0,0)" />
	<circle cx="700.405" cy="1014.9" r="1" fill="rgb(0,0,0)" />
	<circle cx="701.261" cy="301.616" r="1" fill="rgb(0,0,0)" />
	<circle cx="712.145" cy="581.671" r="1" fill="rgb(0,0,0)" />
	<circle cx="712.548" cy="580.785" r="1" fill="rgb(0,0,0)" />
	<circle cx="715.028" cy="776.108" r="1" fill="rgb(0,0,0)" />
	<circle cx="723.438" cy="509.178" r="1" fill="rgb(0,0,0)" />
	<circle cx="743.961" cy="431.876" r="1" fill="rgb(0,0,0)" />
	<circle cx="744.921" cy="999.967" r="1" fill="rgb(0,0,0)" />
	<circle cx="747.183" cy="303.341" r="1" fill="rgb(0,0,0)" />
	<circle cx="751.328" cy="238.92" r="1" fill="rgb(0,0,0)" />
	<circle cx="751.61" cy="455.993" r="1" fill="rgb(0,0,0)" />
	<circle cx="751.795" cy="317.42" r="1" fill="rgb(0,0,0)" />
	<circle cx="752.556" cy="522.794" r="1" fill="rgb(0,0,0)" />
	<circle cx="756.144" cy="598.315" r="1" fill="rgb(0,0,0)" />
	<circle cx="757.691" cy="994.628" r="1" fill="rgb(0,0,0)" />
	<circle cx="758.389" cy="650.399" r="1" fill="rgb(0,0,0)" />
	<circle cx="765.367" cy="464.722" r="1" fill="rgb(0,0,0)" />
	<circle cx="766.203" cy="700.235" r="1" fill="rgb(0,0,0)" />
	<circle cx="766.716" cy="679.92" r="1" fill="rgb(0,0,0)" />
	<circle cx="781.715" cy="447.116" r="1" fill="rgb(0,0,0)" />
	<circle cx="787.333" cy="766.009" r="1" fill="rgb(0,0,0)" />
	<circle cx="791.548" cy="897.007" r="1" fill="rgb(0,0,0)" />
	<circle cx="802.006" cy="50.9407" r="1" fill="rgb(0,0,0)" />
	<circle cx="802.489" cy="669.502" r="1" fill="rgb(0,0,0)" />
	<circle cx="805.876" cy="124.904" r="1" fill="rgb(0,0,0)" />
	<circle cx="805.936" cy="885.592" r="1" fill="rgb(0,0,0)" />
	<circle cx="807.111" cy="464.088" r="1" fill="rgb(0,0,0)" />
	<circle cx="816.787" cy="262.94" r="1" fill="rgb(0,0,0)" />
	<circle cx="843.18" cy="1063.02" r="1" fill="rgb(0,0,0)" />
	<circle cx="848.11" cy="629.594" r="1" fill="rgb(0,0,0)" />
	<circle cx="851.016" cy="863.294" r="1" fill="rgb(0,0,0)" />
	<circle cx="863.783" cy="162.013" r="1" fill="rgb(0,0,0)" />
	<circle cx="868.133" cy="455.11" r="1" fill="rgb(0,0,0)" />
	<circle cx="870.261" cy="648.983" r="1" fill="rgb(0,0,0)" />
	<circle cx="875.929" cy="206.489" r="1" fill="rgb(0,0,0)" />
	<circle cx="877.456" cy="712.763" r="1" fill="rgb(0,0,0)" />
	<circle cx="881.732" cy="747.218" r="1" fill="rgb(0,0,0)" />
	<circle cx="889.34" cy="990.61" r="1" fill="rgb(0,0,0)" />
	<circle cx="891.69" cy="280.68" r="1" fill="rgb(0,0,0)" />
	<circle cx="900.432" cy="404.204" r="1" fill="rgb(0,0,0)" />
	<circle cx="916.985" cy="484.01" r="1" fill="rgb(0,0,0)" />
	<circle cx="924.99" cy="910.317" r="1" fill="rgb(0,0,0)" />
	<circle cx="962.381" cy="651.916" r="1" fill="rgb(0,0,0)" />
	<circle cx="974.516" cy="674.231" r="1" fill="rgb(0,0,0)" />
	<circle cx="974.681" cy="790.908" r="1" fill="rgb(0,0,0)" />
	<circle cx="979.302" cy="267.434" r="1" fill="rgb(0,0,0)" />
	<circle cx="991.962" cy="735.357" r="1" fill="rgb(0,0,0)" />
	<circle cx="1003.37" cy="970.507" r="1" fill="rgb(0,0,0)" />
	<circle cx="1012.88" cy="836.149" r="1" fill="rgb(0,0,0)" />
	<circle cx="1018.72" cy="446.099" r="1" fill="rgb(0,0,0)" />
	<circle cx="1026.27" cy="719.553" r="1" fill="rgb(0,0,0)" />
	<circle cx="1027.12" cy="659.659" r="1" fill="rgb(0,0,0)" />
	<circle cx="1032.02" cy="1000.88" r="1" fill="rgb(0,0,0)" />
	<circle cx="1035.33" cy="1025.29" r="1" fill="rgb(0,0,0)" />
	<circle cx="1036.25" cy="1041.5" r="1" fill="rgb(0,0,0)" />
	<circle cx="1036.29" cy="252.73" r="1" fill="rgb(0,0,0)" />
	<circle cx="1036.37" cy="307.583" r="1" fill="rgb(0,0,0)" />
	<circle cx="1041.78" cy="592.099" r="1" fill="rgb(0,0,0)" />
	<circle cx="1047.02" cy="873.973" r="1" fill="rgb(0,0,0)" />
	<circle cx="1050" cy="247.384" r="1" fill="rgb(0,0,0)" />
</svg>
