<?xml version="1.0" standalone="no" ?>
<!DOCTYPE svg PUBLIC "-//W3C//DTD SVG 1.1//EN" "http://www.w3.org/Graphics/SVG/1.1/DTD/svg11.dtd">
<svg width="1100px" height="625.816px" xmlns="http://www.w3.org/2000/svg" version="1.1" >
	<circle cx="50" cy="192.292" r="1" fill="rgb(0,0,0)" />
	<circle cx="50.3679" cy="228.348" r="1" fill="rgb(0,0,0)" />
	<circle cx="52.4528" cy="102.152" r="1" fill="rgb(0,0,0)" />
	<circle cx="55.5188" cy="173.528" r="1" fill="rgb(0,0,0)" />
	<circle cx="56.7452" cy="260.112" r="1" fill="rgb(0,0,0)" />
	<circle cx="57.481" cy="106.445" r="1" fill="rgb(0,0,0)" />
	<circle cx="62.8771" cy="317.507" r="1" fill="rgb(0,0,0)" />
	<circle cx="63.3677" cy="172.179" r="1" fill="rgb(0,0,0)" />
	<circle cx="67.2921" cy="126.435" r="1" fill="rgb(0,0,0)" />
	<circle cx="69.8675" cy="128.397" r="1" fill="rgb(0,0,0)" />
	<circle cx="72.3203" cy="302.177" r="1" fill="rgb(0,0,0)" />
	<circle cx="72.8109" cy="314.686" r="1" fill="rgb(0,0,0)" />
	<circle cx="73.4241" cy="305.365" r="1" fill="rgb(0,0,0)" />
	<circle cx="73.5467" cy="322.412" r="1" fill="rgb(0,0,0)" />
	<circle cx="75.9995" cy="316.035" r="1" fill="rgb(0,0,0)" />
	<circle cx="78.3297" cy="312.356" r="1" fill="rgb(0,0,0)" />
	<circle cx="79.0655" cy="171.321" r="1" fill="rgb(0,0,0)" />
	<circle cx="83.3579" cy="198.179" r="1" fill="rgb(0,0,0)" />
	<circle cx="84.8295" cy="296.658" r="1" fill="rgb(0,0,0)" />
	<circle cx="87.5276" cy="293.102" r="1" fill="rgb(0,0,0)" />
	<circle cx="88.754" cy="296.781" r="1" fill="rgb(0,0,0)" />
	<circle cx="96.3576" cy="321.554" r="1" fill="rgb(0,0,0)" />
	<circle cx="96.7255" cy="321.431" r="1" fill="rgb(0,0,0)" />
	<circle cx="100.405" cy="366.44" r="1" fill="rgb(0,0,0)" />
	<circle cx="100.773" cy="151.576" r="1" fill="rgb(0,0,0)" />
	<circle cx="112.669" cy="281.819" r="1" fill="rgb(0,0,0)" />
	<circle cx="113.65" cy="284.149" r="1" fill="rgb(0,0,0)" />
	<circle cx="141.979" cy="387.166" r="1" fill="rgb(0,0,0)" />
	<circle cx="145.168" cy="386.307" r="1" fill="rgb(0,0,0)" />
	<circle cx="146.762" cy="389.251" r="1" fill="rgb(0,0,0)" />
	<circle cx="153.14" cy="393.788" r="1" fill="rgb(0,0,0)" />
	<circle cx="156.451" cy="133.303" r="1" fill="rgb(0,0,0)" />
	<circle cx="156.696" cy="375.27" r="1" fill="rgb(0,0,0)" />
	<circle cx="157.677" cy="380.543" r="1" fill="rgb(0,0,0)" />
	<circle cx="159.149" cy="388.024" r="1" fill="rgb(0,0,0)" />
	<circle cx="160.988" cy="407.156" r="1" fill="rgb(0,0,0)" />
	<circle cx="162.215" cy="393.052" r="1" fill="rgb(0,0,0)" />
	<circle cx="176.073" cy="256.187" r="1" fill="rgb(0,0,0)" />
	<circle cx="176.932" cy="205.537" r="1" fill="rgb(0,0,0)" />
	<circle cx="178.771" cy="107.426" r="1" fill="rgb(0,0,0)" />
	<circle cx="194.224" cy="342.77" r="1" fill="rgb(0,0,0)" />
	<circle cx="200.11" cy="29.7952" r="1" fill="rgb(0,0,0)" />
	<circle cx="217.648" cy="145.444" r="1" fill="rgb(0,0,0)" />
	<circle cx="224.025" cy="28.4462" r="1" fill="rgb(0,0,0)" />
	<circle cx="224.761" cy="34.0876" r="1" fill="rgb(0,0,0)" />
	<circle cx="227.091" cy="327.073" r="1" fill="rgb(0,0,0)" />
	<circle cx="237.761" cy="41.4459" r="1" fill="rgb(0,0,0)" />
	<circle cx="254.072" cy="258.517" r="1" fill="rgb(0,0,0)" />
	<circle cx="254.194" cy="208.971" r="1" fill="rgb(0,0,0)" />
	<circle cx="256.892" cy="250.178" r="1" fill="rgb(0,0,0)" />
	<circle cx="257.015" cy="394.034" r="1" fill="rgb(0,0,0)" />
	<circle cx="257.138" cy="389.864" r="1" fill="rgb(0,0,0)" />
	<circle cx="257.751" cy="256.8" r="1" fill="rgb(0,0,0)" />
	<circle cx="277.864" cy="87.6809" r="1" fill="rgb(0,0,0)" />
	<circle cx="281.175" cy="88.1714" r="1" fill="rgb(0,0,0)" />
	<circle cx="286.694" cy="337.252" r="1" fill="rgb(0,0,0)" />
	<circle cx="298.099" cy="402.618" r="1" fill="rgb(0,0,0)" />
	<circle cx="298.712" cy="52.4834" r="1" fill="rgb(0,0,0)" />
	<circle cx="299.448" cy="342.77" r="1" fill="rgb(0,0,0)" />
	<circle cx="317.353" cy="167.151" r="1" fill="rgb(0,0,0)" />
	<circle cx="319.193" cy="242.697" r="1" fill="rgb(0,0,0)" />
	<circle cx="323.731" cy="38.3799" r="1" fill="rgb(0,0,0)" />
	<circle cx="330.598" cy="539.974" r="1" fill="rgb(0,0,0)" />
	<circle cx="346.051" cy="51.8702" r="1" fill="rgb(0,0,0)" />
	<circle cx="352.551" cy="51.0118" r="1" fill="rgb(0,0,0)" />
	<circle cx="353.041" cy="360.185" r="1" fill="rgb(0,0,0)" />
	<circle cx="355.985" cy="50.5212" r="1" fill="rgb(0,0,0)" />
	<circle cx="356.107" cy="49.7854" r="1" fill="rgb(0,0,0)" />
	<circle cx="369.107" cy="35.4366" r="1" fill="rgb(0,0,0)" />
	<circle cx="382.72" cy="273.97" r="1" fill="rgb(0,0,0)" />
	<circle cx="383.456" cy="263.055" r="1" fill="rgb(0,0,0)" />
	<circle cx="386.645" cy="280.96" r="1" fill="rgb(0,0,0)" />
	<circle cx="388.975" cy="266.366" r="1" fill="rgb(0,0,0)" />
	<circle cx="389.343" cy="292.611" r="1" fill="rgb(0,0,0)" />
	<circle cx="390.692" cy="77.9924" r="1" fill="rgb(0,0,0)" />
	<circle cx="392.286" cy="36.663" r="1" fill="rgb(0,0,0)" />
	<circle cx="392.777" cy="77.8698" r="1" fill="rgb(0,0,0)" />
	<circle cx="406.635" cy="74.9264" r="1" fill="rgb(0,0,0)" />
	<circle cx="409.823" cy="127.416" r="1" fill="rgb(0,0,0)" />
	<circle cx="410.069" cy="538.503" r="1" fill="rgb(0,0,0)" />
	<circle cx="414.606" cy="490.06" r="1" fill="rgb(0,0,0)" />
	<circle cx="414.852" cy="121.039" r="1" fill="rgb(0,0,0)" />
	<circle cx="416.691" cy="123.369" r="1" fill="rgb(0,0,0)" />
	<circle cx="417.182" cy="143.972" r="1" fill="rgb(0,0,0)" />
	<circle cx="418.04" cy="406.543" r="1" fill="rgb(0,0,0)" />
	<circle cx="423.191" cy="597.369" r="1" fill="rgb(0,0,0)" />
	<circle cx="427.116" cy="188.981" r="1" fill="rgb(0,0,0)" />
	<circle cx="429.323" cy="346.082" r="1" fill="rgb(0,0,0)" />
	<circle cx="430.917" cy="66.0964" r="1" fill="rgb(0,0,0)" />
	<circle cx="433.125" cy="345.468" r="1" fill="rgb(0,0,0)" />
	<circle cx="433.983" cy="597.247" r="1" fill="rgb(0,0,0)" />
	<circle cx="438.398" cy="419.788" r="1" fill="rgb(0,0,0)" />
	<circle cx="440.728" cy="572.842" r="1" fill="rgb(0,0,0)" />
	<circle cx="446.37" cy="310.639" r="1" fill="rgb(0,0,0)" />
	<circle cx="448.823" cy="333.572" r="1" fill="rgb(0,0,0)" />
	<circle cx="457.162" cy="542.059" r="1" fill="rgb(0,0,0)" />
	<circle cx="476.784" cy="314.318" r="1" fill="rgb(0,0,0)" />
	<circle cx="476.784" cy="90.7469" r="1" fill="rgb(0,0,0)" />
	<circle cx="483.039" cy="198.179" r="1" fill="rgb(0,0,0)" />
	<circle cx="483.897" cy="63.2757" r="1" fill="rgb(0,0,0)" />
	<circle cx="488.68" cy="484.051" r="1" fill="rgb(0,0,0)" />
	<circle cx="494.444" cy="522.805" r="1" fill="rgb(0,0,0)" />
	<circle cx="499.105" cy="468.353" r="1" fill="rgb(0,0,0)" />
	<circle cx="501.925" cy="363.006" r="1" fill="rgb(0,0,0)" />
	<circle cx="502.907" cy="463.938" r="1" fill="rgb(0,0,0)" />
	<circle cx="506.095" cy="259.253" r="1" fill="rgb(0,0,0)" />
	<circle cx="506.34" cy="256.678" r="1" fill="rgb(0,0,0)" />
	<circle cx="507.935" cy="526.607" r="1" fill="rgb(0,0,0)" />
	<circle cx="508.303" cy="478.655" r="1" fill="rgb(0,0,0)" />
	<circle cx="513.331" cy="210.811" r="1" fill="rgb(0,0,0)" />
	<circle cx="516.274" cy="476.202" r="1" fill="rgb(0,0,0)" />
	<circle cx="516.519" cy="332.346" r="1" fill="rgb(0,0,0)" />
	<circle cx="519.34" cy="160.651" r="1" fill="rgb(0,0,0)" />
	<circle cx="520.444" cy="254.47" r="1" fill="rgb(0,0,0)" />
	<circle cx="522.529" cy="407.647" r="1" fill="rgb(0,0,0)" />
	<circle cx="524.982" cy="317.139" r="1" fill="rgb(0,0,0)" />
	<circle cx="526.085" cy="407.647" r="1" fill="rgb(0,0,0)" />
	<circle cx="527.68" cy="430.58" r="1" fill="rgb(0,0,0)" />
	<circle cx="529.642" cy="90.379" r="1" fill="rgb(0,0,0)" />
	<circle cx="530.378" cy="338.11" r="1" fill="rgb(0,0,0)" />
	<circle cx="530.378" cy="93.8129" r="1" fill="rgb(0,0,0)" />
	<circle cx="537.981" cy="414.76" r="1" fill="rgb(0,0,0)" />
	<circle cx="538.104" cy="402.005" r="1" fill="rgb(0,0,0)" />
	<circle cx="538.84" cy="130.605" r="1" fill="rgb(0,0,0)" />
	<circle cx="539.576" cy="246.253" r="1" fill="rgb(0,0,0)" />
	<circle cx="543.01" cy="250.3" r="1" fill="rgb(0,0,0)" />
	<circle cx="544.236" cy="454.495" r="1" fill="rgb(0,0,0)" />
	<circle cx="547.547" cy="250.791" r="1" fill="rgb(0,0,0)" />
	<circle cx="549.142" cy="451.919" r="1" fill="rgb(0,0,0)" />
	<circle cx="550" cy="251.772" r="1" fill="rgb(0,0,0)" />
	<circle cx="550.123" cy="363.987" r="1" fill="rgb(0,0,0)" />
	<circle cx="550.368" cy="252.631" r="1" fill="rgb(0,0,0)" />
	<circle cx="557.972" cy="474.485" r="1" fill="rgb(0,0,0)" />
	<circle cx="564.594" cy="298.62" r="1" fill="rgb(0,0,0)" />
	<circle cx="565.085" cy="455.721" r="1" fill="rgb(0,0,0)" />
	<circle cx="566.188" cy="466.759" r="1" fill="rgb(0,0,0)" />
	<circle cx="566.188" cy="322.535" r="1" fill="rgb(0,0,0)" />
	<circle cx="566.188" cy="134.406" r="1" fill="rgb(0,0,0)" />
	<circle cx="569.132" cy="290.281" r="1" fill="rgb(0,0,0)" />
	<circle cx="569.622" cy="284.885" r="1" fill="rgb(0,0,0)" />
	<circle cx="570.481" cy="330.874" r="1" fill="rgb(0,0,0)" />
	<circle cx="572.075" cy="155.746" r="1" fill="rgb(0,0,0)" />
	<circle cx="573.915" cy="168.868" r="1" fill="rgb(0,0,0)" />
	<circle cx="576.858" cy="221.235" r="1" fill="rgb(0,0,0)" />
	<circle cx="577.103" cy="193.273" r="1" fill="rgb(0,0,0)" />
	<circle cx="587.405" cy="257.904" r="1" fill="rgb(0,0,0)" />
	<circle cx="587.65" cy="454.495" r="1" fill="rgb(0,0,0)" />
	<circle cx="588.263" cy="452.9" r="1" fill="rgb(0,0,0)" />
	<circle cx="588.877" cy="455.966" r="1" fill="rgb(0,0,0)" />
	<circle cx="589.735" cy="137.963" r="1" fill="rgb(0,0,0)" />
	<circle cx="591.329" cy="290.036" r="1" fill="rgb(0,0,0)" />
	<circle cx="591.575" cy="411.816" r="1" fill="rgb(0,0,0)" />
	<circle cx="592.556" cy="242.206" r="1" fill="rgb(0,0,0)" />
	<circle cx="594.273" cy="176.349" r="1" fill="rgb(0,0,0)" />
	<circle cx="594.763" cy="241.961" r="1" fill="rgb(0,0,0)" />
	<circle cx="595.009" cy="326.459" r="1" fill="rgb(0,0,0)" />
	<circle cx="599.546" cy="327.195" r="1" fill="rgb(0,0,0)" />
	<circle cx="601.631" cy="342.035" r="1" fill="rgb(0,0,0)" />
	<circle cx="605.433" cy="375.392" r="1" fill="rgb(0,0,0)" />
	<circle cx="608.989" cy="307.818" r="1" fill="rgb(0,0,0)" />
	<circle cx="611.442" cy="420.646" r="1" fill="rgb(0,0,0)" />
	<circle cx="615.244" cy="453.514" r="1" fill="rgb(0,0,0)" />
	<circle cx="615.735" cy="254.961" r="1" fill="rgb(0,0,0)" />
	<circle cx="618.678" cy="325.969" r="1" fill="rgb(0,0,0)" />
	<circle cx="622.234" cy="239.876" r="1" fill="rgb(0,0,0)" />
	<circle cx="622.48" cy="436.957" r="1" fill="rgb(0,0,0)" />
	<circle cx="625.668" cy="457.683" r="1" fill="rgb(0,0,0)" />
	<circle cx="627.263" cy="358.591" r="1" fill="rgb(0,0,0)" />
	<circle cx="635.234" cy="325.233" r="1" fill="rgb(0,0,0)" />
	<circle cx="637.81" cy="446.033" r="1" fill="rgb(0,0,0)" />
	<circle cx="641.857" cy="300.092" r="1" fill="rgb(0,0,0)" />
	<circle cx="642.102" cy="301.686" r="1" fill="rgb(0,0,0)" />
	<circle cx="646.149" cy="451.306" r="1" fill="rgb(0,0,0)" />
	<circle cx="647.008" cy="463.447" r="1" fill="rgb(0,0,0)" />
	<circle cx="648.97" cy="315.422" r="1" fill="rgb(0,0,0)" />
	<circle cx="650.074" cy="345.591" r="1" fill="rgb(0,0,0)" />
	<circle cx="650.564" cy="448.24" r="1" fill="rgb(0,0,0)" />
	<circle cx="651.913" cy="459.032" r="1" fill="rgb(0,0,0)" />
	<circle cx="651.913" cy="293.102" r="1" fill="rgb(0,0,0)" />
	<circle cx="652.036" cy="245.395" r="1" fill="rgb(0,0,0)" />
	<circle cx="656.451" cy="414.024" r="1" fill="rgb(0,0,0)" />
	<circle cx="659.026" cy="293.224" r="1" fill="rgb(0,0,0)" />
	<circle cx="659.517" cy="449.467" r="1" fill="rgb(0,0,0)" />
	<circle cx="659.517" cy="400.166" r="1" fill="rgb(0,0,0)" />
	<circle cx="660.498" cy="462.589" r="1" fill="rgb(0,0,0)" />
	<circle cx="660.988" cy="295.554" r="1" fill="rgb(0,0,0)" />
	<circle cx="663.196" cy="289.545" r="1" fill="rgb(0,0,0)" />
	<circle cx="664.668" cy="451.061" r="1" fill="rgb(0,0,0)" />
	<circle cx="665.649" cy="452.287" r="1" fill="rgb(0,0,0)" />
	<circle cx="666.63" cy="284.885" r="1" fill="rgb(0,0,0)" />
	<circle cx="666.875" cy="229.942" r="1" fill="rgb(0,0,0)" />
	<circle cx="667.243" cy="353.808" r="1" fill="rgb(0,0,0)" />
	<circle cx="674.111" cy="428.373" r="1" fill="rgb(0,0,0)" />
	<circle cx="677.667" cy="210.933" r="1" fill="rgb(0,0,0)" />
	<circle cx="679.262" cy="449.957" r="1" fill="rgb(0,0,0)" />
	<circle cx="681.101" cy="356.383" r="1" fill="rgb(0,0,0)" />
	<circle cx="682.082" cy="448.853" r="1" fill="rgb(0,0,0)" />
	<circle cx="684.658" cy="170.34" r="1" fill="rgb(0,0,0)" />
	<circle cx="685.639" cy="356.751" r="1" fill="rgb(0,0,0)" />
	<circle cx="688.828" cy="312.846" r="1" fill="rgb(0,0,0)" />
	<circle cx="691.158" cy="248.338" r="1" fill="rgb(0,0,0)" />
	<circle cx="691.403" cy="335.044" r="1" fill="rgb(0,0,0)" />
	<circle cx="691.648" cy="213.754" r="1" fill="rgb(0,0,0)" />
	<circle cx="692.507" cy="371.713" r="1" fill="rgb(0,0,0)" />
	<circle cx="693.61" cy="235.584" r="1" fill="rgb(0,0,0)" />
	<circle cx="694.224" cy="236.81" r="1" fill="rgb(0,0,0)" />
	<circle cx="695.205" cy="244.659" r="1" fill="rgb(0,0,0)" />
	<circle cx="698.516" cy="191.556" r="1" fill="rgb(0,0,0)" />
	<circle cx="698.639" cy="429.722" r="1" fill="rgb(0,0,0)" />
	<circle cx="698.761" cy="206.028" r="1" fill="rgb(0,0,0)" />
	<circle cx="699.252" cy="243.433" r="1" fill="rgb(0,0,0)" />
	<circle cx="700.478" cy="242.452" r="1" fill="rgb(0,0,0)" />
	<circle cx="700.601" cy="276.668" r="1" fill="rgb(0,0,0)" />
	<circle cx="701.091" cy="197.934" r="1" fill="rgb(0,0,0)" />
	<circle cx="703.912" cy="236.688" r="1" fill="rgb(0,0,0)" />
	<circle cx="708.082" cy="310.762" r="1" fill="rgb(0,0,0)" />
	<circle cx="708.94" cy="450.693" r="1" fill="rgb(0,0,0)" />
	<circle cx="713.601" cy="351.723" r="1" fill="rgb(0,0,0)" />
	<circle cx="718.997" cy="345.101" r="1" fill="rgb(0,0,0)" />
	<circle cx="720.101" cy="346.204" r="1" fill="rgb(0,0,0)" />
	<circle cx="722.185" cy="348.657" r="1" fill="rgb(0,0,0)" />
	<circle cx="723.167" cy="237.669" r="1" fill="rgb(0,0,0)" />
	<circle cx="724.638" cy="367.911" r="1" fill="rgb(0,0,0)" />
	<circle cx="725.006" cy="408.628" r="1" fill="rgb(0,0,0)" />
	<circle cx="725.987" cy="348.167" r="1" fill="rgb(0,0,0)" />
	<circle cx="727.214" cy="259.498" r="1" fill="rgb(0,0,0)" />
	<circle cx="727.949" cy="278.385" r="1" fill="rgb(0,0,0)" />
	<circle cx="728.931" cy="212.037" r="1" fill="rgb(0,0,0)" />
	<circle cx="729.421" cy="190.33" r="1" fill="rgb(0,0,0)" />
	<circle cx="730.034" cy="240.367" r="1" fill="rgb(0,0,0)" />
	<circle cx="730.157" cy="280.592" r="1" fill="rgb(0,0,0)" />
	<circle cx="730.77" cy="273.847" r="1" fill="rgb(0,0,0)" />
	<circle cx="731.015" cy="391.581" r="1" fill="rgb(0,0,0)" />
	<circle cx="731.261" cy="221.358" r="1" fill="rgb(0,0,0)" />
	<circle cx="734.817" cy="275.564" r="1" fill="rgb(0,0,0)" />
	<circle cx="737.147" cy="360.921" r="1" fill="rgb(0,0,0)" />
	<circle cx="737.638" cy="432.665" r="1" fill="rgb(0,0,0)" />
	<circle cx="742.666" cy="439.287" r="1" fill="rgb(0,0,0)" />
	<circle cx="744.26" cy="276.668" r="1" fill="rgb(0,0,0)" />
	<circle cx="745.732" cy="364.232" r="1" fill="rgb(0,0,0)" />
	<circle cx="745.977" cy="362.761" r="1" fill="rgb(0,0,0)" />
	<circle cx="747.081" cy="383.119" r="1" fill="rgb(0,0,0)" />
	<circle cx="747.694" cy="252.876" r="1" fill="rgb(0,0,0)" />
	<circle cx="748.308" cy="259.498" r="1" fill="rgb(0,0,0)" />
	<circle cx="749.779" cy="230.678" r="1" fill="rgb(0,0,0)" />
	<circle cx="750.76" cy="212.65" r="1" fill="rgb(0,0,0)" />
	<circle cx="757.628" cy="446.278" r="1" fill="rgb(0,0,0)" />
	<circle cx="757.628" cy="348.78" r="1" fill="rgb(0,0,0)" />
	<circle cx="759.468" cy="317.507" r="1" fill="rgb(0,0,0)" />
	<circle cx="759.59" cy="221.603" r="1" fill="rgb(0,0,0)" />
	<circle cx="759.958" cy="382.383" r="1" fill="rgb(0,0,0)" />
	<circle cx="760.694" cy="349.025" r="1" fill="rgb(0,0,0)" />
	<circle cx="762.779" cy="355.525" r="1" fill="rgb(0,0,0)" />
	<circle cx="763.392" cy="397.468" r="1" fill="rgb(0,0,0)" />
	<circle cx="764.373" cy="395.628" r="1" fill="rgb(0,0,0)" />
	<circle cx="766.581" cy="281.941" r="1" fill="rgb(0,0,0)" />
	<circle cx="766.826" cy="310.394" r="1" fill="rgb(0,0,0)" />
	<circle cx="767.93" cy="336.025" r="1" fill="rgb(0,0,0)" />
	<circle cx="768.911" cy="289.422" r="1" fill="rgb(0,0,0)" />
	<circle cx="770.751" cy="376.496" r="1" fill="rgb(0,0,0)" />
	<circle cx="770.996" cy="350.742" r="1" fill="rgb(0,0,0)" />
	<circle cx="771.977" cy="378.826" r="1" fill="rgb(0,0,0)" />
	<circle cx="772.345" cy="346.45" r="1" fill="rgb(0,0,0)" />
	<circle cx="774.552" cy="418.194" r="1" fill="rgb(0,0,0)" />
	<circle cx="775.166" cy="408.75" r="1" fill="rgb(0,0,0)" />
	<circle cx="775.901" cy="411.694" r="1" fill="rgb(0,0,0)" />
	<circle cx="776.392" cy="228.225" r="1" fill="rgb(0,0,0)" />
	<circle cx="776.515" cy="217.311" r="1" fill="rgb(0,0,0)" />
	<circle cx="778.845" cy="338.601" r="1" fill="rgb(0,0,0)" />
	<circle cx="782.769" cy="273.847" r="1" fill="rgb(0,0,0)" />
	<circle cx="783.75" cy="441.127" r="1" fill="rgb(0,0,0)" />
	<circle cx="783.996" cy="441.986" r="1" fill="rgb(0,0,0)" />
	<circle cx="784.118" cy="226.754" r="1" fill="rgb(0,0,0)" />
	<circle cx="784.364" cy="227.244" r="1" fill="rgb(0,0,0)" />
	<circle cx="786.694" cy="266.979" r="1" fill="rgb(0,0,0)" />
	<circle cx="786.694" cy="262.442" r="1" fill="rgb(0,0,0)" />
	<circle cx="786.939" cy="268.819" r="1" fill="rgb(0,0,0)" />
	<circle cx="787.184" cy="274.215" r="1" fill="rgb(0,0,0)" />
	<circle cx="789.76" cy="326.091" r="1" fill="rgb(0,0,0)" />
	<circle cx="790.373" cy="229.207" r="1" fill="rgb(0,0,0)" />
	<circle cx="793.561" cy="233.744" r="1" fill="rgb(0,0,0)" />
	<circle cx="794.788" cy="374.534" r="1" fill="rgb(0,0,0)" />
	<circle cx="795.401" cy="375.025" r="1" fill="rgb(0,0,0)" />
	<circle cx="795.769" cy="351.478" r="1" fill="rgb(0,0,0)" />
	<circle cx="798.712" cy="374.166" r="1" fill="rgb(0,0,0)" />
	<circle cx="799.08" cy="366.562" r="1" fill="rgb(0,0,0)" />
	<circle cx="800.429" cy="327.931" r="1" fill="rgb(0,0,0)" />
	<circle cx="801.165" cy="303.281" r="1" fill="rgb(0,0,0)" />
	<circle cx="802.269" cy="496.315" r="1" fill="rgb(0,0,0)" />
	<circle cx="803.618" cy="370.977" r="1" fill="rgb(0,0,0)" />
	<circle cx="803.863" cy="493.739" r="1" fill="rgb(0,0,0)" />
	<circle cx="803.863" cy="360.308" r="1" fill="rgb(0,0,0)" />
	<circle cx="804.354" cy="367.421" r="1" fill="rgb(0,0,0)" />
	<circle cx="804.844" cy="496.805" r="1" fill="rgb(0,0,0)" />
	<circle cx="805.703" cy="464.306" r="1" fill="rgb(0,0,0)" />
	<circle cx="805.825" cy="393.052" r="1" fill="rgb(0,0,0)" />
	<circle cx="805.948" cy="393.911" r="1" fill="rgb(0,0,0)" />
	<circle cx="807.297" cy="583.266" r="1" fill="rgb(0,0,0)" />
	<circle cx="810.24" cy="257.536" r="1" fill="rgb(0,0,0)" />
	<circle cx="811.344" cy="252.631" r="1" fill="rgb(0,0,0)" />
	<circle cx="812.693" cy="394.156" r="1" fill="rgb(0,0,0)" />
	<circle cx="813.429" cy="485.277" r="1" fill="rgb(0,0,0)" />
	<circle cx="814.533" cy="391.581" r="1" fill="rgb(0,0,0)" />
	<circle cx="817.844" cy="309.413" r="1" fill="rgb(0,0,0)" />
	<circle cx="817.967" cy="481.598" r="1" fill="rgb(0,0,0)" />
	<circle cx="818.58" cy="478.655" r="1" fill="rgb(0,0,0)" />
	<circle cx="819.561" cy="478.287" r="1" fill="rgb(0,0,0)" />
	<circle cx="819.806" cy="352.704" r="1" fill="rgb(0,0,0)" />
	<circle cx="820.174" cy="351.478" r="1" fill="rgb(0,0,0)" />
	<circle cx="820.419" cy="116.501" r="1" fill="rgb(0,0,0)" />
	<circle cx="821.278" cy="355.648" r="1" fill="rgb(0,0,0)" />
	<circle cx="821.523" cy="257.536" r="1" fill="rgb(0,0,0)" />
	<circle cx="822.504" cy="483.805" r="1" fill="rgb(0,0,0)" />
	<circle cx="823.117" cy="483.683" r="1" fill="rgb(0,0,0)" />
	<circle cx="823.853" cy="355.034" r="1" fill="rgb(0,0,0)" />
	<circle cx="824.344" cy="414.392" r="1" fill="rgb(0,0,0)" />
	<circle cx="828.514" cy="378.336" r="1" fill="rgb(0,0,0)" />
	<circle cx="828.636" cy="481.107" r="1" fill="rgb(0,0,0)" />
	<circle cx="829.372" cy="274.583" r="1" fill="rgb(0,0,0)" />
	<circle cx="830.231" cy="272.253" r="1" fill="rgb(0,0,0)" />
	<circle cx="833.542" cy="251.404" r="1" fill="rgb(0,0,0)" />
	<circle cx="834.032" cy="356.383" r="1" fill="rgb(0,0,0)" />
	<circle cx="837.221" cy="527.22" r="1" fill="rgb(0,0,0)" />
	<circle cx="841.268" cy="345.591" r="1" fill="rgb(0,0,0)" />
	<circle cx="841.636" cy="358.468" r="1" fill="rgb(0,0,0)" />
	<circle cx="842.127" cy="200.754" r="1" fill="rgb(0,0,0)" />
	<circle cx="844.211" cy="264.772" r="1" fill="rgb(0,0,0)" />
	<circle cx="844.457" cy="378.826" r="1" fill="rgb(0,0,0)" />
	<circle cx="845.56" cy="370.487" r="1" fill="rgb(0,0,0)" />
	<circle cx="846.296" cy="328.79" r="1" fill="rgb(0,0,0)" />
	<circle cx="846.419" cy="269.187" r="1" fill="rgb(0,0,0)" />
	<circle cx="851.202" cy="267.102" r="1" fill="rgb(0,0,0)" />
	<circle cx="851.447" cy="208.235" r="1" fill="rgb(0,0,0)" />
	<circle cx="852.428" cy="206.641" r="1" fill="rgb(0,0,0)" />
	<circle cx="855.249" cy="197.566" r="1" fill="rgb(0,0,0)" />
	<circle cx="858.07" cy="206.396" r="1" fill="rgb(0,0,0)" />
	<circle cx="862.607" cy="202.594" r="1" fill="rgb(0,0,0)" />
	<circle cx="862.853" cy="359.94" r="1" fill="rgb(0,0,0)" />
	<circle cx="863.343" cy="217.311" r="1" fill="rgb(0,0,0)" />
	<circle cx="864.079" cy="218.414" r="1" fill="rgb(0,0,0)" />
	<circle cx="864.692" cy="364.232" r="1" fill="rgb(0,0,0)" />
	<circle cx="865.919" cy="356.751" r="1" fill="rgb(0,0,0)" />
	<circle cx="873.277" cy="121.161" r="1" fill="rgb(0,0,0)" />
	<circle cx="874.994" cy="383.855" r="1" fill="rgb(0,0,0)" />
	<circle cx="876.588" cy="256.8" r="1" fill="rgb(0,0,0)" />
	<circle cx="883.211" cy="378.704" r="1" fill="rgb(0,0,0)" />
	<circle cx="885.786" cy="94.3034" r="1" fill="rgb(0,0,0)" />
	<circle cx="888.239" cy="316.158" r="1" fill="rgb(0,0,0)" />
	<circle cx="891.55" cy="337.374" r="1" fill="rgb(0,0,0)" />
	<circle cx="891.795" cy="354.421" r="1" fill="rgb(0,0,0)" />
	<circle cx="896.21" cy="298.252" r="1" fill="rgb(0,0,0)" />
	<circle cx="897.192" cy="280.592" r="1" fill="rgb(0,0,0)" />
	<circle cx="899.031" cy="288.687" r="1" fill="rgb(0,0,0)" />
	<circle cx="899.399" cy="290.526" r="1" fill="rgb(0,0,0)" />
	<circle cx="900.993" cy="251.282" r="1" fill="rgb(0,0,0)" />
	<circle cx="903.324" cy="289.054" r="1" fill="rgb(0,0,0)" />
	<circle cx="904.305" cy="286.847" r="1" fill="rgb(0,0,0)" />
	<circle cx="904.673" cy="195.603" r="1" fill="rgb(0,0,0)" />
	<circle cx="906.512" cy="272.989" r="1" fill="rgb(0,0,0)" />
	<circle cx="909.578" cy="327.808" r="1" fill="rgb(0,0,0)" />
	<circle cx="909.946" cy="330.752" r="1" fill="rgb(0,0,0)" />
	<circle cx="911.295" cy="264.404" r="1" fill="rgb(0,0,0)" />
	<circle cx="911.663" cy="273.725" r="1" fill="rgb(0,0,0)" />
	<circle cx="913.503" cy="268.942" r="1" fill="rgb(0,0,0)" />
	<circle cx="917.182" cy="295.554" r="1" fill="rgb(0,0,0)" />
	<circle cx="917.55" cy="252.631" r="1" fill="rgb(0,0,0)" />
	<circle cx="918.163" cy="258.149" r="1" fill="rgb(0,0,0)" />
	<circle cx="918.408" cy="282.922" r="1" fill="rgb(0,0,0)" />
	<circle cx="921.351" cy="280.224" r="1" fill="rgb(0,0,0)" />
	<circle cx="921.965" cy="281.573" r="1" fill="rgb(0,0,0)" />
	<circle cx="925.031" cy="304.139" r="1" fill="rgb(0,0,0)" />
	<circle cx="927.116" cy="271.149" r="1" fill="rgb(0,0,0)" />
	<circle cx="929.936" cy="172.915" r="1" fill="rgb(0,0,0)" />
	<circle cx="932.144" cy="244.414" r="1" fill="rgb(0,0,0)" />
	<circle cx="938.276" cy="292.243" r="1" fill="rgb(0,0,0)" />
	<circle cx="938.889" cy="275.809" r="1" fill="rgb(0,0,0)" />
	<circle cx="940.115" cy="291.385" r="1" fill="rgb(0,0,0)" />
	<circle cx="942.813" cy="241.593" r="1" fill="rgb(0,0,0)" />
	<circle cx="947.964" cy="248.093" r="1" fill="rgb(0,0,0)" />
	<circle cx="951.889" cy="259.008" r="1" fill="rgb(0,0,0)" />
	<circle cx="955.936" cy="220.744" r="1" fill="rgb(0,0,0)" />
	<circle cx="956.549" cy="251.282" r="1" fill="rgb(0,0,0)" />
	<circle cx="957.775" cy="256.8" r="1" fill="rgb(0,0,0)" />
	<circle cx="961.822" cy="257.659" r="1" fill="rgb(0,0,0)" />
	<circle cx="966.36" cy="259.989" r="1" fill="rgb(0,0,0)" />
	<circle cx="972.124" cy="244.169" r="1" fill="rgb(0,0,0)" />
	<circle cx="978.624" cy="249.319" r="1" fill="rgb(0,0,0)" />
	<circle cx="979.728" cy="258.027" r="1" fill="rgb(0,0,0)" />
	<circle cx="997.878" cy="226.631" r="1" fill="rgb(0,0,0)" />
	<circle cx="997.878" cy="218.782" r="1" fill="rgb(0,0,0)" />
	<circle cx="998.124" cy="116.011" r="1" fill="rgb(0,0,0)" />
	<circle cx="999.35" cy="231.905" r="1" fill="rgb(0,0,0)" />
	<circle cx="1001.68" cy="222.584" r="1" fill="rgb(0,0,0)" />
	<circle cx="1003.52" cy="145.567" r="1" fill="rgb(0,0,0)" />
	<circle cx="1004.99" cy="149.246" r="1" fill="rgb(0,0,0)" />
	<circle cx="1006.59" cy="238.037" r="1" fill="rgb(0,0,0)" />
	<circle cx="1007.2" cy="148.387" r="1" fill="rgb(0,0,0)" />
	<circle cx="1007.81" cy="116.501" r="1" fill="rgb(0,0,0)" />
	<circle cx="1027.92" cy="239.999" r="1" fill="rgb(0,0,0)" />
	<circle cx="1050" cy="184.811" r="1" fill="rgb(0,0,0)" />
</svg>
