<?xml version="1.0" standalone="no" ?>
<!DOCTYPE svg PUBLIC "-//W3C//DTD SVG 1.1//EN" "http://www.w3.org/Graphics/SVG/1.1/DTD/svg11.dtd">
<svg width="1100px" height="470.785px" xmlns="http://www.w3.org/2000/svg" version="1.1" >
	<circle cx="50" cy="261.23" r="1" fill="rgb(0,0,0)" />
	<circle cx="180.34" cy="21.3993" r="1" fill="rgb(0,0,0)" />
	<circle cx="481.44" cy="440.944" r="1" fill="rgb(0,0,0)" />
	<circle cx="510.476" cy="31.76" r="1" fill="rgb(0,0,0)" />
	<circle cx="522.755" cy="207.252" r="1" fill="rgb(0,0,0)" />
	<circle cx="532.348" cy="328.895" r="1" fill="rgb(0,0,0)" />
	<circle cx="541.046" cy="297.429" r="1" fill="rgb(0,0,0)" />
	<circle cx="541.686" cy="364.965" r="1" fill="rgb(0,0,0)" />
	<circle cx="553.709" cy="408.839" r="1" fill="rgb(0,0,0)" />
	<circle cx="560.105" cy="218.764" r="1" fill="rgb(0,0,0)" />
	<circle cx="564.454" cy="239.23" r="1" fill="rgb(0,0,0)" />
	<circle cx="572.128" cy="290.906" r="1" fill="rgb(0,0,0)" />
	<circle cx="590.931" cy="130.762" r="1" fill="rgb(0,0,0)" />
	<circle cx="600.013" cy="350.384" r="1" fill="rgb(0,0,0)" />
	<circle cx="602.059" cy="144.832" r="1" fill="rgb(0,0,0)" />
	<circle cx="607.432" cy="313.034" r="1" fill="rgb(0,0,0)" />
	<circle cx="639.793" cy="398.478" r="1" fill="rgb(0,0,0)" />
	<circle cx="642.991" cy="249.335" r="1" fill="rgb(0,0,0)" />
	<circle cx="654.375" cy="409.478" r="1" fill="rgb(0,0,0)" />
	<circle cx="681.747" cy="193.566" r="1" fill="rgb(0,0,0)" />
	<circle cx="683.922" cy="193.694" r="1" fill="rgb(0,0,0)" />
	<circle cx="688.91" cy="172.973" r="1" fill="rgb(0,0,0)" />
	<circle cx="708.097" cy="194.078" r="1" fill="rgb(0,0,0)" />
	<circle cx="708.736" cy="405.001" r="1" fill="rgb(0,0,0)" />
	<circle cx="710.143" cy="350.512" r="1" fill="rgb(0,0,0)" />
	<circle cx="750.179" cy="341.686" r="1" fill="rgb(0,0,0)" />
	<circle cx="751.97" cy="350.128" r="1" fill="rgb(0,0,0)" />
	<circle cx="778.447" cy="168.368" r="1" fill="rgb(0,0,0)" />
	<circle cx="789.064" cy="449.386" r="1" fill="rgb(0,0,0)" />
	<circle cx="800.704" cy="165.298" r="1" fill="rgb(0,0,0)" />
	<circle cx="812.599" cy="231.683" r="1" fill="rgb(0,0,0)" />
	<circle cx="814.646" cy="234.241" r="1" fill="rgb(0,0,0)" />
	<circle cx="831.146" cy="367.652" r="1" fill="rgb(0,0,0)" />
	<circle cx="837.414" cy="298.069" r="1" fill="rgb(0,0,0)" />
	<circle cx="844.193" cy="160.054" r="1" fill="rgb(0,0,0)" />
	<circle cx="854.809" cy="310.604" r="1" fill="rgb(0,0,0)" />
	<circle cx="968.393" cy="100.064" r="1" fill="rgb(0,0,0)" />
	<circle cx="986.429" cy="107.483" r="1" fill="rgb(0,0,0)" />
	<circle cx="1004.98" cy="163.507" r="1" fill="rgb(0,0,0)" />
	<circle cx="1050" cy="141.379" r="1" fill="rgb(0,0,0)" />
</svg>
