<?xml version="1.0" standalone="no" ?>
<!DOCTYPE svg PUBLIC "-//W3C//DTD SVG 1.1//EN" "http://www.w3.org/Graphics/SVG/1.1/DTD/svg11.dtd">
<svg width="1100px" height="591.19px" xmlns="http://www.w3.org/2000/svg" version="1.1" >
	<circle cx="50" cy="88.4361" r="1" fill="rgb(0,0,0)" />
	<circle cx="66.9831" cy="131.602" r="1" fill="rgb(0,0,0)" />
	<circle cx="70.8751" cy="152.005" r="1" fill="rgb(0,0,0)" />
	<circle cx="71.8186" cy="279.732" r="1" fill="rgb(0,0,0)" />
	<circle cx="73.2339" cy="94.0972" r="1" fill="rgb(0,0,0)" />
	<circle cx="76.5361" cy="116.859" r="1" fill="rgb(0,0,0)" />
	<circle cx="90.5708" cy="267.938" r="1" fill="rgb(0,0,0)" />
	<circle cx="94.5807" cy="266.287" r="1" fill="rgb(0,0,0)" />
	<circle cx="114.748" cy="119.336" r="1" fill="rgb(0,0,0)" />
	<circle cx="126.778" cy="121.341" r="1" fill="rgb(0,0,0)" />
	<circle cx="131.613" cy="69.6839" r="1" fill="rgb(0,0,0)" />
	<circle cx="134.798" cy="141.508" r="1" fill="rgb(0,0,0)" />
	<circle cx="135.387" cy="349.08" r="1" fill="rgb(0,0,0)" />
	<circle cx="145.058" cy="350.259" r="1" fill="rgb(0,0,0)" />
	<circle cx="152.724" cy="336.697" r="1" fill="rgb(0,0,0)" />
	<circle cx="160.744" cy="85.8415" r="1" fill="rgb(0,0,0)" />
	<circle cx="163.929" cy="360.402" r="1" fill="rgb(0,0,0)" />
	<circle cx="166.995" cy="355.095" r="1" fill="rgb(0,0,0)" />
	<circle cx="169.236" cy="373.493" r="1" fill="rgb(0,0,0)" />
	<circle cx="172.774" cy="382.103" r="1" fill="rgb(0,0,0)" />
	<circle cx="176.902" cy="187.976" r="1" fill="rgb(0,0,0)" />
	<circle cx="186.927" cy="361.464" r="1" fill="rgb(0,0,0)" />
	<circle cx="188.578" cy="354.269" r="1" fill="rgb(0,0,0)" />
	<circle cx="198.131" cy="375.734" r="1" fill="rgb(0,0,0)" />
	<circle cx="208.627" cy="379.508" r="1" fill="rgb(0,0,0)" />
	<circle cx="211.34" cy="200.124" r="1" fill="rgb(0,0,0)" />
	<circle cx="225.021" cy="51.7573" r="1" fill="rgb(0,0,0)" />
	<circle cx="252.736" cy="240.459" r="1" fill="rgb(0,0,0)" />
	<circle cx="259.223" cy="229.255" r="1" fill="rgb(0,0,0)" />
	<circle cx="262.407" cy="235.152" r="1" fill="rgb(0,0,0)" />
	<circle cx="262.643" cy="370.781" r="1" fill="rgb(0,0,0)" />
	<circle cx="277.149" cy="389.415" r="1" fill="rgb(0,0,0)" />
	<circle cx="281.041" cy="440.954" r="1" fill="rgb(0,0,0)" />
	<circle cx="282.457" cy="389.415" r="1" fill="rgb(0,0,0)" />
	<circle cx="294.604" cy="217.461" r="1" fill="rgb(0,0,0)" />
	<circle cx="297.081" cy="471.146" r="1" fill="rgb(0,0,0)" />
	<circle cx="302.624" cy="30.5284" r="1" fill="rgb(0,0,0)" />
	<circle cx="338.359" cy="329.738" r="1" fill="rgb(0,0,0)" />
	<circle cx="358.999" cy="395.902" r="1" fill="rgb(0,0,0)" />
	<circle cx="360.296" cy="398.614" r="1" fill="rgb(0,0,0)" />
	<circle cx="365.957" cy="322.072" r="1" fill="rgb(0,0,0)" />
	<circle cx="371.264" cy="26.8723" r="1" fill="rgb(0,0,0)" />
	<circle cx="377.161" cy="201.067" r="1" fill="rgb(0,0,0)" />
	<circle cx="380.228" cy="246.827" r="1" fill="rgb(0,0,0)" />
	<circle cx="382.468" cy="129.715" r="1" fill="rgb(0,0,0)" />
	<circle cx="385.653" cy="258.503" r="1" fill="rgb(0,0,0)" />
	<circle cx="386.007" cy="257.796" r="1" fill="rgb(0,0,0)" />
	<circle cx="387.776" cy="252.253" r="1" fill="rgb(0,0,0)" />
	<circle cx="407.353" cy="102.235" r="1" fill="rgb(0,0,0)" />
	<circle cx="411.953" cy="203.426" r="1" fill="rgb(0,0,0)" />
	<circle cx="413.958" cy="94.6869" r="1" fill="rgb(0,0,0)" />
	<circle cx="416.553" cy="388.236" r="1" fill="rgb(0,0,0)" />
	<circle cx="417.26" cy="384.344" r="1" fill="rgb(0,0,0)" />
	<circle cx="419.973" cy="107.188" r="1" fill="rgb(0,0,0)" />
	<circle cx="420.563" cy="110.373" r="1" fill="rgb(0,0,0)" />
	<circle cx="425.28" cy="391.774" r="1" fill="rgb(0,0,0)" />
	<circle cx="427.049" cy="369.837" r="1" fill="rgb(0,0,0)" />
	<circle cx="427.167" cy="71.6889" r="1" fill="rgb(0,0,0)" />
	<circle cx="433.3" cy="393.307" r="1" fill="rgb(0,0,0)" />
	<circle cx="434.479" cy="392.01" r="1" fill="rgb(0,0,0)" />
	<circle cx="440.848" cy="96.2201" r="1" fill="rgb(0,0,0)" />
	<circle cx="441.438" cy="365.12" r="1" fill="rgb(0,0,0)" />
	<circle cx="446.155" cy="387.882" r="1" fill="rgb(0,0,0)" />
	<circle cx="450.519" cy="104.24" r="1" fill="rgb(0,0,0)" />
	<circle cx="451.58" cy="104.948" r="1" fill="rgb(0,0,0)" />
	<circle cx="457.831" cy="193.401" r="1" fill="rgb(0,0,0)" />
	<circle cx="458.303" cy="104.476" r="1" fill="rgb(0,0,0)" />
	<circle cx="460.78" cy="539.433" r="1" fill="rgb(0,0,0)" />
	<circle cx="462.549" cy="298.838" r="1" fill="rgb(0,0,0)" />
	<circle cx="463.846" cy="402.152" r="1" fill="rgb(0,0,0)" />
	<circle cx="484.249" cy="452.748" r="1" fill="rgb(0,0,0)" />
	<circle cx="493.92" cy="492.257" r="1" fill="rgb(0,0,0)" />
	<circle cx="500.053" cy="315.939" r="1" fill="rgb(0,0,0)" />
	<circle cx="506.068" cy="267.585" r="1" fill="rgb(0,0,0)" />
	<circle cx="511.375" cy="472.326" r="1" fill="rgb(0,0,0)" />
	<circle cx="516.093" cy="373.022" r="1" fill="rgb(0,0,0)" />
	<circle cx="517.98" cy="78.6472" r="1" fill="rgb(0,0,0)" />
	<circle cx="518.334" cy="329.266" r="1" fill="rgb(0,0,0)" />
	<circle cx="519.159" cy="417.366" r="1" fill="rgb(0,0,0)" />
	<circle cx="520.692" cy="381.749" r="1" fill="rgb(0,0,0)" />
	<circle cx="520.928" cy="117.921" r="1" fill="rgb(0,0,0)" />
	<circle cx="521.636" cy="333.984" r="1" fill="rgb(0,0,0)" />
	<circle cx="521.99" cy="373.375" r="1" fill="rgb(0,0,0)" />
	<circle cx="523.995" cy="374.201" r="1" fill="rgb(0,0,0)" />
	<circle cx="524.23" cy="319.949" r="1" fill="rgb(0,0,0)" />
	<circle cx="525.528" cy="371.724" r="1" fill="rgb(0,0,0)" />
	<circle cx="530.127" cy="321.482" r="1" fill="rgb(0,0,0)" />
	<circle cx="530.363" cy="225.245" r="1" fill="rgb(0,0,0)" />
	<circle cx="532.604" cy="138.206" r="1" fill="rgb(0,0,0)" />
	<circle cx="532.958" cy="138.324" r="1" fill="rgb(0,0,0)" />
	<circle cx="532.958" cy="67.0893" r="1" fill="rgb(0,0,0)" />
	<circle cx="535.553" cy="315.586" r="1" fill="rgb(0,0,0)" />
	<circle cx="540.978" cy="230.67" r="1" fill="rgb(0,0,0)" />
	<circle cx="543.69" cy="447.795" r="1" fill="rgb(0,0,0)" />
	<circle cx="544.634" cy="229.726" r="1" fill="rgb(0,0,0)" />
	<circle cx="546.285" cy="435.647" r="1" fill="rgb(0,0,0)" />
	<circle cx="554.187" cy="422.202" r="1" fill="rgb(0,0,0)" />
	<circle cx="559.258" cy="385.641" r="1" fill="rgb(0,0,0)" />
	<circle cx="559.848" cy="152.948" r="1" fill="rgb(0,0,0)" />
	<circle cx="561.027" cy="110.962" r="1" fill="rgb(0,0,0)" />
	<circle cx="562.325" cy="384.462" r="1" fill="rgb(0,0,0)" />
	<circle cx="563.386" cy="370.545" r="1" fill="rgb(0,0,0)" />
	<circle cx="564.094" cy="391.42" r="1" fill="rgb(0,0,0)" />
	<circle cx="564.33" cy="431.637" r="1" fill="rgb(0,0,0)" />
	<circle cx="566.688" cy="356.156" r="1" fill="rgb(0,0,0)" />
	<circle cx="567.632" cy="337.168" r="1" fill="rgb(0,0,0)" />
	<circle cx="579.662" cy="430.222" r="1" fill="rgb(0,0,0)" />
	<circle cx="579.779" cy="426.212" r="1" fill="rgb(0,0,0)" />
	<circle cx="580.251" cy="311.929" r="1" fill="rgb(0,0,0)" />
	<circle cx="580.369" cy="149.174" r="1" fill="rgb(0,0,0)" />
	<circle cx="583.553" cy="166.04" r="1" fill="rgb(0,0,0)" />
	<circle cx="584.497" cy="312.283" r="1" fill="rgb(0,0,0)" />
	<circle cx="588.743" cy="162.855" r="1" fill="rgb(0,0,0)" />
	<circle cx="588.979" cy="330.446" r="1" fill="rgb(0,0,0)" />
	<circle cx="595.347" cy="168.28" r="1" fill="rgb(0,0,0)" />
	<circle cx="596.173" cy="161.558" r="1" fill="rgb(0,0,0)" />
	<circle cx="604.547" cy="215.22" r="1" fill="rgb(0,0,0)" />
	<circle cx="606.787" cy="360.166" r="1" fill="rgb(0,0,0)" />
	<circle cx="609.382" cy="383.046" r="1" fill="rgb(0,0,0)" />
	<circle cx="612.448" cy="290.818" r="1" fill="rgb(0,0,0)" />
	<circle cx="613.274" cy="343.537" r="1" fill="rgb(0,0,0)" />
	<circle cx="615.751" cy="422.202" r="1" fill="rgb(0,0,0)" />
	<circle cx="624.478" cy="419.725" r="1" fill="rgb(0,0,0)" />
	<circle cx="624.596" cy="242.935" r="1" fill="rgb(0,0,0)" />
	<circle cx="625.775" cy="163.799" r="1" fill="rgb(0,0,0)" />
	<circle cx="627.545" cy="419.136" r="1" fill="rgb(0,0,0)" />
	<circle cx="631.201" cy="226.07" r="1" fill="rgb(0,0,0)" />
	<circle cx="633.559" cy="424.679" r="1" fill="rgb(0,0,0)" />
	<circle cx="636.39" cy="342.947" r="1" fill="rgb(0,0,0)" />
	<circle cx="639.102" cy="288.342" r="1" fill="rgb(0,0,0)" />
	<circle cx="642.641" cy="194.227" r="1" fill="rgb(0,0,0)" />
	<circle cx="643.112" cy="434.585" r="1" fill="rgb(0,0,0)" />
	<circle cx="646.886" cy="222.06" r="1" fill="rgb(0,0,0)" />
	<circle cx="648.773" cy="429.514" r="1" fill="rgb(0,0,0)" />
	<circle cx="649.245" cy="386.702" r="1" fill="rgb(0,0,0)" />
	<circle cx="651.486" cy="174.177" r="1" fill="rgb(0,0,0)" />
	<circle cx="651.958" cy="333.276" r="1" fill="rgb(0,0,0)" />
	<circle cx="657.501" cy="196.586" r="1" fill="rgb(0,0,0)" />
	<circle cx="659.27" cy="145.754" r="1" fill="rgb(0,0,0)" />
	<circle cx="660.685" cy="273.835" r="1" fill="rgb(0,0,0)" />
	<circle cx="660.921" cy="422.792" r="1" fill="rgb(0,0,0)" />
	<circle cx="661.983" cy="247.299" r="1" fill="rgb(0,0,0)" />
	<circle cx="664.695" cy="421.376" r="1" fill="rgb(0,0,0)" />
	<circle cx="667.054" cy="237.51" r="1" fill="rgb(0,0,0)" />
	<circle cx="667.172" cy="290.465" r="1" fill="rgb(0,0,0)" />
	<circle cx="669.649" cy="338.23" r="1" fill="rgb(0,0,0)" />
	<circle cx="671.889" cy="406.988" r="1" fill="rgb(0,0,0)" />
	<circle cx="673.894" cy="203.78" r="1" fill="rgb(0,0,0)" />
	<circle cx="675.545" cy="186.443" r="1" fill="rgb(0,0,0)" />
	<circle cx="676.607" cy="420.551" r="1" fill="rgb(0,0,0)" />
	<circle cx="676.961" cy="175.357" r="1" fill="rgb(0,0,0)" />
	<circle cx="677.668" cy="212.743" r="1" fill="rgb(0,0,0)" />
	<circle cx="680.971" cy="189.863" r="1" fill="rgb(0,0,0)" />
	<circle cx="681.914" cy="381.513" r="1" fill="rgb(0,0,0)" />
	<circle cx="683.919" cy="213.805" r="1" fill="rgb(0,0,0)" />
	<circle cx="687.575" cy="217.815" r="1" fill="rgb(0,0,0)" />
	<circle cx="695.831" cy="277.374" r="1" fill="rgb(0,0,0)" />
	<circle cx="699.251" cy="280.086" r="1" fill="rgb(0,0,0)" />
	<circle cx="711.753" cy="245.294" r="1" fill="rgb(0,0,0)" />
	<circle cx="713.05" cy="270.415" r="1" fill="rgb(0,0,0)" />
	<circle cx="714.465" cy="221.589" r="1" fill="rgb(0,0,0)" />
	<circle cx="717.649" cy="418.9" r="1" fill="rgb(0,0,0)" />
	<circle cx="717.885" cy="223.947" r="1" fill="rgb(0,0,0)" />
	<circle cx="718.239" cy="414.418" r="1" fill="rgb(0,0,0)" />
	<circle cx="718.593" cy="194.227" r="1" fill="rgb(0,0,0)" />
	<circle cx="721.306" cy="384.815" r="1" fill="rgb(0,0,0)" />
	<circle cx="723.664" cy="291.172" r="1" fill="rgb(0,0,0)" />
	<circle cx="724.49" cy="243.879" r="1" fill="rgb(0,0,0)" />
	<circle cx="726.141" cy="348.255" r="1" fill="rgb(0,0,0)" />
	<circle cx="726.613" cy="256.145" r="1" fill="rgb(0,0,0)" />
	<circle cx="728.5" cy="280.204" r="1" fill="rgb(0,0,0)" />
	<circle cx="728.618" cy="248.714" r="1" fill="rgb(0,0,0)" />
	<circle cx="733.335" cy="210.031" r="1" fill="rgb(0,0,0)" />
	<circle cx="735.458" cy="334.927" r="1" fill="rgb(0,0,0)" />
	<circle cx="735.576" cy="230.198" r="1" fill="rgb(0,0,0)" />
	<circle cx="742.77" cy="265.58" r="1" fill="rgb(0,0,0)" />
	<circle cx="747.37" cy="260.626" r="1" fill="rgb(0,0,0)" />
	<circle cx="748.549" cy="209.795" r="1" fill="rgb(0,0,0)" />
	<circle cx="749.375" cy="259.801" r="1" fill="rgb(0,0,0)" />
	<circle cx="750.554" cy="297.541" r="1" fill="rgb(0,0,0)" />
	<circle cx="751.616" cy="285.983" r="1" fill="rgb(0,0,0)" />
	<circle cx="752.441" cy="364.766" r="1" fill="rgb(0,0,0)" />
	<circle cx="752.795" cy="396.255" r="1" fill="rgb(0,0,0)" />
	<circle cx="754.092" cy="299.782" r="1" fill="rgb(0,0,0)" />
	<circle cx="754.682" cy="252.724" r="1" fill="rgb(0,0,0)" />
	<circle cx="757.866" cy="323.134" r="1" fill="rgb(0,0,0)" />
	<circle cx="758.102" cy="352.264" r="1" fill="rgb(0,0,0)" />
	<circle cx="759.164" cy="356.274" r="1" fill="rgb(0,0,0)" />
	<circle cx="760.461" cy="351.321" r="1" fill="rgb(0,0,0)" />
	<circle cx="760.933" cy="384.344" r="1" fill="rgb(0,0,0)" />
	<circle cx="763.528" cy="377.267" r="1" fill="rgb(0,0,0)" />
	<circle cx="763.645" cy="212.154" r="1" fill="rgb(0,0,0)" />
	<circle cx="763.763" cy="251.899" r="1" fill="rgb(0,0,0)" />
	<circle cx="765.532" cy="219.348" r="1" fill="rgb(0,0,0)" />
	<circle cx="767.537" cy="195.524" r="1" fill="rgb(0,0,0)" />
	<circle cx="768.009" cy="215.22" r="1" fill="rgb(0,0,0)" />
	<circle cx="769.189" cy="80.4163" r="1" fill="rgb(0,0,0)" />
	<circle cx="769.778" cy="307.448" r="1" fill="rgb(0,0,0)" />
	<circle cx="775.086" cy="257.088" r="1" fill="rgb(0,0,0)" />
	<circle cx="776.029" cy="419.607" r="1" fill="rgb(0,0,0)" />
	<circle cx="776.619" cy="300.254" r="1" fill="rgb(0,0,0)" />
	<circle cx="779.331" cy="446.733" r="1" fill="rgb(0,0,0)" />
	<circle cx="780.982" cy="459.353" r="1" fill="rgb(0,0,0)" />
	<circle cx="782.044" cy="265.933" r="1" fill="rgb(0,0,0)" />
	<circle cx="782.516" cy="332.805" r="1" fill="rgb(0,0,0)" />
	<circle cx="787.469" cy="339.763" r="1" fill="rgb(0,0,0)" />
	<circle cx="788.177" cy="392.128" r="1" fill="rgb(0,0,0)" />
	<circle cx="790.535" cy="226.66" r="1" fill="rgb(0,0,0)" />
	<circle cx="791.125" cy="230.906" r="1" fill="rgb(0,0,0)" />
	<circle cx="793.248" cy="236.567" r="1" fill="rgb(0,0,0)" />
	<circle cx="794.663" cy="222.768" r="1" fill="rgb(0,0,0)" />
	<circle cx="795.135" cy="494.38" r="1" fill="rgb(0,0,0)" />
	<circle cx="795.253" cy="488.012" r="1" fill="rgb(0,0,0)" />
	<circle cx="795.961" cy="281.03" r="1" fill="rgb(0,0,0)" />
	<circle cx="799.617" cy="237.746" r="1" fill="rgb(0,0,0)" />
	<circle cx="800.796" cy="185.028" r="1" fill="rgb(0,0,0)" />
	<circle cx="801.15" cy="326.318" r="1" fill="rgb(0,0,0)" />
	<circle cx="801.504" cy="326.082" r="1" fill="rgb(0,0,0)" />
	<circle cx="803.273" cy="331.861" r="1" fill="rgb(0,0,0)" />
	<circle cx="804.452" cy="100.348" r="1" fill="rgb(0,0,0)" />
	<circle cx="805.278" cy="288.696" r="1" fill="rgb(0,0,0)" />
	<circle cx="807.637" cy="365.12" r="1" fill="rgb(0,0,0)" />
	<circle cx="808.698" cy="391.656" r="1" fill="rgb(0,0,0)" />
	<circle cx="809.17" cy="191.043" r="1" fill="rgb(0,0,0)" />
	<circle cx="810.939" cy="170.167" r="1" fill="rgb(0,0,0)" />
	<circle cx="811.528" cy="226.542" r="1" fill="rgb(0,0,0)" />
	<circle cx="812" cy="197.529" r="1" fill="rgb(0,0,0)" />
	<circle cx="812.236" cy="454.517" r="1" fill="rgb(0,0,0)" />
	<circle cx="814.123" cy="366.181" r="1" fill="rgb(0,0,0)" />
	<circle cx="815.656" cy="462.773" r="1" fill="rgb(0,0,0)" />
	<circle cx="816.128" cy="314.17" r="1" fill="rgb(0,0,0)" />
	<circle cx="817.543" cy="216.517" r="1" fill="rgb(0,0,0)" />
	<circle cx="818.015" cy="335.163" r="1" fill="rgb(0,0,0)" />
	<circle cx="818.841" cy="245.648" r="1" fill="rgb(0,0,0)" />
	<circle cx="820.256" cy="485.653" r="1" fill="rgb(0,0,0)" />
	<circle cx="821.435" cy="324.903" r="1" fill="rgb(0,0,0)" />
	<circle cx="821.907" cy="486.125" r="1" fill="rgb(0,0,0)" />
	<circle cx="823.676" cy="233.382" r="1" fill="rgb(0,0,0)" />
	<circle cx="824.62" cy="247.889" r="1" fill="rgb(0,0,0)" />
	<circle cx="825.091" cy="488.955" r="1" fill="rgb(0,0,0)" />
	<circle cx="825.563" cy="212.625" r="1" fill="rgb(0,0,0)" />
	<circle cx="825.917" cy="356.746" r="1" fill="rgb(0,0,0)" />
	<circle cx="826.153" cy="317.119" r="1" fill="rgb(0,0,0)" />
	<circle cx="827.096" cy="375.144" r="1" fill="rgb(0,0,0)" />
	<circle cx="828.983" cy="184.32" r="1" fill="rgb(0,0,0)" />
	<circle cx="829.573" cy="251.191" r="1" fill="rgb(0,0,0)" />
	<circle cx="830.87" cy="249.658" r="1" fill="rgb(0,0,0)" />
	<circle cx="832.168" cy="195.052" r="1" fill="rgb(0,0,0)" />
	<circle cx="834.762" cy="334.22" r="1" fill="rgb(0,0,0)" />
	<circle cx="834.88" cy="237.157" r="1" fill="rgb(0,0,0)" />
	<circle cx="837.475" cy="564.318" r="1" fill="rgb(0,0,0)" />
	<circle cx="838.418" cy="177.951" r="1" fill="rgb(0,0,0)" />
	<circle cx="841.721" cy="338.701" r="1" fill="rgb(0,0,0)" />
	<circle cx="841.721" cy="331.271" r="1" fill="rgb(0,0,0)" />
	<circle cx="842.782" cy="358.987" r="1" fill="rgb(0,0,0)" />
	<circle cx="843.726" cy="243.289" r="1" fill="rgb(0,0,0)" />
	<circle cx="844.197" cy="359.341" r="1" fill="rgb(0,0,0)" />
	<circle cx="845.849" cy="322.308" r="1" fill="rgb(0,0,0)" />
	<circle cx="847.5" cy="320.775" r="1" fill="rgb(0,0,0)" />
	<circle cx="848.443" cy="47.6294" r="1" fill="rgb(0,0,0)" />
	<circle cx="849.858" cy="350.259" r="1" fill="rgb(0,0,0)" />
	<circle cx="852.217" cy="198.827" r="1" fill="rgb(0,0,0)" />
	<circle cx="863.775" cy="260.626" r="1" fill="rgb(0,0,0)" />
	<circle cx="871.559" cy="196.35" r="1" fill="rgb(0,0,0)" />
	<circle cx="875.687" cy="240.695" r="1" fill="rgb(0,0,0)" />
	<circle cx="881.112" cy="276.43" r="1" fill="rgb(0,0,0)" />
	<circle cx="886.184" cy="336.579" r="1" fill="rgb(0,0,0)" />
	<circle cx="886.891" cy="252.017" r="1" fill="rgb(0,0,0)" />
	<circle cx="888.071" cy="257.678" r="1" fill="rgb(0,0,0)" />
	<circle cx="888.424" cy="260.154" r="1" fill="rgb(0,0,0)" />
	<circle cx="889.014" cy="301.787" r="1" fill="rgb(0,0,0)" />
	<circle cx="889.132" cy="189.038" r="1" fill="rgb(0,0,0)" />
	<circle cx="889.84" cy="242.464" r="1" fill="rgb(0,0,0)" />
	<circle cx="890.429" cy="261.924" r="1" fill="rgb(0,0,0)" />
	<circle cx="905.761" cy="285.04" r="1" fill="rgb(0,0,0)" />
	<circle cx="906.351" cy="246.592" r="1" fill="rgb(0,0,0)" />
	<circle cx="906.351" cy="239.161" r="1" fill="rgb(0,0,0)" />
	<circle cx="906.705" cy="243.761" r="1" fill="rgb(0,0,0)" />
	<circle cx="913.899" cy="206.964" r="1" fill="rgb(0,0,0)" />
	<circle cx="915.432" cy="166.511" r="1" fill="rgb(0,0,0)" />
	<circle cx="915.55" cy="244.115" r="1" fill="rgb(0,0,0)" />
	<circle cx="915.786" cy="256.145" r="1" fill="rgb(0,0,0)" />
	<circle cx="917.083" cy="247.299" r="1" fill="rgb(0,0,0)" />
	<circle cx="918.027" cy="157.076" r="1" fill="rgb(0,0,0)" />
	<circle cx="920.268" cy="266.523" r="1" fill="rgb(0,0,0)" />
	<circle cx="920.386" cy="266.759" r="1" fill="rgb(0,0,0)" />
	<circle cx="930.41" cy="227.014" r="1" fill="rgb(0,0,0)" />
	<circle cx="947.394" cy="235.269" r="1" fill="rgb(0,0,0)" />
	<circle cx="947.983" cy="234.326" r="1" fill="rgb(0,0,0)" />
	<circle cx="953.408" cy="136.319" r="1" fill="rgb(0,0,0)" />
	<circle cx="957.772" cy="218.876" r="1" fill="rgb(0,0,0)" />
	<circle cx="958.598" cy="215.574" r="1" fill="rgb(0,0,0)" />
	<circle cx="962.961" cy="99.0506" r="1" fill="rgb(0,0,0)" />
	<circle cx="970.392" cy="128.771" r="1" fill="rgb(0,0,0)" />
	<circle cx="976.642" cy="206.257" r="1" fill="rgb(0,0,0)" />
	<circle cx="978.175" cy="192.694" r="1" fill="rgb(0,0,0)" />
	<circle cx="983.719" cy="170.639" r="1" fill="rgb(0,0,0)" />
	<circle cx="984.898" cy="215.574" r="1" fill="rgb(0,0,0)" />
	<circle cx="986.667" cy="208.733" r="1" fill="rgb(0,0,0)" />
	<circle cx="1050" cy="117.567" r="1" fill="rgb(0,0,0)" />
</svg>
