<?xml version="1.0" standalone="no" ?>
<!DOCTYPE svg PUBLIC "-//W3C//DTD SVG 1.1//EN" "http://www.w3.org/Graphics/SVG/1.1/DTD/svg11.dtd">
<svg width="1100px" height="416.506px" xmlns="http://www.w3.org/2000/svg" version="1.1" >
	<circle cx="50" cy="76.5787" r="1" fill="rgb(0,0,0)" />
	<circle cx="56.3774" cy="50.1938" r="1" fill="rgb(0,0,0)" />
	<circle cx="128.529" cy="249.394" r="1" fill="rgb(0,0,0)" />
	<circle cx="159.541" cy="267.525" r="1" fill="rgb(0,0,0)" />
	<circle cx="447.024" cy="164.862" r="1" fill="rgb(0,0,0)" />
	<circle cx="494.917" cy="81.2055" r="1" fill="rgb(0,0,0)" />
	<circle cx="512.298" cy="140.978" r="1" fill="rgb(0,0,0)" />
	<circle cx="548.937" cy="326.047" r="1" fill="rgb(0,0,0)" />
	<circle cx="560.191" cy="18.9321" r="1" fill="rgb(0,0,0)" />
	<circle cx="574.447" cy="350.556" r="1" fill="rgb(0,0,0)" />
	<circle cx="590.078" cy="299.412" r="1" fill="rgb(0,0,0)" />
	<circle cx="643.723" cy="60.0725" r="1" fill="rgb(0,0,0)" />
	<circle cx="705.621" cy="96.8363" r="1" fill="rgb(0,0,0)" />
	<circle cx="728.755" cy="199.875" r="1" fill="rgb(0,0,0)" />
	<circle cx="728.88" cy="195.873" r="1" fill="rgb(0,0,0)" />
	<circle cx="738.133" cy="293.41" r="1" fill="rgb(0,0,0)" />
	<circle cx="765.268" cy="249.143" r="1" fill="rgb(0,0,0)" />
	<circle cx="791.153" cy="110.591" r="1" fill="rgb(0,0,0)" />
	<circle cx="815.912" cy="219.132" r="1" fill="rgb(0,0,0)" />
	<circle cx="833.919" cy="397.574" r="1" fill="rgb(0,0,0)" />
	<circle cx="904.821" cy="177.241" r="1" fill="rgb(0,0,0)" />
	<circle cx="937.833" cy="155.358" r="1" fill="rgb(0,0,0)" />
	<circle cx="997.355" cy="124.847" r="1" fill="rgb(0,0,0)" />
	<circle cx="1010.99" cy="90.584" r="1" fill="rgb(0,0,0)" />
	<circle cx="1050" cy="72.7023" r="1" fill="rgb(0,0,0)" />
</svg>
