<?xml version="1.0" standalone="no" ?>
<!DOCTYPE svg PUBLIC "-//W3C//DTD SVG 1.1//EN" "http://www.w3.org/Graphics/SVG/1.1/DTD/svg11.dtd">
<svg width="1100px" height="537.852px" xmlns="http://www.w3.org/2000/svg" version="1.1" >
	<circle cx="50" cy="116.059" r="1" fill="rgb(0,0,0)" />
	<circle cx="68.2257" cy="284.919" r="1" fill="rgb(0,0,0)" />
	<circle cx="88.9861" cy="295.54" r="1" fill="rgb(0,0,0)" />
	<circle cx="94.0555" cy="286.367" r="1" fill="rgb(0,0,0)" />
	<circle cx="117.351" cy="305.317" r="1" fill="rgb(0,0,0)" />
	<circle cx="152.716" cy="367.719" r="1" fill="rgb(0,0,0)" />
	<circle cx="200.151" cy="24.4478" r="1" fill="rgb(0,0,0)" />
	<circle cx="242.879" cy="215.757" r="1" fill="rgb(0,0,0)" />
	<circle cx="329.541" cy="513.404" r="1" fill="rgb(0,0,0)" />
	<circle cx="433.102" cy="353.838" r="1" fill="rgb(0,0,0)" />
	<circle cx="531.835" cy="372.667" r="1" fill="rgb(0,0,0)" />
	<circle cx="541.129" cy="307.852" r="1" fill="rgb(0,0,0)" />
	<circle cx="558.147" cy="130.302" r="1" fill="rgb(0,0,0)" />
	<circle cx="566.717" cy="256.554" r="1" fill="rgb(0,0,0)" />
	<circle cx="579.873" cy="209.602" r="1" fill="rgb(0,0,0)" />
	<circle cx="583.011" cy="210.205" r="1" fill="rgb(0,0,0)" />
	<circle cx="610.29" cy="292.764" r="1" fill="rgb(0,0,0)" />
	<circle cx="616.083" cy="206.343" r="1" fill="rgb(0,0,0)" />
	<circle cx="640.947" cy="268.745" r="1" fill="rgb(0,0,0)" />
	<circle cx="674.623" cy="317.145" r="1" fill="rgb(0,0,0)" />
	<circle cx="675.468" cy="234.707" r="1" fill="rgb(0,0,0)" />
	<circle cx="683.313" cy="208.515" r="1" fill="rgb(0,0,0)" />
	<circle cx="686.089" cy="210.205" r="1" fill="rgb(0,0,0)" />
	<circle cx="691.159" cy="298.437" r="1" fill="rgb(0,0,0)" />
	<circle cx="704.074" cy="320.646" r="1" fill="rgb(0,0,0)" />
	<circle cx="705.643" cy="300.247" r="1" fill="rgb(0,0,0)" />
	<circle cx="711.678" cy="374.719" r="1" fill="rgb(0,0,0)" />
	<circle cx="713.609" cy="388.479" r="1" fill="rgb(0,0,0)" />
	<circle cx="716.989" cy="372.667" r="1" fill="rgb(0,0,0)" />
	<circle cx="718.92" cy="208.153" r="1" fill="rgb(0,0,0)" />
	<circle cx="720.127" cy="238.208" r="1" fill="rgb(0,0,0)" />
	<circle cx="736.663" cy="372.547" r="1" fill="rgb(0,0,0)" />
	<circle cx="740.766" cy="363.011" r="1" fill="rgb(0,0,0)" />
	<circle cx="751.629" cy="346.838" r="1" fill="rgb(0,0,0)" />
	<circle cx="752.474" cy="392.342" r="1" fill="rgb(0,0,0)" />
	<circle cx="753.923" cy="243.518" r="1" fill="rgb(0,0,0)" />
	<circle cx="759.716" cy="196.566" r="1" fill="rgb(0,0,0)" />
	<circle cx="762.855" cy="310.628" r="1" fill="rgb(0,0,0)" />
	<circle cx="773.114" cy="373.15" r="1" fill="rgb(0,0,0)" />
	<circle cx="775.528" cy="260.658" r="1" fill="rgb(0,0,0)" />
	<circle cx="778.666" cy="417.568" r="1" fill="rgb(0,0,0)" />
	<circle cx="783.856" cy="461.744" r="1" fill="rgb(0,0,0)" />
	<circle cx="783.856" cy="267.538" r="1" fill="rgb(0,0,0)" />
	<circle cx="791.098" cy="326.439" r="1" fill="rgb(0,0,0)" />
	<circle cx="794.116" cy="454.019" r="1" fill="rgb(0,0,0)" />
	<circle cx="799.909" cy="326.56" r="1" fill="rgb(0,0,0)" />
	<circle cx="799.909" cy="276.832" r="1" fill="rgb(0,0,0)" />
	<circle cx="802.806" cy="222.517" r="1" fill="rgb(0,0,0)" />
	<circle cx="812.221" cy="220.344" r="1" fill="rgb(0,0,0)" />
	<circle cx="813.186" cy="186.065" r="1" fill="rgb(0,0,0)" />
	<circle cx="813.79" cy="324.75" r="1" fill="rgb(0,0,0)" />
	<circle cx="817.049" cy="312.076" r="1" fill="rgb(0,0,0)" />
	<circle cx="819.704" cy="246.536" r="1" fill="rgb(0,0,0)" />
	<circle cx="821.756" cy="230.241" r="1" fill="rgb(0,0,0)" />
	<circle cx="823.446" cy="495.057" r="1" fill="rgb(0,0,0)" />
	<circle cx="828.757" cy="302.42" r="1" fill="rgb(0,0,0)" />
	<circle cx="849.276" cy="183.651" r="1" fill="rgb(0,0,0)" />
	<circle cx="851.328" cy="336.216" r="1" fill="rgb(0,0,0)" />
	<circle cx="860.984" cy="235.069" r="1" fill="rgb(0,0,0)" />
	<circle cx="864.363" cy="313.766" r="1" fill="rgb(0,0,0)" />
	<circle cx="864.967" cy="223.361" r="1" fill="rgb(0,0,0)" />
	<circle cx="873.657" cy="179.668" r="1" fill="rgb(0,0,0)" />
	<circle cx="881.986" cy="310.507" r="1" fill="rgb(0,0,0)" />
	<circle cx="885.365" cy="260.175" r="1" fill="rgb(0,0,0)" />
	<circle cx="888.383" cy="254.261" r="1" fill="rgb(0,0,0)" />
	<circle cx="891.159" cy="175.685" r="1" fill="rgb(0,0,0)" />
	<circle cx="898.401" cy="236.156" r="1" fill="rgb(0,0,0)" />
	<circle cx="907.695" cy="139.837" r="1" fill="rgb(0,0,0)" />
	<circle cx="924.231" cy="237.363" r="1" fill="rgb(0,0,0)" />
	<circle cx="932.438" cy="226.741" r="1" fill="rgb(0,0,0)" />
	<circle cx="934.007" cy="239.777" r="1" fill="rgb(0,0,0)" />
	<circle cx="939.197" cy="219.258" r="1" fill="rgb(0,0,0)" />
	<circle cx="943.905" cy="141.285" r="1" fill="rgb(0,0,0)" />
	<circle cx="976.011" cy="82.9873" r="1" fill="rgb(0,0,0)" />
	<circle cx="980.235" cy="200.549" r="1" fill="rgb(0,0,0)" />
	<circle cx="984.098" cy="197.17" r="1" fill="rgb(0,0,0)" />
	<circle cx="992.547" cy="184.375" r="1" fill="rgb(0,0,0)" />
	<circle cx="998.22" cy="155.769" r="1" fill="rgb(0,0,0)" />
	<circle cx="1016.32" cy="96.5057" r="1" fill="rgb(0,0,0)" />
	<circle cx="1050" cy="83.5908" r="1" fill="rgb(0,0,0)" />
</svg>
