<?xml version="1.0" standalone="no" ?>
<!DOCTYPE svg PUBLIC "-//W3C//DTD SVG 1.1//EN" "http://www.w3.org/Graphics/SVG/1.1/DTD/svg11.dtd">
<svg width="1100px" height="585.503px" xmlns="http://www.w3.org/2000/svg" version="1.1" >
	<circle cx="50" cy="207.857" r="1" fill="rgb(0,0,0)" />
	<circle cx="65.8692" cy="108.704" r="1" fill="rgb(0,0,0)" />
	<circle cx="75.5339" cy="310.589" r="1" fill="rgb(0,0,0)" />
	<circle cx="90.0907" cy="287.68" r="1" fill="rgb(0,0,0)" />
	<circle cx="99.2781" cy="146.17" r="1" fill="rgb(0,0,0)" />
	<circle cx="101.307" cy="95.102" r="1" fill="rgb(0,0,0)" />
	<circle cx="127.437" cy="335.05" r="1" fill="rgb(0,0,0)" />
	<circle cx="185.187" cy="26.6138" r="1" fill="rgb(0,0,0)" />
	<circle cx="218.596" cy="44.0341" r="1" fill="rgb(0,0,0)" />
	<circle cx="252.243" cy="258.567" r="1" fill="rgb(0,0,0)" />
	<circle cx="254.033" cy="253.198" r="1" fill="rgb(0,0,0)" />
	<circle cx="347.697" cy="47.1364" r="1" fill="rgb(0,0,0)" />
	<circle cx="377.885" cy="261.55" r="1" fill="rgb(0,0,0)" />
	<circle cx="408.191" cy="121.352" r="1" fill="rgb(0,0,0)" />
	<circle cx="408.549" cy="233.868" r="1" fill="rgb(0,0,0)" />
	<circle cx="431.816" cy="335.765" r="1" fill="rgb(0,0,0)" />
	<circle cx="457.947" cy="558.889" r="1" fill="rgb(0,0,0)" />
	<circle cx="495.651" cy="361.299" r="1" fill="rgb(0,0,0)" />
	<circle cx="515.816" cy="351.038" r="1" fill="rgb(0,0,0)" />
	<circle cx="515.816" cy="82.8123" r="1" fill="rgb(0,0,0)" />
	<circle cx="525.6" cy="365.237" r="1" fill="rgb(0,0,0)" />
	<circle cx="543.974" cy="210.959" r="1" fill="rgb(0,0,0)" />
	<circle cx="591.582" cy="363.089" r="1" fill="rgb(0,0,0)" />
	<circle cx="602.44" cy="192.942" r="1" fill="rgb(0,0,0)" />
	<circle cx="609.718" cy="144.142" r="1" fill="rgb(0,0,0)" />
	<circle cx="615.923" cy="343.402" r="1" fill="rgb(0,0,0)" />
	<circle cx="630.599" cy="333.737" r="1" fill="rgb(0,0,0)" />
	<circle cx="633.821" cy="448.043" r="1" fill="rgb(0,0,0)" />
	<circle cx="671.883" cy="362.731" r="1" fill="rgb(0,0,0)" />
	<circle cx="681.07" cy="342.567" r="1" fill="rgb(0,0,0)" />
	<circle cx="704.457" cy="384.805" r="1" fill="rgb(0,0,0)" />
	<circle cx="706.843" cy="326.817" r="1" fill="rgb(0,0,0)" />
	<circle cx="712.57" cy="401.509" r="1" fill="rgb(0,0,0)" />
	<circle cx="725.218" cy="255.107" r="1" fill="rgb(0,0,0)" />
	<circle cx="729.036" cy="260.953" r="1" fill="rgb(0,0,0)" />
	<circle cx="745.502" cy="343.163" r="1" fill="rgb(0,0,0)" />
	<circle cx="747.769" cy="223.01" r="1" fill="rgb(0,0,0)" />
	<circle cx="751.826" cy="271.931" r="1" fill="rgb(0,0,0)" />
	<circle cx="767.456" cy="221.817" r="1" fill="rgb(0,0,0)" />
	<circle cx="784.28" cy="291.976" r="1" fill="rgb(0,0,0)" />
	<circle cx="784.877" cy="483.003" r="1" fill="rgb(0,0,0)" />
	<circle cx="796.689" cy="268.351" r="1" fill="rgb(0,0,0)" />
	<circle cx="812.32" cy="215.971" r="1" fill="rgb(0,0,0)" />
	<circle cx="820.433" cy="202.607" r="1" fill="rgb(0,0,0)" />
	<circle cx="830.217" cy="255.703" r="1" fill="rgb(0,0,0)" />
	<circle cx="833.677" cy="314.646" r="1" fill="rgb(0,0,0)" />
	<circle cx="851.456" cy="338.152" r="1" fill="rgb(0,0,0)" />
	<circle cx="854.081" cy="330.157" r="1" fill="rgb(0,0,0)" />
	<circle cx="871.859" cy="295.675" r="1" fill="rgb(0,0,0)" />
	<circle cx="874.245" cy="314.646" r="1" fill="rgb(0,0,0)" />
	<circle cx="892.143" cy="261.669" r="1" fill="rgb(0,0,0)" />
	<circle cx="917.677" cy="267.039" r="1" fill="rgb(0,0,0)" />
	<circle cx="936.052" cy="252.362" r="1" fill="rgb(0,0,0)" />
	<circle cx="941.66" cy="251.05" r="1" fill="rgb(0,0,0)" />
	<circle cx="949.535" cy="166.573" r="1" fill="rgb(0,0,0)" />
	<circle cx="986.284" cy="142.71" r="1" fill="rgb(0,0,0)" />
	<circle cx="989.387" cy="164.306" r="1" fill="rgb(0,0,0)" />
	<circle cx="989.864" cy="141.039" r="1" fill="rgb(0,0,0)" />
	<circle cx="1001.32" cy="191.391" r="1" fill="rgb(0,0,0)" />
	<circle cx="1050" cy="152.136" r="1" fill="rgb(0,0,0)" />
</svg>
