<?xml version="1.0" standalone="no" ?>
<!DOCTYPE svg PUBLIC "-//W3C//DTD SVG 1.1//EN" "http://www.w3.org/Graphics/SVG/1.1/DTD/svg11.dtd">
<svg width="1100px" height="628.854px" xmlns="http://www.w3.org/2000/svg" version="1.1" >
	<circle cx="50" cy="178.297" r="1" fill="rgb(0,0,0)" />
	<circle cx="50.5984" cy="183.443" r="1" fill="rgb(0,0,0)" />
	<circle cx="53.5902" cy="165.253" r="1" fill="rgb(0,0,0)" />
	<circle cx="53.9493" cy="183.323" r="1" fill="rgb(0,0,0)" />
	<circle cx="56.1034" cy="162.62" r="1" fill="rgb(0,0,0)" />
	<circle cx="56.4624" cy="296.775" r="1" fill="rgb(0,0,0)" />
	<circle cx="60.0527" cy="170.758" r="1" fill="rgb(0,0,0)" />
	<circle cx="60.7707" cy="133.299" r="1" fill="rgb(0,0,0)" />
	<circle cx="60.8904" cy="136.77" r="1" fill="rgb(0,0,0)" />
	<circle cx="62.8052" cy="116.904" r="1" fill="rgb(0,0,0)" />
	<circle cx="62.9248" cy="117.143" r="1" fill="rgb(0,0,0)" />
	<circle cx="63.2839" cy="169.68" r="1" fill="rgb(0,0,0)" />
	<circle cx="66.2757" cy="136.89" r="1" fill="rgb(0,0,0)" />
	<circle cx="75.371" cy="284.807" r="1" fill="rgb(0,0,0)" />
	<circle cx="82.0728" cy="308.024" r="1" fill="rgb(0,0,0)" />
	<circle cx="82.9105" cy="306.947" r="1" fill="rgb(0,0,0)" />
	<circle cx="84.9449" cy="291.389" r="1" fill="rgb(0,0,0)" />
	<circle cx="85.4236" cy="308.623" r="1" fill="rgb(0,0,0)" />
	<circle cx="86.7401" cy="311.255" r="1" fill="rgb(0,0,0)" />
	<circle cx="86.8597" cy="319.034" r="1" fill="rgb(0,0,0)" />
	<circle cx="90.45" cy="343.807" r="1" fill="rgb(0,0,0)" />
	<circle cx="96.9124" cy="148.139" r="1" fill="rgb(0,0,0)" />
	<circle cx="109.478" cy="345.961" r="1" fill="rgb(0,0,0)" />
	<circle cx="114.864" cy="355.176" r="1" fill="rgb(0,0,0)" />
	<circle cx="115.462" cy="165.731" r="1" fill="rgb(0,0,0)" />
	<circle cx="120.129" cy="145.506" r="1" fill="rgb(0,0,0)" />
	<circle cx="120.967" cy="371.93" r="1" fill="rgb(0,0,0)" />
	<circle cx="142.508" cy="380.308" r="1" fill="rgb(0,0,0)" />
	<circle cx="142.987" cy="358.168" r="1" fill="rgb(0,0,0)" />
	<circle cx="143.226" cy="359.604" r="1" fill="rgb(0,0,0)" />
	<circle cx="145.141" cy="378.034" r="1" fill="rgb(0,0,0)" />
	<circle cx="145.859" cy="381.145" r="1" fill="rgb(0,0,0)" />
	<circle cx="147.056" cy="377.316" r="1" fill="rgb(0,0,0)" />
	<circle cx="147.176" cy="104.937" r="1" fill="rgb(0,0,0)" />
	<circle cx="153.997" cy="372.648" r="1" fill="rgb(0,0,0)" />
	<circle cx="156.51" cy="364.63" r="1" fill="rgb(0,0,0)" />
	<circle cx="159.143" cy="399.934" r="1" fill="rgb(0,0,0)" />
	<circle cx="159.622" cy="404.362" r="1" fill="rgb(0,0,0)" />
	<circle cx="166.563" cy="416.09" r="1" fill="rgb(0,0,0)" />
	<circle cx="172.307" cy="201.394" r="1" fill="rgb(0,0,0)" />
	<circle cx="183.198" cy="28.5843" r="1" fill="rgb(0,0,0)" />
	<circle cx="188.822" cy="339.977" r="1" fill="rgb(0,0,0)" />
	<circle cx="189.78" cy="338.182" r="1" fill="rgb(0,0,0)" />
	<circle cx="204.26" cy="95.2429" r="1" fill="rgb(0,0,0)" />
	<circle cx="209.646" cy="65.803" r="1" fill="rgb(0,0,0)" />
	<circle cx="209.765" cy="357.33" r="1" fill="rgb(0,0,0)" />
	<circle cx="211.441" cy="96.4397" r="1" fill="rgb(0,0,0)" />
	<circle cx="215.151" cy="47.7322" r="1" fill="rgb(0,0,0)" />
	<circle cx="215.749" cy="44.86" r="1" fill="rgb(0,0,0)" />
	<circle cx="229.751" cy="31.3368" r="1" fill="rgb(0,0,0)" />
	<circle cx="240.522" cy="257.522" r="1" fill="rgb(0,0,0)" />
	<circle cx="241.12" cy="217.67" r="1" fill="rgb(0,0,0)" />
	<circle cx="246.146" cy="382.222" r="1" fill="rgb(0,0,0)" />
	<circle cx="247.343" cy="249.144" r="1" fill="rgb(0,0,0)" />
	<circle cx="249.019" cy="384.496" r="1" fill="rgb(0,0,0)" />
	<circle cx="249.378" cy="254.649" r="1" fill="rgb(0,0,0)" />
	<circle cx="250.574" cy="253.572" r="1" fill="rgb(0,0,0)" />
	<circle cx="251.771" cy="78.2492" r="1" fill="rgb(0,0,0)" />
	<circle cx="252.011" cy="258.479" r="1" fill="rgb(0,0,0)" />
	<circle cx="252.609" cy="389.163" r="1" fill="rgb(0,0,0)" />
	<circle cx="255.122" cy="389.522" r="1" fill="rgb(0,0,0)" />
	<circle cx="261.704" cy="466.952" r="1" fill="rgb(0,0,0)" />
	<circle cx="266.252" cy="215.875" r="1" fill="rgb(0,0,0)" />
	<circle cx="268.526" cy="49.8863" r="1" fill="rgb(0,0,0)" />
	<circle cx="268.526" cy="38.3976" r="1" fill="rgb(0,0,0)" />
	<circle cx="275.826" cy="63.7685" r="1" fill="rgb(0,0,0)" />
	<circle cx="286.955" cy="406.875" r="1" fill="rgb(0,0,0)" />
	<circle cx="297.726" cy="60.4177" r="1" fill="rgb(0,0,0)" />
	<circle cx="307.3" cy="38.8763" r="1" fill="rgb(0,0,0)" />
	<circle cx="313.882" cy="284.448" r="1" fill="rgb(0,0,0)" />
	<circle cx="318.669" cy="351.346" r="1" fill="rgb(0,0,0)" />
	<circle cx="330.278" cy="225.688" r="1" fill="rgb(0,0,0)" />
	<circle cx="340.211" cy="476.047" r="1" fill="rgb(0,0,0)" />
	<circle cx="343.442" cy="356.851" r="1" fill="rgb(0,0,0)" />
	<circle cx="344.16" cy="47.3731" r="1" fill="rgb(0,0,0)" />
	<circle cx="344.399" cy="356.971" r="1" fill="rgb(0,0,0)" />
	<circle cx="352.537" cy="415.013" r="1" fill="rgb(0,0,0)" />
	<circle cx="356.486" cy="395.865" r="1" fill="rgb(0,0,0)" />
	<circle cx="360.196" cy="32.1745" r="1" fill="rgb(0,0,0)" />
	<circle cx="366.18" cy="192.179" r="1" fill="rgb(0,0,0)" />
	<circle cx="373.241" cy="259.795" r="1" fill="rgb(0,0,0)" />
	<circle cx="377.669" cy="600.269" r="1" fill="rgb(0,0,0)" />
	<circle cx="377.908" cy="268.651" r="1" fill="rgb(0,0,0)" />
	<circle cx="378.028" cy="264.104" r="1" fill="rgb(0,0,0)" />
	<circle cx="378.985" cy="262.668" r="1" fill="rgb(0,0,0)" />
	<circle cx="379.344" cy="547.134" r="1" fill="rgb(0,0,0)" />
	<circle cx="388.559" cy="231.433" r="1" fill="rgb(0,0,0)" />
	<circle cx="394.543" cy="254.769" r="1" fill="rgb(0,0,0)" />
	<circle cx="397.535" cy="536.124" r="1" fill="rgb(0,0,0)" />
	<circle cx="400.766" cy="122.529" r="1" fill="rgb(0,0,0)" />
	<circle cx="401.484" cy="120.853" r="1" fill="rgb(0,0,0)" />
	<circle cx="402.082" cy="142.275" r="1" fill="rgb(0,0,0)" />
	<circle cx="404.117" cy="523.079" r="1" fill="rgb(0,0,0)" />
	<circle cx="406.989" cy="397.541" r="1" fill="rgb(0,0,0)" />
	<circle cx="414.888" cy="124.683" r="1" fill="rgb(0,0,0)" />
	<circle cx="415.486" cy="131.504" r="1" fill="rgb(0,0,0)" />
	<circle cx="415.965" cy="131.863" r="1" fill="rgb(0,0,0)" />
	<circle cx="417.042" cy="86.8657" r="1" fill="rgb(0,0,0)" />
	<circle cx="429.607" cy="577.172" r="1" fill="rgb(0,0,0)" />
	<circle cx="443.131" cy="135.573" r="1" fill="rgb(0,0,0)" />
	<circle cx="449.114" cy="145.147" r="1" fill="rgb(0,0,0)" />
	<circle cx="450.311" cy="475.449" r="1" fill="rgb(0,0,0)" />
	<circle cx="467.185" cy="84.1132" r="1" fill="rgb(0,0,0)" />
	<circle cx="473.767" cy="492.562" r="1" fill="rgb(0,0,0)" />
	<circle cx="475.562" cy="105.056" r="1" fill="rgb(0,0,0)" />
	<circle cx="476.879" cy="502.735" r="1" fill="rgb(0,0,0)" />
	<circle cx="480.828" cy="350.03" r="1" fill="rgb(0,0,0)" />
	<circle cx="485.256" cy="513.984" r="1" fill="rgb(0,0,0)" />
	<circle cx="486.094" cy="474.132" r="1" fill="rgb(0,0,0)" />
	<circle cx="486.932" cy="144.669" r="1" fill="rgb(0,0,0)" />
	<circle cx="489.804" cy="96.679" r="1" fill="rgb(0,0,0)" />
	<circle cx="491" cy="459.771" r="1" fill="rgb(0,0,0)" />
	<circle cx="491" cy="455.702" r="1" fill="rgb(0,0,0)" />
	<circle cx="492.556" cy="514.104" r="1" fill="rgb(0,0,0)" />
	<circle cx="493.035" cy="453.788" r="1" fill="rgb(0,0,0)" />
	<circle cx="494.83" cy="329.087" r="1" fill="rgb(0,0,0)" />
	<circle cx="496.506" cy="461.686" r="1" fill="rgb(0,0,0)" />
	<circle cx="502.25" cy="585.669" r="1" fill="rgb(0,0,0)" />
	<circle cx="502.729" cy="443.615" r="1" fill="rgb(0,0,0)" />
	<circle cx="504.643" cy="180.212" r="1" fill="rgb(0,0,0)" />
	<circle cx="504.883" cy="349.073" r="1" fill="rgb(0,0,0)" />
	<circle cx="507.276" cy="347.876" r="1" fill="rgb(0,0,0)" />
	<circle cx="507.516" cy="438.11" r="1" fill="rgb(0,0,0)" />
	<circle cx="507.635" cy="441.461" r="1" fill="rgb(0,0,0)" />
	<circle cx="507.994" cy="430.691" r="1" fill="rgb(0,0,0)" />
	<circle cx="508.832" cy="346.44" r="1" fill="rgb(0,0,0)" />
	<circle cx="509.191" cy="344.286" r="1" fill="rgb(0,0,0)" />
	<circle cx="511.345" cy="216.114" r="1" fill="rgb(0,0,0)" />
	<circle cx="512.542" cy="405.32" r="1" fill="rgb(0,0,0)" />
	<circle cx="512.542" cy="401.011" r="1" fill="rgb(0,0,0)" />
	<circle cx="514.816" cy="399.934" r="1" fill="rgb(0,0,0)" />
	<circle cx="514.935" cy="383.18" r="1" fill="rgb(0,0,0)" />
	<circle cx="515.893" cy="394.549" r="1" fill="rgb(0,0,0)" />
	<circle cx="516.371" cy="327.651" r="1" fill="rgb(0,0,0)" />
	<circle cx="517.209" cy="394.908" r="1" fill="rgb(0,0,0)" />
	<circle cx="517.449" cy="397.062" r="1" fill="rgb(0,0,0)" />
	<circle cx="519.244" cy="86.1477" r="1" fill="rgb(0,0,0)" />
	<circle cx="521.039" cy="286.004" r="1" fill="rgb(0,0,0)" />
	<circle cx="521.876" cy="263.266" r="1" fill="rgb(0,0,0)" />
	<circle cx="522.116" cy="339.738" r="1" fill="rgb(0,0,0)" />
	<circle cx="522.714" cy="392.634" r="1" fill="rgb(0,0,0)" />
	<circle cx="524.749" cy="365.109" r="1" fill="rgb(0,0,0)" />
	<circle cx="524.749" cy="127.794" r="1" fill="rgb(0,0,0)" />
	<circle cx="526.065" cy="471.619" r="1" fill="rgb(0,0,0)" />
	<circle cx="526.424" cy="471.859" r="1" fill="rgb(0,0,0)" />
	<circle cx="527.501" cy="428.895" r="1" fill="rgb(0,0,0)" />
	<circle cx="529.177" cy="396.703" r="1" fill="rgb(0,0,0)" />
	<circle cx="529.895" cy="350.269" r="1" fill="rgb(0,0,0)" />
	<circle cx="530.373" cy="249.743" r="1" fill="rgb(0,0,0)" />
	<circle cx="531.091" cy="151.849" r="1" fill="rgb(0,0,0)" />
	<circle cx="531.211" cy="436.914" r="1" fill="rgb(0,0,0)" />
	<circle cx="531.331" cy="394.788" r="1" fill="rgb(0,0,0)" />
	<circle cx="533.365" cy="154.003" r="1" fill="rgb(0,0,0)" />
	<circle cx="534.921" cy="110.322" r="1" fill="rgb(0,0,0)" />
	<circle cx="535.4" cy="396.583" r="1" fill="rgb(0,0,0)" />
	<circle cx="540.905" cy="359.724" r="1" fill="rgb(0,0,0)" />
	<circle cx="543.657" cy="181.887" r="1" fill="rgb(0,0,0)" />
	<circle cx="544.016" cy="460.489" r="1" fill="rgb(0,0,0)" />
	<circle cx="544.016" cy="381.504" r="1" fill="rgb(0,0,0)" />
	<circle cx="544.854" cy="381.624" r="1" fill="rgb(0,0,0)" />
	<circle cx="545.333" cy="344.525" r="1" fill="rgb(0,0,0)" />
	<circle cx="546.051" cy="174.348" r="1" fill="rgb(0,0,0)" />
	<circle cx="546.649" cy="444.214" r="1" fill="rgb(0,0,0)" />
	<circle cx="547.367" cy="157.952" r="1" fill="rgb(0,0,0)" />
	<circle cx="547.846" cy="441.461" r="1" fill="rgb(0,0,0)" />
	<circle cx="549.88" cy="448.881" r="1" fill="rgb(0,0,0)" />
	<circle cx="550.239" cy="286.363" r="1" fill="rgb(0,0,0)" />
	<circle cx="551.436" cy="453.07" r="1" fill="rgb(0,0,0)" />
	<circle cx="553.83" cy="176.502" r="1" fill="rgb(0,0,0)" />
	<circle cx="554.069" cy="452.83" r="1" fill="rgb(0,0,0)" />
	<circle cx="554.428" cy="459.293" r="1" fill="rgb(0,0,0)" />
	<circle cx="555.984" cy="453.189" r="1" fill="rgb(0,0,0)" />
	<circle cx="557.061" cy="287.32" r="1" fill="rgb(0,0,0)" />
	<circle cx="559.694" cy="285.406" r="1" fill="rgb(0,0,0)" />
	<circle cx="561.489" cy="320.949" r="1" fill="rgb(0,0,0)" />
	<circle cx="563.643" cy="320.829" r="1" fill="rgb(0,0,0)" />
	<circle cx="563.643" cy="201.993" r="1" fill="rgb(0,0,0)" />
	<circle cx="563.882" cy="328.369" r="1" fill="rgb(0,0,0)" />
	<circle cx="565.438" cy="162.38" r="1" fill="rgb(0,0,0)" />
	<circle cx="567.113" cy="164.056" r="1" fill="rgb(0,0,0)" />
	<circle cx="567.472" cy="165.372" r="1" fill="rgb(0,0,0)" />
	<circle cx="569.028" cy="285.286" r="1" fill="rgb(0,0,0)" />
	<circle cx="571.182" cy="384.736" r="1" fill="rgb(0,0,0)" />
	<circle cx="573.576" cy="378.991" r="1" fill="rgb(0,0,0)" />
	<circle cx="573.696" cy="323.343" r="1" fill="rgb(0,0,0)" />
	<circle cx="575.73" cy="435.956" r="1" fill="rgb(0,0,0)" />
	<circle cx="576.328" cy="442.778" r="1" fill="rgb(0,0,0)" />
	<circle cx="578.363" cy="232.151" r="1" fill="rgb(0,0,0)" />
	<circle cx="578.842" cy="401.729" r="1" fill="rgb(0,0,0)" />
	<circle cx="580.397" cy="179.254" r="1" fill="rgb(0,0,0)" />
	<circle cx="582.551" cy="318.436" r="1" fill="rgb(0,0,0)" />
	<circle cx="586.62" cy="173.869" r="1" fill="rgb(0,0,0)" />
	<circle cx="586.979" cy="336.028" r="1" fill="rgb(0,0,0)" />
	<circle cx="587.578" cy="443.615" r="1" fill="rgb(0,0,0)" />
	<circle cx="587.578" cy="319.752" r="1" fill="rgb(0,0,0)" />
	<circle cx="588.296" cy="373.486" r="1" fill="rgb(0,0,0)" />
	<circle cx="592.604" cy="302.639" r="1" fill="rgb(0,0,0)" />
	<circle cx="595.716" cy="443.376" r="1" fill="rgb(0,0,0)" />
	<circle cx="599.785" cy="396.823" r="1" fill="rgb(0,0,0)" />
	<circle cx="602.178" cy="403.524" r="1" fill="rgb(0,0,0)" />
	<circle cx="603.255" cy="362.356" r="1" fill="rgb(0,0,0)" />
	<circle cx="604.931" cy="362.835" r="1" fill="rgb(0,0,0)" />
	<circle cx="605.888" cy="443.137" r="1" fill="rgb(0,0,0)" />
	<circle cx="609.239" cy="397.9" r="1" fill="rgb(0,0,0)" />
	<circle cx="611.513" cy="169.92" r="1" fill="rgb(0,0,0)" />
	<circle cx="614.505" cy="352.782" r="1" fill="rgb(0,0,0)" />
	<circle cx="619.77" cy="443.137" r="1" fill="rgb(0,0,0)" />
	<circle cx="621.326" cy="453.429" r="1" fill="rgb(0,0,0)" />
	<circle cx="623.48" cy="387.608" r="1" fill="rgb(0,0,0)" />
	<circle cx="623.839" cy="230.236" r="1" fill="rgb(0,0,0)" />
	<circle cx="627.07" cy="386.65" r="1" fill="rgb(0,0,0)" />
	<circle cx="627.31" cy="293.783" r="1" fill="rgb(0,0,0)" />
	<circle cx="627.549" cy="444.692" r="1" fill="rgb(0,0,0)" />
	<circle cx="628.746" cy="446.607" r="1" fill="rgb(0,0,0)" />
	<circle cx="629.344" cy="434.999" r="1" fill="rgb(0,0,0)" />
	<circle cx="631.498" cy="341.772" r="1" fill="rgb(0,0,0)" />
	<circle cx="632.097" cy="277.747" r="1" fill="rgb(0,0,0)" />
	<circle cx="633.413" cy="238.493" r="1" fill="rgb(0,0,0)" />
	<circle cx="634.131" cy="419.441" r="1" fill="rgb(0,0,0)" />
	<circle cx="636.046" cy="414.534" r="1" fill="rgb(0,0,0)" />
	<circle cx="636.405" cy="241.605" r="1" fill="rgb(0,0,0)" />
	<circle cx="641.312" cy="449.599" r="1" fill="rgb(0,0,0)" />
	<circle cx="642.508" cy="449.719" r="1" fill="rgb(0,0,0)" />
	<circle cx="644.423" cy="293.065" r="1" fill="rgb(0,0,0)" />
	<circle cx="646.936" cy="305.391" r="1" fill="rgb(0,0,0)" />
	<circle cx="648.133" cy="211.806" r="1" fill="rgb(0,0,0)" />
	<circle cx="649.21" cy="354.697" r="1" fill="rgb(0,0,0)" />
	<circle cx="650.407" cy="418.603" r="1" fill="rgb(0,0,0)" />
	<circle cx="650.766" cy="392.634" r="1" fill="rgb(0,0,0)" />
	<circle cx="656.391" cy="459.891" r="1" fill="rgb(0,0,0)" />
	<circle cx="656.51" cy="425.425" r="1" fill="rgb(0,0,0)" />
	<circle cx="656.989" cy="417.526" r="1" fill="rgb(0,0,0)" />
	<circle cx="658.186" cy="310.178" r="1" fill="rgb(0,0,0)" />
	<circle cx="658.305" cy="441.461" r="1" fill="rgb(0,0,0)" />
	<circle cx="658.425" cy="398.857" r="1" fill="rgb(0,0,0)" />
	<circle cx="659.502" cy="398.139" r="1" fill="rgb(0,0,0)" />
	<circle cx="660.938" cy="331.959" r="1" fill="rgb(0,0,0)" />
	<circle cx="661.297" cy="220.662" r="1" fill="rgb(0,0,0)" />
	<circle cx="663.451" cy="346.44" r="1" fill="rgb(0,0,0)" />
	<circle cx="664.289" cy="394.549" r="1" fill="rgb(0,0,0)" />
	<circle cx="668.238" cy="326.933" r="1" fill="rgb(0,0,0)" />
	<circle cx="668.717" cy="297.732" r="1" fill="rgb(0,0,0)" />
	<circle cx="668.837" cy="323.462" r="1" fill="rgb(0,0,0)" />
	<circle cx="669.674" cy="284.688" r="1" fill="rgb(0,0,0)" />
	<circle cx="669.794" cy="360.083" r="1" fill="rgb(0,0,0)" />
	<circle cx="670.273" cy="231.792" r="1" fill="rgb(0,0,0)" />
	<circle cx="671.709" cy="226.526" r="1" fill="rgb(0,0,0)" />
	<circle cx="672.188" cy="322.505" r="1" fill="rgb(0,0,0)" />
	<circle cx="672.307" cy="353.141" r="1" fill="rgb(0,0,0)" />
	<circle cx="672.307" cy="227.842" r="1" fill="rgb(0,0,0)" />
	<circle cx="672.547" cy="318.795" r="1" fill="rgb(0,0,0)" />
	<circle cx="672.906" cy="278.106" r="1" fill="rgb(0,0,0)" />
	<circle cx="674.701" cy="191.701" r="1" fill="rgb(0,0,0)" />
	<circle cx="676.735" cy="227.962" r="1" fill="rgb(0,0,0)" />
	<circle cx="677.094" cy="332.677" r="1" fill="rgb(0,0,0)" />
	<circle cx="677.812" cy="209.771" r="1" fill="rgb(0,0,0)" />
	<circle cx="678.052" cy="239.69" r="1" fill="rgb(0,0,0)" />
	<circle cx="678.052" cy="236.698" r="1" fill="rgb(0,0,0)" />
	<circle cx="678.889" cy="425.185" r="1" fill="rgb(0,0,0)" />
	<circle cx="679.607" cy="241.365" r="1" fill="rgb(0,0,0)" />
	<circle cx="681.522" cy="214.917" r="1" fill="rgb(0,0,0)" />
	<circle cx="683.317" cy="308.742" r="1" fill="rgb(0,0,0)" />
	<circle cx="683.557" cy="197.804" r="1" fill="rgb(0,0,0)" />
	<circle cx="685.831" cy="241.006" r="1" fill="rgb(0,0,0)" />
	<circle cx="686.309" cy="388.804" r="1" fill="rgb(0,0,0)" />
	<circle cx="686.309" cy="239.69" r="1" fill="rgb(0,0,0)" />
	<circle cx="686.429" cy="391.198" r="1" fill="rgb(0,0,0)" />
	<circle cx="688.104" cy="304.793" r="1" fill="rgb(0,0,0)" />
	<circle cx="688.703" cy="316.521" r="1" fill="rgb(0,0,0)" />
	<circle cx="689.181" cy="330.164" r="1" fill="rgb(0,0,0)" />
	<circle cx="691.096" cy="329.446" r="1" fill="rgb(0,0,0)" />
	<circle cx="692.413" cy="239.69" r="1" fill="rgb(0,0,0)" />
	<circle cx="694.447" cy="331.241" r="1" fill="rgb(0,0,0)" />
	<circle cx="694.806" cy="338.9" r="1" fill="rgb(0,0,0)" />
	<circle cx="695.644" cy="307.426" r="1" fill="rgb(0,0,0)" />
	<circle cx="698.755" cy="341.294" r="1" fill="rgb(0,0,0)" />
	<circle cx="698.995" cy="276.789" r="1" fill="rgb(0,0,0)" />
	<circle cx="699.473" cy="337.344" r="1" fill="rgb(0,0,0)" />
	<circle cx="700.67" cy="423.869" r="1" fill="rgb(0,0,0)" />
	<circle cx="701.747" cy="305.391" r="1" fill="rgb(0,0,0)" />
	<circle cx="701.987" cy="336.387" r="1" fill="rgb(0,0,0)" />
	<circle cx="702.346" cy="337.225" r="1" fill="rgb(0,0,0)" />
	<circle cx="705.577" cy="396.464" r="1" fill="rgb(0,0,0)" />
	<circle cx="707.611" cy="301.801" r="1" fill="rgb(0,0,0)" />
	<circle cx="708.569" cy="228.201" r="1" fill="rgb(0,0,0)" />
	<circle cx="709.526" cy="369.537" r="1" fill="rgb(0,0,0)" />
	<circle cx="709.526" cy="277.747" r="1" fill="rgb(0,0,0)" />
	<circle cx="710.005" cy="404.841" r="1" fill="rgb(0,0,0)" />
	<circle cx="711.92" cy="212.883" r="1" fill="rgb(0,0,0)" />
	<circle cx="714.911" cy="442.538" r="1" fill="rgb(0,0,0)" />
	<circle cx="715.749" cy="274.994" r="1" fill="rgb(0,0,0)" />
	<circle cx="716.587" cy="215.276" r="1" fill="rgb(0,0,0)" />
	<circle cx="717.903" cy="423.989" r="1" fill="rgb(0,0,0)" />
	<circle cx="718.502" cy="243.52" r="1" fill="rgb(0,0,0)" />
	<circle cx="718.98" cy="344.764" r="1" fill="rgb(0,0,0)" />
	<circle cx="718.98" cy="239.57" r="1" fill="rgb(0,0,0)" />
	<circle cx="722.092" cy="322.026" r="1" fill="rgb(0,0,0)" />
	<circle cx="722.092" cy="229.159" r="1" fill="rgb(0,0,0)" />
	<circle cx="723.887" cy="402.447" r="1" fill="rgb(0,0,0)" />
	<circle cx="725.921" cy="268.891" r="1" fill="rgb(0,0,0)" />
	<circle cx="728.913" cy="247.349" r="1" fill="rgb(0,0,0)" />
	<circle cx="731.786" cy="356.851" r="1" fill="rgb(0,0,0)" />
	<circle cx="732.743" cy="380.786" r="1" fill="rgb(0,0,0)" />
	<circle cx="734.777" cy="291.868" r="1" fill="rgb(0,0,0)" />
	<circle cx="735.017" cy="361.279" r="1" fill="rgb(0,0,0)" />
	<circle cx="735.136" cy="452.471" r="1" fill="rgb(0,0,0)" />
	<circle cx="735.495" cy="397.9" r="1" fill="rgb(0,0,0)" />
	<circle cx="735.854" cy="377.435" r="1" fill="rgb(0,0,0)" />
	<circle cx="741.479" cy="382.462" r="1" fill="rgb(0,0,0)" />
	<circle cx="743.274" cy="286.602" r="1" fill="rgb(0,0,0)" />
	<circle cx="743.274" cy="286.243" r="1" fill="rgb(0,0,0)" />
	<circle cx="744.232" cy="379.949" r="1" fill="rgb(0,0,0)" />
	<circle cx="744.591" cy="315.803" r="1" fill="rgb(0,0,0)" />
	<circle cx="746.625" cy="385.693" r="1" fill="rgb(0,0,0)" />
	<circle cx="749.138" cy="210.848" r="1" fill="rgb(0,0,0)" />
	<circle cx="749.497" cy="342.012" r="1" fill="rgb(0,0,0)" />
	<circle cx="750.096" cy="421.835" r="1" fill="rgb(0,0,0)" />
	<circle cx="750.215" cy="338.302" r="1" fill="rgb(0,0,0)" />
	<circle cx="750.335" cy="274.994" r="1" fill="rgb(0,0,0)" />
	<circle cx="750.455" cy="206.421" r="1" fill="rgb(0,0,0)" />
	<circle cx="752.13" cy="356.253" r="1" fill="rgb(0,0,0)" />
	<circle cx="753.925" cy="322.864" r="1" fill="rgb(0,0,0)" />
	<circle cx="754.883" cy="306.947" r="1" fill="rgb(0,0,0)" />
	<circle cx="755.122" cy="386.172" r="1" fill="rgb(0,0,0)" />
	<circle cx="755.72" cy="426.263" r="1" fill="rgb(0,0,0)" />
	<circle cx="756.199" cy="238.852" r="1" fill="rgb(0,0,0)" />
	<circle cx="756.798" cy="223.654" r="1" fill="rgb(0,0,0)" />
	<circle cx="757.157" cy="210.729" r="1" fill="rgb(0,0,0)" />
	<circle cx="757.635" cy="228.8" r="1" fill="rgb(0,0,0)" />
	<circle cx="761.225" cy="344.046" r="1" fill="rgb(0,0,0)" />
	<circle cx="764.816" cy="366.066" r="1" fill="rgb(0,0,0)" />
	<circle cx="767.449" cy="324.42" r="1" fill="rgb(0,0,0)" />
	<circle cx="769.124" cy="269.968" r="1" fill="rgb(0,0,0)" />
	<circle cx="770.201" cy="440.384" r="1" fill="rgb(0,0,0)" />
	<circle cx="770.68" cy="290.911" r="1" fill="rgb(0,0,0)" />
	<circle cx="772.475" cy="242.682" r="1" fill="rgb(0,0,0)" />
	<circle cx="774.629" cy="315.803" r="1" fill="rgb(0,0,0)" />
	<circle cx="775.108" cy="488.852" r="1" fill="rgb(0,0,0)" />
	<circle cx="775.108" cy="265.54" r="1" fill="rgb(0,0,0)" />
	<circle cx="775.586" cy="443.615" r="1" fill="rgb(0,0,0)" />
	<circle cx="776.065" cy="484.424" r="1" fill="rgb(0,0,0)" />
	<circle cx="776.663" cy="328.848" r="1" fill="rgb(0,0,0)" />
	<circle cx="777.98" cy="311.614" r="1" fill="rgb(0,0,0)" />
	<circle cx="780.972" cy="500.341" r="1" fill="rgb(0,0,0)" />
	<circle cx="781.091" cy="377.435" r="1" fill="rgb(0,0,0)" />
	<circle cx="782.169" cy="362.715" r="1" fill="rgb(0,0,0)" />
	<circle cx="783.246" cy="500.7" r="1" fill="rgb(0,0,0)" />
	<circle cx="783.724" cy="308.982" r="1" fill="rgb(0,0,0)" />
	<circle cx="783.844" cy="479.398" r="1" fill="rgb(0,0,0)" />
	<circle cx="784.562" cy="330.882" r="1" fill="rgb(0,0,0)" />
	<circle cx="785.4" cy="290.552" r="1" fill="rgb(0,0,0)" />
	<circle cx="785.759" cy="296.535" r="1" fill="rgb(0,0,0)" />
	<circle cx="786.955" cy="307.186" r="1" fill="rgb(0,0,0)" />
	<circle cx="789.708" cy="508" r="1" fill="rgb(0,0,0)" />
	<circle cx="789.828" cy="249.264" r="1" fill="rgb(0,0,0)" />
	<circle cx="789.828" cy="249.144" r="1" fill="rgb(0,0,0)" />
	<circle cx="790.785" cy="319.992" r="1" fill="rgb(0,0,0)" />
	<circle cx="791.024" cy="305.631" r="1" fill="rgb(0,0,0)" />
	<circle cx="791.383" cy="391.437" r="1" fill="rgb(0,0,0)" />
	<circle cx="791.383" cy="245.554" r="1" fill="rgb(0,0,0)" />
	<circle cx="792.7" cy="200.916" r="1" fill="rgb(0,0,0)" />
	<circle cx="793.418" cy="298.45" r="1" fill="rgb(0,0,0)" />
	<circle cx="793.897" cy="415.612" r="1" fill="rgb(0,0,0)" />
	<circle cx="794.375" cy="414.534" r="1" fill="rgb(0,0,0)" />
	<circle cx="794.615" cy="279.781" r="1" fill="rgb(0,0,0)" />
	<circle cx="794.854" cy="253.094" r="1" fill="rgb(0,0,0)" />
	<circle cx="795.572" cy="350.628" r="1" fill="rgb(0,0,0)" />
	<circle cx="796.529" cy="254.41" r="1" fill="rgb(0,0,0)" />
	<circle cx="797.128" cy="277.627" r="1" fill="rgb(0,0,0)" />
	<circle cx="798.564" cy="472.577" r="1" fill="rgb(0,0,0)" />
	<circle cx="798.803" cy="214.319" r="1" fill="rgb(0,0,0)" />
	<circle cx="799.282" cy="375.521" r="1" fill="rgb(0,0,0)" />
	<circle cx="800" cy="408.072" r="1" fill="rgb(0,0,0)" />
	<circle cx="800.957" cy="455.463" r="1" fill="rgb(0,0,0)" />
	<circle cx="801.436" cy="454.865" r="1" fill="rgb(0,0,0)" />
	<circle cx="802.034" cy="248.426" r="1" fill="rgb(0,0,0)" />
	<circle cx="802.753" cy="355.774" r="1" fill="rgb(0,0,0)" />
	<circle cx="803.59" cy="151.011" r="1" fill="rgb(0,0,0)" />
	<circle cx="805.026" cy="372.768" r="1" fill="rgb(0,0,0)" />
	<circle cx="806.582" cy="505.846" r="1" fill="rgb(0,0,0)" />
	<circle cx="806.702" cy="292.945" r="1" fill="rgb(0,0,0)" />
	<circle cx="807.42" cy="586.267" r="1" fill="rgb(0,0,0)" />
	<circle cx="807.539" cy="473.534" r="1" fill="rgb(0,0,0)" />
	<circle cx="807.659" cy="273.797" r="1" fill="rgb(0,0,0)" />
	<circle cx="809.335" cy="350.269" r="1" fill="rgb(0,0,0)" />
	<circle cx="810.531" cy="258.359" r="1" fill="rgb(0,0,0)" />
	<circle cx="811.01" cy="110.681" r="1" fill="rgb(0,0,0)" />
	<circle cx="811.01" cy="65.803" r="1" fill="rgb(0,0,0)" />
	<circle cx="811.13" cy="247.11" r="1" fill="rgb(0,0,0)" />
	<circle cx="812.805" cy="250.341" r="1" fill="rgb(0,0,0)" />
	<circle cx="813.882" cy="266.497" r="1" fill="rgb(0,0,0)" />
	<circle cx="814.6" cy="357.33" r="1" fill="rgb(0,0,0)" />
	<circle cx="814.6" cy="339.259" r="1" fill="rgb(0,0,0)" />
	<circle cx="815.797" cy="376.358" r="1" fill="rgb(0,0,0)" />
	<circle cx="815.917" cy="489.092" r="1" fill="rgb(0,0,0)" />
	<circle cx="816.036" cy="493.4" r="1" fill="rgb(0,0,0)" />
	<circle cx="816.515" cy="248.546" r="1" fill="rgb(0,0,0)" />
	<circle cx="818.191" cy="506.205" r="1" fill="rgb(0,0,0)" />
	<circle cx="818.669" cy="246.392" r="1" fill="rgb(0,0,0)" />
	<circle cx="818.789" cy="231.552" r="1" fill="rgb(0,0,0)" />
	<circle cx="821.182" cy="188.948" r="1" fill="rgb(0,0,0)" />
	<circle cx="822.14" cy="122.05" r="1" fill="rgb(0,0,0)" />
	<circle cx="822.858" cy="363.792" r="1" fill="rgb(0,0,0)" />
	<circle cx="823.337" cy="327.411" r="1" fill="rgb(0,0,0)" />
	<circle cx="824.174" cy="208.814" r="1" fill="rgb(0,0,0)" />
	<circle cx="824.294" cy="243.52" r="1" fill="rgb(0,0,0)" />
	<circle cx="826.687" cy="372.648" r="1" fill="rgb(0,0,0)" />
	<circle cx="828.004" cy="259.077" r="1" fill="rgb(0,0,0)" />
	<circle cx="828.602" cy="205.942" r="1" fill="rgb(0,0,0)" />
	<circle cx="828.722" cy="361.279" r="1" fill="rgb(0,0,0)" />
	<circle cx="829.32" cy="337.105" r="1" fill="rgb(0,0,0)" />
	<circle cx="831.115" cy="315.803" r="1" fill="rgb(0,0,0)" />
	<circle cx="832.073" cy="334.831" r="1" fill="rgb(0,0,0)" />
	<circle cx="832.432" cy="202.471" r="1" fill="rgb(0,0,0)" />
	<circle cx="834.466" cy="338.661" r="1" fill="rgb(0,0,0)" />
	<circle cx="834.706" cy="261.59" r="1" fill="rgb(0,0,0)" />
	<circle cx="834.825" cy="328.01" r="1" fill="rgb(0,0,0)" />
	<circle cx="836.74" cy="315.444" r="1" fill="rgb(0,0,0)" />
	<circle cx="837.338" cy="256.803" r="1" fill="rgb(0,0,0)" />
	<circle cx="839.493" cy="378.991" r="1" fill="rgb(0,0,0)" />
	<circle cx="844.16" cy="365.947" r="1" fill="rgb(0,0,0)" />
	<circle cx="845.117" cy="343.089" r="1" fill="rgb(0,0,0)" />
	<circle cx="849.306" cy="353.74" r="1" fill="rgb(0,0,0)" />
	<circle cx="850.622" cy="345.961" r="1" fill="rgb(0,0,0)" />
	<circle cx="853.734" cy="375.88" r="1" fill="rgb(0,0,0)" />
	<circle cx="858.281" cy="210.25" r="1" fill="rgb(0,0,0)" />
	<circle cx="859" cy="325.616" r="1" fill="rgb(0,0,0)" />
	<circle cx="860.675" cy="309.819" r="1" fill="rgb(0,0,0)" />
	<circle cx="860.795" cy="352.184" r="1" fill="rgb(0,0,0)" />
	<circle cx="861.154" cy="340.336" r="1" fill="rgb(0,0,0)" />
	<circle cx="861.513" cy="355.415" r="1" fill="rgb(0,0,0)" />
	<circle cx="862.231" cy="313.649" r="1" fill="rgb(0,0,0)" />
	<circle cx="862.35" cy="325.975" r="1" fill="rgb(0,0,0)" />
	<circle cx="862.949" cy="340.097" r="1" fill="rgb(0,0,0)" />
	<circle cx="863.068" cy="331.959" r="1" fill="rgb(0,0,0)" />
	<circle cx="868.095" cy="309.341" r="1" fill="rgb(0,0,0)" />
	<circle cx="869.292" cy="285.166" r="1" fill="rgb(0,0,0)" />
	<circle cx="869.411" cy="313.529" r="1" fill="rgb(0,0,0)" />
	<circle cx="870.01" cy="287.44" r="1" fill="rgb(0,0,0)" />
	<circle cx="870.608" cy="347.517" r="1" fill="rgb(0,0,0)" />
	<circle cx="871.326" cy="319.274" r="1" fill="rgb(0,0,0)" />
	<circle cx="871.446" cy="282.414" r="1" fill="rgb(0,0,0)" />
	<circle cx="873.48" cy="279.422" r="1" fill="rgb(0,0,0)" />
	<circle cx="873.6" cy="290.552" r="1" fill="rgb(0,0,0)" />
	<circle cx="875.275" cy="286.363" r="1" fill="rgb(0,0,0)" />
	<circle cx="875.754" cy="509.676" r="1" fill="rgb(0,0,0)" />
	<circle cx="879.584" cy="265.54" r="1" fill="rgb(0,0,0)" />
	<circle cx="879.703" cy="269.489" r="1" fill="rgb(0,0,0)" />
	<circle cx="882.097" cy="277.866" r="1" fill="rgb(0,0,0)" />
	<circle cx="886.764" cy="325.377" r="1" fill="rgb(0,0,0)" />
	<circle cx="887.482" cy="325.616" r="1" fill="rgb(0,0,0)" />
	<circle cx="889.517" cy="272.481" r="1" fill="rgb(0,0,0)" />
	<circle cx="891.192" cy="334.712" r="1" fill="rgb(0,0,0)" />
	<circle cx="891.431" cy="212.285" r="1" fill="rgb(0,0,0)" />
	<circle cx="892.628" cy="49.4076" r="1" fill="rgb(0,0,0)" />
	<circle cx="896.817" cy="261.231" r="1" fill="rgb(0,0,0)" />
	<circle cx="898.612" cy="273.558" r="1" fill="rgb(0,0,0)" />
	<circle cx="900.646" cy="242.682" r="1" fill="rgb(0,0,0)" />
	<circle cx="901.484" cy="283.371" r="1" fill="rgb(0,0,0)" />
	<circle cx="902.681" cy="287.44" r="1" fill="rgb(0,0,0)" />
	<circle cx="903.159" cy="257.402" r="1" fill="rgb(0,0,0)" />
	<circle cx="903.997" cy="306.947" r="1" fill="rgb(0,0,0)" />
	<circle cx="904.117" cy="273.678" r="1" fill="rgb(0,0,0)" />
	<circle cx="904.596" cy="242.802" r="1" fill="rgb(0,0,0)" />
	<circle cx="905.433" cy="255.128" r="1" fill="rgb(0,0,0)" />
	<circle cx="905.673" cy="243.28" r="1" fill="rgb(0,0,0)" />
	<circle cx="910.938" cy="291.389" r="1" fill="rgb(0,0,0)" />
	<circle cx="911.297" cy="297.732" r="1" fill="rgb(0,0,0)" />
	<circle cx="911.776" cy="236.459" r="1" fill="rgb(0,0,0)" />
	<circle cx="911.896" cy="256.205" r="1" fill="rgb(0,0,0)" />
	<circle cx="917.879" cy="251.538" r="1" fill="rgb(0,0,0)" />
	<circle cx="921.709" cy="255.966" r="1" fill="rgb(0,0,0)" />
	<circle cx="925.419" cy="244.477" r="1" fill="rgb(0,0,0)" />
	<circle cx="925.658" cy="272.361" r="1" fill="rgb(0,0,0)" />
	<circle cx="926.616" cy="261.71" r="1" fill="rgb(0,0,0)" />
	<circle cx="930.924" cy="246.511" r="1" fill="rgb(0,0,0)" />
	<circle cx="933.557" cy="255.128" r="1" fill="rgb(0,0,0)" />
	<circle cx="933.796" cy="220.542" r="1" fill="rgb(0,0,0)" />
	<circle cx="934.035" cy="155.32" r="1" fill="rgb(0,0,0)" />
	<circle cx="935.472" cy="168.843" r="1" fill="rgb(0,0,0)" />
	<circle cx="941.336" cy="173.151" r="1" fill="rgb(0,0,0)" />
	<circle cx="942.054" cy="162.62" r="1" fill="rgb(0,0,0)" />
	<circle cx="943.729" cy="162.021" r="1" fill="rgb(0,0,0)" />
	<circle cx="945.045" cy="241.485" r="1" fill="rgb(0,0,0)" />
	<circle cx="947.08" cy="242.562" r="1" fill="rgb(0,0,0)" />
	<circle cx="952.585" cy="170.877" r="1" fill="rgb(0,0,0)" />
	<circle cx="955.697" cy="240.647" r="1" fill="rgb(0,0,0)" />
	<circle cx="958.449" cy="233.946" r="1" fill="rgb(0,0,0)" />
	<circle cx="958.688" cy="152.926" r="1" fill="rgb(0,0,0)" />
	<circle cx="960.723" cy="150.892" r="1" fill="rgb(0,0,0)" />
	<circle cx="962.997" cy="115.109" r="1" fill="rgb(0,0,0)" />
	<circle cx="966.467" cy="159.029" r="1" fill="rgb(0,0,0)" />
	<circle cx="966.946" cy="173.271" r="1" fill="rgb(0,0,0)" />
	<circle cx="973.528" cy="231.672" r="1" fill="rgb(0,0,0)" />
	<circle cx="978.195" cy="114.63" r="1" fill="rgb(0,0,0)" />
	<circle cx="980.948" cy="237.895" r="1" fill="rgb(0,0,0)" />
	<circle cx="986.213" cy="225.688" r="1" fill="rgb(0,0,0)" />
	<circle cx="989.086" cy="231.792" r="1" fill="rgb(0,0,0)" />
	<circle cx="1027.5" cy="178.177" r="1" fill="rgb(0,0,0)" />
	<circle cx="1050" cy="116.904" r="1" fill="rgb(0,0,0)" />
</svg>
