<?xml version="1.0" standalone="no" ?>
<!DOCTYPE svg PUBLIC "-//W3C//DTD SVG 1.1//EN" "http://www.w3.org/Graphics/SVG/1.1/DTD/svg11.dtd">
<svg width="1100px" height="605.315px" xmlns="http://www.w3.org/2000/svg" version="1.1" >
	<circle cx="50" cy="261.962" r="1" fill="rgb(0,0,0)" />
	<circle cx="58.1257" cy="78.7998" r="1" fill="rgb(0,0,0)" />
	<circle cx="59.1914" cy="245.178" r="1" fill="rgb(0,0,0)" />
	<circle cx="116.605" cy="300.859" r="1" fill="rgb(0,0,0)" />
	<circle cx="116.605" cy="297.396" r="1" fill="rgb(0,0,0)" />
	<circle cx="150.173" cy="347.482" r="1" fill="rgb(0,0,0)" />
	<circle cx="260.603" cy="354.676" r="1" fill="rgb(0,0,0)" />
	<circle cx="288.977" cy="27.5143" r="1" fill="rgb(0,0,0)" />
	<circle cx="311.889" cy="217.737" r="1" fill="rgb(0,0,0)" />
	<circle cx="322.412" cy="483.489" r="1" fill="rgb(0,0,0)" />
	<circle cx="394.478" cy="577.801" r="1" fill="rgb(0,0,0)" />
	<circle cx="500.779" cy="29.9121" r="1" fill="rgb(0,0,0)" />
	<circle cx="525.423" cy="441.928" r="1" fill="rgb(0,0,0)" />
	<circle cx="550.333" cy="39.9028" r="1" fill="rgb(0,0,0)" />
	<circle cx="577.374" cy="175.243" r="1" fill="rgb(0,0,0)" />
	<circle cx="590.429" cy="225.596" r="1" fill="rgb(0,0,0)" />
	<circle cx="591.495" cy="448.455" r="1" fill="rgb(0,0,0)" />
	<circle cx="607.346" cy="153.796" r="1" fill="rgb(0,0,0)" />
	<circle cx="608.945" cy="430.871" r="1" fill="rgb(0,0,0)" />
	<circle cx="640.782" cy="428.207" r="1" fill="rgb(0,0,0)" />
	<circle cx="684.208" cy="418.35" r="1" fill="rgb(0,0,0)" />
	<circle cx="693.932" cy="257.833" r="1" fill="rgb(0,0,0)" />
	<circle cx="695.264" cy="356.541" r="1" fill="rgb(0,0,0)" />
	<circle cx="695.531" cy="375.856" r="1" fill="rgb(0,0,0)" />
	<circle cx="697.396" cy="191.361" r="1" fill="rgb(0,0,0)" />
	<circle cx="724.038" cy="313.114" r="1" fill="rgb(0,0,0)" />
	<circle cx="730.032" cy="286.206" r="1" fill="rgb(0,0,0)" />
	<circle cx="735.227" cy="162.455" r="1" fill="rgb(0,0,0)" />
	<circle cx="735.627" cy="181.371" r="1" fill="rgb(0,0,0)" />
	<circle cx="740.422" cy="170.714" r="1" fill="rgb(0,0,0)" />
	<circle cx="740.422" cy="170.448" r="1" fill="rgb(0,0,0)" />
	<circle cx="766.931" cy="328.966" r="1" fill="rgb(0,0,0)" />
	<circle cx="782.383" cy="310.983" r="1" fill="rgb(0,0,0)" />
	<circle cx="783.316" cy="287.139" r="1" fill="rgb(0,0,0)" />
	<circle cx="795.704" cy="284.474" r="1" fill="rgb(0,0,0)" />
	<circle cx="804.895" cy="342.82" r="1" fill="rgb(0,0,0)" />
	<circle cx="826.608" cy="176.442" r="1" fill="rgb(0,0,0)" />
	<circle cx="830.338" cy="179.506" r="1" fill="rgb(0,0,0)" />
	<circle cx="836.066" cy="408.758" r="1" fill="rgb(0,0,0)" />
	<circle cx="836.599" cy="184.834" r="1" fill="rgb(0,0,0)" />
	<circle cx="862.442" cy="274.75" r="1" fill="rgb(0,0,0)" />
	<circle cx="885.354" cy="325.503" r="1" fill="rgb(0,0,0)" />
	<circle cx="991.788" cy="229.992" r="1" fill="rgb(0,0,0)" />
	<circle cx="1007.24" cy="242.913" r="1" fill="rgb(0,0,0)" />
	<circle cx="1019.23" cy="218.003" r="1" fill="rgb(0,0,0)" />
	<circle cx="1034.01" cy="110.77" r="1" fill="rgb(0,0,0)" />
	<circle cx="1045.74" cy="118.496" r="1" fill="rgb(0,0,0)" />
	<circle cx="1046.27" cy="192.161" r="1" fill="rgb(0,0,0)" />
	<circle cx="1048.53" cy="207.746" r="1" fill="rgb(0,0,0)" />
	<circle cx="1050" cy="187.365" r="1" fill="rgb(0,0,0)" />
</svg>
