<?xml version="1.0" standalone="no" ?>
<!DOCTYPE svg PUBLIC "-//W3C//DTD SVG 1.1//EN" "http://www.w3.org/Graphics/SVG/1.1/DTD/svg11.dtd">
<svg width="1100px" height="648.07px" xmlns="http://www.w3.org/2000/svg" version="1.1" >
	<circle cx="50" cy="107.563" r="1" fill="rgb(0,0,0)" />
	<circle cx="58.636" cy="173.476" r="1" fill="rgb(0,0,0)" />
	<circle cx="61.938" cy="311.779" r="1" fill="rgb(0,0,0)" />
	<circle cx="64.097" cy="318.764" r="1" fill="rgb(0,0,0)" />
	<circle cx="67.907" cy="127.502" r="1" fill="rgb(0,0,0)" />
	<circle cx="68.288" cy="128.645" r="1" fill="rgb(0,0,0)" />
	<circle cx="74.13" cy="236.341" r="1" fill="rgb(0,0,0)" />
	<circle cx="88.2271" cy="305.175" r="1" fill="rgb(0,0,0)" />
	<circle cx="100.673" cy="376.295" r="1" fill="rgb(0,0,0)" />
	<circle cx="111.468" cy="287.903" r="1" fill="rgb(0,0,0)" />
	<circle cx="112.484" cy="345.307" r="1" fill="rgb(0,0,0)" />
	<circle cx="112.738" cy="338.068" r="1" fill="rgb(0,0,0)" />
	<circle cx="124.422" cy="359.277" r="1" fill="rgb(0,0,0)" />
	<circle cx="138.138" cy="395.345" r="1" fill="rgb(0,0,0)" />
	<circle cx="147.028" cy="396.869" r="1" fill="rgb(0,0,0)" />
	<circle cx="164.554" cy="420.999" r="1" fill="rgb(0,0,0)" />
	<circle cx="172.936" cy="275.838" r="1" fill="rgb(0,0,0)" />
	<circle cx="182.969" cy="369.31" r="1" fill="rgb(0,0,0)" />
	<circle cx="195.669" cy="29.4577" r="1" fill="rgb(0,0,0)" />
	<circle cx="196.05" cy="353.689" r="1" fill="rgb(0,0,0)" />
	<circle cx="200.114" cy="356.356" r="1" fill="rgb(0,0,0)" />
	<circle cx="220.434" cy="132.963" r="1" fill="rgb(0,0,0)" />
	<circle cx="225.514" cy="71.2408" r="1" fill="rgb(0,0,0)" />
	<circle cx="228.181" cy="417.443" r="1" fill="rgb(0,0,0)" />
	<circle cx="234.023" cy="69.2088" r="1" fill="rgb(0,0,0)" />
	<circle cx="261.709" cy="259.709" r="1" fill="rgb(0,0,0)" />
	<circle cx="262.725" cy="265.424" r="1" fill="rgb(0,0,0)" />
	<circle cx="263.106" cy="307.207" r="1" fill="rgb(0,0,0)" />
	<circle cx="268.821" cy="408.299" r="1" fill="rgb(0,0,0)" />
	<circle cx="301.842" cy="273.044" r="1" fill="rgb(0,0,0)" />
	<circle cx="340.069" cy="479.42" r="1" fill="rgb(0,0,0)" />
	<circle cx="341.593" cy="427.096" r="1" fill="rgb(0,0,0)" />
	<circle cx="359.754" cy="471.165" r="1" fill="rgb(0,0,0)" />
	<circle cx="364.961" cy="436.494" r="1" fill="rgb(0,0,0)" />
	<circle cx="382.741" cy="347.72" r="1" fill="rgb(0,0,0)" />
	<circle cx="429.858" cy="118.993" r="1" fill="rgb(0,0,0)" />
	<circle cx="430.874" cy="423.158" r="1" fill="rgb(0,0,0)" />
	<circle cx="431.128" cy="587.624" r="1" fill="rgb(0,0,0)" />
	<circle cx="437.859" cy="51.4288" r="1" fill="rgb(0,0,0)" />
	<circle cx="438.621" cy="131.058" r="1" fill="rgb(0,0,0)" />
	<circle cx="443.574" cy="380.994" r="1" fill="rgb(0,0,0)" />
	<circle cx="444.463" cy="120.263" r="1" fill="rgb(0,0,0)" />
	<circle cx="447.13" cy="107.055" r="1" fill="rgb(0,0,0)" />
	<circle cx="457.29" cy="98.9268" r="1" fill="rgb(0,0,0)" />
	<circle cx="473.165" cy="618.612" r="1" fill="rgb(0,0,0)" />
	<circle cx="474.943" cy="258.82" r="1" fill="rgb(0,0,0)" />
	<circle cx="481.547" cy="365.373" r="1" fill="rgb(0,0,0)" />
	<circle cx="491.199" cy="334.131" r="1" fill="rgb(0,0,0)" />
	<circle cx="500.851" cy="518.409" r="1" fill="rgb(0,0,0)" />
	<circle cx="504.407" cy="450.845" r="1" fill="rgb(0,0,0)" />
	<circle cx="517.361" cy="499.105" r="1" fill="rgb(0,0,0)" />
	<circle cx="518.504" cy="378.581" r="1" fill="rgb(0,0,0)" />
	<circle cx="518.758" cy="380.613" r="1" fill="rgb(0,0,0)" />
	<circle cx="521.171" cy="362.071" r="1" fill="rgb(0,0,0)" />
	<circle cx="523.838" cy="396.996" r="1" fill="rgb(0,0,0)" />
	<circle cx="531.458" cy="417.951" r="1" fill="rgb(0,0,0)" />
	<circle cx="539.713" cy="410.712" r="1" fill="rgb(0,0,0)" />
	<circle cx="547.714" cy="366.516" r="1" fill="rgb(0,0,0)" />
	<circle cx="553.81" cy="425.445" r="1" fill="rgb(0,0,0)" />
	<circle cx="566.129" cy="350.387" r="1" fill="rgb(0,0,0)" />
	<circle cx="568.161" cy="309.239" r="1" fill="rgb(0,0,0)" />
	<circle cx="568.288" cy="473.705" r="1" fill="rgb(0,0,0)" />
	<circle cx="576.162" cy="461.894" r="1" fill="rgb(0,0,0)" />
	<circle cx="581.369" cy="464.18" r="1" fill="rgb(0,0,0)" />
	<circle cx="583.528" cy="486.024" r="1" fill="rgb(0,0,0)" />
	<circle cx="584.671" cy="411.855" r="1" fill="rgb(0,0,0)" />
	<circle cx="584.925" cy="356.864" r="1" fill="rgb(0,0,0)" />
	<circle cx="588.735" cy="284.982" r="1" fill="rgb(0,0,0)" />
	<circle cx="590.894" cy="293.745" r="1" fill="rgb(0,0,0)" />
	<circle cx="593.688" cy="148.965" r="1" fill="rgb(0,0,0)" />
	<circle cx="594.958" cy="367.151" r="1" fill="rgb(0,0,0)" />
	<circle cx="598.514" cy="172.714" r="1" fill="rgb(0,0,0)" />
	<circle cx="600.8" cy="350.514" r="1" fill="rgb(0,0,0)" />
	<circle cx="605.499" cy="465.958" r="1" fill="rgb(0,0,0)" />
	<circle cx="614.008" cy="183.128" r="1" fill="rgb(0,0,0)" />
	<circle cx="619.088" cy="76.3208" r="1" fill="rgb(0,0,0)" />
	<circle cx="623.914" cy="209.036" r="1" fill="rgb(0,0,0)" />
	<circle cx="627.47" cy="298.952" r="1" fill="rgb(0,0,0)" />
	<circle cx="627.978" cy="316.732" r="1" fill="rgb(0,0,0)" />
	<circle cx="636.741" cy="150.997" r="1" fill="rgb(0,0,0)" />
	<circle cx="637.122" cy="194.685" r="1" fill="rgb(0,0,0)" />
	<circle cx="638.392" cy="176.27" r="1" fill="rgb(0,0,0)" />
	<circle cx="638.392" cy="151.124" r="1" fill="rgb(0,0,0)" />
	<circle cx="649.441" cy="246.12" r="1" fill="rgb(0,0,0)" />
	<circle cx="658.458" cy="312.287" r="1" fill="rgb(0,0,0)" />
	<circle cx="666.332" cy="474.848" r="1" fill="rgb(0,0,0)" />
	<circle cx="668.364" cy="358.896" r="1" fill="rgb(0,0,0)" />
	<circle cx="674.46" cy="427.858" r="1" fill="rgb(0,0,0)" />
	<circle cx="674.841" cy="284.347" r="1" fill="rgb(0,0,0)" />
	<circle cx="679.159" cy="380.232" r="1" fill="rgb(0,0,0)" />
	<circle cx="680.556" cy="339.973" r="1" fill="rgb(0,0,0)" />
	<circle cx="681.953" cy="164.967" r="1" fill="rgb(0,0,0)" />
	<circle cx="685.382" cy="374.771" r="1" fill="rgb(0,0,0)" />
	<circle cx="686.017" cy="263.773" r="1" fill="rgb(0,0,0)" />
	<circle cx="693.129" cy="226.181" r="1" fill="rgb(0,0,0)" />
	<circle cx="696.812" cy="420.872" r="1" fill="rgb(0,0,0)" />
	<circle cx="697.447" cy="306.953" r="1" fill="rgb(0,0,0)" />
	<circle cx="704.178" cy="423.031" r="1" fill="rgb(0,0,0)" />
	<circle cx="708.115" cy="220.212" r="1" fill="rgb(0,0,0)" />
	<circle cx="708.496" cy="178.048" r="1" fill="rgb(0,0,0)" />
	<circle cx="710.274" cy="242.183" r="1" fill="rgb(0,0,0)" />
	<circle cx="710.782" cy="217.926" r="1" fill="rgb(0,0,0)" />
	<circle cx="713.957" cy="303.524" r="1" fill="rgb(0,0,0)" />
	<circle cx="717.005" cy="238.373" r="1" fill="rgb(0,0,0)" />
	<circle cx="720.815" cy="457.83" r="1" fill="rgb(0,0,0)" />
	<circle cx="720.942" cy="399.536" r="1" fill="rgb(0,0,0)" />
	<circle cx="722.339" cy="244.215" r="1" fill="rgb(0,0,0)" />
	<circle cx="730.848" cy="247.263" r="1" fill="rgb(0,0,0)" />
	<circle cx="731.864" cy="252.216" r="1" fill="rgb(0,0,0)" />
	<circle cx="735.166" cy="298.317" r="1" fill="rgb(0,0,0)" />
	<circle cx="736.055" cy="361.944" r="1" fill="rgb(0,0,0)" />
	<circle cx="739.611" cy="404.235" r="1" fill="rgb(0,0,0)" />
	<circle cx="744.183" cy="284.982" r="1" fill="rgb(0,0,0)" />
	<circle cx="744.691" cy="434.208" r="1" fill="rgb(0,0,0)" />
	<circle cx="746.469" cy="280.283" r="1" fill="rgb(0,0,0)" />
	<circle cx="748.12" cy="353.435" r="1" fill="rgb(0,0,0)" />
	<circle cx="751.168" cy="421.38" r="1" fill="rgb(0,0,0)" />
	<circle cx="752.946" cy="248.152" r="1" fill="rgb(0,0,0)" />
	<circle cx="755.867" cy="283.204" r="1" fill="rgb(0,0,0)" />
	<circle cx="756.502" cy="280.029" r="1" fill="rgb(0,0,0)" />
	<circle cx="769.583" cy="347.847" r="1" fill="rgb(0,0,0)" />
	<circle cx="777.711" cy="218.815" r="1" fill="rgb(0,0,0)" />
	<circle cx="778.092" cy="397.504" r="1" fill="rgb(0,0,0)" />
	<circle cx="782.918" cy="293.618" r="1" fill="rgb(0,0,0)" />
	<circle cx="785.712" cy="169.92" r="1" fill="rgb(0,0,0)" />
	<circle cx="787.363" cy="316.351" r="1" fill="rgb(0,0,0)" />
	<circle cx="787.617" cy="396.742" r="1" fill="rgb(0,0,0)" />
	<circle cx="789.268" cy="401.314" r="1" fill="rgb(0,0,0)" />
	<circle cx="790.411" cy="209.163" r="1" fill="rgb(0,0,0)" />
	<circle cx="795.11" cy="337.433" r="1" fill="rgb(0,0,0)" />
	<circle cx="797.269" cy="216.148" r="1" fill="rgb(0,0,0)" />
	<circle cx="797.65" cy="394.329" r="1" fill="rgb(0,0,0)" />
	<circle cx="798.92" cy="232.531" r="1" fill="rgb(0,0,0)" />
	<circle cx="799.047" cy="447.543" r="1" fill="rgb(0,0,0)" />
	<circle cx="800.699" cy="243.834" r="1" fill="rgb(0,0,0)" />
	<circle cx="802.35" cy="242.564" r="1" fill="rgb(0,0,0)" />
	<circle cx="803.62" cy="441.828" r="1" fill="rgb(0,0,0)" />
	<circle cx="804.636" cy="446.527" r="1" fill="rgb(0,0,0)" />
	<circle cx="805.906" cy="333.369" r="1" fill="rgb(0,0,0)" />
	<circle cx="806.668" cy="236.341" r="1" fill="rgb(0,0,0)" />
	<circle cx="807.303" cy="393.567" r="1" fill="rgb(0,0,0)" />
	<circle cx="807.43" cy="222.879" r="1" fill="rgb(0,0,0)" />
	<circle cx="808.954" cy="410.331" r="1" fill="rgb(0,0,0)" />
	<circle cx="810.097" cy="234.055" r="1" fill="rgb(0,0,0)" />
	<circle cx="813.653" cy="227.959" r="1" fill="rgb(0,0,0)" />
	<circle cx="818.352" cy="251.327" r="1" fill="rgb(0,0,0)" />
	<circle cx="820.638" cy="306.699" r="1" fill="rgb(0,0,0)" />
	<circle cx="820.765" cy="364.103" r="1" fill="rgb(0,0,0)" />
	<circle cx="822.924" cy="344.799" r="1" fill="rgb(0,0,0)" />
	<circle cx="823.432" cy="276.727" r="1" fill="rgb(0,0,0)" />
	<circle cx="823.813" cy="606.166" r="1" fill="rgb(0,0,0)" />
	<circle cx="833.211" cy="281.426" r="1" fill="rgb(0,0,0)" />
	<circle cx="834.227" cy="446.273" r="1" fill="rgb(0,0,0)" />
	<circle cx="835.116" cy="467.482" r="1" fill="rgb(0,0,0)" />
	<circle cx="838.164" cy="249.803" r="1" fill="rgb(0,0,0)" />
	<circle cx="838.799" cy="460.37" r="1" fill="rgb(0,0,0)" />
	<circle cx="841.593" cy="317.875" r="1" fill="rgb(0,0,0)" />
	<circle cx="843.117" cy="264.662" r="1" fill="rgb(0,0,0)" />
	<circle cx="843.752" cy="499.867" r="1" fill="rgb(0,0,0)" />
	<circle cx="844.895" cy="472.816" r="1" fill="rgb(0,0,0)" />
	<circle cx="850.991" cy="392.805" r="1" fill="rgb(0,0,0)" />
	<circle cx="855.944" cy="368.421" r="1" fill="rgb(0,0,0)" />
	<circle cx="857.976" cy="372.104" r="1" fill="rgb(0,0,0)" />
	<circle cx="858.992" cy="364.611" r="1" fill="rgb(0,0,0)" />
	<circle cx="859.119" cy="345.053" r="1" fill="rgb(0,0,0)" />
	<circle cx="861.278" cy="563.621" r="1" fill="rgb(0,0,0)" />
	<circle cx="862.929" cy="515.742" r="1" fill="rgb(0,0,0)" />
	<circle cx="863.437" cy="410.839" r="1" fill="rgb(0,0,0)" />
	<circle cx="863.564" cy="218.688" r="1" fill="rgb(0,0,0)" />
	<circle cx="864.326" cy="541.396" r="1" fill="rgb(0,0,0)" />
	<circle cx="864.58" cy="548.762" r="1" fill="rgb(0,0,0)" />
	<circle cx="876.518" cy="213.862" r="1" fill="rgb(0,0,0)" />
	<circle cx="876.645" cy="391.535" r="1" fill="rgb(0,0,0)" />
	<circle cx="891.631" cy="370.961" r="1" fill="rgb(0,0,0)" />
	<circle cx="896.838" cy="221.228" r="1" fill="rgb(0,0,0)" />
	<circle cx="920.333" cy="329.813" r="1" fill="rgb(0,0,0)" />
	<circle cx="925.54" cy="279.013" r="1" fill="rgb(0,0,0)" />
	<circle cx="928.207" cy="274.822" r="1" fill="rgb(0,0,0)" />
	<circle cx="928.461" cy="307.207" r="1" fill="rgb(0,0,0)" />
	<circle cx="928.842" cy="222.752" r="1" fill="rgb(0,0,0)" />
	<circle cx="929.604" cy="375.787" r="1" fill="rgb(0,0,0)" />
	<circle cx="941.542" cy="279.902" r="1" fill="rgb(0,0,0)" />
	<circle cx="945.225" cy="198.241" r="1" fill="rgb(0,0,0)" />
	<circle cx="960.084" cy="271.647" r="1" fill="rgb(0,0,0)" />
	<circle cx="963.513" cy="289.808" r="1" fill="rgb(0,0,0)" />
	<circle cx="980.404" cy="285.236" r="1" fill="rgb(0,0,0)" />
	<circle cx="983.96" cy="265.424" r="1" fill="rgb(0,0,0)" />
	<circle cx="989.675" cy="234.055" r="1" fill="rgb(0,0,0)" />
	<circle cx="989.675" cy="163.951" r="1" fill="rgb(0,0,0)" />
	<circle cx="990.31" cy="245.104" r="1" fill="rgb(0,0,0)" />
	<circle cx="1008.34" cy="249.93" r="1" fill="rgb(0,0,0)" />
	<circle cx="1023.2" cy="250.946" r="1" fill="rgb(0,0,0)" />
	<circle cx="1025.49" cy="237.103" r="1" fill="rgb(0,0,0)" />
	<circle cx="1030.19" cy="239.643" r="1" fill="rgb(0,0,0)" />
	<circle cx="1033.62" cy="232.658" r="1" fill="rgb(0,0,0)" />
	<circle cx="1034.38" cy="236.087" r="1" fill="rgb(0,0,0)" />
	<circle cx="1039.08" cy="243.199" r="1" fill="rgb(0,0,0)" />
	<circle cx="1044.03" cy="230.626" r="1" fill="rgb(0,0,0)" />
	<circle cx="1049.36" cy="251.454" r="1" fill="rgb(0,0,0)" />
	<circle cx="1050" cy="248.66" r="1" fill="rgb(0,0,0)" />
</svg>
