<?xml version="1.0" standalone="no" ?>
<!DOCTYPE svg PUBLIC "-//W3C//DTD SVG 1.1//EN" "http://www.w3.org/Graphics/SVG/1.1/DTD/svg11.dtd">
<svg width="1100px" height="616.575px" xmlns="http://www.w3.org/2000/svg" version="1.1" >
	<circle cx="50" cy="191.617" r="1" fill="rgb(0,0,0)" />
	<circle cx="52.9962" cy="146.435" r="1" fill="rgb(0,0,0)" />
	<circle cx="53.4756" cy="228.769" r="1" fill="rgb(0,0,0)" />
	<circle cx="55.1534" cy="180.471" r="1" fill="rgb(0,0,0)" />
	<circle cx="58.0297" cy="130.016" r="1" fill="rgb(0,0,0)" />
	<circle cx="58.629" cy="134.21" r="1" fill="rgb(0,0,0)" />
	<circle cx="59.4679" cy="306.07" r="1" fill="rgb(0,0,0)" />
	<circle cx="59.7076" cy="140.442" r="1" fill="rgb(0,0,0)" />
	<circle cx="60.3068" cy="112.039" r="1" fill="rgb(0,0,0)" />
	<circle cx="60.5465" cy="36.6551" r="1" fill="rgb(0,0,0)" />
	<circle cx="61.1457" cy="108.563" r="1" fill="rgb(0,0,0)" />
	<circle cx="63.6625" cy="309.666" r="1" fill="rgb(0,0,0)" />
	<circle cx="63.7824" cy="139.963" r="1" fill="rgb(0,0,0)" />
	<circle cx="64.2617" cy="308.227" r="1" fill="rgb(0,0,0)" />
	<circle cx="69.0556" cy="320.092" r="1" fill="rgb(0,0,0)" />
	<circle cx="74.209" cy="326.085" r="1" fill="rgb(0,0,0)" />
	<circle cx="77.6846" cy="294.445" r="1" fill="rgb(0,0,0)" />
	<circle cx="81.1601" cy="298.879" r="1" fill="rgb(0,0,0)" />
	<circle cx="83.0777" cy="290.97" r="1" fill="rgb(0,0,0)" />
	<circle cx="91.2272" cy="316.856" r="1" fill="rgb(0,0,0)" />
	<circle cx="91.2272" cy="314.459" r="1" fill="rgb(0,0,0)" />
	<circle cx="91.9463" cy="345.859" r="1" fill="rgb(0,0,0)" />
	<circle cx="94.8226" cy="144.877" r="1" fill="rgb(0,0,0)" />
	<circle cx="113.279" cy="101.013" r="1" fill="rgb(0,0,0)" />
	<circle cx="116.275" cy="164.172" r="1" fill="rgb(0,0,0)" />
	<circle cx="117.234" cy="372.705" r="1" fill="rgb(0,0,0)" />
	<circle cx="119.511" cy="352.93" r="1" fill="rgb(0,0,0)" />
	<circle cx="120.35" cy="159.258" r="1" fill="rgb(0,0,0)" />
	<circle cx="124.305" cy="152.547" r="1" fill="rgb(0,0,0)" />
	<circle cx="124.425" cy="353.17" r="1" fill="rgb(0,0,0)" />
	<circle cx="124.904" cy="354.848" r="1" fill="rgb(0,0,0)" />
	<circle cx="126.342" cy="313.261" r="1" fill="rgb(0,0,0)" />
	<circle cx="132.335" cy="374.862" r="1" fill="rgb(0,0,0)" />
	<circle cx="135.451" cy="380.495" r="1" fill="rgb(0,0,0)" />
	<circle cx="138.447" cy="380.974" r="1" fill="rgb(0,0,0)" />
	<circle cx="140.125" cy="379.656" r="1" fill="rgb(0,0,0)" />
	<circle cx="141.083" cy="375.342" r="1" fill="rgb(0,0,0)" />
	<circle cx="141.683" cy="378.937" r="1" fill="rgb(0,0,0)" />
	<circle cx="143.6" cy="385.289" r="1" fill="rgb(0,0,0)" />
	<circle cx="144.919" cy="384.33" r="1" fill="rgb(0,0,0)" />
	<circle cx="153.068" cy="392.719" r="1" fill="rgb(0,0,0)" />
	<circle cx="153.787" cy="36.2955" r="1" fill="rgb(0,0,0)" />
	<circle cx="154.267" cy="376.18" r="1" fill="rgb(0,0,0)" />
	<circle cx="158.581" cy="403.745" r="1" fill="rgb(0,0,0)" />
	<circle cx="160.618" cy="155.663" r="1" fill="rgb(0,0,0)" />
	<circle cx="161.697" cy="34.4978" r="1" fill="rgb(0,0,0)" />
	<circle cx="165.412" cy="205.998" r="1" fill="rgb(0,0,0)" />
	<circle cx="168.289" cy="420.404" r="1" fill="rgb(0,0,0)" />
	<circle cx="172.483" cy="140.922" r="1" fill="rgb(0,0,0)" />
	<circle cx="184.108" cy="393.678" r="1" fill="rgb(0,0,0)" />
	<circle cx="184.348" cy="396.075" r="1" fill="rgb(0,0,0)" />
	<circle cx="185.786" cy="399.79" r="1" fill="rgb(0,0,0)" />
	<circle cx="186.385" cy="401.708" r="1" fill="rgb(0,0,0)" />
	<circle cx="190.221" cy="342.264" r="1" fill="rgb(0,0,0)" />
	<circle cx="193.816" cy="343.462" r="1" fill="rgb(0,0,0)" />
	<circle cx="198.849" cy="342.863" r="1" fill="rgb(0,0,0)" />
	<circle cx="204.842" cy="223.256" r="1" fill="rgb(0,0,0)" />
	<circle cx="212.392" cy="74.1671" r="1" fill="rgb(0,0,0)" />
	<circle cx="212.512" cy="28.0261" r="1" fill="rgb(0,0,0)" />
	<circle cx="212.872" cy="225.294" r="1" fill="rgb(0,0,0)" />
	<circle cx="214.31" cy="76.0846" r="1" fill="rgb(0,0,0)" />
	<circle cx="215.268" cy="73.2083" r="1" fill="rgb(0,0,0)" />
	<circle cx="216.107" cy="32.9398" r="1" fill="rgb(0,0,0)" />
	<circle cx="223.058" cy="72.8488" r="1" fill="rgb(0,0,0)" />
	<circle cx="230.369" cy="32.4605" r="1" fill="rgb(0,0,0)" />
	<circle cx="230.489" cy="312.662" r="1" fill="rgb(0,0,0)" />
	<circle cx="231.448" cy="28.3857" r="1" fill="rgb(0,0,0)" />
	<circle cx="233.365" cy="78.9609" r="1" fill="rgb(0,0,0)" />
	<circle cx="242.833" cy="115.394" r="1" fill="rgb(0,0,0)" />
	<circle cx="249.425" cy="247.465" r="1" fill="rgb(0,0,0)" />
	<circle cx="251.702" cy="261.248" r="1" fill="rgb(0,0,0)" />
	<circle cx="252.061" cy="289.771" r="1" fill="rgb(0,0,0)" />
	<circle cx="253.02" cy="387.206" r="1" fill="rgb(0,0,0)" />
	<circle cx="253.5" cy="270.955" r="1" fill="rgb(0,0,0)" />
	<circle cx="253.5" cy="263.764" r="1" fill="rgb(0,0,0)" />
	<circle cx="254.099" cy="40.7299" r="1" fill="rgb(0,0,0)" />
	<circle cx="257.095" cy="393.199" r="1" fill="rgb(0,0,0)" />
	<circle cx="261.529" cy="391.88" r="1" fill="rgb(0,0,0)" />
	<circle cx="266.203" cy="78.7212" r="1" fill="rgb(0,0,0)" />
	<circle cx="266.922" cy="467.024" r="1" fill="rgb(0,0,0)" />
	<circle cx="272.315" cy="410.457" r="1" fill="rgb(0,0,0)" />
	<circle cx="285.139" cy="374.023" r="1" fill="rgb(0,0,0)" />
	<circle cx="286.697" cy="494.589" r="1" fill="rgb(0,0,0)" />
	<circle cx="299.64" cy="319.972" r="1" fill="rgb(0,0,0)" />
	<circle cx="307.67" cy="350.893" r="1" fill="rgb(0,0,0)" />
	<circle cx="313.423" cy="287.134" r="1" fill="rgb(0,0,0)" />
	<circle cx="316.179" cy="329.8" r="1" fill="rgb(0,0,0)" />
	<circle cx="318.576" cy="328.482" r="1" fill="rgb(0,0,0)" />
	<circle cx="323.969" cy="284.378" r="1" fill="rgb(0,0,0)" />
	<circle cx="333.437" cy="478.05" r="1" fill="rgb(0,0,0)" />
	<circle cx="344.223" cy="365.754" r="1" fill="rgb(0,0,0)" />
	<circle cx="346.141" cy="413.812" r="1" fill="rgb(0,0,0)" />
	<circle cx="346.381" cy="416.089" r="1" fill="rgb(0,0,0)" />
	<circle cx="353.452" cy="572.849" r="1" fill="rgb(0,0,0)" />
	<circle cx="358.006" cy="397.753" r="1" fill="rgb(0,0,0)" />
	<circle cx="360.283" cy="155.303" r="1" fill="rgb(0,0,0)" />
	<circle cx="367.114" cy="275.15" r="1" fill="rgb(0,0,0)" />
	<circle cx="368.193" cy="494.589" r="1" fill="rgb(0,0,0)" />
	<circle cx="369.511" cy="204.081" r="1" fill="rgb(0,0,0)" />
	<circle cx="376.582" cy="273.831" r="1" fill="rgb(0,0,0)" />
	<circle cx="376.822" cy="250.941" r="1" fill="rgb(0,0,0)" />
	<circle cx="377.78" cy="270.835" r="1" fill="rgb(0,0,0)" />
	<circle cx="379.219" cy="143.079" r="1" fill="rgb(0,0,0)" />
	<circle cx="383.293" cy="112.518" r="1" fill="rgb(0,0,0)" />
	<circle cx="385.331" cy="542.528" r="1" fill="rgb(0,0,0)" />
	<circle cx="388.806" cy="81.7174" r="1" fill="rgb(0,0,0)" />
	<circle cx="395.038" cy="402.547" r="1" fill="rgb(0,0,0)" />
	<circle cx="395.158" cy="128.458" r="1" fill="rgb(0,0,0)" />
	<circle cx="400.072" cy="124.982" r="1" fill="rgb(0,0,0)" />
	<circle cx="401.51" cy="530.303" r="1" fill="rgb(0,0,0)" />
	<circle cx="403.068" cy="559.186" r="1" fill="rgb(0,0,0)" />
	<circle cx="403.667" cy="417.048" r="1" fill="rgb(0,0,0)" />
	<circle cx="403.907" cy="124.862" r="1" fill="rgb(0,0,0)" />
	<circle cx="404.147" cy="112.158" r="1" fill="rgb(0,0,0)" />
	<circle cx="405.465" cy="371.027" r="1" fill="rgb(0,0,0)" />
	<circle cx="405.585" cy="120.308" r="1" fill="rgb(0,0,0)" />
	<circle cx="405.705" cy="423.041" r="1" fill="rgb(0,0,0)" />
	<circle cx="406.304" cy="124.383" r="1" fill="rgb(0,0,0)" />
	<circle cx="406.903" cy="43.9657" r="1" fill="rgb(0,0,0)" />
	<circle cx="408.102" cy="58.4672" r="1" fill="rgb(0,0,0)" />
	<circle cx="409.42" cy="124.023" r="1" fill="rgb(0,0,0)" />
	<circle cx="411.457" cy="127.619" r="1" fill="rgb(0,0,0)" />
	<circle cx="411.577" cy="121.147" r="1" fill="rgb(0,0,0)" />
	<circle cx="412.416" cy="96.6982" r="1" fill="rgb(0,0,0)" />
	<circle cx="413.734" cy="133.371" r="1" fill="rgb(0,0,0)" />
	<circle cx="414.334" cy="131.813" r="1" fill="rgb(0,0,0)" />
	<circle cx="418.169" cy="123.184" r="1" fill="rgb(0,0,0)" />
	<circle cx="418.289" cy="132.892" r="1" fill="rgb(0,0,0)" />
	<circle cx="423.802" cy="417.168" r="1" fill="rgb(0,0,0)" />
	<circle cx="424.041" cy="97.8967" r="1" fill="rgb(0,0,0)" />
	<circle cx="429.434" cy="386.008" r="1" fill="rgb(0,0,0)" />
	<circle cx="430.633" cy="579.201" r="1" fill="rgb(0,0,0)" />
	<circle cx="431.831" cy="356.166" r="1" fill="rgb(0,0,0)" />
	<circle cx="440.82" cy="328.122" r="1" fill="rgb(0,0,0)" />
	<circle cx="448.49" cy="531.981" r="1" fill="rgb(0,0,0)" />
	<circle cx="450.048" cy="582.796" r="1" fill="rgb(0,0,0)" />
	<circle cx="450.647" cy="336.391" r="1" fill="rgb(0,0,0)" />
	<circle cx="450.647" cy="108.323" r="1" fill="rgb(0,0,0)" />
	<circle cx="459.396" cy="543.007" r="1" fill="rgb(0,0,0)" />
	<circle cx="461.793" cy="524.431" r="1" fill="rgb(0,0,0)" />
	<circle cx="462.872" cy="525.39" r="1" fill="rgb(0,0,0)" />
	<circle cx="464.31" cy="93.4624" r="1" fill="rgb(0,0,0)" />
	<circle cx="466.707" cy="112.158" r="1" fill="rgb(0,0,0)" />
	<circle cx="482.646" cy="416.329" r="1" fill="rgb(0,0,0)" />
	<circle cx="486.002" cy="474.215" r="1" fill="rgb(0,0,0)" />
	<circle cx="486.601" cy="91.3051" r="1" fill="rgb(0,0,0)" />
	<circle cx="489.358" cy="262.326" r="1" fill="rgb(0,0,0)" />
	<circle cx="491.155" cy="517.839" r="1" fill="rgb(0,0,0)" />
	<circle cx="491.275" cy="171.602" r="1" fill="rgb(0,0,0)" />
	<circle cx="491.994" cy="381.334" r="1" fill="rgb(0,0,0)" />
	<circle cx="492.234" cy="365.274" r="1" fill="rgb(0,0,0)" />
	<circle cx="492.713" cy="365.394" r="1" fill="rgb(0,0,0)" />
	<circle cx="493.432" cy="520.596" r="1" fill="rgb(0,0,0)" />
	<circle cx="498.945" cy="512.087" r="1" fill="rgb(0,0,0)" />
	<circle cx="499.545" cy="347.777" r="1" fill="rgb(0,0,0)" />
	<circle cx="502.061" cy="305.111" r="1" fill="rgb(0,0,0)" />
	<circle cx="502.181" cy="452.403" r="1" fill="rgb(0,0,0)" />
	<circle cx="503.38" cy="450.006" r="1" fill="rgb(0,0,0)" />
	<circle cx="503.38" cy="386.248" r="1" fill="rgb(0,0,0)" />
	<circle cx="504.458" cy="355.687" r="1" fill="rgb(0,0,0)" />
	<circle cx="505.417" cy="468.702" r="1" fill="rgb(0,0,0)" />
	<circle cx="505.537" cy="517.599" r="1" fill="rgb(0,0,0)" />
	<circle cx="505.537" cy="444.733" r="1" fill="rgb(0,0,0)" />
	<circle cx="505.657" cy="469.301" r="1" fill="rgb(0,0,0)" />
	<circle cx="506.616" cy="442.216" r="1" fill="rgb(0,0,0)" />
	<circle cx="506.855" cy="479.728" r="1" fill="rgb(0,0,0)" />
	<circle cx="509.851" cy="521.554" r="1" fill="rgb(0,0,0)" />
	<circle cx="509.971" cy="443.175" r="1" fill="rgb(0,0,0)" />
	<circle cx="509.971" cy="306.669" r="1" fill="rgb(0,0,0)" />
	<circle cx="511.29" cy="525.629" r="1" fill="rgb(0,0,0)" />
	<circle cx="512.128" cy="424.359" r="1" fill="rgb(0,0,0)" />
	<circle cx="512.248" cy="414.292" r="1" fill="rgb(0,0,0)" />
	<circle cx="513.327" cy="448.448" r="1" fill="rgb(0,0,0)" />
	<circle cx="513.686" cy="430.111" r="1" fill="rgb(0,0,0)" />
	<circle cx="514.525" cy="75.1258" r="1" fill="rgb(0,0,0)" />
	<circle cx="514.765" cy="95.2601" r="1" fill="rgb(0,0,0)" />
	<circle cx="515.125" cy="93.5822" r="1" fill="rgb(0,0,0)" />
	<circle cx="516.802" cy="422.441" r="1" fill="rgb(0,0,0)" />
	<circle cx="517.042" cy="369.469" r="1" fill="rgb(0,0,0)" />
	<circle cx="518.96" cy="128.218" r="1" fill="rgb(0,0,0)" />
	<circle cx="521.836" cy="402.427" r="1" fill="rgb(0,0,0)" />
	<circle cx="523.754" cy="287.614" r="1" fill="rgb(0,0,0)" />
	<circle cx="523.873" cy="450.006" r="1" fill="rgb(0,0,0)" />
	<circle cx="524.353" cy="434.546" r="1" fill="rgb(0,0,0)" />
	<circle cx="524.353" cy="257.173" r="1" fill="rgb(0,0,0)" />
	<circle cx="526.031" cy="256.094" r="1" fill="rgb(0,0,0)" />
	<circle cx="526.63" cy="425.198" r="1" fill="rgb(0,0,0)" />
	<circle cx="528.667" cy="226.732" r="1" fill="rgb(0,0,0)" />
	<circle cx="530.465" cy="257.293" r="1" fill="rgb(0,0,0)" />
	<circle cx="530.944" cy="246.746" r="1" fill="rgb(0,0,0)" />
	<circle cx="532.263" cy="125.342" r="1" fill="rgb(0,0,0)" />
	<circle cx="533.102" cy="240.634" r="1" fill="rgb(0,0,0)" />
	<circle cx="533.941" cy="125.461" r="1" fill="rgb(0,0,0)" />
	<circle cx="534.66" cy="403.266" r="1" fill="rgb(0,0,0)" />
	<circle cx="534.899" cy="249.503" r="1" fill="rgb(0,0,0)" />
	<circle cx="536.577" cy="464.507" r="1" fill="rgb(0,0,0)" />
	<circle cx="536.817" cy="409.738" r="1" fill="rgb(0,0,0)" />
	<circle cx="537.776" cy="329.32" r="1" fill="rgb(0,0,0)" />
	<circle cx="539.933" cy="143.079" r="1" fill="rgb(0,0,0)" />
	<circle cx="544.847" cy="154.824" r="1" fill="rgb(0,0,0)" />
	<circle cx="547.124" cy="457.197" r="1" fill="rgb(0,0,0)" />
	<circle cx="547.244" cy="467.863" r="1" fill="rgb(0,0,0)" />
	<circle cx="547.244" cy="448.328" r="1" fill="rgb(0,0,0)" />
	<circle cx="548.802" cy="456.238" r="1" fill="rgb(0,0,0)" />
	<circle cx="552.756" cy="350.773" r="1" fill="rgb(0,0,0)" />
	<circle cx="553.356" cy="145.835" r="1" fill="rgb(0,0,0)" />
	<circle cx="554.794" cy="459.833" r="1" fill="rgb(0,0,0)" />
	<circle cx="558.629" cy="409.258" r="1" fill="rgb(0,0,0)" />
	<circle cx="559.108" cy="332.676" r="1" fill="rgb(0,0,0)" />
	<circle cx="560.067" cy="291.209" r="1" fill="rgb(0,0,0)" />
	<circle cx="560.786" cy="286.535" r="1" fill="rgb(0,0,0)" />
	<circle cx="563.782" cy="95.8593" r="1" fill="rgb(0,0,0)" />
	<circle cx="564.621" cy="285.097" r="1" fill="rgb(0,0,0)" />
	<circle cx="565.58" cy="292.647" r="1" fill="rgb(0,0,0)" />
	<circle cx="566.539" cy="295.404" r="1" fill="rgb(0,0,0)" />
	<circle cx="566.898" cy="343.103" r="1" fill="rgb(0,0,0)" />
	<circle cx="567.138" cy="388.525" r="1" fill="rgb(0,0,0)" />
	<circle cx="568.816" cy="280.902" r="1" fill="rgb(0,0,0)" />
	<circle cx="573.13" cy="154.105" r="1" fill="rgb(0,0,0)" />
	<circle cx="573.25" cy="58.4672" r="1" fill="rgb(0,0,0)" />
	<circle cx="573.849" cy="243.51" r="1" fill="rgb(0,0,0)" />
	<circle cx="575.767" cy="439.459" r="1" fill="rgb(0,0,0)" />
	<circle cx="576.606" cy="175.318" r="1" fill="rgb(0,0,0)" />
	<circle cx="577.205" cy="446.411" r="1" fill="rgb(0,0,0)" />
	<circle cx="577.804" cy="322.01" r="1" fill="rgb(0,0,0)" />
	<circle cx="578.763" cy="233.803" r="1" fill="rgb(0,0,0)" />
	<circle cx="579.003" cy="401.228" r="1" fill="rgb(0,0,0)" />
	<circle cx="581.4" cy="214.867" r="1" fill="rgb(0,0,0)" />
	<circle cx="582.119" cy="243.271" r="1" fill="rgb(0,0,0)" />
	<circle cx="583.078" cy="321.53" r="1" fill="rgb(0,0,0)" />
	<circle cx="585.475" cy="181.43" r="1" fill="rgb(0,0,0)" />
	<circle cx="585.594" cy="355.447" r="1" fill="rgb(0,0,0)" />
	<circle cx="590.748" cy="247.945" r="1" fill="rgb(0,0,0)" />
	<circle cx="596.74" cy="391.88" r="1" fill="rgb(0,0,0)" />
	<circle cx="598.538" cy="295.644" r="1" fill="rgb(0,0,0)" />
	<circle cx="598.778" cy="366.832" r="1" fill="rgb(0,0,0)" />
	<circle cx="600.096" cy="198.808" r="1" fill="rgb(0,0,0)" />
	<circle cx="600.695" cy="426.037" r="1" fill="rgb(0,0,0)" />
	<circle cx="601.174" cy="364.675" r="1" fill="rgb(0,0,0)" />
	<circle cx="601.654" cy="336.991" r="1" fill="rgb(0,0,0)" />
	<circle cx="602.733" cy="369.589" r="1" fill="rgb(0,0,0)" />
	<circle cx="602.972" cy="130.495" r="1" fill="rgb(0,0,0)" />
	<circle cx="603.571" cy="289.052" r="1" fill="rgb(0,0,0)" />
	<circle cx="607.287" cy="295.404" r="1" fill="rgb(0,0,0)" />
	<circle cx="608.126" cy="446.89" r="1" fill="rgb(0,0,0)" />
	<circle cx="608.605" cy="405.902" r="1" fill="rgb(0,0,0)" />
	<circle cx="611.242" cy="182.748" r="1" fill="rgb(0,0,0)" />
	<circle cx="612.68" cy="352.81" r="1" fill="rgb(0,0,0)" />
	<circle cx="616.515" cy="421.003" r="1" fill="rgb(0,0,0)" />
	<circle cx="616.994" cy="243.99" r="1" fill="rgb(0,0,0)" />
	<circle cx="617.234" cy="453.841" r="1" fill="rgb(0,0,0)" />
	<circle cx="620.11" cy="162.973" r="1" fill="rgb(0,0,0)" />
	<circle cx="620.709" cy="184.426" r="1" fill="rgb(0,0,0)" />
	<circle cx="621.668" cy="181.669" r="1" fill="rgb(0,0,0)" />
	<circle cx="622.387" cy="445.811" r="1" fill="rgb(0,0,0)" />
	<circle cx="622.747" cy="444.373" r="1" fill="rgb(0,0,0)" />
	<circle cx="624.664" cy="444.853" r="1" fill="rgb(0,0,0)" />
	<circle cx="626.462" cy="291.689" r="1" fill="rgb(0,0,0)" />
	<circle cx="626.702" cy="456.478" r="1" fill="rgb(0,0,0)" />
	<circle cx="627.061" cy="446.53" r="1" fill="rgb(0,0,0)" />
	<circle cx="627.9" cy="181.909" r="1" fill="rgb(0,0,0)" />
	<circle cx="628.14" cy="442.695" r="1" fill="rgb(0,0,0)" />
	<circle cx="632.215" cy="399.67" r="1" fill="rgb(0,0,0)" />
	<circle cx="633.174" cy="458.036" r="1" fill="rgb(0,0,0)" />
	<circle cx="633.413" cy="263.285" r="1" fill="rgb(0,0,0)" />
	<circle cx="634.132" cy="244.709" r="1" fill="rgb(0,0,0)" />
	<circle cx="634.372" cy="449.886" r="1" fill="rgb(0,0,0)" />
	<circle cx="634.492" cy="440.179" r="1" fill="rgb(0,0,0)" />
	<circle cx="637.488" cy="427.834" r="1" fill="rgb(0,0,0)" />
	<circle cx="637.848" cy="300.078" r="1" fill="rgb(0,0,0)" />
	<circle cx="638.686" cy="410.097" r="1" fill="rgb(0,0,0)" />
	<circle cx="638.806" cy="253.458" r="1" fill="rgb(0,0,0)" />
	<circle cx="639.406" cy="449.886" r="1" fill="rgb(0,0,0)" />
	<circle cx="639.525" cy="451.085" r="1" fill="rgb(0,0,0)" />
	<circle cx="640.005" cy="242.671" r="1" fill="rgb(0,0,0)" />
	<circle cx="644.799" cy="237.997" r="1" fill="rgb(0,0,0)" />
	<circle cx="645.278" cy="451.204" r="1" fill="rgb(0,0,0)" />
	<circle cx="646.836" cy="340.346" r="1" fill="rgb(0,0,0)" />
	<circle cx="648.993" cy="344.181" r="1" fill="rgb(0,0,0)" />
	<circle cx="651.63" cy="359.042" r="1" fill="rgb(0,0,0)" />
	<circle cx="653.068" cy="407.82" r="1" fill="rgb(0,0,0)" />
	<circle cx="654.506" cy="259.09" r="1" fill="rgb(0,0,0)" />
	<circle cx="656.903" cy="424.958" r="1" fill="rgb(0,0,0)" />
	<circle cx="657.143" cy="441.976" r="1" fill="rgb(0,0,0)" />
	<circle cx="657.502" cy="214.028" r="1" fill="rgb(0,0,0)" />
	<circle cx="658.341" cy="270.715" r="1" fill="rgb(0,0,0)" />
	<circle cx="660.259" cy="178.194" r="1" fill="rgb(0,0,0)" />
	<circle cx="663.495" cy="300.198" r="1" fill="rgb(0,0,0)" />
	<circle cx="663.495" cy="261.008" r="1" fill="rgb(0,0,0)" />
	<circle cx="663.615" cy="309.905" r="1" fill="rgb(0,0,0)" />
	<circle cx="664.334" cy="252.019" r="1" fill="rgb(0,0,0)" />
	<circle cx="665.532" cy="311.224" r="1" fill="rgb(0,0,0)" />
	<circle cx="667.21" cy="371.986" r="1" fill="rgb(0,0,0)" />
	<circle cx="667.45" cy="191.856" r="1" fill="rgb(0,0,0)" />
	<circle cx="667.57" cy="236.559" r="1" fill="rgb(0,0,0)" />
	<circle cx="669.008" cy="246.866" r="1" fill="rgb(0,0,0)" />
	<circle cx="669.367" cy="236.32" r="1" fill="rgb(0,0,0)" />
	<circle cx="671.524" cy="269.277" r="1" fill="rgb(0,0,0)" />
	<circle cx="671.644" cy="237.278" r="1" fill="rgb(0,0,0)" />
	<circle cx="671.644" cy="194.733" r="1" fill="rgb(0,0,0)" />
	<circle cx="672.843" cy="241.832" r="1" fill="rgb(0,0,0)" />
	<circle cx="674.281" cy="262.206" r="1" fill="rgb(0,0,0)" />
	<circle cx="674.521" cy="240.394" r="1" fill="rgb(0,0,0)" />
	<circle cx="676.198" cy="240.035" r="1" fill="rgb(0,0,0)" />
	<circle cx="677.037" cy="439.819" r="1" fill="rgb(0,0,0)" />
	<circle cx="677.277" cy="228.889" r="1" fill="rgb(0,0,0)" />
	<circle cx="677.996" cy="215.706" r="1" fill="rgb(0,0,0)" />
	<circle cx="678.476" cy="248.304" r="1" fill="rgb(0,0,0)" />
	<circle cx="678.715" cy="233.443" r="1" fill="rgb(0,0,0)" />
	<circle cx="679.434" cy="234.042" r="1" fill="rgb(0,0,0)" />
	<circle cx="679.794" cy="236.08" r="1" fill="rgb(0,0,0)" />
	<circle cx="680.872" cy="231.645" r="1" fill="rgb(0,0,0)" />
	<circle cx="680.992" cy="231.645" r="1" fill="rgb(0,0,0)" />
	<circle cx="681.352" cy="240.874" r="1" fill="rgb(0,0,0)" />
	<circle cx="681.472" cy="241.713" r="1" fill="rgb(0,0,0)" />
	<circle cx="681.711" cy="224.455" r="1" fill="rgb(0,0,0)" />
	<circle cx="682.55" cy="390.802" r="1" fill="rgb(0,0,0)" />
	<circle cx="682.67" cy="239.555" r="1" fill="rgb(0,0,0)" />
	<circle cx="682.79" cy="250.581" r="1" fill="rgb(0,0,0)" />
	<circle cx="682.91" cy="214.627" r="1" fill="rgb(0,0,0)" />
	<circle cx="683.629" cy="439.819" r="1" fill="rgb(0,0,0)" />
	<circle cx="683.988" cy="235.001" r="1" fill="rgb(0,0,0)" />
	<circle cx="684.708" cy="233.443" r="1" fill="rgb(0,0,0)" />
	<circle cx="685.187" cy="243.031" r="1" fill="rgb(0,0,0)" />
	<circle cx="687.704" cy="241.233" r="1" fill="rgb(0,0,0)" />
	<circle cx="688.063" cy="241.113" r="1" fill="rgb(0,0,0)" />
	<circle cx="689.022" cy="373.784" r="1" fill="rgb(0,0,0)" />
	<circle cx="689.262" cy="236.439" r="1" fill="rgb(0,0,0)" />
	<circle cx="692.737" cy="334.234" r="1" fill="rgb(0,0,0)" />
	<circle cx="700.407" cy="242.911" r="1" fill="rgb(0,0,0)" />
	<circle cx="700.767" cy="385.409" r="1" fill="rgb(0,0,0)" />
	<circle cx="702.205" cy="279.584" r="1" fill="rgb(0,0,0)" />
	<circle cx="703.523" cy="425.677" r="1" fill="rgb(0,0,0)" />
	<circle cx="703.523" cy="387.326" r="1" fill="rgb(0,0,0)" />
	<circle cx="704.003" cy="366.233" r="1" fill="rgb(0,0,0)" />
	<circle cx="704.003" cy="343.343" r="1" fill="rgb(0,0,0)" />
	<circle cx="704.602" cy="320.332" r="1" fill="rgb(0,0,0)" />
	<circle cx="705.681" cy="335.313" r="1" fill="rgb(0,0,0)" />
	<circle cx="708.317" cy="271.195" r="1" fill="rgb(0,0,0)" />
	<circle cx="710.235" cy="324.527" r="1" fill="rgb(0,0,0)" />
	<circle cx="710.475" cy="273.712" r="1" fill="rgb(0,0,0)" />
	<circle cx="710.714" cy="239.675" r="1" fill="rgb(0,0,0)" />
	<circle cx="712.272" cy="443.414" r="1" fill="rgb(0,0,0)" />
	<circle cx="713.71" cy="275.15" r="1" fill="rgb(0,0,0)" />
	<circle cx="714.669" cy="306.669" r="1" fill="rgb(0,0,0)" />
	<circle cx="714.909" cy="351.971" r="1" fill="rgb(0,0,0)" />
	<circle cx="716.707" cy="270.596" r="1" fill="rgb(0,0,0)" />
	<circle cx="717.905" cy="400.749" r="1" fill="rgb(0,0,0)" />
	<circle cx="717.905" cy="339.388" r="1" fill="rgb(0,0,0)" />
	<circle cx="718.145" cy="219.181" r="1" fill="rgb(0,0,0)" />
	<circle cx="718.504" cy="306.43" r="1" fill="rgb(0,0,0)" />
	<circle cx="718.744" cy="304.992" r="1" fill="rgb(0,0,0)" />
	<circle cx="719.942" cy="396.674" r="1" fill="rgb(0,0,0)" />
	<circle cx="720.062" cy="447.01" r="1" fill="rgb(0,0,0)" />
	<circle cx="720.422" cy="294.205" r="1" fill="rgb(0,0,0)" />
	<circle cx="720.901" cy="426.756" r="1" fill="rgb(0,0,0)" />
	<circle cx="720.901" cy="381.693" r="1" fill="rgb(0,0,0)" />
	<circle cx="721.021" cy="347.417" r="1" fill="rgb(0,0,0)" />
	<circle cx="721.261" cy="407.46" r="1" fill="rgb(0,0,0)" />
	<circle cx="721.381" cy="230.207" r="1" fill="rgb(0,0,0)" />
	<circle cx="721.86" cy="292.528" r="1" fill="rgb(0,0,0)" />
	<circle cx="723.178" cy="291.808" r="1" fill="rgb(0,0,0)" />
	<circle cx="724.736" cy="216.785" r="1" fill="rgb(0,0,0)" />
	<circle cx="724.976" cy="303.913" r="1" fill="rgb(0,0,0)" />
	<circle cx="725.096" cy="268.678" r="1" fill="rgb(0,0,0)" />
	<circle cx="726.414" cy="340.227" r="1" fill="rgb(0,0,0)" />
	<circle cx="726.774" cy="277.427" r="1" fill="rgb(0,0,0)" />
	<circle cx="727.493" cy="427.834" r="1" fill="rgb(0,0,0)" />
	<circle cx="727.613" cy="282.94" r="1" fill="rgb(0,0,0)" />
	<circle cx="728.691" cy="335.912" r="1" fill="rgb(0,0,0)" />
	<circle cx="731.807" cy="252.139" r="1" fill="rgb(0,0,0)" />
	<circle cx="733.126" cy="246.866" r="1" fill="rgb(0,0,0)" />
	<circle cx="733.725" cy="344.901" r="1" fill="rgb(0,0,0)" />
	<circle cx="735.762" cy="384.09" r="1" fill="rgb(0,0,0)" />
	<circle cx="735.882" cy="384.09" r="1" fill="rgb(0,0,0)" />
	<circle cx="737.32" cy="247.345" r="1" fill="rgb(0,0,0)" />
	<circle cx="737.44" cy="275.27" r="1" fill="rgb(0,0,0)" />
	<circle cx="740.676" cy="290.131" r="1" fill="rgb(0,0,0)" />
	<circle cx="742.234" cy="387.686" r="1" fill="rgb(0,0,0)" />
	<circle cx="743.552" cy="278.985" r="1" fill="rgb(0,0,0)" />
	<circle cx="744.751" cy="279.584" r="1" fill="rgb(0,0,0)" />
	<circle cx="745.59" cy="335.792" r="1" fill="rgb(0,0,0)" />
	<circle cx="745.949" cy="231.286" r="1" fill="rgb(0,0,0)" />
	<circle cx="746.069" cy="292.288" r="1" fill="rgb(0,0,0)" />
	<circle cx="746.189" cy="221.938" r="1" fill="rgb(0,0,0)" />
	<circle cx="746.548" cy="351.372" r="1" fill="rgb(0,0,0)" />
	<circle cx="748.466" cy="229.488" r="1" fill="rgb(0,0,0)" />
	<circle cx="748.586" cy="441.137" r="1" fill="rgb(0,0,0)" />
	<circle cx="748.706" cy="205.998" r="1" fill="rgb(0,0,0)" />
	<circle cx="748.945" cy="277.067" r="1" fill="rgb(0,0,0)" />
	<circle cx="749.545" cy="217.024" r="1" fill="rgb(0,0,0)" />
	<circle cx="752.9" cy="382.173" r="1" fill="rgb(0,0,0)" />
	<circle cx="753.14" cy="388.764" r="1" fill="rgb(0,0,0)" />
	<circle cx="753.859" cy="206.957" r="1" fill="rgb(0,0,0)" />
	<circle cx="755.896" cy="295.524" r="1" fill="rgb(0,0,0)" />
	<circle cx="756.136" cy="406.142" r="1" fill="rgb(0,0,0)" />
	<circle cx="756.376" cy="402.067" r="1" fill="rgb(0,0,0)" />
	<circle cx="756.616" cy="374.503" r="1" fill="rgb(0,0,0)" />
	<circle cx="757.454" cy="289.412" r="1" fill="rgb(0,0,0)" />
	<circle cx="758.174" cy="376.66" r="1" fill="rgb(0,0,0)" />
	<circle cx="759.132" cy="241.713" r="1" fill="rgb(0,0,0)" />
	<circle cx="761.409" cy="239.675" r="1" fill="rgb(0,0,0)" />
	<circle cx="763.686" cy="403.985" r="1" fill="rgb(0,0,0)" />
	<circle cx="764.046" cy="223.855" r="1" fill="rgb(0,0,0)" />
	<circle cx="766.083" cy="368.271" r="1" fill="rgb(0,0,0)" />
	<circle cx="767.641" cy="400.03" r="1" fill="rgb(0,0,0)" />
	<circle cx="767.881" cy="399.191" r="1" fill="rgb(0,0,0)" />
	<circle cx="769.439" cy="337.71" r="1" fill="rgb(0,0,0)" />
	<circle cx="772.795" cy="275.03" r="1" fill="rgb(0,0,0)" />
	<circle cx="772.915" cy="442.456" r="1" fill="rgb(0,0,0)" />
	<circle cx="773.394" cy="269.038" r="1" fill="rgb(0,0,0)" />
	<circle cx="776.63" cy="485.121" r="1" fill="rgb(0,0,0)" />
	<circle cx="777.349" cy="491.233" r="1" fill="rgb(0,0,0)" />
	<circle cx="777.469" cy="287.614" r="1" fill="rgb(0,0,0)" />
	<circle cx="777.589" cy="324.886" r="1" fill="rgb(0,0,0)" />
	<circle cx="779.267" cy="469.421" r="1" fill="rgb(0,0,0)" />
	<circle cx="779.986" cy="256.693" r="1" fill="rgb(0,0,0)" />
	<circle cx="780.105" cy="476.372" r="1" fill="rgb(0,0,0)" />
	<circle cx="780.465" cy="301.157" r="1" fill="rgb(0,0,0)" />
	<circle cx="781.903" cy="454.68" r="1" fill="rgb(0,0,0)" />
	<circle cx="782.263" cy="418.127" r="1" fill="rgb(0,0,0)" />
	<circle cx="782.982" cy="336.032" r="1" fill="rgb(0,0,0)" />
	<circle cx="783.102" cy="255.375" r="1" fill="rgb(0,0,0)" />
	<circle cx="786.098" cy="246.866" r="1" fill="rgb(0,0,0)" />
	<circle cx="786.577" cy="244.589" r="1" fill="rgb(0,0,0)" />
	<circle cx="787.416" cy="486.799" r="1" fill="rgb(0,0,0)" />
	<circle cx="788.375" cy="503.218" r="1" fill="rgb(0,0,0)" />
	<circle cx="788.375" cy="251.3" r="1" fill="rgb(0,0,0)" />
	<circle cx="788.495" cy="454.68" r="1" fill="rgb(0,0,0)" />
	<circle cx="788.615" cy="448.088" r="1" fill="rgb(0,0,0)" />
	<circle cx="788.734" cy="391.521" r="1" fill="rgb(0,0,0)" />
	<circle cx="789.453" cy="361.439" r="1" fill="rgb(0,0,0)" />
	<circle cx="790.292" cy="355.087" r="1" fill="rgb(0,0,0)" />
	<circle cx="790.772" cy="476.372" r="1" fill="rgb(0,0,0)" />
	<circle cx="791.371" cy="256.334" r="1" fill="rgb(0,0,0)" />
	<circle cx="791.611" cy="411.775" r="1" fill="rgb(0,0,0)" />
	<circle cx="791.731" cy="509.929" r="1" fill="rgb(0,0,0)" />
	<circle cx="792.21" cy="243.031" r="1" fill="rgb(0,0,0)" />
	<circle cx="792.689" cy="445.811" r="1" fill="rgb(0,0,0)" />
	<circle cx="792.809" cy="514.364" r="1" fill="rgb(0,0,0)" />
	<circle cx="794.487" cy="447.969" r="1" fill="rgb(0,0,0)" />
	<circle cx="794.607" cy="471.219" r="1" fill="rgb(0,0,0)" />
	<circle cx="795.566" cy="257.053" r="1" fill="rgb(0,0,0)" />
	<circle cx="795.805" cy="300.797" r="1" fill="rgb(0,0,0)" />
	<circle cx="796.285" cy="454.68" r="1" fill="rgb(0,0,0)" />
	<circle cx="798.082" cy="261.248" r="1" fill="rgb(0,0,0)" />
	<circle cx="798.442" cy="374.862" r="1" fill="rgb(0,0,0)" />
	<circle cx="798.562" cy="475.413" r="1" fill="rgb(0,0,0)" />
	<circle cx="800.12" cy="453.721" r="1" fill="rgb(0,0,0)" />
	<circle cx="801.198" cy="216.904" r="1" fill="rgb(0,0,0)" />
	<circle cx="801.558" cy="375.941" r="1" fill="rgb(0,0,0)" />
	<circle cx="804.195" cy="359.042" r="1" fill="rgb(0,0,0)" />
	<circle cx="804.314" cy="217.024" r="1" fill="rgb(0,0,0)" />
	<circle cx="804.794" cy="252.978" r="1" fill="rgb(0,0,0)" />
	<circle cx="806.831" cy="413.213" r="1" fill="rgb(0,0,0)" />
	<circle cx="807.67" cy="409.018" r="1" fill="rgb(0,0,0)" />
	<circle cx="807.67" cy="248.903" r="1" fill="rgb(0,0,0)" />
	<circle cx="809.108" cy="476.852" r="1" fill="rgb(0,0,0)" />
	<circle cx="811.745" cy="357.484" r="1" fill="rgb(0,0,0)" />
	<circle cx="812.464" cy="270.236" r="1" fill="rgb(0,0,0)" />
	<circle cx="812.824" cy="340.586" r="1" fill="rgb(0,0,0)" />
	<circle cx="813.782" cy="350.054" r="1" fill="rgb(0,0,0)" />
	<circle cx="814.022" cy="257.652" r="1" fill="rgb(0,0,0)" />
	<circle cx="814.022" cy="253.458" r="1" fill="rgb(0,0,0)" />
	<circle cx="814.741" cy="392.599" r="1" fill="rgb(0,0,0)" />
	<circle cx="816.179" cy="530.663" r="1" fill="rgb(0,0,0)" />
	<circle cx="818.097" cy="522.753" r="1" fill="rgb(0,0,0)" />
	<circle cx="818.337" cy="498.304" r="1" fill="rgb(0,0,0)" />
	<circle cx="820.853" cy="343.223" r="1" fill="rgb(0,0,0)" />
	<circle cx="821.692" cy="281.382" r="1" fill="rgb(0,0,0)" />
	<circle cx="822.291" cy="525.989" r="1" fill="rgb(0,0,0)" />
	<circle cx="822.411" cy="258.132" r="1" fill="rgb(0,0,0)" />
	<circle cx="822.531" cy="272.633" r="1" fill="rgb(0,0,0)" />
	<circle cx="822.651" cy="519.038" r="1" fill="rgb(0,0,0)" />
	<circle cx="823.61" cy="514.244" r="1" fill="rgb(0,0,0)" />
	<circle cx="824.209" cy="343.462" r="1" fill="rgb(0,0,0)" />
	<circle cx="825.048" cy="269.038" r="1" fill="rgb(0,0,0)" />
	<circle cx="825.407" cy="255.615" r="1" fill="rgb(0,0,0)" />
	<circle cx="826.486" cy="206.717" r="1" fill="rgb(0,0,0)" />
	<circle cx="826.606" cy="271.195" r="1" fill="rgb(0,0,0)" />
	<circle cx="827.445" cy="290.011" r="1" fill="rgb(0,0,0)" />
	<circle cx="828.284" cy="202.523" r="1" fill="rgb(0,0,0)" />
	<circle cx="828.763" cy="398.112" r="1" fill="rgb(0,0,0)" />
	<circle cx="828.883" cy="260.289" r="1" fill="rgb(0,0,0)" />
	<circle cx="829.962" cy="315.418" r="1" fill="rgb(0,0,0)" />
	<circle cx="830.081" cy="333.275" r="1" fill="rgb(0,0,0)" />
	<circle cx="830.801" cy="588.549" r="1" fill="rgb(0,0,0)" />
	<circle cx="833.078" cy="205.399" r="1" fill="rgb(0,0,0)" />
	<circle cx="834.995" cy="263.525" r="1" fill="rgb(0,0,0)" />
	<circle cx="836.553" cy="201.444" r="1" fill="rgb(0,0,0)" />
	<circle cx="836.793" cy="354.129" r="1" fill="rgb(0,0,0)" />
	<circle cx="836.913" cy="317.336" r="1" fill="rgb(0,0,0)" />
	<circle cx="839.31" cy="202.643" r="1" fill="rgb(0,0,0)" />
	<circle cx="839.43" cy="352.211" r="1" fill="rgb(0,0,0)" />
	<circle cx="840.508" cy="351.372" r="1" fill="rgb(0,0,0)" />
	<circle cx="841.227" cy="223.496" r="1" fill="rgb(0,0,0)" />
	<circle cx="841.467" cy="123.544" r="1" fill="rgb(0,0,0)" />
	<circle cx="841.946" cy="201.204" r="1" fill="rgb(0,0,0)" />
	<circle cx="842.665" cy="343.223" r="1" fill="rgb(0,0,0)" />
	<circle cx="843.145" cy="360.361" r="1" fill="rgb(0,0,0)" />
	<circle cx="843.265" cy="222.897" r="1" fill="rgb(0,0,0)" />
	<circle cx="843.984" cy="318.295" r="1" fill="rgb(0,0,0)" />
	<circle cx="844.703" cy="362.638" r="1" fill="rgb(0,0,0)" />
	<circle cx="845.542" cy="383.971" r="1" fill="rgb(0,0,0)" />
	<circle cx="845.542" cy="221.459" r="1" fill="rgb(0,0,0)" />
	<circle cx="846.98" cy="382.173" r="1" fill="rgb(0,0,0)" />
	<circle cx="848.778" cy="346.578" r="1" fill="rgb(0,0,0)" />
	<circle cx="851.654" cy="360.121" r="1" fill="rgb(0,0,0)" />
	<circle cx="852.493" cy="238.237" r="1" fill="rgb(0,0,0)" />
	<circle cx="854.77" cy="341.185" r="1" fill="rgb(0,0,0)" />
	<circle cx="861.961" cy="346.938" r="1" fill="rgb(0,0,0)" />
	<circle cx="864.837" cy="373.304" r="1" fill="rgb(0,0,0)" />
	<circle cx="866.275" cy="271.914" r="1" fill="rgb(0,0,0)" />
	<circle cx="868.672" cy="349.575" r="1" fill="rgb(0,0,0)" />
	<circle cx="870.23" cy="345.62" r="1" fill="rgb(0,0,0)" />
	<circle cx="870.709" cy="292.528" r="1" fill="rgb(0,0,0)" />
	<circle cx="870.949" cy="195.572" r="1" fill="rgb(0,0,0)" />
	<circle cx="871.069" cy="216.425" r="1" fill="rgb(0,0,0)" />
	<circle cx="871.908" cy="367.911" r="1" fill="rgb(0,0,0)" />
	<circle cx="872.028" cy="297.202" r="1" fill="rgb(0,0,0)" />
	<circle cx="872.387" cy="215.586" r="1" fill="rgb(0,0,0)" />
	<circle cx="874.185" cy="350.653" r="1" fill="rgb(0,0,0)" />
	<circle cx="874.664" cy="298.4" r="1" fill="rgb(0,0,0)" />
	<circle cx="876.222" cy="346.818" r="1" fill="rgb(0,0,0)" />
	<circle cx="883.054" cy="294.325" r="1" fill="rgb(0,0,0)" />
	<circle cx="883.773" cy="269.038" r="1" fill="rgb(0,0,0)" />
	<circle cx="884.732" cy="263.884" r="1" fill="rgb(0,0,0)" />
	<circle cx="884.971" cy="319.134" r="1" fill="rgb(0,0,0)" />
	<circle cx="886.889" cy="268.438" r="1" fill="rgb(0,0,0)" />
	<circle cx="887.848" cy="226.732" r="1" fill="rgb(0,0,0)" />
	<circle cx="888.087" cy="285.576" r="1" fill="rgb(0,0,0)" />
	<circle cx="889.286" cy="265.802" r="1" fill="rgb(0,0,0)" />
	<circle cx="889.765" cy="173.041" r="1" fill="rgb(0,0,0)" />
	<circle cx="893.001" cy="326.085" r="1" fill="rgb(0,0,0)" />
	<circle cx="893.72" cy="249.982" r="1" fill="rgb(0,0,0)" />
	<circle cx="896.956" cy="232.365" r="1" fill="rgb(0,0,0)" />
	<circle cx="897.675" cy="250.102" r="1" fill="rgb(0,0,0)" />
	<circle cx="899.832" cy="253.817" r="1" fill="rgb(0,0,0)" />
	<circle cx="899.952" cy="246.746" r="1" fill="rgb(0,0,0)" />
	<circle cx="901.031" cy="274.431" r="1" fill="rgb(0,0,0)" />
	<circle cx="901.75" cy="278.865" r="1" fill="rgb(0,0,0)" />
	<circle cx="901.989" cy="174.599" r="1" fill="rgb(0,0,0)" />
	<circle cx="902.229" cy="301.636" r="1" fill="rgb(0,0,0)" />
	<circle cx="904.027" cy="298.52" r="1" fill="rgb(0,0,0)" />
	<circle cx="904.027" cy="175.078" r="1" fill="rgb(0,0,0)" />
	<circle cx="904.386" cy="279.824" r="1" fill="rgb(0,0,0)" />
	<circle cx="904.506" cy="298.879" r="1" fill="rgb(0,0,0)" />
	<circle cx="904.746" cy="262.566" r="1" fill="rgb(0,0,0)" />
	<circle cx="905.105" cy="300.557" r="1" fill="rgb(0,0,0)" />
	<circle cx="905.585" cy="215.826" r="1" fill="rgb(0,0,0)" />
	<circle cx="906.544" cy="289.412" r="1" fill="rgb(0,0,0)" />
	<circle cx="907.742" cy="291.689" r="1" fill="rgb(0,0,0)" />
	<circle cx="909.54" cy="269.757" r="1" fill="rgb(0,0,0)" />
	<circle cx="910.139" cy="268.798" r="1" fill="rgb(0,0,0)" />
	<circle cx="915.652" cy="265.322" r="1" fill="rgb(0,0,0)" />
	<circle cx="915.772" cy="273.951" r="1" fill="rgb(0,0,0)" />
	<circle cx="916.731" cy="216.185" r="1" fill="rgb(0,0,0)" />
	<circle cx="917.21" cy="182.149" r="1" fill="rgb(0,0,0)" />
	<circle cx="919.247" cy="273.712" r="1" fill="rgb(0,0,0)" />
	<circle cx="919.247" cy="267.24" r="1" fill="rgb(0,0,0)" />
	<circle cx="921.045" cy="263.884" r="1" fill="rgb(0,0,0)" />
	<circle cx="921.045" cy="258.251" r="1" fill="rgb(0,0,0)" />
	<circle cx="921.764" cy="266.041" r="1" fill="rgb(0,0,0)" />
	<circle cx="922.603" cy="281.981" r="1" fill="rgb(0,0,0)" />
	<circle cx="922.963" cy="261.967" r="1" fill="rgb(0,0,0)" />
	<circle cx="923.921" cy="249.383" r="1" fill="rgb(0,0,0)" />
	<circle cx="927.517" cy="162.374" r="1" fill="rgb(0,0,0)" />
	<circle cx="928.116" cy="263.045" r="1" fill="rgb(0,0,0)" />
	<circle cx="928.476" cy="261.727" r="1" fill="rgb(0,0,0)" />
	<circle cx="928.476" cy="176.157" r="1" fill="rgb(0,0,0)" />
	<circle cx="930.393" cy="269.757" r="1" fill="rgb(0,0,0)" />
	<circle cx="930.633" cy="175.677" r="1" fill="rgb(0,0,0)" />
	<circle cx="932.191" cy="248.903" r="1" fill="rgb(0,0,0)" />
	<circle cx="933.509" cy="220.02" r="1" fill="rgb(0,0,0)" />
	<circle cx="936.505" cy="177.115" r="1" fill="rgb(0,0,0)" />
	<circle cx="937.464" cy="249.503" r="1" fill="rgb(0,0,0)" />
	<circle cx="944.535" cy="164.412" r="1" fill="rgb(0,0,0)" />
	<circle cx="944.895" cy="256.094" r="1" fill="rgb(0,0,0)" />
	<circle cx="945.374" cy="171.243" r="1" fill="rgb(0,0,0)" />
	<circle cx="945.614" cy="255.375" r="1" fill="rgb(0,0,0)" />
	<circle cx="945.614" cy="163.093" r="1" fill="rgb(0,0,0)" />
	<circle cx="950.288" cy="159.258" r="1" fill="rgb(0,0,0)" />
	<circle cx="954.362" cy="137.087" r="1" fill="rgb(0,0,0)" />
	<circle cx="955.201" cy="172.082" r="1" fill="rgb(0,0,0)" />
	<circle cx="957.359" cy="227.331" r="1" fill="rgb(0,0,0)" />
	<circle cx="959.875" cy="195.332" r="1" fill="rgb(0,0,0)" />
	<circle cx="968.624" cy="121.387" r="1" fill="rgb(0,0,0)" />
	<circle cx="970.182" cy="149.79" r="1" fill="rgb(0,0,0)" />
	<circle cx="974.856" cy="208.635" r="1" fill="rgb(0,0,0)" />
	<circle cx="975.336" cy="242.192" r="1" fill="rgb(0,0,0)" />
	<circle cx="977.493" cy="232.964" r="1" fill="rgb(0,0,0)" />
	<circle cx="977.972" cy="213.189" r="1" fill="rgb(0,0,0)" />
	<circle cx="978.811" cy="238.477" r="1" fill="rgb(0,0,0)" />
	<circle cx="980.01" cy="218.942" r="1" fill="rgb(0,0,0)" />
	<circle cx="981.328" cy="178.913" r="1" fill="rgb(0,0,0)" />
	<circle cx="983.365" cy="121.147" r="1" fill="rgb(0,0,0)" />
	<circle cx="988.279" cy="218.942" r="1" fill="rgb(0,0,0)" />
	<circle cx="999.185" cy="202.283" r="1" fill="rgb(0,0,0)" />
	<circle cx="1045.93" cy="144.277" r="1" fill="rgb(0,0,0)" />
	<circle cx="1050" cy="112.518" r="1" fill="rgb(0,0,0)" />
</svg>
