<?xml version="1.0" standalone="no" ?>
<!DOCTYPE svg PUBLIC "-//W3C//DTD SVG 1.1//EN" "http://www.w3.org/Graphics/SVG/1.1/DTD/svg11.dtd">
<svg width="1100px" height="518.252px" xmlns="http://www.w3.org/2000/svg" version="1.1" >
	<circle cx="50" cy="386.029" r="1" fill="rgb(0,0,0)" />
	<circle cx="207.95" cy="420.844" r="1" fill="rgb(0,0,0)" />
	<circle cx="215.787" cy="23.5569" r="1" fill="rgb(0,0,0)" />
	<circle cx="516.767" cy="354.83" r="1" fill="rgb(0,0,0)" />
	<circle cx="519.631" cy="494.695" r="1" fill="rgb(0,0,0)" />
	<circle cx="576.752" cy="168.093" r="1" fill="rgb(0,0,0)" />
	<circle cx="599.812" cy="471.032" r="1" fill="rgb(0,0,0)" />
	<circle cx="684.062" cy="474.65" r="1" fill="rgb(0,0,0)" />
	<circle cx="693.255" cy="460.482" r="1" fill="rgb(0,0,0)" />
	<circle cx="721.59" cy="396.277" r="1" fill="rgb(0,0,0)" />
	<circle cx="727.317" cy="175.78" r="1" fill="rgb(0,0,0)" />
	<circle cx="752.185" cy="459.427" r="1" fill="rgb(0,0,0)" />
	<circle cx="761.228" cy="416.473" r="1" fill="rgb(0,0,0)" />
	<circle cx="771.176" cy="256.413" r="1" fill="rgb(0,0,0)" />
	<circle cx="779.917" cy="355.735" r="1" fill="rgb(0,0,0)" />
	<circle cx="832.818" cy="208.335" r="1" fill="rgb(0,0,0)" />
	<circle cx="859.646" cy="424.763" r="1" fill="rgb(0,0,0)" />
	<circle cx="871.1" cy="468.018" r="1" fill="rgb(0,0,0)" />
	<circle cx="996.647" cy="142.321" r="1" fill="rgb(0,0,0)" />
	<circle cx="1050" cy="225.365" r="1" fill="rgb(0,0,0)" />
</svg>
