<?xml version="1.0" standalone="no" ?>
<!DOCTYPE svg PUBLIC "-//W3C//DTD SVG 1.1//EN" "http://www.w3.org/Graphics/SVG/1.1/DTD/svg11.dtd">
<svg width="1100px" height="542.859px" xmlns="http://www.w3.org/2000/svg" version="1.1" >
	<circle cx="50" cy="94.0931" r="1" fill="rgb(0,0,0)" />
	<circle cx="56.4276" cy="51.5426" r="1" fill="rgb(0,0,0)" />
	<circle cx="63.4979" cy="36.245" r="1" fill="rgb(0,0,0)" />
	<circle cx="82.5235" cy="225.344" r="1" fill="rgb(0,0,0)" />
	<circle cx="108.876" cy="198.091" r="1" fill="rgb(0,0,0)" />
	<circle cx="120.189" cy="261.852" r="1" fill="rgb(0,0,0)" />
	<circle cx="122.246" cy="300.546" r="1" fill="rgb(0,0,0)" />
	<circle cx="159.14" cy="285.12" r="1" fill="rgb(0,0,0)" />
	<circle cx="163.254" cy="224.187" r="1" fill="rgb(0,0,0)" />
	<circle cx="284.735" cy="196.548" r="1" fill="rgb(0,0,0)" />
	<circle cx="340.526" cy="468.563" r="1" fill="rgb(0,0,0)" />
	<circle cx="425.755" cy="24.6754" r="1" fill="rgb(0,0,0)" />
	<circle cx="494.659" cy="352.61" r="1" fill="rgb(0,0,0)" />
	<circle cx="523.968" cy="269.051" r="1" fill="rgb(0,0,0)" />
	<circle cx="534.124" cy="260.567" r="1" fill="rgb(0,0,0)" />
	<circle cx="545.308" cy="322.143" r="1" fill="rgb(0,0,0)" />
	<circle cx="546.079" cy="233.185" r="1" fill="rgb(0,0,0)" />
	<circle cx="550.45" cy="86.8942" r="1" fill="rgb(0,0,0)" />
	<circle cx="556.749" cy="341.426" r="1" fill="rgb(0,0,0)" />
	<circle cx="557.777" cy="251.054" r="1" fill="rgb(0,0,0)" />
	<circle cx="561.248" cy="329.985" r="1" fill="rgb(0,0,0)" />
	<circle cx="566.262" cy="323.686" r="1" fill="rgb(0,0,0)" />
	<circle cx="584.259" cy="390.918" r="1" fill="rgb(0,0,0)" />
	<circle cx="588.887" cy="269.18" r="1" fill="rgb(0,0,0)" />
	<circle cx="595.7" cy="440.796" r="1" fill="rgb(0,0,0)" />
	<circle cx="602.128" cy="72.625" r="1" fill="rgb(0,0,0)" />
	<circle cx="603.413" cy="209.918" r="1" fill="rgb(0,0,0)" />
	<circle cx="605.47" cy="96.7926" r="1" fill="rgb(0,0,0)" />
	<circle cx="618.196" cy="159.011" r="1" fill="rgb(0,0,0)" />
	<circle cx="626.809" cy="278.95" r="1" fill="rgb(0,0,0)" />
	<circle cx="637.093" cy="292.191" r="1" fill="rgb(0,0,0)" />
	<circle cx="646.092" cy="372.021" r="1" fill="rgb(0,0,0)" />
	<circle cx="659.847" cy="243.855" r="1" fill="rgb(0,0,0)" />
	<circle cx="706.511" cy="233.571" r="1" fill="rgb(0,0,0)" />
	<circle cx="708.182" cy="146.285" r="1" fill="rgb(0,0,0)" />
	<circle cx="723.094" cy="145.899" r="1" fill="rgb(0,0,0)" />
	<circle cx="729.008" cy="147.313" r="1" fill="rgb(0,0,0)" />
	<circle cx="736.849" cy="250.926" r="1" fill="rgb(0,0,0)" />
	<circle cx="738.392" cy="318.286" r="1" fill="rgb(0,0,0)" />
	<circle cx="740.32" cy="325.614" r="1" fill="rgb(0,0,0)" />
	<circle cx="743.277" cy="370.864" r="1" fill="rgb(0,0,0)" />
	<circle cx="759.86" cy="196.291" r="1" fill="rgb(0,0,0)" />
	<circle cx="770.144" cy="199.762" r="1" fill="rgb(0,0,0)" />
	<circle cx="776.057" cy="166.725" r="1" fill="rgb(0,0,0)" />
	<circle cx="796.368" cy="265.838" r="1" fill="rgb(0,0,0)" />
	<circle cx="797.782" cy="314.173" r="1" fill="rgb(0,0,0)" />
	<circle cx="802.41" cy="318.672" r="1" fill="rgb(0,0,0)" />
	<circle cx="811.923" cy="141.914" r="1" fill="rgb(0,0,0)" />
	<circle cx="812.952" cy="325.485" r="1" fill="rgb(0,0,0)" />
	<circle cx="833.905" cy="254.911" r="1" fill="rgb(0,0,0)" />
	<circle cx="851.26" cy="270.337" r="1" fill="rgb(0,0,0)" />
	<circle cx="851.774" cy="518.184" r="1" fill="rgb(0,0,0)" />
	<circle cx="858.587" cy="227.529" r="1" fill="rgb(0,0,0)" />
	<circle cx="867.971" cy="283.835" r="1" fill="rgb(0,0,0)" />
	<circle cx="873.885" cy="101.678" r="1" fill="rgb(0,0,0)" />
	<circle cx="882.626" cy="124.945" r="1" fill="rgb(0,0,0)" />
	<circle cx="889.182" cy="117.875" r="1" fill="rgb(0,0,0)" />
	<circle cx="890.854" cy="127.388" r="1" fill="rgb(0,0,0)" />
	<circle cx="891.753" cy="114.918" r="1" fill="rgb(0,0,0)" />
	<circle cx="918.621" cy="272.394" r="1" fill="rgb(0,0,0)" />
	<circle cx="942.274" cy="206.19" r="1" fill="rgb(0,0,0)" />
	<circle cx="945.102" cy="124.688" r="1" fill="rgb(0,0,0)" />
	<circle cx="987.01" cy="174.823" r="1" fill="rgb(0,0,0)" />
	<circle cx="993.309" cy="75.8388" r="1" fill="rgb(0,0,0)" />
	<circle cx="998.837" cy="157.597" r="1" fill="rgb(0,0,0)" />
	<circle cx="999.865" cy="84.1946" r="1" fill="rgb(0,0,0)" />
	<circle cx="1001.15" cy="139.857" r="1" fill="rgb(0,0,0)" />
	<circle cx="1001.66" cy="125.845" r="1" fill="rgb(0,0,0)" />
	<circle cx="1036.76" cy="122.76" r="1" fill="rgb(0,0,0)" />
	<circle cx="1050" cy="136.001" r="1" fill="rgb(0,0,0)" />
</svg>
