<?xml version="1.0" standalone="no" ?>
<!DOCTYPE svg PUBLIC "-//W3C//DTD SVG 1.1//EN" "http://www.w3.org/Graphics/SVG/1.1/DTD/svg11.dtd">
<svg width="1100px" height="557.669px" xmlns="http://www.w3.org/2000/svg" version="1.1" >
	<circle cx="50" cy="347.853" r="1" fill="rgb(0,0,0)" />
	<circle cx="127.245" cy="25.3486" r="1" fill="rgb(0,0,0)" />
	<circle cx="168.795" cy="37.7579" r="1" fill="rgb(0,0,0)" />
	<circle cx="361.907" cy="409.481" r="1" fill="rgb(0,0,0)" />
	<circle cx="382.125" cy="87.3954" r="1" fill="rgb(0,0,0)" />
	<circle cx="535.499" cy="194.06" r="1" fill="rgb(0,0,0)" />
	<circle cx="543.726" cy="472.504" r="1" fill="rgb(0,0,0)" />
	<circle cx="576.074" cy="333.491" r="1" fill="rgb(0,0,0)" />
	<circle cx="638.678" cy="463.162" r="1" fill="rgb(0,0,0)" />
	<circle cx="662.242" cy="282.599" r="1" fill="rgb(0,0,0)" />
	<circle cx="664.194" cy="471.389" r="1" fill="rgb(0,0,0)" />
	<circle cx="669.771" cy="158.366" r="1" fill="rgb(0,0,0)" />
	<circle cx="677.44" cy="193.781" r="1" fill="rgb(0,0,0)" />
	<circle cx="726.38" cy="342.136" r="1" fill="rgb(0,0,0)" />
	<circle cx="734.049" cy="277.301" r="1" fill="rgb(0,0,0)" />
	<circle cx="758.031" cy="171.054" r="1" fill="rgb(0,0,0)" />
	<circle cx="767.652" cy="235.611" r="1" fill="rgb(0,0,0)" />
	<circle cx="775.6" cy="383.826" r="1" fill="rgb(0,0,0)" />
	<circle cx="803.207" cy="228.779" r="1" fill="rgb(0,0,0)" />
	<circle cx="839.041" cy="500.948" r="1" fill="rgb(0,0,0)" />
	<circle cx="869.297" cy="532.32" r="1" fill="rgb(0,0,0)" />
	<circle cx="929.532" cy="311.601" r="1" fill="rgb(0,0,0)" />
	<circle cx="933.993" cy="233.798" r="1" fill="rgb(0,0,0)" />
	<circle cx="941.104" cy="294.73" r="1" fill="rgb(0,0,0)" />
	<circle cx="994.088" cy="153.067" r="1" fill="rgb(0,0,0)" />
	<circle cx="1023.79" cy="228.639" r="1" fill="rgb(0,0,0)" />
	<circle cx="1024.48" cy="242.164" r="1" fill="rgb(0,0,0)" />
	<circle cx="1031.04" cy="126.018" r="1" fill="rgb(0,0,0)" />
	<circle cx="1049.86" cy="196.012" r="1" fill="rgb(0,0,0)" />
	<circle cx="1050" cy="196.849" r="1" fill="rgb(0,0,0)" />
</svg>
