<?xml version="1.0" standalone="no" ?>
<!DOCTYPE svg PUBLIC "-//W3C//DTD SVG 1.1//EN" "http://www.w3.org/Graphics/SVG/1.1/DTD/svg11.dtd">
<svg width="1100px" height="627.912px" xmlns="http://www.w3.org/2000/svg" version="1.1" >
	<circle cx="50" cy="112.624" r="1" fill="rgb(0,0,0)" />
	<circle cx="52.1591" cy="112.744" r="1" fill="rgb(0,0,0)" />
	<circle cx="61.0351" cy="198.027" r="1" fill="rgb(0,0,0)" />
	<circle cx="61.275" cy="105.188" r="1" fill="rgb(0,0,0)" />
	<circle cx="62.1147" cy="104.588" r="1" fill="rgb(0,0,0)" />
	<circle cx="64.3937" cy="189.391" r="1" fill="rgb(0,0,0)" />
	<circle cx="64.8735" cy="230.173" r="1" fill="rgb(0,0,0)" />
	<circle cx="65.3532" cy="296.384" r="1" fill="rgb(0,0,0)" />
	<circle cx="65.953" cy="175.237" r="1" fill="rgb(0,0,0)" />
	<circle cx="65.953" cy="172.118" r="1" fill="rgb(0,0,0)" />
	<circle cx="66.0729" cy="174.997" r="1" fill="rgb(0,0,0)" />
	<circle cx="68.3519" cy="131.576" r="1" fill="rgb(0,0,0)" />
	<circle cx="69.5514" cy="143.091" r="1" fill="rgb(0,0,0)" />
	<circle cx="70.2711" cy="139.852" r="1" fill="rgb(0,0,0)" />
	<circle cx="71.2307" cy="109.386" r="1" fill="rgb(0,0,0)" />
	<circle cx="72.1902" cy="109.506" r="1" fill="rgb(0,0,0)" />
	<circle cx="74.7091" cy="170.799" r="1" fill="rgb(0,0,0)" />
	<circle cx="75.9086" cy="134.215" r="1" fill="rgb(0,0,0)" />
	<circle cx="77.1081" cy="305.38" r="1" fill="rgb(0,0,0)" />
	<circle cx="79.7469" cy="312.337" r="1" fill="rgb(0,0,0)" />
	<circle cx="80.2267" cy="141.532" r="1" fill="rgb(0,0,0)" />
	<circle cx="80.8264" cy="135.055" r="1" fill="rgb(0,0,0)" />
	<circle cx="81.3062" cy="325.531" r="1" fill="rgb(0,0,0)" />
	<circle cx="83.8251" cy="318.214" r="1" fill="rgb(0,0,0)" />
	<circle cx="88.2632" cy="330.928" r="1" fill="rgb(0,0,0)" />
	<circle cx="94.3805" cy="309.698" r="1" fill="rgb(0,0,0)" />
	<circle cx="94.8603" cy="290.986" r="1" fill="rgb(0,0,0)" />
	<circle cx="95.1002" cy="303.221" r="1" fill="rgb(0,0,0)" />
	<circle cx="95.1002" cy="295.064" r="1" fill="rgb(0,0,0)" />
	<circle cx="95.8198" cy="308.498" r="1" fill="rgb(0,0,0)" />
	<circle cx="102.537" cy="316.295" r="1" fill="rgb(0,0,0)" />
	<circle cx="106.255" cy="283.429" r="1" fill="rgb(0,0,0)" />
	<circle cx="108.054" cy="156.285" r="1" fill="rgb(0,0,0)" />
	<circle cx="109.134" cy="361.155" r="1" fill="rgb(0,0,0)" />
	<circle cx="110.573" cy="153.287" r="1" fill="rgb(0,0,0)" />
	<circle cx="120.769" cy="281.51" r="1" fill="rgb(0,0,0)" />
	<circle cx="121.728" cy="279.111" r="1" fill="rgb(0,0,0)" />
	<circle cx="123.887" cy="336.446" r="1" fill="rgb(0,0,0)" />
	<circle cx="123.887" cy="332.608" r="1" fill="rgb(0,0,0)" />
	<circle cx="123.887" cy="94.3925" r="1" fill="rgb(0,0,0)" />
	<circle cx="124.007" cy="100.63" r="1" fill="rgb(0,0,0)" />
	<circle cx="125.447" cy="279.231" r="1" fill="rgb(0,0,0)" />
	<circle cx="127.006" cy="337.885" r="1" fill="rgb(0,0,0)" />
	<circle cx="127.246" cy="350.36" r="1" fill="rgb(0,0,0)" />
	<circle cx="130.724" cy="167.08" r="1" fill="rgb(0,0,0)" />
	<circle cx="132.644" cy="159.284" r="1" fill="rgb(0,0,0)" />
	<circle cx="133.243" cy="375.789" r="1" fill="rgb(0,0,0)" />
	<circle cx="134.683" cy="340.404" r="1" fill="rgb(0,0,0)" />
	<circle cx="139.241" cy="280.431" r="1" fill="rgb(0,0,0)" />
	<circle cx="142.719" cy="373.51" r="1" fill="rgb(0,0,0)" />
	<circle cx="144.039" cy="379.027" r="1" fill="rgb(0,0,0)" />
	<circle cx="144.279" cy="374.829" r="1" fill="rgb(0,0,0)" />
	<circle cx="147.517" cy="384.785" r="1" fill="rgb(0,0,0)" />
	<circle cx="157.233" cy="383.585" r="1" fill="rgb(0,0,0)" />
	<circle cx="162.87" cy="368.952" r="1" fill="rgb(0,0,0)" />
	<circle cx="163.95" cy="368.472" r="1" fill="rgb(0,0,0)" />
	<circle cx="164.43" cy="384.545" r="1" fill="rgb(0,0,0)" />
	<circle cx="164.909" cy="365.713" r="1" fill="rgb(0,0,0)" />
	<circle cx="165.869" cy="385.624" r="1" fill="rgb(0,0,0)" />
	<circle cx="166.109" cy="371.83" r="1" fill="rgb(0,0,0)" />
	<circle cx="169.228" cy="386.704" r="1" fill="rgb(0,0,0)" />
	<circle cx="169.707" cy="396.18" r="1" fill="rgb(0,0,0)" />
	<circle cx="179.783" cy="208.102" r="1" fill="rgb(0,0,0)" />
	<circle cx="181.102" cy="380.826" r="1" fill="rgb(0,0,0)" />
	<circle cx="186.86" cy="376.868" r="1" fill="rgb(0,0,0)" />
	<circle cx="188.779" cy="390.422" r="1" fill="rgb(0,0,0)" />
	<circle cx="194.776" cy="400.858" r="1" fill="rgb(0,0,0)" />
	<circle cx="203.412" cy="342.323" r="1" fill="rgb(0,0,0)" />
	<circle cx="205.212" cy="343.043" r="1" fill="rgb(0,0,0)" />
	<circle cx="207.851" cy="284.629" r="1" fill="rgb(0,0,0)" />
	<circle cx="208.69" cy="405.775" r="1" fill="rgb(0,0,0)" />
	<circle cx="209.77" cy="344.003" r="1" fill="rgb(0,0,0)" />
	<circle cx="214.448" cy="331.168" r="1" fill="rgb(0,0,0)" />
	<circle cx="221.045" cy="399.778" r="1" fill="rgb(0,0,0)" />
	<circle cx="225.003" cy="147.169" r="1" fill="rgb(0,0,0)" />
	<circle cx="233.999" cy="427.006" r="1" fill="rgb(0,0,0)" />
	<circle cx="235.079" cy="33.9391" r="1" fill="rgb(0,0,0)" />
	<circle cx="235.798" cy="96.1917" r="1" fill="rgb(0,0,0)" />
	<circle cx="237.837" cy="28.5414" r="1" fill="rgb(0,0,0)" />
	<circle cx="238.437" cy="30.2207" r="1" fill="rgb(0,0,0)" />
	<circle cx="238.677" cy="32.4997" r="1" fill="rgb(0,0,0)" />
	<circle cx="243.115" cy="41.4957" r="1" fill="rgb(0,0,0)" />
	<circle cx="256.309" cy="390.062" r="1" fill="rgb(0,0,0)" />
	<circle cx="260.387" cy="44.9742" r="1" fill="rgb(0,0,0)" />
	<circle cx="262.307" cy="258.6" r="1" fill="rgb(0,0,0)" />
	<circle cx="262.546" cy="383.465" r="1" fill="rgb(0,0,0)" />
	<circle cx="262.666" cy="382.985" r="1" fill="rgb(0,0,0)" />
	<circle cx="263.626" cy="118.022" r="1" fill="rgb(0,0,0)" />
	<circle cx="264.945" cy="393.661" r="1" fill="rgb(0,0,0)" />
	<circle cx="265.185" cy="257.281" r="1" fill="rgb(0,0,0)" />
	<circle cx="267.344" cy="73.0419" r="1" fill="rgb(0,0,0)" />
	<circle cx="271.662" cy="261.599" r="1" fill="rgb(0,0,0)" />
	<circle cx="281.378" cy="41.3758" r="1" fill="rgb(0,0,0)" />
	<circle cx="281.618" cy="40.6561" r="1" fill="rgb(0,0,0)" />
	<circle cx="284.137" cy="390.662" r="1" fill="rgb(0,0,0)" />
	<circle cx="292.173" cy="423.048" r="1" fill="rgb(0,0,0)" />
	<circle cx="296.492" cy="31.0603" r="1" fill="rgb(0,0,0)" />
	<circle cx="297.091" cy="342.203" r="1" fill="rgb(0,0,0)" />
	<circle cx="297.331" cy="31.78" r="1" fill="rgb(0,0,0)" />
	<circle cx="299.97" cy="221.776" r="1" fill="rgb(0,0,0)" />
	<circle cx="300.21" cy="40.5362" r="1" fill="rgb(0,0,0)" />
	<circle cx="303.808" cy="330.329" r="1" fill="rgb(0,0,0)" />
	<circle cx="315.803" cy="30.8204" r="1" fill="rgb(0,0,0)" />
	<circle cx="318.562" cy="33.8191" r="1" fill="rgb(0,0,0)" />
	<circle cx="321.441" cy="200.546" r="1" fill="rgb(0,0,0)" />
	<circle cx="334.035" cy="532.68" r="1" fill="rgb(0,0,0)" />
	<circle cx="337.394" cy="86.1161" r="1" fill="rgb(0,0,0)" />
	<circle cx="338.233" cy="282.11" r="1" fill="rgb(0,0,0)" />
	<circle cx="349.148" cy="547.433" r="1" fill="rgb(0,0,0)" />
	<circle cx="349.148" cy="479.663" r="1" fill="rgb(0,0,0)" />
	<circle cx="352.387" cy="53.0107" r="1" fill="rgb(0,0,0)" />
	<circle cx="357.905" cy="50.8516" r="1" fill="rgb(0,0,0)" />
	<circle cx="359.344" cy="53.7304" r="1" fill="rgb(0,0,0)" />
	<circle cx="361.503" cy="414.292" r="1" fill="rgb(0,0,0)" />
	<circle cx="361.983" cy="414.412" r="1" fill="rgb(0,0,0)" />
	<circle cx="362.103" cy="414.292" r="1" fill="rgb(0,0,0)" />
	<circle cx="363.542" cy="417.89" r="1" fill="rgb(0,0,0)" />
	<circle cx="367.62" cy="343.643" r="1" fill="rgb(0,0,0)" />
	<circle cx="370.019" cy="269.755" r="1" fill="rgb(0,0,0)" />
	<circle cx="371.219" cy="155.566" r="1" fill="rgb(0,0,0)" />
	<circle cx="371.459" cy="476.065" r="1" fill="rgb(0,0,0)" />
	<circle cx="376.256" cy="391.382" r="1" fill="rgb(0,0,0)" />
	<circle cx="376.496" cy="137.813" r="1" fill="rgb(0,0,0)" />
	<circle cx="383.453" cy="275.753" r="1" fill="rgb(0,0,0)" />
	<circle cx="384.293" cy="272.874" r="1" fill="rgb(0,0,0)" />
	<circle cx="385.013" cy="260.759" r="1" fill="rgb(0,0,0)" />
	<circle cx="385.852" cy="274.073" r="1" fill="rgb(0,0,0)" />
	<circle cx="387.412" cy="131.096" r="1" fill="rgb(0,0,0)" />
	<circle cx="388.491" cy="279.591" r="1" fill="rgb(0,0,0)" />
	<circle cx="388.491" cy="272.874" r="1" fill="rgb(0,0,0)" />
	<circle cx="390.41" cy="282.59" r="1" fill="rgb(0,0,0)" />
	<circle cx="391.49" cy="261.839" r="1" fill="rgb(0,0,0)" />
	<circle cx="391.73" cy="276.232" r="1" fill="rgb(0,0,0)" />
	<circle cx="393.889" cy="187.232" r="1" fill="rgb(0,0,0)" />
	<circle cx="394.608" cy="275.753" r="1" fill="rgb(0,0,0)" />
	<circle cx="395.328" cy="266.397" r="1" fill="rgb(0,0,0)" />
	<circle cx="395.928" cy="391.142" r="1" fill="rgb(0,0,0)" />
	<circle cx="397.847" cy="82.3977" r="1" fill="rgb(0,0,0)" />
	<circle cx="399.046" cy="275.873" r="1" fill="rgb(0,0,0)" />
	<circle cx="406.963" cy="127.738" r="1" fill="rgb(0,0,0)" />
	<circle cx="407.683" cy="187.591" r="1" fill="rgb(0,0,0)" />
	<circle cx="407.803" cy="124.019" r="1" fill="rgb(0,0,0)" />
	<circle cx="416.919" cy="532.56" r="1" fill="rgb(0,0,0)" />
	<circle cx="419.078" cy="306.459" r="1" fill="rgb(0,0,0)" />
	<circle cx="420.517" cy="525.363" r="1" fill="rgb(0,0,0)" />
	<circle cx="421.237" cy="130.257" r="1" fill="rgb(0,0,0)" />
	<circle cx="422.556" cy="336.326" r="1" fill="rgb(0,0,0)" />
	<circle cx="427.234" cy="107.707" r="1" fill="rgb(0,0,0)" />
	<circle cx="428.433" cy="56.4891" r="1" fill="rgb(0,0,0)" />
	<circle cx="433.471" cy="127.258" r="1" fill="rgb(0,0,0)" />
	<circle cx="435.39" cy="425.687" r="1" fill="rgb(0,0,0)" />
	<circle cx="435.51" cy="386.584" r="1" fill="rgb(0,0,0)" />
	<circle cx="442.707" cy="95.7119" r="1" fill="rgb(0,0,0)" />
	<circle cx="445.466" cy="386.104" r="1" fill="rgb(0,0,0)" />
	<circle cx="447.505" cy="88.7549" r="1" fill="rgb(0,0,0)" />
	<circle cx="448.345" cy="349.52" r="1" fill="rgb(0,0,0)" />
	<circle cx="449.184" cy="400.498" r="1" fill="rgb(0,0,0)" />
	<circle cx="450.504" cy="507.611" r="1" fill="rgb(0,0,0)" />
	<circle cx="450.864" cy="418.13" r="1" fill="rgb(0,0,0)" />
	<circle cx="450.864" cy="416.451" r="1" fill="rgb(0,0,0)" />
	<circle cx="454.582" cy="436.842" r="1" fill="rgb(0,0,0)" />
	<circle cx="465.497" cy="565.665" r="1" fill="rgb(0,0,0)" />
	<circle cx="468.016" cy="473.786" r="1" fill="rgb(0,0,0)" />
	<circle cx="469.216" cy="514.328" r="1" fill="rgb(0,0,0)" />
	<circle cx="473.654" cy="514.568" r="1" fill="rgb(0,0,0)" />
	<circle cx="473.774" cy="530.161" r="1" fill="rgb(0,0,0)" />
	<circle cx="473.774" cy="524.163" r="1" fill="rgb(0,0,0)" />
	<circle cx="480.371" cy="484.221" r="1" fill="rgb(0,0,0)" />
	<circle cx="480.611" cy="408.054" r="1" fill="rgb(0,0,0)" />
	<circle cx="484.209" cy="496.695" r="1" fill="rgb(0,0,0)" />
	<circle cx="486.248" cy="519.126" r="1" fill="rgb(0,0,0)" />
	<circle cx="488.167" cy="258.36" r="1" fill="rgb(0,0,0)" />
	<circle cx="491.046" cy="481.342" r="1" fill="rgb(0,0,0)" />
	<circle cx="493.325" cy="479.063" r="1" fill="rgb(0,0,0)" />
	<circle cx="495.124" cy="421.129" r="1" fill="rgb(0,0,0)" />
	<circle cx="500.282" cy="147.049" r="1" fill="rgb(0,0,0)" />
	<circle cx="502.681" cy="396.06" r="1" fill="rgb(0,0,0)" />
	<circle cx="504.72" cy="517.206" r="1" fill="rgb(0,0,0)" />
	<circle cx="506.279" cy="441.16" r="1" fill="rgb(0,0,0)" />
	<circle cx="508.558" cy="360.076" r="1" fill="rgb(0,0,0)" />
	<circle cx="509.398" cy="325.891" r="1" fill="rgb(0,0,0)" />
	<circle cx="509.998" cy="516.607" r="1" fill="rgb(0,0,0)" />
	<circle cx="511.317" cy="493.217" r="1" fill="rgb(0,0,0)" />
	<circle cx="511.437" cy="523.684" r="1" fill="rgb(0,0,0)" />
	<circle cx="512.037" cy="454.594" r="1" fill="rgb(0,0,0)" />
	<circle cx="513.716" cy="370.631" r="1" fill="rgb(0,0,0)" />
	<circle cx="513.836" cy="361.155" r="1" fill="rgb(0,0,0)" />
	<circle cx="513.956" cy="444.998" r="1" fill="rgb(0,0,0)" />
	<circle cx="514.795" cy="450.516" r="1" fill="rgb(0,0,0)" />
	<circle cx="515.635" cy="497.175" r="1" fill="rgb(0,0,0)" />
	<circle cx="520.553" cy="467.788" r="1" fill="rgb(0,0,0)" />
	<circle cx="524.031" cy="406.855" r="1" fill="rgb(0,0,0)" />
	<circle cx="524.631" cy="401.937" r="1" fill="rgb(0,0,0)" />
	<circle cx="525.471" cy="399.898" r="1" fill="rgb(0,0,0)" />
	<circle cx="525.831" cy="397.859" r="1" fill="rgb(0,0,0)" />
	<circle cx="526.43" cy="94.2725" r="1" fill="rgb(0,0,0)" />
	<circle cx="526.79" cy="313.656" r="1" fill="rgb(0,0,0)" />
	<circle cx="527.75" cy="424.967" r="1" fill="rgb(0,0,0)" />
	<circle cx="528.35" cy="403.976" r="1" fill="rgb(0,0,0)" />
	<circle cx="528.829" cy="210.261" r="1" fill="rgb(0,0,0)" />
	<circle cx="529.909" cy="399.538" r="1" fill="rgb(0,0,0)" />
	<circle cx="530.029" cy="485.3" r="1" fill="rgb(0,0,0)" />
	<circle cx="530.029" cy="413.812" r="1" fill="rgb(0,0,0)" />
	<circle cx="531.108" cy="405.536" r="1" fill="rgb(0,0,0)" />
	<circle cx="532.428" cy="310.897" r="1" fill="rgb(0,0,0)" />
	<circle cx="532.908" cy="393.541" r="1" fill="rgb(0,0,0)" />
	<circle cx="533.027" cy="408.894" r="1" fill="rgb(0,0,0)" />
	<circle cx="535.906" cy="402.417" r="1" fill="rgb(0,0,0)" />
	<circle cx="540.344" cy="429.765" r="1" fill="rgb(0,0,0)" />
	<circle cx="541.904" cy="405.895" r="1" fill="rgb(0,0,0)" />
	<circle cx="542.143" cy="384.905" r="1" fill="rgb(0,0,0)" />
	<circle cx="543.583" cy="437.681" r="1" fill="rgb(0,0,0)" />
	<circle cx="543.943" cy="341.484" r="1" fill="rgb(0,0,0)" />
	<circle cx="545.742" cy="472.826" r="1" fill="rgb(0,0,0)" />
	<circle cx="546.582" cy="124.739" r="1" fill="rgb(0,0,0)" />
	<circle cx="548.621" cy="343.763" r="1" fill="rgb(0,0,0)" />
	<circle cx="550.3" cy="259.32" r="1" fill="rgb(0,0,0)" />
	<circle cx="551.739" cy="344.243" r="1" fill="rgb(0,0,0)" />
	<circle cx="552.939" cy="287.867" r="1" fill="rgb(0,0,0)" />
	<circle cx="553.299" cy="459.152" r="1" fill="rgb(0,0,0)" />
	<circle cx="554.138" cy="470.427" r="1" fill="rgb(0,0,0)" />
	<circle cx="554.258" cy="444.159" r="1" fill="rgb(0,0,0)" />
	<circle cx="554.738" cy="287.388" r="1" fill="rgb(0,0,0)" />
	<circle cx="555.817" cy="176.077" r="1" fill="rgb(0,0,0)" />
	<circle cx="557.257" cy="460.112" r="1" fill="rgb(0,0,0)" />
	<circle cx="559.416" cy="226.814" r="1" fill="rgb(0,0,0)" />
	<circle cx="560.136" cy="409.614" r="1" fill="rgb(0,0,0)" />
	<circle cx="560.615" cy="456.033" r="1" fill="rgb(0,0,0)" />
	<circle cx="560.735" cy="415.491" r="1" fill="rgb(0,0,0)" />
	<circle cx="561.335" cy="445.598" r="1" fill="rgb(0,0,0)" />
	<circle cx="564.094" cy="460.112" r="1" fill="rgb(0,0,0)" />
	<circle cx="564.574" cy="341.124" r="1" fill="rgb(0,0,0)" />
	<circle cx="565.533" cy="266.037" r="1" fill="rgb(0,0,0)" />
	<circle cx="565.893" cy="258.12" r="1" fill="rgb(0,0,0)" />
	<circle cx="566.613" cy="456.393" r="1" fill="rgb(0,0,0)" />
	<circle cx="568.772" cy="520.925" r="1" fill="rgb(0,0,0)" />
	<circle cx="569.731" cy="272.634" r="1" fill="rgb(0,0,0)" />
	<circle cx="572.13" cy="189.87" r="1" fill="rgb(0,0,0)" />
	<circle cx="572.25" cy="284.389" r="1" fill="rgb(0,0,0)" />
	<circle cx="576.328" cy="323.971" r="1" fill="rgb(0,0,0)" />
	<circle cx="578.967" cy="405.656" r="1" fill="rgb(0,0,0)" />
	<circle cx="581.726" cy="445.958" r="1" fill="rgb(0,0,0)" />
	<circle cx="581.726" cy="290.866" r="1" fill="rgb(0,0,0)" />
	<circle cx="585.924" cy="397.619" r="1" fill="rgb(0,0,0)" />
	<circle cx="586.764" cy="242.287" r="1" fill="rgb(0,0,0)" />
	<circle cx="587.843" cy="410.933" r="1" fill="rgb(0,0,0)" />
	<circle cx="588.323" cy="406.855" r="1" fill="rgb(0,0,0)" />
	<circle cx="591.082" cy="185.672" r="1" fill="rgb(0,0,0)" />
	<circle cx="591.202" cy="243.007" r="1" fill="rgb(0,0,0)" />
	<circle cx="594.56" cy="442.599" r="1" fill="rgb(0,0,0)" />
	<circle cx="595.88" cy="180.035" r="1" fill="rgb(0,0,0)" />
	<circle cx="597.199" cy="433.603" r="1" fill="rgb(0,0,0)" />
	<circle cx="599.238" cy="447.997" r="1" fill="rgb(0,0,0)" />
	<circle cx="600.438" cy="323.252" r="1" fill="rgb(0,0,0)" />
	<circle cx="600.558" cy="355.997" r="1" fill="rgb(0,0,0)" />
	<circle cx="600.798" cy="186.032" r="1" fill="rgb(0,0,0)" />
	<circle cx="601.157" cy="183.273" r="1" fill="rgb(0,0,0)" />
	<circle cx="601.397" cy="339.205" r="1" fill="rgb(0,0,0)" />
	<circle cx="601.517" cy="419.569" r="1" fill="rgb(0,0,0)" />
	<circle cx="603.317" cy="184.353" r="1" fill="rgb(0,0,0)" />
	<circle cx="605.476" cy="373.03" r="1" fill="rgb(0,0,0)" />
	<circle cx="607.035" cy="385.864" r="1" fill="rgb(0,0,0)" />
	<circle cx="610.034" cy="135.894" r="1" fill="rgb(0,0,0)" />
	<circle cx="614.472" cy="367.272" r="1" fill="rgb(0,0,0)" />
	<circle cx="616.871" cy="446.677" r="1" fill="rgb(0,0,0)" />
	<circle cx="621.189" cy="177.036" r="1" fill="rgb(0,0,0)" />
	<circle cx="623.708" cy="129.177" r="1" fill="rgb(0,0,0)" />
	<circle cx="625.387" cy="450.996" r="1" fill="rgb(0,0,0)" />
	<circle cx="629.825" cy="163.242" r="1" fill="rgb(0,0,0)" />
	<circle cx="635.103" cy="457.113" r="1" fill="rgb(0,0,0)" />
	<circle cx="635.342" cy="442.359" r="1" fill="rgb(0,0,0)" />
	<circle cx="637.741" cy="442.959" r="1" fill="rgb(0,0,0)" />
	<circle cx="639.9" cy="440.8" r="1" fill="rgb(0,0,0)" />
	<circle cx="640.62" cy="437.202" r="1" fill="rgb(0,0,0)" />
	<circle cx="642.659" cy="182.074" r="1" fill="rgb(0,0,0)" />
	<circle cx="643.259" cy="450.636" r="1" fill="rgb(0,0,0)" />
	<circle cx="643.499" cy="361.275" r="1" fill="rgb(0,0,0)" />
	<circle cx="644.938" cy="263.518" r="1" fill="rgb(0,0,0)" />
	<circle cx="645.538" cy="311.257" r="1" fill="rgb(0,0,0)" />
	<circle cx="645.898" cy="345.562" r="1" fill="rgb(0,0,0)" />
	<circle cx="646.138" cy="204.144" r="1" fill="rgb(0,0,0)" />
	<circle cx="647.097" cy="450.516" r="1" fill="rgb(0,0,0)" />
	<circle cx="648.297" cy="371.111" r="1" fill="rgb(0,0,0)" />
	<circle cx="648.896" cy="402.537" r="1" fill="rgb(0,0,0)" />
	<circle cx="649.856" cy="302.021" r="1" fill="rgb(0,0,0)" />
	<circle cx="649.856" cy="297.703" r="1" fill="rgb(0,0,0)" />
	<circle cx="651.295" cy="293.385" r="1" fill="rgb(0,0,0)" />
	<circle cx="651.895" cy="354.198" r="1" fill="rgb(0,0,0)" />
	<circle cx="652.015" cy="450.156" r="1" fill="rgb(0,0,0)" />
	<circle cx="652.375" cy="290.506" r="1" fill="rgb(0,0,0)" />
	<circle cx="652.855" cy="294.464" r="1" fill="rgb(0,0,0)" />
	<circle cx="653.215" cy="290.866" r="1" fill="rgb(0,0,0)" />
	<circle cx="653.454" cy="450.396" r="1" fill="rgb(0,0,0)" />
	<circle cx="653.694" cy="409.734" r="1" fill="rgb(0,0,0)" />
	<circle cx="654.774" cy="287.148" r="1" fill="rgb(0,0,0)" />
	<circle cx="657.173" cy="359.356" r="1" fill="rgb(0,0,0)" />
	<circle cx="657.533" cy="399.058" r="1" fill="rgb(0,0,0)" />
	<circle cx="657.533" cy="331.168" r="1" fill="rgb(0,0,0)" />
	<circle cx="658.492" cy="444.878" r="1" fill="rgb(0,0,0)" />
	<circle cx="658.732" cy="344.362" r="1" fill="rgb(0,0,0)" />
	<circle cx="658.852" cy="445.478" r="1" fill="rgb(0,0,0)" />
	<circle cx="659.092" cy="346.881" r="1" fill="rgb(0,0,0)" />
	<circle cx="659.452" cy="427.486" r="1" fill="rgb(0,0,0)" />
	<circle cx="660.411" cy="286.548" r="1" fill="rgb(0,0,0)" />
	<circle cx="660.531" cy="207.023" r="1" fill="rgb(0,0,0)" />
	<circle cx="660.651" cy="287.148" r="1" fill="rgb(0,0,0)" />
	<circle cx="661.131" cy="296.983" r="1" fill="rgb(0,0,0)" />
	<circle cx="662.211" cy="358.876" r="1" fill="rgb(0,0,0)" />
	<circle cx="664.849" cy="422.688" r="1" fill="rgb(0,0,0)" />
	<circle cx="664.849" cy="256.921" r="1" fill="rgb(0,0,0)" />
	<circle cx="664.969" cy="402.057" r="1" fill="rgb(0,0,0)" />
	<circle cx="666.169" cy="261.959" r="1" fill="rgb(0,0,0)" />
	<circle cx="666.649" cy="408.534" r="1" fill="rgb(0,0,0)" />
	<circle cx="666.889" cy="214.34" r="1" fill="rgb(0,0,0)" />
	<circle cx="667.248" cy="365.113" r="1" fill="rgb(0,0,0)" />
	<circle cx="669.647" cy="443.559" r="1" fill="rgb(0,0,0)" />
	<circle cx="670.487" cy="306.939" r="1" fill="rgb(0,0,0)" />
	<circle cx="673.246" cy="443.079" r="1" fill="rgb(0,0,0)" />
	<circle cx="673.965" cy="192.869" r="1" fill="rgb(0,0,0)" />
	<circle cx="675.045" cy="220.217" r="1" fill="rgb(0,0,0)" />
	<circle cx="678.763" cy="362.475" r="1" fill="rgb(0,0,0)" />
	<circle cx="679.123" cy="443.919" r="1" fill="rgb(0,0,0)" />
	<circle cx="679.483" cy="213.62" r="1" fill="rgb(0,0,0)" />
	<circle cx="683.081" cy="196.348" r="1" fill="rgb(0,0,0)" />
	<circle cx="683.441" cy="195.988" r="1" fill="rgb(0,0,0)" />
	<circle cx="684.881" cy="149.808" r="1" fill="rgb(0,0,0)" />
	<circle cx="685.121" cy="362.714" r="1" fill="rgb(0,0,0)" />
	<circle cx="685.24" cy="233.771" r="1" fill="rgb(0,0,0)" />
	<circle cx="685.6" cy="196.588" r="1" fill="rgb(0,0,0)" />
	<circle cx="687.04" cy="228.613" r="1" fill="rgb(0,0,0)" />
	<circle cx="687.639" cy="477.744" r="1" fill="rgb(0,0,0)" />
	<circle cx="687.639" cy="216.859" r="1" fill="rgb(0,0,0)" />
	<circle cx="687.879" cy="321.932" r="1" fill="rgb(0,0,0)" />
	<circle cx="688.119" cy="195.028" r="1" fill="rgb(0,0,0)" />
	<circle cx="688.359" cy="218.778" r="1" fill="rgb(0,0,0)" />
	<circle cx="689.559" cy="218.178" r="1" fill="rgb(0,0,0)" />
	<circle cx="690.278" cy="440.32" r="1" fill="rgb(0,0,0)" />
	<circle cx="690.758" cy="338.485" r="1" fill="rgb(0,0,0)" />
	<circle cx="690.758" cy="233.051" r="1" fill="rgb(0,0,0)" />
	<circle cx="690.878" cy="220.337" r="1" fill="rgb(0,0,0)" />
	<circle cx="693.157" cy="407.095" r="1" fill="rgb(0,0,0)" />
	<circle cx="693.997" cy="272.874" r="1" fill="rgb(0,0,0)" />
	<circle cx="694.117" cy="276.472" r="1" fill="rgb(0,0,0)" />
	<circle cx="694.356" cy="210.981" r="1" fill="rgb(0,0,0)" />
	<circle cx="694.476" cy="213.5" r="1" fill="rgb(0,0,0)" />
	<circle cx="695.796" cy="242.527" r="1" fill="rgb(0,0,0)" />
	<circle cx="696.396" cy="241.208" r="1" fill="rgb(0,0,0)" />
	<circle cx="697.595" cy="307.899" r="1" fill="rgb(0,0,0)" />
	<circle cx="697.955" cy="179.435" r="1" fill="rgb(0,0,0)" />
	<circle cx="698.195" cy="278.032" r="1" fill="rgb(0,0,0)" />
	<circle cx="698.435" cy="178.835" r="1" fill="rgb(0,0,0)" />
	<circle cx="699.634" cy="307.419" r="1" fill="rgb(0,0,0)" />
	<circle cx="700.114" cy="173.798" r="1" fill="rgb(0,0,0)" />
	<circle cx="700.714" cy="295.184" r="1" fill="rgb(0,0,0)" />
	<circle cx="700.954" cy="368.712" r="1" fill="rgb(0,0,0)" />
	<circle cx="701.673" cy="244.806" r="1" fill="rgb(0,0,0)" />
	<circle cx="701.913" cy="362.834" r="1" fill="rgb(0,0,0)" />
	<circle cx="703.952" cy="243.247" r="1" fill="rgb(0,0,0)" />
	<circle cx="704.192" cy="424.007" r="1" fill="rgb(0,0,0)" />
	<circle cx="705.032" cy="392.461" r="1" fill="rgb(0,0,0)" />
	<circle cx="706.111" cy="383.945" r="1" fill="rgb(0,0,0)" />
	<circle cx="706.711" cy="279.111" r="1" fill="rgb(0,0,0)" />
	<circle cx="707.671" cy="382.026" r="1" fill="rgb(0,0,0)" />
	<circle cx="708.15" cy="256.681" r="1" fill="rgb(0,0,0)" />
	<circle cx="708.87" cy="336.206" r="1" fill="rgb(0,0,0)" />
	<circle cx="709.35" cy="367.272" r="1" fill="rgb(0,0,0)" />
	<circle cx="709.83" cy="243.967" r="1" fill="rgb(0,0,0)" />
	<circle cx="710.19" cy="407.815" r="1" fill="rgb(0,0,0)" />
	<circle cx="711.029" cy="370.751" r="1" fill="rgb(0,0,0)" />
	<circle cx="713.428" cy="335.726" r="1" fill="rgb(0,0,0)" />
	<circle cx="715.347" cy="341.124" r="1" fill="rgb(0,0,0)" />
	<circle cx="716.667" cy="437.202" r="1" fill="rgb(0,0,0)" />
	<circle cx="716.787" cy="339.924" r="1" fill="rgb(0,0,0)" />
	<circle cx="717.386" cy="336.566" r="1" fill="rgb(0,0,0)" />
	<circle cx="717.986" cy="277.672" r="1" fill="rgb(0,0,0)" />
	<circle cx="718.106" cy="358.396" r="1" fill="rgb(0,0,0)" />
	<circle cx="720.865" cy="405.416" r="1" fill="rgb(0,0,0)" />
	<circle cx="720.865" cy="345.322" r="1" fill="rgb(0,0,0)" />
	<circle cx="720.985" cy="337.645" r="1" fill="rgb(0,0,0)" />
	<circle cx="721.704" cy="277.792" r="1" fill="rgb(0,0,0)" />
	<circle cx="722.064" cy="341.124" r="1" fill="rgb(0,0,0)" />
	<circle cx="722.184" cy="280.551" r="1" fill="rgb(0,0,0)" />
	<circle cx="722.304" cy="271.435" r="1" fill="rgb(0,0,0)" />
	<circle cx="723.144" cy="237.969" r="1" fill="rgb(0,0,0)" />
	<circle cx="723.504" cy="428.445" r="1" fill="rgb(0,0,0)" />
	<circle cx="724.343" cy="404.576" r="1" fill="rgb(0,0,0)" />
	<circle cx="724.463" cy="345.802" r="1" fill="rgb(0,0,0)" />
	<circle cx="724.583" cy="395.46" r="1" fill="rgb(0,0,0)" />
	<circle cx="725.783" cy="421.249" r="1" fill="rgb(0,0,0)" />
	<circle cx="725.903" cy="221.417" r="1" fill="rgb(0,0,0)" />
	<circle cx="726.142" cy="234.011" r="1" fill="rgb(0,0,0)" />
	<circle cx="726.262" cy="356.117" r="1" fill="rgb(0,0,0)" />
	<circle cx="726.742" cy="388.023" r="1" fill="rgb(0,0,0)" />
	<circle cx="730.7" cy="320.493" r="1" fill="rgb(0,0,0)" />
	<circle cx="730.94" cy="397.739" r="1" fill="rgb(0,0,0)" />
	<circle cx="731.3" cy="313.296" r="1" fill="rgb(0,0,0)" />
	<circle cx="732.74" cy="272.034" r="1" fill="rgb(0,0,0)" />
	<circle cx="736.098" cy="245.406" r="1" fill="rgb(0,0,0)" />
	<circle cx="738.017" cy="341.244" r="1" fill="rgb(0,0,0)" />
	<circle cx="738.377" cy="345.322" r="1" fill="rgb(0,0,0)" />
	<circle cx="738.977" cy="394.261" r="1" fill="rgb(0,0,0)" />
	<circle cx="739.936" cy="251.283" r="1" fill="rgb(0,0,0)" />
	<circle cx="742.335" cy="364.514" r="1" fill="rgb(0,0,0)" />
	<circle cx="743.775" cy="434.083" r="1" fill="rgb(0,0,0)" />
	<circle cx="745.334" cy="430.245" r="1" fill="rgb(0,0,0)" />
	<circle cx="746.174" cy="246.366" r="1" fill="rgb(0,0,0)" />
	<circle cx="746.294" cy="406.615" r="1" fill="rgb(0,0,0)" />
	<circle cx="746.294" cy="210.022" r="1" fill="rgb(0,0,0)" />
	<circle cx="746.773" cy="360.435" r="1" fill="rgb(0,0,0)" />
	<circle cx="747.133" cy="358.756" r="1" fill="rgb(0,0,0)" />
	<circle cx="747.853" cy="406.855" r="1" fill="rgb(0,0,0)" />
	<circle cx="749.052" cy="273.234" r="1" fill="rgb(0,0,0)" />
	<circle cx="750.012" cy="285.468" r="1" fill="rgb(0,0,0)" />
	<circle cx="751.811" cy="245.166" r="1" fill="rgb(0,0,0)" />
	<circle cx="752.411" cy="399.298" r="1" fill="rgb(0,0,0)" />
	<circle cx="753.61" cy="323.252" r="1" fill="rgb(0,0,0)" />
	<circle cx="753.85" cy="352.399" r="1" fill="rgb(0,0,0)" />
	<circle cx="754.33" cy="309.578" r="1" fill="rgb(0,0,0)" />
	<circle cx="754.69" cy="341.724" r="1" fill="rgb(0,0,0)" />
	<circle cx="754.81" cy="385.864" r="1" fill="rgb(0,0,0)" />
	<circle cx="755.29" cy="284.629" r="1" fill="rgb(0,0,0)" />
	<circle cx="755.41" cy="389.942" r="1" fill="rgb(0,0,0)" />
	<circle cx="755.53" cy="287.388" r="1" fill="rgb(0,0,0)" />
	<circle cx="755.65" cy="251.403" r="1" fill="rgb(0,0,0)" />
	<circle cx="757.329" cy="285.468" r="1" fill="rgb(0,0,0)" />
	<circle cx="758.168" cy="389.942" r="1" fill="rgb(0,0,0)" />
	<circle cx="759.008" cy="363.914" r="1" fill="rgb(0,0,0)" />
	<circle cx="759.488" cy="344.722" r="1" fill="rgb(0,0,0)" />
	<circle cx="759.848" cy="343.043" r="1" fill="rgb(0,0,0)" />
	<circle cx="760.447" cy="412.972" r="1" fill="rgb(0,0,0)" />
	<circle cx="760.927" cy="276.232" r="1" fill="rgb(0,0,0)" />
	<circle cx="761.287" cy="274.193" r="1" fill="rgb(0,0,0)" />
	<circle cx="762.007" cy="419.809" r="1" fill="rgb(0,0,0)" />
	<circle cx="763.566" cy="430.365" r="1" fill="rgb(0,0,0)" />
	<circle cx="765.725" cy="259.32" r="1" fill="rgb(0,0,0)" />
	<circle cx="765.965" cy="376.868" r="1" fill="rgb(0,0,0)" />
	<circle cx="766.325" cy="271.555" r="1" fill="rgb(0,0,0)" />
	<circle cx="766.445" cy="249.484" r="1" fill="rgb(0,0,0)" />
	<circle cx="766.925" cy="343.523" r="1" fill="rgb(0,0,0)" />
	<circle cx="768.004" cy="377.828" r="1" fill="rgb(0,0,0)" />
	<circle cx="768.244" cy="281.27" r="1" fill="rgb(0,0,0)" />
	<circle cx="768.724" cy="267.956" r="1" fill="rgb(0,0,0)" />
	<circle cx="768.844" cy="222.016" r="1" fill="rgb(0,0,0)" />
	<circle cx="770.643" cy="233.171" r="1" fill="rgb(0,0,0)" />
	<circle cx="771.483" cy="229.453" r="1" fill="rgb(0,0,0)" />
	<circle cx="771.962" cy="379.147" r="1" fill="rgb(0,0,0)" />
	<circle cx="772.442" cy="376.388" r="1" fill="rgb(0,0,0)" />
	<circle cx="773.402" cy="244.207" r="1" fill="rgb(0,0,0)" />
	<circle cx="773.881" cy="380.706" r="1" fill="rgb(0,0,0)" />
	<circle cx="774.961" cy="304.18" r="1" fill="rgb(0,0,0)" />
	<circle cx="775.441" cy="245.046" r="1" fill="rgb(0,0,0)" />
	<circle cx="776.52" cy="234.251" r="1" fill="rgb(0,0,0)" />
	<circle cx="777" cy="369.431" r="1" fill="rgb(0,0,0)" />
	<circle cx="777.12" cy="340.644" r="1" fill="rgb(0,0,0)" />
	<circle cx="777.24" cy="218.058" r="1" fill="rgb(0,0,0)" />
	<circle cx="777.96" cy="223.696" r="1" fill="rgb(0,0,0)" />
	<circle cx="778.559" cy="404.456" r="1" fill="rgb(0,0,0)" />
	<circle cx="778.799" cy="226.694" r="1" fill="rgb(0,0,0)" />
	<circle cx="779.999" cy="412.133" r="1" fill="rgb(0,0,0)" />
	<circle cx="781.078" cy="371.71" r="1" fill="rgb(0,0,0)" />
	<circle cx="782.878" cy="256.561" r="1" fill="rgb(0,0,0)" />
	<circle cx="783.117" cy="227.534" r="1" fill="rgb(0,0,0)" />
	<circle cx="786.236" cy="227.054" r="1" fill="rgb(0,0,0)" />
	<circle cx="786.836" cy="258.12" r="1" fill="rgb(0,0,0)" />
	<circle cx="787.436" cy="490.818" r="1" fill="rgb(0,0,0)" />
	<circle cx="787.436" cy="367.392" r="1" fill="rgb(0,0,0)" />
	<circle cx="787.675" cy="252.123" r="1" fill="rgb(0,0,0)" />
	<circle cx="788.035" cy="483.981" r="1" fill="rgb(0,0,0)" />
	<circle cx="788.515" cy="352.279" r="1" fill="rgb(0,0,0)" />
	<circle cx="788.755" cy="492.377" r="1" fill="rgb(0,0,0)" />
	<circle cx="790.674" cy="332.008" r="1" fill="rgb(0,0,0)" />
	<circle cx="791.154" cy="319.893" r="1" fill="rgb(0,0,0)" />
	<circle cx="792.233" cy="286.428" r="1" fill="rgb(0,0,0)" />
	<circle cx="792.593" cy="299.742" r="1" fill="rgb(0,0,0)" />
	<circle cx="792.953" cy="338.005" r="1" fill="rgb(0,0,0)" />
	<circle cx="793.073" cy="337.645" r="1" fill="rgb(0,0,0)" />
	<circle cx="793.793" cy="370.871" r="1" fill="rgb(0,0,0)" />
	<circle cx="794.632" cy="503.293" r="1" fill="rgb(0,0,0)" />
	<circle cx="794.752" cy="336.446" r="1" fill="rgb(0,0,0)" />
	<circle cx="795.472" cy="483.381" r="1" fill="rgb(0,0,0)" />
	<circle cx="795.712" cy="577.42" r="1" fill="rgb(0,0,0)" />
	<circle cx="796.072" cy="427.606" r="1" fill="rgb(0,0,0)" />
	<circle cx="798.351" cy="334.167" r="1" fill="rgb(0,0,0)" />
	<circle cx="798.471" cy="473.186" r="1" fill="rgb(0,0,0)" />
	<circle cx="798.711" cy="364.993" r="1" fill="rgb(0,0,0)" />
	<circle cx="801.589" cy="255.961" r="1" fill="rgb(0,0,0)" />
	<circle cx="801.829" cy="299.622" r="1" fill="rgb(0,0,0)" />
	<circle cx="804.348" cy="548.513" r="1" fill="rgb(0,0,0)" />
	<circle cx="804.348" cy="516.607" r="1" fill="rgb(0,0,0)" />
	<circle cx="805.308" cy="444.758" r="1" fill="rgb(0,0,0)" />
	<circle cx="805.907" cy="390.902" r="1" fill="rgb(0,0,0)" />
	<circle cx="806.627" cy="251.403" r="1" fill="rgb(0,0,0)" />
	<circle cx="807.467" cy="481.342" r="1" fill="rgb(0,0,0)" />
	<circle cx="809.146" cy="380.826" r="1" fill="rgb(0,0,0)" />
	<circle cx="809.146" cy="253.682" r="1" fill="rgb(0,0,0)" />
	<circle cx="809.866" cy="258.12" r="1" fill="rgb(0,0,0)" />
	<circle cx="810.585" cy="368.712" r="1" fill="rgb(0,0,0)" />
	<circle cx="811.185" cy="409.494" r="1" fill="rgb(0,0,0)" />
	<circle cx="812.145" cy="454.594" r="1" fill="rgb(0,0,0)" />
	<circle cx="813.104" cy="477.264" r="1" fill="rgb(0,0,0)" />
	<circle cx="813.824" cy="250.804" r="1" fill="rgb(0,0,0)" />
	<circle cx="813.944" cy="240.248" r="1" fill="rgb(0,0,0)" />
	<circle cx="814.424" cy="412.493" r="1" fill="rgb(0,0,0)" />
	<circle cx="814.783" cy="258.24" r="1" fill="rgb(0,0,0)" />
	<circle cx="814.903" cy="340.284" r="1" fill="rgb(0,0,0)" />
	<circle cx="815.863" cy="462.031" r="1" fill="rgb(0,0,0)" />
	<circle cx="816.943" cy="415.971" r="1" fill="rgb(0,0,0)" />
	<circle cx="816.943" cy="354.918" r="1" fill="rgb(0,0,0)" />
	<circle cx="817.782" cy="352.039" r="1" fill="rgb(0,0,0)" />
	<circle cx="818.382" cy="411.053" r="1" fill="rgb(0,0,0)" />
	<circle cx="818.622" cy="400.858" r="1" fill="rgb(0,0,0)" />
	<circle cx="819.222" cy="375.309" r="1" fill="rgb(0,0,0)" />
	<circle cx="819.941" cy="330.688" r="1" fill="rgb(0,0,0)" />
	<circle cx="820.301" cy="376.508" r="1" fill="rgb(0,0,0)" />
	<circle cx="821.021" cy="153.646" r="1" fill="rgb(0,0,0)" />
	<circle cx="821.141" cy="348.561" r="1" fill="rgb(0,0,0)" />
	<circle cx="821.86" cy="357.797" r="1" fill="rgb(0,0,0)" />
	<circle cx="822.1" cy="494.896" r="1" fill="rgb(0,0,0)" />
	<circle cx="822.34" cy="477.024" r="1" fill="rgb(0,0,0)" />
	<circle cx="822.82" cy="221.896" r="1" fill="rgb(0,0,0)" />
	<circle cx="824.139" cy="357.677" r="1" fill="rgb(0,0,0)" />
	<circle cx="824.499" cy="264.238" r="1" fill="rgb(0,0,0)" />
	<circle cx="824.979" cy="398.459" r="1" fill="rgb(0,0,0)" />
	<circle cx="825.579" cy="359.956" r="1" fill="rgb(0,0,0)" />
	<circle cx="825.939" cy="355.398" r="1" fill="rgb(0,0,0)" />
	<circle cx="826.178" cy="249.964" r="1" fill="rgb(0,0,0)" />
	<circle cx="826.298" cy="322.412" r="1" fill="rgb(0,0,0)" />
	<circle cx="828.218" cy="266.877" r="1" fill="rgb(0,0,0)" />
	<circle cx="828.338" cy="288.827" r="1" fill="rgb(0,0,0)" />
	<circle cx="829.537" cy="364.634" r="1" fill="rgb(0,0,0)" />
	<circle cx="829.657" cy="528.961" r="1" fill="rgb(0,0,0)" />
	<circle cx="829.777" cy="523.444" r="1" fill="rgb(0,0,0)" />
	<circle cx="829.777" cy="383.825" r="1" fill="rgb(0,0,0)" />
	<circle cx="830.377" cy="379.867" r="1" fill="rgb(0,0,0)" />
	<circle cx="830.617" cy="323.012" r="1" fill="rgb(0,0,0)" />
	<circle cx="830.736" cy="371.71" r="1" fill="rgb(0,0,0)" />
	<circle cx="831.096" cy="258.84" r="1" fill="rgb(0,0,0)" />
	<circle cx="831.216" cy="346.162" r="1" fill="rgb(0,0,0)" />
	<circle cx="831.336" cy="341.964" r="1" fill="rgb(0,0,0)" />
	<circle cx="831.336" cy="210.381" r="1" fill="rgb(0,0,0)" />
	<circle cx="831.576" cy="524.163" r="1" fill="rgb(0,0,0)" />
	<circle cx="831.936" cy="269.395" r="1" fill="rgb(0,0,0)" />
	<circle cx="832.176" cy="209.062" r="1" fill="rgb(0,0,0)" />
	<circle cx="832.896" cy="375.669" r="1" fill="rgb(0,0,0)" />
	<circle cx="834.455" cy="281.75" r="1" fill="rgb(0,0,0)" />
	<circle cx="835.654" cy="341.724" r="1" fill="rgb(0,0,0)" />
	<circle cx="836.734" cy="362.235" r="1" fill="rgb(0,0,0)" />
	<circle cx="836.854" cy="259.32" r="1" fill="rgb(0,0,0)" />
	<circle cx="836.974" cy="599.37" r="1" fill="rgb(0,0,0)" />
	<circle cx="837.214" cy="339.565" r="1" fill="rgb(0,0,0)" />
	<circle cx="837.334" cy="250.564" r="1" fill="rgb(0,0,0)" />
	<circle cx="839.133" cy="384.545" r="1" fill="rgb(0,0,0)" />
	<circle cx="840.332" cy="260.16" r="1" fill="rgb(0,0,0)" />
	<circle cx="840.812" cy="209.782" r="1" fill="rgb(0,0,0)" />
	<circle cx="841.052" cy="357.197" r="1" fill="rgb(0,0,0)" />
	<circle cx="841.172" cy="349.52" r="1" fill="rgb(0,0,0)" />
	<circle cx="841.172" cy="325.411" r="1" fill="rgb(0,0,0)" />
	<circle cx="841.292" cy="361.755" r="1" fill="rgb(0,0,0)" />
	<circle cx="841.532" cy="259.2" r="1" fill="rgb(0,0,0)" />
	<circle cx="844.41" cy="260.879" r="1" fill="rgb(0,0,0)" />
	<circle cx="848.129" cy="218.778" r="1" fill="rgb(0,0,0)" />
	<circle cx="848.369" cy="340.884" r="1" fill="rgb(0,0,0)" />
	<circle cx="849.928" cy="317.374" r="1" fill="rgb(0,0,0)" />
	<circle cx="850.168" cy="318.214" r="1" fill="rgb(0,0,0)" />
	<circle cx="851.367" cy="199.706" r="1" fill="rgb(0,0,0)" />
	<circle cx="851.847" cy="349.28" r="1" fill="rgb(0,0,0)" />
	<circle cx="852.927" cy="315.815" r="1" fill="rgb(0,0,0)" />
	<circle cx="853.646" cy="367.272" r="1" fill="rgb(0,0,0)" />
	<circle cx="853.766" cy="304.66" r="1" fill="rgb(0,0,0)" />
	<circle cx="857.605" cy="344.003" r="1" fill="rgb(0,0,0)" />
	<circle cx="858.804" cy="192.629" r="1" fill="rgb(0,0,0)" />
	<circle cx="859.044" cy="300.462" r="1" fill="rgb(0,0,0)" />
	<circle cx="861.443" cy="349.04" r="1" fill="rgb(0,0,0)" />
	<circle cx="862.882" cy="270.595" r="1" fill="rgb(0,0,0)" />
	<circle cx="863.122" cy="351.679" r="1" fill="rgb(0,0,0)" />
	<circle cx="863.482" cy="347.121" r="1" fill="rgb(0,0,0)" />
	<circle cx="867.44" cy="380.227" r="1" fill="rgb(0,0,0)" />
	<circle cx="868.88" cy="116.343" r="1" fill="rgb(0,0,0)" />
	<circle cx="870.919" cy="117.542" r="1" fill="rgb(0,0,0)" />
	<circle cx="871.638" cy="380.467" r="1" fill="rgb(0,0,0)" />
	<circle cx="871.638" cy="380.107" r="1" fill="rgb(0,0,0)" />
	<circle cx="872.838" cy="306.819" r="1" fill="rgb(0,0,0)" />
	<circle cx="873.798" cy="356.717" r="1" fill="rgb(0,0,0)" />
	<circle cx="873.917" cy="347.721" r="1" fill="rgb(0,0,0)" />
	<circle cx="874.637" cy="377.228" r="1" fill="rgb(0,0,0)" />
	<circle cx="877.756" cy="313.776" r="1" fill="rgb(0,0,0)" />
	<circle cx="878.356" cy="218.898" r="1" fill="rgb(0,0,0)" />
	<circle cx="878.955" cy="312.696" r="1" fill="rgb(0,0,0)" />
	<circle cx="879.075" cy="335.246" r="1" fill="rgb(0,0,0)" />
	<circle cx="879.315" cy="292.665" r="1" fill="rgb(0,0,0)" />
	<circle cx="879.915" cy="345.802" r="1" fill="rgb(0,0,0)" />
	<circle cx="880.155" cy="323.132" r="1" fill="rgb(0,0,0)" />
	<circle cx="881.474" cy="315.455" r="1" fill="rgb(0,0,0)" />
	<circle cx="881.834" cy="289.786" r="1" fill="rgb(0,0,0)" />
	<circle cx="882.674" cy="348.92" r="1" fill="rgb(0,0,0)" />
	<circle cx="884.953" cy="287.867" r="1" fill="rgb(0,0,0)" />
	<circle cx="885.432" cy="352.639" r="1" fill="rgb(0,0,0)" />
	<circle cx="888.671" cy="291.106" r="1" fill="rgb(0,0,0)" />
	<circle cx="891.07" cy="294.944" r="1" fill="rgb(0,0,0)" />
	<circle cx="891.43" cy="300.942" r="1" fill="rgb(0,0,0)" />
	<circle cx="893.229" cy="281.39" r="1" fill="rgb(0,0,0)" />
	<circle cx="893.469" cy="282.83" r="1" fill="rgb(0,0,0)" />
	<circle cx="894.668" cy="273.714" r="1" fill="rgb(0,0,0)" />
	<circle cx="895.988" cy="269.515" r="1" fill="rgb(0,0,0)" />
	<circle cx="896.108" cy="288.467" r="1" fill="rgb(0,0,0)" />
	<circle cx="896.108" cy="271.794" r="1" fill="rgb(0,0,0)" />
	<circle cx="897.307" cy="269.995" r="1" fill="rgb(0,0,0)" />
	<circle cx="897.787" cy="272.274" r="1" fill="rgb(0,0,0)" />
	<circle cx="898.986" cy="285.828" r="1" fill="rgb(0,0,0)" />
	<circle cx="899.346" cy="235.45" r="1" fill="rgb(0,0,0)" />
	<circle cx="899.826" cy="195.148" r="1" fill="rgb(0,0,0)" />
	<circle cx="900.306" cy="283.429" r="1" fill="rgb(0,0,0)" />
	<circle cx="900.666" cy="339.445" r="1" fill="rgb(0,0,0)" />
	<circle cx="900.666" cy="285.708" r="1" fill="rgb(0,0,0)" />
	<circle cx="900.786" cy="269.875" r="1" fill="rgb(0,0,0)" />
	<circle cx="901.026" cy="226.934" r="1" fill="rgb(0,0,0)" />
	<circle cx="902.345" cy="265.077" r="1" fill="rgb(0,0,0)" />
	<circle cx="902.465" cy="291.226" r="1" fill="rgb(0,0,0)" />
	<circle cx="905.344" cy="326.73" r="1" fill="rgb(0,0,0)" />
	<circle cx="906.903" cy="250.084" r="1" fill="rgb(0,0,0)" />
	<circle cx="907.503" cy="217.938" r="1" fill="rgb(0,0,0)" />
	<circle cx="908.582" cy="270.715" r="1" fill="rgb(0,0,0)" />
	<circle cx="909.902" cy="199.226" r="1" fill="rgb(0,0,0)" />
	<circle cx="910.142" cy="236.05" r="1" fill="rgb(0,0,0)" />
	<circle cx="911.221" cy="268.556" r="1" fill="rgb(0,0,0)" />
	<circle cx="911.221" cy="249.004" r="1" fill="rgb(0,0,0)" />
	<circle cx="911.701" cy="256.081" r="1" fill="rgb(0,0,0)" />
	<circle cx="913.5" cy="171.878" r="1" fill="rgb(0,0,0)" />
	<circle cx="913.62" cy="269.156" r="1" fill="rgb(0,0,0)" />
	<circle cx="913.98" cy="286.188" r="1" fill="rgb(0,0,0)" />
	<circle cx="916.019" cy="173.318" r="1" fill="rgb(0,0,0)" />
	<circle cx="917.098" cy="243.847" r="1" fill="rgb(0,0,0)" />
	<circle cx="917.818" cy="277.552" r="1" fill="rgb(0,0,0)" />
	<circle cx="917.818" cy="267.716" r="1" fill="rgb(0,0,0)" />
	<circle cx="920.337" cy="295.424" r="1" fill="rgb(0,0,0)" />
	<circle cx="920.697" cy="296.863" r="1" fill="rgb(0,0,0)" />
	<circle cx="921.297" cy="265.917" r="1" fill="rgb(0,0,0)" />
	<circle cx="921.537" cy="277.792" r="1" fill="rgb(0,0,0)" />
	<circle cx="923.336" cy="274.913" r="1" fill="rgb(0,0,0)" />
	<circle cx="923.576" cy="270.475" r="1" fill="rgb(0,0,0)" />
	<circle cx="924.295" cy="266.997" r="1" fill="rgb(0,0,0)" />
	<circle cx="924.535" cy="278.751" r="1" fill="rgb(0,0,0)" />
	<circle cx="926.334" cy="267.476" r="1" fill="rgb(0,0,0)" />
	<circle cx="926.334" cy="266.997" r="1" fill="rgb(0,0,0)" />
	<circle cx="927.174" cy="283.669" r="1" fill="rgb(0,0,0)" />
	<circle cx="930.053" cy="269.635" r="1" fill="rgb(0,0,0)" />
	<circle cx="931.372" cy="280.79" r="1" fill="rgb(0,0,0)" />
	<circle cx="931.972" cy="246.605" r="1" fill="rgb(0,0,0)" />
	<circle cx="935.091" cy="266.877" r="1" fill="rgb(0,0,0)" />
	<circle cx="937.25" cy="252.723" r="1" fill="rgb(0,0,0)" />
	<circle cx="939.769" cy="262.199" r="1" fill="rgb(0,0,0)" />
	<circle cx="941.208" cy="258.72" r="1" fill="rgb(0,0,0)" />
	<circle cx="943.007" cy="262.798" r="1" fill="rgb(0,0,0)" />
	<circle cx="945.046" cy="252.723" r="1" fill="rgb(0,0,0)" />
	<circle cx="945.646" cy="254.282" r="1" fill="rgb(0,0,0)" />
	<circle cx="947.565" cy="252.123" r="1" fill="rgb(0,0,0)" />
	<circle cx="947.565" cy="216.499" r="1" fill="rgb(0,0,0)" />
	<circle cx="948.645" cy="177.636" r="1" fill="rgb(0,0,0)" />
	<circle cx="949.004" cy="166.121" r="1" fill="rgb(0,0,0)" />
	<circle cx="949.604" cy="164.322" r="1" fill="rgb(0,0,0)" />
	<circle cx="950.564" cy="222.616" r="1" fill="rgb(0,0,0)" />
	<circle cx="954.882" cy="157.125" r="1" fill="rgb(0,0,0)" />
	<circle cx="958.36" cy="171.399" r="1" fill="rgb(0,0,0)" />
	<circle cx="958.48" cy="173.438" r="1" fill="rgb(0,0,0)" />
	<circle cx="958.6" cy="257.641" r="1" fill="rgb(0,0,0)" />
	<circle cx="961.959" cy="257.041" r="1" fill="rgb(0,0,0)" />
	<circle cx="966.157" cy="137.573" r="1" fill="rgb(0,0,0)" />
	<circle cx="966.277" cy="244.446" r="1" fill="rgb(0,0,0)" />
	<circle cx="966.517" cy="232.932" r="1" fill="rgb(0,0,0)" />
	<circle cx="968.196" cy="152.207" r="1" fill="rgb(0,0,0)" />
	<circle cx="969.635" cy="234.251" r="1" fill="rgb(0,0,0)" />
	<circle cx="969.875" cy="166.601" r="1" fill="rgb(0,0,0)" />
	<circle cx="970.955" cy="175.117" r="1" fill="rgb(0,0,0)" />
	<circle cx="971.674" cy="231.732" r="1" fill="rgb(0,0,0)" />
	<circle cx="971.914" cy="164.921" r="1" fill="rgb(0,0,0)" />
	<circle cx="973.953" cy="248.285" r="1" fill="rgb(0,0,0)" />
	<circle cx="975.873" cy="238.569" r="1" fill="rgb(0,0,0)" />
	<circle cx="976.592" cy="111.185" r="1" fill="rgb(0,0,0)" />
	<circle cx="977.912" cy="246.845" r="1" fill="rgb(0,0,0)" />
	<circle cx="978.392" cy="160.723" r="1" fill="rgb(0,0,0)" />
	<circle cx="978.511" cy="246.845" r="1" fill="rgb(0,0,0)" />
	<circle cx="980.91" cy="171.159" r="1" fill="rgb(0,0,0)" />
	<circle cx="981.75" cy="224.775" r="1" fill="rgb(0,0,0)" />
	<circle cx="987.747" cy="235.69" r="1" fill="rgb(0,0,0)" />
	<circle cx="989.187" cy="216.859" r="1" fill="rgb(0,0,0)" />
	<circle cx="990.626" cy="240.848" r="1" fill="rgb(0,0,0)" />
	<circle cx="991.226" cy="234.491" r="1" fill="rgb(0,0,0)" />
	<circle cx="992.185" cy="213.14" r="1" fill="rgb(0,0,0)" />
	<circle cx="992.185" cy="148.129" r="1" fill="rgb(0,0,0)" />
	<circle cx="993.745" cy="224.295" r="1" fill="rgb(0,0,0)" />
	<circle cx="995.544" cy="240.008" r="1" fill="rgb(0,0,0)" />
	<circle cx="995.904" cy="222.496" r="1" fill="rgb(0,0,0)" />
	<circle cx="997.463" cy="236.29" r="1" fill="rgb(0,0,0)" />
	<circle cx="997.823" cy="223.935" r="1" fill="rgb(0,0,0)" />
	<circle cx="999.502" cy="148.249" r="1" fill="rgb(0,0,0)" />
	<circle cx="1002.26" cy="224.175" r="1" fill="rgb(0,0,0)" />
	<circle cx="1012.46" cy="197.787" r="1" fill="rgb(0,0,0)" />
	<circle cx="1014.74" cy="198.627" r="1" fill="rgb(0,0,0)" />
	<circle cx="1037.05" cy="185.432" r="1" fill="rgb(0,0,0)" />
	<circle cx="1050" cy="119.581" r="1" fill="rgb(0,0,0)" />
</svg>
