<?xml version="1.0" standalone="no" ?>
<!DOCTYPE svg PUBLIC "-//W3C//DTD SVG 1.1//EN" "http://www.w3.org/Graphics/SVG/1.1/DTD/svg11.dtd">
<svg width="1100px" height="618.311px" xmlns="http://www.w3.org/2000/svg" version="1.1" >
	<circle cx="50" cy="186.137" r="1" fill="rgb(0,0,0)" />
	<circle cx="57.3338" cy="114.218" r="1" fill="rgb(0,0,0)" />
	<circle cx="61.119" cy="118.003" r="1" fill="rgb(0,0,0)" />
	<circle cx="65.0225" cy="105.938" r="1" fill="rgb(0,0,0)" />
	<circle cx="67.7431" cy="106.529" r="1" fill="rgb(0,0,0)" />
	<circle cx="69.2808" cy="161.178" r="1" fill="rgb(0,0,0)" />
	<circle cx="73.3026" cy="172.061" r="1" fill="rgb(0,0,0)" />
	<circle cx="74.722" cy="175.846" r="1" fill="rgb(0,0,0)" />
	<circle cx="75.9049" cy="139.295" r="1" fill="rgb(0,0,0)" />
	<circle cx="76.7329" cy="138.704" r="1" fill="rgb(0,0,0)" />
	<circle cx="76.9695" cy="141.188" r="1" fill="rgb(0,0,0)" />
	<circle cx="79.4535" cy="137.402" r="1" fill="rgb(0,0,0)" />
	<circle cx="80.3998" cy="263.851" r="1" fill="rgb(0,0,0)" />
	<circle cx="80.5181" cy="133.617" r="1" fill="rgb(0,0,0)" />
	<circle cx="80.6364" cy="131.015" r="1" fill="rgb(0,0,0)" />
	<circle cx="81.701" cy="140.951" r="1" fill="rgb(0,0,0)" />
	<circle cx="81.701" cy="140.005" r="1" fill="rgb(0,0,0)" />
	<circle cx="81.9375" cy="129.595" r="1" fill="rgb(0,0,0)" />
	<circle cx="82.0558" cy="302.768" r="1" fill="rgb(0,0,0)" />
	<circle cx="82.1741" cy="305.37" r="1" fill="rgb(0,0,0)" />
	<circle cx="83.7119" cy="125.219" r="1" fill="rgb(0,0,0)" />
	<circle cx="85.841" cy="303.359" r="1" fill="rgb(0,0,0)" />
	<circle cx="86.1959" cy="310.811" r="1" fill="rgb(0,0,0)" />
	<circle cx="91.992" cy="284.079" r="1" fill="rgb(0,0,0)" />
	<circle cx="93.0565" cy="293.187" r="1" fill="rgb(0,0,0)" />
	<circle cx="95.7771" cy="321.339" r="1" fill="rgb(0,0,0)" />
	<circle cx="99.2075" cy="279.82" r="1" fill="rgb(0,0,0)" />
	<circle cx="99.4441" cy="290.466" r="1" fill="rgb(0,0,0)" />
	<circle cx="99.6806" cy="289.993" r="1" fill="rgb(0,0,0)" />
	<circle cx="102.993" cy="309.747" r="1" fill="rgb(0,0,0)" />
	<circle cx="111.391" cy="144.5" r="1" fill="rgb(0,0,0)" />
	<circle cx="111.509" cy="260.658" r="1" fill="rgb(0,0,0)" />
	<circle cx="112.219" cy="323.705" r="1" fill="rgb(0,0,0)" />
	<circle cx="124.403" cy="347.362" r="1" fill="rgb(0,0,0)" />
	<circle cx="125.231" cy="324.414" r="1" fill="rgb(0,0,0)" />
	<circle cx="125.586" cy="278.046" r="1" fill="rgb(0,0,0)" />
	<circle cx="126.414" cy="93.5179" r="1" fill="rgb(0,0,0)" />
	<circle cx="127.242" cy="162.243" r="1" fill="rgb(0,0,0)" />
	<circle cx="132.446" cy="337.781" r="1" fill="rgb(0,0,0)" />
	<circle cx="132.801" cy="338.846" r="1" fill="rgb(0,0,0)" />
	<circle cx="136.231" cy="331.748" r="1" fill="rgb(0,0,0)" />
	<circle cx="136.231" cy="142.844" r="1" fill="rgb(0,0,0)" />
	<circle cx="140.253" cy="276.745" r="1" fill="rgb(0,0,0)" />
	<circle cx="140.608" cy="349.255" r="1" fill="rgb(0,0,0)" />
	<circle cx="147.824" cy="374.332" r="1" fill="rgb(0,0,0)" />
	<circle cx="148.652" cy="314.952" r="1" fill="rgb(0,0,0)" />
	<circle cx="149.243" cy="369.364" r="1" fill="rgb(0,0,0)" />
	<circle cx="150.662" cy="376.934" r="1" fill="rgb(0,0,0)" />
	<circle cx="155.276" cy="363.686" r="1" fill="rgb(0,0,0)" />
	<circle cx="158.115" cy="379.418" r="1" fill="rgb(0,0,0)" />
	<circle cx="160.362" cy="372.912" r="1" fill="rgb(0,0,0)" />
	<circle cx="160.835" cy="382.375" r="1" fill="rgb(0,0,0)" />
	<circle cx="167.104" cy="367.116" r="1" fill="rgb(0,0,0)" />
	<circle cx="168.642" cy="99.0774" r="1" fill="rgb(0,0,0)" />
	<circle cx="169.233" cy="395.269" r="1" fill="rgb(0,0,0)" />
	<circle cx="173.374" cy="373.859" r="1" fill="rgb(0,0,0)" />
	<circle cx="173.492" cy="154.317" r="1" fill="rgb(0,0,0)" />
	<circle cx="173.965" cy="396.333" r="1" fill="rgb(0,0,0)" />
	<circle cx="174.438" cy="378.117" r="1" fill="rgb(0,0,0)" />
	<circle cx="175.384" cy="402.247" r="1" fill="rgb(0,0,0)" />
	<circle cx="176.449" cy="402.011" r="1" fill="rgb(0,0,0)" />
	<circle cx="177.75" cy="305.489" r="1" fill="rgb(0,0,0)" />
	<circle cx="181.062" cy="204.826" r="1" fill="rgb(0,0,0)" />
	<circle cx="181.417" cy="376.224" r="1" fill="rgb(0,0,0)" />
	<circle cx="185.439" cy="202.579" r="1" fill="rgb(0,0,0)" />
	<circle cx="200.106" cy="39.8155" r="1" fill="rgb(0,0,0)" />
	<circle cx="212.29" cy="338.018" r="1" fill="rgb(0,0,0)" />
	<circle cx="223.172" cy="44.0738" r="1" fill="rgb(0,0,0)" />
	<circle cx="225.183" cy="68.7958" r="1" fill="rgb(0,0,0)" />
	<circle cx="225.538" cy="73.6456" r="1" fill="rgb(0,0,0)" />
	<circle cx="225.775" cy="71.5164" r="1" fill="rgb(0,0,0)" />
	<circle cx="227.904" cy="397.753" r="1" fill="rgb(0,0,0)" />
	<circle cx="231.216" cy="50.343" r="1" fill="rgb(0,0,0)" />
	<circle cx="232.044" cy="46.4396" r="1" fill="rgb(0,0,0)" />
	<circle cx="232.162" cy="222.451" r="1" fill="rgb(0,0,0)" />
	<circle cx="232.399" cy="31.1805" r="1" fill="rgb(0,0,0)" />
	<circle cx="235.474" cy="421.292" r="1" fill="rgb(0,0,0)" />
	<circle cx="235.474" cy="318.855" r="1" fill="rgb(0,0,0)" />
	<circle cx="238.905" cy="28.105" r="1" fill="rgb(0,0,0)" />
	<circle cx="239.141" cy="28.2233" r="1" fill="rgb(0,0,0)" />
	<circle cx="244.228" cy="44.7835" r="1" fill="rgb(0,0,0)" />
	<circle cx="247.066" cy="351.029" r="1" fill="rgb(0,0,0)" />
	<circle cx="248.841" cy="38.2777" r="1" fill="rgb(0,0,0)" />
	<circle cx="252.271" cy="279.584" r="1" fill="rgb(0,0,0)" />
	<circle cx="253.454" cy="255.335" r="1" fill="rgb(0,0,0)" />
	<circle cx="256.175" cy="381.192" r="1" fill="rgb(0,0,0)" />
	<circle cx="261.498" cy="382.848" r="1" fill="rgb(0,0,0)" />
	<circle cx="262.089" cy="387.816" r="1" fill="rgb(0,0,0)" />
	<circle cx="266.82" cy="384.15" r="1" fill="rgb(0,0,0)" />
	<circle cx="268.003" cy="407.807" r="1" fill="rgb(0,0,0)" />
	<circle cx="268.713" cy="385.687" r="1" fill="rgb(0,0,0)" />
	<circle cx="277.23" cy="412.657" r="1" fill="rgb(0,0,0)" />
	<circle cx="278.767" cy="403.785" r="1" fill="rgb(0,0,0)" />
	<circle cx="279.832" cy="214.171" r="1" fill="rgb(0,0,0)" />
	<circle cx="280.66" cy="404.495" r="1" fill="rgb(0,0,0)" />
	<circle cx="284.8" cy="459.38" r="1" fill="rgb(0,0,0)" />
	<circle cx="284.918" cy="462.101" r="1" fill="rgb(0,0,0)" />
	<circle cx="291.542" cy="31.0622" r="1" fill="rgb(0,0,0)" />
	<circle cx="299.349" cy="570.925" r="1" fill="rgb(0,0,0)" />
	<circle cx="305.619" cy="28.5782" r="1" fill="rgb(0,0,0)" />
	<circle cx="310.114" cy="447.078" r="1" fill="rgb(0,0,0)" />
	<circle cx="314.608" cy="328.791" r="1" fill="rgb(0,0,0)" />
	<circle cx="317.802" cy="179.513" r="1" fill="rgb(0,0,0)" />
	<circle cx="332.588" cy="323.468" r="1" fill="rgb(0,0,0)" />
	<circle cx="340.632" cy="538.396" r="1" fill="rgb(0,0,0)" />
	<circle cx="346.664" cy="277.218" r="1" fill="rgb(0,0,0)" />
	<circle cx="357.192" cy="190.632" r="1" fill="rgb(0,0,0)" />
	<circle cx="358.138" cy="351.029" r="1" fill="rgb(0,0,0)" />
	<circle cx="358.493" cy="323.113" r="1" fill="rgb(0,0,0)" />
	<circle cx="362.751" cy="218.074" r="1" fill="rgb(0,0,0)" />
	<circle cx="365.354" cy="396.451" r="1" fill="rgb(0,0,0)" />
	<circle cx="371.859" cy="272.25" r="1" fill="rgb(0,0,0)" />
	<circle cx="372.451" cy="34.0194" r="1" fill="rgb(0,0,0)" />
	<circle cx="378.01" cy="580.979" r="1" fill="rgb(0,0,0)" />
	<circle cx="379.312" cy="509.416" r="1" fill="rgb(0,0,0)" />
	<circle cx="385.226" cy="285.143" r="1" fill="rgb(0,0,0)" />
	<circle cx="386.172" cy="37.8046" r="1" fill="rgb(0,0,0)" />
	<circle cx="388.183" cy="275.444" r="1" fill="rgb(0,0,0)" />
	<circle cx="389.011" cy="271.54" r="1" fill="rgb(0,0,0)" />
	<circle cx="391.732" cy="285.498" r="1" fill="rgb(0,0,0)" />
	<circle cx="393.033" cy="125.692" r="1" fill="rgb(0,0,0)" />
	<circle cx="394.571" cy="550.934" r="1" fill="rgb(0,0,0)" />
	<circle cx="402.851" cy="131.606" r="1" fill="rgb(0,0,0)" />
	<circle cx="408.174" cy="395.387" r="1" fill="rgb(0,0,0)" />
	<circle cx="410.658" cy="122.143" r="1" fill="rgb(0,0,0)" />
	<circle cx="411.131" cy="124.509" r="1" fill="rgb(0,0,0)" />
	<circle cx="414.088" cy="113.272" r="1" fill="rgb(0,0,0)" />
	<circle cx="414.798" cy="130.897" r="1" fill="rgb(0,0,0)" />
	<circle cx="415.153" cy="123.09" r="1" fill="rgb(0,0,0)" />
	<circle cx="415.981" cy="498.297" r="1" fill="rgb(0,0,0)" />
	<circle cx="416.335" cy="124.746" r="1" fill="rgb(0,0,0)" />
	<circle cx="417.991" cy="113.39" r="1" fill="rgb(0,0,0)" />
	<circle cx="421.422" cy="256.399" r="1" fill="rgb(0,0,0)" />
	<circle cx="422.723" cy="124.154" r="1" fill="rgb(0,0,0)" />
	<circle cx="422.96" cy="129.241" r="1" fill="rgb(0,0,0)" />
	<circle cx="423.669" cy="131.133" r="1" fill="rgb(0,0,0)" />
	<circle cx="425.089" cy="131.015" r="1" fill="rgb(0,0,0)" />
	<circle cx="426.745" cy="131.961" r="1" fill="rgb(0,0,0)" />
	<circle cx="428.282" cy="128.294" r="1" fill="rgb(0,0,0)" />
	<circle cx="430.885" cy="337.544" r="1" fill="rgb(0,0,0)" />
	<circle cx="431.476" cy="127.348" r="1" fill="rgb(0,0,0)" />
	<circle cx="432.186" cy="127.821" r="1" fill="rgb(0,0,0)" />
	<circle cx="432.659" cy="68.9141" r="1" fill="rgb(0,0,0)" />
	<circle cx="433.724" cy="589.26" r="1" fill="rgb(0,0,0)" />
	<circle cx="433.96" cy="114.81" r="1" fill="rgb(0,0,0)" />
	<circle cx="434.552" cy="587.958" r="1" fill="rgb(0,0,0)" />
	<circle cx="435.261" cy="590.206" r="1" fill="rgb(0,0,0)" />
	<circle cx="437.036" cy="568.204" r="1" fill="rgb(0,0,0)" />
	<circle cx="438.455" cy="411.356" r="1" fill="rgb(0,0,0)" />
	<circle cx="438.928" cy="381.784" r="1" fill="rgb(0,0,0)" />
	<circle cx="439.52" cy="384.741" r="1" fill="rgb(0,0,0)" />
	<circle cx="440.821" cy="57.4403" r="1" fill="rgb(0,0,0)" />
	<circle cx="441.294" cy="356.234" r="1" fill="rgb(0,0,0)" />
	<circle cx="443.423" cy="381.192" r="1" fill="rgb(0,0,0)" />
	<circle cx="447.208" cy="335.652" r="1" fill="rgb(0,0,0)" />
	<circle cx="449.574" cy="482.919" r="1" fill="rgb(0,0,0)" />
	<circle cx="452.058" cy="53.6551" r="1" fill="rgb(0,0,0)" />
	<circle cx="457.618" cy="525.503" r="1" fill="rgb(0,0,0)" />
	<circle cx="458.564" cy="457.724" r="1" fill="rgb(0,0,0)" />
	<circle cx="458.801" cy="586.184" r="1" fill="rgb(0,0,0)" />
	<circle cx="459.037" cy="146.747" r="1" fill="rgb(0,0,0)" />
	<circle cx="460.693" cy="108.185" r="1" fill="rgb(0,0,0)" />
	<circle cx="460.93" cy="209.203" r="1" fill="rgb(0,0,0)" />
	<circle cx="464.715" cy="468.015" r="1" fill="rgb(0,0,0)" />
	<circle cx="465.78" cy="420.227" r="1" fill="rgb(0,0,0)" />
	<circle cx="467.554" cy="552.709" r="1" fill="rgb(0,0,0)" />
	<circle cx="471.93" cy="517.696" r="1" fill="rgb(0,0,0)" />
	<circle cx="474.06" cy="521.008" r="1" fill="rgb(0,0,0)" />
	<circle cx="478.791" cy="93.6361" r="1" fill="rgb(0,0,0)" />
	<circle cx="478.791" cy="93.5179" r="1" fill="rgb(0,0,0)" />
	<circle cx="480.329" cy="402.247" r="1" fill="rgb(0,0,0)" />
	<circle cx="480.92" cy="104.992" r="1" fill="rgb(0,0,0)" />
	<circle cx="481.393" cy="93.991" r="1" fill="rgb(0,0,0)" />
	<circle cx="481.748" cy="94.1093" r="1" fill="rgb(0,0,0)" />
	<circle cx="482.103" cy="477.833" r="1" fill="rgb(0,0,0)" />
	<circle cx="483.168" cy="492.146" r="1" fill="rgb(0,0,0)" />
	<circle cx="483.759" cy="342.867" r="1" fill="rgb(0,0,0)" />
	<circle cx="484.351" cy="481.382" r="1" fill="rgb(0,0,0)" />
	<circle cx="484.587" cy="100.97" r="1" fill="rgb(0,0,0)" />
	<circle cx="486.835" cy="480.08" r="1" fill="rgb(0,0,0)" />
	<circle cx="487.308" cy="310.338" r="1" fill="rgb(0,0,0)" />
	<circle cx="490.383" cy="178.448" r="1" fill="rgb(0,0,0)" />
	<circle cx="492.039" cy="413.13" r="1" fill="rgb(0,0,0)" />
	<circle cx="492.158" cy="450.39" r="1" fill="rgb(0,0,0)" />
	<circle cx="493.222" cy="347.48" r="1" fill="rgb(0,0,0)" />
	<circle cx="494.287" cy="577.431" r="1" fill="rgb(0,0,0)" />
	<circle cx="496.889" cy="294.015" r="1" fill="rgb(0,0,0)" />
	<circle cx="498.072" cy="472.037" r="1" fill="rgb(0,0,0)" />
	<circle cx="500.083" cy="457.488" r="1" fill="rgb(0,0,0)" />
	<circle cx="501.266" cy="471.8" r="1" fill="rgb(0,0,0)" />
	<circle cx="501.621" cy="463.52" r="1" fill="rgb(0,0,0)" />
	<circle cx="501.857" cy="516.04" r="1" fill="rgb(0,0,0)" />
	<circle cx="505.879" cy="457.961" r="1" fill="rgb(0,0,0)" />
	<circle cx="506.47" cy="485.522" r="1" fill="rgb(0,0,0)" />
	<circle cx="507.653" cy="513.083" r="1" fill="rgb(0,0,0)" />
	<circle cx="507.771" cy="450.745" r="1" fill="rgb(0,0,0)" />
	<circle cx="508.245" cy="473.575" r="1" fill="rgb(0,0,0)" />
	<circle cx="509.073" cy="442.11" r="1" fill="rgb(0,0,0)" />
	<circle cx="510.61" cy="579.797" r="1" fill="rgb(0,0,0)" />
	<circle cx="512.621" cy="332.103" r="1" fill="rgb(0,0,0)" />
	<circle cx="512.621" cy="113.272" r="1" fill="rgb(0,0,0)" />
	<circle cx="513.568" cy="583.109" r="1" fill="rgb(0,0,0)" />
	<circle cx="514.041" cy="582.162" r="1" fill="rgb(0,0,0)" />
	<circle cx="514.277" cy="436.314" r="1" fill="rgb(0,0,0)" />
	<circle cx="514.396" cy="463.047" r="1" fill="rgb(0,0,0)" />
	<circle cx="514.396" cy="435.368" r="1" fill="rgb(0,0,0)" />
	<circle cx="516.17" cy="349.373" r="1" fill="rgb(0,0,0)" />
	<circle cx="516.406" cy="439.508" r="1" fill="rgb(0,0,0)" />
	<circle cx="516.525" cy="463.52" r="1" fill="rgb(0,0,0)" />
	<circle cx="518.062" cy="432.411" r="1" fill="rgb(0,0,0)" />
	<circle cx="521.611" cy="403.312" r="1" fill="rgb(0,0,0)" />
	<circle cx="522.557" cy="310.811" r="1" fill="rgb(0,0,0)" />
	<circle cx="522.794" cy="346.889" r="1" fill="rgb(0,0,0)" />
	<circle cx="523.031" cy="434.895" r="1" fill="rgb(0,0,0)" />
	<circle cx="523.385" cy="456.541" r="1" fill="rgb(0,0,0)" />
	<circle cx="523.385" cy="356.707" r="1" fill="rgb(0,0,0)" />
	<circle cx="524.805" cy="390.655" r="1" fill="rgb(0,0,0)" />
	<circle cx="525.16" cy="126.993" r="1" fill="rgb(0,0,0)" />
	<circle cx="525.278" cy="482.801" r="1" fill="rgb(0,0,0)" />
	<circle cx="525.633" cy="400.71" r="1" fill="rgb(0,0,0)" />
	<circle cx="526.461" cy="241.85" r="1" fill="rgb(0,0,0)" />
	<circle cx="527.171" cy="336.48" r="1" fill="rgb(0,0,0)" />
	<circle cx="527.88" cy="91.3887" r="1" fill="rgb(0,0,0)" />
	<circle cx="528.472" cy="401.183" r="1" fill="rgb(0,0,0)" />
	<circle cx="528.708" cy="49.0419" r="1" fill="rgb(0,0,0)" />
	<circle cx="528.827" cy="92.335" r="1" fill="rgb(0,0,0)" />
	<circle cx="529.3" cy="126.875" r="1" fill="rgb(0,0,0)" />
	<circle cx="529.655" cy="395.032" r="1" fill="rgb(0,0,0)" />
	<circle cx="532.73" cy="100.615" r="1" fill="rgb(0,0,0)" />
	<circle cx="532.848" cy="204.708" r="1" fill="rgb(0,0,0)" />
	<circle cx="534.031" cy="352.922" r="1" fill="rgb(0,0,0)" />
	<circle cx="534.386" cy="253.087" r="1" fill="rgb(0,0,0)" />
	<circle cx="536.042" cy="404.377" r="1" fill="rgb(0,0,0)" />
	<circle cx="537.698" cy="379.418" r="1" fill="rgb(0,0,0)" />
	<circle cx="544.322" cy="336.361" r="1" fill="rgb(0,0,0)" />
	<circle cx="544.795" cy="337.899" r="1" fill="rgb(0,0,0)" />
	<circle cx="546.097" cy="247.055" r="1" fill="rgb(0,0,0)" />
	<circle cx="546.925" cy="348.782" r="1" fill="rgb(0,0,0)" />
	<circle cx="547.043" cy="138.585" r="1" fill="rgb(0,0,0)" />
	<circle cx="548.107" cy="326.189" r="1" fill="rgb(0,0,0)" />
	<circle cx="550.473" cy="337.663" r="1" fill="rgb(0,0,0)" />
	<circle cx="550.828" cy="450.627" r="1" fill="rgb(0,0,0)" />
	<circle cx="552.602" cy="453.466" r="1" fill="rgb(0,0,0)" />
	<circle cx="552.957" cy="351.384" r="1" fill="rgb(0,0,0)" />
	<circle cx="555.914" cy="451.337" r="1" fill="rgb(0,0,0)" />
	<circle cx="557.216" cy="397.279" r="1" fill="rgb(0,0,0)" />
	<circle cx="557.925" cy="399.409" r="1" fill="rgb(0,0,0)" />
	<circle cx="559.818" cy="342.276" r="1" fill="rgb(0,0,0)" />
	<circle cx="561.237" cy="276.035" r="1" fill="rgb(0,0,0)" />
	<circle cx="561.356" cy="443.766" r="1" fill="rgb(0,0,0)" />
	<circle cx="561.474" cy="441.874" r="1" fill="rgb(0,0,0)" />
	<circle cx="562.302" cy="207.665" r="1" fill="rgb(0,0,0)" />
	<circle cx="562.302" cy="170.168" r="1" fill="rgb(0,0,0)" />
	<circle cx="564.786" cy="279.702" r="1" fill="rgb(0,0,0)" />
	<circle cx="565.259" cy="447.788" r="1" fill="rgb(0,0,0)" />
	<circle cx="565.259" cy="397.161" r="1" fill="rgb(0,0,0)" />
	<circle cx="566.56" cy="161.77" r="1" fill="rgb(0,0,0)" />
	<circle cx="566.915" cy="430.755" r="1" fill="rgb(0,0,0)" />
	<circle cx="566.915" cy="196.073" r="1" fill="rgb(0,0,0)" />
	<circle cx="567.27" cy="376.579" r="1" fill="rgb(0,0,0)" />
	<circle cx="568.689" cy="401.538" r="1" fill="rgb(0,0,0)" />
	<circle cx="568.689" cy="288.1" r="1" fill="rgb(0,0,0)" />
	<circle cx="568.689" cy="284.315" r="1" fill="rgb(0,0,0)" />
	<circle cx="569.991" cy="454.885" r="1" fill="rgb(0,0,0)" />
	<circle cx="573.421" cy="404.968" r="1" fill="rgb(0,0,0)" />
	<circle cx="573.421" cy="93.5179" r="1" fill="rgb(0,0,0)" />
	<circle cx="574.604" cy="409.463" r="1" fill="rgb(0,0,0)" />
	<circle cx="574.722" cy="391.247" r="1" fill="rgb(0,0,0)" />
	<circle cx="575.668" cy="448.734" r="1" fill="rgb(0,0,0)" />
	<circle cx="575.905" cy="406.742" r="1" fill="rgb(0,0,0)" />
	<circle cx="576.023" cy="306.317" r="1" fill="rgb(0,0,0)" />
	<circle cx="576.496" cy="348.9" r="1" fill="rgb(0,0,0)" />
	<circle cx="577.443" cy="169.458" r="1" fill="rgb(0,0,0)" />
	<circle cx="577.679" cy="155.264" r="1" fill="rgb(0,0,0)" />
	<circle cx="578.507" cy="435.25" r="1" fill="rgb(0,0,0)" />
	<circle cx="578.862" cy="439.271" r="1" fill="rgb(0,0,0)" />
	<circle cx="579.927" cy="445.186" r="1" fill="rgb(0,0,0)" />
	<circle cx="581.583" cy="443.411" r="1" fill="rgb(0,0,0)" />
	<circle cx="583.948" cy="403.43" r="1" fill="rgb(0,0,0)" />
	<circle cx="584.658" cy="240.549" r="1" fill="rgb(0,0,0)" />
	<circle cx="585.013" cy="319.446" r="1" fill="rgb(0,0,0)" />
	<circle cx="585.723" cy="401.419" r="1" fill="rgb(0,0,0)" />
	<circle cx="587.26" cy="241.732" r="1" fill="rgb(0,0,0)" />
	<circle cx="588.207" cy="440.691" r="1" fill="rgb(0,0,0)" />
	<circle cx="588.562" cy="385.806" r="1" fill="rgb(0,0,0)" />
	<circle cx="589.508" cy="271.067" r="1" fill="rgb(0,0,0)" />
	<circle cx="591.992" cy="412.184" r="1" fill="rgb(0,0,0)" />
	<circle cx="593.885" cy="137.639" r="1" fill="rgb(0,0,0)" />
	<circle cx="594.476" cy="181.405" r="1" fill="rgb(0,0,0)" />
	<circle cx="595.186" cy="274.142" r="1" fill="rgb(0,0,0)" />
	<circle cx="597.078" cy="176.201" r="1" fill="rgb(0,0,0)" />
	<circle cx="597.197" cy="181.05" r="1" fill="rgb(0,0,0)" />
	<circle cx="598.971" cy="366.406" r="1" fill="rgb(0,0,0)" />
	<circle cx="599.326" cy="180.814" r="1" fill="rgb(0,0,0)" />
	<circle cx="600.627" cy="179.04" r="1" fill="rgb(0,0,0)" />
	<circle cx="604.53" cy="406.151" r="1" fill="rgb(0,0,0)" />
	<circle cx="605.832" cy="250.84" r="1" fill="rgb(0,0,0)" />
	<circle cx="607.488" cy="187.32" r="1" fill="rgb(0,0,0)" />
	<circle cx="608.789" cy="197.019" r="1" fill="rgb(0,0,0)" />
	<circle cx="610.563" cy="180.459" r="1" fill="rgb(0,0,0)" />
	<circle cx="613.165" cy="292.95" r="1" fill="rgb(0,0,0)" />
	<circle cx="614.467" cy="336.007" r="1" fill="rgb(0,0,0)" />
	<circle cx="615.649" cy="361.084" r="1" fill="rgb(0,0,0)" />
	<circle cx="615.649" cy="293.778" r="1" fill="rgb(0,0,0)" />
	<circle cx="617.305" cy="439.153" r="1" fill="rgb(0,0,0)" />
	<circle cx="618.37" cy="205.299" r="1" fill="rgb(0,0,0)" />
	<circle cx="620.026" cy="368.417" r="1" fill="rgb(0,0,0)" />
	<circle cx="620.381" cy="351.266" r="1" fill="rgb(0,0,0)" />
	<circle cx="624.758" cy="284.197" r="1" fill="rgb(0,0,0)" />
	<circle cx="625.112" cy="435.959" r="1" fill="rgb(0,0,0)" />
	<circle cx="625.586" cy="228.957" r="1" fill="rgb(0,0,0)" />
	<circle cx="626.059" cy="239.011" r="1" fill="rgb(0,0,0)" />
	<circle cx="627.478" cy="238.42" r="1" fill="rgb(0,0,0)" />
	<circle cx="632.564" cy="238.656" r="1" fill="rgb(0,0,0)" />
	<circle cx="634.22" cy="444.121" r="1" fill="rgb(0,0,0)" />
	<circle cx="634.93" cy="297.327" r="1" fill="rgb(0,0,0)" />
	<circle cx="638.124" cy="434.658" r="1" fill="rgb(0,0,0)" />
	<circle cx="638.952" cy="448.971" r="1" fill="rgb(0,0,0)" />
	<circle cx="639.07" cy="285.853" r="1" fill="rgb(0,0,0)" />
	<circle cx="639.425" cy="452.401" r="1" fill="rgb(0,0,0)" />
	<circle cx="641.081" cy="449.917" r="1" fill="rgb(0,0,0)" />
	<circle cx="641.318" cy="259.948" r="1" fill="rgb(0,0,0)" />
	<circle cx="641.791" cy="241.613" r="1" fill="rgb(0,0,0)" />
	<circle cx="642.027" cy="243.151" r="1" fill="rgb(0,0,0)" />
	<circle cx="642.855" cy="301.23" r="1" fill="rgb(0,0,0)" />
	<circle cx="642.974" cy="439.035" r="1" fill="rgb(0,0,0)" />
	<circle cx="643.92" cy="297.09" r="1" fill="rgb(0,0,0)" />
	<circle cx="644.511" cy="423.657" r="1" fill="rgb(0,0,0)" />
	<circle cx="645.103" cy="409.108" r="1" fill="rgb(0,0,0)" />
	<circle cx="645.103" cy="225.29" r="1" fill="rgb(0,0,0)" />
	<circle cx="646.996" cy="409.936" r="1" fill="rgb(0,0,0)" />
	<circle cx="646.996" cy="405.205" r="1" fill="rgb(0,0,0)" />
	<circle cx="647.469" cy="286.444" r="1" fill="rgb(0,0,0)" />
	<circle cx="647.824" cy="251.786" r="1" fill="rgb(0,0,0)" />
	<circle cx="647.942" cy="328.318" r="1" fill="rgb(0,0,0)" />
	<circle cx="648.178" cy="339.674" r="1" fill="rgb(0,0,0)" />
	<circle cx="649.953" cy="289.52" r="1" fill="rgb(0,0,0)" />
	<circle cx="650.071" cy="383.203" r="1" fill="rgb(0,0,0)" />
	<circle cx="650.071" cy="357.18" r="1" fill="rgb(0,0,0)" />
	<circle cx="650.189" cy="286.681" r="1" fill="rgb(0,0,0)" />
	<circle cx="651.609" cy="447.67" r="1" fill="rgb(0,0,0)" />
	<circle cx="652.673" cy="448.379" r="1" fill="rgb(0,0,0)" />
	<circle cx="652.792" cy="291.885" r="1" fill="rgb(0,0,0)" />
	<circle cx="653.265" cy="324.888" r="1" fill="rgb(0,0,0)" />
	<circle cx="653.501" cy="295.079" r="1" fill="rgb(0,0,0)" />
	<circle cx="653.62" cy="366.643" r="1" fill="rgb(0,0,0)" />
	<circle cx="654.093" cy="339.437" r="1" fill="rgb(0,0,0)" />
	<circle cx="654.566" cy="348.427" r="1" fill="rgb(0,0,0)" />
	<circle cx="655.985" cy="367.116" r="1" fill="rgb(0,0,0)" />
	<circle cx="656.932" cy="204.471" r="1" fill="rgb(0,0,0)" />
	<circle cx="657.76" cy="210.267" r="1" fill="rgb(0,0,0)" />
	<circle cx="658.115" cy="175.964" r="1" fill="rgb(0,0,0)" />
	<circle cx="658.706" cy="356.825" r="1" fill="rgb(0,0,0)" />
	<circle cx="659.889" cy="187.556" r="1" fill="rgb(0,0,0)" />
	<circle cx="662.964" cy="360.847" r="1" fill="rgb(0,0,0)" />
	<circle cx="663.319" cy="235.463" r="1" fill="rgb(0,0,0)" />
	<circle cx="663.792" cy="361.32" r="1" fill="rgb(0,0,0)" />
	<circle cx="668.287" cy="165.082" r="1" fill="rgb(0,0,0)" />
	<circle cx="668.405" cy="229.075" r="1" fill="rgb(0,0,0)" />
	<circle cx="668.524" cy="290.111" r="1" fill="rgb(0,0,0)" />
	<circle cx="668.76" cy="370.192" r="1" fill="rgb(0,0,0)" />
	<circle cx="668.76" cy="341.921" r="1" fill="rgb(0,0,0)" />
	<circle cx="669.233" cy="228.957" r="1" fill="rgb(0,0,0)" />
	<circle cx="670.062" cy="222.687" r="1" fill="rgb(0,0,0)" />
	<circle cx="673.255" cy="346.298" r="1" fill="rgb(0,0,0)" />
	<circle cx="673.255" cy="305.252" r="1" fill="rgb(0,0,0)" />
	<circle cx="673.61" cy="305.134" r="1" fill="rgb(0,0,0)" />
	<circle cx="675.503" cy="403.785" r="1" fill="rgb(0,0,0)" />
	<circle cx="676.212" cy="369.364" r="1" fill="rgb(0,0,0)" />
	<circle cx="676.686" cy="272.96" r="1" fill="rgb(0,0,0)" />
	<circle cx="677.395" cy="319.92" r="1" fill="rgb(0,0,0)" />
	<circle cx="678.342" cy="355.997" r="1" fill="rgb(0,0,0)" />
	<circle cx="680.707" cy="191.696" r="1" fill="rgb(0,0,0)" />
	<circle cx="681.181" cy="192.051" r="1" fill="rgb(0,0,0)" />
	<circle cx="682.955" cy="430.163" r="1" fill="rgb(0,0,0)" />
	<circle cx="682.955" cy="228.957" r="1" fill="rgb(0,0,0)" />
	<circle cx="683.073" cy="303.951" r="1" fill="rgb(0,0,0)" />
	<circle cx="683.191" cy="430.4" r="1" fill="rgb(0,0,0)" />
	<circle cx="683.546" cy="266.454" r="1" fill="rgb(0,0,0)" />
	<circle cx="683.546" cy="241.85" r="1" fill="rgb(0,0,0)" />
	<circle cx="683.665" cy="235.936" r="1" fill="rgb(0,0,0)" />
	<circle cx="685.202" cy="235.108" r="1" fill="rgb(0,0,0)" />
	<circle cx="686.03" cy="239.957" r="1" fill="rgb(0,0,0)" />
	<circle cx="686.503" cy="231.677" r="1" fill="rgb(0,0,0)" />
	<circle cx="687.805" cy="241.259" r="1" fill="rgb(0,0,0)" />
	<circle cx="688.514" cy="225.053" r="1" fill="rgb(0,0,0)" />
	<circle cx="688.633" cy="229.785" r="1" fill="rgb(0,0,0)" />
	<circle cx="688.751" cy="215.59" r="1" fill="rgb(0,0,0)" />
	<circle cx="688.987" cy="360.847" r="1" fill="rgb(0,0,0)" />
	<circle cx="689.579" cy="361.32" r="1" fill="rgb(0,0,0)" />
	<circle cx="689.697" cy="215.59" r="1" fill="rgb(0,0,0)" />
	<circle cx="690.17" cy="240.667" r="1" fill="rgb(0,0,0)" />
	<circle cx="690.17" cy="226.236" r="1" fill="rgb(0,0,0)" />
	<circle cx="690.525" cy="228.01" r="1" fill="rgb(0,0,0)" />
	<circle cx="691.117" cy="226.709" r="1" fill="rgb(0,0,0)" />
	<circle cx="695.257" cy="438.916" r="1" fill="rgb(0,0,0)" />
	<circle cx="696.321" cy="316.134" r="1" fill="rgb(0,0,0)" />
	<circle cx="697.504" cy="316.844" r="1" fill="rgb(0,0,0)" />
	<circle cx="697.741" cy="388.053" r="1" fill="rgb(0,0,0)" />
	<circle cx="697.741" cy="328.909" r="1" fill="rgb(0,0,0)" />
	<circle cx="698.569" cy="427.206" r="1" fill="rgb(0,0,0)" />
	<circle cx="699.16" cy="235.936" r="1" fill="rgb(0,0,0)" />
	<circle cx="699.752" cy="329.737" r="1" fill="rgb(0,0,0)" />
	<circle cx="700.461" cy="339.792" r="1" fill="rgb(0,0,0)" />
	<circle cx="701.408" cy="438.088" r="1" fill="rgb(0,0,0)" />
	<circle cx="702.117" cy="392.311" r="1" fill="rgb(0,0,0)" />
	<circle cx="703.419" cy="332.695" r="1" fill="rgb(0,0,0)" />
	<circle cx="703.773" cy="112.089" r="1" fill="rgb(0,0,0)" />
	<circle cx="704.128" cy="316.489" r="1" fill="rgb(0,0,0)" />
	<circle cx="705.784" cy="307.973" r="1" fill="rgb(0,0,0)" />
	<circle cx="706.139" cy="404.495" r="1" fill="rgb(0,0,0)" />
	<circle cx="706.139" cy="357.771" r="1" fill="rgb(0,0,0)" />
	<circle cx="707.204" cy="332.576" r="1" fill="rgb(0,0,0)" />
	<circle cx="708.032" cy="333.168" r="1" fill="rgb(0,0,0)" />
	<circle cx="710.871" cy="359.546" r="1" fill="rgb(0,0,0)" />
	<circle cx="710.989" cy="332.458" r="1" fill="rgb(0,0,0)" />
	<circle cx="711.225" cy="246.345" r="1" fill="rgb(0,0,0)" />
	<circle cx="713" cy="355.642" r="1" fill="rgb(0,0,0)" />
	<circle cx="713.118" cy="338.254" r="1" fill="rgb(0,0,0)" />
	<circle cx="714.656" cy="422.238" r="1" fill="rgb(0,0,0)" />
	<circle cx="714.656" cy="341.211" r="1" fill="rgb(0,0,0)" />
	<circle cx="714.656" cy="339.555" r="1" fill="rgb(0,0,0)" />
	<circle cx="715.011" cy="334.114" r="1" fill="rgb(0,0,0)" />
	<circle cx="715.72" cy="230.494" r="1" fill="rgb(0,0,0)" />
	<circle cx="717.258" cy="342.631" r="1" fill="rgb(0,0,0)" />
	<circle cx="717.85" cy="238.538" r="1" fill="rgb(0,0,0)" />
	<circle cx="718.914" cy="351.739" r="1" fill="rgb(0,0,0)" />
	<circle cx="719.86" cy="272.841" r="1" fill="rgb(0,0,0)" />
	<circle cx="720.097" cy="273.788" r="1" fill="rgb(0,0,0)" />
	<circle cx="720.452" cy="268.938" r="1" fill="rgb(0,0,0)" />
	<circle cx="720.452" cy="228.838" r="1" fill="rgb(0,0,0)" />
	<circle cx="720.925" cy="352.567" r="1" fill="rgb(0,0,0)" />
	<circle cx="723.172" cy="269.884" r="1" fill="rgb(0,0,0)" />
	<circle cx="724" cy="283.605" r="1" fill="rgb(0,0,0)" />
	<circle cx="724.119" cy="321.221" r="1" fill="rgb(0,0,0)" />
	<circle cx="724.237" cy="373.031" r="1" fill="rgb(0,0,0)" />
	<circle cx="725.538" cy="286.444" r="1" fill="rgb(0,0,0)" />
	<circle cx="726.248" cy="352.567" r="1" fill="rgb(0,0,0)" />
	<circle cx="727.076" cy="299.101" r="1" fill="rgb(0,0,0)" />
	<circle cx="727.194" cy="243.388" r="1" fill="rgb(0,0,0)" />
	<circle cx="727.431" cy="394.914" r="1" fill="rgb(0,0,0)" />
	<circle cx="727.431" cy="366.17" r="1" fill="rgb(0,0,0)" />
	<circle cx="727.431" cy="291.294" r="1" fill="rgb(0,0,0)" />
	<circle cx="727.431" cy="238.656" r="1" fill="rgb(0,0,0)" />
	<circle cx="727.904" cy="269.174" r="1" fill="rgb(0,0,0)" />
	<circle cx="728.495" cy="185.19" r="1" fill="rgb(0,0,0)" />
	<circle cx="728.614" cy="298.155" r="1" fill="rgb(0,0,0)" />
	<circle cx="729.323" cy="258.174" r="1" fill="rgb(0,0,0)" />
	<circle cx="730.151" cy="304.187" r="1" fill="rgb(0,0,0)" />
	<circle cx="731.098" cy="339.792" r="1" fill="rgb(0,0,0)" />
	<circle cx="732.162" cy="400.237" r="1" fill="rgb(0,0,0)" />
	<circle cx="732.162" cy="338.018" r="1" fill="rgb(0,0,0)" />
	<circle cx="732.754" cy="202.934" r="1" fill="rgb(0,0,0)" />
	<circle cx="733.818" cy="289.401" r="1" fill="rgb(0,0,0)" />
	<circle cx="734.528" cy="295.907" r="1" fill="rgb(0,0,0)" />
	<circle cx="735.711" cy="448.379" r="1" fill="rgb(0,0,0)" />
	<circle cx="735.947" cy="358.599" r="1" fill="rgb(0,0,0)" />
	<circle cx="736.657" cy="248.119" r="1" fill="rgb(0,0,0)" />
	<circle cx="737.249" cy="250.012" r="1" fill="rgb(0,0,0)" />
	<circle cx="737.604" cy="280.057" r="1" fill="rgb(0,0,0)" />
	<circle cx="737.604" cy="254.862" r="1" fill="rgb(0,0,0)" />
	<circle cx="739.969" cy="321.221" r="1" fill="rgb(0,0,0)" />
	<circle cx="740.324" cy="341.33" r="1" fill="rgb(0,0,0)" />
	<circle cx="740.561" cy="400.591" r="1" fill="rgb(0,0,0)" />
	<circle cx="740.679" cy="246.227" r="1" fill="rgb(0,0,0)" />
	<circle cx="740.797" cy="283.96" r="1" fill="rgb(0,0,0)" />
	<circle cx="740.916" cy="237" r="1" fill="rgb(0,0,0)" />
	<circle cx="741.034" cy="216.773" r="1" fill="rgb(0,0,0)" />
	<circle cx="742.572" cy="402.366" r="1" fill="rgb(0,0,0)" />
	<circle cx="743.636" cy="290.821" r="1" fill="rgb(0,0,0)" />
	<circle cx="746.948" cy="303.714" r="1" fill="rgb(0,0,0)" />
	<circle cx="747.894" cy="320.866" r="1" fill="rgb(0,0,0)" />
	<circle cx="748.249" cy="252.496" r="1" fill="rgb(0,0,0)" />
	<circle cx="748.722" cy="381.665" r="1" fill="rgb(0,0,0)" />
	<circle cx="748.722" cy="375.041" r="1" fill="rgb(0,0,0)" />
	<circle cx="748.722" cy="322.404" r="1" fill="rgb(0,0,0)" />
	<circle cx="749.314" cy="380.601" r="1" fill="rgb(0,0,0)" />
	<circle cx="749.432" cy="302.058" r="1" fill="rgb(0,0,0)" />
	<circle cx="749.905" cy="152.07" r="1" fill="rgb(0,0,0)" />
	<circle cx="750.024" cy="285.38" r="1" fill="rgb(0,0,0)" />
	<circle cx="752.389" cy="388.171" r="1" fill="rgb(0,0,0)" />
	<circle cx="752.863" cy="314.952" r="1" fill="rgb(0,0,0)" />
	<circle cx="753.217" cy="307.618" r="1" fill="rgb(0,0,0)" />
	<circle cx="753.336" cy="341.921" r="1" fill="rgb(0,0,0)" />
	<circle cx="753.454" cy="305.962" r="1" fill="rgb(0,0,0)" />
	<circle cx="753.572" cy="275.562" r="1" fill="rgb(0,0,0)" />
	<circle cx="753.691" cy="272.486" r="1" fill="rgb(0,0,0)" />
	<circle cx="753.927" cy="370.428" r="1" fill="rgb(0,0,0)" />
	<circle cx="754.4" cy="379.773" r="1" fill="rgb(0,0,0)" />
	<circle cx="755.465" cy="442.583" r="1" fill="rgb(0,0,0)" />
	<circle cx="755.465" cy="271.895" r="1" fill="rgb(0,0,0)" />
	<circle cx="755.701" cy="377.644" r="1" fill="rgb(0,0,0)" />
	<circle cx="755.701" cy="339.91" r="1" fill="rgb(0,0,0)" />
	<circle cx="755.701" cy="214.407" r="1" fill="rgb(0,0,0)" />
	<circle cx="756.056" cy="384.268" r="1" fill="rgb(0,0,0)" />
	<circle cx="757.594" cy="206.6" r="1" fill="rgb(0,0,0)" />
	<circle cx="759.25" cy="368.772" r="1" fill="rgb(0,0,0)" />
	<circle cx="759.368" cy="418.335" r="1" fill="rgb(0,0,0)" />
	<circle cx="760.078" cy="576.958" r="1" fill="rgb(0,0,0)" />
	<circle cx="760.078" cy="339.437" r="1" fill="rgb(0,0,0)" />
	<circle cx="761.379" cy="338.727" r="1" fill="rgb(0,0,0)" />
	<circle cx="761.379" cy="338.609" r="1" fill="rgb(0,0,0)" />
	<circle cx="761.734" cy="323.705" r="1" fill="rgb(0,0,0)" />
	<circle cx="761.852" cy="375.278" r="1" fill="rgb(0,0,0)" />
	<circle cx="763.39" cy="363.804" r="1" fill="rgb(0,0,0)" />
	<circle cx="763.627" cy="395.623" r="1" fill="rgb(0,0,0)" />
	<circle cx="763.982" cy="380.364" r="1" fill="rgb(0,0,0)" />
	<circle cx="764.336" cy="269.411" r="1" fill="rgb(0,0,0)" />
	<circle cx="764.455" cy="224.817" r="1" fill="rgb(0,0,0)" />
	<circle cx="764.691" cy="372.794" r="1" fill="rgb(0,0,0)" />
	<circle cx="765.874" cy="227.892" r="1" fill="rgb(0,0,0)" />
	<circle cx="766.702" cy="364.514" r="1" fill="rgb(0,0,0)" />
	<circle cx="769.068" cy="256.044" r="1" fill="rgb(0,0,0)" />
	<circle cx="769.186" cy="228.72" r="1" fill="rgb(0,0,0)" />
	<circle cx="770.251" cy="398.935" r="1" fill="rgb(0,0,0)" />
	<circle cx="770.251" cy="364.869" r="1" fill="rgb(0,0,0)" />
	<circle cx="770.251" cy="230.376" r="1" fill="rgb(0,0,0)" />
	<circle cx="770.724" cy="246.936" r="1" fill="rgb(0,0,0)" />
	<circle cx="770.96" cy="189.685" r="1" fill="rgb(0,0,0)" />
	<circle cx="771.789" cy="389.709" r="1" fill="rgb(0,0,0)" />
	<circle cx="771.907" cy="225.763" r="1" fill="rgb(0,0,0)" />
	<circle cx="772.143" cy="263.378" r="1" fill="rgb(0,0,0)" />
	<circle cx="772.853" cy="267.518" r="1" fill="rgb(0,0,0)" />
	<circle cx="773.09" cy="431.701" r="1" fill="rgb(0,0,0)" />
	<circle cx="773.208" cy="270.949" r="1" fill="rgb(0,0,0)" />
	<circle cx="774.154" cy="220.795" r="1" fill="rgb(0,0,0)" />
	<circle cx="774.273" cy="266.69" r="1" fill="rgb(0,0,0)" />
	<circle cx="774.509" cy="286.563" r="1" fill="rgb(0,0,0)" />
	<circle cx="775.219" cy="307.973" r="1" fill="rgb(0,0,0)" />
	<circle cx="775.81" cy="218.902" r="1" fill="rgb(0,0,0)" />
	<circle cx="776.165" cy="361.675" r="1" fill="rgb(0,0,0)" />
	<circle cx="776.875" cy="227.537" r="1" fill="rgb(0,0,0)" />
	<circle cx="777.821" cy="367.471" r="1" fill="rgb(0,0,0)" />
	<circle cx="779.359" cy="482.683" r="1" fill="rgb(0,0,0)" />
	<circle cx="780.423" cy="481.855" r="1" fill="rgb(0,0,0)" />
	<circle cx="780.423" cy="254.388" r="1" fill="rgb(0,0,0)" />
	<circle cx="780.778" cy="295.907" r="1" fill="rgb(0,0,0)" />
	<circle cx="781.015" cy="293.66" r="1" fill="rgb(0,0,0)" />
	<circle cx="781.133" cy="308.919" r="1" fill="rgb(0,0,0)" />
	<circle cx="781.606" cy="441.874" r="1" fill="rgb(0,0,0)" />
	<circle cx="781.725" cy="363.804" r="1" fill="rgb(0,0,0)" />
	<circle cx="782.434" cy="364.277" r="1" fill="rgb(0,0,0)" />
	<circle cx="782.434" cy="320.393" r="1" fill="rgb(0,0,0)" />
	<circle cx="783.262" cy="294.488" r="1" fill="rgb(0,0,0)" />
	<circle cx="783.617" cy="475.822" r="1" fill="rgb(0,0,0)" />
	<circle cx="784.209" cy="483.392" r="1" fill="rgb(0,0,0)" />
	<circle cx="784.682" cy="463.52" r="1" fill="rgb(0,0,0)" />
	<circle cx="785.628" cy="328.673" r="1" fill="rgb(0,0,0)" />
	<circle cx="785.746" cy="441.874" r="1" fill="rgb(0,0,0)" />
	<circle cx="786.574" cy="569.979" r="1" fill="rgb(0,0,0)" />
	<circle cx="786.693" cy="473.101" r="1" fill="rgb(0,0,0)" />
	<circle cx="786.693" cy="333.996" r="1" fill="rgb(0,0,0)" />
	<circle cx="787.757" cy="444.831" r="1" fill="rgb(0,0,0)" />
	<circle cx="788.112" cy="409.226" r="1" fill="rgb(0,0,0)" />
	<circle cx="788.704" cy="296.499" r="1" fill="rgb(0,0,0)" />
	<circle cx="788.822" cy="406.979" r="1" fill="rgb(0,0,0)" />
	<circle cx="789.177" cy="356.47" r="1" fill="rgb(0,0,0)" />
	<circle cx="789.532" cy="466.123" r="1" fill="rgb(0,0,0)" />
	<circle cx="790.241" cy="478.543" r="1" fill="rgb(0,0,0)" />
	<circle cx="790.36" cy="361.675" r="1" fill="rgb(0,0,0)" />
	<circle cx="790.596" cy="390.537" r="1" fill="rgb(0,0,0)" />
	<circle cx="790.951" cy="402.247" r="1" fill="rgb(0,0,0)" />
	<circle cx="791.306" cy="385.924" r="1" fill="rgb(0,0,0)" />
	<circle cx="791.424" cy="460.445" r="1" fill="rgb(0,0,0)" />
	<circle cx="792.134" cy="461.628" r="1" fill="rgb(0,0,0)" />
	<circle cx="792.134" cy="456.541" r="1" fill="rgb(0,0,0)" />
	<circle cx="792.134" cy="384.15" r="1" fill="rgb(0,0,0)" />
	<circle cx="794.145" cy="438.207" r="1" fill="rgb(0,0,0)" />
	<circle cx="794.5" cy="242.205" r="1" fill="rgb(0,0,0)" />
	<circle cx="794.855" cy="226.473" r="1" fill="rgb(0,0,0)" />
	<circle cx="794.973" cy="359.664" r="1" fill="rgb(0,0,0)" />
	<circle cx="795.801" cy="381.192" r="1" fill="rgb(0,0,0)" />
	<circle cx="796.511" cy="480.08" r="1" fill="rgb(0,0,0)" />
	<circle cx="796.747" cy="256.163" r="1" fill="rgb(0,0,0)" />
	<circle cx="797.693" cy="483.511" r="1" fill="rgb(0,0,0)" />
	<circle cx="798.521" cy="402.129" r="1" fill="rgb(0,0,0)" />
	<circle cx="798.64" cy="503.974" r="1" fill="rgb(0,0,0)" />
	<circle cx="798.876" cy="443.057" r="1" fill="rgb(0,0,0)" />
	<circle cx="799.231" cy="431.11" r="1" fill="rgb(0,0,0)" />
	<circle cx="799.468" cy="515.212" r="1" fill="rgb(0,0,0)" />
	<circle cx="800.059" cy="251.076" r="1" fill="rgb(0,0,0)" />
	<circle cx="800.769" cy="481.5" r="1" fill="rgb(0,0,0)" />
	<circle cx="802.07" cy="245.753" r="1" fill="rgb(0,0,0)" />
	<circle cx="802.78" cy="503.856" r="1" fill="rgb(0,0,0)" />
	<circle cx="803.253" cy="472.037" r="1" fill="rgb(0,0,0)" />
	<circle cx="803.371" cy="352.803" r="1" fill="rgb(0,0,0)" />
	<circle cx="803.371" cy="346.771" r="1" fill="rgb(0,0,0)" />
	<circle cx="803.371" cy="268.11" r="1" fill="rgb(0,0,0)" />
	<circle cx="803.844" cy="471.209" r="1" fill="rgb(0,0,0)" />
	<circle cx="804.081" cy="244.452" r="1" fill="rgb(0,0,0)" />
	<circle cx="804.672" cy="474.876" r="1" fill="rgb(0,0,0)" />
	<circle cx="804.791" cy="476.887" r="1" fill="rgb(0,0,0)" />
	<circle cx="805.382" cy="254.625" r="1" fill="rgb(0,0,0)" />
	<circle cx="805.5" cy="472.037" r="1" fill="rgb(0,0,0)" />
	<circle cx="805.737" cy="344.996" r="1" fill="rgb(0,0,0)" />
	<circle cx="805.974" cy="248.119" r="1" fill="rgb(0,0,0)" />
	<circle cx="806.21" cy="388.763" r="1" fill="rgb(0,0,0)" />
	<circle cx="806.328" cy="463.52" r="1" fill="rgb(0,0,0)" />
	<circle cx="806.447" cy="540.289" r="1" fill="rgb(0,0,0)" />
	<circle cx="806.565" cy="494.511" r="1" fill="rgb(0,0,0)" />
	<circle cx="807.156" cy="241.968" r="1" fill="rgb(0,0,0)" />
	<circle cx="807.393" cy="460.681" r="1" fill="rgb(0,0,0)" />
	<circle cx="809.049" cy="218.429" r="1" fill="rgb(0,0,0)" />
	<circle cx="809.167" cy="408.99" r="1" fill="rgb(0,0,0)" />
	<circle cx="809.404" cy="377.88" r="1" fill="rgb(0,0,0)" />
	<circle cx="809.64" cy="352.33" r="1" fill="rgb(0,0,0)" />
	<circle cx="813.662" cy="236.172" r="1" fill="rgb(0,0,0)" />
	<circle cx="813.78" cy="379.655" r="1" fill="rgb(0,0,0)" />
	<circle cx="814.017" cy="152.425" r="1" fill="rgb(0,0,0)" />
	<circle cx="814.254" cy="464.23" r="1" fill="rgb(0,0,0)" />
	<circle cx="814.49" cy="375.988" r="1" fill="rgb(0,0,0)" />
	<circle cx="814.49" cy="343.932" r="1" fill="rgb(0,0,0)" />
	<circle cx="814.727" cy="381.192" r="1" fill="rgb(0,0,0)" />
	<circle cx="815.082" cy="273.433" r="1" fill="rgb(0,0,0)" />
	<circle cx="815.673" cy="375.633" r="1" fill="rgb(0,0,0)" />
	<circle cx="815.673" cy="374.568" r="1" fill="rgb(0,0,0)" />
	<circle cx="815.673" cy="348.782" r="1" fill="rgb(0,0,0)" />
	<circle cx="816.856" cy="494.275" r="1" fill="rgb(0,0,0)" />
	<circle cx="817.211" cy="247.055" r="1" fill="rgb(0,0,0)" />
	<circle cx="817.329" cy="370.783" r="1" fill="rgb(0,0,0)" />
	<circle cx="817.447" cy="375.988" r="1" fill="rgb(0,0,0)" />
	<circle cx="817.566" cy="393.258" r="1" fill="rgb(0,0,0)" />
	<circle cx="818.275" cy="234.753" r="1" fill="rgb(0,0,0)" />
	<circle cx="818.394" cy="357.417" r="1" fill="rgb(0,0,0)" />
	<circle cx="819.34" cy="214.762" r="1" fill="rgb(0,0,0)" />
	<circle cx="819.813" cy="248.356" r="1" fill="rgb(0,0,0)" />
	<circle cx="820.286" cy="257.464" r="1" fill="rgb(0,0,0)" />
	<circle cx="820.405" cy="268.701" r="1" fill="rgb(0,0,0)" />
	<circle cx="820.641" cy="350.674" r="1" fill="rgb(0,0,0)" />
	<circle cx="820.878" cy="521.008" r="1" fill="rgb(0,0,0)" />
	<circle cx="821.942" cy="284.197" r="1" fill="rgb(0,0,0)" />
	<circle cx="822.297" cy="238.42" r="1" fill="rgb(0,0,0)" />
	<circle cx="822.534" cy="487.178" r="1" fill="rgb(0,0,0)" />
	<circle cx="822.77" cy="268.465" r="1" fill="rgb(0,0,0)" />
	<circle cx="823.243" cy="342.867" r="1" fill="rgb(0,0,0)" />
	<circle cx="823.362" cy="514.502" r="1" fill="rgb(0,0,0)" />
	<circle cx="823.48" cy="376.106" r="1" fill="rgb(0,0,0)" />
	<circle cx="824.426" cy="492.027" r="1" fill="rgb(0,0,0)" />
	<circle cx="824.545" cy="494.63" r="1" fill="rgb(0,0,0)" />
	<circle cx="824.663" cy="261.722" r="1" fill="rgb(0,0,0)" />
	<circle cx="824.781" cy="262.077" r="1" fill="rgb(0,0,0)" />
	<circle cx="824.899" cy="493.92" r="1" fill="rgb(0,0,0)" />
	<circle cx="825.609" cy="513.556" r="1" fill="rgb(0,0,0)" />
	<circle cx="825.727" cy="336.953" r="1" fill="rgb(0,0,0)" />
	<circle cx="826.082" cy="337.189" r="1" fill="rgb(0,0,0)" />
	<circle cx="826.555" cy="496.759" r="1" fill="rgb(0,0,0)" />
	<circle cx="827.383" cy="384.859" r="1" fill="rgb(0,0,0)" />
	<circle cx="828.448" cy="516.276" r="1" fill="rgb(0,0,0)" />
	<circle cx="828.566" cy="573.054" r="1" fill="rgb(0,0,0)" />
	<circle cx="829.986" cy="258.883" r="1" fill="rgb(0,0,0)" />
	<circle cx="830.696" cy="273.551" r="1" fill="rgb(0,0,0)" />
	<circle cx="831.524" cy="338.018" r="1" fill="rgb(0,0,0)" />
	<circle cx="831.76" cy="396.925" r="1" fill="rgb(0,0,0)" />
	<circle cx="832.352" cy="208.611" r="1" fill="rgb(0,0,0)" />
	<circle cx="832.943" cy="322.522" r="1" fill="rgb(0,0,0)" />
	<circle cx="833.061" cy="269.056" r="1" fill="rgb(0,0,0)" />
	<circle cx="833.18" cy="267.518" r="1" fill="rgb(0,0,0)" />
	<circle cx="834.008" cy="350.438" r="1" fill="rgb(0,0,0)" />
	<circle cx="834.244" cy="329.501" r="1" fill="rgb(0,0,0)" />
	<circle cx="834.362" cy="341.33" r="1" fill="rgb(0,0,0)" />
	<circle cx="835.072" cy="207.31" r="1" fill="rgb(0,0,0)" />
	<circle cx="835.072" cy="199.385" r="1" fill="rgb(0,0,0)" />
	<circle cx="835.19" cy="363.213" r="1" fill="rgb(0,0,0)" />
	<circle cx="835.664" cy="244.216" r="1" fill="rgb(0,0,0)" />
	<circle cx="835.664" cy="235.463" r="1" fill="rgb(0,0,0)" />
	<circle cx="835.664" cy="198.912" r="1" fill="rgb(0,0,0)" />
	<circle cx="837.438" cy="315.07" r="1" fill="rgb(0,0,0)" />
	<circle cx="838.739" cy="257.937" r="1" fill="rgb(0,0,0)" />
	<circle cx="838.857" cy="210.977" r="1" fill="rgb(0,0,0)" />
	<circle cx="838.976" cy="352.922" r="1" fill="rgb(0,0,0)" />
	<circle cx="839.567" cy="343.814" r="1" fill="rgb(0,0,0)" />
	<circle cx="839.685" cy="360.137" r="1" fill="rgb(0,0,0)" />
	<circle cx="839.804" cy="192.524" r="1" fill="rgb(0,0,0)" />
	<circle cx="840.277" cy="361.793" r="1" fill="rgb(0,0,0)" />
	<circle cx="840.277" cy="336.125" r="1" fill="rgb(0,0,0)" />
	<circle cx="840.395" cy="224.698" r="1" fill="rgb(0,0,0)" />
	<circle cx="841.105" cy="362.385" r="1" fill="rgb(0,0,0)" />
	<circle cx="843.944" cy="197.256" r="1" fill="rgb(0,0,0)" />
	<circle cx="844.18" cy="256.754" r="1" fill="rgb(0,0,0)" />
	<circle cx="846.546" cy="339.674" r="1" fill="rgb(0,0,0)" />
	<circle cx="847.492" cy="264.916" r="1" fill="rgb(0,0,0)" />
	<circle cx="847.847" cy="339.674" r="1" fill="rgb(0,0,0)" />
	<circle cx="848.32" cy="365.224" r="1" fill="rgb(0,0,0)" />
	<circle cx="849.385" cy="336.125" r="1" fill="rgb(0,0,0)" />
	<circle cx="851.396" cy="327.135" r="1" fill="rgb(0,0,0)" />
	<circle cx="851.632" cy="245.753" r="1" fill="rgb(0,0,0)" />
	<circle cx="851.869" cy="213.225" r="1" fill="rgb(0,0,0)" />
	<circle cx="852.224" cy="296.144" r="1" fill="rgb(0,0,0)" />
	<circle cx="852.342" cy="369.009" r="1" fill="rgb(0,0,0)" />
	<circle cx="852.815" cy="368.89" r="1" fill="rgb(0,0,0)" />
	<circle cx="853.525" cy="588.195" r="1" fill="rgb(0,0,0)" />
	<circle cx="856.482" cy="346.889" r="1" fill="rgb(0,0,0)" />
	<circle cx="856.955" cy="258.174" r="1" fill="rgb(0,0,0)" />
	<circle cx="858.138" cy="344.996" r="1" fill="rgb(0,0,0)" />
	<circle cx="858.493" cy="360.019" r="1" fill="rgb(0,0,0)" />
	<circle cx="858.73" cy="375.041" r="1" fill="rgb(0,0,0)" />
	<circle cx="861.214" cy="585.947" r="1" fill="rgb(0,0,0)" />
	<circle cx="863.698" cy="349.491" r="1" fill="rgb(0,0,0)" />
	<circle cx="863.816" cy="349.137" r="1" fill="rgb(0,0,0)" />
	<circle cx="864.171" cy="375.988" r="1" fill="rgb(0,0,0)" />
	<circle cx="865.59" cy="294.37" r="1" fill="rgb(0,0,0)" />
	<circle cx="867.838" cy="350.083" r="1" fill="rgb(0,0,0)" />
	<circle cx="869.257" cy="358.954" r="1" fill="rgb(0,0,0)" />
	<circle cx="872.687" cy="211.568" r="1" fill="rgb(0,0,0)" />
	<circle cx="873.397" cy="366.643" r="1" fill="rgb(0,0,0)" />
	<circle cx="873.397" cy="267.163" r="1" fill="rgb(0,0,0)" />
	<circle cx="873.87" cy="295.434" r="1" fill="rgb(0,0,0)" />
	<circle cx="873.87" cy="282.541" r="1" fill="rgb(0,0,0)" />
	<circle cx="874.58" cy="339.674" r="1" fill="rgb(0,0,0)" />
	<circle cx="875.881" cy="284.433" r="1" fill="rgb(0,0,0)" />
	<circle cx="876" cy="296.854" r="1" fill="rgb(0,0,0)" />
	<circle cx="876.709" cy="292.595" r="1" fill="rgb(0,0,0)" />
	<circle cx="879.903" cy="289.875" r="1" fill="rgb(0,0,0)" />
	<circle cx="880.14" cy="362.858" r="1" fill="rgb(0,0,0)" />
	<circle cx="880.613" cy="282.423" r="1" fill="rgb(0,0,0)" />
	<circle cx="881.677" cy="342.039" r="1" fill="rgb(0,0,0)" />
	<circle cx="882.86" cy="216.891" r="1" fill="rgb(0,0,0)" />
	<circle cx="883.097" cy="251.55" r="1" fill="rgb(0,0,0)" />
	<circle cx="887.237" cy="315.07" r="1" fill="rgb(0,0,0)" />
	<circle cx="887.71" cy="280.412" r="1" fill="rgb(0,0,0)" />
	<circle cx="887.828" cy="264.206" r="1" fill="rgb(0,0,0)" />
	<circle cx="888.656" cy="298.51" r="1" fill="rgb(0,0,0)" />
	<circle cx="888.893" cy="295.907" r="1" fill="rgb(0,0,0)" />
	<circle cx="893.743" cy="317.554" r="1" fill="rgb(0,0,0)" />
	<circle cx="895.162" cy="285.971" r="1" fill="rgb(0,0,0)" />
	<circle cx="895.517" cy="325.124" r="1" fill="rgb(0,0,0)" />
	<circle cx="895.635" cy="286.444" r="1" fill="rgb(0,0,0)" />
	<circle cx="899.184" cy="275.798" r="1" fill="rgb(0,0,0)" />
	<circle cx="899.539" cy="281.713" r="1" fill="rgb(0,0,0)" />
	<circle cx="899.775" cy="281.713" r="1" fill="rgb(0,0,0)" />
	<circle cx="899.894" cy="289.875" r="1" fill="rgb(0,0,0)" />
	<circle cx="899.894" cy="251.431" r="1" fill="rgb(0,0,0)" />
	<circle cx="900.84" cy="245.517" r="1" fill="rgb(0,0,0)" />
	<circle cx="902.141" cy="214.762" r="1" fill="rgb(0,0,0)" />
	<circle cx="903.206" cy="197.374" r="1" fill="rgb(0,0,0)" />
	<circle cx="904.034" cy="196.309" r="1" fill="rgb(0,0,0)" />
	<circle cx="906.163" cy="276.035" r="1" fill="rgb(0,0,0)" />
	<circle cx="906.754" cy="243.269" r="1" fill="rgb(0,0,0)" />
	<circle cx="909.12" cy="296.854" r="1" fill="rgb(0,0,0)" />
	<circle cx="909.238" cy="257.937" r="1" fill="rgb(0,0,0)" />
	<circle cx="912.669" cy="255.69" r="1" fill="rgb(0,0,0)" />
	<circle cx="915.626" cy="289.993" r="1" fill="rgb(0,0,0)" />
	<circle cx="916.454" cy="274.261" r="1" fill="rgb(0,0,0)" />
	<circle cx="916.809" cy="276.981" r="1" fill="rgb(0,0,0)" />
	<circle cx="917.873" cy="271.895" r="1" fill="rgb(0,0,0)" />
	<circle cx="920.949" cy="269.648" r="1" fill="rgb(0,0,0)" />
	<circle cx="921.895" cy="273.551" r="1" fill="rgb(0,0,0)" />
	<circle cx="923.669" cy="264.088" r="1" fill="rgb(0,0,0)" />
	<circle cx="923.788" cy="257.819" r="1" fill="rgb(0,0,0)" />
	<circle cx="924.497" cy="250.012" r="1" fill="rgb(0,0,0)" />
	<circle cx="926.272" cy="259.83" r="1" fill="rgb(0,0,0)" />
	<circle cx="927.454" cy="257.582" r="1" fill="rgb(0,0,0)" />
	<circle cx="929.702" cy="245.753" r="1" fill="rgb(0,0,0)" />
	<circle cx="929.82" cy="214.762" r="1" fill="rgb(0,0,0)" />
	<circle cx="930.767" cy="265.507" r="1" fill="rgb(0,0,0)" />
	<circle cx="931.949" cy="241.377" r="1" fill="rgb(0,0,0)" />
	<circle cx="932.423" cy="248.947" r="1" fill="rgb(0,0,0)" />
	<circle cx="935.616" cy="267.045" r="1" fill="rgb(0,0,0)" />
	<circle cx="935.616" cy="251.786" r="1" fill="rgb(0,0,0)" />
	<circle cx="936.444" cy="227.419" r="1" fill="rgb(0,0,0)" />
	<circle cx="936.681" cy="254.507" r="1" fill="rgb(0,0,0)" />
	<circle cx="936.917" cy="248.592" r="1" fill="rgb(0,0,0)" />
	<circle cx="937.745" cy="258.292" r="1" fill="rgb(0,0,0)" />
	<circle cx="938.928" cy="248.947" r="1" fill="rgb(0,0,0)" />
	<circle cx="939.52" cy="253.679" r="1" fill="rgb(0,0,0)" />
	<circle cx="939.52" cy="253.206" r="1" fill="rgb(0,0,0)" />
	<circle cx="943.778" cy="252.969" r="1" fill="rgb(0,0,0)" />
	<circle cx="944.724" cy="164.727" r="1" fill="rgb(0,0,0)" />
	<circle cx="947.445" cy="253.442" r="1" fill="rgb(0,0,0)" />
	<circle cx="950.047" cy="169.222" r="1" fill="rgb(0,0,0)" />
	<circle cx="950.402" cy="172.652" r="1" fill="rgb(0,0,0)" />
	<circle cx="950.639" cy="165.318" r="1" fill="rgb(0,0,0)" />
	<circle cx="951.822" cy="251.195" r="1" fill="rgb(0,0,0)" />
	<circle cx="952.413" cy="242.205" r="1" fill="rgb(0,0,0)" />
	<circle cx="957.026" cy="252.732" r="1" fill="rgb(0,0,0)" />
	<circle cx="958.682" cy="175.727" r="1" fill="rgb(0,0,0)" />
	<circle cx="959.155" cy="236.645" r="1" fill="rgb(0,0,0)" />
	<circle cx="959.392" cy="237.237" r="1" fill="rgb(0,0,0)" />
	<circle cx="961.166" cy="154.199" r="1" fill="rgb(0,0,0)" />
	<circle cx="962.467" cy="173.598" r="1" fill="rgb(0,0,0)" />
	<circle cx="963.295" cy="151.479" r="1" fill="rgb(0,0,0)" />
	<circle cx="965.07" cy="178.211" r="1" fill="rgb(0,0,0)" />
	<circle cx="967.436" cy="237" r="1" fill="rgb(0,0,0)" />
	<circle cx="967.672" cy="244.571" r="1" fill="rgb(0,0,0)" />
	<circle cx="970.866" cy="240.904" r="1" fill="rgb(0,0,0)" />
	<circle cx="970.984" cy="231.441" r="1" fill="rgb(0,0,0)" />
	<circle cx="971.339" cy="243.506" r="1" fill="rgb(0,0,0)" />
	<circle cx="979.501" cy="159.404" r="1" fill="rgb(0,0,0)" />
	<circle cx="982.221" cy="150.059" r="1" fill="rgb(0,0,0)" />
	<circle cx="982.576" cy="215.709" r="1" fill="rgb(0,0,0)" />
	<circle cx="983.641" cy="225.172" r="1" fill="rgb(0,0,0)" />
	<circle cx="983.877" cy="222.806" r="1" fill="rgb(0,0,0)" />
	<circle cx="988.136" cy="237.237" r="1" fill="rgb(0,0,0)" />
	<circle cx="988.846" cy="225.172" r="1" fill="rgb(0,0,0)" />
	<circle cx="989.555" cy="218.902" r="1" fill="rgb(0,0,0)" />
	<circle cx="992.276" cy="215.709" r="1" fill="rgb(0,0,0)" />
	<circle cx="996.534" cy="212.278" r="1" fill="rgb(0,0,0)" />
	<circle cx="997.362" cy="236.764" r="1" fill="rgb(0,0,0)" />
	<circle cx="1047.4" cy="119.068" r="1" fill="rgb(0,0,0)" />
	<circle cx="1050" cy="158.694" r="1" fill="rgb(0,0,0)" />
</svg>
