<?xml version="1.0" standalone="no" ?>
<!DOCTYPE svg PUBLIC "-//W3C//DTD SVG 1.1//EN" "http://www.w3.org/Graphics/SVG/1.1/DTD/svg11.dtd">
<svg width="1100px" height="480.532px" xmlns="http://www.w3.org/2000/svg" version="1.1" >
	<circle cx="50" cy="26.0691" r="1" fill="rgb(0,0,0)" />
	<circle cx="252.636" cy="313.613" r="1" fill="rgb(0,0,0)" />
	<circle cx="257.857" cy="327.785" r="1" fill="rgb(0,0,0)" />
	<circle cx="266.932" cy="145.288" r="1" fill="rgb(0,0,0)" />
	<circle cx="271.283" cy="340.092" r="1" fill="rgb(0,0,0)" />
	<circle cx="355.445" cy="346.432" r="1" fill="rgb(0,0,0)" />
	<circle cx="416.484" cy="458.69" r="1" fill="rgb(0,0,0)" />
	<circle cx="418.722" cy="21.8424" r="1" fill="rgb(0,0,0)" />
	<circle cx="458.379" cy="68.088" r="1" fill="rgb(0,0,0)" />
	<circle cx="525.385" cy="332.509" r="1" fill="rgb(0,0,0)" />
	<circle cx="526.007" cy="330.893" r="1" fill="rgb(0,0,0)" />
	<circle cx="528.245" cy="320.947" r="1" fill="rgb(0,0,0)" />
	<circle cx="529.364" cy="322.563" r="1" fill="rgb(0,0,0)" />
	<circle cx="530.98" cy="325.547" r="1" fill="rgb(0,0,0)" />
	<circle cx="544.903" cy="357.372" r="1" fill="rgb(0,0,0)" />
	<circle cx="551.492" cy="85.368" r="1" fill="rgb(0,0,0)" />
	<circle cx="562.805" cy="345.935" r="1" fill="rgb(0,0,0)" />
	<circle cx="563.923" cy="338.973" r="1" fill="rgb(0,0,0)" />
	<circle cx="565.912" cy="375.895" r="1" fill="rgb(0,0,0)" />
	<circle cx="597.986" cy="341.335" r="1" fill="rgb(0,0,0)" />
	<circle cx="618.871" cy="150.137" r="1" fill="rgb(0,0,0)" />
	<circle cx="621.606" cy="350.535" r="1" fill="rgb(0,0,0)" />
	<circle cx="646.096" cy="219.505" r="1" fill="rgb(0,0,0)" />
	<circle cx="674.441" cy="171.519" r="1" fill="rgb(0,0,0)" />
	<circle cx="679.289" cy="149.639" r="1" fill="rgb(0,0,0)" />
	<circle cx="687.742" cy="290.117" r="1" fill="rgb(0,0,0)" />
	<circle cx="690.975" cy="181.464" r="1" fill="rgb(0,0,0)" />
	<circle cx="745.674" cy="227.959" r="1" fill="rgb(0,0,0)" />
	<circle cx="769.667" cy="274.95" r="1" fill="rgb(0,0,0)" />
	<circle cx="776.504" cy="313.986" r="1" fill="rgb(0,0,0)" />
	<circle cx="812.183" cy="198.247" r="1" fill="rgb(0,0,0)" />
	<circle cx="835.554" cy="175.746" r="1" fill="rgb(0,0,0)" />
	<circle cx="839.035" cy="429.724" r="1" fill="rgb(0,0,0)" />
	<circle cx="843.511" cy="185.194" r="1" fill="rgb(0,0,0)" />
	<circle cx="869.368" cy="141.062" r="1" fill="rgb(0,0,0)" />
	<circle cx="874.714" cy="143.548" r="1" fill="rgb(0,0,0)" />
	<circle cx="912.506" cy="211.798" r="1" fill="rgb(0,0,0)" />
	<circle cx="920.214" cy="182.086" r="1" fill="rgb(0,0,0)" />
	<circle cx="930.656" cy="143.051" r="1" fill="rgb(0,0,0)" />
	<circle cx="936.375" cy="188.799" r="1" fill="rgb(0,0,0)" />
	<circle cx="951.417" cy="186.934" r="1" fill="rgb(0,0,0)" />
	<circle cx="958.876" cy="184.075" r="1" fill="rgb(0,0,0)" />
	<circle cx="982.869" cy="157.72" r="1" fill="rgb(0,0,0)" />
	<circle cx="1040.43" cy="103.394" r="1" fill="rgb(0,0,0)" />
	<circle cx="1050" cy="49.9378" r="1" fill="rgb(0,0,0)" />
</svg>
