<?xml version="1.0" standalone="no" ?>
<!DOCTYPE svg PUBLIC "-//W3C//DTD SVG 1.1//EN" "http://www.w3.org/Graphics/SVG/1.1/DTD/svg11.dtd">
<svg width="1100px" height="665.972px" xmlns="http://www.w3.org/2000/svg" version="1.1" >
	<circle cx="50" cy="204.845" r="1" fill="rgb(0,0,0)" />
	<circle cx="70.6961" cy="118.7" r="1" fill="rgb(0,0,0)" />
	<circle cx="72.9808" cy="336.413" r="1" fill="rgb(0,0,0)" />
	<circle cx="120.017" cy="348.239" r="1" fill="rgb(0,0,0)" />
	<circle cx="129.694" cy="357.378" r="1" fill="rgb(0,0,0)" />
	<circle cx="158.184" cy="370.548" r="1" fill="rgb(0,0,0)" />
	<circle cx="188.153" cy="410.731" r="1" fill="rgb(0,0,0)" />
	<circle cx="224.976" cy="115.878" r="1" fill="rgb(0,0,0)" />
	<circle cx="265.831" cy="216.94" r="1" fill="rgb(0,0,0)" />
	<circle cx="271.072" cy="271.368" r="1" fill="rgb(0,0,0)" />
	<circle cx="272.148" cy="267.202" r="1" fill="rgb(0,0,0)" />
	<circle cx="296.203" cy="30.2715" r="1" fill="rgb(0,0,0)" />
	<circle cx="318.915" cy="423.364" r="1" fill="rgb(0,0,0)" />
	<circle cx="330.07" cy="552.11" r="1" fill="rgb(0,0,0)" />
	<circle cx="346.197" cy="284.001" r="1" fill="rgb(0,0,0)" />
	<circle cx="382.348" cy="377.94" r="1" fill="rgb(0,0,0)" />
	<circle cx="385.573" cy="444.194" r="1" fill="rgb(0,0,0)" />
	<circle cx="390.68" cy="449.032" r="1" fill="rgb(0,0,0)" />
	<circle cx="408.688" cy="205.786" r="1" fill="rgb(0,0,0)" />
	<circle cx="410.435" cy="526.71" r="1" fill="rgb(0,0,0)" />
	<circle cx="412.451" cy="284.001" r="1" fill="rgb(0,0,0)" />
	<circle cx="415.139" cy="274.593" r="1" fill="rgb(0,0,0)" />
	<circle cx="416.886" cy="289.914" r="1" fill="rgb(0,0,0)" />
	<circle cx="446.586" cy="569.984" r="1" fill="rgb(0,0,0)" />
	<circle cx="469.03" cy="84.2965" r="1" fill="rgb(0,0,0)" />
	<circle cx="494.564" cy="321.899" r="1" fill="rgb(0,0,0)" />
	<circle cx="520.098" cy="624.143" r="1" fill="rgb(0,0,0)" />
	<circle cx="524.264" cy="413.016" r="1" fill="rgb(0,0,0)" />
	<circle cx="548.32" cy="262.23" r="1" fill="rgb(0,0,0)" />
	<circle cx="561.894" cy="375.386" r="1" fill="rgb(0,0,0)" />
	<circle cx="567.135" cy="376.193" r="1" fill="rgb(0,0,0)" />
	<circle cx="567.538" cy="526.038" r="1" fill="rgb(0,0,0)" />
	<circle cx="610.274" cy="486.259" r="1" fill="rgb(0,0,0)" />
	<circle cx="617.262" cy="486.796" r="1" fill="rgb(0,0,0)" />
	<circle cx="623.713" cy="289.108" r="1" fill="rgb(0,0,0)" />
	<circle cx="631.911" cy="310.476" r="1" fill="rgb(0,0,0)" />
	<circle cx="640.915" cy="435.19" r="1" fill="rgb(0,0,0)" />
	<circle cx="648.844" cy="179.983" r="1" fill="rgb(0,0,0)" />
	<circle cx="662.418" cy="443.388" r="1" fill="rgb(0,0,0)" />
	<circle cx="665.24" cy="386.003" r="1" fill="rgb(0,0,0)" />
	<circle cx="668.196" cy="230.11" r="1" fill="rgb(0,0,0)" />
	<circle cx="675.454" cy="478.33" r="1" fill="rgb(0,0,0)" />
	<circle cx="675.991" cy="483.84" r="1" fill="rgb(0,0,0)" />
	<circle cx="685.13" cy="261.558" r="1" fill="rgb(0,0,0)" />
	<circle cx="688.086" cy="219.897" r="1" fill="rgb(0,0,0)" />
	<circle cx="696.284" cy="460.321" r="1" fill="rgb(0,0,0)" />
	<circle cx="703.407" cy="413.956" r="1" fill="rgb(0,0,0)" />
	<circle cx="716.711" cy="350.524" r="1" fill="rgb(0,0,0)" />
	<circle cx="744.53" cy="191.943" r="1" fill="rgb(0,0,0)" />
	<circle cx="746.143" cy="299.187" r="1" fill="rgb(0,0,0)" />
	<circle cx="750.175" cy="413.553" r="1" fill="rgb(0,0,0)" />
	<circle cx="751.787" cy="474.835" r="1" fill="rgb(0,0,0)" />
	<circle cx="753.4" cy="217.343" r="1" fill="rgb(0,0,0)" />
	<circle cx="755.282" cy="188.718" r="1" fill="rgb(0,0,0)" />
	<circle cx="759.044" cy="461.531" r="1" fill="rgb(0,0,0)" />
	<circle cx="764.151" cy="322.437" r="1" fill="rgb(0,0,0)" />
	<circle cx="768.317" cy="338.16" r="1" fill="rgb(0,0,0)" />
	<circle cx="769.661" cy="472.685" r="1" fill="rgb(0,0,0)" />
	<circle cx="789.686" cy="363.157" r="1" fill="rgb(0,0,0)" />
	<circle cx="790.761" cy="414.225" r="1" fill="rgb(0,0,0)" />
	<circle cx="790.761" cy="366.382" r="1" fill="rgb(0,0,0)" />
	<circle cx="795.599" cy="342.192" r="1" fill="rgb(0,0,0)" />
	<circle cx="803.797" cy="220.703" r="1" fill="rgb(0,0,0)" />
	<circle cx="843.173" cy="635.701" r="1" fill="rgb(0,0,0)" />
	<circle cx="846.398" cy="248.387" r="1" fill="rgb(0,0,0)" />
	<circle cx="846.936" cy="248.79" r="1" fill="rgb(0,0,0)" />
	<circle cx="847.742" cy="224.331" r="1" fill="rgb(0,0,0)" />
	<circle cx="850.43" cy="330.769" r="1" fill="rgb(0,0,0)" />
	<circle cx="852.312" cy="458.574" r="1" fill="rgb(0,0,0)" />
	<circle cx="866.019" cy="281.716" r="1" fill="rgb(0,0,0)" />
	<circle cx="869.917" cy="488.409" r="1" fill="rgb(0,0,0)" />
	<circle cx="874.217" cy="526.173" r="1" fill="rgb(0,0,0)" />
	<circle cx="877.308" cy="523.485" r="1" fill="rgb(0,0,0)" />
	<circle cx="878.921" cy="384.525" r="1" fill="rgb(0,0,0)" />
	<circle cx="882.684" cy="315.851" r="1" fill="rgb(0,0,0)" />
	<circle cx="889" cy="519.319" r="1" fill="rgb(0,0,0)" />
	<circle cx="890.747" cy="486.662" r="1" fill="rgb(0,0,0)" />
	<circle cx="894.913" cy="379.418" r="1" fill="rgb(0,0,0)" />
	<circle cx="905.396" cy="521.603" r="1" fill="rgb(0,0,0)" />
	<circle cx="905.53" cy="379.015" r="1" fill="rgb(0,0,0)" />
	<circle cx="905.799" cy="303.219" r="1" fill="rgb(0,0,0)" />
	<circle cx="913.862" cy="192.078" r="1" fill="rgb(0,0,0)" />
	<circle cx="914.669" cy="421.885" r="1" fill="rgb(0,0,0)" />
	<circle cx="915.609" cy="546.062" r="1" fill="rgb(0,0,0)" />
	<circle cx="936.306" cy="379.552" r="1" fill="rgb(0,0,0)" />
	<circle cx="936.709" cy="392.857" r="1" fill="rgb(0,0,0)" />
	<circle cx="947.998" cy="367.726" r="1" fill="rgb(0,0,0)" />
	<circle cx="961.974" cy="264.917" r="1" fill="rgb(0,0,0)" />
	<circle cx="970.172" cy="331.709" r="1" fill="rgb(0,0,0)" />
	<circle cx="974.473" cy="301.068" r="1" fill="rgb(0,0,0)" />
	<circle cx="979.445" cy="300.8" r="1" fill="rgb(0,0,0)" />
	<circle cx="983.88" cy="277.147" r="1" fill="rgb(0,0,0)" />
	<circle cx="992.212" cy="274.325" r="1" fill="rgb(0,0,0)" />
	<circle cx="997.722" cy="219.359" r="1" fill="rgb(0,0,0)" />
	<circle cx="1005.79" cy="271.771" r="1" fill="rgb(0,0,0)" />
	<circle cx="1014.79" cy="215.596" r="1" fill="rgb(0,0,0)" />
	<circle cx="1019.76" cy="228.498" r="1" fill="rgb(0,0,0)" />
	<circle cx="1035.49" cy="250.672" r="1" fill="rgb(0,0,0)" />
	<circle cx="1039.25" cy="275.803" r="1" fill="rgb(0,0,0)" />
	<circle cx="1050" cy="263.17" r="1" fill="rgb(0,0,0)" />
</svg>
