<?xml version="1.0" standalone="no" ?>
<!DOCTYPE svg PUBLIC "-//W3C//DTD SVG 1.1//EN" "http://www.w3.org/Graphics/SVG/1.1/DTD/svg11.dtd">
<svg width="1100px" height="528.154px" xmlns="http://www.w3.org/2000/svg" version="1.1" >
	<circle cx="50" cy="87.0276" r="1" fill="rgb(0,0,0)" />
	<circle cx="70.524" cy="148.479" r="1" fill="rgb(0,0,0)" />
	<circle cx="132.337" cy="92.4605" r="1" fill="rgb(0,0,0)" />
	<circle cx="220.107" cy="369.051" r="1" fill="rgb(0,0,0)" />
	<circle cx="279.868" cy="24.007" r="1" fill="rgb(0,0,0)" />
	<circle cx="372.83" cy="405.149" r="1" fill="rgb(0,0,0)" />
	<circle cx="452.994" cy="357.823" r="1" fill="rgb(0,0,0)" />
	<circle cx="496.577" cy="460.202" r="1" fill="rgb(0,0,0)" />
	<circle cx="536.418" cy="74.9547" r="1" fill="rgb(0,0,0)" />
	<circle cx="541.851" cy="238.06" r="1" fill="rgb(0,0,0)" />
	<circle cx="622.015" cy="234.679" r="1" fill="rgb(0,0,0)" />
	<circle cx="627.206" cy="131.335" r="1" fill="rgb(0,0,0)" />
	<circle cx="635.778" cy="321.725" r="1" fill="rgb(0,0,0)" />
	<circle cx="667.168" cy="274.762" r="1" fill="rgb(0,0,0)" />
	<circle cx="667.409" cy="344.905" r="1" fill="rgb(0,0,0)" />
	<circle cx="680.689" cy="405.511" r="1" fill="rgb(0,0,0)" />
	<circle cx="688.175" cy="304.944" r="1" fill="rgb(0,0,0)" />
	<circle cx="697.833" cy="213.19" r="1" fill="rgb(0,0,0)" />
	<circle cx="703.024" cy="219.83" r="1" fill="rgb(0,0,0)" />
	<circle cx="720.168" cy="349.976" r="1" fill="rgb(0,0,0)" />
	<circle cx="721.254" cy="260.395" r="1" fill="rgb(0,0,0)" />
	<circle cx="728.015" cy="307.358" r="1" fill="rgb(0,0,0)" />
	<circle cx="758.439" cy="223.21" r="1" fill="rgb(0,0,0)" />
	<circle cx="803.592" cy="450.181" r="1" fill="rgb(0,0,0)" />
	<circle cx="809.387" cy="457.063" r="1" fill="rgb(0,0,0)" />
	<circle cx="816.993" cy="469.136" r="1" fill="rgb(0,0,0)" />
	<circle cx="836.189" cy="331.142" r="1" fill="rgb(0,0,0)" />
	<circle cx="837.154" cy="193.39" r="1" fill="rgb(0,0,0)" />
	<circle cx="842.949" cy="504.147" r="1" fill="rgb(0,0,0)" />
	<circle cx="885.205" cy="334.16" r="1" fill="rgb(0,0,0)" />
	<circle cx="905.004" cy="313.516" r="1" fill="rgb(0,0,0)" />
	<circle cx="919.25" cy="258.946" r="1" fill="rgb(0,0,0)" />
	<circle cx="965.972" cy="192.424" r="1" fill="rgb(0,0,0)" />
	<circle cx="1001.71" cy="200.513" r="1" fill="rgb(0,0,0)" />
	<circle cx="1050" cy="167.313" r="1" fill="rgb(0,0,0)" />
</svg>
