<?xml version="1.0" standalone="no" ?>
<!DOCTYPE svg PUBLIC "-//W3C//DTD SVG 1.1//EN" "http://www.w3.org/Graphics/SVG/1.1/DTD/svg11.dtd">
<svg width="1100px" height="593.997px" xmlns="http://www.w3.org/2000/svg" version="1.1" >
	<circle cx="50" cy="183.155" r="1" fill="rgb(0,0,0)" />
	<circle cx="52.6445" cy="138.067" r="1" fill="rgb(0,0,0)" />
	<circle cx="56.7434" cy="342.615" r="1" fill="rgb(0,0,0)" />
	<circle cx="59.2556" cy="320.005" r="1" fill="rgb(0,0,0)" />
	<circle cx="62.0323" cy="334.946" r="1" fill="rgb(0,0,0)" />
	<circle cx="75.6512" cy="197.435" r="1" fill="rgb(0,0,0)" />
	<circle cx="108.178" cy="90.0701" r="1" fill="rgb(0,0,0)" />
	<circle cx="134.755" cy="411.9" r="1" fill="rgb(0,0,0)" />
	<circle cx="145.597" cy="138.596" r="1" fill="rgb(0,0,0)" />
	<circle cx="169.133" cy="414.412" r="1" fill="rgb(0,0,0)" />
	<circle cx="196.37" cy="26.9999" r="1" fill="rgb(0,0,0)" />
	<circle cx="241.723" cy="170.329" r="1" fill="rgb(0,0,0)" />
	<circle cx="241.723" cy="92.4501" r="1" fill="rgb(0,0,0)" />
	<circle cx="261.556" cy="418.247" r="1" fill="rgb(0,0,0)" />
	<circle cx="281.39" cy="357.16" r="1" fill="rgb(0,0,0)" />
	<circle cx="281.919" cy="28.5865" r="1" fill="rgb(0,0,0)" />
	<circle cx="324.362" cy="307.973" r="1" fill="rgb(0,0,0)" />
	<circle cx="371.566" cy="457.781" r="1" fill="rgb(0,0,0)" />
	<circle cx="405.811" cy="80.9467" r="1" fill="rgb(0,0,0)" />
	<circle cx="439.66" cy="129.472" r="1" fill="rgb(0,0,0)" />
	<circle cx="456.32" cy="416.925" r="1" fill="rgb(0,0,0)" />
	<circle cx="457.114" cy="146.132" r="1" fill="rgb(0,0,0)" />
	<circle cx="463.725" cy="354.515" r="1" fill="rgb(0,0,0)" />
	<circle cx="486.731" cy="202.856" r="1" fill="rgb(0,0,0)" />
	<circle cx="512.383" cy="519.133" r="1" fill="rgb(0,0,0)" />
	<circle cx="527.853" cy="558.932" r="1" fill="rgb(0,0,0)" />
	<circle cx="529.175" cy="273.992" r="1" fill="rgb(0,0,0)" />
	<circle cx="534.067" cy="381.885" r="1" fill="rgb(0,0,0)" />
	<circle cx="538.563" cy="438.741" r="1" fill="rgb(0,0,0)" />
	<circle cx="550.463" cy="477.218" r="1" fill="rgb(0,0,0)" />
	<circle cx="561.834" cy="94.0368" r="1" fill="rgb(0,0,0)" />
	<circle cx="570.164" cy="364.829" r="1" fill="rgb(0,0,0)" />
	<circle cx="570.693" cy="452.625" r="1" fill="rgb(0,0,0)" />
	<circle cx="574.792" cy="133.836" r="1" fill="rgb(0,0,0)" />
	<circle cx="575.85" cy="265.397" r="1" fill="rgb(0,0,0)" />
	<circle cx="582.725" cy="373.291" r="1" fill="rgb(0,0,0)" />
	<circle cx="592.774" cy="354.78" r="1" fill="rgb(0,0,0)" />
	<circle cx="593.171" cy="501.283" r="1" fill="rgb(0,0,0)" />
	<circle cx="594.361" cy="436.626" r="1" fill="rgb(0,0,0)" />
	<circle cx="620.805" cy="439.931" r="1" fill="rgb(0,0,0)" />
	<circle cx="678.454" cy="500.886" r="1" fill="rgb(0,0,0)" />
	<circle cx="680.702" cy="260.505" r="1" fill="rgb(0,0,0)" />
	<circle cx="682.024" cy="313.262" r="1" fill="rgb(0,0,0)" />
	<circle cx="684.404" cy="314.716" r="1" fill="rgb(0,0,0)" />
	<circle cx="710.452" cy="244.903" r="1" fill="rgb(0,0,0)" />
	<circle cx="734.12" cy="258.786" r="1" fill="rgb(0,0,0)" />
	<circle cx="735.971" cy="212.905" r="1" fill="rgb(0,0,0)" />
	<circle cx="740.335" cy="257.464" r="1" fill="rgb(0,0,0)" />
	<circle cx="741.26" cy="197.964" r="1" fill="rgb(0,0,0)" />
	<circle cx="749.458" cy="376.068" r="1" fill="rgb(0,0,0)" />
	<circle cx="753.689" cy="412.693" r="1" fill="rgb(0,0,0)" />
	<circle cx="759.242" cy="361.391" r="1" fill="rgb(0,0,0)" />
	<circle cx="764.267" cy="416.66" r="1" fill="rgb(0,0,0)" />
	<circle cx="775.109" cy="325.823" r="1" fill="rgb(0,0,0)" />
	<circle cx="784.232" cy="324.104" r="1" fill="rgb(0,0,0)" />
	<circle cx="786.084" cy="243.845" r="1" fill="rgb(0,0,0)" />
	<circle cx="794.281" cy="306.386" r="1" fill="rgb(0,0,0)" />
	<circle cx="796.794" cy="379.638" r="1" fill="rgb(0,0,0)" />
	<circle cx="798.248" cy="217.665" r="1" fill="rgb(0,0,0)" />
	<circle cx="804.066" cy="259.051" r="1" fill="rgb(0,0,0)" />
	<circle cx="805.917" cy="277.826" r="1" fill="rgb(0,0,0)" />
	<circle cx="806.446" cy="412.297" r="1" fill="rgb(0,0,0)" />
	<circle cx="807.768" cy="288.933" r="1" fill="rgb(0,0,0)" />
	<circle cx="814.644" cy="411.239" r="1" fill="rgb(0,0,0)" />
	<circle cx="817.949" cy="243.052" r="1" fill="rgb(0,0,0)" />
	<circle cx="827.734" cy="239.614" r="1" fill="rgb(0,0,0)" />
	<circle cx="828.527" cy="288.404" r="1" fill="rgb(0,0,0)" />
	<circle cx="843.6" cy="491.234" r="1" fill="rgb(0,0,0)" />
	<circle cx="849.286" cy="419.305" r="1" fill="rgb(0,0,0)" />
	<circle cx="852.327" cy="398.678" r="1" fill="rgb(0,0,0)" />
	<circle cx="856.162" cy="291.71" r="1" fill="rgb(0,0,0)" />
	<circle cx="858.938" cy="265.265" r="1" fill="rgb(0,0,0)" />
	<circle cx="859.203" cy="263.282" r="1" fill="rgb(0,0,0)" />
	<circle cx="864.492" cy="515.827" r="1" fill="rgb(0,0,0)" />
	<circle cx="870.442" cy="384.001" r="1" fill="rgb(0,0,0)" />
	<circle cx="876.524" cy="402.777" r="1" fill="rgb(0,0,0)" />
	<circle cx="880.623" cy="566.997" r="1" fill="rgb(0,0,0)" />
	<circle cx="883.003" cy="274.521" r="1" fill="rgb(0,0,0)" />
	<circle cx="885.118" cy="366.019" r="1" fill="rgb(0,0,0)" />
	<circle cx="886.837" cy="383.869" r="1" fill="rgb(0,0,0)" />
	<circle cx="890.275" cy="421.817" r="1" fill="rgb(0,0,0)" />
	<circle cx="897.812" cy="366.68" r="1" fill="rgb(0,0,0)" />
	<circle cx="935.76" cy="379.902" r="1" fill="rgb(0,0,0)" />
	<circle cx="945.28" cy="286.421" r="1" fill="rgb(0,0,0)" />
	<circle cx="976.22" cy="303.742" r="1" fill="rgb(0,0,0)" />
	<circle cx="1001.21" cy="269.232" r="1" fill="rgb(0,0,0)" />
	<circle cx="1012.71" cy="180.643" r="1" fill="rgb(0,0,0)" />
	<circle cx="1016.42" cy="174.296" r="1" fill="rgb(0,0,0)" />
	<circle cx="1038.1" cy="252.968" r="1" fill="rgb(0,0,0)" />
	<circle cx="1050" cy="174.825" r="1" fill="rgb(0,0,0)" />
</svg>
