<?xml version="1.0" standalone="no" ?>
<!DOCTYPE svg PUBLIC "-//W3C//DTD SVG 1.1//EN" "http://www.w3.org/Graphics/SVG/1.1/DTD/svg11.dtd">
<svg width="1100px" height="1110.75px" xmlns="http://www.w3.org/2000/svg" version="1.1" >
	<circle cx="50" cy="622.062" r="1" fill="rgb(0,0,0)" />
	<circle cx="50.2023" cy="851.851" r="1" fill="rgb(0,0,0)" />
	<circle cx="50.3371" cy="787.189" r="1" fill="rgb(0,0,0)" />
	<circle cx="51.1462" cy="657.393" r="1" fill="rgb(0,0,0)" />
	<circle cx="53.7084" cy="937.752" r="1" fill="rgb(0,0,0)" />
	<circle cx="55.3267" cy="331.589" r="1" fill="rgb(0,0,0)" />
	<circle cx="55.7987" cy="416.816" r="1" fill="rgb(0,0,0)" />
	<circle cx="56.5404" cy="538.521" r="1" fill="rgb(0,0,0)" />
	<circle cx="57.6866" cy="140.098" r="1" fill="rgb(0,0,0)" />
	<circle cx="58.3609" cy="518.832" r="1" fill="rgb(0,0,0)" />
	<circle cx="59.0351" cy="1017.32" r="1" fill="rgb(0,0,0)" />
	<circle cx="62.2716" cy="537.577" r="1" fill="rgb(0,0,0)" />
	<circle cx="64.1595" cy="532.183" r="1" fill="rgb(0,0,0)" />
	<circle cx="65.5755" cy="425.379" r="1" fill="rgb(0,0,0)" />
	<circle cx="67.1937" cy="649.842" r="1" fill="rgb(0,0,0)" />
	<circle cx="67.5308" cy="870.798" r="1" fill="rgb(0,0,0)" />
	<circle cx="71.2393" cy="301.989" r="1" fill="rgb(0,0,0)" />
	<circle cx="71.4416" cy="450.664" r="1" fill="rgb(0,0,0)" />
	<circle cx="72.3855" cy="384.182" r="1" fill="rgb(0,0,0)" />
	<circle cx="73.8015" cy="718.751" r="1" fill="rgb(0,0,0)" />
	<circle cx="74.0038" cy="578.302" r="1" fill="rgb(0,0,0)" />
	<circle cx="80.5441" cy="283.717" r="1" fill="rgb(0,0,0)" />
	<circle cx="82.0275" cy="569.065" r="1" fill="rgb(0,0,0)" />
	<circle cx="82.9041" cy="739.923" r="1" fill="rgb(0,0,0)" />
	<circle cx="83.376" cy="912.197" r="1" fill="rgb(0,0,0)" />
	<circle cx="85.6685" cy="925.885" r="1" fill="rgb(0,0,0)" />
	<circle cx="92.8157" cy="533.329" r="1" fill="rgb(0,0,0)" />
	<circle cx="93.6248" cy="51.9722" r="1" fill="rgb(0,0,0)" />
	<circle cx="96.2545" cy="621.185" r="1" fill="rgb(0,0,0)" />
	<circle cx="97.6704" cy="1005.58" r="1" fill="rgb(0,0,0)" />
	<circle cx="100.098" cy="982.725" r="1" fill="rgb(0,0,0)" />
	<circle cx="101.379" cy="815.508" r="1" fill="rgb(0,0,0)" />
	<circle cx="102.39" cy="88.5847" r="1" fill="rgb(0,0,0)" />
	<circle cx="102.525" cy="858.324" r="1" fill="rgb(0,0,0)" />
	<circle cx="102.66" cy="244.542" r="1" fill="rgb(0,0,0)" />
	<circle cx="103.941" cy="1027.77" r="1" fill="rgb(0,0,0)" />
	<circle cx="103.941" cy="304.619" r="1" fill="rgb(0,0,0)" />
	<circle cx="104.278" cy="703.378" r="1" fill="rgb(0,0,0)" />
	<circle cx="108.324" cy="1060.27" r="1" fill="rgb(0,0,0)" />
	<circle cx="109.2" cy="1057.77" r="1" fill="rgb(0,0,0)" />
	<circle cx="114.325" cy="606.689" r="1" fill="rgb(0,0,0)" />
	<circle cx="115.876" cy="846.592" r="1" fill="rgb(0,0,0)" />
	<circle cx="117.291" cy="775.12" r="1" fill="rgb(0,0,0)" />
	<circle cx="118.168" cy="70.3796" r="1" fill="rgb(0,0,0)" />
	<circle cx="119.921" cy="608.779" r="1" fill="rgb(0,0,0)" />
	<circle cx="120.123" cy="254.386" r="1" fill="rgb(0,0,0)" />
	<circle cx="123.023" cy="716.256" r="1" fill="rgb(0,0,0)" />
	<circle cx="123.967" cy="469.544" r="1" fill="rgb(0,0,0)" />
	<circle cx="130.642" cy="1052.24" r="1" fill="rgb(0,0,0)" />
	<circle cx="131.788" cy="965.06" r="1" fill="rgb(0,0,0)" />
	<circle cx="132.8" cy="153.853" r="1" fill="rgb(0,0,0)" />
	<circle cx="133.474" cy="506.695" r="1" fill="rgb(0,0,0)" />
	<circle cx="138.261" cy="1024.06" r="1" fill="rgb(0,0,0)" />
	<circle cx="138.733" cy="1044.56" r="1" fill="rgb(0,0,0)" />
	<circle cx="139.947" cy="248.587" r="1" fill="rgb(0,0,0)" />
	<circle cx="141.295" cy="677.891" r="1" fill="rgb(0,0,0)" />
	<circle cx="142.239" cy="63.7718" r="1" fill="rgb(0,0,0)" />
	<circle cx="144.195" cy="723.539" r="1" fill="rgb(0,0,0)" />
	<circle cx="149.252" cy="503.324" r="1" fill="rgb(0,0,0)" />
	<circle cx="151.342" cy="581.539" r="1" fill="rgb(0,0,0)" />
	<circle cx="153.634" cy="982.928" r="1" fill="rgb(0,0,0)" />
	<circle cx="156.196" cy="162.686" r="1" fill="rgb(0,0,0)" />
	<circle cx="156.668" cy="770.4" r="1" fill="rgb(0,0,0)" />
	<circle cx="158.826" cy="407.983" r="1" fill="rgb(0,0,0)" />
	<circle cx="159.028" cy="224.584" r="1" fill="rgb(0,0,0)" />
	<circle cx="166.176" cy="461.318" r="1" fill="rgb(0,0,0)" />
	<circle cx="171.03" cy="830.612" r="1" fill="rgb(0,0,0)" />
	<circle cx="172.379" cy="997.627" r="1" fill="rgb(0,0,0)" />
	<circle cx="175.75" cy="887.519" r="1" fill="rgb(0,0,0)" />
	<circle cx="176.155" cy="717.942" r="1" fill="rgb(0,0,0)" />
	<circle cx="178.38" cy="683.487" r="1" fill="rgb(0,0,0)" />
	<circle cx="179.459" cy="265.107" r="1" fill="rgb(0,0,0)" />
	<circle cx="180.942" cy="836.95" r="1" fill="rgb(0,0,0)" />
	<circle cx="181.549" cy="932.088" r="1" fill="rgb(0,0,0)" />
	<circle cx="182.695" cy="425.042" r="1" fill="rgb(0,0,0)" />
	<circle cx="184.65" cy="725.561" r="1" fill="rgb(0,0,0)" />
	<circle cx="185.931" cy="808.428" r="1" fill="rgb(0,0,0)" />
	<circle cx="185.931" cy="154.325" r="1" fill="rgb(0,0,0)" />
	<circle cx="186.741" cy="979.759" r="1" fill="rgb(0,0,0)" />
	<circle cx="188.089" cy="673.71" r="1" fill="rgb(0,0,0)" />
	<circle cx="189.707" cy="665.889" r="1" fill="rgb(0,0,0)" />
	<circle cx="190.988" cy="919.817" r="1" fill="rgb(0,0,0)" />
	<circle cx="195.034" cy="280.21" r="1" fill="rgb(0,0,0)" />
	<circle cx="205.755" cy="394.296" r="1" fill="rgb(0,0,0)" />
	<circle cx="207.44" cy="221.415" r="1" fill="rgb(0,0,0)" />
	<circle cx="209.059" cy="401.375" r="1" fill="rgb(0,0,0)" />
	<circle cx="210.272" cy="105.913" r="1" fill="rgb(0,0,0)" />
	<circle cx="211.891" cy="498.941" r="1" fill="rgb(0,0,0)" />
	<circle cx="212.565" cy="920.963" r="1" fill="rgb(0,0,0)" />
	<circle cx="212.969" cy="899.521" r="1" fill="rgb(0,0,0)" />
	<circle cx="215.936" cy="124.658" r="1" fill="rgb(0,0,0)" />
	<circle cx="216.341" cy="316.149" r="1" fill="rgb(0,0,0)" />
	<circle cx="219.375" cy="172.463" r="1" fill="rgb(0,0,0)" />
	<circle cx="220.252" cy="214.402" r="1" fill="rgb(0,0,0)" />
	<circle cx="222.207" cy="359.841" r="1" fill="rgb(0,0,0)" />
	<circle cx="224.23" cy="1045.03" r="1" fill="rgb(0,0,0)" />
	<circle cx="225.308" cy="834.253" r="1" fill="rgb(0,0,0)" />
	<circle cx="227.938" cy="787.256" r="1" fill="rgb(0,0,0)" />
	<circle cx="236.164" cy="795.752" r="1" fill="rgb(0,0,0)" />
	<circle cx="239.468" cy="878.349" r="1" fill="rgb(0,0,0)" />
	<circle cx="243.986" cy="415.872" r="1" fill="rgb(0,0,0)" />
	<circle cx="244.592" cy="845.917" r="1" fill="rgb(0,0,0)" />
	<circle cx="246.008" cy="922.783" r="1" fill="rgb(0,0,0)" />
	<circle cx="246.211" cy="956.969" r="1" fill="rgb(0,0,0)" />
	<circle cx="246.413" cy="698.389" r="1" fill="rgb(0,0,0)" />
	<circle cx="248.301" cy="281.424" r="1" fill="rgb(0,0,0)" />
	<circle cx="249.043" cy="819.958" r="1" fill="rgb(0,0,0)" />
	<circle cx="249.717" cy="722.729" r="1" fill="rgb(0,0,0)" />
	<circle cx="250.593" cy="341.771" r="1" fill="rgb(0,0,0)" />
	<circle cx="251.605" cy="987.243" r="1" fill="rgb(0,0,0)" />
	<circle cx="252.279" cy="749.161" r="1" fill="rgb(0,0,0)" />
	<circle cx="252.414" cy="923.727" r="1" fill="rgb(0,0,0)" />
	<circle cx="253.088" cy="1025.61" r="1" fill="rgb(0,0,0)" />
	<circle cx="254.234" cy="1019.81" r="1" fill="rgb(0,0,0)" />
	<circle cx="254.572" cy="625.703" r="1" fill="rgb(0,0,0)" />
	<circle cx="256.122" cy="565.559" r="1" fill="rgb(0,0,0)" />
	<circle cx="256.999" cy="767.905" r="1" fill="rgb(0,0,0)" />
	<circle cx="257.201" cy="829.668" r="1" fill="rgb(0,0,0)" />
	<circle cx="258.954" cy="931.009" r="1" fill="rgb(0,0,0)" />
	<circle cx="261.247" cy="324.037" r="1" fill="rgb(0,0,0)" />
	<circle cx="261.449" cy="985.085" r="1" fill="rgb(0,0,0)" />
	<circle cx="261.584" cy="943.753" r="1" fill="rgb(0,0,0)" />
	<circle cx="261.719" cy="1060" r="1" fill="rgb(0,0,0)" />
	<circle cx="264.685" cy="764.399" r="1" fill="rgb(0,0,0)" />
	<circle cx="265.023" cy="198.962" r="1" fill="rgb(0,0,0)" />
	<circle cx="266.236" cy="69.5031" r="1" fill="rgb(0,0,0)" />
	<circle cx="266.371" cy="562.322" r="1" fill="rgb(0,0,0)" />
	<circle cx="266.573" cy="909.905" r="1" fill="rgb(0,0,0)" />
	<circle cx="268.394" cy="874.304" r="1" fill="rgb(0,0,0)" />
	<circle cx="272.507" cy="307.113" r="1" fill="rgb(0,0,0)" />
	<circle cx="272.777" cy="248.048" r="1" fill="rgb(0,0,0)" />
	<circle cx="275.474" cy="326.195" r="1" fill="rgb(0,0,0)" />
	<circle cx="277.834" cy="794.201" r="1" fill="rgb(0,0,0)" />
	<circle cx="282.149" cy="256.207" r="1" fill="rgb(0,0,0)" />
	<circle cx="284.644" cy="885.564" r="1" fill="rgb(0,0,0)" />
	<circle cx="286.329" cy="235.642" r="1" fill="rgb(0,0,0)" />
	<circle cx="286.869" cy="291.471" r="1" fill="rgb(0,0,0)" />
	<circle cx="287.004" cy="800.405" r="1" fill="rgb(0,0,0)" />
	<circle cx="288.082" cy="940.516" r="1" fill="rgb(0,0,0)" />
	<circle cx="289.161" cy="246.969" r="1" fill="rgb(0,0,0)" />
	<circle cx="295.23" cy="581.134" r="1" fill="rgb(0,0,0)" />
	<circle cx="307.771" cy="526.923" r="1" fill="rgb(0,0,0)" />
	<circle cx="314.176" cy="267.062" r="1" fill="rgb(0,0,0)" />
	<circle cx="318.155" cy="327.004" r="1" fill="rgb(0,0,0)" />
	<circle cx="318.964" cy="797.236" r="1" fill="rgb(0,0,0)" />
	<circle cx="322.268" cy="878.687" r="1" fill="rgb(0,0,0)" />
	<circle cx="325.774" cy="1050.42" r="1" fill="rgb(0,0,0)" />
	<circle cx="329.954" cy="947.529" r="1" fill="rgb(0,0,0)" />
	<circle cx="330.628" cy="255.263" r="1" fill="rgb(0,0,0)" />
	<circle cx="338.248" cy="849.221" r="1" fill="rgb(0,0,0)" />
	<circle cx="339.731" cy="451.878" r="1" fill="rgb(0,0,0)" />
	<circle cx="339.933" cy="536.161" r="1" fill="rgb(0,0,0)" />
	<circle cx="340.54" cy="796.426" r="1" fill="rgb(0,0,0)" />
	<circle cx="344.923" cy="678.363" r="1" fill="rgb(0,0,0)" />
	<circle cx="346.069" cy="134.367" r="1" fill="rgb(0,0,0)" />
	<circle cx="348.294" cy="669.597" r="1" fill="rgb(0,0,0)" />
	<circle cx="349.98" cy="1028.98" r="1" fill="rgb(0,0,0)" />
	<circle cx="356.048" cy="990.075" r="1" fill="rgb(0,0,0)" />
	<circle cx="360.768" cy="893.79" r="1" fill="rgb(0,0,0)" />
	<circle cx="362.117" cy="93.0349" r="1" fill="rgb(0,0,0)" />
	<circle cx="363.87" cy="990.075" r="1" fill="rgb(0,0,0)" />
	<circle cx="365.151" cy="758.735" r="1" fill="rgb(0,0,0)" />
	<circle cx="369.601" cy="104.969" r="1" fill="rgb(0,0,0)" />
	<circle cx="372.163" cy="321.61" r="1" fill="rgb(0,0,0)" />
	<circle cx="377.625" cy="447.563" r="1" fill="rgb(0,0,0)" />
	<circle cx="382.075" cy="470.218" r="1" fill="rgb(0,0,0)" />
	<circle cx="382.277" cy="453.496" r="1" fill="rgb(0,0,0)" />
	<circle cx="382.412" cy="263.354" r="1" fill="rgb(0,0,0)" />
	<circle cx="386.929" cy="571.829" r="1" fill="rgb(0,0,0)" />
	<circle cx="387.132" cy="661.978" r="1" fill="rgb(0,0,0)" />
	<circle cx="387.199" cy="860.009" r="1" fill="rgb(0,0,0)" />
	<circle cx="391.717" cy="804.787" r="1" fill="rgb(0,0,0)" />
	<circle cx="391.852" cy="979.084" r="1" fill="rgb(0,0,0)" />
	<circle cx="393.2" cy="201.456" r="1" fill="rgb(0,0,0)" />
	<circle cx="394.481" cy="161.473" r="1" fill="rgb(0,0,0)" />
	<circle cx="395.762" cy="782.874" r="1" fill="rgb(0,0,0)" />
	<circle cx="399.201" cy="114.409" r="1" fill="rgb(0,0,0)" />
	<circle cx="400.752" cy="849.895" r="1" fill="rgb(0,0,0)" />
	<circle cx="401.831" cy="520.113" r="1" fill="rgb(0,0,0)" />
	<circle cx="404.932" cy="482.557" r="1" fill="rgb(0,0,0)" />
	<circle cx="405.606" cy="700.883" r="1" fill="rgb(0,0,0)" />
	<circle cx="405.741" cy="947.731" r="1" fill="rgb(0,0,0)" />
	<circle cx="409.787" cy="1054.74" r="1" fill="rgb(0,0,0)" />
	<circle cx="409.787" cy="889.272" r="1" fill="rgb(0,0,0)" />
	<circle cx="413.158" cy="52.8488" r="1" fill="rgb(0,0,0)" />
	<circle cx="413.495" cy="600.148" r="1" fill="rgb(0,0,0)" />
	<circle cx="415.248" cy="120.005" r="1" fill="rgb(0,0,0)" />
	<circle cx="415.72" cy="107.936" r="1" fill="rgb(0,0,0)" />
	<circle cx="416.192" cy="539.465" r="1" fill="rgb(0,0,0)" />
	<circle cx="418.35" cy="957.643" r="1" fill="rgb(0,0,0)" />
	<circle cx="419.294" cy="1007.13" r="1" fill="rgb(0,0,0)" />
	<circle cx="420.238" cy="805.462" r="1" fill="rgb(0,0,0)" />
	<circle cx="424.014" cy="393.352" r="1" fill="rgb(0,0,0)" />
	<circle cx="425.632" cy="703.176" r="1" fill="rgb(0,0,0)" />
	<circle cx="426.509" cy="275.625" r="1" fill="rgb(0,0,0)" />
	<circle cx="428.262" cy="926.694" r="1" fill="rgb(0,0,0)" />
	<circle cx="428.869" cy="678.093" r="1" fill="rgb(0,0,0)" />
	<circle cx="434.532" cy="80.4261" r="1" fill="rgb(0,0,0)" />
	<circle cx="435.881" cy="235.102" r="1" fill="rgb(0,0,0)" />
	<circle cx="437.432" cy="661.641" r="1" fill="rgb(0,0,0)" />
	<circle cx="442.219" cy="554.568" r="1" fill="rgb(0,0,0)" />
	<circle cx="442.354" cy="827.51" r="1" fill="rgb(0,0,0)" />
	<circle cx="443.702" cy="270.906" r="1" fill="rgb(0,0,0)" />
	<circle cx="446.13" cy="1054.2" r="1" fill="rgb(0,0,0)" />
	<circle cx="453.209" cy="763.455" r="1" fill="rgb(0,0,0)" />
	<circle cx="455.839" cy="135.041" r="1" fill="rgb(0,0,0)" />
	<circle cx="456.176" cy="240.699" r="1" fill="rgb(0,0,0)" />
	<circle cx="460.02" cy="312.845" r="1" fill="rgb(0,0,0)" />
	<circle cx="460.289" cy="531.171" r="1" fill="rgb(0,0,0)" />
	<circle cx="464.2" cy="256.274" r="1" fill="rgb(0,0,0)" />
	<circle cx="466.762" cy="973.286" r="1" fill="rgb(0,0,0)" />
	<circle cx="467.774" cy="659.349" r="1" fill="rgb(0,0,0)" />
	<circle cx="468.38" cy="64.6484" r="1" fill="rgb(0,0,0)" />
	<circle cx="471.347" cy="730.753" r="1" fill="rgb(0,0,0)" />
	<circle cx="472.561" cy="826.094" r="1" fill="rgb(0,0,0)" />
	<circle cx="473.033" cy="127.422" r="1" fill="rgb(0,0,0)" />
	<circle cx="475.595" cy="75.3692" r="1" fill="rgb(0,0,0)" />
	<circle cx="476.134" cy="125.804" r="1" fill="rgb(0,0,0)" />
	<circle cx="480.045" cy="1015.02" r="1" fill="rgb(0,0,0)" />
	<circle cx="482.068" cy="707.154" r="1" fill="rgb(0,0,0)" />
	<circle cx="483.821" cy="922.446" r="1" fill="rgb(0,0,0)" />
	<circle cx="485.844" cy="397.397" r="1" fill="rgb(0,0,0)" />
	<circle cx="487.664" cy="901.881" r="1" fill="rgb(0,0,0)" />
	<circle cx="493.396" cy="50.4888" r="1" fill="rgb(0,0,0)" />
	<circle cx="494.744" cy="968.566" r="1" fill="rgb(0,0,0)" />
	<circle cx="500.003" cy="429.964" r="1" fill="rgb(0,0,0)" />
	<circle cx="501.622" cy="50.4888" r="1" fill="rgb(0,0,0)" />
	<circle cx="503.644" cy="855.627" r="1" fill="rgb(0,0,0)" />
	<circle cx="505.195" cy="181.768" r="1" fill="rgb(0,0,0)" />
	<circle cx="510.859" cy="82.1118" r="1" fill="rgb(0,0,0)" />
	<circle cx="513.219" cy="202.872" r="1" fill="rgb(0,0,0)" />
	<circle cx="515.646" cy="914.153" r="1" fill="rgb(0,0,0)" />
	<circle cx="516.658" cy="464.284" r="1" fill="rgb(0,0,0)" />
	<circle cx="516.927" cy="713.627" r="1" fill="rgb(0,0,0)" />
	<circle cx="519.49" cy="488.895" r="1" fill="rgb(0,0,0)" />
	<circle cx="522.119" cy="190.196" r="1" fill="rgb(0,0,0)" />
	<circle cx="522.726" cy="836.141" r="1" fill="rgb(0,0,0)" />
	<circle cx="523.4" cy="460.711" r="1" fill="rgb(0,0,0)" />
	<circle cx="524.816" cy="878.08" r="1" fill="rgb(0,0,0)" />
	<circle cx="525.76" cy="224.247" r="1" fill="rgb(0,0,0)" />
	<circle cx="531.761" cy="173.407" r="1" fill="rgb(0,0,0)" />
	<circle cx="531.829" cy="832.23" r="1" fill="rgb(0,0,0)" />
	<circle cx="535.132" cy="345.075" r="1" fill="rgb(0,0,0)" />
	<circle cx="535.2" cy="62.9627" r="1" fill="rgb(0,0,0)" />
	<circle cx="539.515" cy="463.677" r="1" fill="rgb(0,0,0)" />
	<circle cx="548.078" cy="234.495" r="1" fill="rgb(0,0,0)" />
	<circle cx="548.618" cy="233.551" r="1" fill="rgb(0,0,0)" />
	<circle cx="551.719" cy="494.828" r="1" fill="rgb(0,0,0)" />
	<circle cx="553.81" cy="85.0111" r="1" fill="rgb(0,0,0)" />
	<circle cx="554.147" cy="806.54" r="1" fill="rgb(0,0,0)" />
	<circle cx="557.788" cy="917.592" r="1" fill="rgb(0,0,0)" />
	<circle cx="560.889" cy="56.4898" r="1" fill="rgb(0,0,0)" />
	<circle cx="562.71" cy="187.904" r="1" fill="rgb(0,0,0)" />
	<circle cx="566.486" cy="495.57" r="1" fill="rgb(0,0,0)" />
	<circle cx="567.497" cy="396.251" r="1" fill="rgb(0,0,0)" />
	<circle cx="576.6" cy="931.549" r="1" fill="rgb(0,0,0)" />
	<circle cx="579.027" cy="617.814" r="1" fill="rgb(0,0,0)" />
	<circle cx="579.094" cy="346.625" r="1" fill="rgb(0,0,0)" />
	<circle cx="579.971" cy="285.267" r="1" fill="rgb(0,0,0)" />
	<circle cx="581.05" cy="920.086" r="1" fill="rgb(0,0,0)" />
	<circle cx="581.32" cy="532.587" r="1" fill="rgb(0,0,0)" />
	<circle cx="583.882" cy="726.236" r="1" fill="rgb(0,0,0)" />
	<circle cx="585.23" cy="886.373" r="1" fill="rgb(0,0,0)" />
	<circle cx="587.658" cy="483.905" r="1" fill="rgb(0,0,0)" />
	<circle cx="588.602" cy="372.584" r="1" fill="rgb(0,0,0)" />
	<circle cx="590.624" cy="246.902" r="1" fill="rgb(0,0,0)" />
	<circle cx="591.029" cy="324.847" r="1" fill="rgb(0,0,0)" />
	<circle cx="592.512" cy="445.809" r="1" fill="rgb(0,0,0)" />
	<circle cx="596.288" cy="577.493" r="1" fill="rgb(0,0,0)" />
	<circle cx="604.784" cy="249.262" r="1" fill="rgb(0,0,0)" />
	<circle cx="607.009" cy="359.773" r="1" fill="rgb(0,0,0)" />
	<circle cx="607.953" cy="1054.53" r="1" fill="rgb(0,0,0)" />
	<circle cx="607.953" cy="803.169" r="1" fill="rgb(0,0,0)" />
	<circle cx="608.357" cy="61.4119" r="1" fill="rgb(0,0,0)" />
	<circle cx="614.224" cy="877.608" r="1" fill="rgb(0,0,0)" />
	<circle cx="615.168" cy="123.242" r="1" fill="rgb(0,0,0)" />
	<circle cx="620.966" cy="583.089" r="1" fill="rgb(0,0,0)" />
	<circle cx="623.056" cy="340.557" r="1" fill="rgb(0,0,0)" />
	<circle cx="623.326" cy="86.4271" r="1" fill="rgb(0,0,0)" />
	<circle cx="623.663" cy="96.7433" r="1" fill="rgb(0,0,0)" />
	<circle cx="625.147" cy="136.053" r="1" fill="rgb(0,0,0)" />
	<circle cx="626.428" cy="124.59" r="1" fill="rgb(0,0,0)" />
	<circle cx="627.776" cy="384.317" r="1" fill="rgb(0,0,0)" />
	<circle cx="628.653" cy="923.323" r="1" fill="rgb(0,0,0)" />
	<circle cx="633.44" cy="169.092" r="1" fill="rgb(0,0,0)" />
	<circle cx="633.777" cy="163.158" r="1" fill="rgb(0,0,0)" />
	<circle cx="635.193" cy="952.316" r="1" fill="rgb(0,0,0)" />
	<circle cx="635.733" cy="513.303" r="1" fill="rgb(0,0,0)" />
	<circle cx="636.879" cy="979.354" r="1" fill="rgb(0,0,0)" />
	<circle cx="638.834" cy="79.8867" r="1" fill="rgb(0,0,0)" />
	<circle cx="640.25" cy="732.641" r="1" fill="rgb(0,0,0)" />
	<circle cx="644.296" cy="707.491" r="1" fill="rgb(0,0,0)" />
	<circle cx="647.33" cy="1042.06" r="1" fill="rgb(0,0,0)" />
	<circle cx="649.892" cy="142.391" r="1" fill="rgb(0,0,0)" />
	<circle cx="650.904" cy="812.069" r="1" fill="rgb(0,0,0)" />
	<circle cx="651.443" cy="545.398" r="1" fill="rgb(0,0,0)" />
	<circle cx="653.803" cy="1018.33" r="1" fill="rgb(0,0,0)" />
	<circle cx="658.186" cy="133.76" r="1" fill="rgb(0,0,0)" />
	<circle cx="658.725" cy="879.698" r="1" fill="rgb(0,0,0)" />
	<circle cx="662.231" cy="661.506" r="1" fill="rgb(0,0,0)" />
	<circle cx="662.771" cy="777.345" r="1" fill="rgb(0,0,0)" />
	<circle cx="666.074" cy="168.283" r="1" fill="rgb(0,0,0)" />
	<circle cx="673.087" cy="1045.5" r="1" fill="rgb(0,0,0)" />
	<circle cx="673.559" cy="905.792" r="1" fill="rgb(0,0,0)" />
	<circle cx="673.761" cy="794.269" r="1" fill="rgb(0,0,0)" />
	<circle cx="674.031" cy="59.8611" r="1" fill="rgb(0,0,0)" />
	<circle cx="676.458" cy="222.426" r="1" fill="rgb(0,0,0)" />
	<circle cx="679.964" cy="235.035" r="1" fill="rgb(0,0,0)" />
	<circle cx="681.852" cy="580.392" r="1" fill="rgb(0,0,0)" />
	<circle cx="684.347" cy="112.251" r="1" fill="rgb(0,0,0)" />
	<circle cx="685.628" cy="970.723" r="1" fill="rgb(0,0,0)" />
	<circle cx="690.213" cy="492.064" r="1" fill="rgb(0,0,0)" />
	<circle cx="690.887" cy="430.032" r="1" fill="rgb(0,0,0)" />
	<circle cx="691.764" cy="888.126" r="1" fill="rgb(0,0,0)" />
	<circle cx="692.573" cy="888.126" r="1" fill="rgb(0,0,0)" />
	<circle cx="697.563" cy="940.988" r="1" fill="rgb(0,0,0)" />
	<circle cx="697.697" cy="675.936" r="1" fill="rgb(0,0,0)" />
	<circle cx="698.304" cy="1009.63" r="1" fill="rgb(0,0,0)" />
	<circle cx="699.585" cy="733.855" r="1" fill="rgb(0,0,0)" />
	<circle cx="699.788" cy="472.443" r="1" fill="rgb(0,0,0)" />
	<circle cx="700.327" cy="278.929" r="1" fill="rgb(0,0,0)" />
	<circle cx="705.384" cy="1053.73" r="1" fill="rgb(0,0,0)" />
	<circle cx="706.193" cy="447.495" r="1" fill="rgb(0,0,0)" />
	<circle cx="707.811" cy="386.677" r="1" fill="rgb(0,0,0)" />
	<circle cx="708.351" cy="692.994" r="1" fill="rgb(0,0,0)" />
	<circle cx="709.632" cy="248.722" r="1" fill="rgb(0,0,0)" />
	<circle cx="709.834" cy="331.792" r="1" fill="rgb(0,0,0)" />
	<circle cx="713.408" cy="1037.07" r="1" fill="rgb(0,0,0)" />
	<circle cx="713.88" cy="308.799" r="1" fill="rgb(0,0,0)" />
	<circle cx="717.386" cy="307.923" r="1" fill="rgb(0,0,0)" />
	<circle cx="722.51" cy="817.801" r="1" fill="rgb(0,0,0)" />
	<circle cx="726.084" cy="97.6199" r="1" fill="rgb(0,0,0)" />
	<circle cx="731.276" cy="184.398" r="1" fill="rgb(0,0,0)" />
	<circle cx="732.624" cy="347.434" r="1" fill="rgb(0,0,0)" />
	<circle cx="732.759" cy="57.164" r="1" fill="rgb(0,0,0)" />
	<circle cx="736.4" cy="328.083" r="1" fill="rgb(0,0,0)" />
	<circle cx="736.872" cy="783.953" r="1" fill="rgb(0,0,0)" />
	<circle cx="741.457" cy="955.148" r="1" fill="rgb(0,0,0)" />
	<circle cx="742.603" cy="508.718" r="1" fill="rgb(0,0,0)" />
	<circle cx="744.019" cy="615.994" r="1" fill="rgb(0,0,0)" />
	<circle cx="746.11" cy="241.103" r="1" fill="rgb(0,0,0)" />
	<circle cx="746.581" cy="740.867" r="1" fill="rgb(0,0,0)" />
	<circle cx="746.581" cy="736.215" r="1" fill="rgb(0,0,0)" />
	<circle cx="746.986" cy="612.15" r="1" fill="rgb(0,0,0)" />
	<circle cx="747.256" cy="406.432" r="1" fill="rgb(0,0,0)" />
	<circle cx="748.537" cy="434.684" r="1" fill="rgb(0,0,0)" />
	<circle cx="751.571" cy="1045.03" r="1" fill="rgb(0,0,0)" />
	<circle cx="752.313" cy="458.418" r="1" fill="rgb(0,0,0)" />
	<circle cx="753.189" cy="232.473" r="1" fill="rgb(0,0,0)" />
	<circle cx="753.257" cy="738.44" r="1" fill="rgb(0,0,0)" />
	<circle cx="754.403" cy="565.693" r="1" fill="rgb(0,0,0)" />
	<circle cx="758.179" cy="842.748" r="1" fill="rgb(0,0,0)" />
	<circle cx="758.449" cy="579.179" r="1" fill="rgb(0,0,0)" />
	<circle cx="761.078" cy="641.818" r="1" fill="rgb(0,0,0)" />
	<circle cx="761.213" cy="911.928" r="1" fill="rgb(0,0,0)" />
	<circle cx="767.753" cy="107.262" r="1" fill="rgb(0,0,0)" />
	<circle cx="768.158" cy="264.163" r="1" fill="rgb(0,0,0)" />
	<circle cx="769.439" cy="980.231" r="1" fill="rgb(0,0,0)" />
	<circle cx="769.844" cy="290.796" r="1" fill="rgb(0,0,0)" />
	<circle cx="771.934" cy="974.297" r="1" fill="rgb(0,0,0)" />
	<circle cx="777.395" cy="801.214" r="1" fill="rgb(0,0,0)" />
	<circle cx="777.463" cy="957.71" r="1" fill="rgb(0,0,0)" />
	<circle cx="779.216" cy="350.873" r="1" fill="rgb(0,0,0)" />
	<circle cx="779.823" cy="455.721" r="1" fill="rgb(0,0,0)" />
	<circle cx="786.43" cy="633.524" r="1" fill="rgb(0,0,0)" />
	<circle cx="790.004" cy="318.846" r="1" fill="rgb(0,0,0)" />
	<circle cx="790.071" cy="808.698" r="1" fill="rgb(0,0,0)" />
	<circle cx="792.162" cy="779.435" r="1" fill="rgb(0,0,0)" />
	<circle cx="794.319" cy="713.492" r="1" fill="rgb(0,0,0)" />
	<circle cx="795.061" cy="261.331" r="1" fill="rgb(0,0,0)" />
	<circle cx="795.938" cy="205.569" r="1" fill="rgb(0,0,0)" />
	<circle cx="797.219" cy="96.1365" r="1" fill="rgb(0,0,0)" />
	<circle cx="798.837" cy="563.266" r="1" fill="rgb(0,0,0)" />
	<circle cx="803.152" cy="476.758" r="1" fill="rgb(0,0,0)" />
	<circle cx="805.512" cy="210.626" r="1" fill="rgb(0,0,0)" />
	<circle cx="805.782" cy="987.176" r="1" fill="rgb(0,0,0)" />
	<circle cx="805.849" cy="548.635" r="1" fill="rgb(0,0,0)" />
	<circle cx="807.333" cy="899.656" r="1" fill="rgb(0,0,0)" />
	<circle cx="807.737" cy="581.876" r="1" fill="rgb(0,0,0)" />
	<circle cx="810.569" cy="268.276" r="1" fill="rgb(0,0,0)" />
	<circle cx="810.906" cy="563.468" r="1" fill="rgb(0,0,0)" />
	<circle cx="813.199" cy="827.645" r="1" fill="rgb(0,0,0)" />
	<circle cx="814.21" cy="959.935" r="1" fill="rgb(0,0,0)" />
	<circle cx="815.693" cy="187.432" r="1" fill="rgb(0,0,0)" />
	<circle cx="816.503" cy="532.789" r="1" fill="rgb(0,0,0)" />
	<circle cx="819.604" cy="493.547" r="1" fill="rgb(0,0,0)" />
	<circle cx="822.638" cy="957.778" r="1" fill="rgb(0,0,0)" />
	<circle cx="823.313" cy="938.561" r="1" fill="rgb(0,0,0)" />
	<circle cx="826.212" cy="102.407" r="1" fill="rgb(0,0,0)" />
	<circle cx="826.684" cy="950.833" r="1" fill="rgb(0,0,0)" />
	<circle cx="833.427" cy="264.905" r="1" fill="rgb(0,0,0)" />
	<circle cx="833.764" cy="528.609" r="1" fill="rgb(0,0,0)" />
	<circle cx="834.977" cy="651.662" r="1" fill="rgb(0,0,0)" />
	<circle cx="835.854" cy="384.586" r="1" fill="rgb(0,0,0)" />
	<circle cx="837.135" cy="390.048" r="1" fill="rgb(0,0,0)" />
	<circle cx="838.214" cy="713.964" r="1" fill="rgb(0,0,0)" />
	<circle cx="849.946" cy="793.932" r="1" fill="rgb(0,0,0)" />
	<circle cx="851.564" cy="505.751" r="1" fill="rgb(0,0,0)" />
	<circle cx="852.576" cy="313.991" r="1" fill="rgb(0,0,0)" />
	<circle cx="852.711" cy="514.382" r="1" fill="rgb(0,0,0)" />
	<circle cx="853.789" cy="363.212" r="1" fill="rgb(0,0,0)" />
	<circle cx="861.476" cy="421.536" r="1" fill="rgb(0,0,0)" />
	<circle cx="864.173" cy="70.1773" r="1" fill="rgb(0,0,0)" />
	<circle cx="864.578" cy="689.623" r="1" fill="rgb(0,0,0)" />
	<circle cx="864.712" cy="136.323" r="1" fill="rgb(0,0,0)" />
	<circle cx="867.14" cy="229.371" r="1" fill="rgb(0,0,0)" />
	<circle cx="867.747" cy="418.637" r="1" fill="rgb(0,0,0)" />
	<circle cx="869.702" cy="840.321" r="1" fill="rgb(0,0,0)" />
	<circle cx="876.242" cy="793.932" r="1" fill="rgb(0,0,0)" />
	<circle cx="878.737" cy="1019.68" r="1" fill="rgb(0,0,0)" />
	<circle cx="882.85" cy="181.026" r="1" fill="rgb(0,0,0)" />
	<circle cx="884.873" cy="698.658" r="1" fill="rgb(0,0,0)" />
	<circle cx="886.491" cy="105.644" r="1" fill="rgb(0,0,0)" />
	<circle cx="890.065" cy="980.028" r="1" fill="rgb(0,0,0)" />
	<circle cx="891.211" cy="291.74" r="1" fill="rgb(0,0,0)" />
	<circle cx="891.75" cy="99.5078" r="1" fill="rgb(0,0,0)" />
	<circle cx="893.031" cy="156.82" r="1" fill="rgb(0,0,0)" />
	<circle cx="894.245" cy="638.042" r="1" fill="rgb(0,0,0)" />
	<circle cx="898.021" cy="455.991" r="1" fill="rgb(0,0,0)" />
	<circle cx="899.774" cy="222.628" r="1" fill="rgb(0,0,0)" />
	<circle cx="901.729" cy="463.138" r="1" fill="rgb(0,0,0)" />
	<circle cx="904.022" cy="842.411" r="1" fill="rgb(0,0,0)" />
	<circle cx="906.719" cy="611.206" r="1" fill="rgb(0,0,0)" />
	<circle cx="906.921" cy="1047.66" r="1" fill="rgb(0,0,0)" />
	<circle cx="907.124" cy="423.356" r="1" fill="rgb(0,0,0)" />
	<circle cx="910.158" cy="340.624" r="1" fill="rgb(0,0,0)" />
	<circle cx="911.506" cy="212.11" r="1" fill="rgb(0,0,0)" />
	<circle cx="913.529" cy="343.726" r="1" fill="rgb(0,0,0)" />
	<circle cx="914.406" cy="458.418" r="1" fill="rgb(0,0,0)" />
	<circle cx="915.754" cy="422.278" r="1" fill="rgb(0,0,0)" />
	<circle cx="917.238" cy="685.308" r="1" fill="rgb(0,0,0)" />
	<circle cx="919.935" cy="476.151" r="1" fill="rgb(0,0,0)" />
	<circle cx="922.834" cy="892.711" r="1" fill="rgb(0,0,0)" />
	<circle cx="927.621" cy="230.787" r="1" fill="rgb(0,0,0)" />
	<circle cx="929.577" cy="134.772" r="1" fill="rgb(0,0,0)" />
	<circle cx="932.341" cy="1030.8" r="1" fill="rgb(0,0,0)" />
	<circle cx="933.622" cy="625.703" r="1" fill="rgb(0,0,0)" />
	<circle cx="933.69" cy="998.233" r="1" fill="rgb(0,0,0)" />
	<circle cx="945.085" cy="728.865" r="1" fill="rgb(0,0,0)" />
	<circle cx="946.366" cy="632.176" r="1" fill="rgb(0,0,0)" />
	<circle cx="946.838" cy="742.013" r="1" fill="rgb(0,0,0)" />
	<circle cx="948.658" cy="344.94" r="1" fill="rgb(0,0,0)" />
	<circle cx="949.939" cy="103.823" r="1" fill="rgb(0,0,0)" />
	<circle cx="951.558" cy="55.6132" r="1" fill="rgb(0,0,0)" />
	<circle cx="952.569" cy="1011.65" r="1" fill="rgb(0,0,0)" />
	<circle cx="955.805" cy="858.324" r="1" fill="rgb(0,0,0)" />
	<circle cx="956.345" cy="266.725" r="1" fill="rgb(0,0,0)" />
	<circle cx="957.558" cy="89.259" r="1" fill="rgb(0,0,0)" />
	<circle cx="958.502" cy="775.322" r="1" fill="rgb(0,0,0)" />
	<circle cx="959.312" cy="621.32" r="1" fill="rgb(0,0,0)" />
	<circle cx="961.402" cy="1028.78" r="1" fill="rgb(0,0,0)" />
	<circle cx="964.975" cy="713.02" r="1" fill="rgb(0,0,0)" />
	<circle cx="966.122" cy="972.072" r="1" fill="rgb(0,0,0)" />
	<circle cx="968.751" cy="350.536" r="1" fill="rgb(0,0,0)" />
	<circle cx="970.302" cy="461.655" r="1" fill="rgb(0,0,0)" />
	<circle cx="970.909" cy="194.377" r="1" fill="rgb(0,0,0)" />
	<circle cx="971.179" cy="815.71" r="1" fill="rgb(0,0,0)" />
	<circle cx="974.55" cy="272.254" r="1" fill="rgb(0,0,0)" />
	<circle cx="977.449" cy="1001.13" r="1" fill="rgb(0,0,0)" />
	<circle cx="978.865" cy="692.86" r="1" fill="rgb(0,0,0)" />
	<circle cx="983.45" cy="96.2039" r="1" fill="rgb(0,0,0)" />
	<circle cx="985.068" cy="207.12" r="1" fill="rgb(0,0,0)" />
	<circle cx="987.361" cy="377.372" r="1" fill="rgb(0,0,0)" />
	<circle cx="989.249" cy="492.671" r="1" fill="rgb(0,0,0)" />
	<circle cx="990.463" cy="313.856" r="1" fill="rgb(0,0,0)" />
	<circle cx="992.081" cy="266.793" r="1" fill="rgb(0,0,0)" />
	<circle cx="995.857" cy="322.824" r="1" fill="rgb(0,0,0)" />
	<circle cx="997.61" cy="701.692" r="1" fill="rgb(0,0,0)" />
	<circle cx="999.835" cy="417.356" r="1" fill="rgb(0,0,0)" />
	<circle cx="1000.78" cy="252.835" r="1" fill="rgb(0,0,0)" />
	<circle cx="1001.12" cy="941.595" r="1" fill="rgb(0,0,0)" />
	<circle cx="1003.14" cy="701.018" r="1" fill="rgb(0,0,0)" />
	<circle cx="1004.28" cy="975.646" r="1" fill="rgb(0,0,0)" />
	<circle cx="1004.69" cy="1015.83" r="1" fill="rgb(0,0,0)" />
	<circle cx="1006.98" cy="543.443" r="1" fill="rgb(0,0,0)" />
	<circle cx="1007.32" cy="303.877" r="1" fill="rgb(0,0,0)" />
	<circle cx="1008.53" cy="713.829" r="1" fill="rgb(0,0,0)" />
	<circle cx="1008.94" cy="330.376" r="1" fill="rgb(0,0,0)" />
	<circle cx="1009.07" cy="338.804" r="1" fill="rgb(0,0,0)" />
	<circle cx="1012.58" cy="133.626" r="1" fill="rgb(0,0,0)" />
	<circle cx="1022.62" cy="498.2" r="1" fill="rgb(0,0,0)" />
	<circle cx="1024.92" cy="909.905" r="1" fill="rgb(0,0,0)" />
	<circle cx="1026.4" cy="611.948" r="1" fill="rgb(0,0,0)" />
	<circle cx="1028.09" cy="835.803" r="1" fill="rgb(0,0,0)" />
	<circle cx="1029.57" cy="187.297" r="1" fill="rgb(0,0,0)" />
	<circle cx="1032.47" cy="805.866" r="1" fill="rgb(0,0,0)" />
	<circle cx="1033.75" cy="181.903" r="1" fill="rgb(0,0,0)" />
	<circle cx="1035.3" cy="901.342" r="1" fill="rgb(0,0,0)" />
	<circle cx="1035.37" cy="1005.99" r="1" fill="rgb(0,0,0)" />
	<circle cx="1036.51" cy="115.892" r="1" fill="rgb(0,0,0)" />
	<circle cx="1036.99" cy="730.349" r="1" fill="rgb(0,0,0)" />
	<circle cx="1038.2" cy="895.948" r="1" fill="rgb(0,0,0)" />
	<circle cx="1039.41" cy="229.708" r="1" fill="rgb(0,0,0)" />
	<circle cx="1042.85" cy="546.612" r="1" fill="rgb(0,0,0)" />
	<circle cx="1046.29" cy="802.427" r="1" fill="rgb(0,0,0)" />
	<circle cx="1047.98" cy="216.425" r="1" fill="rgb(0,0,0)" />
	<circle cx="1049.26" cy="643.706" r="1" fill="rgb(0,0,0)" />
	<circle cx="1049.33" cy="828.184" r="1" fill="rgb(0,0,0)" />
	<circle cx="1049.66" cy="414.658" r="1" fill="rgb(0,0,0)" />
	<circle cx="1050" cy="510.202" r="1" fill="rgb(0,0,0)" />
</svg>
