<?xml version="1.0" standalone="no" ?>
<!DOCTYPE svg PUBLIC "-//W3C//DTD SVG 1.1//EN" "http://www.w3.org/Graphics/SVG/1.1/DTD/svg11.dtd">
<svg width="1100px" height="1097.3px" xmlns="http://www.w3.org/2000/svg" version="1.1" >
	<circle cx="50" cy="418.316" r="1" fill="rgb(0,0,0)" />
	<circle cx="61.0331" cy="617.023" r="1" fill="rgb(0,0,0)" />
	<circle cx="63.7078" cy="911.351" r="1" fill="rgb(0,0,0)" />
	<circle cx="66.3825" cy="477.605" r="1" fill="rgb(0,0,0)" />
	<circle cx="73.8493" cy="954.703" r="1" fill="rgb(0,0,0)" />
	<circle cx="76.8584" cy="438.376" r="1" fill="rgb(0,0,0)" />
	<circle cx="79.3102" cy="80.4135" r="1" fill="rgb(0,0,0)" />
	<circle cx="80.9818" cy="349.108" r="1" fill="rgb(0,0,0)" />
	<circle cx="83.3222" cy="922.495" r="1" fill="rgb(0,0,0)" />
	<circle cx="83.5451" cy="542.466" r="1" fill="rgb(0,0,0)" />
	<circle cx="83.8794" cy="67.5972" r="1" fill="rgb(0,0,0)" />
	<circle cx="86.8884" cy="234.543" r="1" fill="rgb(0,0,0)" />
	<circle cx="89.6746" cy="362.816" r="1" fill="rgb(0,0,0)" />
	<circle cx="92.6836" cy="724.791" r="1" fill="rgb(0,0,0)" />
	<circle cx="109.512" cy="282.13" r="1" fill="rgb(0,0,0)" />
	<circle cx="112.744" cy="269.648" r="1" fill="rgb(0,0,0)" />
	<circle cx="115.084" cy="999.17" r="1" fill="rgb(0,0,0)" />
	<circle cx="118.539" cy="621.927" r="1" fill="rgb(0,0,0)" />
	<circle cx="119.319" cy="876.691" r="1" fill="rgb(0,0,0)" />
	<circle cx="125.337" cy="415.864" r="1" fill="rgb(0,0,0)" />
	<circle cx="126.117" cy="106.269" r="1" fill="rgb(0,0,0)" />
	<circle cx="126.563" cy="52.1063" r="1" fill="rgb(0,0,0)" />
	<circle cx="126.674" cy="235.434" r="1" fill="rgb(0,0,0)" />
	<circle cx="129.795" cy="98.0218" r="1" fill="rgb(0,0,0)" />
	<circle cx="131.021" cy="425.003" r="1" fill="rgb(0,0,0)" />
	<circle cx="131.467" cy="824.089" r="1" fill="rgb(0,0,0)" />
	<circle cx="133.361" cy="300.072" r="1" fill="rgb(0,0,0)" />
	<circle cx="139.602" cy="403.494" r="1" fill="rgb(0,0,0)" />
	<circle cx="141.497" cy="595.96" r="1" fill="rgb(0,0,0)" />
	<circle cx="142.723" cy="344.985" r="1" fill="rgb(0,0,0)" />
	<circle cx="148.518" cy="274.663" r="1" fill="rgb(0,0,0)" />
	<circle cx="151.75" cy="602.535" r="1" fill="rgb(0,0,0)" />
	<circle cx="155.762" cy="471.921" r="1" fill="rgb(0,0,0)" />
	<circle cx="156.876" cy="744.851" r="1" fill="rgb(0,0,0)" />
	<circle cx="157.991" cy="519.954" r="1" fill="rgb(0,0,0)" />
	<circle cx="164.9" cy="74.1725" r="1" fill="rgb(0,0,0)" />
	<circle cx="167.018" cy="791.547" r="1" fill="rgb(0,0,0)" />
	<circle cx="168.132" cy="125.326" r="1" fill="rgb(0,0,0)" />
	<circle cx="169.247" cy="153.187" r="1" fill="rgb(0,0,0)" />
	<circle cx="170.027" cy="885.607" r="1" fill="rgb(0,0,0)" />
	<circle cx="173.816" cy="867.553" r="1" fill="rgb(0,0,0)" />
	<circle cx="176.379" cy="698.044" r="1" fill="rgb(0,0,0)" />
	<circle cx="178.831" cy="191.19" r="1" fill="rgb(0,0,0)" />
	<circle cx="182.843" cy="860.086" r="1" fill="rgb(0,0,0)" />
	<circle cx="193.096" cy="314.337" r="1" fill="rgb(0,0,0)" />
	<circle cx="195.548" cy="311.44" r="1" fill="rgb(0,0,0)" />
	<circle cx="197.331" cy="896.863" r="1" fill="rgb(0,0,0)" />
	<circle cx="206.135" cy="941.33" r="1" fill="rgb(0,0,0)" />
	<circle cx="215.385" cy="505.578" r="1" fill="rgb(0,0,0)" />
	<circle cx="215.831" cy="162.437" r="1" fill="rgb(0,0,0)" />
	<circle cx="215.942" cy="576.457" r="1" fill="rgb(0,0,0)" />
	<circle cx="218.394" cy="891.402" r="1" fill="rgb(0,0,0)" />
	<circle cx="219.063" cy="269.648" r="1" fill="rgb(0,0,0)" />
	<circle cx="226.975" cy="837.908" r="1" fill="rgb(0,0,0)" />
	<circle cx="229.873" cy="467.909" r="1" fill="rgb(0,0,0)" />
	<circle cx="231.322" cy="49.8774" r="1" fill="rgb(0,0,0)" />
	<circle cx="240.349" cy="544.584" r="1" fill="rgb(0,0,0)" />
	<circle cx="250.379" cy="440.828" r="1" fill="rgb(0,0,0)" />
	<circle cx="257.511" cy="163.217" r="1" fill="rgb(0,0,0)" />
	<circle cx="268.21" cy="145.943" r="1" fill="rgb(0,0,0)" />
	<circle cx="270.551" cy="457.991" r="1" fill="rgb(0,0,0)" />
	<circle cx="271.888" cy="795.225" r="1" fill="rgb(0,0,0)" />
	<circle cx="274.563" cy="459.551" r="1" fill="rgb(0,0,0)" />
	<circle cx="276.234" cy="114.181" r="1" fill="rgb(0,0,0)" />
	<circle cx="281.138" cy="517.503" r="1" fill="rgb(0,0,0)" />
	<circle cx="282.921" cy="559.629" r="1" fill="rgb(0,0,0)" />
	<circle cx="284.481" cy="662.827" r="1" fill="rgb(0,0,0)" />
	<circle cx="287.379" cy="739.168" r="1" fill="rgb(0,0,0)" />
	<circle cx="292.617" cy="198.434" r="1" fill="rgb(0,0,0)" />
	<circle cx="293.174" cy="74.1725" r="1" fill="rgb(0,0,0)" />
	<circle cx="299.192" cy="517.503" r="1" fill="rgb(0,0,0)" />
	<circle cx="299.303" cy="803.917" r="1" fill="rgb(0,0,0)" />
	<circle cx="306.436" cy="928.848" r="1" fill="rgb(0,0,0)" />
	<circle cx="307.439" cy="907.45" r="1" fill="rgb(0,0,0)" />
	<circle cx="309.779" cy="271.431" r="1" fill="rgb(0,0,0)" />
	<circle cx="317.023" cy="830.553" r="1" fill="rgb(0,0,0)" />
	<circle cx="325.827" cy="914.36" r="1" fill="rgb(0,0,0)" />
	<circle cx="330.285" cy="500.674" r="1" fill="rgb(0,0,0)" />
	<circle cx="333.294" cy="711.64" r="1" fill="rgb(0,0,0)" />
	<circle cx="333.963" cy="1001.84" r="1" fill="rgb(0,0,0)" />
	<circle cx="339.647" cy="339.524" r="1" fill="rgb(0,0,0)" />
	<circle cx="341.43" cy="726.351" r="1" fill="rgb(0,0,0)" />
	<circle cx="344.327" cy="610.671" r="1" fill="rgb(0,0,0)" />
	<circle cx="350.791" cy="625.159" r="1" fill="rgb(0,0,0)" />
	<circle cx="351.46" cy="847.158" r="1" fill="rgb(0,0,0)" />
	<circle cx="367.731" cy="693.809" r="1" fill="rgb(0,0,0)" />
	<circle cx="371.074" cy="437.93" r="1" fill="rgb(0,0,0)" />
	<circle cx="372.3" cy="700.162" r="1" fill="rgb(0,0,0)" />
	<circle cx="374.083" cy="859.863" r="1" fill="rgb(0,0,0)" />
	<circle cx="381.996" cy="612.343" r="1" fill="rgb(0,0,0)" />
	<circle cx="382.33" cy="834.788" r="1" fill="rgb(0,0,0)" />
	<circle cx="393.363" cy="238.889" r="1" fill="rgb(0,0,0)" />
	<circle cx="396.818" cy="1045.64" r="1" fill="rgb(0,0,0)" />
	<circle cx="399.493" cy="702.168" r="1" fill="rgb(0,0,0)" />
	<circle cx="402.391" cy="834.565" r="1" fill="rgb(0,0,0)" />
	<circle cx="405.4" cy="489.641" r="1" fill="rgb(0,0,0)" />
	<circle cx="405.4" cy="85.0942" r="1" fill="rgb(0,0,0)" />
	<circle cx="414.761" cy="396.919" r="1" fill="rgb(0,0,0)" />
	<circle cx="416.21" cy="1029.26" r="1" fill="rgb(0,0,0)" />
	<circle cx="419.33" cy="751.761" r="1" fill="rgb(0,0,0)" />
	<circle cx="419.776" cy="342.31" r="1" fill="rgb(0,0,0)" />
	<circle cx="420.779" cy="555.06" r="1" fill="rgb(0,0,0)" />
	<circle cx="422.116" cy="372.846" r="1" fill="rgb(0,0,0)" />
	<circle cx="427.02" cy="771.821" r="1" fill="rgb(0,0,0)" />
	<circle cx="428.803" cy="1001.84" r="1" fill="rgb(0,0,0)" />
	<circle cx="430.252" cy="498.78" r="1" fill="rgb(0,0,0)" />
	<circle cx="430.698" cy="586.264" r="1" fill="rgb(0,0,0)" />
	<circle cx="431.478" cy="195.537" r="1" fill="rgb(0,0,0)" />
	<circle cx="432.815" cy="556.843" r="1" fill="rgb(0,0,0)" />
	<circle cx="452.318" cy="299.961" r="1" fill="rgb(0,0,0)" />
	<circle cx="452.652" cy="68.3774" r="1" fill="rgb(0,0,0)" />
	<circle cx="453.098" cy="585.373" r="1" fill="rgb(0,0,0)" />
	<circle cx="453.21" cy="471.253" r="1" fill="rgb(0,0,0)" />
	<circle cx="454.77" cy="663.496" r="1" fill="rgb(0,0,0)" />
	<circle cx="461.791" cy="331.054" r="1" fill="rgb(0,0,0)" />
	<circle cx="462.46" cy="116.41" r="1" fill="rgb(0,0,0)" />
	<circle cx="462.682" cy="1047.43" r="1" fill="rgb(0,0,0)" />
	<circle cx="464.466" cy="766.249" r="1" fill="rgb(0,0,0)" />
	<circle cx="467.252" cy="869.893" r="1" fill="rgb(0,0,0)" />
	<circle cx="470.818" cy="926.953" r="1" fill="rgb(0,0,0)" />
	<circle cx="473.381" cy="764.02" r="1" fill="rgb(0,0,0)" />
	<circle cx="474.607" cy="292.16" r="1" fill="rgb(0,0,0)" />
	<circle cx="475.722" cy="575.008" r="1" fill="rgb(0,0,0)" />
	<circle cx="475.833" cy="489.864" r="1" fill="rgb(0,0,0)" />
	<circle cx="477.505" cy="1002.07" r="1" fill="rgb(0,0,0)" />
	<circle cx="479.622" cy="483.177" r="1" fill="rgb(0,0,0)" />
	<circle cx="481.405" cy="161.323" r="1" fill="rgb(0,0,0)" />
	<circle cx="489.095" cy="748.529" r="1" fill="rgb(0,0,0)" />
	<circle cx="495.113" cy="911.908" r="1" fill="rgb(0,0,0)" />
	<circle cx="499.237" cy="771.264" r="1" fill="rgb(0,0,0)" />
	<circle cx="500.908" cy="270.317" r="1" fill="rgb(0,0,0)" />
	<circle cx="502.357" cy="180.826" r="1" fill="rgb(0,0,0)" />
	<circle cx="504.809" cy="544.027" r="1" fill="rgb(0,0,0)" />
	<circle cx="506.035" cy="876.58" r="1" fill="rgb(0,0,0)" />
	<circle cx="512.053" cy="728.357" r="1" fill="rgb(0,0,0)" />
	<circle cx="513.836" cy="454.09" r="1" fill="rgb(0,0,0)" />
	<circle cx="525.315" cy="62.3593" r="1" fill="rgb(0,0,0)" />
	<circle cx="526.429" cy="506.581" r="1" fill="rgb(0,0,0)" />
	<circle cx="530.218" cy="50.769" r="1" fill="rgb(0,0,0)" />
	<circle cx="533.116" cy="235.991" r="1" fill="rgb(0,0,0)" />
	<circle cx="533.45" cy="249.476" r="1" fill="rgb(0,0,0)" />
	<circle cx="534.008" cy="790.99" r="1" fill="rgb(0,0,0)" />
	<circle cx="541.586" cy="1030.82" r="1" fill="rgb(0,0,0)" />
	<circle cx="544.261" cy="208.576" r="1" fill="rgb(0,0,0)" />
	<circle cx="551.95" cy="587.936" r="1" fill="rgb(0,0,0)" />
	<circle cx="555.294" cy="832.67" r="1" fill="rgb(0,0,0)" />
	<circle cx="556.631" cy="455.539" r="1" fill="rgb(0,0,0)" />
	<circle cx="558.414" cy="649.342" r="1" fill="rgb(0,0,0)" />
	<circle cx="564.209" cy="458.436" r="1" fill="rgb(0,0,0)" />
	<circle cx="571.119" cy="997.052" r="1" fill="rgb(0,0,0)" />
	<circle cx="571.119" cy="94.0098" r="1" fill="rgb(0,0,0)" />
	<circle cx="580.257" cy="759.785" r="1" fill="rgb(0,0,0)" />
	<circle cx="580.369" cy="576.234" r="1" fill="rgb(0,0,0)" />
	<circle cx="580.926" cy="968.745" r="1" fill="rgb(0,0,0)" />
	<circle cx="589.285" cy="602.535" r="1" fill="rgb(0,0,0)" />
	<circle cx="593.742" cy="188.181" r="1" fill="rgb(0,0,0)" />
	<circle cx="600.652" cy="750.535" r="1" fill="rgb(0,0,0)" />
	<circle cx="601.432" cy="368.5" r="1" fill="rgb(0,0,0)" />
	<circle cx="601.989" cy="644.996" r="1" fill="rgb(0,0,0)" />
	<circle cx="603.55" cy="604.207" r="1" fill="rgb(0,0,0)" />
	<circle cx="608.23" cy="793.887" r="1" fill="rgb(0,0,0)" />
	<circle cx="609.122" cy="864.655" r="1" fill="rgb(0,0,0)" />
	<circle cx="615.586" cy="309.991" r="1" fill="rgb(0,0,0)" />
	<circle cx="615.809" cy="783.857" r="1" fill="rgb(0,0,0)" />
	<circle cx="616.477" cy="243.792" r="1" fill="rgb(0,0,0)" />
	<circle cx="618.818" cy="135.468" r="1" fill="rgb(0,0,0)" />
	<circle cx="622.718" cy="294.389" r="1" fill="rgb(0,0,0)" />
	<circle cx="624.836" cy="588.828" r="1" fill="rgb(0,0,0)" />
	<circle cx="630.965" cy="740.839" r="1" fill="rgb(0,0,0)" />
	<circle cx="639.881" cy="746.3" r="1" fill="rgb(0,0,0)" />
	<circle cx="642.11" cy="280.235" r="1" fill="rgb(0,0,0)" />
	<circle cx="644.004" cy="204.898" r="1" fill="rgb(0,0,0)" />
	<circle cx="657.712" cy="837.017" r="1" fill="rgb(0,0,0)" />
	<circle cx="660.61" cy="263.518" r="1" fill="rgb(0,0,0)" />
	<circle cx="661.278" cy="104.709" r="1" fill="rgb(0,0,0)" />
	<circle cx="661.501" cy="392.349" r="1" fill="rgb(0,0,0)" />
	<circle cx="662.393" cy="438.153" r="1" fill="rgb(0,0,0)" />
	<circle cx="662.95" cy="910.013" r="1" fill="rgb(0,0,0)" />
	<circle cx="668.968" cy="893.742" r="1" fill="rgb(0,0,0)" />
	<circle cx="668.968" cy="471.921" r="1" fill="rgb(0,0,0)" />
	<circle cx="671.085" cy="469.581" r="1" fill="rgb(0,0,0)" />
	<circle cx="672.311" cy="867.664" r="1" fill="rgb(0,0,0)" />
	<circle cx="675.989" cy="884.269" r="1" fill="rgb(0,0,0)" />
	<circle cx="684.905" cy="615.017" r="1" fill="rgb(0,0,0)" />
	<circle cx="687.245" cy="1037.73" r="1" fill="rgb(0,0,0)" />
	<circle cx="687.245" cy="902.658" r="1" fill="rgb(0,0,0)" />
	<circle cx="694.489" cy="60.5762" r="1" fill="rgb(0,0,0)" />
	<circle cx="697.944" cy="640.761" r="1" fill="rgb(0,0,0)" />
	<circle cx="703.405" cy="929.182" r="1" fill="rgb(0,0,0)" />
	<circle cx="704.965" cy="201.555" r="1" fill="rgb(0,0,0)" />
	<circle cx="706.191" cy="200.886" r="1" fill="rgb(0,0,0)" />
	<circle cx="720.79" cy="202.892" r="1" fill="rgb(0,0,0)" />
	<circle cx="738.844" cy="632.403" r="1" fill="rgb(0,0,0)" />
	<circle cx="743.971" cy="559.072" r="1" fill="rgb(0,0,0)" />
	<circle cx="746.2" cy="132.347" r="1" fill="rgb(0,0,0)" />
	<circle cx="749.097" cy="994.043" r="1" fill="rgb(0,0,0)" />
	<circle cx="750.546" cy="1046.98" r="1" fill="rgb(0,0,0)" />
	<circle cx="752.218" cy="955.483" r="1" fill="rgb(0,0,0)" />
	<circle cx="752.441" cy="148.841" r="1" fill="rgb(0,0,0)" />
	<circle cx="755.895" cy="791.547" r="1" fill="rgb(0,0,0)" />
	<circle cx="757.344" cy="105.823" r="1" fill="rgb(0,0,0)" />
	<circle cx="767.263" cy="668.734" r="1" fill="rgb(0,0,0)" />
	<circle cx="768.266" cy="359.584" r="1" fill="rgb(0,0,0)" />
	<circle cx="773.504" cy="883.935" r="1" fill="rgb(0,0,0)" />
	<circle cx="782.308" cy="837.685" r="1" fill="rgb(0,0,0)" />
	<circle cx="782.531" cy="762.794" r="1" fill="rgb(0,0,0)" />
	<circle cx="782.531" cy="224.067" r="1" fill="rgb(0,0,0)" />
	<circle cx="782.754" cy="364.042" r="1" fill="rgb(0,0,0)" />
	<circle cx="782.977" cy="383.545" r="1" fill="rgb(0,0,0)" />
	<circle cx="783.757" cy="190.522" r="1" fill="rgb(0,0,0)" />
	<circle cx="789.106" cy="558.292" r="1" fill="rgb(0,0,0)" />
	<circle cx="795.57" cy="778.062" r="1" fill="rgb(0,0,0)" />
	<circle cx="797.13" cy="978.441" r="1" fill="rgb(0,0,0)" />
	<circle cx="797.799" cy="488.638" r="1" fill="rgb(0,0,0)" />
	<circle cx="800.585" cy="1028.03" r="1" fill="rgb(0,0,0)" />
	<circle cx="802.145" cy="768.032" r="1" fill="rgb(0,0,0)" />
	<circle cx="804.82" cy="293.831" r="1" fill="rgb(0,0,0)" />
	<circle cx="814.07" cy="453.421" r="1" fill="rgb(0,0,0)" />
	<circle cx="816.856" cy="106.492" r="1" fill="rgb(0,0,0)" />
	<circle cx="818.974" cy="652.017" r="1" fill="rgb(0,0,0)" />
	<circle cx="823.431" cy="636.526" r="1" fill="rgb(0,0,0)" />
	<circle cx="826.218" cy="99.4706" r="1" fill="rgb(0,0,0)" />
	<circle cx="829.561" cy="474.373" r="1" fill="rgb(0,0,0)" />
	<circle cx="836.248" cy="858.748" r="1" fill="rgb(0,0,0)" />
	<circle cx="839.368" cy="240.783" r="1" fill="rgb(0,0,0)" />
	<circle cx="856.419" cy="484.403" r="1" fill="rgb(0,0,0)" />
	<circle cx="861.323" cy="774.273" r="1" fill="rgb(0,0,0)" />
	<circle cx="866.338" cy="1017" r="1" fill="rgb(0,0,0)" />
	<circle cx="867.341" cy="355.126" r="1" fill="rgb(0,0,0)" />
	<circle cx="876.145" cy="167.898" r="1" fill="rgb(0,0,0)" />
	<circle cx="879.377" cy="985.016" r="1" fill="rgb(0,0,0)" />
	<circle cx="881.16" cy="368.277" r="1" fill="rgb(0,0,0)" />
	<circle cx="883.278" cy="574.785" r="1" fill="rgb(0,0,0)" />
	<circle cx="886.955" cy="460.554" r="1" fill="rgb(0,0,0)" />
	<circle cx="898.211" cy="138.365" r="1" fill="rgb(0,0,0)" />
	<circle cx="898.769" cy="702.836" r="1" fill="rgb(0,0,0)" />
	<circle cx="900.775" cy="440.271" r="1" fill="rgb(0,0,0)" />
	<circle cx="903.449" cy="600.195" r="1" fill="rgb(0,0,0)" />
	<circle cx="904.452" cy="567.319" r="1" fill="rgb(0,0,0)" />
	<circle cx="904.564" cy="868.444" r="1" fill="rgb(0,0,0)" />
	<circle cx="907.461" cy="744.071" r="1" fill="rgb(0,0,0)" />
	<circle cx="909.913" cy="810.493" r="1" fill="rgb(0,0,0)" />
	<circle cx="911.139" cy="146.724" r="1" fill="rgb(0,0,0)" />
	<circle cx="912.365" cy="593.285" r="1" fill="rgb(0,0,0)" />
	<circle cx="914.928" cy="85.0942" r="1" fill="rgb(0,0,0)" />
	<circle cx="918.494" cy="308.765" r="1" fill="rgb(0,0,0)" />
	<circle cx="918.717" cy="992.483" r="1" fill="rgb(0,0,0)" />
	<circle cx="918.717" cy="170.127" r="1" fill="rgb(0,0,0)" />
	<circle cx="920.612" cy="445.509" r="1" fill="rgb(0,0,0)" />
	<circle cx="921.503" cy="473.259" r="1" fill="rgb(0,0,0)" />
	<circle cx="923.732" cy="1030.6" r="1" fill="rgb(0,0,0)" />
	<circle cx="924.401" cy="546.033" r="1" fill="rgb(0,0,0)" />
	<circle cx="925.515" cy="571.554" r="1" fill="rgb(0,0,0)" />
	<circle cx="926.853" cy="183.055" r="1" fill="rgb(0,0,0)" />
	<circle cx="931.868" cy="132.681" r="1" fill="rgb(0,0,0)" />
	<circle cx="933.54" cy="231.645" r="1" fill="rgb(0,0,0)" />
	<circle cx="933.985" cy="873.682" r="1" fill="rgb(0,0,0)" />
	<circle cx="934.097" cy="779.845" r="1" fill="rgb(0,0,0)" />
	<circle cx="940.895" cy="972.311" r="1" fill="rgb(0,0,0)" />
	<circle cx="941.118" cy="508.03" r="1" fill="rgb(0,0,0)" />
	<circle cx="941.675" cy="762.348" r="1" fill="rgb(0,0,0)" />
	<circle cx="942.678" cy="800.017" r="1" fill="rgb(0,0,0)" />
	<circle cx="943.904" cy="341.196" r="1" fill="rgb(0,0,0)" />
	<circle cx="944.238" cy="285.807" r="1" fill="rgb(0,0,0)" />
	<circle cx="945.13" cy="81.1936" r="1" fill="rgb(0,0,0)" />
	<circle cx="945.576" cy="953.366" r="1" fill="rgb(0,0,0)" />
	<circle cx="954.603" cy="936.76" r="1" fill="rgb(0,0,0)" />
	<circle cx="956.609" cy="676.981" r="1" fill="rgb(0,0,0)" />
	<circle cx="961.289" cy="690.132" r="1" fill="rgb(0,0,0)" />
	<circle cx="968.31" cy="346.434" r="1" fill="rgb(0,0,0)" />
	<circle cx="976.669" cy="809.824" r="1" fill="rgb(0,0,0)" />
	<circle cx="976.669" cy="628.725" r="1" fill="rgb(0,0,0)" />
	<circle cx="979.121" cy="455.985" r="1" fill="rgb(0,0,0)" />
	<circle cx="980.347" cy="844.038" r="1" fill="rgb(0,0,0)" />
	<circle cx="985.027" cy="860.643" r="1" fill="rgb(0,0,0)" />
	<circle cx="991.157" cy="993.04" r="1" fill="rgb(0,0,0)" />
	<circle cx="991.603" cy="461.445" r="1" fill="rgb(0,0,0)" />
	<circle cx="993.943" cy="869.001" r="1" fill="rgb(0,0,0)" />
	<circle cx="997.286" cy="281.015" r="1" fill="rgb(0,0,0)" />
	<circle cx="997.621" cy="665.391" r="1" fill="rgb(0,0,0)" />
	<circle cx="1002.75" cy="157.088" r="1" fill="rgb(0,0,0)" />
	<circle cx="1005.53" cy="573.56" r="1" fill="rgb(0,0,0)" />
	<circle cx="1005.64" cy="1031.6" r="1" fill="rgb(0,0,0)" />
	<circle cx="1007.76" cy="859.083" r="1" fill="rgb(0,0,0)" />
	<circle cx="1008.65" cy="885.272" r="1" fill="rgb(0,0,0)" />
	<circle cx="1012.78" cy="283.579" r="1" fill="rgb(0,0,0)" />
	<circle cx="1015.34" cy="595.849" r="1" fill="rgb(0,0,0)" />
	<circle cx="1016.79" cy="808.375" r="1" fill="rgb(0,0,0)" />
	<circle cx="1017.57" cy="868.667" r="1" fill="rgb(0,0,0)" />
	<circle cx="1020.8" cy="1037.28" r="1" fill="rgb(0,0,0)" />
	<circle cx="1021.58" cy="253.154" r="1" fill="rgb(0,0,0)" />
	<circle cx="1025.93" cy="828.658" r="1" fill="rgb(0,0,0)" />
	<circle cx="1026.71" cy="602.647" r="1" fill="rgb(0,0,0)" />
	<circle cx="1029.83" cy="466.906" r="1" fill="rgb(0,0,0)" />
	<circle cx="1029.94" cy="463.451" r="1" fill="rgb(0,0,0)" />
	<circle cx="1039.3" cy="185.061" r="1" fill="rgb(0,0,0)" />
	<circle cx="1042.76" cy="790.99" r="1" fill="rgb(0,0,0)" />
	<circle cx="1044.43" cy="974.429" r="1" fill="rgb(0,0,0)" />
	<circle cx="1044.76" cy="184.058" r="1" fill="rgb(0,0,0)" />
	<circle cx="1050" cy="470.584" r="1" fill="rgb(0,0,0)" />
</svg>
