<?xml version="1.0" standalone="no" ?>
<!DOCTYPE svg PUBLIC "-//W3C//DTD SVG 1.1//EN" "http://www.w3.org/Graphics/SVG/1.1/DTD/svg11.dtd">
<svg width="1100px" height="1099px" xmlns="http://www.w3.org/2000/svg" version="1.1" >
	<circle cx="50" cy="263.616" r="1" fill="rgb(0,0,0)" />
	<circle cx="50.716" cy="123.228" r="1" fill="rgb(0,0,0)" />
	<circle cx="52.4345" cy="343.477" r="1" fill="rgb(0,0,0)" />
	<circle cx="54.2961" cy="600.148" r="1" fill="rgb(0,0,0)" />
	<circle cx="55.2986" cy="1017.16" r="1" fill="rgb(0,0,0)" />
	<circle cx="57.208" cy="492.601" r="1" fill="rgb(0,0,0)" />
	<circle cx="57.8285" cy="841.019" r="1" fill="rgb(0,0,0)" />
	<circle cx="60.1675" cy="230.345" r="1" fill="rgb(0,0,0)" />
	<circle cx="62.0292" cy="301.661" r="1" fill="rgb(0,0,0)" />
	<circle cx="63.6045" cy="1005.47" r="1" fill="rgb(0,0,0)" />
	<circle cx="64.1296" cy="968.901" r="1" fill="rgb(0,0,0)" />
	<circle cx="64.3205" cy="766.457" r="1" fill="rgb(0,0,0)" />
	<circle cx="64.3205" cy="559" r="1" fill="rgb(0,0,0)" />
	<circle cx="65.6571" cy="549.119" r="1" fill="rgb(0,0,0)" />
	<circle cx="67.5665" cy="642.919" r="1" fill="rgb(0,0,0)" />
	<circle cx="68.378" cy="200.606" r="1" fill="rgb(0,0,0)" />
	<circle cx="69.3327" cy="84.8967" r="1" fill="rgb(0,0,0)" />
	<circle cx="69.9055" cy="545.539" r="1" fill="rgb(0,0,0)" />
	<circle cx="70.3828" cy="483.34" r="1" fill="rgb(0,0,0)" />
	<circle cx="70.8602" cy="419.996" r="1" fill="rgb(0,0,0)" />
	<circle cx="73.3901" cy="738.102" r="1" fill="rgb(0,0,0)" />
	<circle cx="74.2016" cy="793.618" r="1" fill="rgb(0,0,0)" />
	<circle cx="75.6814" cy="944.985" r="1" fill="rgb(0,0,0)" />
	<circle cx="76.2542" cy="66.7096" r="1" fill="rgb(0,0,0)" />
	<circle cx="76.9703" cy="323.953" r="1" fill="rgb(0,0,0)" />
	<circle cx="80.2162" cy="884.457" r="1" fill="rgb(0,0,0)" />
	<circle cx="80.8845" cy="316.745" r="1" fill="rgb(0,0,0)" />
	<circle cx="82.8417" cy="223.662" r="1" fill="rgb(0,0,0)" />
	<circle cx="83.6532" cy="1044.99" r="1" fill="rgb(0,0,0)" />
	<circle cx="84.5601" cy="748.747" r="1" fill="rgb(0,0,0)" />
	<circle cx="84.7511" cy="253.926" r="1" fill="rgb(0,0,0)" />
	<circle cx="85.4194" cy="226.097" r="1" fill="rgb(0,0,0)" />
	<circle cx="85.849" cy="1020.5" r="1" fill="rgb(0,0,0)" />
	<circle cx="86.2308" cy="775.765" r="1" fill="rgb(0,0,0)" />
	<circle cx="88.9995" cy="880.782" r="1" fill="rgb(0,0,0)" />
	<circle cx="90.0974" cy="568.691" r="1" fill="rgb(0,0,0)" />
	<circle cx="90.1451" cy="190.534" r="1" fill="rgb(0,0,0)" />
	<circle cx="90.4315" cy="929.472" r="1" fill="rgb(0,0,0)" />
	<circle cx="91.4817" cy="656.332" r="1" fill="rgb(0,0,0)" />
	<circle cx="92.2932" cy="582.104" r="1" fill="rgb(0,0,0)" />
	<circle cx="94.3935" cy="651.033" r="1" fill="rgb(0,0,0)" />
	<circle cx="94.8709" cy="691.274" r="1" fill="rgb(0,0,0)" />
	<circle cx="94.8709" cy="406.296" r="1" fill="rgb(0,0,0)" />
	<circle cx="100.599" cy="893.861" r="1" fill="rgb(0,0,0)" />
	<circle cx="101.506" cy="330.732" r="1" fill="rgb(0,0,0)" />
	<circle cx="103.129" cy="954.532" r="1" fill="rgb(0,0,0)" />
	<circle cx="103.463" cy="878.204" r="1" fill="rgb(0,0,0)" />
	<circle cx="107.425" cy="260.37" r="1" fill="rgb(0,0,0)" />
	<circle cx="107.616" cy="945.511" r="1" fill="rgb(0,0,0)" />
	<circle cx="107.664" cy="297.126" r="1" fill="rgb(0,0,0)" />
	<circle cx="109.191" cy="696.286" r="1" fill="rgb(0,0,0)" />
	<circle cx="109.382" cy="936.345" r="1" fill="rgb(0,0,0)" />
	<circle cx="109.526" cy="806.745" r="1" fill="rgb(0,0,0)" />
	<circle cx="111.53" cy="357.559" r="1" fill="rgb(0,0,0)" />
	<circle cx="111.674" cy="828.464" r="1" fill="rgb(0,0,0)" />
	<circle cx="112.39" cy="362.189" r="1" fill="rgb(0,0,0)" />
	<circle cx="112.533" cy="926.512" r="1" fill="rgb(0,0,0)" />
	<circle cx="113.344" cy="227.433" r="1" fill="rgb(0,0,0)" />
	<circle cx="116.399" cy="57.8309" r="1" fill="rgb(0,0,0)" />
	<circle cx="118.356" cy="774.858" r="1" fill="rgb(0,0,0)" />
	<circle cx="119.216" cy="768.08" r="1" fill="rgb(0,0,0)" />
	<circle cx="120.17" cy="771.469" r="1" fill="rgb(0,0,0)" />
	<circle cx="120.934" cy="777.531" r="1" fill="rgb(0,0,0)" />
	<circle cx="123.369" cy="277.412" r="1" fill="rgb(0,0,0)" />
	<circle cx="124.705" cy="845.41" r="1" fill="rgb(0,0,0)" />
	<circle cx="127.474" cy="76.3521" r="1" fill="rgb(0,0,0)" />
	<circle cx="127.522" cy="186.811" r="1" fill="rgb(0,0,0)" />
	<circle cx="128.667" cy="391.689" r="1" fill="rgb(0,0,0)" />
	<circle cx="128.954" cy="1005.08" r="1" fill="rgb(0,0,0)" />
	<circle cx="130.242" cy="757.864" r="1" fill="rgb(0,0,0)" />
	<circle cx="142.558" cy="627.739" r="1" fill="rgb(0,0,0)" />
	<circle cx="144.611" cy="949.234" r="1" fill="rgb(0,0,0)" />
	<circle cx="144.802" cy="1034.01" r="1" fill="rgb(0,0,0)" />
	<circle cx="145.184" cy="608.502" r="1" fill="rgb(0,0,0)" />
	<circle cx="147.857" cy="1038.64" r="1" fill="rgb(0,0,0)" />
	<circle cx="148.143" cy="118.884" r="1" fill="rgb(0,0,0)" />
	<circle cx="148.668" cy="305.05" r="1" fill="rgb(0,0,0)" />
	<circle cx="153.108" cy="671.703" r="1" fill="rgb(0,0,0)" />
	<circle cx="153.633" cy="349.683" r="1" fill="rgb(0,0,0)" />
	<circle cx="154.587" cy="465.822" r="1" fill="rgb(0,0,0)" />
	<circle cx="154.635" cy="690.463" r="1" fill="rgb(0,0,0)" />
	<circle cx="155.017" cy="428.636" r="1" fill="rgb(0,0,0)" />
	<circle cx="155.59" cy="231.013" r="1" fill="rgb(0,0,0)" />
	<circle cx="155.828" cy="819.061" r="1" fill="rgb(0,0,0)" />
	<circle cx="157.356" cy="558.809" r="1" fill="rgb(0,0,0)" />
	<circle cx="157.786" cy="352.929" r="1" fill="rgb(0,0,0)" />
	<circle cx="159.027" cy="464.915" r="1" fill="rgb(0,0,0)" />
	<circle cx="160.506" cy="737.291" r="1" fill="rgb(0,0,0)" />
	<circle cx="161.413" cy="1030.34" r="1" fill="rgb(0,0,0)" />
	<circle cx="162.655" cy="693.852" r="1" fill="rgb(0,0,0)" />
	<circle cx="163.896" cy="1035.73" r="1" fill="rgb(0,0,0)" />
	<circle cx="168.621" cy="811.662" r="1" fill="rgb(0,0,0)" />
	<circle cx="169.194" cy="204.425" r="1" fill="rgb(0,0,0)" />
	<circle cx="169.576" cy="274.309" r="1" fill="rgb(0,0,0)" />
	<circle cx="171.724" cy="910.378" r="1" fill="rgb(0,0,0)" />
	<circle cx="172.727" cy="305.385" r="1" fill="rgb(0,0,0)" />
	<circle cx="173.013" cy="208.673" r="1" fill="rgb(0,0,0)" />
	<circle cx="173.252" cy="65.7072" r="1" fill="rgb(0,0,0)" />
	<circle cx="173.634" cy="706.788" r="1" fill="rgb(0,0,0)" />
	<circle cx="174.015" cy="368.824" r="1" fill="rgb(0,0,0)" />
	<circle cx="181.796" cy="794.047" r="1" fill="rgb(0,0,0)" />
	<circle cx="183.753" cy="747.076" r="1" fill="rgb(0,0,0)" />
	<circle cx="183.801" cy="719.247" r="1" fill="rgb(0,0,0)" />
	<circle cx="186.952" cy="576.376" r="1" fill="rgb(0,0,0)" />
	<circle cx="186.999" cy="961.979" r="1" fill="rgb(0,0,0)" />
	<circle cx="190.102" cy="1037.26" r="1" fill="rgb(0,0,0)" />
	<circle cx="191.439" cy="986.276" r="1" fill="rgb(0,0,0)" />
	<circle cx="192.25" cy="121.366" r="1" fill="rgb(0,0,0)" />
	<circle cx="192.966" cy="593.895" r="1" fill="rgb(0,0,0)" />
	<circle cx="193.682" cy="654.184" r="1" fill="rgb(0,0,0)" />
	<circle cx="194.637" cy="910.759" r="1" fill="rgb(0,0,0)" />
	<circle cx="194.923" cy="515.227" r="1" fill="rgb(0,0,0)" />
	<circle cx="197.262" cy="1030.96" r="1" fill="rgb(0,0,0)" />
	<circle cx="198.647" cy="851.329" r="1" fill="rgb(0,0,0)" />
	<circle cx="199.888" cy="544.203" r="1" fill="rgb(0,0,0)" />
	<circle cx="201.224" cy="65.4685" r="1" fill="rgb(0,0,0)" />
	<circle cx="202.752" cy="904.411" r="1" fill="rgb(0,0,0)" />
	<circle cx="202.943" cy="123.228" r="1" fill="rgb(0,0,0)" />
	<circle cx="203.563" cy="627.977" r="1" fill="rgb(0,0,0)" />
	<circle cx="203.707" cy="151.057" r="1" fill="rgb(0,0,0)" />
	<circle cx="204.995" cy="897.25" r="1" fill="rgb(0,0,0)" />
	<circle cx="206.046" cy="777.818" r="1" fill="rgb(0,0,0)" />
	<circle cx="206.475" cy="400.52" r="1" fill="rgb(0,0,0)" />
	<circle cx="213.635" cy="568.404" r="1" fill="rgb(0,0,0)" />
	<circle cx="214.399" cy="264.714" r="1" fill="rgb(0,0,0)" />
	<circle cx="215.736" cy="234.45" r="1" fill="rgb(0,0,0)" />
	<circle cx="216.929" cy="159.268" r="1" fill="rgb(0,0,0)" />
	<circle cx="217.884" cy="517.566" r="1" fill="rgb(0,0,0)" />
	<circle cx="221.56" cy="880.114" r="1" fill="rgb(0,0,0)" />
	<circle cx="221.75" cy="397.561" r="1" fill="rgb(0,0,0)" />
	<circle cx="226.572" cy="1017.88" r="1" fill="rgb(0,0,0)" />
	<circle cx="228.815" cy="884.171" r="1" fill="rgb(0,0,0)" />
	<circle cx="234.543" cy="678.767" r="1" fill="rgb(0,0,0)" />
	<circle cx="234.639" cy="966.991" r="1" fill="rgb(0,0,0)" />
	<circle cx="236.93" cy="987.183" r="1" fill="rgb(0,0,0)" />
	<circle cx="240.701" cy="1040.84" r="1" fill="rgb(0,0,0)" />
	<circle cx="241.56" cy="518.617" r="1" fill="rgb(0,0,0)" />
	<circle cx="243.088" cy="657.478" r="1" fill="rgb(0,0,0)" />
	<circle cx="243.899" cy="217.791" r="1" fill="rgb(0,0,0)" />
	<circle cx="244.615" cy="731.228" r="1" fill="rgb(0,0,0)" />
	<circle cx="246" cy="108.287" r="1" fill="rgb(0,0,0)" />
	<circle cx="246.143" cy="760.681" r="1" fill="rgb(0,0,0)" />
	<circle cx="246.143" cy="434.508" r="1" fill="rgb(0,0,0)" />
	<circle cx="249.675" cy="976.204" r="1" fill="rgb(0,0,0)" />
	<circle cx="249.962" cy="672.323" r="1" fill="rgb(0,0,0)" />
	<circle cx="250.2" cy="1040.26" r="1" fill="rgb(0,0,0)" />
	<circle cx="250.869" cy="500.764" r="1" fill="rgb(0,0,0)" />
	<circle cx="251.346" cy="273.163" r="1" fill="rgb(0,0,0)" />
	<circle cx="255.26" cy="365.053" r="1" fill="rgb(0,0,0)" />
	<circle cx="257.122" cy="649.172" r="1" fill="rgb(0,0,0)" />
	<circle cx="257.122" cy="525.443" r="1" fill="rgb(0,0,0)" />
	<circle cx="257.981" cy="265.287" r="1" fill="rgb(0,0,0)" />
	<circle cx="259.604" cy="186.095" r="1" fill="rgb(0,0,0)" />
	<circle cx="259.891" cy="78.166" r="1" fill="rgb(0,0,0)" />
	<circle cx="260.082" cy="405.342" r="1" fill="rgb(0,0,0)" />
	<circle cx="262.755" cy="726.932" r="1" fill="rgb(0,0,0)" />
	<circle cx="263.709" cy="826.459" r="1" fill="rgb(0,0,0)" />
	<circle cx="263.757" cy="428.159" r="1" fill="rgb(0,0,0)" />
	<circle cx="265.762" cy="856.962" r="1" fill="rgb(0,0,0)" />
	<circle cx="266.955" cy="219.748" r="1" fill="rgb(0,0,0)" />
	<circle cx="267.29" cy="591.317" r="1" fill="rgb(0,0,0)" />
	<circle cx="267.767" cy="975.965" r="1" fill="rgb(0,0,0)" />
	<circle cx="269.629" cy="702.683" r="1" fill="rgb(0,0,0)" />
	<circle cx="270.297" cy="220.703" r="1" fill="rgb(0,0,0)" />
	<circle cx="271.92" cy="845.84" r="1" fill="rgb(0,0,0)" />
	<circle cx="273.352" cy="893.861" r="1" fill="rgb(0,0,0)" />
	<circle cx="275.452" cy="642.728" r="1" fill="rgb(0,0,0)" />
	<circle cx="275.595" cy="244.666" r="1" fill="rgb(0,0,0)" />
	<circle cx="275.739" cy="382.19" r="1" fill="rgb(0,0,0)" />
	<circle cx="276.837" cy="798.487" r="1" fill="rgb(0,0,0)" />
	<circle cx="277.457" cy="394.935" r="1" fill="rgb(0,0,0)" />
	<circle cx="281.467" cy="475.798" r="1" fill="rgb(0,0,0)" />
	<circle cx="284.045" cy="203.423" r="1" fill="rgb(0,0,0)" />
	<circle cx="286.097" cy="851.902" r="1" fill="rgb(0,0,0)" />
	<circle cx="286.431" cy="603.06" r="1" fill="rgb(0,0,0)" />
	<circle cx="287.291" cy="1032.01" r="1" fill="rgb(0,0,0)" />
	<circle cx="287.72" cy="544.394" r="1" fill="rgb(0,0,0)" />
	<circle cx="290.632" cy="718.913" r="1" fill="rgb(0,0,0)" />
	<circle cx="291.396" cy="663.015" r="1" fill="rgb(0,0,0)" />
	<circle cx="292.064" cy="958.494" r="1" fill="rgb(0,0,0)" />
	<circle cx="295.692" cy="308.201" r="1" fill="rgb(0,0,0)" />
	<circle cx="296.169" cy="658.098" r="1" fill="rgb(0,0,0)" />
	<circle cx="297.745" cy="1017.59" r="1" fill="rgb(0,0,0)" />
	<circle cx="299.654" cy="350.446" r="1" fill="rgb(0,0,0)" />
	<circle cx="301.229" cy="359.755" r="1" fill="rgb(0,0,0)" />
	<circle cx="304.141" cy="254.213" r="1" fill="rgb(0,0,0)" />
	<circle cx="305.382" cy="152.251" r="1" fill="rgb(0,0,0)" />
	<circle cx="306.194" cy="771.851" r="1" fill="rgb(0,0,0)" />
	<circle cx="307.435" cy="522.101" r="1" fill="rgb(0,0,0)" />
	<circle cx="308.246" cy="573.416" r="1" fill="rgb(0,0,0)" />
	<circle cx="308.58" cy="1047.66" r="1" fill="rgb(0,0,0)" />
	<circle cx="310.012" cy="729.223" r="1" fill="rgb(0,0,0)" />
	<circle cx="313.545" cy="906.463" r="1" fill="rgb(0,0,0)" />
	<circle cx="315.502" cy="168.385" r="1" fill="rgb(0,0,0)" />
	<circle cx="317.316" cy="182.419" r="1" fill="rgb(0,0,0)" />
	<circle cx="320.037" cy="747.888" r="1" fill="rgb(0,0,0)" />
	<circle cx="322.471" cy="103.466" r="1" fill="rgb(0,0,0)" />
	<circle cx="322.614" cy="628.55" r="1" fill="rgb(0,0,0)" />
	<circle cx="326.672" cy="879.111" r="1" fill="rgb(0,0,0)" />
	<circle cx="334.31" cy="373.407" r="1" fill="rgb(0,0,0)" />
	<circle cx="337.221" cy="54.8714" r="1" fill="rgb(0,0,0)" />
	<circle cx="339.417" cy="279.083" r="1" fill="rgb(0,0,0)" />
	<circle cx="340.276" cy="78.8343" r="1" fill="rgb(0,0,0)" />
	<circle cx="340.801" cy="535.276" r="1" fill="rgb(0,0,0)" />
	<circle cx="345.05" cy="819.347" r="1" fill="rgb(0,0,0)" />
	<circle cx="345.718" cy="958.16" r="1" fill="rgb(0,0,0)" />
	<circle cx="345.814" cy="106.807" r="1" fill="rgb(0,0,0)" />
	<circle cx="346.768" cy="791.708" r="1" fill="rgb(0,0,0)" />
	<circle cx="347.341" cy="80.1232" r="1" fill="rgb(0,0,0)" />
	<circle cx="347.532" cy="857.201" r="1" fill="rgb(0,0,0)" />
	<circle cx="347.532" cy="847.176" r="1" fill="rgb(0,0,0)" />
	<circle cx="347.675" cy="1018.4" r="1" fill="rgb(0,0,0)" />
	<circle cx="349.967" cy="158.695" r="1" fill="rgb(0,0,0)" />
	<circle cx="353.117" cy="528.593" r="1" fill="rgb(0,0,0)" />
	<circle cx="353.594" cy="765.168" r="1" fill="rgb(0,0,0)" />
	<circle cx="354.215" cy="440.522" r="1" fill="rgb(0,0,0)" />
	<circle cx="355.361" cy="699.294" r="1" fill="rgb(0,0,0)" />
	<circle cx="357.843" cy="609.695" r="1" fill="rgb(0,0,0)" />
	<circle cx="359.036" cy="548.212" r="1" fill="rgb(0,0,0)" />
	<circle cx="359.609" cy="316.936" r="1" fill="rgb(0,0,0)" />
	<circle cx="359.8" cy="420.474" r="1" fill="rgb(0,0,0)" />
	<circle cx="360.755" cy="837.629" r="1" fill="rgb(0,0,0)" />
	<circle cx="360.802" cy="938.112" r="1" fill="rgb(0,0,0)" />
	<circle cx="362.521" cy="753.139" r="1" fill="rgb(0,0,0)" />
	<circle cx="362.807" cy="851.329" r="1" fill="rgb(0,0,0)" />
	<circle cx="363.571" cy="689.412" r="1" fill="rgb(0,0,0)" />
	<circle cx="364.669" cy="475.273" r="1" fill="rgb(0,0,0)" />
	<circle cx="366.722" cy="77.1159" r="1" fill="rgb(0,0,0)" />
	<circle cx="368.44" cy="179.937" r="1" fill="rgb(0,0,0)" />
	<circle cx="368.679" cy="500.621" r="1" fill="rgb(0,0,0)" />
	<circle cx="370.588" cy="514.177" r="1" fill="rgb(0,0,0)" />
	<circle cx="371.065" cy="414.268" r="1" fill="rgb(0,0,0)" />
	<circle cx="371.638" cy="487.684" r="1" fill="rgb(0,0,0)" />
	<circle cx="372.593" cy="234.068" r="1" fill="rgb(0,0,0)" />
	<circle cx="373.452" cy="899.255" r="1" fill="rgb(0,0,0)" />
	<circle cx="373.643" cy="452.695" r="1" fill="rgb(0,0,0)" />
	<circle cx="373.882" cy="508.163" r="1" fill="rgb(0,0,0)" />
	<circle cx="374.884" cy="551.124" r="1" fill="rgb(0,0,0)" />
	<circle cx="376.841" cy="862.786" r="1" fill="rgb(0,0,0)" />
	<circle cx="377.892" cy="182.801" r="1" fill="rgb(0,0,0)" />
	<circle cx="378.417" cy="111.867" r="1" fill="rgb(0,0,0)" />
	<circle cx="379.276" cy="998.162" r="1" fill="rgb(0,0,0)" />
	<circle cx="379.849" cy="551.411" r="1" fill="rgb(0,0,0)" />
	<circle cx="379.849" cy="72.772" r="1" fill="rgb(0,0,0)" />
	<circle cx="382.044" cy="329.347" r="1" fill="rgb(0,0,0)" />
	<circle cx="383.19" cy="310.588" r="1" fill="rgb(0,0,0)" />
	<circle cx="383.524" cy="650.461" r="1" fill="rgb(0,0,0)" />
	<circle cx="383.763" cy="352.213" r="1" fill="rgb(0,0,0)" />
	<circle cx="384.097" cy="988.663" r="1" fill="rgb(0,0,0)" />
	<circle cx="384.909" cy="413.695" r="1" fill="rgb(0,0,0)" />
	<circle cx="385.529" cy="885.746" r="1" fill="rgb(0,0,0)" />
	<circle cx="385.816" cy="844.885" r="1" fill="rgb(0,0,0)" />
	<circle cx="387.057" cy="252.399" r="1" fill="rgb(0,0,0)" />
	<circle cx="389.825" cy="494.892" r="1" fill="rgb(0,0,0)" />
	<circle cx="393.549" cy="400.664" r="1" fill="rgb(0,0,0)" />
	<circle cx="394.169" cy="963.172" r="1" fill="rgb(0,0,0)" />
	<circle cx="394.169" cy="854.575" r="1" fill="rgb(0,0,0)" />
	<circle cx="395.219" cy="470.118" r="1" fill="rgb(0,0,0)" />
	<circle cx="398.131" cy="1043.56" r="1" fill="rgb(0,0,0)" />
	<circle cx="398.131" cy="894.864" r="1" fill="rgb(0,0,0)" />
	<circle cx="403.525" cy="300.468" r="1" fill="rgb(0,0,0)" />
	<circle cx="404.384" cy="168.337" r="1" fill="rgb(0,0,0)" />
	<circle cx="406.485" cy="375.698" r="1" fill="rgb(0,0,0)" />
	<circle cx="406.962" cy="1049" r="1" fill="rgb(0,0,0)" />
	<circle cx="407.678" cy="579.336" r="1" fill="rgb(0,0,0)" />
	<circle cx="408.346" cy="241.563" r="1" fill="rgb(0,0,0)" />
	<circle cx="411.688" cy="980.453" r="1" fill="rgb(0,0,0)" />
	<circle cx="411.831" cy="884.744" r="1" fill="rgb(0,0,0)" />
	<circle cx="412.738" cy="859.731" r="1" fill="rgb(0,0,0)" />
	<circle cx="413.406" cy="133.92" r="1" fill="rgb(0,0,0)" />
	<circle cx="415.411" cy="985.608" r="1" fill="rgb(0,0,0)" />
	<circle cx="415.793" cy="320.039" r="1" fill="rgb(0,0,0)" />
	<circle cx="416.27" cy="617.571" r="1" fill="rgb(0,0,0)" />
	<circle cx="417.893" cy="1011.34" r="1" fill="rgb(0,0,0)" />
	<circle cx="419.612" cy="81.6984" r="1" fill="rgb(0,0,0)" />
	<circle cx="422.285" cy="995.68" r="1" fill="rgb(0,0,0)" />
	<circle cx="422.524" cy="1013.1" r="1" fill="rgb(0,0,0)" />
	<circle cx="422.81" cy="251.205" r="1" fill="rgb(0,0,0)" />
	<circle cx="424.385" cy="162.371" r="1" fill="rgb(0,0,0)" />
	<circle cx="425.34" cy="909.041" r="1" fill="rgb(0,0,0)" />
	<circle cx="428.013" cy="402.716" r="1" fill="rgb(0,0,0)" />
	<circle cx="428.682" cy="448.255" r="1" fill="rgb(0,0,0)" />
	<circle cx="429.875" cy="68.9532" r="1" fill="rgb(0,0,0)" />
	<circle cx="430.782" cy="344.098" r="1" fill="rgb(0,0,0)" />
	<circle cx="433.932" cy="347.534" r="1" fill="rgb(0,0,0)" />
	<circle cx="436.94" cy="488.687" r="1" fill="rgb(0,0,0)" />
	<circle cx="437.083" cy="49.9547" r="1" fill="rgb(0,0,0)" />
	<circle cx="437.178" cy="732.469" r="1" fill="rgb(0,0,0)" />
	<circle cx="438.467" cy="739.773" r="1" fill="rgb(0,0,0)" />
	<circle cx="444.673" cy="845.028" r="1" fill="rgb(0,0,0)" />
	<circle cx="445.341" cy="302.759" r="1" fill="rgb(0,0,0)" />
	<circle cx="445.389" cy="104.563" r="1" fill="rgb(0,0,0)" />
	<circle cx="445.962" cy="298.749" r="1" fill="rgb(0,0,0)" />
	<circle cx="447.155" cy="794.573" r="1" fill="rgb(0,0,0)" />
	<circle cx="448.11" cy="757.769" r="1" fill="rgb(0,0,0)" />
	<circle cx="449.112" cy="466.299" r="1" fill="rgb(0,0,0)" />
	<circle cx="450.496" cy="1009.76" r="1" fill="rgb(0,0,0)" />
	<circle cx="451.212" cy="946.513" r="1" fill="rgb(0,0,0)" />
	<circle cx="453.886" cy="51.8163" r="1" fill="rgb(0,0,0)" />
	<circle cx="454.363" cy="458.375" r="1" fill="rgb(0,0,0)" />
	<circle cx="456.416" cy="793.045" r="1" fill="rgb(0,0,0)" />
	<circle cx="458.659" cy="241.706" r="1" fill="rgb(0,0,0)" />
	<circle cx="461.619" cy="719.963" r="1" fill="rgb(0,0,0)" />
	<circle cx="461.619" cy="218.03" r="1" fill="rgb(0,0,0)" />
	<circle cx="462.43" cy="801.255" r="1" fill="rgb(0,0,0)" />
	<circle cx="463.91" cy="881.737" r="1" fill="rgb(0,0,0)" />
	<circle cx="466.392" cy="205.714" r="1" fill="rgb(0,0,0)" />
	<circle cx="466.774" cy="1038.45" r="1" fill="rgb(0,0,0)" />
	<circle cx="469.113" cy="169.34" r="1" fill="rgb(0,0,0)" />
	<circle cx="470.402" cy="469.497" r="1" fill="rgb(0,0,0)" />
	<circle cx="470.497" cy="686.93" r="1" fill="rgb(0,0,0)" />
	<circle cx="472.025" cy="383.861" r="1" fill="rgb(0,0,0)" />
	<circle cx="473.075" cy="227.051" r="1" fill="rgb(0,0,0)" />
	<circle cx="473.409" cy="561.101" r="1" fill="rgb(0,0,0)" />
	<circle cx="474.984" cy="484.916" r="1" fill="rgb(0,0,0)" />
	<circle cx="475.128" cy="973.865" r="1" fill="rgb(0,0,0)" />
	<circle cx="476.082" cy="166.428" r="1" fill="rgb(0,0,0)" />
	<circle cx="476.894" cy="926.035" r="1" fill="rgb(0,0,0)" />
	<circle cx="480.426" cy="779.393" r="1" fill="rgb(0,0,0)" />
	<circle cx="481.954" cy="717.576" r="1" fill="rgb(0,0,0)" />
	<circle cx="486.345" cy="340.327" r="1" fill="rgb(0,0,0)" />
	<circle cx="487.825" cy="914.101" r="1" fill="rgb(0,0,0)" />
	<circle cx="488.875" cy="538.856" r="1" fill="rgb(0,0,0)" />
	<circle cx="490.164" cy="967.373" r="1" fill="rgb(0,0,0)" />
	<circle cx="490.212" cy="800.396" r="1" fill="rgb(0,0,0)" />
	<circle cx="490.737" cy="143.993" r="1" fill="rgb(0,0,0)" />
	<circle cx="493.983" cy="614.659" r="1" fill="rgb(0,0,0)" />
	<circle cx="494.842" cy="172.824" r="1" fill="rgb(0,0,0)" />
	<circle cx="495.32" cy="766.218" r="1" fill="rgb(0,0,0)" />
	<circle cx="496.561" cy="376.557" r="1" fill="rgb(0,0,0)" />
	<circle cx="496.895" cy="616.187" r="1" fill="rgb(0,0,0)" />
	<circle cx="499.425" cy="276.123" r="1" fill="rgb(0,0,0)" />
	<circle cx="502.384" cy="865.841" r="1" fill="rgb(0,0,0)" />
	<circle cx="502.528" cy="648.074" r="1" fill="rgb(0,0,0)" />
	<circle cx="504.962" cy="995.441" r="1" fill="rgb(0,0,0)" />
	<circle cx="505.535" cy="627.834" r="1" fill="rgb(0,0,0)" />
	<circle cx="506.394" cy="351.64" r="1" fill="rgb(0,0,0)" />
	<circle cx="509.115" cy="387.25" r="1" fill="rgb(0,0,0)" />
	<circle cx="510.977" cy="172.443" r="1" fill="rgb(0,0,0)" />
	<circle cx="515.798" cy="406.917" r="1" fill="rgb(0,0,0)" />
	<circle cx="515.798" cy="135.018" r="1" fill="rgb(0,0,0)" />
	<circle cx="517.278" cy="686.596" r="1" fill="rgb(0,0,0)" />
	<circle cx="517.469" cy="513.366" r="1" fill="rgb(0,0,0)" />
	<circle cx="518.614" cy="544.059" r="1" fill="rgb(0,0,0)" />
	<circle cx="519.855" cy="829.515" r="1" fill="rgb(0,0,0)" />
	<circle cx="520.428" cy="142.799" r="1" fill="rgb(0,0,0)" />
	<circle cx="521.383" cy="517.757" r="1" fill="rgb(0,0,0)" />
	<circle cx="524.82" cy="198.84" r="1" fill="rgb(0,0,0)" />
	<circle cx="524.915" cy="733.567" r="1" fill="rgb(0,0,0)" />
	<circle cx="527.636" cy="990.811" r="1" fill="rgb(0,0,0)" />
	<circle cx="527.684" cy="433.887" r="1" fill="rgb(0,0,0)" />
	<circle cx="528.973" cy="998.544" r="1" fill="rgb(0,0,0)" />
	<circle cx="530.453" cy="131.486" r="1" fill="rgb(0,0,0)" />
	<circle cx="530.596" cy="542.341" r="1" fill="rgb(0,0,0)" />
	<circle cx="530.787" cy="422.001" r="1" fill="rgb(0,0,0)" />
	<circle cx="531.646" cy="1035.59" r="1" fill="rgb(0,0,0)" />
	<circle cx="531.694" cy="395.985" r="1" fill="rgb(0,0,0)" />
	<circle cx="534.176" cy="800.014" r="1" fill="rgb(0,0,0)" />
	<circle cx="535.656" cy="508.736" r="1" fill="rgb(0,0,0)" />
	<circle cx="537.279" cy="849.181" r="1" fill="rgb(0,0,0)" />
	<circle cx="538.472" cy="391.26" r="1" fill="rgb(0,0,0)" />
	<circle cx="539.427" cy="299.465" r="1" fill="rgb(0,0,0)" />
	<circle cx="540.095" cy="617.714" r="1" fill="rgb(0,0,0)" />
	<circle cx="540.572" cy="675.235" r="1" fill="rgb(0,0,0)" />
	<circle cx="541.813" cy="733.71" r="1" fill="rgb(0,0,0)" />
	<circle cx="543.389" cy="272.256" r="1" fill="rgb(0,0,0)" />
	<circle cx="543.962" cy="819.538" r="1" fill="rgb(0,0,0)" />
	<circle cx="544.2" cy="290.921" r="1" fill="rgb(0,0,0)" />
	<circle cx="545.728" cy="501.718" r="1" fill="rgb(0,0,0)" />
	<circle cx="546.253" cy="636.283" r="1" fill="rgb(0,0,0)" />
	<circle cx="546.682" cy="830.231" r="1" fill="rgb(0,0,0)" />
	<circle cx="547.446" cy="959.401" r="1" fill="rgb(0,0,0)" />
	<circle cx="550.788" cy="804.215" r="1" fill="rgb(0,0,0)" />
	<circle cx="553.174" cy="1047.33" r="1" fill="rgb(0,0,0)" />
	<circle cx="554.654" cy="866.318" r="1" fill="rgb(0,0,0)" />
	<circle cx="555.609" cy="133.586" r="1" fill="rgb(0,0,0)" />
	<circle cx="556.802" cy="270.92" r="1" fill="rgb(0,0,0)" />
	<circle cx="556.802" cy="134.541" r="1" fill="rgb(0,0,0)" />
	<circle cx="558.712" cy="749.129" r="1" fill="rgb(0,0,0)" />
	<circle cx="558.998" cy="603.824" r="1" fill="rgb(0,0,0)" />
	<circle cx="559.953" cy="646.212" r="1" fill="rgb(0,0,0)" />
	<circle cx="563.485" cy="753.234" r="1" fill="rgb(0,0,0)" />
	<circle cx="563.676" cy="415.318" r="1" fill="rgb(0,0,0)" />
	<circle cx="564.201" cy="273.45" r="1" fill="rgb(0,0,0)" />
	<circle cx="564.44" cy="802.401" r="1" fill="rgb(0,0,0)" />
	<circle cx="565.06" cy="377.369" r="1" fill="rgb(0,0,0)" />
	<circle cx="565.204" cy="613.514" r="1" fill="rgb(0,0,0)" />
	<circle cx="565.824" cy="52.4369" r="1" fill="rgb(0,0,0)" />
	<circle cx="568.784" cy="305.098" r="1" fill="rgb(0,0,0)" />
	<circle cx="568.927" cy="593.322" r="1" fill="rgb(0,0,0)" />
	<circle cx="571.075" cy="156.07" r="1" fill="rgb(0,0,0)" />
	<circle cx="571.6" cy="1018.78" r="1" fill="rgb(0,0,0)" />
	<circle cx="571.648" cy="974.39" r="1" fill="rgb(0,0,0)" />
	<circle cx="573.509" cy="268.199" r="1" fill="rgb(0,0,0)" />
	<circle cx="574.178" cy="67.6166" r="1" fill="rgb(0,0,0)" />
	<circle cx="576.612" cy="604.778" r="1" fill="rgb(0,0,0)" />
	<circle cx="580.765" cy="98.0238" r="1" fill="rgb(0,0,0)" />
	<circle cx="581.72" cy="72.5333" r="1" fill="rgb(0,0,0)" />
	<circle cx="583.677" cy="810.946" r="1" fill="rgb(0,0,0)" />
	<circle cx="584.918" cy="1003.65" r="1" fill="rgb(0,0,0)" />
	<circle cx="585.968" cy="860.876" r="1" fill="rgb(0,0,0)" />
	<circle cx="586.064" cy="648.504" r="1" fill="rgb(0,0,0)" />
	<circle cx="590.36" cy="928.899" r="1" fill="rgb(0,0,0)" />
	<circle cx="594.417" cy="142.274" r="1" fill="rgb(0,0,0)" />
	<circle cx="595.038" cy="747.792" r="1" fill="rgb(0,0,0)" />
	<circle cx="595.086" cy="473.412" r="1" fill="rgb(0,0,0)" />
	<circle cx="597.759" cy="363.001" r="1" fill="rgb(0,0,0)" />
	<circle cx="598.523" cy="396.654" r="1" fill="rgb(0,0,0)" />
	<circle cx="598.952" cy="560.194" r="1" fill="rgb(0,0,0)" />
	<circle cx="598.952" cy="530.932" r="1" fill="rgb(0,0,0)" />
	<circle cx="600.002" cy="701.823" r="1" fill="rgb(0,0,0)" />
	<circle cx="600.623" cy="297.079" r="1" fill="rgb(0,0,0)" />
	<circle cx="600.862" cy="1040.74" r="1" fill="rgb(0,0,0)" />
	<circle cx="601.53" cy="657.43" r="1" fill="rgb(0,0,0)" />
	<circle cx="602.723" cy="701.919" r="1" fill="rgb(0,0,0)" />
	<circle cx="606.828" cy="216.788" r="1" fill="rgb(0,0,0)" />
	<circle cx="609.263" cy="756.957" r="1" fill="rgb(0,0,0)" />
	<circle cx="612.509" cy="206.955" r="1" fill="rgb(0,0,0)" />
	<circle cx="613.559" cy="82.7963" r="1" fill="rgb(0,0,0)" />
	<circle cx="614.227" cy="85.5172" r="1" fill="rgb(0,0,0)" />
	<circle cx="614.323" cy="544.394" r="1" fill="rgb(0,0,0)" />
	<circle cx="614.752" cy="307.007" r="1" fill="rgb(0,0,0)" />
	<circle cx="616.232" cy="160.748" r="1" fill="rgb(0,0,0)" />
	<circle cx="617.092" cy="976.681" r="1" fill="rgb(0,0,0)" />
	<circle cx="617.808" cy="244.045" r="1" fill="rgb(0,0,0)" />
	<circle cx="618.571" cy="788.988" r="1" fill="rgb(0,0,0)" />
	<circle cx="622.342" cy="544.107" r="1" fill="rgb(0,0,0)" />
	<circle cx="623.393" cy="250.012" r="1" fill="rgb(0,0,0)" />
	<circle cx="623.965" cy="674.233" r="1" fill="rgb(0,0,0)" />
	<circle cx="625.063" cy="89.5747" r="1" fill="rgb(0,0,0)" />
	<circle cx="627.02" cy="186.095" r="1" fill="rgb(0,0,0)" />
	<circle cx="628.5" cy="583.25" r="1" fill="rgb(0,0,0)" />
	<circle cx="628.596" cy="444.055" r="1" fill="rgb(0,0,0)" />
	<circle cx="629.694" cy="342.475" r="1" fill="rgb(0,0,0)" />
	<circle cx="629.98" cy="770.657" r="1" fill="rgb(0,0,0)" />
	<circle cx="630.791" cy="440.474" r="1" fill="rgb(0,0,0)" />
	<circle cx="633.846" cy="746.694" r="1" fill="rgb(0,0,0)" />
	<circle cx="634.849" cy="199.27" r="1" fill="rgb(0,0,0)" />
	<circle cx="635.279" cy="736.765" r="1" fill="rgb(0,0,0)" />
	<circle cx="636.997" cy="838.823" r="1" fill="rgb(0,0,0)" />
	<circle cx="637.999" cy="755.621" r="1" fill="rgb(0,0,0)" />
	<circle cx="639.575" cy="560.528" r="1" fill="rgb(0,0,0)" />
	<circle cx="640.338" cy="52.8665" r="1" fill="rgb(0,0,0)" />
	<circle cx="641.341" cy="191.107" r="1" fill="rgb(0,0,0)" />
	<circle cx="641.866" cy="818.631" r="1" fill="rgb(0,0,0)" />
	<circle cx="642.105" cy="917.538" r="1" fill="rgb(0,0,0)" />
	<circle cx="646.496" cy="728.412" r="1" fill="rgb(0,0,0)" />
	<circle cx="647.165" cy="321.71" r="1" fill="rgb(0,0,0)" />
	<circle cx="647.308" cy="179.46" r="1" fill="rgb(0,0,0)" />
	<circle cx="649.933" cy="560.671" r="1" fill="rgb(0,0,0)" />
	<circle cx="657.093" cy="981.407" r="1" fill="rgb(0,0,0)" />
	<circle cx="657.571" cy="604.062" r="1" fill="rgb(0,0,0)" />
	<circle cx="660.912" cy="51.3867" r="1" fill="rgb(0,0,0)" />
	<circle cx="667.118" cy="354.074" r="1" fill="rgb(0,0,0)" />
	<circle cx="674.23" cy="586.114" r="1" fill="rgb(0,0,0)" />
	<circle cx="674.803" cy="557.521" r="1" fill="rgb(0,0,0)" />
	<circle cx="677.954" cy="738.579" r="1" fill="rgb(0,0,0)" />
	<circle cx="678.67" cy="489.928" r="1" fill="rgb(0,0,0)" />
	<circle cx="681.486" cy="834.097" r="1" fill="rgb(0,0,0)" />
	<circle cx="681.486" cy="731.753" r="1" fill="rgb(0,0,0)" />
	<circle cx="681.868" cy="432.98" r="1" fill="rgb(0,0,0)" />
	<circle cx="682.011" cy="105.566" r="1" fill="rgb(0,0,0)" />
	<circle cx="683.539" cy="690.367" r="1" fill="rgb(0,0,0)" />
	<circle cx="684.016" cy="383.527" r="1" fill="rgb(0,0,0)" />
	<circle cx="685.496" cy="180.653" r="1" fill="rgb(0,0,0)" />
	<circle cx="685.591" cy="703.303" r="1" fill="rgb(0,0,0)" />
	<circle cx="687.882" cy="601.055" r="1" fill="rgb(0,0,0)" />
	<circle cx="688.694" cy="375.507" r="1" fill="rgb(0,0,0)" />
	<circle cx="691.033" cy="231.586" r="1" fill="rgb(0,0,0)" />
	<circle cx="692.417" cy="924.03" r="1" fill="rgb(0,0,0)" />
	<circle cx="692.513" cy="839.873" r="1" fill="rgb(0,0,0)" />
	<circle cx="694.518" cy="932.097" r="1" fill="rgb(0,0,0)" />
	<circle cx="694.9" cy="477.756" r="1" fill="rgb(0,0,0)" />
	<circle cx="695.711" cy="408.301" r="1" fill="rgb(0,0,0)" />
	<circle cx="697.477" cy="522.817" r="1" fill="rgb(0,0,0)" />
	<circle cx="699.53" cy="416.559" r="1" fill="rgb(0,0,0)" />
	<circle cx="700.198" cy="602.821" r="1" fill="rgb(0,0,0)" />
	<circle cx="701.105" cy="547.21" r="1" fill="rgb(0,0,0)" />
	<circle cx="708.599" cy="221.18" r="1" fill="rgb(0,0,0)" />
	<circle cx="710.413" cy="1048.71" r="1" fill="rgb(0,0,0)" />
	<circle cx="712.466" cy="105.757" r="1" fill="rgb(0,0,0)" />
	<circle cx="716.667" cy="900.162" r="1" fill="rgb(0,0,0)" />
	<circle cx="718.672" cy="1025.13" r="1" fill="rgb(0,0,0)" />
	<circle cx="722.013" cy="634.565" r="1" fill="rgb(0,0,0)" />
	<circle cx="722.872" cy="727.887" r="1" fill="rgb(0,0,0)" />
	<circle cx="723.206" cy="158.599" r="1" fill="rgb(0,0,0)" />
	<circle cx="723.254" cy="76.8294" r="1" fill="rgb(0,0,0)" />
	<circle cx="725.259" cy="112.678" r="1" fill="rgb(0,0,0)" />
	<circle cx="726.023" cy="608.454" r="1" fill="rgb(0,0,0)" />
	<circle cx="726.834" cy="800.301" r="1" fill="rgb(0,0,0)" />
	<circle cx="728.982" cy="508.067" r="1" fill="rgb(0,0,0)" />
	<circle cx="729.746" cy="216.788" r="1" fill="rgb(0,0,0)" />
	<circle cx="731.799" cy="812.282" r="1" fill="rgb(0,0,0)" />
	<circle cx="732.849" cy="830.087" r="1" fill="rgb(0,0,0)" />
	<circle cx="735.713" cy="63.6069" r="1" fill="rgb(0,0,0)" />
	<circle cx="736.668" cy="926.13" r="1" fill="rgb(0,0,0)" />
	<circle cx="737.479" cy="966.514" r="1" fill="rgb(0,0,0)" />
	<circle cx="738.768" cy="142.704" r="1" fill="rgb(0,0,0)" />
	<circle cx="745.355" cy="312.02" r="1" fill="rgb(0,0,0)" />
	<circle cx="745.451" cy="455.559" r="1" fill="rgb(0,0,0)" />
	<circle cx="747.79" cy="860.781" r="1" fill="rgb(0,0,0)" />
	<circle cx="747.981" cy="100.411" r="1" fill="rgb(0,0,0)" />
	<circle cx="750.081" cy="635.949" r="1" fill="rgb(0,0,0)" />
	<circle cx="753.232" cy="196.358" r="1" fill="rgb(0,0,0)" />
	<circle cx="753.423" cy="745.406" r="1" fill="rgb(0,0,0)" />
	<circle cx="761.824" cy="863.406" r="1" fill="rgb(0,0,0)" />
	<circle cx="762.826" cy="372.739" r="1" fill="rgb(0,0,0)" />
	<circle cx="762.874" cy="210.917" r="1" fill="rgb(0,0,0)" />
	<circle cx="764.784" cy="929.472" r="1" fill="rgb(0,0,0)" />
	<circle cx="764.784" cy="896.487" r="1" fill="rgb(0,0,0)" />
	<circle cx="768.22" cy="124.994" r="1" fill="rgb(0,0,0)" />
	<circle cx="768.841" cy="342.045" r="1" fill="rgb(0,0,0)" />
	<circle cx="768.889" cy="632.417" r="1" fill="rgb(0,0,0)" />
	<circle cx="770.082" cy="528.689" r="1" fill="rgb(0,0,0)" />
	<circle cx="773.853" cy="866.08" r="1" fill="rgb(0,0,0)" />
	<circle cx="775.094" cy="1001.5" r="1" fill="rgb(0,0,0)" />
	<circle cx="776.956" cy="213.399" r="1" fill="rgb(0,0,0)" />
	<circle cx="779.199" cy="842.833" r="1" fill="rgb(0,0,0)" />
	<circle cx="781.061" cy="703.446" r="1" fill="rgb(0,0,0)" />
	<circle cx="783.209" cy="726.502" r="1" fill="rgb(0,0,0)" />
	<circle cx="784.88" cy="918.54" r="1" fill="rgb(0,0,0)" />
	<circle cx="785.882" cy="458.518" r="1" fill="rgb(0,0,0)" />
	<circle cx="788.556" cy="466.204" r="1" fill="rgb(0,0,0)" />
	<circle cx="788.556" cy="202.325" r="1" fill="rgb(0,0,0)" />
	<circle cx="789.081" cy="131.725" r="1" fill="rgb(0,0,0)" />
	<circle cx="796.957" cy="382.62" r="1" fill="rgb(0,0,0)" />
	<circle cx="797.912" cy="957.635" r="1" fill="rgb(0,0,0)" />
	<circle cx="797.959" cy="781.923" r="1" fill="rgb(0,0,0)" />
	<circle cx="799.582" cy="673.994" r="1" fill="rgb(0,0,0)" />
	<circle cx="800.012" cy="215.547" r="1" fill="rgb(0,0,0)" />
	<circle cx="800.632" cy="904.554" r="1" fill="rgb(0,0,0)" />
	<circle cx="805.931" cy="647.358" r="1" fill="rgb(0,0,0)" />
	<circle cx="806.217" cy="407.681" r="1" fill="rgb(0,0,0)" />
	<circle cx="806.552" cy="241.515" r="1" fill="rgb(0,0,0)" />
	<circle cx="806.743" cy="767.984" r="1" fill="rgb(0,0,0)" />
	<circle cx="808.461" cy="197.408" r="1" fill="rgb(0,0,0)" />
	<circle cx="811.564" cy="569.311" r="1" fill="rgb(0,0,0)" />
	<circle cx="811.707" cy="666.929" r="1" fill="rgb(0,0,0)" />
	<circle cx="811.707" cy="374.696" r="1" fill="rgb(0,0,0)" />
	<circle cx="812.614" cy="763.306" r="1" fill="rgb(0,0,0)" />
	<circle cx="814.428" cy="414.029" r="1" fill="rgb(0,0,0)" />
	<circle cx="815.239" cy="396.892" r="1" fill="rgb(0,0,0)" />
	<circle cx="816.003" cy="830.612" r="1" fill="rgb(0,0,0)" />
	<circle cx="816.433" cy="430.211" r="1" fill="rgb(0,0,0)" />
	<circle cx="819.631" cy="709.652" r="1" fill="rgb(0,0,0)" />
	<circle cx="821.302" cy="439.949" r="1" fill="rgb(0,0,0)" />
	<circle cx="821.684" cy="713.9" r="1" fill="rgb(0,0,0)" />
	<circle cx="821.731" cy="1020.93" r="1" fill="rgb(0,0,0)" />
	<circle cx="823.211" cy="359.802" r="1" fill="rgb(0,0,0)" />
	<circle cx="828.319" cy="476.992" r="1" fill="rgb(0,0,0)" />
	<circle cx="828.653" cy="726.741" r="1" fill="rgb(0,0,0)" />
	<circle cx="828.748" cy="396.892" r="1" fill="rgb(0,0,0)" />
	<circle cx="829.273" cy="688.124" r="1" fill="rgb(0,0,0)" />
	<circle cx="830.324" cy="817.629" r="1" fill="rgb(0,0,0)" />
	<circle cx="833.045" cy="553.941" r="1" fill="rgb(0,0,0)" />
	<circle cx="837.341" cy="753.234" r="1" fill="rgb(0,0,0)" />
	<circle cx="839.918" cy="1021.65" r="1" fill="rgb(0,0,0)" />
	<circle cx="840.778" cy="713.757" r="1" fill="rgb(0,0,0)" />
	<circle cx="841.303" cy="447.253" r="1" fill="rgb(0,0,0)" />
	<circle cx="842.401" cy="179.221" r="1" fill="rgb(0,0,0)" />
	<circle cx="844.262" cy="513.032" r="1" fill="rgb(0,0,0)" />
	<circle cx="847.031" cy="334.932" r="1" fill="rgb(0,0,0)" />
	<circle cx="848.415" cy="350.16" r="1" fill="rgb(0,0,0)" />
	<circle cx="848.654" cy="108.048" r="1" fill="rgb(0,0,0)" />
	<circle cx="849.227" cy="958.017" r="1" fill="rgb(0,0,0)" />
	<circle cx="851.804" cy="101.079" r="1" fill="rgb(0,0,0)" />
	<circle cx="852.807" cy="591.174" r="1" fill="rgb(0,0,0)" />
	<circle cx="854.907" cy="620.006" r="1" fill="rgb(0,0,0)" />
	<circle cx="855.289" cy="891.475" r="1" fill="rgb(0,0,0)" />
	<circle cx="856.864" cy="580.195" r="1" fill="rgb(0,0,0)" />
	<circle cx="857.676" cy="84.8012" r="1" fill="rgb(0,0,0)" />
	<circle cx="862.402" cy="97.6419" r="1" fill="rgb(0,0,0)" />
	<circle cx="862.831" cy="646.546" r="1" fill="rgb(0,0,0)" />
	<circle cx="862.927" cy="626.45" r="1" fill="rgb(0,0,0)" />
	<circle cx="863.786" cy="491.264" r="1" fill="rgb(0,0,0)" />
	<circle cx="865.743" cy="152.107" r="1" fill="rgb(0,0,0)" />
	<circle cx="866.936" cy="760.442" r="1" fill="rgb(0,0,0)" />
	<circle cx="867.032" cy="765.454" r="1" fill="rgb(0,0,0)" />
	<circle cx="867.366" cy="983.889" r="1" fill="rgb(0,0,0)" />
	<circle cx="867.414" cy="873.478" r="1" fill="rgb(0,0,0)" />
	<circle cx="868.082" cy="895.771" r="1" fill="rgb(0,0,0)" />
	<circle cx="869.132" cy="698.243" r="1" fill="rgb(0,0,0)" />
	<circle cx="869.132" cy="101.938" r="1" fill="rgb(0,0,0)" />
	<circle cx="870.182" cy="316.459" r="1" fill="rgb(0,0,0)" />
	<circle cx="871.614" cy="873.097" r="1" fill="rgb(0,0,0)" />
	<circle cx="874.669" cy="654.948" r="1" fill="rgb(0,0,0)" />
	<circle cx="875.29" cy="103.131" r="1" fill="rgb(0,0,0)" />
	<circle cx="877.199" cy="460.666" r="1" fill="rgb(0,0,0)" />
	<circle cx="879.825" cy="328.822" r="1" fill="rgb(0,0,0)" />
	<circle cx="880.207" cy="572.987" r="1" fill="rgb(0,0,0)" />
	<circle cx="880.398" cy="377.703" r="1" fill="rgb(0,0,0)" />
	<circle cx="885.553" cy="1002.6" r="1" fill="rgb(0,0,0)" />
	<circle cx="886.365" cy="458.709" r="1" fill="rgb(0,0,0)" />
	<circle cx="888.704" cy="597.475" r="1" fill="rgb(0,0,0)" />
	<circle cx="891.615" cy="720.345" r="1" fill="rgb(0,0,0)" />
	<circle cx="893.716" cy="462.862" r="1" fill="rgb(0,0,0)" />
	<circle cx="895.864" cy="571.364" r="1" fill="rgb(0,0,0)" />
	<circle cx="899.253" cy="573.082" r="1" fill="rgb(0,0,0)" />
	<circle cx="902.213" cy="339.276" r="1" fill="rgb(0,0,0)" />
	<circle cx="903.215" cy="300.325" r="1" fill="rgb(0,0,0)" />
	<circle cx="903.836" cy="259.989" r="1" fill="rgb(0,0,0)" />
	<circle cx="904.599" cy="65.8027" r="1" fill="rgb(0,0,0)" />
	<circle cx="905.124" cy="523.438" r="1" fill="rgb(0,0,0)" />
	<circle cx="905.172" cy="656.046" r="1" fill="rgb(0,0,0)" />
	<circle cx="906.7" cy="57.8309" r="1" fill="rgb(0,0,0)" />
	<circle cx="907.607" cy="323.046" r="1" fill="rgb(0,0,0)" />
	<circle cx="907.607" cy="247.577" r="1" fill="rgb(0,0,0)" />
	<circle cx="909.755" cy="683.302" r="1" fill="rgb(0,0,0)" />
	<circle cx="911.043" cy="1049.05" r="1" fill="rgb(0,0,0)" />
	<circle cx="911.664" cy="816.626" r="1" fill="rgb(0,0,0)" />
	<circle cx="911.76" cy="956.824" r="1" fill="rgb(0,0,0)" />
	<circle cx="913.383" cy="918.493" r="1" fill="rgb(0,0,0)" />
	<circle cx="918.92" cy="864.647" r="1" fill="rgb(0,0,0)" />
	<circle cx="919.063" cy="150.866" r="1" fill="rgb(0,0,0)" />
	<circle cx="923.932" cy="328.918" r="1" fill="rgb(0,0,0)" />
	<circle cx="927.751" cy="447.492" r="1" fill="rgb(0,0,0)" />
	<circle cx="928.419" cy="657.764" r="1" fill="rgb(0,0,0)" />
	<circle cx="930.519" cy="458.28" r="1" fill="rgb(0,0,0)" />
	<circle cx="931.522" cy="686.262" r="1" fill="rgb(0,0,0)" />
	<circle cx="935.627" cy="515.084" r="1" fill="rgb(0,0,0)" />
	<circle cx="941.117" cy="142.179" r="1" fill="rgb(0,0,0)" />
	<circle cx="943.026" cy="271.827" r="1" fill="rgb(0,0,0)" />
	<circle cx="943.36" cy="804.645" r="1" fill="rgb(0,0,0)" />
	<circle cx="943.456" cy="659.244" r="1" fill="rgb(0,0,0)" />
	<circle cx="944.028" cy="151.917" r="1" fill="rgb(0,0,0)" />
	<circle cx="946.176" cy="699.675" r="1" fill="rgb(0,0,0)" />
	<circle cx="946.654" cy="555.468" r="1" fill="rgb(0,0,0)" />
	<circle cx="946.892" cy="843.93" r="1" fill="rgb(0,0,0)" />
	<circle cx="947.465" cy="135.591" r="1" fill="rgb(0,0,0)" />
	<circle cx="948.993" cy="503.867" r="1" fill="rgb(0,0,0)" />
	<circle cx="952.525" cy="714.426" r="1" fill="rgb(0,0,0)" />
	<circle cx="953.384" cy="62.5567" r="1" fill="rgb(0,0,0)" />
	<circle cx="953.671" cy="566.59" r="1" fill="rgb(0,0,0)" />
	<circle cx="955.342" cy="308.487" r="1" fill="rgb(0,0,0)" />
	<circle cx="956.058" cy="1004.08" r="1" fill="rgb(0,0,0)" />
	<circle cx="956.535" cy="515.466" r="1" fill="rgb(0,0,0)" />
	<circle cx="956.535" cy="324.669" r="1" fill="rgb(0,0,0)" />
	<circle cx="956.774" cy="627.5" r="1" fill="rgb(0,0,0)" />
	<circle cx="959.017" cy="133.777" r="1" fill="rgb(0,0,0)" />
	<circle cx="960.449" cy="929.328" r="1" fill="rgb(0,0,0)" />
	<circle cx="962.168" cy="174.495" r="1" fill="rgb(0,0,0)" />
	<circle cx="963.886" cy="846.699" r="1" fill="rgb(0,0,0)" />
	<circle cx="965.366" cy="322.378" r="1" fill="rgb(0,0,0)" />
	<circle cx="966.225" cy="781.541" r="1" fill="rgb(0,0,0)" />
	<circle cx="968.373" cy="932.622" r="1" fill="rgb(0,0,0)" />
	<circle cx="968.421" cy="306.53" r="1" fill="rgb(0,0,0)" />
	<circle cx="972.097" cy="121.366" r="1" fill="rgb(0,0,0)" />
	<circle cx="972.813" cy="353.549" r="1" fill="rgb(0,0,0)" />
	<circle cx="973.481" cy="383.765" r="1" fill="rgb(0,0,0)" />
	<circle cx="975.677" cy="648.504" r="1" fill="rgb(0,0,0)" />
	<circle cx="975.915" cy="689.46" r="1" fill="rgb(0,0,0)" />
	<circle cx="976.202" cy="762.972" r="1" fill="rgb(0,0,0)" />
	<circle cx="976.345" cy="386.677" r="1" fill="rgb(0,0,0)" />
	<circle cx="980.832" cy="667.788" r="1" fill="rgb(0,0,0)" />
	<circle cx="981.071" cy="667.502" r="1" fill="rgb(0,0,0)" />
	<circle cx="984.173" cy="745.692" r="1" fill="rgb(0,0,0)" />
	<circle cx="985.987" cy="706.597" r="1" fill="rgb(0,0,0)" />
	<circle cx="987.849" cy="493.222" r="1" fill="rgb(0,0,0)" />
	<circle cx="989.281" cy="305.241" r="1" fill="rgb(0,0,0)" />
	<circle cx="989.806" cy="315.218" r="1" fill="rgb(0,0,0)" />
	<circle cx="993.577" cy="982.266" r="1" fill="rgb(0,0,0)" />
	<circle cx="995.916" cy="91.866" r="1" fill="rgb(0,0,0)" />
	<circle cx="997.301" cy="897.823" r="1" fill="rgb(0,0,0)" />
	<circle cx="1001.6" cy="244.236" r="1" fill="rgb(0,0,0)" />
	<circle cx="1002.84" cy="173.015" r="1" fill="rgb(0,0,0)" />
	<circle cx="1003.79" cy="515.18" r="1" fill="rgb(0,0,0)" />
	<circle cx="1004.32" cy="618.43" r="1" fill="rgb(0,0,0)" />
	<circle cx="1004.7" cy="881.307" r="1" fill="rgb(0,0,0)" />
	<circle cx="1006.7" cy="600.053" r="1" fill="rgb(0,0,0)" />
	<circle cx="1009.52" cy="368.967" r="1" fill="rgb(0,0,0)" />
	<circle cx="1011.62" cy="663.11" r="1" fill="rgb(0,0,0)" />
	<circle cx="1012.05" cy="652.131" r="1" fill="rgb(0,0,0)" />
	<circle cx="1013.72" cy="52.2937" r="1" fill="rgb(0,0,0)" />
	<circle cx="1015.2" cy="975.631" r="1" fill="rgb(0,0,0)" />
	<circle cx="1015.58" cy="343" r="1" fill="rgb(0,0,0)" />
	<circle cx="1020.93" cy="200.702" r="1" fill="rgb(0,0,0)" />
	<circle cx="1023.94" cy="530.741" r="1" fill="rgb(0,0,0)" />
	<circle cx="1025.27" cy="904.363" r="1" fill="rgb(0,0,0)" />
	<circle cx="1027.95" cy="556.9" r="1" fill="rgb(0,0,0)" />
	<circle cx="1030.09" cy="866.08" r="1" fill="rgb(0,0,0)" />
	<circle cx="1030.33" cy="548.26" r="1" fill="rgb(0,0,0)" />
	<circle cx="1031.43" cy="1032.58" r="1" fill="rgb(0,0,0)" />
	<circle cx="1032.1" cy="105.279" r="1" fill="rgb(0,0,0)" />
	<circle cx="1033.48" cy="276.839" r="1" fill="rgb(0,0,0)" />
	<circle cx="1034.15" cy="244.904" r="1" fill="rgb(0,0,0)" />
	<circle cx="1034.2" cy="903.217" r="1" fill="rgb(0,0,0)" />
	<circle cx="1034.77" cy="123.896" r="1" fill="rgb(0,0,0)" />
	<circle cx="1035.11" cy="1012.2" r="1" fill="rgb(0,0,0)" />
	<circle cx="1035.3" cy="437.085" r="1" fill="rgb(0,0,0)" />
	<circle cx="1036.3" cy="695.761" r="1" fill="rgb(0,0,0)" />
	<circle cx="1036.92" cy="887.226" r="1" fill="rgb(0,0,0)" />
	<circle cx="1038.93" cy="530.932" r="1" fill="rgb(0,0,0)" />
	<circle cx="1040.12" cy="765.836" r="1" fill="rgb(0,0,0)" />
	<circle cx="1040.45" cy="504.153" r="1" fill="rgb(0,0,0)" />
	<circle cx="1044.65" cy="450.069" r="1" fill="rgb(0,0,0)" />
	<circle cx="1046.71" cy="640.245" r="1" fill="rgb(0,0,0)" />
	<circle cx="1047.33" cy="941.31" r="1" fill="rgb(0,0,0)" />
	<circle cx="1048" cy="736.861" r="1" fill="rgb(0,0,0)" />
	<circle cx="1049.38" cy="621.629" r="1" fill="rgb(0,0,0)" />
	<circle cx="1050" cy="835.959" r="1" fill="rgb(0,0,0)" />
</svg>
