<?xml version="1.0" standalone="no" ?>
<!DOCTYPE svg PUBLIC "-//W3C//DTD SVG 1.1//EN" "http://www.w3.org/Graphics/SVG/1.1/DTD/svg11.dtd">
<svg width="1100px" height="1075.79px" xmlns="http://www.w3.org/2000/svg" version="1.1" >
	<circle cx="50" cy="999.802" r="1" fill="rgb(0,0,0)" />
	<circle cx="64.6727" cy="1017.86" r="1" fill="rgb(0,0,0)" />
	<circle cx="122.235" cy="977.229" r="1" fill="rgb(0,0,0)" />
	<circle cx="171.896" cy="122.827" r="1" fill="rgb(0,0,0)" />
	<circle cx="192.777" cy="747.545" r="1" fill="rgb(0,0,0)" />
	<circle cx="193.341" cy="441.676" r="1" fill="rgb(0,0,0)" />
	<circle cx="229.458" cy="877.906" r="1" fill="rgb(0,0,0)" />
	<circle cx="257.111" cy="590.66" r="1" fill="rgb(0,0,0)" />
	<circle cx="270.655" cy="96.3036" r="1" fill="rgb(0,0,0)" />
	<circle cx="285.327" cy="741.902" r="1" fill="rgb(0,0,0)" />
	<circle cx="303.95" cy="941.112" r="1" fill="rgb(0,0,0)" />
	<circle cx="311.851" cy="820.909" r="1" fill="rgb(0,0,0)" />
	<circle cx="322.573" cy="455.22" r="1" fill="rgb(0,0,0)" />
	<circle cx="329.91" cy="351.947" r="1" fill="rgb(0,0,0)" />
	<circle cx="332.167" cy="921.924" r="1" fill="rgb(0,0,0)" />
	<circle cx="375.621" cy="713.685" r="1" fill="rgb(0,0,0)" />
	<circle cx="381.264" cy="982.872" r="1" fill="rgb(0,0,0)" />
	<circle cx="408.916" cy="205.784" r="1" fill="rgb(0,0,0)" />
	<circle cx="420.767" cy="884.678" r="1" fill="rgb(0,0,0)" />
	<circle cx="430.926" cy="450.141" r="1" fill="rgb(0,0,0)" />
	<circle cx="448.984" cy="708.042" r="1" fill="rgb(0,0,0)" />
	<circle cx="469.3" cy="148.222" r="1" fill="rgb(0,0,0)" />
	<circle cx="472.686" cy="809.622" r="1" fill="rgb(0,0,0)" />
	<circle cx="495.824" cy="360.412" r="1" fill="rgb(0,0,0)" />
	<circle cx="499.774" cy="696.755" r="1" fill="rgb(0,0,0)" />
	<circle cx="508.239" cy="956.913" r="1" fill="rgb(0,0,0)" />
	<circle cx="557.901" cy="770.119" r="1" fill="rgb(0,0,0)" />
	<circle cx="559.594" cy="797.207" r="1" fill="rgb(0,0,0)" />
	<circle cx="560.158" cy="766.168" r="1" fill="rgb(0,0,0)" />
	<circle cx="581.603" cy="864.362" r="1" fill="rgb(0,0,0)" />
	<circle cx="612.641" cy="893.143" r="1" fill="rgb(0,0,0)" />
	<circle cx="623.363" cy="915.717" r="1" fill="rgb(0,0,0)" />
	<circle cx="626.749" cy="549.464" r="1" fill="rgb(0,0,0)" />
	<circle cx="653.837" cy="450.705" r="1" fill="rgb(0,0,0)" />
	<circle cx="663.995" cy="885.243" r="1" fill="rgb(0,0,0)" />
	<circle cx="669.639" cy="689.983" r="1" fill="rgb(0,0,0)" />
	<circle cx="678.104" cy="339.532" r="1" fill="rgb(0,0,0)" />
	<circle cx="701.806" cy="48.8995" r="1" fill="rgb(0,0,0)" />
	<circle cx="714.221" cy="79.3736" r="1" fill="rgb(0,0,0)" />
	<circle cx="736.23" cy="449.012" r="1" fill="rgb(0,0,0)" />
	<circle cx="738.488" cy="920.796" r="1" fill="rgb(0,0,0)" />
	<circle cx="755.418" cy="590.096" r="1" fill="rgb(0,0,0)" />
	<circle cx="761.625" cy="616.62" r="1" fill="rgb(0,0,0)" />
	<circle cx="771.219" cy="632.421" r="1" fill="rgb(0,0,0)" />
	<circle cx="784.199" cy="175.875" r="1" fill="rgb(0,0,0)" />
	<circle cx="789.278" cy="171.36" r="1" fill="rgb(0,0,0)" />
	<circle cx="793.792" cy="859.848" r="1" fill="rgb(0,0,0)" />
	<circle cx="818.623" cy="247.545" r="1" fill="rgb(0,0,0)" />
	<circle cx="857.562" cy="529.148" r="1" fill="rgb(0,0,0)" />
	<circle cx="876.749" cy="741.902" r="1" fill="rgb(0,0,0)" />
	<circle cx="885.214" cy="130.728" r="1" fill="rgb(0,0,0)" />
	<circle cx="918.51" cy="302.286" r="1" fill="rgb(0,0,0)" />
	<circle cx="922.46" cy="815.265" r="1" fill="rgb(0,0,0)" />
	<circle cx="936.005" cy="281.97" r="1" fill="rgb(0,0,0)" />
	<circle cx="955.192" cy="642.579" r="1" fill="rgb(0,0,0)" />
	<circle cx="966.479" cy="1026.89" r="1" fill="rgb(0,0,0)" />
	<circle cx="979.458" cy="927.003" r="1" fill="rgb(0,0,0)" />
	<circle cx="998.081" cy="950.141" r="1" fill="rgb(0,0,0)" />
	<circle cx="1022.35" cy="365.491" r="1" fill="rgb(0,0,0)" />
	<circle cx="1050" cy="531.405" r="1" fill="rgb(0,0,0)" />
</svg>
