<?xml version="1.0" standalone="no" ?>
<!DOCTYPE svg PUBLIC "-//W3C//DTD SVG 1.1//EN" "http://www.w3.org/Graphics/SVG/1.1/DTD/svg11.dtd">
<svg width="1100px" height="1135.62px" xmlns="http://www.w3.org/2000/svg" version="1.1" >
	<circle cx="50" cy="459.483" r="1" fill="rgb(0,0,0)" />
	<circle cx="80.0694" cy="333.038" r="1" fill="rgb(0,0,0)" />
	<circle cx="87.7795" cy="633.732" r="1" fill="rgb(0,0,0)" />
	<circle cx="100.116" cy="147.224" r="1" fill="rgb(0,0,0)" />
	<circle cx="102.429" cy="307.594" r="1" fill="rgb(0,0,0)" />
	<circle cx="111.681" cy="490.324" r="1" fill="rgb(0,0,0)" />
	<circle cx="120.933" cy="124.094" r="1" fill="rgb(0,0,0)" />
	<circle cx="139.437" cy="778.682" r="1" fill="rgb(0,0,0)" />
	<circle cx="148.689" cy="449.46" r="1" fill="rgb(0,0,0)" />
	<circle cx="156.399" cy="308.365" r="1" fill="rgb(0,0,0)" />
	<circle cx="193.408" cy="363.878" r="1" fill="rgb(0,0,0)" />
	<circle cx="223.477" cy="1039.28" r="1" fill="rgb(0,0,0)" />
	<circle cx="228.874" cy="533.5" r="1" fill="rgb(0,0,0)" />
	<circle cx="261.257" cy="814.148" r="1" fill="rgb(0,0,0)" />
	<circle cx="275.906" cy="829.568" r="1" fill="rgb(0,0,0)" />
	<circle cx="299.807" cy="700.81" r="1" fill="rgb(0,0,0)" />
	<circle cx="315.998" cy="469.507" r="1" fill="rgb(0,0,0)" />
	<circle cx="316.769" cy="940.594" r="1" fill="rgb(0,0,0)" />
	<circle cx="322.938" cy="1084" r="1" fill="rgb(0,0,0)" />
	<circle cx="396.184" cy="645.297" r="1" fill="rgb(0,0,0)" />
	<circle cx="430.108" cy="931.342" r="1" fill="rgb(0,0,0)" />
	<circle cx="440.902" cy="259.792" r="1" fill="rgb(0,0,0)" />
	<circle cx="451.696" cy="360.023" r="1" fill="rgb(0,0,0)" />
	<circle cx="455.551" cy="397.032" r="1" fill="rgb(0,0,0)" />
	<circle cx="460.177" cy="848.843" r="1" fill="rgb(0,0,0)" />
	<circle cx="477.911" cy="454.857" r="1" fill="rgb(0,0,0)" />
	<circle cx="477.911" cy="51.6191" r="1" fill="rgb(0,0,0)" />
	<circle cx="486.392" cy="390.093" r="1" fill="rgb(0,0,0)" />
	<circle cx="520.316" cy="1056.25" r="1" fill="rgb(0,0,0)" />
	<circle cx="607.44" cy="186.546" r="1" fill="rgb(0,0,0)" />
	<circle cx="663.724" cy="208.134" r="1" fill="rgb(0,0,0)" />
	<circle cx="679.144" cy="558.944" r="1" fill="rgb(0,0,0)" />
	<circle cx="682.228" cy="309.136" r="1" fill="rgb(0,0,0)" />
	<circle cx="731.573" cy="698.497" r="1" fill="rgb(0,0,0)" />
	<circle cx="746.222" cy="383.153" r="1" fill="rgb(0,0,0)" />
	<circle cx="786.315" cy="1067.81" r="1" fill="rgb(0,0,0)" />
	<circle cx="821.781" cy="723.169" r="1" fill="rgb(0,0,0)" />
	<circle cx="836.43" cy="232.035" r="1" fill="rgb(0,0,0)" />
	<circle cx="848.766" cy="502.66" r="1" fill="rgb(0,0,0)" />
	<circle cx="881.92" cy="782.537" r="1" fill="rgb(0,0,0)" />
	<circle cx="922.012" cy="862.722" r="1" fill="rgb(0,0,0)" />
	<circle cx="942.83" cy="796.415" r="1" fill="rgb(0,0,0)" />
	<circle cx="952.082" cy="565.112" r="1" fill="rgb(0,0,0)" />
	<circle cx="952.853" cy="675.366" r="1" fill="rgb(0,0,0)" />
	<circle cx="1050" cy="872.745" r="1" fill="rgb(0,0,0)" />
</svg>
