<?xml version="1.0" standalone="no" ?>
<!DOCTYPE svg PUBLIC "-//W3C//DTD SVG 1.1//EN" "http://www.w3.org/Graphics/SVG/1.1/DTD/svg11.dtd">
<svg width="1100px" height="1103.13px" xmlns="http://www.w3.org/2000/svg" version="1.1" >
	<circle cx="50" cy="305.426" r="1" fill="rgb(0,0,0)" />
	<circle cx="52.0632" cy="794.357" r="1" fill="rgb(0,0,0)" />
	<circle cx="52.119" cy="445.726" r="1" fill="rgb(0,0,0)" />
	<circle cx="52.3978" cy="680.154" r="1" fill="rgb(0,0,0)" />
	<circle cx="59.0894" cy="773.446" r="1" fill="rgb(0,0,0)" />
	<circle cx="59.3682" cy="1052.99" r="1" fill="rgb(0,0,0)" />
	<circle cx="62.2679" cy="688.964" r="1" fill="rgb(0,0,0)" />
	<circle cx="65.7252" cy="591.825" r="1" fill="rgb(0,0,0)" />
	<circle cx="66.4501" cy="640.06" r="1" fill="rgb(0,0,0)" />
	<circle cx="67.6769" cy="513.032" r="1" fill="rgb(0,0,0)" />
	<circle cx="70.1305" cy="251.391" r="1" fill="rgb(0,0,0)" />
	<circle cx="71.5803" cy="1035.64" r="1" fill="rgb(0,0,0)" />
	<circle cx="71.6361" cy="924.508" r="1" fill="rgb(0,0,0)" />
	<circle cx="74.3685" cy="309.496" r="1" fill="rgb(0,0,0)" />
	<circle cx="74.3685" cy="87.7265" r="1" fill="rgb(0,0,0)" />
	<circle cx="77.6585" cy="181.464" r="1" fill="rgb(0,0,0)" />
	<circle cx="78.1046" cy="636.101" r="1" fill="rgb(0,0,0)" />
	<circle cx="79.2199" cy="737.59" r="1" fill="rgb(0,0,0)" />
	<circle cx="79.4429" cy="152.914" r="1" fill="rgb(0,0,0)" />
	<circle cx="83.0118" cy="328.289" r="1" fill="rgb(0,0,0)" />
	<circle cx="83.7924" cy="1023.21" r="1" fill="rgb(0,0,0)" />
	<circle cx="84.8519" cy="977.706" r="1" fill="rgb(0,0,0)" />
	<circle cx="86.3576" cy="838.075" r="1" fill="rgb(0,0,0)" />
	<circle cx="87.5843" cy="330.798" r="1" fill="rgb(0,0,0)" />
	<circle cx="92.8818" cy="973.747" r="1" fill="rgb(0,0,0)" />
	<circle cx="93.2164" cy="805.956" r="1" fill="rgb(0,0,0)" />
	<circle cx="93.9413" cy="694.15" r="1" fill="rgb(0,0,0)" />
	<circle cx="95.0008" cy="86.1094" r="1" fill="rgb(0,0,0)" />
	<circle cx="95.8373" cy="257.916" r="1" fill="rgb(0,0,0)" />
	<circle cx="96.7853" cy="761.066" r="1" fill="rgb(0,0,0)" />
	<circle cx="101.748" cy="641.566" r="1" fill="rgb(0,0,0)" />
	<circle cx="102.083" cy="94.2508" r="1" fill="rgb(0,0,0)" />
	<circle cx="103.811" cy="430.558" r="1" fill="rgb(0,0,0)" />
	<circle cx="106.153" cy="647.7" r="1" fill="rgb(0,0,0)" />
	<circle cx="106.377" cy="531.378" r="1" fill="rgb(0,0,0)" />
	<circle cx="108.997" cy="612.959" r="1" fill="rgb(0,0,0)" />
	<circle cx="111.284" cy="287.86" r="1" fill="rgb(0,0,0)" />
	<circle cx="111.395" cy="995.662" r="1" fill="rgb(0,0,0)" />
	<circle cx="116.748" cy="651.994" r="1" fill="rgb(0,0,0)" />
	<circle cx="117.919" cy="246.261" r="1" fill="rgb(0,0,0)" />
	<circle cx="117.975" cy="932.984" r="1" fill="rgb(0,0,0)" />
	<circle cx="118.644" cy="560.096" r="1" fill="rgb(0,0,0)" />
	<circle cx="121.154" cy="976.591" r="1" fill="rgb(0,0,0)" />
	<circle cx="121.6" cy="713.668" r="1" fill="rgb(0,0,0)" />
	<circle cx="123.105" cy="836.123" r="1" fill="rgb(0,0,0)" />
	<circle cx="125.447" cy="506.117" r="1" fill="rgb(0,0,0)" />
	<circle cx="128.291" cy="455.986" r="1" fill="rgb(0,0,0)" />
	<circle cx="128.905" cy="969.899" r="1" fill="rgb(0,0,0)" />
	<circle cx="129.407" cy="256.075" r="1" fill="rgb(0,0,0)" />
	<circle cx="130.522" cy="789.059" r="1" fill="rgb(0,0,0)" />
	<circle cx="131.693" cy="485.541" r="1" fill="rgb(0,0,0)" />
	<circle cx="132.028" cy="824.079" r="1" fill="rgb(0,0,0)" />
	<circle cx="135.819" cy="727.664" r="1" fill="rgb(0,0,0)" />
	<circle cx="137.827" cy="575.487" r="1" fill="rgb(0,0,0)" />
	<circle cx="139.388" cy="788.446" r="1" fill="rgb(0,0,0)" />
	<circle cx="141.73" cy="746.289" r="1" fill="rgb(0,0,0)" />
	<circle cx="141.898" cy="707.143" r="1" fill="rgb(0,0,0)" />
	<circle cx="142.009" cy="680.767" r="1" fill="rgb(0,0,0)" />
	<circle cx="145.466" cy="314.961" r="1" fill="rgb(0,0,0)" />
	<circle cx="147.53" cy="321.318" r="1" fill="rgb(0,0,0)" />
	<circle cx="147.641" cy="313.065" r="1" fill="rgb(0,0,0)" />
	<circle cx="150.987" cy="760.118" r="1" fill="rgb(0,0,0)" />
	<circle cx="156.508" cy="171.706" r="1" fill="rgb(0,0,0)" />
	<circle cx="157.679" cy="655.73" r="1" fill="rgb(0,0,0)" />
	<circle cx="157.734" cy="587.476" r="1" fill="rgb(0,0,0)" />
	<circle cx="158.069" cy="340.668" r="1" fill="rgb(0,0,0)" />
	<circle cx="158.404" cy="442.547" r="1" fill="rgb(0,0,0)" />
	<circle cx="158.794" cy="450.633" r="1" fill="rgb(0,0,0)" />
	<circle cx="159.296" cy="876.496" r="1" fill="rgb(0,0,0)" />
	<circle cx="159.686" cy="796.81" r="1" fill="rgb(0,0,0)" />
	<circle cx="162.14" cy="280.221" r="1" fill="rgb(0,0,0)" />
	<circle cx="164.593" cy="584.074" r="1" fill="rgb(0,0,0)" />
	<circle cx="164.984" cy="206.446" r="1" fill="rgb(0,0,0)" />
	<circle cx="169.222" cy="694.318" r="1" fill="rgb(0,0,0)" />
	<circle cx="170.225" cy="447.008" r="1" fill="rgb(0,0,0)" />
	<circle cx="170.727" cy="720.471" r="1" fill="rgb(0,0,0)" />
	<circle cx="172.01" cy="1033.58" r="1" fill="rgb(0,0,0)" />
	<circle cx="172.623" cy="715.396" r="1" fill="rgb(0,0,0)" />
	<circle cx="172.902" cy="82.5406" r="1" fill="rgb(0,0,0)" />
	<circle cx="175.802" cy="587.42" r="1" fill="rgb(0,0,0)" />
	<circle cx="177.084" cy="168.472" r="1" fill="rgb(0,0,0)" />
	<circle cx="177.251" cy="845.715" r="1" fill="rgb(0,0,0)" />
	<circle cx="178.144" cy="624.948" r="1" fill="rgb(0,0,0)" />
	<circle cx="179.538" cy="1026.33" r="1" fill="rgb(0,0,0)" />
	<circle cx="183.218" cy="446.116" r="1" fill="rgb(0,0,0)" />
	<circle cx="183.441" cy="593.833" r="1" fill="rgb(0,0,0)" />
	<circle cx="186.285" cy="56.1088" r="1" fill="rgb(0,0,0)" />
	<circle cx="190.635" cy="524.408" r="1" fill="rgb(0,0,0)" />
	<circle cx="194.371" cy="226.075" r="1" fill="rgb(0,0,0)" />
	<circle cx="196.936" cy="520.894" r="1" fill="rgb(0,0,0)" />
	<circle cx="196.992" cy="545.486" r="1" fill="rgb(0,0,0)" />
	<circle cx="197.047" cy="279.05" r="1" fill="rgb(0,0,0)" />
	<circle cx="197.326" cy="336.374" r="1" fill="rgb(0,0,0)" />
	<circle cx="198.999" cy="216.707" r="1" fill="rgb(0,0,0)" />
	<circle cx="200.059" cy="712.497" r="1" fill="rgb(0,0,0)" />
	<circle cx="200.114" cy="620.097" r="1" fill="rgb(0,0,0)" />
	<circle cx="202.624" cy="226.019" r="1" fill="rgb(0,0,0)" />
	<circle cx="203.906" cy="1013.34" r="1" fill="rgb(0,0,0)" />
	<circle cx="204.297" cy="320.649" r="1" fill="rgb(0,0,0)" />
	<circle cx="204.854" cy="945.642" r="1" fill="rgb(0,0,0)" />
	<circle cx="205.746" cy="1045.57" r="1" fill="rgb(0,0,0)" />
	<circle cx="206.081" cy="224.346" r="1" fill="rgb(0,0,0)" />
	<circle cx="206.248" cy="929.136" r="1" fill="rgb(0,0,0)" />
	<circle cx="207.531" cy="129.883" r="1" fill="rgb(0,0,0)" />
	<circle cx="210.486" cy="634.54" r="1" fill="rgb(0,0,0)" />
	<circle cx="211.713" cy="397.268" r="1" fill="rgb(0,0,0)" />
	<circle cx="211.713" cy="192.84" r="1" fill="rgb(0,0,0)" />
	<circle cx="211.992" cy="838.298" r="1" fill="rgb(0,0,0)" />
	<circle cx="214.557" cy="999.007" r="1" fill="rgb(0,0,0)" />
	<circle cx="215.338" cy="103.396" r="1" fill="rgb(0,0,0)" />
	<circle cx="215.561" cy="700.786" r="1" fill="rgb(0,0,0)" />
	<circle cx="217.568" cy="809.97" r="1" fill="rgb(0,0,0)" />
	<circle cx="220.858" cy="1015.79" r="1" fill="rgb(0,0,0)" />
	<circle cx="221.75" cy="931.255" r="1" fill="rgb(0,0,0)" />
	<circle cx="222.475" cy="219.885" r="1" fill="rgb(0,0,0)" />
	<circle cx="224.092" cy="366.821" r="1" fill="rgb(0,0,0)" />
	<circle cx="226.992" cy="551.731" r="1" fill="rgb(0,0,0)" />
	<circle cx="227.494" cy="447.789" r="1" fill="rgb(0,0,0)" />
	<circle cx="235.078" cy="368.828" r="1" fill="rgb(0,0,0)" />
	<circle cx="236.137" cy="791.401" r="1" fill="rgb(0,0,0)" />
	<circle cx="239.037" cy="778.799" r="1" fill="rgb(0,0,0)" />
	<circle cx="239.483" cy="208.063" r="1" fill="rgb(0,0,0)" />
	<circle cx="239.706" cy="916.868" r="1" fill="rgb(0,0,0)" />
	<circle cx="239.873" cy="266.224" r="1" fill="rgb(0,0,0)" />
	<circle cx="242.383" cy="414.22" r="1" fill="rgb(0,0,0)" />
	<circle cx="244.613" cy="97.7081" r="1" fill="rgb(0,0,0)" />
	<circle cx="245.171" cy="83.154" r="1" fill="rgb(0,0,0)" />
	<circle cx="246.286" cy="113.991" r="1" fill="rgb(0,0,0)" />
	<circle cx="247.401" cy="848.391" r="1" fill="rgb(0,0,0)" />
	<circle cx="248.126" cy="882.686" r="1" fill="rgb(0,0,0)" />
	<circle cx="252.699" cy="728.389" r="1" fill="rgb(0,0,0)" />
	<circle cx="253.703" cy="907.11" r="1" fill="rgb(0,0,0)" />
	<circle cx="256.324" cy="58.9528" r="1" fill="rgb(0,0,0)" />
	<circle cx="256.435" cy="852.964" r="1" fill="rgb(0,0,0)" />
	<circle cx="256.602" cy="141.538" r="1" fill="rgb(0,0,0)" />
	<circle cx="263.629" cy="429.945" r="1" fill="rgb(0,0,0)" />
	<circle cx="264.465" cy="957.297" r="1" fill="rgb(0,0,0)" />
	<circle cx="269.093" cy="79.3063" r="1" fill="rgb(0,0,0)" />
	<circle cx="269.372" cy="353.605" r="1" fill="rgb(0,0,0)" />
	<circle cx="270.209" cy="201.929" r="1" fill="rgb(0,0,0)" />
	<circle cx="277.346" cy="110.589" r="1" fill="rgb(0,0,0)" />
	<circle cx="279.465" cy="763.464" r="1" fill="rgb(0,0,0)" />
	<circle cx="282.365" cy="908.225" r="1" fill="rgb(0,0,0)" />
	<circle cx="282.476" cy="283.622" r="1" fill="rgb(0,0,0)" />
	<circle cx="285.209" cy="469.091" r="1" fill="rgb(0,0,0)" />
	<circle cx="289.558" cy="278.269" r="1" fill="rgb(0,0,0)" />
	<circle cx="290.004" cy="666.994" r="1" fill="rgb(0,0,0)" />
	<circle cx="291.287" cy="741.215" r="1" fill="rgb(0,0,0)" />
	<circle cx="293.462" cy="729.895" r="1" fill="rgb(0,0,0)" />
	<circle cx="295.469" cy="253.399" r="1" fill="rgb(0,0,0)" />
	<circle cx="296.306" cy="228.361" r="1" fill="rgb(0,0,0)" />
	<circle cx="300.711" cy="1001.29" r="1" fill="rgb(0,0,0)" />
	<circle cx="301.492" cy="383.717" r="1" fill="rgb(0,0,0)" />
	<circle cx="302.997" cy="138.248" r="1" fill="rgb(0,0,0)" />
	<circle cx="305.005" cy="177.951" r="1" fill="rgb(0,0,0)" />
	<circle cx="305.116" cy="530.318" r="1" fill="rgb(0,0,0)" />
	<circle cx="307.737" cy="618.591" r="1" fill="rgb(0,0,0)" />
	<circle cx="308.518" cy="1010.27" r="1" fill="rgb(0,0,0)" />
	<circle cx="309.187" cy="562.549" r="1" fill="rgb(0,0,0)" />
	<circle cx="309.466" cy="818.558" r="1" fill="rgb(0,0,0)" />
	<circle cx="309.912" cy="573.981" r="1" fill="rgb(0,0,0)" />
	<circle cx="314.206" cy="223.621" r="1" fill="rgb(0,0,0)" />
	<circle cx="315.711" cy="161.78" r="1" fill="rgb(0,0,0)" />
	<circle cx="315.767" cy="468.31" r="1" fill="rgb(0,0,0)" />
	<circle cx="318.388" cy="598.74" r="1" fill="rgb(0,0,0)" />
	<circle cx="318.499" cy="270.853" r="1" fill="rgb(0,0,0)" />
	<circle cx="321.455" cy="97.0947" r="1" fill="rgb(0,0,0)" />
	<circle cx="325.247" cy="137.467" r="1" fill="rgb(0,0,0)" />
	<circle cx="326.418" cy="800.379" r="1" fill="rgb(0,0,0)" />
	<circle cx="326.641" cy="806.179" r="1" fill="rgb(0,0,0)" />
	<circle cx="327.868" cy="787.386" r="1" fill="rgb(0,0,0)" />
	<circle cx="327.868" cy="274.198" r="1" fill="rgb(0,0,0)" />
	<circle cx="329.485" cy="988.803" r="1" fill="rgb(0,0,0)" />
	<circle cx="330.6" cy="205.275" r="1" fill="rgb(0,0,0)" />
	<circle cx="331.046" cy="591.546" r="1" fill="rgb(0,0,0)" />
	<circle cx="331.325" cy="977.539" r="1" fill="rgb(0,0,0)" />
	<circle cx="332.384" cy="848.335" r="1" fill="rgb(0,0,0)" />
	<circle cx="333.555" cy="197.914" r="1" fill="rgb(0,0,0)" />
	<circle cx="333.723" cy="50.1422" r="1" fill="rgb(0,0,0)" />
	<circle cx="338.017" cy="523.571" r="1" fill="rgb(0,0,0)" />
	<circle cx="343.983" cy="165.962" r="1" fill="rgb(0,0,0)" />
	<circle cx="345.21" cy="982.502" r="1" fill="rgb(0,0,0)" />
	<circle cx="347.664" cy="312.731" r="1" fill="rgb(0,0,0)" />
	<circle cx="347.831" cy="528.757" r="1" fill="rgb(0,0,0)" />
	<circle cx="348.444" cy="598.461" r="1" fill="rgb(0,0,0)" />
	<circle cx="348.723" cy="980.717" r="1" fill="rgb(0,0,0)" />
	<circle cx="350.452" cy="554.854" r="1" fill="rgb(0,0,0)" />
	<circle cx="350.675" cy="272.191" r="1" fill="rgb(0,0,0)" />
	<circle cx="351.455" cy="91.9088" r="1" fill="rgb(0,0,0)" />
	<circle cx="354.69" cy="91.5742" r="1" fill="rgb(0,0,0)" />
	<circle cx="355.136" cy="491.396" r="1" fill="rgb(0,0,0)" />
	<circle cx="356.641" cy="923.671" r="1" fill="rgb(0,0,0)" />
	<circle cx="358.593" cy="803.725" r="1" fill="rgb(0,0,0)" />
	<circle cx="359.987" cy="950.438" r="1" fill="rgb(0,0,0)" />
	<circle cx="360.21" cy="212.747" r="1" fill="rgb(0,0,0)" />
	<circle cx="363.166" cy="685.061" r="1" fill="rgb(0,0,0)" />
	<circle cx="364.058" cy="873.875" r="1" fill="rgb(0,0,0)" />
	<circle cx="364.169" cy="659.075" r="1" fill="rgb(0,0,0)" />
	<circle cx="366.567" cy="133.452" r="1" fill="rgb(0,0,0)" />
	<circle cx="367.013" cy="255.797" r="1" fill="rgb(0,0,0)" />
	<circle cx="369.411" cy="587.587" r="1" fill="rgb(0,0,0)" />
	<circle cx="372.032" cy="428.272" r="1" fill="rgb(0,0,0)" />
	<circle cx="372.422" cy="727.441" r="1" fill="rgb(0,0,0)" />
	<circle cx="373.036" cy="395.427" r="1" fill="rgb(0,0,0)" />
	<circle cx="374.541" cy="411.487" r="1" fill="rgb(0,0,0)" />
	<circle cx="374.597" cy="163.007" r="1" fill="rgb(0,0,0)" />
	<circle cx="375.768" cy="464.462" r="1" fill="rgb(0,0,0)" />
	<circle cx="376.326" cy="971.516" r="1" fill="rgb(0,0,0)" />
	<circle cx="377.999" cy="156.259" r="1" fill="rgb(0,0,0)" />
	<circle cx="379.002" cy="161.501" r="1" fill="rgb(0,0,0)" />
	<circle cx="379.56" cy="477.511" r="1" fill="rgb(0,0,0)" />
	<circle cx="385.192" cy="918.541" r="1" fill="rgb(0,0,0)" />
	<circle cx="385.192" cy="755.49" r="1" fill="rgb(0,0,0)" />
	<circle cx="388.259" cy="445.67" r="1" fill="rgb(0,0,0)" />
	<circle cx="394.226" cy="569.297" r="1" fill="rgb(0,0,0)" />
	<circle cx="395.787" cy="93.9162" r="1" fill="rgb(0,0,0)" />
	<circle cx="396.456" cy="258.585" r="1" fill="rgb(0,0,0)" />
	<circle cx="396.847" cy="878.671" r="1" fill="rgb(0,0,0)" />
	<circle cx="399.189" cy="1047.52" r="1" fill="rgb(0,0,0)" />
	<circle cx="400.304" cy="789.227" r="1" fill="rgb(0,0,0)" />
	<circle cx="401.252" cy="1014.68" r="1" fill="rgb(0,0,0)" />
	<circle cx="401.698" cy="311.225" r="1" fill="rgb(0,0,0)" />
	<circle cx="405.601" cy="57.8375" r="1" fill="rgb(0,0,0)" />
	<circle cx="406.159" cy="547.94" r="1" fill="rgb(0,0,0)" />
	<circle cx="407.553" cy="556.36" r="1" fill="rgb(0,0,0)" />
	<circle cx="409.226" cy="483.254" r="1" fill="rgb(0,0,0)" />
	<circle cx="410.397" cy="166.854" r="1" fill="rgb(0,0,0)" />
	<circle cx="411.958" cy="967.167" r="1" fill="rgb(0,0,0)" />
	<circle cx="412.349" cy="166.018" r="1" fill="rgb(0,0,0)" />
	<circle cx="415.862" cy="194.067" r="1" fill="rgb(0,0,0)" />
	<circle cx="417.2" cy="517.158" r="1" fill="rgb(0,0,0)" />
	<circle cx="418.148" cy="937.556" r="1" fill="rgb(0,0,0)" />
	<circle cx="421.048" cy="168.639" r="1" fill="rgb(0,0,0)" />
	<circle cx="422.33" cy="851.625" r="1" fill="rgb(0,0,0)" />
	<circle cx="423.223" cy="265.221" r="1" fill="rgb(0,0,0)" />
	<circle cx="423.557" cy="753.873" r="1" fill="rgb(0,0,0)" />
	<circle cx="425.509" cy="789.951" r="1" fill="rgb(0,0,0)" />
	<circle cx="425.788" cy="864.339" r="1" fill="rgb(0,0,0)" />
	<circle cx="426.401" cy="482.418" r="1" fill="rgb(0,0,0)" />
	<circle cx="427.293" cy="209.346" r="1" fill="rgb(0,0,0)" />
	<circle cx="427.851" cy="443.049" r="1" fill="rgb(0,0,0)" />
	<circle cx="428.13" cy="775.509" r="1" fill="rgb(0,0,0)" />
	<circle cx="430.472" cy="527.028" r="1" fill="rgb(0,0,0)" />
	<circle cx="431.085" cy="236.112" r="1" fill="rgb(0,0,0)" />
	<circle cx="432.702" cy="493.124" r="1" fill="rgb(0,0,0)" />
	<circle cx="434.319" cy="961.033" r="1" fill="rgb(0,0,0)" />
	<circle cx="434.487" cy="852.964" r="1" fill="rgb(0,0,0)" />
	<circle cx="434.654" cy="359.628" r="1" fill="rgb(0,0,0)" />
	<circle cx="437.052" cy="226.688" r="1" fill="rgb(0,0,0)" />
	<circle cx="439.561" cy="264.942" r="1" fill="rgb(0,0,0)" />
	<circle cx="441.123" cy="819.116" r="1" fill="rgb(0,0,0)" />
	<circle cx="441.569" cy="376.245" r="1" fill="rgb(0,0,0)" />
	<circle cx="441.847" cy="83.2655" r="1" fill="rgb(0,0,0)" />
	<circle cx="442.238" cy="1019.64" r="1" fill="rgb(0,0,0)" />
	<circle cx="445.361" cy="687.738" r="1" fill="rgb(0,0,0)" />
	<circle cx="449.71" cy="583.628" r="1" fill="rgb(0,0,0)" />
	<circle cx="451.494" cy="210.963" r="1" fill="rgb(0,0,0)" />
	<circle cx="451.662" cy="874.711" r="1" fill="rgb(0,0,0)" />
	<circle cx="452.052" cy="499.928" r="1" fill="rgb(0,0,0)" />
	<circle cx="452.777" cy="531.378" r="1" fill="rgb(0,0,0)" />
	<circle cx="461.086" cy="288.641" r="1" fill="rgb(0,0,0)" />
	<circle cx="461.643" cy="520.393" r="1" fill="rgb(0,0,0)" />
	<circle cx="462.368" cy="656.789" r="1" fill="rgb(0,0,0)" />
	<circle cx="462.424" cy="916.701" r="1" fill="rgb(0,0,0)" />
	<circle cx="469.283" cy="301.467" r="1" fill="rgb(0,0,0)" />
	<circle cx="473.186" cy="1050.48" r="1" fill="rgb(0,0,0)" />
	<circle cx="473.744" cy="424.257" r="1" fill="rgb(0,0,0)" />
	<circle cx="477.982" cy="55.3282" r="1" fill="rgb(0,0,0)" />
	<circle cx="478.372" cy="101.165" r="1" fill="rgb(0,0,0)" />
	<circle cx="484.729" cy="428.328" r="1" fill="rgb(0,0,0)" />
	<circle cx="485.343" cy="1026.94" r="1" fill="rgb(0,0,0)" />
	<circle cx="488.131" cy="962.315" r="1" fill="rgb(0,0,0)" />
	<circle cx="490.306" cy="990.364" r="1" fill="rgb(0,0,0)" />
	<circle cx="491.811" cy="928.579" r="1" fill="rgb(0,0,0)" />
	<circle cx="492.257" cy="756.884" r="1" fill="rgb(0,0,0)" />
	<circle cx="493.54" cy="189.383" r="1" fill="rgb(0,0,0)" />
	<circle cx="494.99" cy="630.859" r="1" fill="rgb(0,0,0)" />
	<circle cx="495.045" cy="499.704" r="1" fill="rgb(0,0,0)" />
	<circle cx="497.164" cy="56.1088" r="1" fill="rgb(0,0,0)" />
	<circle cx="499.451" cy="326.393" r="1" fill="rgb(0,0,0)" />
	<circle cx="499.451" cy="273.083" r="1" fill="rgb(0,0,0)" />
	<circle cx="499.506" cy="589.706" r="1" fill="rgb(0,0,0)" />
	<circle cx="500.901" cy="844.209" r="1" fill="rgb(0,0,0)" />
	<circle cx="502.964" cy="485.429" r="1" fill="rgb(0,0,0)" />
	<circle cx="505.696" cy="450.131" r="1" fill="rgb(0,0,0)" />
	<circle cx="510.101" cy="263.046" r="1" fill="rgb(0,0,0)" />
	<circle cx="511.663" cy="861.328" r="1" fill="rgb(0,0,0)" />
	<circle cx="512.109" cy="892.11" r="1" fill="rgb(0,0,0)" />
	<circle cx="513.559" cy="719.523" r="1" fill="rgb(0,0,0)" />
	<circle cx="513.726" cy="373.066" r="1" fill="rgb(0,0,0)" />
	<circle cx="525.827" cy="811.365" r="1" fill="rgb(0,0,0)" />
	<circle cx="525.938" cy="171.148" r="1" fill="rgb(0,0,0)" />
	<circle cx="527.109" cy="498.31" r="1" fill="rgb(0,0,0)" />
	<circle cx="529.674" cy="800.323" r="1" fill="rgb(0,0,0)" />
	<circle cx="530.288" cy="107.857" r="1" fill="rgb(0,0,0)" />
	<circle cx="531.905" cy="698.388" r="1" fill="rgb(0,0,0)" />
	<circle cx="532.072" cy="244.477" r="1" fill="rgb(0,0,0)" />
	<circle cx="532.741" cy="121.575" r="1" fill="rgb(0,0,0)" />
	<circle cx="532.853" cy="413.773" r="1" fill="rgb(0,0,0)" />
	<circle cx="533.466" cy="426.822" r="1" fill="rgb(0,0,0)" />
	<circle cx="534.916" cy="514.482" r="1" fill="rgb(0,0,0)" />
	<circle cx="537.37" cy="956.572" r="1" fill="rgb(0,0,0)" />
	<circle cx="537.481" cy="999.007" r="1" fill="rgb(0,0,0)" />
	<circle cx="537.593" cy="931.924" r="1" fill="rgb(0,0,0)" />
	<circle cx="539.154" cy="217.264" r="1" fill="rgb(0,0,0)" />
	<circle cx="550.139" cy="100.664" r="1" fill="rgb(0,0,0)" />
	<circle cx="550.697" cy="357.899" r="1" fill="rgb(0,0,0)" />
	<circle cx="551.533" cy="626.956" r="1" fill="rgb(0,0,0)" />
	<circle cx="552.035" cy="457.492" r="1" fill="rgb(0,0,0)" />
	<circle cx="553.206" cy="425.651" r="1" fill="rgb(0,0,0)" />
	<circle cx="553.931" cy="514.37" r="1" fill="rgb(0,0,0)" />
	<circle cx="555.102" cy="134.902" r="1" fill="rgb(0,0,0)" />
	<circle cx="558.337" cy="889.712" r="1" fill="rgb(0,0,0)" />
	<circle cx="558.337" cy="638.61" r="1" fill="rgb(0,0,0)" />
	<circle cx="559.117" cy="495.578" r="1" fill="rgb(0,0,0)" />
	<circle cx="559.396" cy="705.303" r="1" fill="rgb(0,0,0)" />
	<circle cx="561.292" cy="465.131" r="1" fill="rgb(0,0,0)" />
	<circle cx="562.184" cy="520.225" r="1" fill="rgb(0,0,0)" />
	<circle cx="564.024" cy="782.256" r="1" fill="rgb(0,0,0)" />
	<circle cx="568.095" cy="793.409" r="1" fill="rgb(0,0,0)" />
	<circle cx="571.999" cy="79.8082" r="1" fill="rgb(0,0,0)" />
	<circle cx="573.281" cy="936.943" r="1" fill="rgb(0,0,0)" />
	<circle cx="574.564" cy="325.891" r="1" fill="rgb(0,0,0)" />
	<circle cx="575.01" cy="646.585" r="1" fill="rgb(0,0,0)" />
	<circle cx="580.976" cy="838.521" r="1" fill="rgb(0,0,0)" />
	<circle cx="582.482" cy="960.085" r="1" fill="rgb(0,0,0)" />
	<circle cx="583.932" cy="733.798" r="1" fill="rgb(0,0,0)" />
	<circle cx="584.768" cy="309.273" r="1" fill="rgb(0,0,0)" />
	<circle cx="586.107" cy="407.082" r="1" fill="rgb(0,0,0)" />
	<circle cx="586.33" cy="487.437" r="1" fill="rgb(0,0,0)" />
	<circle cx="588.56" cy="890.66" r="1" fill="rgb(0,0,0)" />
	<circle cx="592.241" cy="450.912" r="1" fill="rgb(0,0,0)" />
	<circle cx="598.486" cy="690.916" r="1" fill="rgb(0,0,0)" />
	<circle cx="601.163" cy="539.129" r="1" fill="rgb(0,0,0)" />
	<circle cx="608.189" cy="525.355" r="1" fill="rgb(0,0,0)" />
	<circle cx="609.025" cy="824.134" r="1" fill="rgb(0,0,0)" />
	<circle cx="613.709" cy="754.375" r="1" fill="rgb(0,0,0)" />
	<circle cx="613.709" cy="244.309" r="1" fill="rgb(0,0,0)" />
	<circle cx="613.765" cy="340.947" r="1" fill="rgb(0,0,0)" />
	<circle cx="614.49" cy="603.089" r="1" fill="rgb(0,0,0)" />
	<circle cx="614.936" cy="293.102" r="1" fill="rgb(0,0,0)" />
	<circle cx="618.338" cy="695.712" r="1" fill="rgb(0,0,0)" />
	<circle cx="620.345" cy="223.9" r="1" fill="rgb(0,0,0)" />
	<circle cx="621.237" cy="600.803" r="1" fill="rgb(0,0,0)" />
	<circle cx="622.241" cy="258.473" r="1" fill="rgb(0,0,0)" />
	<circle cx="623.133" cy="734.021" r="1" fill="rgb(0,0,0)" />
	<circle cx="623.189" cy="605.487" r="1" fill="rgb(0,0,0)" />
	<circle cx="624.026" cy="690.47" r="1" fill="rgb(0,0,0)" />
	<circle cx="630.048" cy="466.47" r="1" fill="rgb(0,0,0)" />
	<circle cx="630.829" cy="358.958" r="1" fill="rgb(0,0,0)" />
	<circle cx="632.111" cy="218.212" r="1" fill="rgb(0,0,0)" />
	<circle cx="634.621" cy="282.173" r="1" fill="rgb(0,0,0)" />
	<circle cx="635.569" cy="692.087" r="1" fill="rgb(0,0,0)" />
	<circle cx="636.572" cy="489.611" r="1" fill="rgb(0,0,0)" />
	<circle cx="641.312" cy="1001.41" r="1" fill="rgb(0,0,0)" />
	<circle cx="642.093" cy="625.45" r="1" fill="rgb(0,0,0)" />
	<circle cx="642.372" cy="1000.29" r="1" fill="rgb(0,0,0)" />
	<circle cx="643.375" cy="200.591" r="1" fill="rgb(0,0,0)" />
	<circle cx="643.543" cy="816.383" r="1" fill="rgb(0,0,0)" />
	<circle cx="644.714" cy="537.846" r="1" fill="rgb(0,0,0)" />
	<circle cx="648.282" cy="332.192" r="1" fill="rgb(0,0,0)" />
	<circle cx="649.119" cy="396.766" r="1" fill="rgb(0,0,0)" />
	<circle cx="653.078" cy="658.239" r="1" fill="rgb(0,0,0)" />
	<circle cx="653.58" cy="422.194" r="1" fill="rgb(0,0,0)" />
	<circle cx="654.751" cy="774.84" r="1" fill="rgb(0,0,0)" />
	<circle cx="654.918" cy="797.535" r="1" fill="rgb(0,0,0)" />
	<circle cx="655.476" cy="713.11" r="1" fill="rgb(0,0,0)" />
	<circle cx="659.212" cy="1050.31" r="1" fill="rgb(0,0,0)" />
	<circle cx="660.104" cy="169.587" r="1" fill="rgb(0,0,0)" />
	<circle cx="663.896" cy="646.975" r="1" fill="rgb(0,0,0)" />
	<circle cx="664.9" cy="364.646" r="1" fill="rgb(0,0,0)" />
	<circle cx="665.402" cy="349.813" r="1" fill="rgb(0,0,0)" />
	<circle cx="667.186" cy="731.902" r="1" fill="rgb(0,0,0)" />
	<circle cx="671.145" cy="823.186" r="1" fill="rgb(0,0,0)" />
	<circle cx="672.149" cy="981.442" r="1" fill="rgb(0,0,0)" />
	<circle cx="672.763" cy="743.612" r="1" fill="rgb(0,0,0)" />
	<circle cx="673.822" cy="1017.63" r="1" fill="rgb(0,0,0)" />
	<circle cx="673.878" cy="254.737" r="1" fill="rgb(0,0,0)" />
	<circle cx="680.235" cy="978.877" r="1" fill="rgb(0,0,0)" />
	<circle cx="680.681" cy="128.712" r="1" fill="rgb(0,0,0)" />
	<circle cx="681.127" cy="877.277" r="1" fill="rgb(0,0,0)" />
	<circle cx="684.194" cy="559.371" r="1" fill="rgb(0,0,0)" />
	<circle cx="686.424" cy="158.769" r="1" fill="rgb(0,0,0)" />
	<circle cx="687.428" cy="283.399" r="1" fill="rgb(0,0,0)" />
	<circle cx="690.718" cy="876.496" r="1" fill="rgb(0,0,0)" />
	<circle cx="691.778" cy="232.432" r="1" fill="rgb(0,0,0)" />
	<circle cx="691.889" cy="93.5817" r="1" fill="rgb(0,0,0)" />
	<circle cx="692.726" cy="736.809" r="1" fill="rgb(0,0,0)" />
	<circle cx="695.514" cy="979.435" r="1" fill="rgb(0,0,0)" />
	<circle cx="695.848" cy="918.653" r="1" fill="rgb(0,0,0)" />
	<circle cx="696.071" cy="769.431" r="1" fill="rgb(0,0,0)" />
	<circle cx="697.131" cy="992.929" r="1" fill="rgb(0,0,0)" />
	<circle cx="698.023" cy="584.186" r="1" fill="rgb(0,0,0)" />
	<circle cx="705.663" cy="835.621" r="1" fill="rgb(0,0,0)" />
	<circle cx="705.886" cy="1014.29" r="1" fill="rgb(0,0,0)" />
	<circle cx="706.499" cy="356.505" r="1" fill="rgb(0,0,0)" />
	<circle cx="707.391" cy="343.902" r="1" fill="rgb(0,0,0)" />
	<circle cx="709.064" cy="838.912" r="1" fill="rgb(0,0,0)" />
	<circle cx="710.403" cy="817.443" r="1" fill="rgb(0,0,0)" />
	<circle cx="711.183" cy="803.39" r="1" fill="rgb(0,0,0)" />
	<circle cx="711.629" cy="803.39" r="1" fill="rgb(0,0,0)" />
	<circle cx="711.852" cy="732.906" r="1" fill="rgb(0,0,0)" />
	<circle cx="712.41" cy="940.791" r="1" fill="rgb(0,0,0)" />
	<circle cx="713.302" cy="619.093" r="1" fill="rgb(0,0,0)" />
	<circle cx="714.306" cy="859.098" r="1" fill="rgb(0,0,0)" />
	<circle cx="716.09" cy="582.903" r="1" fill="rgb(0,0,0)" />
	<circle cx="716.592" cy="465.354" r="1" fill="rgb(0,0,0)" />
	<circle cx="717.54" cy="810.417" r="1" fill="rgb(0,0,0)" />
	<circle cx="719.771" cy="997.223" r="1" fill="rgb(0,0,0)" />
	<circle cx="722.782" cy="852.852" r="1" fill="rgb(0,0,0)" />
	<circle cx="723.563" cy="348.419" r="1" fill="rgb(0,0,0)" />
	<circle cx="731.927" cy="157.821" r="1" fill="rgb(0,0,0)" />
	<circle cx="734.492" cy="1010.94" r="1" fill="rgb(0,0,0)" />
	<circle cx="734.66" cy="335.147" r="1" fill="rgb(0,0,0)" />
	<circle cx="735.161" cy="439.146" r="1" fill="rgb(0,0,0)" />
	<circle cx="735.384" cy="815.881" r="1" fill="rgb(0,0,0)" />
	<circle cx="735.998" cy="718.575" r="1" fill="rgb(0,0,0)" />
	<circle cx="735.998" cy="707.924" r="1" fill="rgb(0,0,0)" />
	<circle cx="736.946" cy="476.228" r="1" fill="rgb(0,0,0)" />
	<circle cx="738.284" cy="531.322" r="1" fill="rgb(0,0,0)" />
	<circle cx="743.191" cy="625.06" r="1" fill="rgb(0,0,0)" />
	<circle cx="743.247" cy="715.229" r="1" fill="rgb(0,0,0)" />
	<circle cx="748.154" cy="281.057" r="1" fill="rgb(0,0,0)" />
	<circle cx="749.27" cy="447.008" r="1" fill="rgb(0,0,0)" />
	<circle cx="749.66" cy="700.452" r="1" fill="rgb(0,0,0)" />
	<circle cx="750.162" cy="255.908" r="1" fill="rgb(0,0,0)" />
	<circle cx="750.775" cy="55.5512" r="1" fill="rgb(0,0,0)" />
	<circle cx="751.333" cy="704.801" r="1" fill="rgb(0,0,0)" />
	<circle cx="752.504" cy="107.299" r="1" fill="rgb(0,0,0)" />
	<circle cx="754.679" cy="581.899" r="1" fill="rgb(0,0,0)" />
	<circle cx="754.846" cy="900.976" r="1" fill="rgb(0,0,0)" />
	<circle cx="755.571" cy="888.652" r="1" fill="rgb(0,0,0)" />
	<circle cx="755.794" cy="604.874" r="1" fill="rgb(0,0,0)" />
	<circle cx="756.128" cy="1045.79" r="1" fill="rgb(0,0,0)" />
	<circle cx="759.809" cy="953.784" r="1" fill="rgb(0,0,0)" />
	<circle cx="764.827" cy="522.4" r="1" fill="rgb(0,0,0)" />
	<circle cx="766.612" cy="614.409" r="1" fill="rgb(0,0,0)" />
	<circle cx="770.961" cy="466.525" r="1" fill="rgb(0,0,0)" />
	<circle cx="773.973" cy="431.785" r="1" fill="rgb(0,0,0)" />
	<circle cx="775.534" cy="337.991" r="1" fill="rgb(0,0,0)" />
	<circle cx="775.59" cy="230.48" r="1" fill="rgb(0,0,0)" />
	<circle cx="775.869" cy="346.802" r="1" fill="rgb(0,0,0)" />
	<circle cx="781.501" cy="417.287" r="1" fill="rgb(0,0,0)" />
	<circle cx="782.002" cy="425.874" r="1" fill="rgb(0,0,0)" />
	<circle cx="786.017" cy="861.607" r="1" fill="rgb(0,0,0)" />
	<circle cx="786.965" cy="848.782" r="1" fill="rgb(0,0,0)" />
	<circle cx="788.973" cy="924.285" r="1" fill="rgb(0,0,0)" />
	<circle cx="789.14" cy="111.203" r="1" fill="rgb(0,0,0)" />
	<circle cx="790.032" cy="254.347" r="1" fill="rgb(0,0,0)" />
	<circle cx="790.646" cy="519.054" r="1" fill="rgb(0,0,0)" />
	<circle cx="796.947" cy="728.556" r="1" fill="rgb(0,0,0)" />
	<circle cx="797.56" cy="723.649" r="1" fill="rgb(0,0,0)" />
	<circle cx="798.564" cy="105.403" r="1" fill="rgb(0,0,0)" />
	<circle cx="798.62" cy="383.94" r="1" fill="rgb(0,0,0)" />
	<circle cx="798.731" cy="609.167" r="1" fill="rgb(0,0,0)" />
	<circle cx="802.412" cy="840.194" r="1" fill="rgb(0,0,0)" />
	<circle cx="805.144" cy="499.537" r="1" fill="rgb(0,0,0)" />
	<circle cx="805.256" cy="504.723" r="1" fill="rgb(0,0,0)" />
	<circle cx="805.479" cy="444.834" r="1" fill="rgb(0,0,0)" />
	<circle cx="806.427" cy="534.612" r="1" fill="rgb(0,0,0)" />
	<circle cx="807.988" cy="930.865" r="1" fill="rgb(0,0,0)" />
	<circle cx="808.88" cy="814.989" r="1" fill="rgb(0,0,0)" />
	<circle cx="809.549" cy="515.764" r="1" fill="rgb(0,0,0)" />
	<circle cx="809.717" cy="409.48" r="1" fill="rgb(0,0,0)" />
	<circle cx="813.676" cy="821.346" r="1" fill="rgb(0,0,0)" />
	<circle cx="816.074" cy="1017.91" r="1" fill="rgb(0,0,0)" />
	<circle cx="821.26" cy="910.79" r="1" fill="rgb(0,0,0)" />
	<circle cx="823.267" cy="210.182" r="1" fill="rgb(0,0,0)" />
	<circle cx="827.059" cy="505.169" r="1" fill="rgb(0,0,0)" />
	<circle cx="830.405" cy="350.259" r="1" fill="rgb(0,0,0)" />
	<circle cx="832.747" cy="160.72" r="1" fill="rgb(0,0,0)" />
	<circle cx="833.249" cy="78.8602" r="1" fill="rgb(0,0,0)" />
	<circle cx="834.42" cy="61.1833" r="1" fill="rgb(0,0,0)" />
	<circle cx="835.368" cy="358.122" r="1" fill="rgb(0,0,0)" />
	<circle cx="835.424" cy="738.259" r="1" fill="rgb(0,0,0)" />
	<circle cx="836.037" cy="731.846" r="1" fill="rgb(0,0,0)" />
	<circle cx="836.818" cy="796.03" r="1" fill="rgb(0,0,0)" />
	<circle cx="837.264" cy="695.823" r="1" fill="rgb(0,0,0)" />
	<circle cx="839.215" cy="681.548" r="1" fill="rgb(0,0,0)" />
	<circle cx="843.844" cy="73.4512" r="1" fill="rgb(0,0,0)" />
	<circle cx="851.093" cy="971.293" r="1" fill="rgb(0,0,0)" />
	<circle cx="851.985" cy="277.265" r="1" fill="rgb(0,0,0)" />
	<circle cx="854.606" cy="153.415" r="1" fill="rgb(0,0,0)" />
	<circle cx="854.829" cy="693.202" r="1" fill="rgb(0,0,0)" />
	<circle cx="855.442" cy="823.577" r="1" fill="rgb(0,0,0)" />
	<circle cx="856.39" cy="161.947" r="1" fill="rgb(0,0,0)" />
	<circle cx="857.952" cy="172.654" r="1" fill="rgb(0,0,0)" />
	<circle cx="858.008" cy="823.688" r="1" fill="rgb(0,0,0)" />
	<circle cx="858.398" cy="358.735" r="1" fill="rgb(0,0,0)" />
	<circle cx="859.513" cy="511.08" r="1" fill="rgb(0,0,0)" />
	<circle cx="862.859" cy="934.88" r="1" fill="rgb(0,0,0)" />
	<circle cx="868.045" cy="1027.39" r="1" fill="rgb(0,0,0)" />
	<circle cx="868.603" cy="78.1353" r="1" fill="rgb(0,0,0)" />
	<circle cx="872.339" cy="960.141" r="1" fill="rgb(0,0,0)" />
	<circle cx="873.175" cy="1013.56" r="1" fill="rgb(0,0,0)" />
	<circle cx="873.789" cy="239.904" r="1" fill="rgb(0,0,0)" />
	<circle cx="873.956" cy="451.915" r="1" fill="rgb(0,0,0)" />
	<circle cx="874.904" cy="854.302" r="1" fill="rgb(0,0,0)" />
	<circle cx="878.361" cy="1000.29" r="1" fill="rgb(0,0,0)" />
	<circle cx="878.361" cy="687.013" r="1" fill="rgb(0,0,0)" />
	<circle cx="878.975" cy="865.845" r="1" fill="rgb(0,0,0)" />
	<circle cx="881.986" cy="670.507" r="1" fill="rgb(0,0,0)" />
	<circle cx="886.391" cy="856.31" r="1" fill="rgb(0,0,0)" />
	<circle cx="887.729" cy="210.684" r="1" fill="rgb(0,0,0)" />
	<circle cx="890.517" cy="865.399" r="1" fill="rgb(0,0,0)" />
	<circle cx="890.573" cy="871.812" r="1" fill="rgb(0,0,0)" />
	<circle cx="894.309" cy="673.295" r="1" fill="rgb(0,0,0)" />
	<circle cx="895.871" cy="753.092" r="1" fill="rgb(0,0,0)" />
	<circle cx="896.707" cy="490.782" r="1" fill="rgb(0,0,0)" />
	<circle cx="900.276" cy="230.424" r="1" fill="rgb(0,0,0)" />
	<circle cx="905.518" cy="365.706" r="1" fill="rgb(0,0,0)" />
	<circle cx="906.243" cy="253.733" r="1" fill="rgb(0,0,0)" />
	<circle cx="907.191" cy="245.536" r="1" fill="rgb(0,0,0)" />
	<circle cx="907.581" cy="1018.02" r="1" fill="rgb(0,0,0)" />
	<circle cx="909.365" cy="484.593" r="1" fill="rgb(0,0,0)" />
	<circle cx="910.146" cy="279.552" r="1" fill="rgb(0,0,0)" />
	<circle cx="910.481" cy="446.172" r="1" fill="rgb(0,0,0)" />
	<circle cx="912.098" cy="240.294" r="1" fill="rgb(0,0,0)" />
	<circle cx="916.503" cy="437.863" r="1" fill="rgb(0,0,0)" />
	<circle cx="918.176" cy="855.975" r="1" fill="rgb(0,0,0)" />
	<circle cx="918.399" cy="243.64" r="1" fill="rgb(0,0,0)" />
	<circle cx="922.972" cy="186.316" r="1" fill="rgb(0,0,0)" />
	<circle cx="923.529" cy="480.41" r="1" fill="rgb(0,0,0)" />
	<circle cx="923.92" cy="581.397" r="1" fill="rgb(0,0,0)" />
	<circle cx="924.756" cy="383.048" r="1" fill="rgb(0,0,0)" />
	<circle cx="925.314" cy="284.013" r="1" fill="rgb(0,0,0)" />
	<circle cx="925.704" cy="468.979" r="1" fill="rgb(0,0,0)" />
	<circle cx="926.206" cy="695.935" r="1" fill="rgb(0,0,0)" />
	<circle cx="926.596" cy="1036.59" r="1" fill="rgb(0,0,0)" />
	<circle cx="928.158" cy="712.162" r="1" fill="rgb(0,0,0)" />
	<circle cx="931.503" cy="576.323" r="1" fill="rgb(0,0,0)" />
	<circle cx="933.567" cy="354.274" r="1" fill="rgb(0,0,0)" />
	<circle cx="933.734" cy="560.598" r="1" fill="rgb(0,0,0)" />
	<circle cx="934.403" cy="1040.66" r="1" fill="rgb(0,0,0)" />
	<circle cx="937.303" cy="71.611" r="1" fill="rgb(0,0,0)" />
	<circle cx="939.756" cy="91.0166" r="1" fill="rgb(0,0,0)" />
	<circle cx="940.537" cy="991.981" r="1" fill="rgb(0,0,0)" />
	<circle cx="941.095" cy="482.92" r="1" fill="rgb(0,0,0)" />
	<circle cx="943.158" cy="425.986" r="1" fill="rgb(0,0,0)" />
	<circle cx="943.325" cy="881.124" r="1" fill="rgb(0,0,0)" />
	<circle cx="943.994" cy="1033.92" r="1" fill="rgb(0,0,0)" />
	<circle cx="945.221" cy="285.518" r="1" fill="rgb(0,0,0)" />
	<circle cx="946.392" cy="986.572" r="1" fill="rgb(0,0,0)" />
	<circle cx="946.727" cy="992.427" r="1" fill="rgb(0,0,0)" />
	<circle cx="947.396" cy="645.079" r="1" fill="rgb(0,0,0)" />
	<circle cx="948.846" cy="265.053" r="1" fill="rgb(0,0,0)" />
	<circle cx="950.072" cy="218.324" r="1" fill="rgb(0,0,0)" />
	<circle cx="950.296" cy="110.088" r="1" fill="rgb(0,0,0)" />
	<circle cx="950.351" cy="1032.58" r="1" fill="rgb(0,0,0)" />
	<circle cx="950.853" cy="750.192" r="1" fill="rgb(0,0,0)" />
	<circle cx="954.31" cy="802.108" r="1" fill="rgb(0,0,0)" />
	<circle cx="958.214" cy="213.863" r="1" fill="rgb(0,0,0)" />
	<circle cx="960.166" cy="992.929" r="1" fill="rgb(0,0,0)" />
	<circle cx="960.333" cy="377.249" r="1" fill="rgb(0,0,0)" />
	<circle cx="960.556" cy="699.615" r="1" fill="rgb(0,0,0)" />
	<circle cx="965.742" cy="782.145" r="1" fill="rgb(0,0,0)" />
	<circle cx="969.032" cy="272.581" r="1" fill="rgb(0,0,0)" />
	<circle cx="969.367" cy="124.14" r="1" fill="rgb(0,0,0)" />
	<circle cx="971.597" cy="1019.31" r="1" fill="rgb(0,0,0)" />
	<circle cx="973.27" cy="486.823" r="1" fill="rgb(0,0,0)" />
	<circle cx="974.999" cy="909.173" r="1" fill="rgb(0,0,0)" />
	<circle cx="976.616" cy="383.327" r="1" fill="rgb(0,0,0)" />
	<circle cx="979.85" cy="576.379" r="1" fill="rgb(0,0,0)" />
	<circle cx="985.036" cy="945.809" r="1" fill="rgb(0,0,0)" />
	<circle cx="985.426" cy="187.487" r="1" fill="rgb(0,0,0)" />
	<circle cx="985.482" cy="507.957" r="1" fill="rgb(0,0,0)" />
	<circle cx="985.482" cy="209.234" r="1" fill="rgb(0,0,0)" />
	<circle cx="986.207" cy="817.833" r="1" fill="rgb(0,0,0)" />
	<circle cx="986.486" cy="416.06" r="1" fill="rgb(0,0,0)" />
	<circle cx="986.876" cy="867.128" r="1" fill="rgb(0,0,0)" />
	<circle cx="987.936" cy="700.396" r="1" fill="rgb(0,0,0)" />
	<circle cx="988.828" cy="201.204" r="1" fill="rgb(0,0,0)" />
	<circle cx="992.564" cy="639.447" r="1" fill="rgb(0,0,0)" />
	<circle cx="993.456" cy="67.1499" r="1" fill="rgb(0,0,0)" />
	<circle cx="993.623" cy="435.688" r="1" fill="rgb(0,0,0)" />
	<circle cx="1000.54" cy="99.1022" r="1" fill="rgb(0,0,0)" />
	<circle cx="1002.6" cy="275.314" r="1" fill="rgb(0,0,0)" />
	<circle cx="1003.33" cy="736.029" r="1" fill="rgb(0,0,0)" />
	<circle cx="1006.84" cy="290.425" r="1" fill="rgb(0,0,0)" />
	<circle cx="1012.58" cy="513.701" r="1" fill="rgb(0,0,0)" />
	<circle cx="1019.27" cy="233.882" r="1" fill="rgb(0,0,0)" />
	<circle cx="1019.39" cy="385.557" r="1" fill="rgb(0,0,0)" />
	<circle cx="1020.33" cy="898.076" r="1" fill="rgb(0,0,0)" />
	<circle cx="1022.06" cy="251.28" r="1" fill="rgb(0,0,0)" />
	<circle cx="1022.9" cy="142.04" r="1" fill="rgb(0,0,0)" />
	<circle cx="1025.3" cy="713.779" r="1" fill="rgb(0,0,0)" />
	<circle cx="1027.92" cy="223.733" r="1" fill="rgb(0,0,0)" />
	<circle cx="1029.76" cy="581.342" r="1" fill="rgb(0,0,0)" />
	<circle cx="1031.54" cy="824.023" r="1" fill="rgb(0,0,0)" />
	<circle cx="1031.88" cy="1001.18" r="1" fill="rgb(0,0,0)" />
	<circle cx="1034.83" cy="199.699" r="1" fill="rgb(0,0,0)" />
	<circle cx="1035.84" cy="1018.69" r="1" fill="rgb(0,0,0)" />
	<circle cx="1036.28" cy="878.559" r="1" fill="rgb(0,0,0)" />
	<circle cx="1038.18" cy="376.803" r="1" fill="rgb(0,0,0)" />
	<circle cx="1040.8" cy="881.515" r="1" fill="rgb(0,0,0)" />
	<circle cx="1041.86" cy="470.819" r="1" fill="rgb(0,0,0)" />
	<circle cx="1047.6" cy="832.778" r="1" fill="rgb(0,0,0)" />
	<circle cx="1048.44" cy="77.8565" r="1" fill="rgb(0,0,0)" />
	<circle cx="1049.55" cy="1009.49" r="1" fill="rgb(0,0,0)" />
	<circle cx="1050" cy="209.29" r="1" fill="rgb(0,0,0)" />
</svg>
