<?xml version="1.0" standalone="no" ?>
<!DOCTYPE svg PUBLIC "-//W3C//DTD SVG 1.1//EN" "http://www.w3.org/Graphics/SVG/1.1/DTD/svg11.dtd">
<svg width="1100px" height="1129.7px" xmlns="http://www.w3.org/2000/svg" version="1.1" >
	<circle cx="50" cy="911.187" r="1" fill="rgb(0,0,0)" />
	<circle cx="51.7145" cy="1024.77" r="1" fill="rgb(0,0,0)" />
	<circle cx="66.7167" cy="864.038" r="1" fill="rgb(0,0,0)" />
	<circle cx="71.003" cy="554.136" r="1" fill="rgb(0,0,0)" />
	<circle cx="82.5761" cy="351.393" r="1" fill="rgb(0,0,0)" />
	<circle cx="88.5769" cy="374.111" r="1" fill="rgb(0,0,0)" />
	<circle cx="97.1496" cy="56.9224" r="1" fill="rgb(0,0,0)" />
	<circle cx="99.2928" cy="629.147" r="1" fill="rgb(0,0,0)" />
	<circle cx="103.579" cy="477.84" r="1" fill="rgb(0,0,0)" />
	<circle cx="113.009" cy="939.048" r="1" fill="rgb(0,0,0)" />
	<circle cx="133.583" cy="847.75" r="1" fill="rgb(0,0,0)" />
	<circle cx="139.584" cy="913.759" r="1" fill="rgb(0,0,0)" />
	<circle cx="149.014" cy="969.053" r="1" fill="rgb(0,0,0)" />
	<circle cx="149.443" cy="199.228" r="1" fill="rgb(0,0,0)" />
	<circle cx="170.874" cy="660.866" r="1" fill="rgb(0,0,0)" />
	<circle cx="177.304" cy="766.738" r="1" fill="rgb(0,0,0)" />
	<circle cx="191.449" cy="717.445" r="1" fill="rgb(0,0,0)" />
	<circle cx="197.878" cy="228.804" r="1" fill="rgb(0,0,0)" />
	<circle cx="206.451" cy="316.245" r="1" fill="rgb(0,0,0)" />
	<circle cx="213.309" cy="1073.64" r="1" fill="rgb(0,0,0)" />
	<circle cx="257.887" cy="160.223" r="1" fill="rgb(0,0,0)" />
	<circle cx="260.887" cy="808.744" r="1" fill="rgb(0,0,0)" />
	<circle cx="266.888" cy="99.7857" r="1" fill="rgb(0,0,0)" />
	<circle cx="272.46" cy="1003.34" r="1" fill="rgb(0,0,0)" />
	<circle cx="312.323" cy="561.852" r="1" fill="rgb(0,0,0)" />
	<circle cx="378.761" cy="615.002" r="1" fill="rgb(0,0,0)" />
	<circle cx="382.619" cy="687.87" r="1" fill="rgb(0,0,0)" />
	<circle cx="389.906" cy="83.4976" r="1" fill="rgb(0,0,0)" />
	<circle cx="398.05" cy="557.565" r="1" fill="rgb(0,0,0)" />
	<circle cx="424.625" cy="946.764" r="1" fill="rgb(0,0,0)" />
	<circle cx="448.628" cy="917.188" r="1" fill="rgb(0,0,0)" />
	<circle cx="452.057" cy="365.109" r="1" fill="rgb(0,0,0)" />
	<circle cx="457.63" cy="427.261" r="1" fill="rgb(0,0,0)" />
	<circle cx="481.633" cy="1031.2" r="1" fill="rgb(0,0,0)" />
	<circle cx="492.349" cy="68.0669" r="1" fill="rgb(0,0,0)" />
	<circle cx="493.635" cy="294.385" r="1" fill="rgb(0,0,0)" />
	<circle cx="497.921" cy="692.156" r="1" fill="rgb(0,0,0)" />
	<circle cx="514.638" cy="141.792" r="1" fill="rgb(0,0,0)" />
	<circle cx="521.925" cy="251.093" r="1" fill="rgb(0,0,0)" />
	<circle cx="524.068" cy="83.9263" r="1" fill="rgb(0,0,0)" />
	<circle cx="542.07" cy="715.731" r="1" fill="rgb(0,0,0)" />
	<circle cx="567.788" cy="1069.78" r="1" fill="rgb(0,0,0)" />
	<circle cx="600.793" cy="743.163" r="1" fill="rgb(0,0,0)" />
	<circle cx="613.652" cy="1078.35" r="1" fill="rgb(0,0,0)" />
	<circle cx="630.369" cy="264.809" r="1" fill="rgb(0,0,0)" />
	<circle cx="636.798" cy="514.702" r="1" fill="rgb(0,0,0)" />
	<circle cx="678.375" cy="598.714" r="1" fill="rgb(0,0,0)" />
	<circle cx="678.375" cy="246.378" r="1" fill="rgb(0,0,0)" />
	<circle cx="717.81" cy="402.4" r="1" fill="rgb(0,0,0)" />
	<circle cx="719.096" cy="951.479" r="1" fill="rgb(0,0,0)" />
	<circle cx="733.24" cy="778.74" r="1" fill="rgb(0,0,0)" />
	<circle cx="737.527" cy="84.7835" r="1" fill="rgb(0,0,0)" />
	<circle cx="769.674" cy="258.38" r="1" fill="rgb(0,0,0)" />
	<circle cx="772.246" cy="333.819" r="1" fill="rgb(0,0,0)" />
	<circle cx="773.961" cy="399.4" r="1" fill="rgb(0,0,0)" />
	<circle cx="773.961" cy="294.385" r="1" fill="rgb(0,0,0)" />
	<circle cx="786.82" cy="1014.49" r="1" fill="rgb(0,0,0)" />
	<circle cx="817.681" cy="868.753" r="1" fill="rgb(0,0,0)" />
	<circle cx="824.968" cy="457.265" r="1" fill="rgb(0,0,0)" />
	<circle cx="844.256" cy="318.388" r="1" fill="rgb(0,0,0)" />
	<circle cx="852.4" cy="575.997" r="1" fill="rgb(0,0,0)" />
	<circle cx="874.689" cy="502.7" r="1" fill="rgb(0,0,0)" />
	<circle cx="887.548" cy="828.89" r="1" fill="rgb(0,0,0)" />
	<circle cx="895.692" cy="473.982" r="1" fill="rgb(0,0,0)" />
	<circle cx="910.266" cy="173.939" r="1" fill="rgb(0,0,0)" />
	<circle cx="911.552" cy="187.227" r="1" fill="rgb(0,0,0)" />
	<circle cx="913.266" cy="230.519" r="1" fill="rgb(0,0,0)" />
	<circle cx="916.695" cy="1002.91" r="1" fill="rgb(0,0,0)" />
	<circle cx="929.554" cy="598.285" r="1" fill="rgb(0,0,0)" />
	<circle cx="956.129" cy="51.3502" r="1" fill="rgb(0,0,0)" />
	<circle cx="986.562" cy="734.591" r="1" fill="rgb(0,0,0)" />
	<circle cx="994.706" cy="481.269" r="1" fill="rgb(0,0,0)" />
	<circle cx="1001.14" cy="584.998" r="1" fill="rgb(0,0,0)" />
	<circle cx="1001.99" cy="325.675" r="1" fill="rgb(0,0,0)" />
	<circle cx="1003.28" cy="364.681" r="1" fill="rgb(0,0,0)" />
	<circle cx="1006.28" cy="705.872" r="1" fill="rgb(0,0,0)" />
	<circle cx="1020.42" cy="453.836" r="1" fill="rgb(0,0,0)" />
	<circle cx="1040.57" cy="220.66" r="1" fill="rgb(0,0,0)" />
	<circle cx="1044.43" cy="869.61" r="1" fill="rgb(0,0,0)" />
	<circle cx="1050" cy="169.653" r="1" fill="rgb(0,0,0)" />
</svg>
