<?xml version="1.0" standalone="no" ?>
<!DOCTYPE svg PUBLIC "-//W3C//DTD SVG 1.1//EN" "http://www.w3.org/Graphics/SVG/1.1/DTD/svg11.dtd">
<svg width="1100px" height="1101.87px" xmlns="http://www.w3.org/2000/svg" version="1.1" >
	<circle cx="50" cy="50.0852" r="1" fill="rgb(0,0,0)" />
	<circle cx="182.879" cy="527.087" r="1" fill="rgb(0,0,0)" />
	<circle cx="187.99" cy="561.158" r="1" fill="rgb(0,0,0)" />
	<circle cx="227.172" cy="234.072" r="1" fill="rgb(0,0,0)" />
	<circle cx="254.429" cy="421.465" r="1" fill="rgb(0,0,0)" />
	<circle cx="290.204" cy="412.947" r="1" fill="rgb(0,0,0)" />
	<circle cx="308.944" cy="387.394" r="1" fill="rgb(0,0,0)" />
	<circle cx="322.572" cy="561.158" r="1" fill="rgb(0,0,0)" />
	<circle cx="411.158" cy="906.985" r="1" fill="rgb(0,0,0)" />
	<circle cx="513.373" cy="239.182" r="1" fill="rgb(0,0,0)" />
	<circle cx="518.484" cy="72.2317" r="1" fill="rgb(0,0,0)" />
	<circle cx="549.148" cy="130.153" r="1" fill="rgb(0,0,0)" />
	<circle cx="603.663" cy="654.855" r="1" fill="rgb(0,0,0)" />
	<circle cx="617.291" cy="188.075" r="1" fill="rgb(0,0,0)" />
	<circle cx="690.545" cy="1051.79" r="1" fill="rgb(0,0,0)" />
	<circle cx="782.538" cy="198.296" r="1" fill="rgb(0,0,0)" />
	<circle cx="840.46" cy="479.387" r="1" fill="rgb(0,0,0)" />
	<circle cx="840.46" cy="245.997" r="1" fill="rgb(0,0,0)" />
	<circle cx="1009.11" cy="228.961" r="1" fill="rgb(0,0,0)" />
	<circle cx="1050" cy="452.129" r="1" fill="rgb(0,0,0)" />
</svg>
