<?xml version="1.0" standalone="no" ?>
<!DOCTYPE svg PUBLIC "-//W3C//DTD SVG 1.1//EN" "http://www.w3.org/Graphics/SVG/1.1/DTD/svg11.dtd">
<svg width="1100px" height="1105.73px" xmlns="http://www.w3.org/2000/svg" version="1.1" >
	<circle cx="50" cy="603.212" r="1" fill="rgb(0,0,0)" />
	<circle cx="71.7014" cy="151.823" r="1" fill="rgb(0,0,0)" />
	<circle cx="79.5139" cy="674.392" r="1" fill="rgb(0,0,0)" />
	<circle cx="103.819" cy="1045.92" r="1" fill="rgb(0,0,0)" />
	<circle cx="128.993" cy="479.08" r="1" fill="rgb(0,0,0)" />
	<circle cx="143.75" cy="686.545" r="1" fill="rgb(0,0,0)" />
	<circle cx="179.34" cy="188.281" r="1" fill="rgb(0,0,0)" />
	<circle cx="188.889" cy="602.344" r="1" fill="rgb(0,0,0)" />
	<circle cx="190.625" cy="196.962" r="1" fill="rgb(0,0,0)" />
	<circle cx="201.042" cy="575.434" r="1" fill="rgb(0,0,0)" />
	<circle cx="201.042" cy="562.413" r="1" fill="rgb(0,0,0)" />
	<circle cx="207.986" cy="736.892" r="1" fill="rgb(0,0,0)" />
	<circle cx="214.062" cy="331.51" r="1" fill="rgb(0,0,0)" />
	<circle cx="234.028" cy="349.74" r="1" fill="rgb(0,0,0)" />
	<circle cx="237.5" cy="431.337" r="1" fill="rgb(0,0,0)" />
	<circle cx="256.597" cy="971.267" r="1" fill="rgb(0,0,0)" />
	<circle cx="303.472" cy="99.7396" r="1" fill="rgb(0,0,0)" />
	<circle cx="436.285" cy="1054.6" r="1" fill="rgb(0,0,0)" />
	<circle cx="453.646" cy="485.156" r="1" fill="rgb(0,0,0)" />
	<circle cx="493.576" cy="50.2604" r="1" fill="rgb(0,0,0)" />
	<circle cx="506.597" cy="323.698" r="1" fill="rgb(0,0,0)" />
	<circle cx="527.431" cy="82.3785" r="1" fill="rgb(0,0,0)" />
	<circle cx="596.007" cy="803.733" r="1" fill="rgb(0,0,0)" />
	<circle cx="605.556" cy="1055.47" r="1" fill="rgb(0,0,0)" />
	<circle cx="618.576" cy="207.378" r="1" fill="rgb(0,0,0)" />
	<circle cx="648.09" cy="401.823" r="1" fill="rgb(0,0,0)" />
	<circle cx="658.507" cy="709.983" r="1" fill="rgb(0,0,0)" />
	<circle cx="675" cy="514.67" r="1" fill="rgb(0,0,0)" />
	<circle cx="767.014" cy="220.399" r="1" fill="rgb(0,0,0)" />
	<circle cx="769.618" cy="599.74" r="1" fill="rgb(0,0,0)" />
	<circle cx="796.528" cy="334.983" r="1" fill="rgb(0,0,0)" />
	<circle cx="806.076" cy="133.594" r="1" fill="rgb(0,0,0)" />
	<circle cx="871.181" cy="968.663" r="1" fill="rgb(0,0,0)" />
	<circle cx="884.201" cy="354.948" r="1" fill="rgb(0,0,0)" />
	<circle cx="911.111" cy="336.719" r="1" fill="rgb(0,0,0)" />
	<circle cx="930.208" cy="891.406" r="1" fill="rgb(0,0,0)" />
	<circle cx="949.306" cy="1016.41" r="1" fill="rgb(0,0,0)" />
	<circle cx="949.306" cy="371.441" r="1" fill="rgb(0,0,0)" />
	<circle cx="1021.35" cy="515.538" r="1" fill="rgb(0,0,0)" />
	<circle cx="1050" cy="370.573" r="1" fill="rgb(0,0,0)" />
</svg>
