<?xml version="1.0" standalone="no" ?>
<!DOCTYPE svg PUBLIC "-//W3C//DTD SVG 1.1//EN" "http://www.w3.org/Graphics/SVG/1.1/DTD/svg11.dtd">
<svg width="1100px" height="1117.34px" xmlns="http://www.w3.org/2000/svg" version="1.1" >
	<circle cx="50" cy="389.704" r="1" fill="rgb(0,0,0)" />
	<circle cx="61.8227" cy="1066.55" r="1" fill="rgb(0,0,0)" />
	<circle cx="104.187" cy="751.281" r="1" fill="rgb(0,0,0)" />
	<circle cx="115.025" cy="905.961" r="1" fill="rgb(0,0,0)" />
	<circle cx="162.315" cy="654.729" r="1" fill="rgb(0,0,0)" />
	<circle cx="163.3" cy="882.315" r="1" fill="rgb(0,0,0)" />
	<circle cx="174.138" cy="373.941" r="1" fill="rgb(0,0,0)" />
	<circle cx="192.857" cy="304.975" r="1" fill="rgb(0,0,0)" />
	<circle cx="197.783" cy="409.409" r="1" fill="rgb(0,0,0)" />
	<circle cx="198.768" cy="522.709" r="1" fill="rgb(0,0,0)" />
	<circle cx="271.675" cy="900.049" r="1" fill="rgb(0,0,0)" />
	<circle cx="299.261" cy="207.438" r="1" fill="rgb(0,0,0)" />
	<circle cx="338.67" cy="50.7882" r="1" fill="rgb(0,0,0)" />
	<circle cx="371.182" cy="306.946" r="1" fill="rgb(0,0,0)" />
	<circle cx="428.325" cy="280.345" r="1" fill="rgb(0,0,0)" />
	<circle cx="529.803" cy="696.108" r="1" fill="rgb(0,0,0)" />
	<circle cx="552.463" cy="275.419" r="1" fill="rgb(0,0,0)" />
	<circle cx="593.842" cy="129.606" r="1" fill="rgb(0,0,0)" />
	<circle cx="610.591" cy="107.931" r="1" fill="rgb(0,0,0)" />
	<circle cx="635.222" cy="639.951" r="1" fill="rgb(0,0,0)" />
	<circle cx="722.906" cy="649.803" r="1" fill="rgb(0,0,0)" />
	<circle cx="729.803" cy="852.759" r="1" fill="rgb(0,0,0)" />
	<circle cx="740.64" cy="965.074" r="1" fill="rgb(0,0,0)" />
	<circle cx="764.286" cy="614.335" r="1" fill="rgb(0,0,0)" />
	<circle cx="842.118" cy="1014.33" r="1" fill="rgb(0,0,0)" />
	<circle cx="843.103" cy="599.557" r="1" fill="rgb(0,0,0)" />
	<circle cx="848.03" cy="625.172" r="1" fill="rgb(0,0,0)" />
	<circle cx="858.867" cy="182.808" r="1" fill="rgb(0,0,0)" />
	<circle cx="899.261" cy="239.951" r="1" fill="rgb(0,0,0)" />
	<circle cx="916.01" cy="352.266" r="1" fill="rgb(0,0,0)" />
	<circle cx="925.862" cy="561.133" r="1" fill="rgb(0,0,0)" />
	<circle cx="999.754" cy="990.69" r="1" fill="rgb(0,0,0)" />
	<circle cx="1025.37" cy="531.576" r="1" fill="rgb(0,0,0)" />
	<circle cx="1042.12" cy="204.483" r="1" fill="rgb(0,0,0)" />
	<circle cx="1050" cy="316.798" r="1" fill="rgb(0,0,0)" />
</svg>
