<?xml version="1.0" standalone="no" ?>
<!DOCTYPE svg PUBLIC "-//W3C//DTD SVG 1.1//EN" "http://www.w3.org/Graphics/SVG/1.1/DTD/svg11.dtd">
<svg width="1100px" height="1100.21px" xmlns="http://www.w3.org/2000/svg" version="1.1" >
	<circle cx="50" cy="568.185" r="1" fill="rgb(0,0,0)" />
	<circle cx="50.0477" cy="416.435" r="1" fill="rgb(0,0,0)" />
	<circle cx="52.8623" cy="955.839" r="1" fill="rgb(0,0,0)" />
	<circle cx="56.7742" cy="419.297" r="1" fill="rgb(0,0,0)" />
	<circle cx="56.7742" cy="291.685" r="1" fill="rgb(0,0,0)" />
	<circle cx="56.8219" cy="906.655" r="1" fill="rgb(0,0,0)" />
	<circle cx="59.398" cy="519.383" r="1" fill="rgb(0,0,0)" />
	<circle cx="61.5447" cy="128.103" r="1" fill="rgb(0,0,0)" />
	<circle cx="61.8309" cy="491.38" r="1" fill="rgb(0,0,0)" />
	<circle cx="62.5465" cy="753.139" r="1" fill="rgb(0,0,0)" />
	<circle cx="63.0713" cy="695.225" r="1" fill="rgb(0,0,0)" />
	<circle cx="65.6474" cy="54.3984" r="1" fill="rgb(0,0,0)" />
	<circle cx="67.6987" cy="177.621" r="1" fill="rgb(0,0,0)" />
	<circle cx="69.5592" cy="337.721" r="1" fill="rgb(0,0,0)" />
	<circle cx="70.2748" cy="668.176" r="1" fill="rgb(0,0,0)" />
	<circle cx="70.9904" cy="216.31" r="1" fill="rgb(0,0,0)" />
	<circle cx="71.5628" cy="1011.56" r="1" fill="rgb(0,0,0)" />
	<circle cx="71.9445" cy="359.808" r="1" fill="rgb(0,0,0)" />
	<circle cx="73.2802" cy="265.447" r="1" fill="rgb(0,0,0)" />
	<circle cx="73.471" cy="369.731" r="1" fill="rgb(0,0,0)" />
	<circle cx="73.9958" cy="741.07" r="1" fill="rgb(0,0,0)" />
	<circle cx="75.6655" cy="789.968" r="1" fill="rgb(0,0,0)" />
	<circle cx="75.9517" cy="236.442" r="1" fill="rgb(0,0,0)" />
	<circle cx="76.9058" cy="155.057" r="1" fill="rgb(0,0,0)" />
	<circle cx="77.1921" cy="287.535" r="1" fill="rgb(0,0,0)" />
	<circle cx="78.4324" cy="950.401" r="1" fill="rgb(0,0,0)" />
	<circle cx="78.8617" cy="268.929" r="1" fill="rgb(0,0,0)" />
	<circle cx="80.3406" cy="521.195" r="1" fill="rgb(0,0,0)" />
	<circle cx="80.3883" cy="177.049" r="1" fill="rgb(0,0,0)" />
	<circle cx="81.1516" cy="1028.49" r="1" fill="rgb(0,0,0)" />
	<circle cx="84.3002" cy="851.221" r="1" fill="rgb(0,0,0)" />
	<circle cx="84.5864" cy="947.061" r="1" fill="rgb(0,0,0)" />
	<circle cx="85.2543" cy="637.215" r="1" fill="rgb(0,0,0)" />
	<circle cx="85.6359" cy="53.5874" r="1" fill="rgb(0,0,0)" />
	<circle cx="88.8322" cy="640.602" r="1" fill="rgb(0,0,0)" />
	<circle cx="93.5073" cy="413.429" r="1" fill="rgb(0,0,0)" />
	<circle cx="93.6027" cy="663.358" r="1" fill="rgb(0,0,0)" />
	<circle cx="98.7549" cy="268.309" r="1" fill="rgb(0,0,0)" />
	<circle cx="100.043" cy="425.212" r="1" fill="rgb(0,0,0)" />
	<circle cx="100.902" cy="206.054" r="1" fill="rgb(0,0,0)" />
	<circle cx="101.808" cy="531.404" r="1" fill="rgb(0,0,0)" />
	<circle cx="102.667" cy="873.452" r="1" fill="rgb(0,0,0)" />
	<circle cx="103.144" cy="884.663" r="1" fill="rgb(0,0,0)" />
	<circle cx="104.241" cy="91.4178" r="1" fill="rgb(0,0,0)" />
	<circle cx="106.292" cy="788.918" r="1" fill="rgb(0,0,0)" />
	<circle cx="107.533" cy="466.859" r="1" fill="rgb(0,0,0)" />
	<circle cx="108.344" cy="498.011" r="1" fill="rgb(0,0,0)" />
	<circle cx="110.204" cy="797.266" r="1" fill="rgb(0,0,0)" />
	<circle cx="112.16" cy="389.242" r="1" fill="rgb(0,0,0)" />
	<circle cx="112.494" cy="1005.21" r="1" fill="rgb(0,0,0)" />
	<circle cx="112.494" cy="145.945" r="1" fill="rgb(0,0,0)" />
	<circle cx="113.496" cy="1021.1" r="1" fill="rgb(0,0,0)" />
	<circle cx="113.544" cy="713.591" r="1" fill="rgb(0,0,0)" />
	<circle cx="116.215" cy="506.168" r="1" fill="rgb(0,0,0)" />
	<circle cx="117.503" cy="1026.06" r="1" fill="rgb(0,0,0)" />
	<circle cx="118.123" cy="195.749" r="1" fill="rgb(0,0,0)" />
	<circle cx="119.936" cy="210.252" r="1" fill="rgb(0,0,0)" />
	<circle cx="121.224" cy="1037.32" r="1" fill="rgb(0,0,0)" />
	<circle cx="123.562" cy="50.0095" r="1" fill="rgb(0,0,0)" />
	<circle cx="123.943" cy="439.715" r="1" fill="rgb(0,0,0)" />
	<circle cx="123.991" cy="830.565" r="1" fill="rgb(0,0,0)" />
	<circle cx="124.611" cy="498.965" r="1" fill="rgb(0,0,0)" />
	<circle cx="128.428" cy="485.035" r="1" fill="rgb(0,0,0)" />
	<circle cx="129.573" cy="80.207" r="1" fill="rgb(0,0,0)" />
	<circle cx="129.763" cy="737.826" r="1" fill="rgb(0,0,0)" />
	<circle cx="129.763" cy="618.801" r="1" fill="rgb(0,0,0)" />
	<circle cx="130.765" cy="628.771" r="1" fill="rgb(0,0,0)" />
	<circle cx="131.958" cy="598.287" r="1" fill="rgb(0,0,0)" />
	<circle cx="134.343" cy="1023.39" r="1" fill="rgb(0,0,0)" />
	<circle cx="136.347" cy="524.01" r="1" fill="rgb(0,0,0)" />
	<circle cx="136.49" cy="976.639" r="1" fill="rgb(0,0,0)" />
	<circle cx="137.921" cy="747.271" r="1" fill="rgb(0,0,0)" />
	<circle cx="138.637" cy="435.946" r="1" fill="rgb(0,0,0)" />
	<circle cx="139.209" cy="998.297" r="1" fill="rgb(0,0,0)" />
	<circle cx="140.879" cy="193.126" r="1" fill="rgb(0,0,0)" />
	<circle cx="141.737" cy="299.366" r="1" fill="rgb(0,0,0)" />
	<circle cx="142.548" cy="374.454" r="1" fill="rgb(0,0,0)" />
	<circle cx="142.978" cy="808.62" r="1" fill="rgb(0,0,0)" />
	<circle cx="144.934" cy="816.11" r="1" fill="rgb(0,0,0)" />
	<circle cx="146.031" cy="93.0398" r="1" fill="rgb(0,0,0)" />
	<circle cx="147.701" cy="302.8" r="1" fill="rgb(0,0,0)" />
	<circle cx="147.939" cy="430.651" r="1" fill="rgb(0,0,0)" />
	<circle cx="148.655" cy="763.92" r="1" fill="rgb(0,0,0)" />
	<circle cx="148.798" cy="706.579" r="1" fill="rgb(0,0,0)" />
	<circle cx="149.704" cy="507.743" r="1" fill="rgb(0,0,0)" />
	<circle cx="152.948" cy="843.732" r="1" fill="rgb(0,0,0)" />
	<circle cx="155.524" cy="316.73" r="1" fill="rgb(0,0,0)" />
	<circle cx="155.811" cy="203.764" r="1" fill="rgb(0,0,0)" />
	<circle cx="157.671" cy="88.3647" r="1" fill="rgb(0,0,0)" />
	<circle cx="160.009" cy="756.431" r="1" fill="rgb(0,0,0)" />
	<circle cx="160.867" cy="264.254" r="1" fill="rgb(0,0,0)" />
	<circle cx="161.535" cy="761.44" r="1" fill="rgb(0,0,0)" />
	<circle cx="162.251" cy="142.224" r="1" fill="rgb(0,0,0)" />
	<circle cx="165.876" cy="563.987" r="1" fill="rgb(0,0,0)" />
	<circle cx="166.353" cy="993.24" r="1" fill="rgb(0,0,0)" />
	<circle cx="166.544" cy="431.891" r="1" fill="rgb(0,0,0)" />
	<circle cx="169.216" cy="1009.22" r="1" fill="rgb(0,0,0)" />
	<circle cx="170.074" cy="84.8822" r="1" fill="rgb(0,0,0)" />
	<circle cx="170.456" cy="191.885" r="1" fill="rgb(0,0,0)" />
	<circle cx="170.647" cy="182.297" r="1" fill="rgb(0,0,0)" />
	<circle cx="171.124" cy="1036.8" r="1" fill="rgb(0,0,0)" />
	<circle cx="171.506" cy="121.806" r="1" fill="rgb(0,0,0)" />
	<circle cx="174.368" cy="519.526" r="1" fill="rgb(0,0,0)" />
	<circle cx="175.561" cy="575.055" r="1" fill="rgb(0,0,0)" />
	<circle cx="176.038" cy="185.922" r="1" fill="rgb(0,0,0)" />
	<circle cx="176.896" cy="87.0289" r="1" fill="rgb(0,0,0)" />
	<circle cx="178.232" cy="1009.98" r="1" fill="rgb(0,0,0)" />
	<circle cx="180.904" cy="788.202" r="1" fill="rgb(0,0,0)" />
	<circle cx="181.428" cy="981.886" r="1" fill="rgb(0,0,0)" />
	<circle cx="181.476" cy="701.76" r="1" fill="rgb(0,0,0)" />
	<circle cx="181.667" cy="977.831" r="1" fill="rgb(0,0,0)" />
	<circle cx="182.048" cy="429.792" r="1" fill="rgb(0,0,0)" />
	<circle cx="183.098" cy="781.619" r="1" fill="rgb(0,0,0)" />
	<circle cx="183.527" cy="896.684" r="1" fill="rgb(0,0,0)" />
	<circle cx="183.861" cy="480.503" r="1" fill="rgb(0,0,0)" />
	<circle cx="189.824" cy="698.516" r="1" fill="rgb(0,0,0)" />
	<circle cx="191.112" cy="126.29" r="1" fill="rgb(0,0,0)" />
	<circle cx="195.501" cy="837.816" r="1" fill="rgb(0,0,0)" />
	<circle cx="197.553" cy="500.444" r="1" fill="rgb(0,0,0)" />
	<circle cx="197.696" cy="146.136" r="1" fill="rgb(0,0,0)" />
	<circle cx="200.463" cy="777.516" r="1" fill="rgb(0,0,0)" />
	<circle cx="201.798" cy="964.665" r="1" fill="rgb(0,0,0)" />
	<circle cx="203.134" cy="842.873" r="1" fill="rgb(0,0,0)" />
	<circle cx="203.564" cy="605.109" r="1" fill="rgb(0,0,0)" />
	<circle cx="205.806" cy="913.477" r="1" fill="rgb(0,0,0)" />
	<circle cx="207.905" cy="166.506" r="1" fill="rgb(0,0,0)" />
	<circle cx="209.384" cy="203.335" r="1" fill="rgb(0,0,0)" />
	<circle cx="210.385" cy="900.072" r="1" fill="rgb(0,0,0)" />
	<circle cx="210.385" cy="400.215" r="1" fill="rgb(0,0,0)" />
	<circle cx="211.53" cy="205.72" r="1" fill="rgb(0,0,0)" />
	<circle cx="212.914" cy="189.834" r="1" fill="rgb(0,0,0)" />
	<circle cx="216.635" cy="716.692" r="1" fill="rgb(0,0,0)" />
	<circle cx="217.398" cy="505.739" r="1" fill="rgb(0,0,0)" />
	<circle cx="220.213" cy="847.119" r="1" fill="rgb(0,0,0)" />
	<circle cx="220.928" cy="87.506" r="1" fill="rgb(0,0,0)" />
	<circle cx="223.981" cy="487.563" r="1" fill="rgb(0,0,0)" />
	<circle cx="225.937" cy="422.111" r="1" fill="rgb(0,0,0)" />
	<circle cx="227.321" cy="354.608" r="1" fill="rgb(0,0,0)" />
	<circle cx="229.611" cy="961.755" r="1" fill="rgb(0,0,0)" />
	<circle cx="230.994" cy="355.181" r="1" fill="rgb(0,0,0)" />
	<circle cx="233.379" cy="966.143" r="1" fill="rgb(0,0,0)" />
	<circle cx="238.436" cy="812.58" r="1" fill="rgb(0,0,0)" />
	<circle cx="239.724" cy="804.709" r="1" fill="rgb(0,0,0)" />
	<circle cx="241.155" cy="950.496" r="1" fill="rgb(0,0,0)" />
	<circle cx="242.491" cy="420.012" r="1" fill="rgb(0,0,0)" />
	<circle cx="246.26" cy="264.731" r="1" fill="rgb(0,0,0)" />
	<circle cx="246.451" cy="709.298" r="1" fill="rgb(0,0,0)" />
	<circle cx="248.454" cy="100.148" r="1" fill="rgb(0,0,0)" />
	<circle cx="249.218" cy="592.897" r="1" fill="rgb(0,0,0)" />
	<circle cx="249.552" cy="309.527" r="1" fill="rgb(0,0,0)" />
	<circle cx="250.267" cy="866.439" r="1" fill="rgb(0,0,0)" />
	<circle cx="253.702" cy="188.737" r="1" fill="rgb(0,0,0)" />
	<circle cx="254.418" cy="253.378" r="1" fill="rgb(0,0,0)" />
	<circle cx="258.616" cy="784.577" r="1" fill="rgb(0,0,0)" />
	<circle cx="260.905" cy="840.678" r="1" fill="rgb(0,0,0)" />
	<circle cx="262.432" cy="522.054" r="1" fill="rgb(0,0,0)" />
	<circle cx="262.671" cy="572.002" r="1" fill="rgb(0,0,0)" />
	<circle cx="265.247" cy="288.775" r="1" fill="rgb(0,0,0)" />
	<circle cx="266.773" cy="635.498" r="1" fill="rgb(0,0,0)" />
	<circle cx="267.393" cy="461.134" r="1" fill="rgb(0,0,0)" />
	<circle cx="267.918" cy="329.324" r="1" fill="rgb(0,0,0)" />
	<circle cx="269.588" cy="377.698" r="1" fill="rgb(0,0,0)" />
	<circle cx="272.069" cy="448.493" r="1" fill="rgb(0,0,0)" />
	<circle cx="272.402" cy="628.199" r="1" fill="rgb(0,0,0)" />
	<circle cx="272.45" cy="653.53" r="1" fill="rgb(0,0,0)" />
	<circle cx="272.593" cy="694.032" r="1" fill="rgb(0,0,0)" />
	<circle cx="274.74" cy="608.687" r="1" fill="rgb(0,0,0)" />
	<circle cx="277.173" cy="803.468" r="1" fill="rgb(0,0,0)" />
	<circle cx="279.367" cy="549.819" r="1" fill="rgb(0,0,0)" />
	<circle cx="281.991" cy="648.569" r="1" fill="rgb(0,0,0)" />
	<circle cx="282.802" cy="524.869" r="1" fill="rgb(0,0,0)" />
	<circle cx="284.472" cy="87.8399" r="1" fill="rgb(0,0,0)" />
	<circle cx="285.378" cy="955.791" r="1" fill="rgb(0,0,0)" />
	<circle cx="286.189" cy="758.625" r="1" fill="rgb(0,0,0)" />
	<circle cx="287.43" cy="960.085" r="1" fill="rgb(0,0,0)" />
	<circle cx="289.052" cy="956.221" r="1" fill="rgb(0,0,0)" />
	<circle cx="289.386" cy="314.917" r="1" fill="rgb(0,0,0)" />
	<circle cx="290.34" cy="847.5" r="1" fill="rgb(0,0,0)" />
	<circle cx="290.34" cy="674.377" r="1" fill="rgb(0,0,0)" />
	<circle cx="294.061" cy="1041.09" r="1" fill="rgb(0,0,0)" />
	<circle cx="296.684" cy="195.368" r="1" fill="rgb(0,0,0)" />
	<circle cx="297.305" cy="354.847" r="1" fill="rgb(0,0,0)" />
	<circle cx="298.736" cy="1011.42" r="1" fill="rgb(0,0,0)" />
	<circle cx="304.317" cy="110.548" r="1" fill="rgb(0,0,0)" />
	<circle cx="304.317" cy="56.9745" r="1" fill="rgb(0,0,0)" />
	<circle cx="305.748" cy="114.984" r="1" fill="rgb(0,0,0)" />
	<circle cx="305.892" cy="946.537" r="1" fill="rgb(0,0,0)" />
	<circle cx="307.323" cy="798.459" r="1" fill="rgb(0,0,0)" />
	<circle cx="307.514" cy="587.029" r="1" fill="rgb(0,0,0)" />
	<circle cx="309.47" cy="1050.2" r="1" fill="rgb(0,0,0)" />
	<circle cx="309.47" cy="749.37" r="1" fill="rgb(0,0,0)" />
	<circle cx="310.328" cy="410.328" r="1" fill="rgb(0,0,0)" />
	<circle cx="310.376" cy="127.054" r="1" fill="rgb(0,0,0)" />
	<circle cx="314.717" cy="432.368" r="1" fill="rgb(0,0,0)" />
	<circle cx="318.677" cy="602.008" r="1" fill="rgb(0,0,0)" />
	<circle cx="318.82" cy="740.354" r="1" fill="rgb(0,0,0)" />
	<circle cx="321.348" cy="407.037" r="1" fill="rgb(0,0,0)" />
	<circle cx="322.255" cy="151.24" r="1" fill="rgb(0,0,0)" />
	<circle cx="324.544" cy="891.341" r="1" fill="rgb(0,0,0)" />
	<circle cx="325.117" cy="965.905" r="1" fill="rgb(0,0,0)" />
	<circle cx="327.168" cy="829.992" r="1" fill="rgb(0,0,0)" />
	<circle cx="327.216" cy="590.798" r="1" fill="rgb(0,0,0)" />
	<circle cx="327.788" cy="604.012" r="1" fill="rgb(0,0,0)" />
	<circle cx="329.22" cy="51.9655" r="1" fill="rgb(0,0,0)" />
	<circle cx="330.985" cy="363.529" r="1" fill="rgb(0,0,0)" />
	<circle cx="335.898" cy="672.994" r="1" fill="rgb(0,0,0)" />
	<circle cx="335.994" cy="628.342" r="1" fill="rgb(0,0,0)" />
	<circle cx="339.238" cy="375.885" r="1" fill="rgb(0,0,0)" />
	<circle cx="339.667" cy="317.971" r="1" fill="rgb(0,0,0)" />
	<circle cx="340.621" cy="366.726" r="1" fill="rgb(0,0,0)" />
	<circle cx="341.528" cy="193.316" r="1" fill="rgb(0,0,0)" />
	<circle cx="342.291" cy="509.746" r="1" fill="rgb(0,0,0)" />
	<circle cx="345.582" cy="950.973" r="1" fill="rgb(0,0,0)" />
	<circle cx="347.348" cy="158.015" r="1" fill="rgb(0,0,0)" />
	<circle cx="349.065" cy="731.099" r="1" fill="rgb(0,0,0)" />
	<circle cx="350.401" cy="954.122" r="1" fill="rgb(0,0,0)" />
	<circle cx="353.406" cy="84.6436" r="1" fill="rgb(0,0,0)" />
	<circle cx="354.026" cy="972.154" r="1" fill="rgb(0,0,0)" />
	<circle cx="359.035" cy="322.598" r="1" fill="rgb(0,0,0)" />
	<circle cx="359.226" cy="623.38" r="1" fill="rgb(0,0,0)" />
	<circle cx="360.8" cy="359.188" r="1" fill="rgb(0,0,0)" />
	<circle cx="361.516" cy="370.733" r="1" fill="rgb(0,0,0)" />
	<circle cx="362.518" cy="743.693" r="1" fill="rgb(0,0,0)" />
	<circle cx="362.756" cy="891.008" r="1" fill="rgb(0,0,0)" />
	<circle cx="368.243" cy="1041.85" r="1" fill="rgb(0,0,0)" />
	<circle cx="368.672" cy="692.792" r="1" fill="rgb(0,0,0)" />
	<circle cx="371.868" cy="205.863" r="1" fill="rgb(0,0,0)" />
	<circle cx="374.397" cy="157.108" r="1" fill="rgb(0,0,0)" />
	<circle cx="375.589" cy="645.42" r="1" fill="rgb(0,0,0)" />
	<circle cx="376.162" cy="443.913" r="1" fill="rgb(0,0,0)" />
	<circle cx="376.209" cy="339.39" r="1" fill="rgb(0,0,0)" />
	<circle cx="377.259" cy="592.229" r="1" fill="rgb(0,0,0)" />
	<circle cx="377.497" cy="904.46" r="1" fill="rgb(0,0,0)" />
	<circle cx="377.927" cy="767.308" r="1" fill="rgb(0,0,0)" />
	<circle cx="379.74" cy="282.859" r="1" fill="rgb(0,0,0)" />
	<circle cx="381.505" cy="827.846" r="1" fill="rgb(0,0,0)" />
	<circle cx="381.552" cy="697.705" r="1" fill="rgb(0,0,0)" />
	<circle cx="382.554" cy="839.915" r="1" fill="rgb(0,0,0)" />
	<circle cx="385.894" cy="705.577" r="1" fill="rgb(0,0,0)" />
	<circle cx="386.8" cy="61.0772" r="1" fill="rgb(0,0,0)" />
	<circle cx="387.134" cy="134.4" r="1" fill="rgb(0,0,0)" />
	<circle cx="389.71" cy="769.263" r="1" fill="rgb(0,0,0)" />
	<circle cx="390.187" cy="83.7849" r="1" fill="rgb(0,0,0)" />
	<circle cx="391.952" cy="791.208" r="1" fill="rgb(0,0,0)" />
	<circle cx="392.572" cy="680.913" r="1" fill="rgb(0,0,0)" />
	<circle cx="392.62" cy="84.7868" r="1" fill="rgb(0,0,0)" />
	<circle cx="394.862" cy="760.343" r="1" fill="rgb(0,0,0)" />
	<circle cx="397.009" cy="712.589" r="1" fill="rgb(0,0,0)" />
	<circle cx="397.724" cy="572.193" r="1" fill="rgb(0,0,0)" />
	<circle cx="400.11" cy="486.514" r="1" fill="rgb(0,0,0)" />
	<circle cx="403.878" cy="894.776" r="1" fill="rgb(0,0,0)" />
	<circle cx="403.878" cy="577.058" r="1" fill="rgb(0,0,0)" />
	<circle cx="404.594" cy="860.667" r="1" fill="rgb(0,0,0)" />
	<circle cx="404.833" cy="921.157" r="1" fill="rgb(0,0,0)" />
	<circle cx="404.976" cy="775.608" r="1" fill="rgb(0,0,0)" />
	<circle cx="405.596" cy="847.166" r="1" fill="rgb(0,0,0)" />
	<circle cx="406.073" cy="931.557" r="1" fill="rgb(0,0,0)" />
	<circle cx="407.981" cy="945.01" r="1" fill="rgb(0,0,0)" />
	<circle cx="409.46" cy="683.155" r="1" fill="rgb(0,0,0)" />
	<circle cx="412.513" cy="409.756" r="1" fill="rgb(0,0,0)" />
	<circle cx="416.473" cy="836.814" r="1" fill="rgb(0,0,0)" />
	<circle cx="418.19" cy="375.694" r="1" fill="rgb(0,0,0)" />
	<circle cx="418.285" cy="651.861" r="1" fill="rgb(0,0,0)" />
	<circle cx="418.81" cy="943.388" r="1" fill="rgb(0,0,0)" />
	<circle cx="418.953" cy="692.362" r="1" fill="rgb(0,0,0)" />
	<circle cx="421.1" cy="324.554" r="1" fill="rgb(0,0,0)" />
	<circle cx="423.008" cy="1022.39" r="1" fill="rgb(0,0,0)" />
	<circle cx="423.247" cy="278.757" r="1" fill="rgb(0,0,0)" />
	<circle cx="423.295" cy="596.236" r="1" fill="rgb(0,0,0)" />
	<circle cx="423.581" cy="884.233" r="1" fill="rgb(0,0,0)" />
	<circle cx="425.155" cy="932.368" r="1" fill="rgb(0,0,0)" />
	<circle cx="426.825" cy="945.392" r="1" fill="rgb(0,0,0)" />
	<circle cx="427.254" cy="708.534" r="1" fill="rgb(0,0,0)" />
	<circle cx="429.687" cy="438.951" r="1" fill="rgb(0,0,0)" />
	<circle cx="432.025" cy="987.372" r="1" fill="rgb(0,0,0)" />
	<circle cx="434.935" cy="679.959" r="1" fill="rgb(0,0,0)" />
	<circle cx="439.514" cy="1042.76" r="1" fill="rgb(0,0,0)" />
	<circle cx="439.848" cy="266.21" r="1" fill="rgb(0,0,0)" />
	<circle cx="442.472" cy="890.387" r="1" fill="rgb(0,0,0)" />
	<circle cx="443.283" cy="1044.38" r="1" fill="rgb(0,0,0)" />
	<circle cx="445.048" cy="497.82" r="1" fill="rgb(0,0,0)" />
	<circle cx="445.096" cy="862.671" r="1" fill="rgb(0,0,0)" />
	<circle cx="446.527" cy="490.807" r="1" fill="rgb(0,0,0)" />
	<circle cx="448.626" cy="59.646" r="1" fill="rgb(0,0,0)" />
	<circle cx="449.723" cy="142.558" r="1" fill="rgb(0,0,0)" />
	<circle cx="450.391" cy="484.844" r="1" fill="rgb(0,0,0)" />
	<circle cx="453.826" cy="262.346" r="1" fill="rgb(0,0,0)" />
	<circle cx="453.874" cy="441.098" r="1" fill="rgb(0,0,0)" />
	<circle cx="456.497" cy="699.28" r="1" fill="rgb(0,0,0)" />
	<circle cx="463.94" cy="790.397" r="1" fill="rgb(0,0,0)" />
	<circle cx="467.613" cy="599.719" r="1" fill="rgb(0,0,0)" />
	<circle cx="468.185" cy="576.82" r="1" fill="rgb(0,0,0)" />
	<circle cx="471.763" cy="326.844" r="1" fill="rgb(0,0,0)" />
	<circle cx="472.479" cy="442.577" r="1" fill="rgb(0,0,0)" />
	<circle cx="472.908" cy="971.153" r="1" fill="rgb(0,0,0)" />
	<circle cx="473.958" cy="746.842" r="1" fill="rgb(0,0,0)" />
	<circle cx="474.864" cy="616.606" r="1" fill="rgb(0,0,0)" />
	<circle cx="478.251" cy="458.701" r="1" fill="rgb(0,0,0)" />
	<circle cx="481.638" cy="281.953" r="1" fill="rgb(0,0,0)" />
	<circle cx="481.972" cy="998.869" r="1" fill="rgb(0,0,0)" />
	<circle cx="482.163" cy="563.653" r="1" fill="rgb(0,0,0)" />
	<circle cx="483.117" cy="246.699" r="1" fill="rgb(0,0,0)" />
	<circle cx="484.405" cy="733.628" r="1" fill="rgb(0,0,0)" />
	<circle cx="485.264" cy="305.424" r="1" fill="rgb(0,0,0)" />
	<circle cx="487.506" cy="587.363" r="1" fill="rgb(0,0,0)" />
	<circle cx="489.128" cy="204.193" r="1" fill="rgb(0,0,0)" />
	<circle cx="489.653" cy="854.179" r="1" fill="rgb(0,0,0)" />
	<circle cx="493.994" cy="76.3906" r="1" fill="rgb(0,0,0)" />
	<circle cx="497.81" cy="517.522" r="1" fill="rgb(0,0,0)" />
	<circle cx="500.482" cy="890.101" r="1" fill="rgb(0,0,0)" />
	<circle cx="501.627" cy="638.312" r="1" fill="rgb(0,0,0)" />
	<circle cx="502.104" cy="271.601" r="1" fill="rgb(0,0,0)" />
	<circle cx="506.874" cy="731.004" r="1" fill="rgb(0,0,0)" />
	<circle cx="509.975" cy="488.947" r="1" fill="rgb(0,0,0)" />
	<circle cx="510.738" cy="456.316" r="1" fill="rgb(0,0,0)" />
	<circle cx="510.882" cy="452.07" r="1" fill="rgb(0,0,0)" />
	<circle cx="512.408" cy="798.411" r="1" fill="rgb(0,0,0)" />
	<circle cx="513.076" cy="981.075" r="1" fill="rgb(0,0,0)" />
	<circle cx="515.27" cy="997.772" r="1" fill="rgb(0,0,0)" />
	<circle cx="516.32" cy="888.765" r="1" fill="rgb(0,0,0)" />
	<circle cx="516.32" cy="103.296" r="1" fill="rgb(0,0,0)" />
	<circle cx="516.368" cy="453.072" r="1" fill="rgb(0,0,0)" />
	<circle cx="517.226" cy="290.206" r="1" fill="rgb(0,0,0)" />
	<circle cx="518.371" cy="901.55" r="1" fill="rgb(0,0,0)" />
	<circle cx="523.237" cy="306.044" r="1" fill="rgb(0,0,0)" />
	<circle cx="525.575" cy="909.088" r="1" fill="rgb(0,0,0)" />
	<circle cx="525.575" cy="505.166" r="1" fill="rgb(0,0,0)" />
	<circle cx="525.813" cy="538.417" r="1" fill="rgb(0,0,0)" />
	<circle cx="526.195" cy="688.355" r="1" fill="rgb(0,0,0)" />
	<circle cx="528.199" cy="653.435" r="1" fill="rgb(0,0,0)" />
	<circle cx="529.391" cy="124.239" r="1" fill="rgb(0,0,0)" />
	<circle cx="529.773" cy="544.38" r="1" fill="rgb(0,0,0)" />
	<circle cx="530.011" cy="574.005" r="1" fill="rgb(0,0,0)" />
	<circle cx="531.109" cy="998.345" r="1" fill="rgb(0,0,0)" />
	<circle cx="531.967" cy="62.6992" r="1" fill="rgb(0,0,0)" />
	<circle cx="535.116" cy="800.892" r="1" fill="rgb(0,0,0)" />
	<circle cx="535.879" cy="260.772" r="1" fill="rgb(0,0,0)" />
	<circle cx="538.694" cy="280.474" r="1" fill="rgb(0,0,0)" />
	<circle cx="539.791" cy="661.354" r="1" fill="rgb(0,0,0)" />
	<circle cx="541.031" cy="126.624" r="1" fill="rgb(0,0,0)" />
	<circle cx="544.752" cy="136.213" r="1" fill="rgb(0,0,0)" />
	<circle cx="548.092" cy="139.219" r="1" fill="rgb(0,0,0)" />
	<circle cx="548.33" cy="411.282" r="1" fill="rgb(0,0,0)" />
	<circle cx="548.569" cy="837.673" r="1" fill="rgb(0,0,0)" />
	<circle cx="551.24" cy="828.275" r="1" fill="rgb(0,0,0)" />
	<circle cx="552.242" cy="59.2644" r="1" fill="rgb(0,0,0)" />
	<circle cx="552.767" cy="753.187" r="1" fill="rgb(0,0,0)" />
	<circle cx="552.767" cy="557.547" r="1" fill="rgb(0,0,0)" />
	<circle cx="554.341" cy="599.766" r="1" fill="rgb(0,0,0)" />
	<circle cx="554.866" cy="295.788" r="1" fill="rgb(0,0,0)" />
	<circle cx="555.486" cy="66.2771" r="1" fill="rgb(0,0,0)" />
	<circle cx="556.249" cy="134.639" r="1" fill="rgb(0,0,0)" />
	<circle cx="556.774" cy="95.1388" r="1" fill="rgb(0,0,0)" />
	<circle cx="557.49" cy="921.873" r="1" fill="rgb(0,0,0)" />
	<circle cx="565.361" cy="295.978" r="1" fill="rgb(0,0,0)" />
	<circle cx="565.552" cy="93.2783" r="1" fill="rgb(0,0,0)" />
	<circle cx="565.695" cy="161.402" r="1" fill="rgb(0,0,0)" />
	<circle cx="568.414" cy="601.913" r="1" fill="rgb(0,0,0)" />
	<circle cx="570.609" cy="951.88" r="1" fill="rgb(0,0,0)" />
	<circle cx="571.133" cy="729.525" r="1" fill="rgb(0,0,0)" />
	<circle cx="573.042" cy="540.564" r="1" fill="rgb(0,0,0)" />
	<circle cx="579.625" cy="272.555" r="1" fill="rgb(0,0,0)" />
	<circle cx="582.106" cy="792.782" r="1" fill="rgb(0,0,0)" />
	<circle cx="583.251" cy="569.378" r="1" fill="rgb(0,0,0)" />
	<circle cx="583.632" cy="382.23" r="1" fill="rgb(0,0,0)" />
	<circle cx="588.212" cy="136.499" r="1" fill="rgb(0,0,0)" />
	<circle cx="592.124" cy="437.95" r="1" fill="rgb(0,0,0)" />
	<circle cx="592.172" cy="922.541" r="1" fill="rgb(0,0,0)" />
	<circle cx="592.219" cy="69.4256" r="1" fill="rgb(0,0,0)" />
	<circle cx="592.505" cy="600.816" r="1" fill="rgb(0,0,0)" />
	<circle cx="593.412" cy="307.141" r="1" fill="rgb(0,0,0)" />
	<circle cx="593.46" cy="802.753" r="1" fill="rgb(0,0,0)" />
	<circle cx="593.46" cy="51.6315" r="1" fill="rgb(0,0,0)" />
	<circle cx="593.507" cy="499.06" r="1" fill="rgb(0,0,0)" />
	<circle cx="595.416" cy="950.782" r="1" fill="rgb(0,0,0)" />
	<circle cx="596.274" cy="879.701" r="1" fill="rgb(0,0,0)" />
	<circle cx="596.894" cy="751.231" r="1" fill="rgb(0,0,0)" />
	<circle cx="597.896" cy="613.887" r="1" fill="rgb(0,0,0)" />
	<circle cx="598.564" cy="483.461" r="1" fill="rgb(0,0,0)" />
	<circle cx="598.946" cy="116.177" r="1" fill="rgb(0,0,0)" />
	<circle cx="599.232" cy="909.422" r="1" fill="rgb(0,0,0)" />
	<circle cx="601.092" cy="274.416" r="1" fill="rgb(0,0,0)" />
	<circle cx="603.001" cy="829.897" r="1" fill="rgb(0,0,0)" />
	<circle cx="603.239" cy="445.296" r="1" fill="rgb(0,0,0)" />
	<circle cx="605.338" cy="994.814" r="1" fill="rgb(0,0,0)" />
	<circle cx="610.204" cy="139.266" r="1" fill="rgb(0,0,0)" />
	<circle cx="612.112" cy="635.259" r="1" fill="rgb(0,0,0)" />
	<circle cx="612.589" cy="1039.32" r="1" fill="rgb(0,0,0)" />
	<circle cx="612.589" cy="277.135" r="1" fill="rgb(0,0,0)" />
	<circle cx="613.734" cy="239.638" r="1" fill="rgb(0,0,0)" />
	<circle cx="614.927" cy="131.299" r="1" fill="rgb(0,0,0)" />
	<circle cx="615.452" cy="590.655" r="1" fill="rgb(0,0,0)" />
	<circle cx="617.074" cy="875.217" r="1" fill="rgb(0,0,0)" />
	<circle cx="617.408" cy="928.599" r="1" fill="rgb(0,0,0)" />
	<circle cx="618.266" cy="111.406" r="1" fill="rgb(0,0,0)" />
	<circle cx="618.839" cy="519.383" r="1" fill="rgb(0,0,0)" />
	<circle cx="620.079" cy="482.84" r="1" fill="rgb(0,0,0)" />
	<circle cx="621.32" cy="549.771" r="1" fill="rgb(0,0,0)" />
	<circle cx="622.608" cy="913.286" r="1" fill="rgb(0,0,0)" />
	<circle cx="623.228" cy="558.644" r="1" fill="rgb(0,0,0)" />
	<circle cx="623.419" cy="1029.59" r="1" fill="rgb(0,0,0)" />
	<circle cx="629.048" cy="536.843" r="1" fill="rgb(0,0,0)" />
	<circle cx="629.954" cy="230.193" r="1" fill="rgb(0,0,0)" />
	<circle cx="634.009" cy="934.229" r="1" fill="rgb(0,0,0)" />
	<circle cx="634.105" cy="382.611" r="1" fill="rgb(0,0,0)" />
	<circle cx="634.772" cy="138.646" r="1" fill="rgb(0,0,0)" />
	<circle cx="638.255" cy="702.19" r="1" fill="rgb(0,0,0)" />
	<circle cx="638.541" cy="996.15" r="1" fill="rgb(0,0,0)" />
	<circle cx="638.78" cy="709.918" r="1" fill="rgb(0,0,0)" />
	<circle cx="639.304" cy="638.742" r="1" fill="rgb(0,0,0)" />
	<circle cx="639.448" cy="899.213" r="1" fill="rgb(0,0,0)" />
	<circle cx="641.881" cy="959.179" r="1" fill="rgb(0,0,0)" />
	<circle cx="646.126" cy="687.783" r="1" fill="rgb(0,0,0)" />
	<circle cx="649.895" cy="295.931" r="1" fill="rgb(0,0,0)" />
	<circle cx="650.134" cy="1043.76" r="1" fill="rgb(0,0,0)" />
	<circle cx="650.372" cy="957.7" r="1" fill="rgb(0,0,0)" />
	<circle cx="651.088" cy="168.51" r="1" fill="rgb(0,0,0)" />
	<circle cx="651.231" cy="282.669" r="1" fill="rgb(0,0,0)" />
	<circle cx="651.756" cy="468.529" r="1" fill="rgb(0,0,0)" />
	<circle cx="653.807" cy="61.0295" r="1" fill="rgb(0,0,0)" />
	<circle cx="656.526" cy="764.016" r="1" fill="rgb(0,0,0)" />
	<circle cx="656.622" cy="62.1744" r="1" fill="rgb(0,0,0)" />
	<circle cx="660.009" cy="942.291" r="1" fill="rgb(0,0,0)" />
	<circle cx="660.199" cy="387.048" r="1" fill="rgb(0,0,0)" />
	<circle cx="660.39" cy="589.366" r="1" fill="rgb(0,0,0)" />
	<circle cx="661.344" cy="298.602" r="1" fill="rgb(0,0,0)" />
	<circle cx="662.489" cy="156.822" r="1" fill="rgb(0,0,0)" />
	<circle cx="671.362" cy="449.494" r="1" fill="rgb(0,0,0)" />
	<circle cx="674.177" cy="830.422" r="1" fill="rgb(0,0,0)" />
	<circle cx="675.704" cy="927.407" r="1" fill="rgb(0,0,0)" />
	<circle cx="677.707" cy="674.33" r="1" fill="rgb(0,0,0)" />
	<circle cx="678.423" cy="891.341" r="1" fill="rgb(0,0,0)" />
	<circle cx="679.138" cy="825.937" r="1" fill="rgb(0,0,0)" />
	<circle cx="681.333" cy="526.252" r="1" fill="rgb(0,0,0)" />
	<circle cx="682.096" cy="393.488" r="1" fill="rgb(0,0,0)" />
	<circle cx="682.716" cy="111.931" r="1" fill="rgb(0,0,0)" />
	<circle cx="683.861" cy="180.961" r="1" fill="rgb(0,0,0)" />
	<circle cx="684.863" cy="507.17" r="1" fill="rgb(0,0,0)" />
	<circle cx="686.533" cy="774.368" r="1" fill="rgb(0,0,0)" />
	<circle cx="686.533" cy="559.217" r="1" fill="rgb(0,0,0)" />
	<circle cx="686.724" cy="559.455" r="1" fill="rgb(0,0,0)" />
	<circle cx="689.586" cy="781.762" r="1" fill="rgb(0,0,0)" />
	<circle cx="692.782" cy="991.618" r="1" fill="rgb(0,0,0)" />
	<circle cx="695.12" cy="448.254" r="1" fill="rgb(0,0,0)" />
	<circle cx="699.413" cy="746.651" r="1" fill="rgb(0,0,0)" />
	<circle cx="702.132" cy="675.665" r="1" fill="rgb(0,0,0)" />
	<circle cx="702.705" cy="550.63" r="1" fill="rgb(0,0,0)" />
	<circle cx="704.327" cy="954.694" r="1" fill="rgb(0,0,0)" />
	<circle cx="704.613" cy="396.971" r="1" fill="rgb(0,0,0)" />
	<circle cx="706.569" cy="700.234" r="1" fill="rgb(0,0,0)" />
	<circle cx="706.664" cy="950.782" r="1" fill="rgb(0,0,0)" />
	<circle cx="707.905" cy="953.072" r="1" fill="rgb(0,0,0)" />
	<circle cx="708.477" cy="103.344" r="1" fill="rgb(0,0,0)" />
	<circle cx="709.097" cy="871.782" r="1" fill="rgb(0,0,0)" />
	<circle cx="710.863" cy="821.501" r="1" fill="rgb(0,0,0)" />
	<circle cx="711.769" cy="800.463" r="1" fill="rgb(0,0,0)" />
	<circle cx="712.58" cy="212.542" r="1" fill="rgb(0,0,0)" />
	<circle cx="713.248" cy="428.218" r="1" fill="rgb(0,0,0)" />
	<circle cx="714.154" cy="254.57" r="1" fill="rgb(0,0,0)" />
	<circle cx="721.119" cy="231.672" r="1" fill="rgb(0,0,0)" />
	<circle cx="721.692" cy="777.278" r="1" fill="rgb(0,0,0)" />
	<circle cx="722.932" cy="905.081" r="1" fill="rgb(0,0,0)" />
	<circle cx="727.798" cy="887.811" r="1" fill="rgb(0,0,0)" />
	<circle cx="728.991" cy="844.161" r="1" fill="rgb(0,0,0)" />
	<circle cx="729.658" cy="413" r="1" fill="rgb(0,0,0)" />
	<circle cx="730.469" cy="486.466" r="1" fill="rgb(0,0,0)" />
	<circle cx="730.66" cy="559.885" r="1" fill="rgb(0,0,0)" />
	<circle cx="730.851" cy="611.502" r="1" fill="rgb(0,0,0)" />
	<circle cx="731.424" cy="363.672" r="1" fill="rgb(0,0,0)" />
	<circle cx="735.145" cy="1026.49" r="1" fill="rgb(0,0,0)" />
	<circle cx="735.86" cy="655.104" r="1" fill="rgb(0,0,0)" />
	<circle cx="736.099" cy="348.693" r="1" fill="rgb(0,0,0)" />
	<circle cx="738.722" cy="626.767" r="1" fill="rgb(0,0,0)" />
	<circle cx="738.913" cy="534.553" r="1" fill="rgb(0,0,0)" />
	<circle cx="739.343" cy="612.122" r="1" fill="rgb(0,0,0)" />
	<circle cx="740.535" cy="576.486" r="1" fill="rgb(0,0,0)" />
	<circle cx="741.06" cy="970.771" r="1" fill="rgb(0,0,0)" />
	<circle cx="743.35" cy="481.505" r="1" fill="rgb(0,0,0)" />
	<circle cx="743.398" cy="771.983" r="1" fill="rgb(0,0,0)" />
	<circle cx="744.876" cy="1002.92" r="1" fill="rgb(0,0,0)" />
	<circle cx="745.306" cy="63.8441" r="1" fill="rgb(0,0,0)" />
	<circle cx="745.974" cy="121.043" r="1" fill="rgb(0,0,0)" />
	<circle cx="746.26" cy="661.354" r="1" fill="rgb(0,0,0)" />
	<circle cx="746.975" cy="517.188" r="1" fill="rgb(0,0,0)" />
	<circle cx="747.691" cy="498.345" r="1" fill="rgb(0,0,0)" />
	<circle cx="748.359" cy="643.369" r="1" fill="rgb(0,0,0)" />
	<circle cx="748.836" cy="402.886" r="1" fill="rgb(0,0,0)" />
	<circle cx="750.696" cy="424.163" r="1" fill="rgb(0,0,0)" />
	<circle cx="753.511" cy="732.387" r="1" fill="rgb(0,0,0)" />
	<circle cx="754.036" cy="422.35" r="1" fill="rgb(0,0,0)" />
	<circle cx="754.895" cy="1012.61" r="1" fill="rgb(0,0,0)" />
	<circle cx="755.658" cy="989.328" r="1" fill="rgb(0,0,0)" />
	<circle cx="759.57" cy="550.391" r="1" fill="rgb(0,0,0)" />
	<circle cx="760.047" cy="853.559" r="1" fill="rgb(0,0,0)" />
	<circle cx="760.285" cy="1045.62" r="1" fill="rgb(0,0,0)" />
	<circle cx="761.383" cy="103.153" r="1" fill="rgb(0,0,0)" />
	<circle cx="762.623" cy="1031.6" r="1" fill="rgb(0,0,0)" />
	<circle cx="762.718" cy="321.596" r="1" fill="rgb(0,0,0)" />
	<circle cx="763.529" cy="182.964" r="1" fill="rgb(0,0,0)" />
	<circle cx="763.911" cy="836.051" r="1" fill="rgb(0,0,0)" />
	<circle cx="766.582" cy="539.944" r="1" fill="rgb(0,0,0)" />
	<circle cx="766.726" cy="393.202" r="1" fill="rgb(0,0,0)" />
	<circle cx="767.918" cy="387.716" r="1" fill="rgb(0,0,0)" />
	<circle cx="768.157" cy="75.675" r="1" fill="rgb(0,0,0)" />
	<circle cx="769.922" cy="356.469" r="1" fill="rgb(0,0,0)" />
	<circle cx="770.256" cy="605.443" r="1" fill="rgb(0,0,0)" />
	<circle cx="771.019" cy="236.919" r="1" fill="rgb(0,0,0)" />
	<circle cx="771.353" cy="993.574" r="1" fill="rgb(0,0,0)" />
	<circle cx="771.782" cy="342.014" r="1" fill="rgb(0,0,0)" />
	<circle cx="772.402" cy="1044.57" r="1" fill="rgb(0,0,0)" />
	<circle cx="776.839" cy="300.129" r="1" fill="rgb(0,0,0)" />
	<circle cx="779.654" cy="245.936" r="1" fill="rgb(0,0,0)" />
	<circle cx="780.083" cy="984.844" r="1" fill="rgb(0,0,0)" />
	<circle cx="780.894" cy="85.6455" r="1" fill="rgb(0,0,0)" />
	<circle cx="781.419" cy="952.834" r="1" fill="rgb(0,0,0)" />
	<circle cx="784.567" cy="1004.64" r="1" fill="rgb(0,0,0)" />
	<circle cx="784.663" cy="198.612" r="1" fill="rgb(0,0,0)" />
	<circle cx="784.901" cy="364.531" r="1" fill="rgb(0,0,0)" />
	<circle cx="786.905" cy="1026.16" r="1" fill="rgb(0,0,0)" />
	<circle cx="788.241" cy="790.349" r="1" fill="rgb(0,0,0)" />
	<circle cx="789.004" cy="248.273" r="1" fill="rgb(0,0,0)" />
	<circle cx="789.529" cy="603.249" r="1" fill="rgb(0,0,0)" />
	<circle cx="789.815" cy="485.512" r="1" fill="rgb(0,0,0)" />
	<circle cx="791.055" cy="221.415" r="1" fill="rgb(0,0,0)" />
	<circle cx="791.198" cy="260.295" r="1" fill="rgb(0,0,0)" />
	<circle cx="792.2" cy="556.354" r="1" fill="rgb(0,0,0)" />
	<circle cx="792.296" cy="229.334" r="1" fill="rgb(0,0,0)" />
	<circle cx="793.488" cy="285.531" r="1" fill="rgb(0,0,0)" />
	<circle cx="796.446" cy="328.18" r="1" fill="rgb(0,0,0)" />
	<circle cx="797.162" cy="147.424" r="1" fill="rgb(0,0,0)" />
	<circle cx="798.831" cy="392.582" r="1" fill="rgb(0,0,0)" />
	<circle cx="798.974" cy="305.09" r="1" fill="rgb(0,0,0)" />
	<circle cx="799.451" cy="458.654" r="1" fill="rgb(0,0,0)" />
	<circle cx="799.547" cy="358.806" r="1" fill="rgb(0,0,0)" />
	<circle cx="801.073" cy="377.793" r="1" fill="rgb(0,0,0)" />
	<circle cx="801.932" cy="925.451" r="1" fill="rgb(0,0,0)" />
	<circle cx="802.027" cy="848.884" r="1" fill="rgb(0,0,0)" />
	<circle cx="802.982" cy="412.141" r="1" fill="rgb(0,0,0)" />
	<circle cx="804.556" cy="896.78" r="1" fill="rgb(0,0,0)" />
	<circle cx="805.271" cy="526.3" r="1" fill="rgb(0,0,0)" />
	<circle cx="805.987" cy="157.967" r="1" fill="rgb(0,0,0)" />
	<circle cx="809.613" cy="969.817" r="1" fill="rgb(0,0,0)" />
	<circle cx="809.756" cy="974.397" r="1" fill="rgb(0,0,0)" />
	<circle cx="809.851" cy="332.425" r="1" fill="rgb(0,0,0)" />
	<circle cx="809.899" cy="750.277" r="1" fill="rgb(0,0,0)" />
	<circle cx="810.662" cy="836.719" r="1" fill="rgb(0,0,0)" />
	<circle cx="811.664" cy="417.389" r="1" fill="rgb(0,0,0)" />
	<circle cx="812.38" cy="217.121" r="1" fill="rgb(0,0,0)" />
	<circle cx="813.095" cy="690.597" r="1" fill="rgb(0,0,0)" />
	<circle cx="813.095" cy="588.269" r="1" fill="rgb(0,0,0)" />
	<circle cx="813.668" cy="911.998" r="1" fill="rgb(0,0,0)" />
	<circle cx="813.906" cy="605.777" r="1" fill="rgb(0,0,0)" />
	<circle cx="815.146" cy="305.806" r="1" fill="rgb(0,0,0)" />
	<circle cx="818.963" cy="715.118" r="1" fill="rgb(0,0,0)" />
	<circle cx="819.297" cy="821.549" r="1" fill="rgb(0,0,0)" />
	<circle cx="820.203" cy="146.518" r="1" fill="rgb(0,0,0)" />
	<circle cx="820.633" cy="269.645" r="1" fill="rgb(0,0,0)" />
	<circle cx="822.159" cy="617.656" r="1" fill="rgb(0,0,0)" />
	<circle cx="827.55" cy="355.658" r="1" fill="rgb(0,0,0)" />
	<circle cx="829.553" cy="383.995" r="1" fill="rgb(0,0,0)" />
	<circle cx="831.032" cy="304.088" r="1" fill="rgb(0,0,0)" />
	<circle cx="832.368" cy="725.899" r="1" fill="rgb(0,0,0)" />
	<circle cx="834.419" cy="738.827" r="1" fill="rgb(0,0,0)" />
	<circle cx="836.28" cy="861.764" r="1" fill="rgb(0,0,0)" />
	<circle cx="836.948" cy="80.3502" r="1" fill="rgb(0,0,0)" />
	<circle cx="838.904" cy="896.684" r="1" fill="rgb(0,0,0)" />
	<circle cx="840.764" cy="363.004" r="1" fill="rgb(0,0,0)" />
	<circle cx="841.48" cy="415.576" r="1" fill="rgb(0,0,0)" />
	<circle cx="841.766" cy="113.887" r="1" fill="rgb(0,0,0)" />
	<circle cx="842.386" cy="443.293" r="1" fill="rgb(0,0,0)" />
	<circle cx="847.109" cy="269.311" r="1" fill="rgb(0,0,0)" />
	<circle cx="847.252" cy="1036.7" r="1" fill="rgb(0,0,0)" />
	<circle cx="848.015" cy="164.789" r="1" fill="rgb(0,0,0)" />
	<circle cx="849.59" cy="728.189" r="1" fill="rgb(0,0,0)" />
	<circle cx="851.736" cy="398.497" r="1" fill="rgb(0,0,0)" />
	<circle cx="856.173" cy="812.437" r="1" fill="rgb(0,0,0)" />
	<circle cx="857.795" cy="995.482" r="1" fill="rgb(0,0,0)" />
	<circle cx="859.56" cy="496.58" r="1" fill="rgb(0,0,0)" />
	<circle cx="860.467" cy="297.648" r="1" fill="rgb(0,0,0)" />
	<circle cx="861.039" cy="923.447" r="1" fill="rgb(0,0,0)" />
	<circle cx="861.659" cy="421.778" r="1" fill="rgb(0,0,0)" />
	<circle cx="861.802" cy="634.257" r="1" fill="rgb(0,0,0)" />
	<circle cx="863.138" cy="861.573" r="1" fill="rgb(0,0,0)" />
	<circle cx="867.813" cy="64.1303" r="1" fill="rgb(0,0,0)" />
	<circle cx="869.197" cy="335.765" r="1" fill="rgb(0,0,0)" />
	<circle cx="871.916" cy="793.545" r="1" fill="rgb(0,0,0)" />
	<circle cx="872.918" cy="450.21" r="1" fill="rgb(0,0,0)" />
	<circle cx="873.061" cy="290.969" r="1" fill="rgb(0,0,0)" />
	<circle cx="876.877" cy="1015.18" r="1" fill="rgb(0,0,0)" />
	<circle cx="877.354" cy="1018.09" r="1" fill="rgb(0,0,0)" />
	<circle cx="878.642" cy="946.918" r="1" fill="rgb(0,0,0)" />
	<circle cx="879.215" cy="833.427" r="1" fill="rgb(0,0,0)" />
	<circle cx="880.503" cy="117.322" r="1" fill="rgb(0,0,0)" />
	<circle cx="881.314" cy="1038.8" r="1" fill="rgb(0,0,0)" />
	<circle cx="884.462" cy="989.281" r="1" fill="rgb(0,0,0)" />
	<circle cx="885.989" cy="673.948" r="1" fill="rgb(0,0,0)" />
	<circle cx="886.561" cy="742.167" r="1" fill="rgb(0,0,0)" />
	<circle cx="887.229" cy="863.195" r="1" fill="rgb(0,0,0)" />
	<circle cx="887.468" cy="542.472" r="1" fill="rgb(0,0,0)" />
	<circle cx="889.615" cy="332.759" r="1" fill="rgb(0,0,0)" />
	<circle cx="891.046" cy="388.765" r="1" fill="rgb(0,0,0)" />
	<circle cx="892.477" cy="490.807" r="1" fill="rgb(0,0,0)" />
	<circle cx="894.099" cy="416.148" r="1" fill="rgb(0,0,0)" />
	<circle cx="898.154" cy="290.969" r="1" fill="rgb(0,0,0)" />
	<circle cx="899.919" cy="767.164" r="1" fill="rgb(0,0,0)" />
	<circle cx="900.682" cy="644.705" r="1" fill="rgb(0,0,0)" />
	<circle cx="900.825" cy="183.441" r="1" fill="rgb(0,0,0)" />
	<circle cx="901.302" cy="109.26" r="1" fill="rgb(0,0,0)" />
	<circle cx="902.495" cy="974.349" r="1" fill="rgb(0,0,0)" />
	<circle cx="902.877" cy="406.082" r="1" fill="rgb(0,0,0)" />
	<circle cx="905.977" cy="998.345" r="1" fill="rgb(0,0,0)" />
	<circle cx="906.598" cy="196.942" r="1" fill="rgb(0,0,0)" />
	<circle cx="907.361" cy="187.353" r="1" fill="rgb(0,0,0)" />
	<circle cx="908.84" cy="365.437" r="1" fill="rgb(0,0,0)" />
	<circle cx="910.08" cy="184.062" r="1" fill="rgb(0,0,0)" />
	<circle cx="910.509" cy="996.102" r="1" fill="rgb(0,0,0)" />
	<circle cx="913.467" cy="100.673" r="1" fill="rgb(0,0,0)" />
	<circle cx="913.801" cy="546.432" r="1" fill="rgb(0,0,0)" />
	<circle cx="915.089" cy="869.683" r="1" fill="rgb(0,0,0)" />
	<circle cx="916.425" cy="581.161" r="1" fill="rgb(0,0,0)" />
	<circle cx="917.904" cy="68.2807" r="1" fill="rgb(0,0,0)" />
	<circle cx="919.717" cy="832.044" r="1" fill="rgb(0,0,0)" />
	<circle cx="920.766" cy="730.097" r="1" fill="rgb(0,0,0)" />
	<circle cx="921.1" cy="904.413" r="1" fill="rgb(0,0,0)" />
	<circle cx="921.243" cy="440.621" r="1" fill="rgb(0,0,0)" />
	<circle cx="922.245" cy="650.143" r="1" fill="rgb(0,0,0)" />
	<circle cx="929.973" cy="184.062" r="1" fill="rgb(0,0,0)" />
	<circle cx="930.88" cy="909.326" r="1" fill="rgb(0,0,0)" />
	<circle cx="932.359" cy="168.987" r="1" fill="rgb(0,0,0)" />
	<circle cx="933.408" cy="52.7765" r="1" fill="rgb(0,0,0)" />
	<circle cx="935.078" cy="1039.42" r="1" fill="rgb(0,0,0)" />
	<circle cx="939.228" cy="606.254" r="1" fill="rgb(0,0,0)" />
	<circle cx="939.228" cy="395.635" r="1" fill="rgb(0,0,0)" />
	<circle cx="940.421" cy="237.73" r="1" fill="rgb(0,0,0)" />
	<circle cx="941.089" cy="1000.25" r="1" fill="rgb(0,0,0)" />
	<circle cx="941.089" cy="112.122" r="1" fill="rgb(0,0,0)" />
	<circle cx="941.47" cy="76.2475" r="1" fill="rgb(0,0,0)" />
	<circle cx="942.329" cy="826.081" r="1" fill="rgb(0,0,0)" />
	<circle cx="942.711" cy="233.341" r="1" fill="rgb(0,0,0)" />
	<circle cx="947.386" cy="743.407" r="1" fill="rgb(0,0,0)" />
	<circle cx="948.483" cy="677.049" r="1" fill="rgb(0,0,0)" />
	<circle cx="951.87" cy="979.024" r="1" fill="rgb(0,0,0)" />
	<circle cx="952.204" cy="157.347" r="1" fill="rgb(0,0,0)" />
	<circle cx="955.257" cy="830.613" r="1" fill="rgb(0,0,0)" />
	<circle cx="959.026" cy="849.265" r="1" fill="rgb(0,0,0)" />
	<circle cx="959.932" cy="293.784" r="1" fill="rgb(0,0,0)" />
	<circle cx="960.075" cy="197.896" r="1" fill="rgb(0,0,0)" />
	<circle cx="962.127" cy="995.912" r="1" fill="rgb(0,0,0)" />
	<circle cx="962.318" cy="444.676" r="1" fill="rgb(0,0,0)" />
	<circle cx="963.796" cy="371.782" r="1" fill="rgb(0,0,0)" />
	<circle cx="965.132" cy="110.166" r="1" fill="rgb(0,0,0)" />
	<circle cx="967.374" cy="668.51" r="1" fill="rgb(0,0,0)" />
	<circle cx="967.756" cy="725.804" r="1" fill="rgb(0,0,0)" />
	<circle cx="971.143" cy="959.894" r="1" fill="rgb(0,0,0)" />
	<circle cx="975.484" cy="787.105" r="1" fill="rgb(0,0,0)" />
	<circle cx="976.343" cy="401.312" r="1" fill="rgb(0,0,0)" />
	<circle cx="978.442" cy="272.555" r="1" fill="rgb(0,0,0)" />
	<circle cx="981.781" cy="436.089" r="1" fill="rgb(0,0,0)" />
	<circle cx="987.077" cy="1002.92" r="1" fill="rgb(0,0,0)" />
	<circle cx="987.601" cy="840.392" r="1" fill="rgb(0,0,0)" />
	<circle cx="987.697" cy="371.544" r="1" fill="rgb(0,0,0)" />
	<circle cx="989.414" cy="160.543" r="1" fill="rgb(0,0,0)" />
	<circle cx="990.368" cy="983.27" r="1" fill="rgb(0,0,0)" />
	<circle cx="991.418" cy="871.544" r="1" fill="rgb(0,0,0)" />
	<circle cx="991.799" cy="694.557" r="1" fill="rgb(0,0,0)" />
	<circle cx="992.372" cy="658.492" r="1" fill="rgb(0,0,0)" />
	<circle cx="992.706" cy="313.152" r="1" fill="rgb(0,0,0)" />
	<circle cx="993.087" cy="701.999" r="1" fill="rgb(0,0,0)" />
	<circle cx="996.284" cy="254.045" r="1" fill="rgb(0,0,0)" />
	<circle cx="996.856" cy="386.476" r="1" fill="rgb(0,0,0)" />
	<circle cx="999.098" cy="325.937" r="1" fill="rgb(0,0,0)" />
	<circle cx="1003.34" cy="220.795" r="1" fill="rgb(0,0,0)" />
	<circle cx="1003.49" cy="486.895" r="1" fill="rgb(0,0,0)" />
	<circle cx="1004.3" cy="840.965" r="1" fill="rgb(0,0,0)" />
	<circle cx="1007.92" cy="503.545" r="1" fill="rgb(0,0,0)" />
	<circle cx="1008.69" cy="1049.48" r="1" fill="rgb(0,0,0)" />
	<circle cx="1009.74" cy="610.118" r="1" fill="rgb(0,0,0)" />
	<circle cx="1012.55" cy="1038.27" r="1" fill="rgb(0,0,0)" />
	<circle cx="1013.65" cy="637.167" r="1" fill="rgb(0,0,0)" />
	<circle cx="1013.7" cy="896.255" r="1" fill="rgb(0,0,0)" />
	<circle cx="1016.94" cy="555.925" r="1" fill="rgb(0,0,0)" />
	<circle cx="1018.18" cy="446.155" r="1" fill="rgb(0,0,0)" />
	<circle cx="1018.23" cy="498.726" r="1" fill="rgb(0,0,0)" />
	<circle cx="1022.57" cy="280.331" r="1" fill="rgb(0,0,0)" />
	<circle cx="1028.58" cy="514.564" r="1" fill="rgb(0,0,0)" />
	<circle cx="1028.91" cy="889.576" r="1" fill="rgb(0,0,0)" />
	<circle cx="1030.15" cy="910.424" r="1" fill="rgb(0,0,0)" />
	<circle cx="1031.06" cy="659.732" r="1" fill="rgb(0,0,0)" />
	<circle cx="1032.25" cy="317.971" r="1" fill="rgb(0,0,0)" />
	<circle cx="1035.16" cy="711.158" r="1" fill="rgb(0,0,0)" />
	<circle cx="1035.93" cy="367.823" r="1" fill="rgb(0,0,0)" />
	<circle cx="1036.69" cy="757.623" r="1" fill="rgb(0,0,0)" />
	<circle cx="1036.88" cy="544.237" r="1" fill="rgb(0,0,0)" />
	<circle cx="1037.36" cy="531.977" r="1" fill="rgb(0,0,0)" />
	<circle cx="1038.93" cy="324.554" r="1" fill="rgb(0,0,0)" />
	<circle cx="1039.17" cy="909.66" r="1" fill="rgb(0,0,0)" />
	<circle cx="1042.84" cy="631.633" r="1" fill="rgb(0,0,0)" />
	<circle cx="1044.28" cy="842.348" r="1" fill="rgb(0,0,0)" />
	<circle cx="1045.09" cy="1042.28" r="1" fill="rgb(0,0,0)" />
	<circle cx="1050" cy="782.716" r="1" fill="rgb(0,0,0)" />
</svg>
