<?xml version="1.0" standalone="no" ?>
<!DOCTYPE svg PUBLIC "-//W3C//DTD SVG 1.1//EN" "http://www.w3.org/Graphics/SVG/1.1/DTD/svg11.dtd">
<svg width="1100px" height="1099.19px" xmlns="http://www.w3.org/2000/svg" version="1.1" >
	<circle cx="50" cy="736.29" r="1" fill="rgb(0,0,0)" />
	<circle cx="50.1336" cy="989.112" r="1" fill="rgb(0,0,0)" />
	<circle cx="50.9351" cy="768.82" r="1" fill="rgb(0,0,0)" />
	<circle cx="53.7406" cy="750.718" r="1" fill="rgb(0,0,0)" />
	<circle cx="58.3495" cy="224.033" r="1" fill="rgb(0,0,0)" />
	<circle cx="59.6186" cy="148.754" r="1" fill="rgb(0,0,0)" />
	<circle cx="59.9526" cy="491.55" r="1" fill="rgb(0,0,0)" />
	<circle cx="61.6893" cy="89.2392" r="1" fill="rgb(0,0,0)" />
	<circle cx="62.6912" cy="786.253" r="1" fill="rgb(0,0,0)" />
	<circle cx="63.092" cy="823.192" r="1" fill="rgb(0,0,0)" />
	<circle cx="66.699" cy="735.288" r="1" fill="rgb(0,0,0)" />
	<circle cx="67.8345" cy="125.443" r="1" fill="rgb(0,0,0)" />
	<circle cx="71.4415" cy="1002.54" r="1" fill="rgb(0,0,0)" />
	<circle cx="72.8442" cy="444.326" r="1" fill="rgb(0,0,0)" />
	<circle cx="72.911" cy="262.441" r="1" fill="rgb(0,0,0)" />
	<circle cx="73.5789" cy="857.725" r="1" fill="rgb(0,0,0)" />
	<circle cx="78.121" cy="972.948" r="1" fill="rgb(0,0,0)" />
	<circle cx="78.6554" cy="84.4967" r="1" fill="rgb(0,0,0)" />
	<circle cx="80.9265" cy="604.302" r="1" fill="rgb(0,0,0)" />
	<circle cx="81.1268" cy="686.594" r="1" fill="rgb(0,0,0)" />
	<circle cx="87.7396" cy="928.862" r="1" fill="rgb(0,0,0)" />
	<circle cx="88.4076" cy="409.592" r="1" fill="rgb(0,0,0)" />
	<circle cx="93.7513" cy="160.644" r="1" fill="rgb(0,0,0)" />
	<circle cx="95.5547" cy="345.201" r="1" fill="rgb(0,0,0)" />
	<circle cx="97.8258" cy="817.781" r="1" fill="rgb(0,0,0)" />
	<circle cx="97.9594" cy="69.2005" r="1" fill="rgb(0,0,0)" />
	<circle cx="98.5606" cy="460.49" r="1" fill="rgb(0,0,0)" />
	<circle cx="100.23" cy="194.91" r="1" fill="rgb(0,0,0)" />
	<circle cx="100.698" cy="495.291" r="1" fill="rgb(0,0,0)" />
	<circle cx="101.166" cy="93.3805" r="1" fill="rgb(0,0,0)" />
	<circle cx="101.232" cy="305.123" r="1" fill="rgb(0,0,0)" />
	<circle cx="103.37" cy="327.366" r="1" fill="rgb(0,0,0)" />
	<circle cx="107.645" cy="718.656" r="1" fill="rgb(0,0,0)" />
	<circle cx="107.778" cy="214.615" r="1" fill="rgb(0,0,0)" />
	<circle cx="108.914" cy="429.096" r="1" fill="rgb(0,0,0)" />
	<circle cx="110.45" cy="237.259" r="1" fill="rgb(0,0,0)" />
	<circle cx="112.254" cy="897.936" r="1" fill="rgb(0,0,0)" />
	<circle cx="113.523" cy="447.999" r="1" fill="rgb(0,0,0)" />
	<circle cx="114.124" cy="650.057" r="1" fill="rgb(0,0,0)" />
	<circle cx="114.992" cy="242.202" r="1" fill="rgb(0,0,0)" />
	<circle cx="118.933" cy="690.602" r="1" fill="rgb(0,0,0)" />
	<circle cx="119" cy="1036.27" r="1" fill="rgb(0,0,0)" />
	<circle cx="119.668" cy="160.978" r="1" fill="rgb(0,0,0)" />
	<circle cx="120.336" cy="836.35" r="1" fill="rgb(0,0,0)" />
	<circle cx="120.603" cy="671.832" r="1" fill="rgb(0,0,0)" />
	<circle cx="124.611" cy="538.241" r="1" fill="rgb(0,0,0)" />
	<circle cx="127.082" cy="155.501" r="1" fill="rgb(0,0,0)" />
	<circle cx="128.018" cy="700.822" r="1" fill="rgb(0,0,0)" />
	<circle cx="128.886" cy="941.086" r="1" fill="rgb(0,0,0)" />
	<circle cx="128.953" cy="982.566" r="1" fill="rgb(0,0,0)" />
	<circle cx="131.157" cy="476.454" r="1" fill="rgb(0,0,0)" />
	<circle cx="131.424" cy="679.915" r="1" fill="rgb(0,0,0)" />
	<circle cx="132.226" cy="559.749" r="1" fill="rgb(0,0,0)" />
	<circle cx="133.161" cy="1003.47" r="1" fill="rgb(0,0,0)" />
	<circle cx="136.835" cy="298.043" r="1" fill="rgb(0,0,0)" />
	<circle cx="139.84" cy="763.276" r="1" fill="rgb(0,0,0)" />
	<circle cx="139.907" cy="266.716" r="1" fill="rgb(0,0,0)" />
	<circle cx="139.974" cy="707.501" r="1" fill="rgb(0,0,0)" />
	<circle cx="142.045" cy="103.533" r="1" fill="rgb(0,0,0)" />
	<circle cx="142.312" cy="65.8607" r="1" fill="rgb(0,0,0)" />
	<circle cx="145.451" cy="329.17" r="1" fill="rgb(0,0,0)" />
	<circle cx="150.06" cy="182.553" r="1" fill="rgb(0,0,0)" />
	<circle cx="151.129" cy="127.179" r="1" fill="rgb(0,0,0)" />
	<circle cx="151.196" cy="540.979" r="1" fill="rgb(0,0,0)" />
	<circle cx="154.268" cy="1023.85" r="1" fill="rgb(0,0,0)" />
	<circle cx="155.137" cy="465.3" r="1" fill="rgb(0,0,0)" />
	<circle cx="157.207" cy="800.815" r="1" fill="rgb(0,0,0)" />
	<circle cx="158.009" cy="1034.8" r="1" fill="rgb(0,0,0)" />
	<circle cx="160.881" cy="515.597" r="1" fill="rgb(0,0,0)" />
	<circle cx="162.551" cy="864.939" r="1" fill="rgb(0,0,0)" />
	<circle cx="166.492" cy="879.1" r="1" fill="rgb(0,0,0)" />
	<circle cx="167.828" cy="173.068" r="1" fill="rgb(0,0,0)" />
	<circle cx="169.765" cy="373.723" r="1" fill="rgb(0,0,0)" />
	<circle cx="170.834" cy="176.808" r="1" fill="rgb(0,0,0)" />
	<circle cx="170.9" cy="225.569" r="1" fill="rgb(0,0,0)" />
	<circle cx="171.435" cy="396.967" r="1" fill="rgb(0,0,0)" />
	<circle cx="172.17" cy="668.359" r="1" fill="rgb(0,0,0)" />
	<circle cx="172.904" cy="223.632" r="1" fill="rgb(0,0,0)" />
	<circle cx="176.244" cy="356.155" r="1" fill="rgb(0,0,0)" />
	<circle cx="177.38" cy="592.145" r="1" fill="rgb(0,0,0)" />
	<circle cx="177.914" cy="526.217" r="1" fill="rgb(0,0,0)" />
	<circle cx="178.916" cy="605.504" r="1" fill="rgb(0,0,0)" />
	<circle cx="179.049" cy="718.99" r="1" fill="rgb(0,0,0)" />
	<circle cx="183.057" cy="97.6555" r="1" fill="rgb(0,0,0)" />
	<circle cx="191.34" cy="870.015" r="1" fill="rgb(0,0,0)" />
	<circle cx="194.613" cy="446.129" r="1" fill="rgb(0,0,0)" />
	<circle cx="195.08" cy="1049.23" r="1" fill="rgb(0,0,0)" />
	<circle cx="197.151" cy="528.555" r="1" fill="rgb(0,0,0)" />
	<circle cx="197.886" cy="370.049" r="1" fill="rgb(0,0,0)" />
	<circle cx="200.558" cy="395.231" r="1" fill="rgb(0,0,0)" />
	<circle cx="200.892" cy="246.009" r="1" fill="rgb(0,0,0)" />
	<circle cx="201.626" cy="261.305" r="1" fill="rgb(0,0,0)" />
	<circle cx="203.363" cy="752.388" r="1" fill="rgb(0,0,0)" />
	<circle cx="204.098" cy="688.531" r="1" fill="rgb(0,0,0)" />
	<circle cx="207.237" cy="745.374" r="1" fill="rgb(0,0,0)" />
	<circle cx="208.039" cy="221.228" r="1" fill="rgb(0,0,0)" />
	<circle cx="208.84" cy="376.662" r="1" fill="rgb(0,0,0)" />
	<circle cx="208.974" cy="822.724" r="1" fill="rgb(0,0,0)" />
	<circle cx="212.781" cy="843.23" r="1" fill="rgb(0,0,0)" />
	<circle cx="216.188" cy="776.167" r="1" fill="rgb(0,0,0)" />
	<circle cx="217.925" cy="986.908" r="1" fill="rgb(0,0,0)" />
	<circle cx="218.058" cy="332.242" r="1" fill="rgb(0,0,0)" />
	<circle cx="219.528" cy="306.125" r="1" fill="rgb(0,0,0)" />
	<circle cx="221.598" cy="136.13" r="1" fill="rgb(0,0,0)" />
	<circle cx="222.133" cy="500.033" r="1" fill="rgb(0,0,0)" />
	<circle cx="225.139" cy="67.4638" r="1" fill="rgb(0,0,0)" />
	<circle cx="226.074" cy="867.477" r="1" fill="rgb(0,0,0)" />
	<circle cx="227.677" cy="649.79" r="1" fill="rgb(0,0,0)" />
	<circle cx="232.62" cy="646.65" r="1" fill="rgb(0,0,0)" />
	<circle cx="236.627" cy="327.233" r="1" fill="rgb(0,0,0)" />
	<circle cx="239.967" cy="336.384" r="1" fill="rgb(0,0,0)" />
	<circle cx="240.101" cy="941.42" r="1" fill="rgb(0,0,0)" />
	<circle cx="241.37" cy="980.963" r="1" fill="rgb(0,0,0)" />
	<circle cx="241.57" cy="696.68" r="1" fill="rgb(0,0,0)" />
	<circle cx="244.309" cy="207.935" r="1" fill="rgb(0,0,0)" />
	<circle cx="245.111" cy="400.04" r="1" fill="rgb(0,0,0)" />
	<circle cx="245.445" cy="1038.94" r="1" fill="rgb(0,0,0)" />
	<circle cx="247.315" cy="376.261" r="1" fill="rgb(0,0,0)" />
	<circle cx="248.25" cy="762.007" r="1" fill="rgb(0,0,0)" />
	<circle cx="248.45" cy="56.91" r="1" fill="rgb(0,0,0)" />
	<circle cx="250.454" cy="1043.95" r="1" fill="rgb(0,0,0)" />
	<circle cx="250.588" cy="430.031" r="1" fill="rgb(0,0,0)" />
	<circle cx="253.126" cy="827.867" r="1" fill="rgb(0,0,0)" />
	<circle cx="257.668" cy="761.94" r="1" fill="rgb(0,0,0)" />
	<circle cx="260.073" cy="1019.91" r="1" fill="rgb(0,0,0)" />
	<circle cx="267.754" cy="119.297" r="1" fill="rgb(0,0,0)" />
	<circle cx="270.426" cy="517.334" r="1" fill="rgb(0,0,0)" />
	<circle cx="272.898" cy="577.851" r="1" fill="rgb(0,0,0)" />
	<circle cx="275.97" cy="281.411" r="1" fill="rgb(0,0,0)" />
	<circle cx="280.112" cy="575.913" r="1" fill="rgb(0,0,0)" />
	<circle cx="281.18" cy="982.7" r="1" fill="rgb(0,0,0)" />
	<circle cx="281.781" cy="1004.88" r="1" fill="rgb(0,0,0)" />
	<circle cx="282.383" cy="465.3" r="1" fill="rgb(0,0,0)" />
	<circle cx="282.984" cy="317.881" r="1" fill="rgb(0,0,0)" />
	<circle cx="285.522" cy="687.863" r="1" fill="rgb(0,0,0)" />
	<circle cx="288.06" cy="151.025" r="1" fill="rgb(0,0,0)" />
	<circle cx="288.394" cy="124.841" r="1" fill="rgb(0,0,0)" />
	<circle cx="288.862" cy="428.896" r="1" fill="rgb(0,0,0)" />
	<circle cx="289.263" cy="124.441" r="1" fill="rgb(0,0,0)" />
	<circle cx="291.133" cy="794.403" r="1" fill="rgb(0,0,0)" />
	<circle cx="293.204" cy="265.179" r="1" fill="rgb(0,0,0)" />
	<circle cx="294.606" cy="818.382" r="1" fill="rgb(0,0,0)" />
	<circle cx="295.274" cy="55.8413" r="1" fill="rgb(0,0,0)" />
	<circle cx="296.744" cy="1035.27" r="1" fill="rgb(0,0,0)" />
	<circle cx="296.877" cy="515.396" r="1" fill="rgb(0,0,0)" />
	<circle cx="298.681" cy="731.548" r="1" fill="rgb(0,0,0)" />
	<circle cx="298.748" cy="765.48" r="1" fill="rgb(0,0,0)" />
	<circle cx="300.484" cy="524.547" r="1" fill="rgb(0,0,0)" />
	<circle cx="301.62" cy="222.163" r="1" fill="rgb(0,0,0)" />
	<circle cx="302.355" cy="375.259" r="1" fill="rgb(0,0,0)" />
	<circle cx="304.96" cy="834.68" r="1" fill="rgb(0,0,0)" />
	<circle cx="304.96" cy="784.45" r="1" fill="rgb(0,0,0)" />
	<circle cx="306.229" cy="644.847" r="1" fill="rgb(0,0,0)" />
	<circle cx="308.633" cy="961.258" r="1" fill="rgb(0,0,0)" />
	<circle cx="315.38" cy="897.201" r="1" fill="rgb(0,0,0)" />
	<circle cx="315.847" cy="372.854" r="1" fill="rgb(0,0,0)" />
	<circle cx="319.922" cy="1009.22" r="1" fill="rgb(0,0,0)" />
	<circle cx="319.922" cy="792.332" r="1" fill="rgb(0,0,0)" />
	<circle cx="322.26" cy="688.531" r="1" fill="rgb(0,0,0)" />
	<circle cx="325.065" cy="848.975" r="1" fill="rgb(0,0,0)" />
	<circle cx="326.468" cy="667.691" r="1" fill="rgb(0,0,0)" />
	<circle cx="327.537" cy="808.029" r="1" fill="rgb(0,0,0)" />
	<circle cx="328.605" cy="440.518" r="1" fill="rgb(0,0,0)" />
	<circle cx="333.481" cy="858.393" r="1" fill="rgb(0,0,0)" />
	<circle cx="337.222" cy="859.729" r="1" fill="rgb(0,0,0)" />
	<circle cx="347.909" cy="566.161" r="1" fill="rgb(0,0,0)" />
	<circle cx="349.913" cy="781.645" r="1" fill="rgb(0,0,0)" />
	<circle cx="366.612" cy="677.176" r="1" fill="rgb(0,0,0)" />
	<circle cx="368.883" cy="823.525" r="1" fill="rgb(0,0,0)" />
	<circle cx="369.017" cy="475.72" r="1" fill="rgb(0,0,0)" />
	<circle cx="369.084" cy="582.66" r="1" fill="rgb(0,0,0)" />
	<circle cx="370.353" cy="890.722" r="1" fill="rgb(0,0,0)" />
	<circle cx="370.419" cy="641.106" r="1" fill="rgb(0,0,0)" />
	<circle cx="371.622" cy="944.559" r="1" fill="rgb(0,0,0)" />
	<circle cx="372.156" cy="598.557" r="1" fill="rgb(0,0,0)" />
	<circle cx="375.095" cy="545.254" r="1" fill="rgb(0,0,0)" />
	<circle cx="375.696" cy="292.365" r="1" fill="rgb(0,0,0)" />
	<circle cx="377.5" cy="963.997" r="1" fill="rgb(0,0,0)" />
	<circle cx="384.847" cy="893.527" r="1" fill="rgb(0,0,0)" />
	<circle cx="390.659" cy="451.339" r="1" fill="rgb(0,0,0)" />
	<circle cx="393.598" cy="146.884" r="1" fill="rgb(0,0,0)" />
	<circle cx="395.201" cy="625.209" r="1" fill="rgb(0,0,0)" />
	<circle cx="396.002" cy="133.992" r="1" fill="rgb(0,0,0)" />
	<circle cx="403.283" cy="1005.01" r="1" fill="rgb(0,0,0)" />
	<circle cx="406.756" cy="309.265" r="1" fill="rgb(0,0,0)" />
	<circle cx="407.892" cy="172.133" r="1" fill="rgb(0,0,0)" />
	<circle cx="409.027" cy="405.718" r="1" fill="rgb(0,0,0)" />
	<circle cx="411.031" cy="871.552" r="1" fill="rgb(0,0,0)" />
	<circle cx="411.766" cy="576.581" r="1" fill="rgb(0,0,0)" />
	<circle cx="412.902" cy="188.631" r="1" fill="rgb(0,0,0)" />
	<circle cx="413.436" cy="1033.87" r="1" fill="rgb(0,0,0)" />
	<circle cx="418.045" cy="169.127" r="1" fill="rgb(0,0,0)" />
	<circle cx="418.312" cy="342.996" r="1" fill="rgb(0,0,0)" />
	<circle cx="420.784" cy="279.474" r="1" fill="rgb(0,0,0)" />
	<circle cx="421.051" cy="951.172" r="1" fill="rgb(0,0,0)" />
	<circle cx="422.921" cy="476.521" r="1" fill="rgb(0,0,0)" />
	<circle cx="426.728" cy="618.596" r="1" fill="rgb(0,0,0)" />
	<circle cx="428.799" cy="1026.32" r="1" fill="rgb(0,0,0)" />
	<circle cx="429.133" cy="176.274" r="1" fill="rgb(0,0,0)" />
	<circle cx="429.667" cy="204.863" r="1" fill="rgb(0,0,0)" />
	<circle cx="432.072" cy="582.66" r="1" fill="rgb(0,0,0)" />
	<circle cx="432.54" cy="864.805" r="1" fill="rgb(0,0,0)" />
	<circle cx="433.007" cy="415.27" r="1" fill="rgb(0,0,0)" />
	<circle cx="433.675" cy="769.888" r="1" fill="rgb(0,0,0)" />
	<circle cx="433.742" cy="706.833" r="1" fill="rgb(0,0,0)" />
	<circle cx="444.496" cy="468.907" r="1" fill="rgb(0,0,0)" />
	<circle cx="445.03" cy="311.602" r="1" fill="rgb(0,0,0)" />
	<circle cx="448.303" cy="358.359" r="1" fill="rgb(0,0,0)" />
	<circle cx="455.317" cy="90.8423" r="1" fill="rgb(0,0,0)" />
	<circle cx="457.922" cy="288.625" r="1" fill="rgb(0,0,0)" />
	<circle cx="458.456" cy="800.214" r="1" fill="rgb(0,0,0)" />
	<circle cx="463.8" cy="447.532" r="1" fill="rgb(0,0,0)" />
	<circle cx="464.602" cy="651.059" r="1" fill="rgb(0,0,0)" />
	<circle cx="470.012" cy="581.457" r="1" fill="rgb(0,0,0)" />
	<circle cx="470.814" cy="555.608" r="1" fill="rgb(0,0,0)" />
	<circle cx="470.947" cy="360.831" r="1" fill="rgb(0,0,0)" />
	<circle cx="471.281" cy="951.239" r="1" fill="rgb(0,0,0)" />
	<circle cx="472.751" cy="187.362" r="1" fill="rgb(0,0,0)" />
	<circle cx="474.755" cy="468.105" r="1" fill="rgb(0,0,0)" />
	<circle cx="475.489" cy="729.611" r="1" fill="rgb(0,0,0)" />
	<circle cx="477.159" cy="505.778" r="1" fill="rgb(0,0,0)" />
	<circle cx="477.627" cy="840.158" r="1" fill="rgb(0,0,0)" />
	<circle cx="478.295" cy="187.295" r="1" fill="rgb(0,0,0)" />
	<circle cx="482.837" cy="67.1966" r="1" fill="rgb(0,0,0)" />
	<circle cx="484.507" cy="835.682" r="1" fill="rgb(0,0,0)" />
	<circle cx="487.713" cy="235.722" r="1" fill="rgb(0,0,0)" />
	<circle cx="493.057" cy="986.04" r="1" fill="rgb(0,0,0)" />
	<circle cx="493.791" cy="586.267" r="1" fill="rgb(0,0,0)" />
	<circle cx="494.059" cy="430.9" r="1" fill="rgb(0,0,0)" />
	<circle cx="495.728" cy="528.889" r="1" fill="rgb(0,0,0)" />
	<circle cx="496.73" cy="821.455" r="1" fill="rgb(0,0,0)" />
	<circle cx="497.732" cy="978.425" r="1" fill="rgb(0,0,0)" />
	<circle cx="499.335" cy="316.211" r="1" fill="rgb(0,0,0)" />
	<circle cx="502.942" cy="800.414" r="1" fill="rgb(0,0,0)" />
	<circle cx="506.082" cy="601.095" r="1" fill="rgb(0,0,0)" />
	<circle cx="511.559" cy="617.861" r="1" fill="rgb(0,0,0)" />
	<circle cx="512.494" cy="775.366" r="1" fill="rgb(0,0,0)" />
	<circle cx="513.897" cy="291.697" r="1" fill="rgb(0,0,0)" />
	<circle cx="515.032" cy="262.174" r="1" fill="rgb(0,0,0)" />
	<circle cx="516.235" cy="232.115" r="1" fill="rgb(0,0,0)" />
	<circle cx="517.504" cy="991.851" r="1" fill="rgb(0,0,0)" />
	<circle cx="518.773" cy="763.61" r="1" fill="rgb(0,0,0)" />
	<circle cx="520.51" cy="601.964" r="1" fill="rgb(0,0,0)" />
	<circle cx="520.844" cy="517" r="1" fill="rgb(0,0,0)" />
	<circle cx="521.445" cy="1022.84" r="1" fill="rgb(0,0,0)" />
	<circle cx="523.649" cy="917.106" r="1" fill="rgb(0,0,0)" />
	<circle cx="526.922" cy="766.816" r="1" fill="rgb(0,0,0)" />
	<circle cx="526.989" cy="134.66" r="1" fill="rgb(0,0,0)" />
	<circle cx="528.191" cy="633.692" r="1" fill="rgb(0,0,0)" />
	<circle cx="528.859" cy="145.682" r="1" fill="rgb(0,0,0)" />
	<circle cx="529.393" cy="98.0562" r="1" fill="rgb(0,0,0)" />
	<circle cx="532.934" cy="944.159" r="1" fill="rgb(0,0,0)" />
	<circle cx="535.205" cy="72.3399" r="1" fill="rgb(0,0,0)" />
	<circle cx="535.606" cy="598.557" r="1" fill="rgb(0,0,0)" />
	<circle cx="536.674" cy="251.687" r="1" fill="rgb(0,0,0)" />
	<circle cx="538.878" cy="519.738" r="1" fill="rgb(0,0,0)" />
	<circle cx="541.484" cy="421.882" r="1" fill="rgb(0,0,0)" />
	<circle cx="546.961" cy="932.403" r="1" fill="rgb(0,0,0)" />
	<circle cx="548.03" cy="596.887" r="1" fill="rgb(0,0,0)" />
	<circle cx="549.098" cy="427.76" r="1" fill="rgb(0,0,0)" />
	<circle cx="552.438" cy="850.311" r="1" fill="rgb(0,0,0)" />
	<circle cx="552.572" cy="941.554" r="1" fill="rgb(0,0,0)" />
	<circle cx="557.114" cy="740.832" r="1" fill="rgb(0,0,0)" />
	<circle cx="558.049" cy="197.515" r="1" fill="rgb(0,0,0)" />
	<circle cx="558.316" cy="385.612" r="1" fill="rgb(0,0,0)" />
	<circle cx="558.65" cy="293.634" r="1" fill="rgb(0,0,0)" />
	<circle cx="558.85" cy="77.3495" r="1" fill="rgb(0,0,0)" />
	<circle cx="560.921" cy="340.458" r="1" fill="rgb(0,0,0)" />
	<circle cx="561.122" cy="267.718" r="1" fill="rgb(0,0,0)" />
	<circle cx="562.324" cy="207.267" r="1" fill="rgb(0,0,0)" />
	<circle cx="564.795" cy="647.919" r="1" fill="rgb(0,0,0)" />
	<circle cx="565.797" cy="494.757" r="1" fill="rgb(0,0,0)" />
	<circle cx="566.064" cy="355.02" r="1" fill="rgb(0,0,0)" />
	<circle cx="569.671" cy="420.279" r="1" fill="rgb(0,0,0)" />
	<circle cx="569.939" cy="734.353" r="1" fill="rgb(0,0,0)" />
	<circle cx="573.946" cy="577.717" r="1" fill="rgb(0,0,0)" />
	<circle cx="574.213" cy="148.821" r="1" fill="rgb(0,0,0)" />
	<circle cx="577.019" cy="619.598" r="1" fill="rgb(0,0,0)" />
	<circle cx="579.357" cy="823.592" r="1" fill="rgb(0,0,0)" />
	<circle cx="581.294" cy="396.901" r="1" fill="rgb(0,0,0)" />
	<circle cx="582.229" cy="780.776" r="1" fill="rgb(0,0,0)" />
	<circle cx="582.429" cy="1040.88" r="1" fill="rgb(0,0,0)" />
	<circle cx="594.252" cy="339.657" r="1" fill="rgb(0,0,0)" />
	<circle cx="594.319" cy="539.977" r="1" fill="rgb(0,0,0)" />
	<circle cx="597.325" cy="934.139" r="1" fill="rgb(0,0,0)" />
	<circle cx="600.665" cy="188.565" r="1" fill="rgb(0,0,0)" />
	<circle cx="602.735" cy="220.025" r="1" fill="rgb(0,0,0)" />
	<circle cx="607.545" cy="452.208" r="1" fill="rgb(0,0,0)" />
	<circle cx="612.02" cy="765.413" r="1" fill="rgb(0,0,0)" />
	<circle cx="613.089" cy="561.686" r="1" fill="rgb(0,0,0)" />
	<circle cx="613.155" cy="369.514" r="1" fill="rgb(0,0,0)" />
	<circle cx="618.232" cy="312.003" r="1" fill="rgb(0,0,0)" />
	<circle cx="620.703" cy="416.338" r="1" fill="rgb(0,0,0)" />
	<circle cx="621.037" cy="216.819" r="1" fill="rgb(0,0,0)" />
	<circle cx="628.184" cy="562.354" r="1" fill="rgb(0,0,0)" />
	<circle cx="628.385" cy="798.21" r="1" fill="rgb(0,0,0)" />
	<circle cx="630.589" cy="49.9633" r="1" fill="rgb(0,0,0)" />
	<circle cx="631.057" cy="134.46" r="1" fill="rgb(0,0,0)" />
	<circle cx="631.992" cy="61.4521" r="1" fill="rgb(0,0,0)" />
	<circle cx="632.125" cy="328.034" r="1" fill="rgb(0,0,0)" />
	<circle cx="633.328" cy="331.04" r="1" fill="rgb(0,0,0)" />
	<circle cx="633.729" cy="645.581" r="1" fill="rgb(0,0,0)" />
	<circle cx="633.795" cy="928.862" r="1" fill="rgb(0,0,0)" />
	<circle cx="634.33" cy="169.261" r="1" fill="rgb(0,0,0)" />
	<circle cx="634.664" cy="950.371" r="1" fill="rgb(0,0,0)" />
	<circle cx="639.072" cy="856.923" r="1" fill="rgb(0,0,0)" />
	<circle cx="640.141" cy="276.267" r="1" fill="rgb(0,0,0)" />
	<circle cx="642.078" cy="299.713" r="1" fill="rgb(0,0,0)" />
	<circle cx="643.013" cy="373.121" r="1" fill="rgb(0,0,0)" />
	<circle cx="648.49" cy="361.632" r="1" fill="rgb(0,0,0)" />
	<circle cx="648.958" cy="173.936" r="1" fill="rgb(0,0,0)" />
	<circle cx="656.439" cy="533.565" r="1" fill="rgb(0,0,0)" />
	<circle cx="656.573" cy="597.021" r="1" fill="rgb(0,0,0)" />
	<circle cx="658.042" cy="189.166" r="1" fill="rgb(0,0,0)" />
	<circle cx="660.714" cy="209.405" r="1" fill="rgb(0,0,0)" />
	<circle cx="660.848" cy="116.225" r="1" fill="rgb(0,0,0)" />
	<circle cx="661.115" cy="669.428" r="1" fill="rgb(0,0,0)" />
	<circle cx="661.783" cy="538.441" r="1" fill="rgb(0,0,0)" />
	<circle cx="662.852" cy="618.997" r="1" fill="rgb(0,0,0)" />
	<circle cx="666.926" cy="1029.19" r="1" fill="rgb(0,0,0)" />
	<circle cx="666.993" cy="291.497" r="1" fill="rgb(0,0,0)" />
	<circle cx="669.665" cy="290.896" r="1" fill="rgb(0,0,0)" />
	<circle cx="671.335" cy="801.082" r="1" fill="rgb(0,0,0)" />
	<circle cx="673.004" cy="870.015" r="1" fill="rgb(0,0,0)" />
	<circle cx="675.476" cy="936.21" r="1" fill="rgb(0,0,0)" />
	<circle cx="676.077" cy="577.65" r="1" fill="rgb(0,0,0)" />
	<circle cx="676.678" cy="220.56" r="1" fill="rgb(0,0,0)" />
	<circle cx="683.157" cy="51.032" r="1" fill="rgb(0,0,0)" />
	<circle cx="685.762" cy="199.987" r="1" fill="rgb(0,0,0)" />
	<circle cx="691.307" cy="841.627" r="1" fill="rgb(0,0,0)" />
	<circle cx="691.707" cy="491.417" r="1" fill="rgb(0,0,0)" />
	<circle cx="695.381" cy="85.365" r="1" fill="rgb(0,0,0)" />
	<circle cx="702.328" cy="393.093" r="1" fill="rgb(0,0,0)" />
	<circle cx="703.53" cy="264.645" r="1" fill="rgb(0,0,0)" />
	<circle cx="703.864" cy="700.688" r="1" fill="rgb(0,0,0)" />
	<circle cx="704.933" cy="767.551" r="1" fill="rgb(0,0,0)" />
	<circle cx="705.4" cy="904.549" r="1" fill="rgb(0,0,0)" />
	<circle cx="706.135" cy="366.308" r="1" fill="rgb(0,0,0)" />
	<circle cx="706.402" cy="888.117" r="1" fill="rgb(0,0,0)" />
	<circle cx="708.139" cy="83.094" r="1" fill="rgb(0,0,0)" />
	<circle cx="709.408" cy="156.837" r="1" fill="rgb(0,0,0)" />
	<circle cx="709.542" cy="669.628" r="1" fill="rgb(0,0,0)" />
	<circle cx="712.481" cy="419.678" r="1" fill="rgb(0,0,0)" />
	<circle cx="712.748" cy="370.784" r="1" fill="rgb(0,0,0)" />
	<circle cx="713.149" cy="777.57" r="1" fill="rgb(0,0,0)" />
	<circle cx="716.422" cy="168.058" r="1" fill="rgb(0,0,0)" />
	<circle cx="717.824" cy="89.2392" r="1" fill="rgb(0,0,0)" />
	<circle cx="722.433" cy="78.3515" r="1" fill="rgb(0,0,0)" />
	<circle cx="723.702" cy="645.715" r="1" fill="rgb(0,0,0)" />
	<circle cx="725.172" cy="615.39" r="1" fill="rgb(0,0,0)" />
	<circle cx="727.71" cy="231.915" r="1" fill="rgb(0,0,0)" />
	<circle cx="729.981" cy="570.436" r="1" fill="rgb(0,0,0)" />
	<circle cx="730.716" cy="142.809" r="1" fill="rgb(0,0,0)" />
	<circle cx="730.916" cy="804.288" r="1" fill="rgb(0,0,0)" />
	<circle cx="733.321" cy="659.742" r="1" fill="rgb(0,0,0)" />
	<circle cx="738.398" cy="937.546" r="1" fill="rgb(0,0,0)" />
	<circle cx="740.201" cy="675.64" r="1" fill="rgb(0,0,0)" />
	<circle cx="740.869" cy="570.57" r="1" fill="rgb(0,0,0)" />
	<circle cx="740.936" cy="586.066" r="1" fill="rgb(0,0,0)" />
	<circle cx="745.344" cy="847.706" r="1" fill="rgb(0,0,0)" />
	<circle cx="750.02" cy="725.536" r="1" fill="rgb(0,0,0)" />
	<circle cx="751.69" cy="587.002" r="1" fill="rgb(0,0,0)" />
	<circle cx="752.158" cy="379.467" r="1" fill="rgb(0,0,0)" />
	<circle cx="754.495" cy="234.52" r="1" fill="rgb(0,0,0)" />
	<circle cx="760.373" cy="470.576" r="1" fill="rgb(0,0,0)" />
	<circle cx="760.774" cy="1014.16" r="1" fill="rgb(0,0,0)" />
	<circle cx="761.91" cy="842.429" r="1" fill="rgb(0,0,0)" />
	<circle cx="767.387" cy="238.327" r="1" fill="rgb(0,0,0)" />
	<circle cx="767.521" cy="815.376" r="1" fill="rgb(0,0,0)" />
	<circle cx="768.589" cy="132.389" r="1" fill="rgb(0,0,0)" />
	<circle cx="769.658" cy="876.695" r="1" fill="rgb(0,0,0)" />
	<circle cx="770.259" cy="460.557" r="1" fill="rgb(0,0,0)" />
	<circle cx="773.065" cy="212.411" r="1" fill="rgb(0,0,0)" />
	<circle cx="783.151" cy="630.218" r="1" fill="rgb(0,0,0)" />
	<circle cx="791.233" cy="204.996" r="1" fill="rgb(0,0,0)" />
	<circle cx="800.184" cy="528.756" r="1" fill="rgb(0,0,0)" />
	<circle cx="805.327" cy="456.683" r="1" fill="rgb(0,0,0)" />
	<circle cx="808.333" cy="297.108" r="1" fill="rgb(0,0,0)" />
	<circle cx="808.8" cy="785.118" r="1" fill="rgb(0,0,0)" />
	<circle cx="810.337" cy="917.106" r="1" fill="rgb(0,0,0)" />
	<circle cx="811.673" cy="703.761" r="1" fill="rgb(0,0,0)" />
	<circle cx="815.48" cy="591.009" r="1" fill="rgb(0,0,0)" />
	<circle cx="817.484" cy="329.637" r="1" fill="rgb(0,0,0)" />
	<circle cx="819.154" cy="253.757" r="1" fill="rgb(0,0,0)" />
	<circle cx="822.627" cy="333.645" r="1" fill="rgb(0,0,0)" />
	<circle cx="824.898" cy="295.505" r="1" fill="rgb(0,0,0)" />
	<circle cx="827.436" cy="606.038" r="1" fill="rgb(0,0,0)" />
	<circle cx="828.038" cy="147.552" r="1" fill="rgb(0,0,0)" />
	<circle cx="828.305" cy="868.947" r="1" fill="rgb(0,0,0)" />
	<circle cx="828.505" cy="242.736" r="1" fill="rgb(0,0,0)" />
	<circle cx="828.973" cy="295.571" r="1" fill="rgb(0,0,0)" />
	<circle cx="835.251" cy="225.569" r="1" fill="rgb(0,0,0)" />
	<circle cx="835.318" cy="502.572" r="1" fill="rgb(0,0,0)" />
	<circle cx="836.521" cy="268.386" r="1" fill="rgb(0,0,0)" />
	<circle cx="837.523" cy="396.7" r="1" fill="rgb(0,0,0)" />
	<circle cx="839.994" cy="864.271" r="1" fill="rgb(0,0,0)" />
	<circle cx="840.395" cy="203.594" r="1" fill="rgb(0,0,0)" />
	<circle cx="845.939" cy="744.239" r="1" fill="rgb(0,0,0)" />
	<circle cx="846.874" cy="718.589" r="1" fill="rgb(0,0,0)" />
	<circle cx="850.815" cy="332.51" r="1" fill="rgb(0,0,0)" />
	<circle cx="853.42" cy="435.175" r="1" fill="rgb(0,0,0)" />
	<circle cx="857.695" cy="1025.18" r="1" fill="rgb(0,0,0)" />
	<circle cx="858.63" cy="105.203" r="1" fill="rgb(0,0,0)" />
	<circle cx="861.769" cy="443.925" r="1" fill="rgb(0,0,0)" />
	<circle cx="861.836" cy="315.61" r="1" fill="rgb(0,0,0)" />
	<circle cx="862.17" cy="376.194" r="1" fill="rgb(0,0,0)" />
	<circle cx="862.304" cy="325.162" r="1" fill="rgb(0,0,0)" />
	<circle cx="863.306" cy="712.578" r="1" fill="rgb(0,0,0)" />
	<circle cx="865.844" cy="74.6109" r="1" fill="rgb(0,0,0)" />
	<circle cx="868.449" cy="696.346" r="1" fill="rgb(0,0,0)" />
	<circle cx="870.987" cy="274.598" r="1" fill="rgb(0,0,0)" />
	<circle cx="874.527" cy="806.693" r="1" fill="rgb(0,0,0)" />
	<circle cx="875.463" cy="1030.19" r="1" fill="rgb(0,0,0)" />
	<circle cx="876.598" cy="76.2808" r="1" fill="rgb(0,0,0)" />
	<circle cx="886.15" cy="868.613" r="1" fill="rgb(0,0,0)" />
	<circle cx="887.619" cy="243.871" r="1" fill="rgb(0,0,0)" />
	<circle cx="888.889" cy="142.075" r="1" fill="rgb(0,0,0)" />
	<circle cx="890.892" cy="365.907" r="1" fill="rgb(0,0,0)" />
	<circle cx="891.293" cy="963.93" r="1" fill="rgb(0,0,0)" />
	<circle cx="891.627" cy="74.4773" r="1" fill="rgb(0,0,0)" />
	<circle cx="893.23" cy="762.341" r="1" fill="rgb(0,0,0)" />
	<circle cx="894.9" cy="139.737" r="1" fill="rgb(0,0,0)" />
	<circle cx="895.702" cy="233.051" r="1" fill="rgb(0,0,0)" />
	<circle cx="895.902" cy="607.441" r="1" fill="rgb(0,0,0)" />
	<circle cx="900.244" cy="72.4734" r="1" fill="rgb(0,0,0)" />
	<circle cx="904.452" cy="62.8549" r="1" fill="rgb(0,0,0)" />
	<circle cx="908.393" cy="62.0533" r="1" fill="rgb(0,0,0)" />
	<circle cx="910.731" cy="602.765" r="1" fill="rgb(0,0,0)" />
	<circle cx="913.069" cy="584.931" r="1" fill="rgb(0,0,0)" />
	<circle cx="915.607" cy="660.009" r="1" fill="rgb(0,0,0)" />
	<circle cx="916.008" cy="815.577" r="1" fill="rgb(0,0,0)" />
	<circle cx="920.416" cy="1004.88" r="1" fill="rgb(0,0,0)" />
	<circle cx="924.29" cy="567.631" r="1" fill="rgb(0,0,0)" />
	<circle cx="924.891" cy="418.075" r="1" fill="rgb(0,0,0)" />
	<circle cx="926.227" cy="526.952" r="1" fill="rgb(0,0,0)" />
	<circle cx="929.768" cy="70.1356" r="1" fill="rgb(0,0,0)" />
	<circle cx="931.705" cy="868.412" r="1" fill="rgb(0,0,0)" />
	<circle cx="933.308" cy="852.515" r="1" fill="rgb(0,0,0)" />
	<circle cx="933.375" cy="155.434" r="1" fill="rgb(0,0,0)" />
	<circle cx="933.508" cy="847.104" r="1" fill="rgb(0,0,0)" />
	<circle cx="935.913" cy="266.382" r="1" fill="rgb(0,0,0)" />
	<circle cx="936.314" cy="63.3224" r="1" fill="rgb(0,0,0)" />
	<circle cx="936.38" cy="332.309" r="1" fill="rgb(0,0,0)" />
	<circle cx="939.453" cy="73.8094" r="1" fill="rgb(0,0,0)" />
	<circle cx="940.321" cy="812.17" r="1" fill="rgb(0,0,0)" />
	<circle cx="941.056" cy="321.689" r="1" fill="rgb(0,0,0)" />
	<circle cx="941.457" cy="252.755" r="1" fill="rgb(0,0,0)" />
	<circle cx="941.924" cy="110.413" r="1" fill="rgb(0,0,0)" />
	<circle cx="943.995" cy="234.32" r="1" fill="rgb(0,0,0)" />
	<circle cx="947.134" cy="204.061" r="1" fill="rgb(0,0,0)" />
	<circle cx="948.938" cy="766.549" r="1" fill="rgb(0,0,0)" />
	<circle cx="951.944" cy="418.943" r="1" fill="rgb(0,0,0)" />
	<circle cx="956.686" cy="105.337" r="1" fill="rgb(0,0,0)" />
	<circle cx="957.087" cy="562.888" r="1" fill="rgb(0,0,0)" />
	<circle cx="957.555" cy="900.073" r="1" fill="rgb(0,0,0)" />
	<circle cx="957.889" cy="961.726" r="1" fill="rgb(0,0,0)" />
	<circle cx="958.089" cy="845.167" r="1" fill="rgb(0,0,0)" />
	<circle cx="961.496" cy="687.997" r="1" fill="rgb(0,0,0)" />
	<circle cx="962.497" cy="404.382" r="1" fill="rgb(0,0,0)" />
	<circle cx="967.374" cy="624.34" r="1" fill="rgb(0,0,0)" />
	<circle cx="968.175" cy="606.64" r="1" fill="rgb(0,0,0)" />
	<circle cx="968.509" cy="712.377" r="1" fill="rgb(0,0,0)" />
	<circle cx="969.377" cy="567.163" r="1" fill="rgb(0,0,0)" />
	<circle cx="972.517" cy="126.979" r="1" fill="rgb(0,0,0)" />
	<circle cx="974.454" cy="431.634" r="1" fill="rgb(0,0,0)" />
	<circle cx="974.454" cy="97.8559" r="1" fill="rgb(0,0,0)" />
	<circle cx="984.807" cy="689.466" r="1" fill="rgb(0,0,0)" />
	<circle cx="988.481" cy="991.851" r="1" fill="rgb(0,0,0)" />
	<circle cx="991.153" cy="645.247" r="1" fill="rgb(0,0,0)" />
	<circle cx="994.827" cy="840.826" r="1" fill="rgb(0,0,0)" />
	<circle cx="996.63" cy="963.997" r="1" fill="rgb(0,0,0)" />
	<circle cx="997.899" cy="809.699" r="1" fill="rgb(0,0,0)" />
	<circle cx="998.567" cy="338.722" r="1" fill="rgb(0,0,0)" />
	<circle cx="1000.3" cy="605.237" r="1" fill="rgb(0,0,0)" />
	<circle cx="1000.57" cy="1045.49" r="1" fill="rgb(0,0,0)" />
	<circle cx="1002.31" cy="629.35" r="1" fill="rgb(0,0,0)" />
	<circle cx="1002.44" cy="764.211" r="1" fill="rgb(0,0,0)" />
	<circle cx="1003.38" cy="917.774" r="1" fill="rgb(0,0,0)" />
	<circle cx="1006.45" cy="372.453" r="1" fill="rgb(0,0,0)" />
	<circle cx="1008.99" cy="550.731" r="1" fill="rgb(0,0,0)" />
	<circle cx="1011.53" cy="277.871" r="1" fill="rgb(0,0,0)" />
	<circle cx="1014" cy="935.141" r="1" fill="rgb(0,0,0)" />
	<circle cx="1015.93" cy="580.055" r="1" fill="rgb(0,0,0)" />
	<circle cx="1021.48" cy="379.333" r="1" fill="rgb(0,0,0)" />
	<circle cx="1024.48" cy="837.887" r="1" fill="rgb(0,0,0)" />
	<circle cx="1026.29" cy="616.392" r="1" fill="rgb(0,0,0)" />
	<circle cx="1026.76" cy="905.217" r="1" fill="rgb(0,0,0)" />
	<circle cx="1028.09" cy="707.835" r="1" fill="rgb(0,0,0)" />
	<circle cx="1028.16" cy="439.784" r="1" fill="rgb(0,0,0)" />
	<circle cx="1029.43" cy="537.706" r="1" fill="rgb(0,0,0)" />
	<circle cx="1030.96" cy="107.541" r="1" fill="rgb(0,0,0)" />
	<circle cx="1034.24" cy="302.719" r="1" fill="rgb(0,0,0)" />
	<circle cx="1034.7" cy="638.434" r="1" fill="rgb(0,0,0)" />
	<circle cx="1036.71" cy="821.722" r="1" fill="rgb(0,0,0)" />
	<circle cx="1038.44" cy="188.164" r="1" fill="rgb(0,0,0)" />
	<circle cx="1040.31" cy="824.527" r="1" fill="rgb(0,0,0)" />
	<circle cx="1043.25" cy="737.426" r="1" fill="rgb(0,0,0)" />
	<circle cx="1044.26" cy="243.07" r="1" fill="rgb(0,0,0)" />
	<circle cx="1044.79" cy="822.19" r="1" fill="rgb(0,0,0)" />
	<circle cx="1050" cy="277.002" r="1" fill="rgb(0,0,0)" />
</svg>
