<?xml version="1.0" standalone="no" ?>
<!DOCTYPE svg PUBLIC "-//W3C//DTD SVG 1.1//EN" "http://www.w3.org/Graphics/SVG/1.1/DTD/svg11.dtd">
<svg width="1100px" height="1075.87px" xmlns="http://www.w3.org/2000/svg" version="1.1" >
	<circle cx="50" cy="173.714" r="1" fill="rgb(0,0,0)" />
	<circle cx="71.18" cy="888.54" r="1" fill="rgb(0,0,0)" />
	<circle cx="81.0136" cy="273.563" r="1" fill="rgb(0,0,0)" />
	<circle cx="89.3343" cy="721.369" r="1" fill="rgb(0,0,0)" />
	<circle cx="130.182" cy="211.536" r="1" fill="rgb(0,0,0)" />
	<circle cx="143.041" cy="48.9032" r="1" fill="rgb(0,0,0)" />
	<circle cx="152.874" cy="185.817" r="1" fill="rgb(0,0,0)" />
	<circle cx="194.478" cy="832.564" r="1" fill="rgb(0,0,0)" />
	<circle cx="239.107" cy="387.027" r="1" fill="rgb(0,0,0)" />
	<circle cx="247.428" cy="517.89" r="1" fill="rgb(0,0,0)" />
	<circle cx="247.428" cy="197.163" r="1" fill="rgb(0,0,0)" />
	<circle cx="258.018" cy="276.589" r="1" fill="rgb(0,0,0)" />
	<circle cx="265.582" cy="164.637" r="1" fill="rgb(0,0,0)" />
	<circle cx="286.006" cy="624.546" r="1" fill="rgb(0,0,0)" />
	<circle cx="341.982" cy="709.266" r="1" fill="rgb(0,0,0)" />
	<circle cx="384.342" cy="930.144" r="1" fill="rgb(0,0,0)" />
	<circle cx="397.201" cy="802.307" r="1" fill="rgb(0,0,0)" />
	<circle cx="453.933" cy="469.478" r="1" fill="rgb(0,0,0)" />
	<circle cx="484.947" cy="984.607" r="1" fill="rgb(0,0,0)" />
	<circle cx="497.05" cy="714.561" r="1" fill="rgb(0,0,0)" />
	<circle cx="504.614" cy="630.598" r="1" fill="rgb(0,0,0)" />
	<circle cx="518.986" cy="1026.97" r="1" fill="rgb(0,0,0)" />
	<circle cx="607.489" cy="781.127" r="1" fill="rgb(0,0,0)" />
	<circle cx="618.079" cy="748.601" r="1" fill="rgb(0,0,0)" />
	<circle cx="618.835" cy="531.505" r="1" fill="rgb(0,0,0)" />
	<circle cx="628.669" cy="70.8396" r="1" fill="rgb(0,0,0)" />
	<circle cx="640.772" cy="212.292" r="1" fill="rgb(0,0,0)" />
	<circle cx="669.516" cy="113.956" r="1" fill="rgb(0,0,0)" />
	<circle cx="680.106" cy="150.265" r="1" fill="rgb(0,0,0)" />
	<circle cx="689.939" cy="360.552" r="1" fill="rgb(0,0,0)" />
	<circle cx="695.991" cy="566.301" r="1" fill="rgb(0,0,0)" />
	<circle cx="697.504" cy="126.815" r="1" fill="rgb(0,0,0)" />
	<circle cx="714.902" cy="812.897" r="1" fill="rgb(0,0,0)" />
	<circle cx="717.927" cy="557.98" r="1" fill="rgb(0,0,0)" />
	<circle cx="792.814" cy="521.672" r="1" fill="rgb(0,0,0)" />
	<circle cx="798.865" cy="217.587" r="1" fill="rgb(0,0,0)" />
	<circle cx="803.404" cy="741.036" r="1" fill="rgb(0,0,0)" />
	<circle cx="831.392" cy="352.231" r="1" fill="rgb(0,0,0)" />
	<circle cx="913.086" cy="525.454" r="1" fill="rgb(0,0,0)" />
	<circle cx="947.882" cy="340.885" r="1" fill="rgb(0,0,0)" />
	<circle cx="963.767" cy="922.579" r="1" fill="rgb(0,0,0)" />
	<circle cx="975.87" cy="927.118" r="1" fill="rgb(0,0,0)" />
	<circle cx="1004.61" cy="321.218" r="1" fill="rgb(0,0,0)" />
	<circle cx="1031.85" cy="769.024" r="1" fill="rgb(0,0,0)" />
	<circle cx="1050" cy="858.283" r="1" fill="rgb(0,0,0)" />
</svg>
