<?xml version="1.0" standalone="no" ?>
<!DOCTYPE svg PUBLIC "-//W3C//DTD SVG 1.1//EN" "http://www.w3.org/Graphics/SVG/1.1/DTD/svg11.dtd">
<svg width="1100px" height="1120.65px" xmlns="http://www.w3.org/2000/svg" version="1.1" >
	<circle cx="50" cy="177.787" r="1" fill="rgb(0,0,0)" />
	<circle cx="71.0466" cy="428.072" r="1" fill="rgb(0,0,0)" />
	<circle cx="84.1297" cy="942.861" r="1" fill="rgb(0,0,0)" />
	<circle cx="94.3686" cy="1027.62" r="1" fill="rgb(0,0,0)" />
	<circle cx="94.9374" cy="827.958" r="1" fill="rgb(0,0,0)" />
	<circle cx="127.361" cy="750.597" r="1" fill="rgb(0,0,0)" />
	<circle cx="159.784" cy="1069.71" r="1" fill="rgb(0,0,0)" />
	<circle cx="162.628" cy="381.428" r="1" fill="rgb(0,0,0)" />
	<circle cx="213.254" cy="664.135" r="1" fill="rgb(0,0,0)" />
	<circle cx="216.667" cy="475.853" r="1" fill="rgb(0,0,0)" />
	<circle cx="234.3" cy="854.693" r="1" fill="rgb(0,0,0)" />
	<circle cx="247.383" cy="344.454" r="1" fill="rgb(0,0,0)" />
	<circle cx="274.687" cy="607.253" r="1" fill="rgb(0,0,0)" />
	<circle cx="300.284" cy="281.883" r="1" fill="rgb(0,0,0)" />
	<circle cx="307.11" cy="535.58" r="1" fill="rgb(0,0,0)" />
	<circle cx="321.9" cy="318.288" r="1" fill="rgb(0,0,0)" />
	<circle cx="325.882" cy="797.241" r="1" fill="rgb(0,0,0)" />
	<circle cx="327.588" cy="175.512" r="1" fill="rgb(0,0,0)" />
	<circle cx="333.845" cy="857.537" r="1" fill="rgb(0,0,0)" />
	<circle cx="349.204" cy="397.355" r="1" fill="rgb(0,0,0)" />
	<circle cx="352.617" cy="696.559" r="1" fill="rgb(0,0,0)" />
	<circle cx="376.507" cy="765.956" r="1" fill="rgb(0,0,0)" />
	<circle cx="377.645" cy="78.8111" r="1" fill="rgb(0,0,0)" />
	<circle cx="378.783" cy="576.536" r="1" fill="rgb(0,0,0)" />
	<circle cx="412.912" cy="584.499" r="1" fill="rgb(0,0,0)" />
	<circle cx="455.006" cy="361.519" r="1" fill="rgb(0,0,0)" />
	<circle cx="463.538" cy="201.109" r="1" fill="rgb(0,0,0)" />
	<circle cx="464.676" cy="861.519" r="1" fill="rgb(0,0,0)" />
	<circle cx="482.309" cy="152.19" r="1" fill="rgb(0,0,0)" />
	<circle cx="484.585" cy="656.172" r="1" fill="rgb(0,0,0)" />
	<circle cx="538.055" cy="555.489" r="1" fill="rgb(0,0,0)" />
	<circle cx="552.275" cy="610.666" r="1" fill="rgb(0,0,0)" />
	<circle cx="557.964" cy="682.907" r="1" fill="rgb(0,0,0)" />
	<circle cx="563.083" cy="848.436" r="1" fill="rgb(0,0,0)" />
	<circle cx="604.608" cy="789.846" r="1" fill="rgb(0,0,0)" />
	<circle cx="604.608" cy="66.8658" r="1" fill="rgb(0,0,0)" />
	<circle cx="604.608" cy="50.9386" r="1" fill="rgb(0,0,0)" />
	<circle cx="611.433" cy="226.138" r="1" fill="rgb(0,0,0)" />
	<circle cx="621.672" cy="851.28" r="1" fill="rgb(0,0,0)" />
	<circle cx="623.379" cy="778.47" r="1" fill="rgb(0,0,0)" />
	<circle cx="641.013" cy="63.4528" r="1" fill="rgb(0,0,0)" />
	<circle cx="642.15" cy="208.504" r="1" fill="rgb(0,0,0)" />
	<circle cx="648.407" cy="1031.6" r="1" fill="rgb(0,0,0)" />
	<circle cx="665.472" cy="804.067" r="1" fill="rgb(0,0,0)" />
	<circle cx="716.667" cy="1015.67" r="1" fill="rgb(0,0,0)" />
	<circle cx="729.75" cy="695.421" r="1" fill="rgb(0,0,0)" />
	<circle cx="743.97" cy="523.635" r="1" fill="rgb(0,0,0)" />
	<circle cx="754.778" cy="95.3072" r="1" fill="rgb(0,0,0)" />
	<circle cx="766.155" cy="536.718" r="1" fill="rgb(0,0,0)" />
	<circle cx="769.568" cy="252.304" r="1" fill="rgb(0,0,0)" />
	<circle cx="833.845" cy="855.83" r="1" fill="rgb(0,0,0)" />
	<circle cx="835.552" cy="958.788" r="1" fill="rgb(0,0,0)" />
	<circle cx="845.791" cy="861.519" r="1" fill="rgb(0,0,0)" />
	<circle cx="915.757" cy="859.812" r="1" fill="rgb(0,0,0)" />
	<circle cx="927.702" cy="527.617" r="1" fill="rgb(0,0,0)" />
	<circle cx="928.84" cy="966.752" r="1" fill="rgb(0,0,0)" />
	<circle cx="1018.15" cy="427.503" r="1" fill="rgb(0,0,0)" />
	<circle cx="1024.4" cy="1015.1" r="1" fill="rgb(0,0,0)" />
	<circle cx="1044.31" cy="173.237" r="1" fill="rgb(0,0,0)" />
	<circle cx="1050" cy="482.11" r="1" fill="rgb(0,0,0)" />
</svg>
