<?xml version="1.0" standalone="no" ?>
<!DOCTYPE svg PUBLIC "-//W3C//DTD SVG 1.1//EN" "http://www.w3.org/Graphics/SVG/1.1/DTD/svg11.dtd">
<svg width="1100px" height="1097.76px" xmlns="http://www.w3.org/2000/svg" version="1.1" >
	<circle cx="50" cy="633.458" r="1" fill="rgb(0,0,0)" />
	<circle cx="56.1141" cy="717.018" r="1" fill="rgb(0,0,0)" />
	<circle cx="60.1902" cy="836.583" r="1" fill="rgb(0,0,0)" />
	<circle cx="80.5707" cy="715.659" r="1" fill="rgb(0,0,0)" />
	<circle cx="116.576" cy="988.077" r="1" fill="rgb(0,0,0)" />
	<circle cx="124.728" cy="305.333" r="1" fill="rgb(0,0,0)" />
	<circle cx="126.087" cy="149.762" r="1" fill="rgb(0,0,0)" />
	<circle cx="143.75" cy="64.8438" r="1" fill="rgb(0,0,0)" />
	<circle cx="172.283" cy="190.523" r="1" fill="rgb(0,0,0)" />
	<circle cx="172.283" cy="72.3166" r="1" fill="rgb(0,0,0)" />
	<circle cx="187.908" cy="49.8981" r="1" fill="rgb(0,0,0)" />
	<circle cx="277.582" cy="991.474" r="1" fill="rgb(0,0,0)" />
	<circle cx="295.245" cy="74.3546" r="1" fill="rgb(0,0,0)" />
	<circle cx="308.832" cy="595.414" r="1" fill="rgb(0,0,0)" />
	<circle cx="325.815" cy="800.577" r="1" fill="rgb(0,0,0)" />
	<circle cx="335.326" cy="375.985" r="1" fill="rgb(0,0,0)" />
	<circle cx="369.973" cy="1001.66" r="1" fill="rgb(0,0,0)" />
	<circle cx="399.864" cy="350.849" r="1" fill="rgb(0,0,0)" />
	<circle cx="421.603" cy="58.0503" r="1" fill="rgb(0,0,0)" />
	<circle cx="441.984" cy="261.855" r="1" fill="rgb(0,0,0)" />
	<circle cx="497.011" cy="600.17" r="1" fill="rgb(0,0,0)" />
	<circle cx="567.663" cy="409.273" r="1" fill="rgb(0,0,0)" />
	<circle cx="572.418" cy="924.219" r="1" fill="rgb(0,0,0)" />
	<circle cx="624.728" cy="957.507" r="1" fill="rgb(0,0,0)" />
	<circle cx="643.071" cy="464.98" r="1" fill="rgb(0,0,0)" />
	<circle cx="646.467" cy="269.327" r="1" fill="rgb(0,0,0)" />
	<circle cx="668.886" cy="342.018" r="1" fill="rgb(0,0,0)" />
	<circle cx="679.755" cy="554.654" r="1" fill="rgb(0,0,0)" />
	<circle cx="689.946" cy="875.306" r="1" fill="rgb(0,0,0)" />
	<circle cx="727.31" cy="937.126" r="1" fill="rgb(0,0,0)" />
	<circle cx="763.315" cy="516.61" r="1" fill="rgb(0,0,0)" />
	<circle cx="783.696" cy="717.018" r="1" fill="rgb(0,0,0)" />
	<circle cx="784.375" cy="195.279" r="1" fill="rgb(0,0,0)" />
	<circle cx="784.375" cy="124.626" r="1" fill="rgb(0,0,0)" />
	<circle cx="841.44" cy="233.322" r="1" fill="rgb(0,0,0)" />
	<circle cx="860.462" cy="710.224" r="1" fill="rgb(0,0,0)" />
	<circle cx="878.804" cy="1047.86" r="1" fill="rgb(0,0,0)" />
	<circle cx="880.163" cy="922.181" r="1" fill="rgb(0,0,0)" />
	<circle cx="888.315" cy="649.762" r="1" fill="rgb(0,0,0)" />
	<circle cx="928.397" cy="372.588" r="1" fill="rgb(0,0,0)" />
	<circle cx="962.364" cy="772.045" r="1" fill="rgb(0,0,0)" />
	<circle cx="963.723" cy="289.029" r="1" fill="rgb(0,0,0)" />
	<circle cx="976.63" cy="401.121" r="1" fill="rgb(0,0,0)" />
	<circle cx="987.5" cy="564.164" r="1" fill="rgb(0,0,0)" />
	<circle cx="990.217" cy="745.55" r="1" fill="rgb(0,0,0)" />
	<circle cx="990.897" cy="427.615" r="1" fill="rgb(0,0,0)" />
	<circle cx="1013.32" cy="214.98" r="1" fill="rgb(0,0,0)" />
	<circle cx="1042.53" cy="998.947" r="1" fill="rgb(0,0,0)" />
	<circle cx="1043.21" cy="234.001" r="1" fill="rgb(0,0,0)" />
	<circle cx="1050" cy="114.436" r="1" fill="rgb(0,0,0)" />
</svg>
