<?xml version="1.0" standalone="no" ?>
<!DOCTYPE svg PUBLIC "-//W3C//DTD SVG 1.1//EN" "http://www.w3.org/Graphics/SVG/1.1/DTD/svg11.dtd">
<svg width="1100px" height="1105.32px" xmlns="http://www.w3.org/2000/svg" version="1.1" >
	<circle cx="50" cy="867.456" r="1" fill="rgb(0,0,0)" />
	<circle cx="58.7041" cy="494.149" r="1" fill="rgb(0,0,0)" />
	<circle cx="85.2998" cy="954.014" r="1" fill="rgb(0,0,0)" />
	<circle cx="91.1025" cy="460.783" r="1" fill="rgb(0,0,0)" />
	<circle cx="105.126" cy="898.888" r="1" fill="rgb(0,0,0)" />
	<circle cx="112.379" cy="668.714" r="1" fill="rgb(0,0,0)" />
	<circle cx="136.074" cy="307.012" r="1" fill="rgb(0,0,0)" />
	<circle cx="192.166" cy="762.524" r="1" fill="rgb(0,0,0)" />
	<circle cx="210.542" cy="109.236" r="1" fill="rgb(0,0,0)" />
	<circle cx="232.785" cy="1055.08" r="1" fill="rgb(0,0,0)" />
	<circle cx="237.137" cy="718.037" r="1" fill="rgb(0,0,0)" />
	<circle cx="240.039" cy="1029.93" r="1" fill="rgb(0,0,0)" />
	<circle cx="253.578" cy="770.261" r="1" fill="rgb(0,0,0)" />
	<circle cx="285.493" cy="287.669" r="1" fill="rgb(0,0,0)" />
	<circle cx="291.779" cy="822.485" r="1" fill="rgb(0,0,0)" />
	<circle cx="297.582" cy="925" r="1" fill="rgb(0,0,0)" />
	<circle cx="304.836" cy="866.489" r="1" fill="rgb(0,0,0)" />
	<circle cx="306.77" cy="491.248" r="1" fill="rgb(0,0,0)" />
	<circle cx="334.816" cy="878.578" r="1" fill="rgb(0,0,0)" />
	<circle cx="344.004" cy="322.969" r="1" fill="rgb(0,0,0)" />
	<circle cx="355.126" cy="827.321" r="1" fill="rgb(0,0,0)" />
	<circle cx="397.195" cy="1001.89" r="1" fill="rgb(0,0,0)" />
	<circle cx="415.087" cy="945.793" r="1" fill="rgb(0,0,0)" />
	<circle cx="416.538" cy="401.306" r="1" fill="rgb(0,0,0)" />
	<circle cx="426.209" cy="274.13" r="1" fill="rgb(0,0,0)" />
	<circle cx="484.72" cy="399.371" r="1" fill="rgb(0,0,0)" />
	<circle cx="510.348" cy="579.255" r="1" fill="rgb(0,0,0)" />
	<circle cx="531.625" cy="819.101" r="1" fill="rgb(0,0,0)" />
	<circle cx="540.329" cy="733.994" r="1" fill="rgb(0,0,0)" />
	<circle cx="550.484" cy="608.269" r="1" fill="rgb(0,0,0)" />
	<circle cx="556.286" cy="803.143" r="1" fill="rgb(0,0,0)" />
	<circle cx="557.737" cy="220.455" r="1" fill="rgb(0,0,0)" />
	<circle cx="565.474" cy="830.222" r="1" fill="rgb(0,0,0)" />
	<circle cx="573.211" cy="431.286" r="1" fill="rgb(0,0,0)" />
	<circle cx="609.961" cy="842.795" r="1" fill="rgb(0,0,0)" />
	<circle cx="633.172" cy="117.94" r="1" fill="rgb(0,0,0)" />
	<circle cx="677.66" cy="718.52" r="1" fill="rgb(0,0,0)" />
	<circle cx="679.11" cy="131.48" r="1" fill="rgb(0,0,0)" />
	<circle cx="688.298" cy="280.416" r="1" fill="rgb(0,0,0)" />
	<circle cx="692.166" cy="58.9458" r="1" fill="rgb(0,0,0)" />
	<circle cx="720.696" cy="265.426" r="1" fill="rgb(0,0,0)" />
	<circle cx="745.841" cy="557.979" r="1" fill="rgb(0,0,0)" />
	<circle cx="753.095" cy="793.956" r="1" fill="rgb(0,0,0)" />
	<circle cx="769.536" cy="807.979" r="1" fill="rgb(0,0,0)" />
	<circle cx="789.362" cy="659.526" r="1" fill="rgb(0,0,0)" />
	<circle cx="789.845" cy="495.6" r="1" fill="rgb(0,0,0)" />
	<circle cx="793.714" cy="50.2418" r="1" fill="rgb(0,0,0)" />
	<circle cx="797.099" cy="750.435" r="1" fill="rgb(0,0,0)" />
	<circle cx="806.77" cy="878.578" r="1" fill="rgb(0,0,0)" />
	<circle cx="821.76" cy="111.17" r="1" fill="rgb(0,0,0)" />
	<circle cx="831.431" cy="264.942" r="1" fill="rgb(0,0,0)" />
	<circle cx="857.544" cy="663.395" r="1" fill="rgb(0,0,0)" />
	<circle cx="886.074" cy="541.054" r="1" fill="rgb(0,0,0)" />
	<circle cx="887.524" cy="486.896" r="1" fill="rgb(0,0,0)" />
	<circle cx="899.13" cy="450.629" r="1" fill="rgb(0,0,0)" />
	<circle cx="907.35" cy="76.354" r="1" fill="rgb(0,0,0)" />
	<circle cx="913.153" cy="377.611" r="1" fill="rgb(0,0,0)" />
	<circle cx="926.692" cy="604.884" r="1" fill="rgb(0,0,0)" />
	<circle cx="933.946" cy="603.917" r="1" fill="rgb(0,0,0)" />
	<circle cx="939.749" cy="249.468" r="1" fill="rgb(0,0,0)" />
	<circle cx="946.035" cy="57.4952" r="1" fill="rgb(0,0,0)" />
	<circle cx="950.87" cy="226.741" r="1" fill="rgb(0,0,0)" />
	<circle cx="993.907" cy="144.536" r="1" fill="rgb(0,0,0)" />
	<circle cx="1007.45" cy="319.584" r="1" fill="rgb(0,0,0)" />
	<circle cx="1013.25" cy="1004.3" r="1" fill="rgb(0,0,0)" />
	<circle cx="1034.04" cy="594.729" r="1" fill="rgb(0,0,0)" />
	<circle cx="1038.88" cy="546.373" r="1" fill="rgb(0,0,0)" />
	<circle cx="1041.3" cy="780.416" r="1" fill="rgb(0,0,0)" />
	<circle cx="1043.23" cy="1042.5" r="1" fill="rgb(0,0,0)" />
	<circle cx="1050" cy="312.814" r="1" fill="rgb(0,0,0)" />
</svg>
