<?xml version="1.0" standalone="no" ?>
<!DOCTYPE svg PUBLIC "-//W3C//DTD SVG 1.1//EN" "http://www.w3.org/Graphics/SVG/1.1/DTD/svg11.dtd">
<svg width="1100px" height="1087.83px" xmlns="http://www.w3.org/2000/svg" version="1.1" >
	<circle cx="50" cy="134.584" r="1" fill="rgb(0,0,0)" />
	<circle cx="50.481" cy="448.677" r="1" fill="rgb(0,0,0)" />
	<circle cx="63.949" cy="572.775" r="1" fill="rgb(0,0,0)" />
	<circle cx="85.113" cy="514.093" r="1" fill="rgb(0,0,0)" />
	<circle cx="105.315" cy="179.317" r="1" fill="rgb(0,0,0)" />
	<circle cx="113.011" cy="357.768" r="1" fill="rgb(0,0,0)" />
	<circle cx="124.555" cy="161.52" r="1" fill="rgb(0,0,0)" />
	<circle cx="148.124" cy="944.108" r="1" fill="rgb(0,0,0)" />
	<circle cx="151.972" cy="532.371" r="1" fill="rgb(0,0,0)" />
	<circle cx="151.972" cy="496.296" r="1" fill="rgb(0,0,0)" />
	<circle cx="152.453" cy="404.425" r="1" fill="rgb(0,0,0)" />
	<circle cx="162.554" cy="530.447" r="1" fill="rgb(0,0,0)" />
	<circle cx="166.402" cy="554.978" r="1" fill="rgb(0,0,0)" />
	<circle cx="175.541" cy="511.207" r="1" fill="rgb(0,0,0)" />
	<circle cx="183.237" cy="165.368" r="1" fill="rgb(0,0,0)" />
	<circle cx="195.262" cy="161.52" r="1" fill="rgb(0,0,0)" />
	<circle cx="201.515" cy="1018.18" r="1" fill="rgb(0,0,0)" />
	<circle cx="218.831" cy="344.781" r="1" fill="rgb(0,0,0)" />
	<circle cx="219.793" cy="1038.38" r="1" fill="rgb(0,0,0)" />
	<circle cx="224.122" cy="465.993" r="1" fill="rgb(0,0,0)" />
	<circle cx="254.906" cy="1031.17" r="1" fill="rgb(0,0,0)" />
	<circle cx="259.235" cy="959.981" r="1" fill="rgb(0,0,0)" />
	<circle cx="276.07" cy="371.236" r="1" fill="rgb(0,0,0)" />
	<circle cx="296.753" cy="511.688" r="1" fill="rgb(0,0,0)" />
	<circle cx="315.512" cy="440.019" r="1" fill="rgb(0,0,0)" />
	<circle cx="319.36" cy="573.256" r="1" fill="rgb(0,0,0)" />
	<circle cx="326.575" cy="792.593" r="1" fill="rgb(0,0,0)" />
	<circle cx="387.662" cy="1027.8" r="1" fill="rgb(0,0,0)" />
	<circle cx="391.029" cy="492.929" r="1" fill="rgb(0,0,0)" />
	<circle cx="426.623" cy="680.038" r="1" fill="rgb(0,0,0)" />
	<circle cx="438.648" cy="330.351" r="1" fill="rgb(0,0,0)" />
	<circle cx="443.458" cy="312.554" r="1" fill="rgb(0,0,0)" />
	<circle cx="480.976" cy="694.949" r="1" fill="rgb(0,0,0)" />
	<circle cx="521.38" cy="279.365" r="1" fill="rgb(0,0,0)" />
	<circle cx="576.215" cy="951.323" r="1" fill="rgb(0,0,0)" />
	<circle cx="590.164" cy="567.484" r="1" fill="rgb(0,0,0)" />
	<circle cx="613.733" cy="831.073" r="1" fill="rgb(0,0,0)" />
	<circle cx="613.733" cy="541.029" r="1" fill="rgb(0,0,0)" />
	<circle cx="638.745" cy="98.0279" r="1" fill="rgb(0,0,0)" />
	<circle cx="643.074" cy="623.28" r="1" fill="rgb(0,0,0)" />
	<circle cx="664.238" cy="54.2569" r="1" fill="rgb(0,0,0)" />
	<circle cx="665.2" cy="136.989" r="1" fill="rgb(0,0,0)" />
	<circle cx="690.212" cy="1029.73" r="1" fill="rgb(0,0,0)" />
	<circle cx="695.984" cy="744.493" r="1" fill="rgb(0,0,0)" />
	<circle cx="701.275" cy="537.662" r="1" fill="rgb(0,0,0)" />
	<circle cx="726.287" cy="424.146" r="1" fill="rgb(0,0,0)" />
	<circle cx="755.147" cy="155.748" r="1" fill="rgb(0,0,0)" />
	<circle cx="759.957" cy="150.938" r="1" fill="rgb(0,0,0)" />
	<circle cx="806.133" cy="61.4719" r="1" fill="rgb(0,0,0)" />
	<circle cx="815.753" cy="908.995" r="1" fill="rgb(0,0,0)" />
	<circle cx="827.778" cy="190.861" r="1" fill="rgb(0,0,0)" />
	<circle cx="851.347" cy="495.815" r="1" fill="rgb(0,0,0)" />
	<circle cx="855.676" cy="618.951" r="1" fill="rgb(0,0,0)" />
	<circle cx="870.106" cy="627.128" r="1" fill="rgb(0,0,0)" />
	<circle cx="910.029" cy="824.339" r="1" fill="rgb(0,0,0)" />
	<circle cx="946.104" cy="407.311" r="1" fill="rgb(0,0,0)" />
	<circle cx="954.281" cy="630.976" r="1" fill="rgb(0,0,0)" />
	<circle cx="956.686" cy="377.008" r="1" fill="rgb(0,0,0)" />
	<circle cx="959.091" cy="805.099" r="1" fill="rgb(0,0,0)" />
	<circle cx="961.015" cy="922.944" r="1" fill="rgb(0,0,0)" />
	<circle cx="963.42" cy="293.795" r="1" fill="rgb(0,0,0)" />
	<circle cx="976.888" cy="375.565" r="1" fill="rgb(0,0,0)" />
	<circle cx="991.318" cy="342.857" r="1" fill="rgb(0,0,0)" />
	<circle cx="1004.3" cy="49.4468" r="1" fill="rgb(0,0,0)" />
	<circle cx="1010.08" cy="154.786" r="1" fill="rgb(0,0,0)" />
	<circle cx="1014.89" cy="880.135" r="1" fill="rgb(0,0,0)" />
	<circle cx="1015.85" cy="316.883" r="1" fill="rgb(0,0,0)" />
	<circle cx="1022.1" cy="229.341" r="1" fill="rgb(0,0,0)" />
	<circle cx="1023.06" cy="68.2059" r="1" fill="rgb(0,0,0)" />
	<circle cx="1050" cy="63.3959" r="1" fill="rgb(0,0,0)" />
</svg>
