<?xml version="1.0" standalone="no" ?>
<!DOCTYPE svg PUBLIC "-//W3C//DTD SVG 1.1//EN" "http://www.w3.org/Graphics/SVG/1.1/DTD/svg11.dtd">
<svg width="1100px" height="1098.07px" xmlns="http://www.w3.org/2000/svg" version="1.1" >
	<circle cx="50" cy="949.234" r="1" fill="rgb(0,0,0)" />
	<circle cx="50" cy="593.305" r="1" fill="rgb(0,0,0)" />
	<circle cx="50.0837" cy="270.851" r="1" fill="rgb(0,0,0)" />
	<circle cx="56.7788" cy="286.083" r="1" fill="rgb(0,0,0)" />
	<circle cx="60.7959" cy="872.91" r="1" fill="rgb(0,0,0)" />
	<circle cx="63.8087" cy="280.475" r="1" fill="rgb(0,0,0)" />
	<circle cx="64.3108" cy="49.9121" r="1" fill="rgb(0,0,0)" />
	<circle cx="64.7293" cy="499.322" r="1" fill="rgb(0,0,0)" />
	<circle cx="74.5209" cy="308.009" r="1" fill="rgb(0,0,0)" />
	<circle cx="76.4457" cy="204.904" r="1" fill="rgb(0,0,0)" />
	<circle cx="76.8642" cy="411.7" r="1" fill="rgb(0,0,0)" />
	<circle cx="77.9521" cy="291.02" r="1" fill="rgb(0,0,0)" />
	<circle cx="79.877" cy="848.389" r="1" fill="rgb(0,0,0)" />
	<circle cx="82.7224" cy="1022.04" r="1" fill="rgb(0,0,0)" />
	<circle cx="85.8189" cy="401.992" r="1" fill="rgb(0,0,0)" />
	<circle cx="86.2373" cy="221.893" r="1" fill="rgb(0,0,0)" />
	<circle cx="86.4047" cy="277.797" r="1" fill="rgb(0,0,0)" />
	<circle cx="89.3338" cy="536.062" r="1" fill="rgb(0,0,0)" />
	<circle cx="91.5934" cy="762.691" r="1" fill="rgb(0,0,0)" />
	<circle cx="93.3509" cy="207.582" r="1" fill="rgb(0,0,0)" />
	<circle cx="94.1041" cy="351.611" r="1" fill="rgb(0,0,0)" />
	<circle cx="94.4389" cy="748.715" r="1" fill="rgb(0,0,0)" />
	<circle cx="94.6899" cy="638.748" r="1" fill="rgb(0,0,0)" />
	<circle cx="95.9453" cy="844.707" r="1" fill="rgb(0,0,0)" />
	<circle cx="96.28" cy="669.211" r="1" fill="rgb(0,0,0)" />
	<circle cx="97.368" cy="993.004" r="1" fill="rgb(0,0,0)" />
	<circle cx="97.619" cy="875.002" r="1" fill="rgb(0,0,0)" />
	<circle cx="97.7864" cy="749.72" r="1" fill="rgb(0,0,0)" />
	<circle cx="104.649" cy="126.153" r="1" fill="rgb(0,0,0)" />
	<circle cx="106.406" cy="889.731" r="1" fill="rgb(0,0,0)" />
	<circle cx="106.49" cy="112.679" r="1" fill="rgb(0,0,0)" />
	<circle cx="107.578" cy="1024.39" r="1" fill="rgb(0,0,0)" />
	<circle cx="108.75" cy="150.172" r="1" fill="rgb(0,0,0)" />
	<circle cx="113.604" cy="165.319" r="1" fill="rgb(0,0,0)" />
	<circle cx="114.189" cy="905.298" r="1" fill="rgb(0,0,0)" />
	<circle cx="115.194" cy="91.2545" r="1" fill="rgb(0,0,0)" />
	<circle cx="115.78" cy="92.0914" r="1" fill="rgb(0,0,0)" />
	<circle cx="117.788" cy="495.556" r="1" fill="rgb(0,0,0)" />
	<circle cx="118.374" cy="587.614" r="1" fill="rgb(0,0,0)" />
	<circle cx="126.575" cy="437.894" r="1" fill="rgb(0,0,0)" />
	<circle cx="128.584" cy="177.538" r="1" fill="rgb(0,0,0)" />
	<circle cx="137.371" cy="85.1452" r="1" fill="rgb(0,0,0)" />
	<circle cx="138.041" cy="909.147" r="1" fill="rgb(0,0,0)" />
	<circle cx="140.133" cy="408.52" r="1" fill="rgb(0,0,0)" />
	<circle cx="143.313" cy="760.432" r="1" fill="rgb(0,0,0)" />
	<circle cx="152.017" cy="1047.74" r="1" fill="rgb(0,0,0)" />
	<circle cx="160.721" cy="346.171" r="1" fill="rgb(0,0,0)" />
	<circle cx="161.557" cy="844.874" r="1" fill="rgb(0,0,0)" />
	<circle cx="163.65" cy="317.55" r="1" fill="rgb(0,0,0)" />
	<circle cx="169.006" cy="567.612" r="1" fill="rgb(0,0,0)" />
	<circle cx="172.27" cy="935.007" r="1" fill="rgb(0,0,0)" />
	<circle cx="172.688" cy="528.781" r="1" fill="rgb(0,0,0)" />
	<circle cx="172.688" cy="492.543" r="1" fill="rgb(0,0,0)" />
	<circle cx="175.534" cy="439.233" r="1" fill="rgb(0,0,0)" />
	<circle cx="178.546" cy="952.749" r="1" fill="rgb(0,0,0)" />
	<circle cx="179.3" cy="692.142" r="1" fill="rgb(0,0,0)" />
	<circle cx="180.387" cy="652.473" r="1" fill="rgb(0,0,0)" />
	<circle cx="181.559" cy="425.927" r="1" fill="rgb(0,0,0)" />
	<circle cx="182.229" cy="685.363" r="1" fill="rgb(0,0,0)" />
	<circle cx="182.396" cy="653.979" r="1" fill="rgb(0,0,0)" />
	<circle cx="182.396" cy="461.997" r="1" fill="rgb(0,0,0)" />
	<circle cx="184.488" cy="311.106" r="1" fill="rgb(0,0,0)" />
	<circle cx="184.739" cy="560.499" r="1" fill="rgb(0,0,0)" />
	<circle cx="185.158" cy="118.035" r="1" fill="rgb(0,0,0)" />
	<circle cx="185.493" cy="239.133" r="1" fill="rgb(0,0,0)" />
	<circle cx="194.531" cy="417.976" r="1" fill="rgb(0,0,0)" />
	<circle cx="195.954" cy="852.49" r="1" fill="rgb(0,0,0)" />
	<circle cx="196.372" cy="283.488" r="1" fill="rgb(0,0,0)" />
	<circle cx="196.539" cy="756.08" r="1" fill="rgb(0,0,0)" />
	<circle cx="200.808" cy="635.735" r="1" fill="rgb(0,0,0)" />
	<circle cx="200.975" cy="345.251" r="1" fill="rgb(0,0,0)" />
	<circle cx="216.709" cy="829.726" r="1" fill="rgb(0,0,0)" />
	<circle cx="224.994" cy="52.4228" r="1" fill="rgb(0,0,0)" />
	<circle cx="225.077" cy="336.547" r="1" fill="rgb(0,0,0)" />
	<circle cx="226.416" cy="282.651" r="1" fill="rgb(0,0,0)" />
	<circle cx="228.927" cy="828.555" r="1" fill="rgb(0,0,0)" />
	<circle cx="229.848" cy="710.637" r="1" fill="rgb(0,0,0)" />
	<circle cx="229.848" cy="247.837" r="1" fill="rgb(0,0,0)" />
	<circle cx="229.931" cy="841.443" r="1" fill="rgb(0,0,0)" />
	<circle cx="231.103" cy="210.428" r="1" fill="rgb(0,0,0)" />
	<circle cx="236.459" cy="790.058" r="1" fill="rgb(0,0,0)" />
	<circle cx="237.129" cy="87.1537" r="1" fill="rgb(0,0,0)" />
	<circle cx="238.468" cy="710.721" r="1" fill="rgb(0,0,0)" />
	<circle cx="241.146" cy="838.346" r="1" fill="rgb(0,0,0)" />
	<circle cx="241.48" cy="302.569" r="1" fill="rgb(0,0,0)" />
	<circle cx="243.154" cy="753.82" r="1" fill="rgb(0,0,0)" />
	<circle cx="243.74" cy="879.521" r="1" fill="rgb(0,0,0)" />
	<circle cx="246" cy="600.418" r="1" fill="rgb(0,0,0)" />
	<circle cx="247.171" cy="463.42" r="1" fill="rgb(0,0,0)" />
	<circle cx="247.506" cy="930.572" r="1" fill="rgb(0,0,0)" />
	<circle cx="247.59" cy="656.741" r="1" fill="rgb(0,0,0)" />
	<circle cx="251.607" cy="658.08" r="1" fill="rgb(0,0,0)" />
	<circle cx="252.946" cy="697.163" r="1" fill="rgb(0,0,0)" />
	<circle cx="253.532" cy="296.795" r="1" fill="rgb(0,0,0)" />
	<circle cx="260.143" cy="565.185" r="1" fill="rgb(0,0,0)" />
	<circle cx="262.905" cy="438.48" r="1" fill="rgb(0,0,0)" />
	<circle cx="264.411" cy="920.947" r="1" fill="rgb(0,0,0)" />
	<circle cx="266.085" cy="363.579" r="1" fill="rgb(0,0,0)" />
	<circle cx="267.089" cy="825.458" r="1" fill="rgb(0,0,0)" />
	<circle cx="277.216" cy="134.689" r="1" fill="rgb(0,0,0)" />
	<circle cx="279.81" cy="657.578" r="1" fill="rgb(0,0,0)" />
	<circle cx="281.902" cy="478.902" r="1" fill="rgb(0,0,0)" />
	<circle cx="283.158" cy="205.908" r="1" fill="rgb(0,0,0)" />
	<circle cx="284.748" cy="341.401" r="1" fill="rgb(0,0,0)" />
	<circle cx="285.919" cy="525.015" r="1" fill="rgb(0,0,0)" />
	<circle cx="287.258" cy="890.819" r="1" fill="rgb(0,0,0)" />
	<circle cx="289.351" cy="800.351" r="1" fill="rgb(0,0,0)" />
	<circle cx="289.602" cy="158.038" r="1" fill="rgb(0,0,0)" />
	<circle cx="290.522" cy="259.72" r="1" fill="rgb(0,0,0)" />
	<circle cx="290.606" cy="855.754" r="1" fill="rgb(0,0,0)" />
	<circle cx="292.614" cy="715.072" r="1" fill="rgb(0,0,0)" />
	<circle cx="295.711" cy="205.992" r="1" fill="rgb(0,0,0)" />
	<circle cx="300.146" cy="799.264" r="1" fill="rgb(0,0,0)" />
	<circle cx="301.067" cy="631.467" r="1" fill="rgb(0,0,0)" />
	<circle cx="305.335" cy="445.677" r="1" fill="rgb(0,0,0)" />
	<circle cx="308.013" cy="786.878" r="1" fill="rgb(0,0,0)" />
	<circle cx="308.683" cy="735.493" r="1" fill="rgb(0,0,0)" />
	<circle cx="308.683" cy="299.222" r="1" fill="rgb(0,0,0)" />
	<circle cx="308.85" cy="689.212" r="1" fill="rgb(0,0,0)" />
	<circle cx="309.352" cy="121.968" r="1" fill="rgb(0,0,0)" />
	<circle cx="311.612" cy="712.645" r="1" fill="rgb(0,0,0)" />
	<circle cx="312.532" cy="209.172" r="1" fill="rgb(0,0,0)" />
	<circle cx="313.537" cy="529.534" r="1" fill="rgb(0,0,0)" />
	<circle cx="313.871" cy="56.6072" r="1" fill="rgb(0,0,0)" />
	<circle cx="317.972" cy="215.951" r="1" fill="rgb(0,0,0)" />
	<circle cx="322.408" cy="506.938" r="1" fill="rgb(0,0,0)" />
	<circle cx="323.747" cy="90.9197" r="1" fill="rgb(0,0,0)" />
	<circle cx="325.002" cy="844.121" r="1" fill="rgb(0,0,0)" />
	<circle cx="325.839" cy="327.927" r="1" fill="rgb(0,0,0)" />
	<circle cx="331.195" cy="455.553" r="1" fill="rgb(0,0,0)" />
	<circle cx="332.116" cy="129.417" r="1" fill="rgb(0,0,0)" />
	<circle cx="333.12" cy="245.912" r="1" fill="rgb(0,0,0)" />
	<circle cx="333.371" cy="509.783" r="1" fill="rgb(0,0,0)" />
	<circle cx="333.873" cy="936.179" r="1" fill="rgb(0,0,0)" />
	<circle cx="334.041" cy="56.1888" r="1" fill="rgb(0,0,0)" />
	<circle cx="344.753" cy="241.058" r="1" fill="rgb(0,0,0)" />
	<circle cx="346.678" cy="203.063" r="1" fill="rgb(0,0,0)" />
	<circle cx="347.431" cy="439.401" r="1" fill="rgb(0,0,0)" />
	<circle cx="347.682" cy="1047.57" r="1" fill="rgb(0,0,0)" />
	<circle cx="347.933" cy="754.657" r="1" fill="rgb(0,0,0)" />
	<circle cx="348.435" cy="829.894" r="1" fill="rgb(0,0,0)" />
	<circle cx="349.105" cy="974.843" r="1" fill="rgb(0,0,0)" />
	<circle cx="351.866" cy="897.347" r="1" fill="rgb(0,0,0)" />
	<circle cx="353.624" cy="447.184" r="1" fill="rgb(0,0,0)" />
	<circle cx="355.298" cy="299.473" r="1" fill="rgb(0,0,0)" />
	<circle cx="357.055" cy="348.933" r="1" fill="rgb(0,0,0)" />
	<circle cx="357.222" cy="227.584" r="1" fill="rgb(0,0,0)" />
	<circle cx="359.398" cy="408.017" r="1" fill="rgb(0,0,0)" />
	<circle cx="360.988" cy="1026.73" r="1" fill="rgb(0,0,0)" />
	<circle cx="361.323" cy="217.039" r="1" fill="rgb(0,0,0)" />
	<circle cx="367.014" cy="604.101" r="1" fill="rgb(0,0,0)" />
	<circle cx="370.78" cy="601.59" r="1" fill="rgb(0,0,0)" />
	<circle cx="370.864" cy="387.43" r="1" fill="rgb(0,0,0)" />
	<circle cx="374.128" cy="754.741" r="1" fill="rgb(0,0,0)" />
	<circle cx="379.986" cy="961.369" r="1" fill="rgb(0,0,0)" />
	<circle cx="380.906" cy="146.824" r="1" fill="rgb(0,0,0)" />
	<circle cx="381.66" cy="65.6457" r="1" fill="rgb(0,0,0)" />
	<circle cx="383.333" cy="289.263" r="1" fill="rgb(0,0,0)" />
	<circle cx="383.417" cy="214.863" r="1" fill="rgb(0,0,0)" />
	<circle cx="385.342" cy="830.312" r="1" fill="rgb(0,0,0)" />
	<circle cx="390.531" cy="471.788" r="1" fill="rgb(0,0,0)" />
	<circle cx="392.204" cy="1048.15" r="1" fill="rgb(0,0,0)" />
	<circle cx="397.309" cy="870.232" r="1" fill="rgb(0,0,0)" />
	<circle cx="404.339" cy="306.754" r="1" fill="rgb(0,0,0)" />
	<circle cx="404.423" cy="925.718" r="1" fill="rgb(0,0,0)" />
	<circle cx="405.176" cy="795.414" r="1" fill="rgb(0,0,0)" />
	<circle cx="415.721" cy="215.449" r="1" fill="rgb(0,0,0)" />
	<circle cx="420.91" cy="218.211" r="1" fill="rgb(0,0,0)" />
	<circle cx="421.412" cy="379.396" r="1" fill="rgb(0,0,0)" />
	<circle cx="423.169" cy="514.051" r="1" fill="rgb(0,0,0)" />
	<circle cx="423.337" cy="773.153" r="1" fill="rgb(0,0,0)" />
	<circle cx="426.684" cy="518.068" r="1" fill="rgb(0,0,0)" />
	<circle cx="427.019" cy="994.51" r="1" fill="rgb(0,0,0)" />
	<circle cx="430.952" cy="926.555" r="1" fill="rgb(0,0,0)" />
	<circle cx="435.89" cy="600.335" r="1" fill="rgb(0,0,0)" />
	<circle cx="436.141" cy="89.1623" r="1" fill="rgb(0,0,0)" />
	<circle cx="440.409" cy="446.347" r="1" fill="rgb(0,0,0)" />
	<circle cx="442.083" cy="457.896" r="1" fill="rgb(0,0,0)" />
	<circle cx="442.167" cy="753.235" r="1" fill="rgb(0,0,0)" />
	<circle cx="445.431" cy="801.858" r="1" fill="rgb(0,0,0)" />
	<circle cx="445.682" cy="667.286" r="1" fill="rgb(0,0,0)" />
	<circle cx="448.025" cy="133.936" r="1" fill="rgb(0,0,0)" />
	<circle cx="449.197" cy="262.817" r="1" fill="rgb(0,0,0)" />
	<circle cx="454.636" cy="820.186" r="1" fill="rgb(0,0,0)" />
	<circle cx="455.641" cy="988.15" r="1" fill="rgb(0,0,0)" />
	<circle cx="455.975" cy="434.212" r="1" fill="rgb(0,0,0)" />
	<circle cx="457.063" cy="805.122" r="1" fill="rgb(0,0,0)" />
	<circle cx="463.591" cy="714.654" r="1" fill="rgb(0,0,0)" />
	<circle cx="463.758" cy="354.205" r="1" fill="rgb(0,0,0)" />
	<circle cx="465.767" cy="694.903" r="1" fill="rgb(0,0,0)" />
	<circle cx="468.612" cy="303.825" r="1" fill="rgb(0,0,0)" />
	<circle cx="473.885" cy="463.42" r="1" fill="rgb(0,0,0)" />
	<circle cx="477.149" cy="651.803" r="1" fill="rgb(0,0,0)" />
	<circle cx="479.492" cy="108.829" r="1" fill="rgb(0,0,0)" />
	<circle cx="482.254" cy="165.654" r="1" fill="rgb(0,0,0)" />
	<circle cx="482.337" cy="521.751" r="1" fill="rgb(0,0,0)" />
	<circle cx="483.174" cy="549.201" r="1" fill="rgb(0,0,0)" />
	<circle cx="484.597" cy="133.35" r="1" fill="rgb(0,0,0)" />
	<circle cx="484.681" cy="1047.4" r="1" fill="rgb(0,0,0)" />
	<circle cx="485.183" cy="1009.91" r="1" fill="rgb(0,0,0)" />
	<circle cx="490.037" cy="774.994" r="1" fill="rgb(0,0,0)" />
	<circle cx="491.962" cy="781.187" r="1" fill="rgb(0,0,0)" />
	<circle cx="492.715" cy="640.171" r="1" fill="rgb(0,0,0)" />
	<circle cx="496.23" cy="256.206" r="1" fill="rgb(0,0,0)" />
	<circle cx="501.084" cy="172.768" r="1" fill="rgb(0,0,0)" />
	<circle cx="501.335" cy="163.394" r="1" fill="rgb(0,0,0)" />
	<circle cx="501.502" cy="208.754" r="1" fill="rgb(0,0,0)" />
	<circle cx="509.787" cy="376.467" r="1" fill="rgb(0,0,0)" />
	<circle cx="510.624" cy="88.3254" r="1" fill="rgb(0,0,0)" />
	<circle cx="514.976" cy="323.157" r="1" fill="rgb(0,0,0)" />
	<circle cx="521.337" cy="274.366" r="1" fill="rgb(0,0,0)" />
	<circle cx="521.42" cy="232.605" r="1" fill="rgb(0,0,0)" />
	<circle cx="526.944" cy="936.765" r="1" fill="rgb(0,0,0)" />
	<circle cx="527.111" cy="79.0359" r="1" fill="rgb(0,0,0)" />
	<circle cx="529.454" cy="858.348" r="1" fill="rgb(0,0,0)" />
	<circle cx="532.886" cy="382.911" r="1" fill="rgb(0,0,0)" />
	<circle cx="537.488" cy="392.451" r="1" fill="rgb(0,0,0)" />
	<circle cx="544.1" cy="1014.85" r="1" fill="rgb(0,0,0)" />
	<circle cx="551.046" cy="500.912" r="1" fill="rgb(0,0,0)" />
	<circle cx="551.213" cy="675.571" r="1" fill="rgb(0,0,0)" />
	<circle cx="551.381" cy="383.831" r="1" fill="rgb(0,0,0)" />
	<circle cx="551.381" cy="308.344" r="1" fill="rgb(0,0,0)" />
	<circle cx="558.494" cy="617.156" r="1" fill="rgb(0,0,0)" />
	<circle cx="564.938" cy="860.608" r="1" fill="rgb(0,0,0)" />
	<circle cx="566.612" cy="1043.22" r="1" fill="rgb(0,0,0)" />
	<circle cx="569.625" cy="462.583" r="1" fill="rgb(0,0,0)" />
	<circle cx="572.052" cy="242.815" r="1" fill="rgb(0,0,0)" />
	<circle cx="574.897" cy="390.108" r="1" fill="rgb(0,0,0)" />
	<circle cx="576.655" cy="565.604" r="1" fill="rgb(0,0,0)" />
	<circle cx="577.324" cy="391.029" r="1" fill="rgb(0,0,0)" />
	<circle cx="578.663" cy="318.805" r="1" fill="rgb(0,0,0)" />
	<circle cx="584.438" cy="248.841" r="1" fill="rgb(0,0,0)" />
	<circle cx="584.856" cy="362.909" r="1" fill="rgb(0,0,0)" />
	<circle cx="584.856" cy="124.563" r="1" fill="rgb(0,0,0)" />
	<circle cx="586.363" cy="847.803" r="1" fill="rgb(0,0,0)" />
	<circle cx="587.032" cy="761.771" r="1" fill="rgb(0,0,0)" />
	<circle cx="587.451" cy="438.229" r="1" fill="rgb(0,0,0)" />
	<circle cx="588.204" cy="954.256" r="1" fill="rgb(0,0,0)" />
	<circle cx="588.874" cy="681.429" r="1" fill="rgb(0,0,0)" />
	<circle cx="598.247" cy="462.164" r="1" fill="rgb(0,0,0)" />
	<circle cx="602.096" cy="536.313" r="1" fill="rgb(0,0,0)" />
	<circle cx="603.184" cy="236.288" r="1" fill="rgb(0,0,0)" />
	<circle cx="604.858" cy="240.137" r="1" fill="rgb(0,0,0)" />
	<circle cx="605.528" cy="335.041" r="1" fill="rgb(0,0,0)" />
	<circle cx="607.034" cy="282.902" r="1" fill="rgb(0,0,0)" />
	<circle cx="608.875" cy="1044.89" r="1" fill="rgb(0,0,0)" />
	<circle cx="610.214" cy="1045.98" r="1" fill="rgb(0,0,0)" />
	<circle cx="619.002" cy="189.254" r="1" fill="rgb(0,0,0)" />
	<circle cx="620.759" cy="337.217" r="1" fill="rgb(0,0,0)" />
	<circle cx="621.931" cy="316.964" r="1" fill="rgb(0,0,0)" />
	<circle cx="622.768" cy="363.913" r="1" fill="rgb(0,0,0)" />
	<circle cx="628.542" cy="985.974" r="1" fill="rgb(0,0,0)" />
	<circle cx="630.216" cy="998.527" r="1" fill="rgb(0,0,0)" />
	<circle cx="633.312" cy="854.749" r="1" fill="rgb(0,0,0)" />
	<circle cx="634.568" cy="365.671" r="1" fill="rgb(0,0,0)" />
	<circle cx="634.819" cy="152.682" r="1" fill="rgb(0,0,0)" />
	<circle cx="635.488" cy="70.7507" r="1" fill="rgb(0,0,0)" />
	<circle cx="635.572" cy="319.223" r="1" fill="rgb(0,0,0)" />
	<circle cx="635.572" cy="288.091" r="1" fill="rgb(0,0,0)" />
	<circle cx="644.694" cy="1001.79" r="1" fill="rgb(0,0,0)" />
	<circle cx="645.28" cy="873.412" r="1" fill="rgb(0,0,0)" />
	<circle cx="650.385" cy="214.11" r="1" fill="rgb(0,0,0)" />
	<circle cx="655.574" cy="691.472" r="1" fill="rgb(0,0,0)" />
	<circle cx="657.08" cy="739.928" r="1" fill="rgb(0,0,0)" />
	<circle cx="657.666" cy="650.297" r="1" fill="rgb(0,0,0)" />
	<circle cx="658.335" cy="482.333" r="1" fill="rgb(0,0,0)" />
	<circle cx="661.767" cy="639.501" r="1" fill="rgb(0,0,0)" />
	<circle cx="666.37" cy="1021.37" r="1" fill="rgb(0,0,0)" />
	<circle cx="667.123" cy="745.786" r="1" fill="rgb(0,0,0)" />
	<circle cx="672.479" cy="659.084" r="1" fill="rgb(0,0,0)" />
	<circle cx="675.073" cy="149.251" r="1" fill="rgb(0,0,0)" />
	<circle cx="680.931" cy="915.089" r="1" fill="rgb(0,0,0)" />
	<circle cx="681.768" cy="791.732" r="1" fill="rgb(0,0,0)" />
	<circle cx="683.275" cy="872.24" r="1" fill="rgb(0,0,0)" />
	<circle cx="685.032" cy="922.705" r="1" fill="rgb(0,0,0)" />
	<circle cx="687.961" cy="878.015" r="1" fill="rgb(0,0,0)" />
	<circle cx="691.058" cy="188.752" r="1" fill="rgb(0,0,0)" />
	<circle cx="693.317" cy="741.434" r="1" fill="rgb(0,0,0)" />
	<circle cx="693.736" cy="198.962" r="1" fill="rgb(0,0,0)" />
	<circle cx="695.995" cy="121.131" r="1" fill="rgb(0,0,0)" />
	<circle cx="704.532" cy="406.26" r="1" fill="rgb(0,0,0)" />
	<circle cx="709.469" cy="319.893" r="1" fill="rgb(0,0,0)" />
	<circle cx="710.474" cy="945.217" r="1" fill="rgb(0,0,0)" />
	<circle cx="711.394" cy="275.036" r="1" fill="rgb(0,0,0)" />
	<circle cx="718.508" cy="457.896" r="1" fill="rgb(0,0,0)" />
	<circle cx="729.136" cy="902.871" r="1" fill="rgb(0,0,0)" />
	<circle cx="730.224" cy="1009.16" r="1" fill="rgb(0,0,0)" />
	<circle cx="738.928" cy="333.785" r="1" fill="rgb(0,0,0)" />
	<circle cx="745.205" cy="154.607" r="1" fill="rgb(0,0,0)" />
	<circle cx="746.125" cy="607.197" r="1" fill="rgb(0,0,0)" />
	<circle cx="746.711" cy="883.622" r="1" fill="rgb(0,0,0)" />
	<circle cx="746.795" cy="400.402" r="1" fill="rgb(0,0,0)" />
	<circle cx="747.799" cy="352.699" r="1" fill="rgb(0,0,0)" />
	<circle cx="749.389" cy="1011" r="1" fill="rgb(0,0,0)" />
	<circle cx="750.31" cy="95.2716" r="1" fill="rgb(0,0,0)" />
	<circle cx="751.565" cy="686.451" r="1" fill="rgb(0,0,0)" />
	<circle cx="751.565" cy="218.043" r="1" fill="rgb(0,0,0)" />
	<circle cx="754.578" cy="536.982" r="1" fill="rgb(0,0,0)" />
	<circle cx="754.578" cy="332.028" r="1" fill="rgb(0,0,0)" />
	<circle cx="757.34" cy="1027.73" r="1" fill="rgb(0,0,0)" />
	<circle cx="769.893" cy="526.939" r="1" fill="rgb(0,0,0)" />
	<circle cx="774.077" cy="65.0598" r="1" fill="rgb(0,0,0)" />
	<circle cx="776.421" cy="891.907" r="1" fill="rgb(0,0,0)" />
	<circle cx="777.174" cy="1014.85" r="1" fill="rgb(0,0,0)" />
	<circle cx="780.27" cy="726.789" r="1" fill="rgb(0,0,0)" />
	<circle cx="780.689" cy="941.116" r="1" fill="rgb(0,0,0)" />
	<circle cx="783.953" cy="822.613" r="1" fill="rgb(0,0,0)" />
	<circle cx="784.873" cy="918.353" r="1" fill="rgb(0,0,0)" />
	<circle cx="794.33" cy="909.9" r="1" fill="rgb(0,0,0)" />
	<circle cx="795.502" cy="898.853" r="1" fill="rgb(0,0,0)" />
	<circle cx="800.523" cy="390.694" r="1" fill="rgb(0,0,0)" />
	<circle cx="800.774" cy="923.207" r="1" fill="rgb(0,0,0)" />
	<circle cx="810.566" cy="100.879" r="1" fill="rgb(0,0,0)" />
	<circle cx="812.574" cy="287.756" r="1" fill="rgb(0,0,0)" />
	<circle cx="814.666" cy="342.824" r="1" fill="rgb(0,0,0)" />
	<circle cx="817.093" cy="608.285" r="1" fill="rgb(0,0,0)" />
	<circle cx="820.441" cy="281.145" r="1" fill="rgb(0,0,0)" />
	<circle cx="821.194" cy="654.23" r="1" fill="rgb(0,0,0)" />
	<circle cx="824.207" cy="518.32" r="1" fill="rgb(0,0,0)" />
	<circle cx="830.316" cy="96.1921" r="1" fill="rgb(0,0,0)" />
	<circle cx="837.346" cy="759.511" r="1" fill="rgb(0,0,0)" />
	<circle cx="837.43" cy="945.301" r="1" fill="rgb(0,0,0)" />
	<circle cx="837.597" cy="873.161" r="1" fill="rgb(0,0,0)" />
	<circle cx="838.016" cy="667.704" r="1" fill="rgb(0,0,0)" />
	<circle cx="842.535" cy="378.391" r="1" fill="rgb(0,0,0)" />
	<circle cx="845.38" cy="838.346" r="1" fill="rgb(0,0,0)" />
	<circle cx="846.385" cy="608.62" r="1" fill="rgb(0,0,0)" />
	<circle cx="846.385" cy="58.6158" r="1" fill="rgb(0,0,0)" />
	<circle cx="849.481" cy="950.406" r="1" fill="rgb(0,0,0)" />
	<circle cx="850.485" cy="931.66" r="1" fill="rgb(0,0,0)" />
	<circle cx="850.736" cy="769.219" r="1" fill="rgb(0,0,0)" />
	<circle cx="851.239" cy="743.359" r="1" fill="rgb(0,0,0)" />
	<circle cx="854.586" cy="688.961" r="1" fill="rgb(0,0,0)" />
	<circle cx="858.603" cy="404.419" r="1" fill="rgb(0,0,0)" />
	<circle cx="863.708" cy="619.332" r="1" fill="rgb(0,0,0)" />
	<circle cx="865.717" cy="718.838" r="1" fill="rgb(0,0,0)" />
	<circle cx="867.976" cy="1044.89" r="1" fill="rgb(0,0,0)" />
	<circle cx="868.144" cy="342.656" r="1" fill="rgb(0,0,0)" />
	<circle cx="870.069" cy="72.4245" r="1" fill="rgb(0,0,0)" />
	<circle cx="876.262" cy="485.011" r="1" fill="rgb(0,0,0)" />
	<circle cx="882.371" cy="451.034" r="1" fill="rgb(0,0,0)" />
	<circle cx="883.71" cy="826.128" r="1" fill="rgb(0,0,0)" />
	<circle cx="884.965" cy="129.082" r="1" fill="rgb(0,0,0)" />
	<circle cx="887.978" cy="280.559" r="1" fill="rgb(0,0,0)" />
	<circle cx="889.401" cy="296.46" r="1" fill="rgb(0,0,0)" />
	<circle cx="890.656" cy="606.36" r="1" fill="rgb(0,0,0)" />
	<circle cx="890.823" cy="373.203" r="1" fill="rgb(0,0,0)" />
	<circle cx="897.853" cy="159.461" r="1" fill="rgb(0,0,0)" />
	<circle cx="905.804" cy="152.766" r="1" fill="rgb(0,0,0)" />
	<circle cx="906.808" cy="704.36" r="1" fill="rgb(0,0,0)" />
	<circle cx="910.825" cy="472.542" r="1" fill="rgb(0,0,0)" />
	<circle cx="913.671" cy="807.298" r="1" fill="rgb(0,0,0)" />
	<circle cx="914.089" cy="908.143" r="1" fill="rgb(0,0,0)" />
	<circle cx="916.6" cy="785.036" r="1" fill="rgb(0,0,0)" />
	<circle cx="916.851" cy="260.139" r="1" fill="rgb(0,0,0)" />
	<circle cx="919.194" cy="74.8515" r="1" fill="rgb(0,0,0)" />
	<circle cx="923.044" cy="744.531" r="1" fill="rgb(0,0,0)" />
	<circle cx="923.044" cy="252.942" r="1" fill="rgb(0,0,0)" />
	<circle cx="926.475" cy="91.3382" r="1" fill="rgb(0,0,0)" />
	<circle cx="934.76" cy="881.781" r="1" fill="rgb(0,0,0)" />
	<circle cx="936.769" cy="550.54" r="1" fill="rgb(0,0,0)" />
	<circle cx="937.773" cy="613.558" r="1" fill="rgb(0,0,0)" />
	<circle cx="941.288" cy="548.029" r="1" fill="rgb(0,0,0)" />
	<circle cx="946.811" cy="284.827" r="1" fill="rgb(0,0,0)" />
	<circle cx="955.264" cy="1042.13" r="1" fill="rgb(0,0,0)" />
	<circle cx="955.515" cy="858.934" r="1" fill="rgb(0,0,0)" />
	<circle cx="956.268" cy="738.254" r="1" fill="rgb(0,0,0)" />
	<circle cx="957.189" cy="359.561" r="1" fill="rgb(0,0,0)" />
	<circle cx="958.444" cy="836.505" r="1" fill="rgb(0,0,0)" />
	<circle cx="966.06" cy="774.826" r="1" fill="rgb(0,0,0)" />
	<circle cx="966.06" cy="455.385" r="1" fill="rgb(0,0,0)" />
	<circle cx="968.738" cy="480.241" r="1" fill="rgb(0,0,0)" />
	<circle cx="968.989" cy="126.488" r="1" fill="rgb(0,0,0)" />
	<circle cx="969.324" cy="175.278" r="1" fill="rgb(0,0,0)" />
	<circle cx="977.609" cy="967.06" r="1" fill="rgb(0,0,0)" />
	<circle cx="979.618" cy="340.983" r="1" fill="rgb(0,0,0)" />
	<circle cx="980.036" cy="374.458" r="1" fill="rgb(0,0,0)" />
	<circle cx="981.208" cy="735.325" r="1" fill="rgb(0,0,0)" />
	<circle cx="987.568" cy="1005.64" r="1" fill="rgb(0,0,0)" />
	<circle cx="988.154" cy="633.225" r="1" fill="rgb(0,0,0)" />
	<circle cx="989.074" cy="208.419" r="1" fill="rgb(0,0,0)" />
	<circle cx="989.911" cy="859.52" r="1" fill="rgb(0,0,0)" />
	<circle cx="997.36" cy="717.918" r="1" fill="rgb(0,0,0)" />
	<circle cx="997.527" cy="915.842" r="1" fill="rgb(0,0,0)" />
	<circle cx="1001.46" cy="663.353" r="1" fill="rgb(0,0,0)" />
	<circle cx="1007.15" cy="792.819" r="1" fill="rgb(0,0,0)" />
	<circle cx="1008.24" cy="82.2161" r="1" fill="rgb(0,0,0)" />
	<circle cx="1012.51" cy="85.1452" r="1" fill="rgb(0,0,0)" />
	<circle cx="1013.34" cy="774.575" r="1" fill="rgb(0,0,0)" />
	<circle cx="1013.6" cy="557.737" r="1" fill="rgb(0,0,0)" />
	<circle cx="1022.55" cy="417.474" r="1" fill="rgb(0,0,0)" />
	<circle cx="1023.22" cy="373.872" r="1" fill="rgb(0,0,0)" />
	<circle cx="1025.4" cy="685.949" r="1" fill="rgb(0,0,0)" />
	<circle cx="1025.98" cy="360.817" r="1" fill="rgb(0,0,0)" />
	<circle cx="1034.18" cy="638.079" r="1" fill="rgb(0,0,0)" />
	<circle cx="1036.28" cy="308.762" r="1" fill="rgb(0,0,0)" />
	<circle cx="1038.37" cy="714.821" r="1" fill="rgb(0,0,0)" />
	<circle cx="1045.23" cy="425.006" r="1" fill="rgb(0,0,0)" />
	<circle cx="1049.75" cy="691.974" r="1" fill="rgb(0,0,0)" />
	<circle cx="1050" cy="963.629" r="1" fill="rgb(0,0,0)" />
</svg>
