<?xml version="1.0" standalone="no" ?>
<!DOCTYPE svg PUBLIC "-//W3C//DTD SVG 1.1//EN" "http://www.w3.org/Graphics/SVG/1.1/DTD/svg11.dtd">
<svg width="1100px" height="1023.44px" xmlns="http://www.w3.org/2000/svg" version="1.1" >
	<circle cx="50" cy="667.399" r="1" fill="rgb(0,0,0)" />
	<circle cx="64.652" cy="976.923" r="1" fill="rgb(0,0,0)" />
	<circle cx="115.934" cy="830.403" r="1" fill="rgb(0,0,0)" />
	<circle cx="185.531" cy="542.857" r="1" fill="rgb(0,0,0)" />
	<circle cx="203.846" cy="680.22" r="1" fill="rgb(0,0,0)" />
	<circle cx="203.846" cy="191.209" r="1" fill="rgb(0,0,0)" />
	<circle cx="229.487" cy="940.293" r="1" fill="rgb(0,0,0)" />
	<circle cx="300.916" cy="837.729" r="1" fill="rgb(0,0,0)" />
	<circle cx="344.872" cy="236.996" r="1" fill="rgb(0,0,0)" />
	<circle cx="463.919" cy="46.5201" r="1" fill="rgb(0,0,0)" />
	<circle cx="601.282" cy="656.41" r="1" fill="rgb(0,0,0)" />
	<circle cx="645.238" cy="542.857" r="1" fill="rgb(0,0,0)" />
	<circle cx="659.89" cy="707.692" r="1" fill="rgb(0,0,0)" />
	<circle cx="709.341" cy="242.491" r="1" fill="rgb(0,0,0)" />
	<circle cx="839.377" cy="277.289" r="1" fill="rgb(0,0,0)" />
	<circle cx="843.04" cy="801.099" r="1" fill="rgb(0,0,0)" />
	<circle cx="905.311" cy="410.989" r="1" fill="rgb(0,0,0)" />
	<circle cx="930.952" cy="936.63" r="1" fill="rgb(0,0,0)" />
	<circle cx="1042.67" cy="313.919" r="1" fill="rgb(0,0,0)" />
	<circle cx="1050" cy="806.593" r="1" fill="rgb(0,0,0)" />
</svg>
