<?xml version="1.0" standalone="no" ?>
<!DOCTYPE svg PUBLIC "-//W3C//DTD SVG 1.1//EN" "http://www.w3.org/Graphics/SVG/1.1/DTD/svg11.dtd">
<svg width="1100px" height="1137.47px" xmlns="http://www.w3.org/2000/svg" version="1.1" >
	<circle cx="50" cy="652.576" r="1" fill="rgb(0,0,0)" />
	<circle cx="58.7336" cy="111.965" r="1" fill="rgb(0,0,0)" />
	<circle cx="62.2271" cy="359.127" r="1" fill="rgb(0,0,0)" />
	<circle cx="75.3275" cy="375.721" r="1" fill="rgb(0,0,0)" />
	<circle cx="77.9476" cy="547.773" r="1" fill="rgb(0,0,0)" />
	<circle cx="78.821" cy="740.786" r="1" fill="rgb(0,0,0)" />
	<circle cx="89.3013" cy="688.384" r="1" fill="rgb(0,0,0)" />
	<circle cx="108.515" cy="977.467" r="1" fill="rgb(0,0,0)" />
	<circle cx="183.624" cy="263.057" r="1" fill="rgb(0,0,0)" />
	<circle cx="183.624" cy="51.7031" r="1" fill="rgb(0,0,0)" />
	<circle cx="222.926" cy="102.358" r="1" fill="rgb(0,0,0)" />
	<circle cx="236.026" cy="945.153" r="1" fill="rgb(0,0,0)" />
	<circle cx="319.869" cy="58.69" r="1" fill="rgb(0,0,0)" />
	<circle cx="349.563" cy="899.738" r="1" fill="rgb(0,0,0)" />
	<circle cx="394.105" cy="862.183" r="1" fill="rgb(0,0,0)" />
	<circle cx="410.699" cy="1051.7" r="1" fill="rgb(0,0,0)" />
	<circle cx="428.166" cy="188.821" r="1" fill="rgb(0,0,0)" />
	<circle cx="446.507" cy="918.079" r="1" fill="rgb(0,0,0)" />
	<circle cx="465.721" cy="435.983" r="1" fill="rgb(0,0,0)" />
	<circle cx="469.214" cy="433.362" r="1" fill="rgb(0,0,0)" />
	<circle cx="501.528" cy="789.694" r="1" fill="rgb(0,0,0)" />
	<circle cx="539.083" cy="69.1703" r="1" fill="rgb(0,0,0)" />
	<circle cx="581.878" cy="357.38" r="1" fill="rgb(0,0,0)" />
	<circle cx="590.611" cy="946.9" r="1" fill="rgb(0,0,0)" />
	<circle cx="628.166" cy="837.729" r="1" fill="rgb(0,0,0)" />
	<circle cx="640.393" cy="548.646" r="1" fill="rgb(0,0,0)" />
	<circle cx="654.367" cy="167.86" r="1" fill="rgb(0,0,0)" />
	<circle cx="655.24" cy="1085.76" r="1" fill="rgb(0,0,0)" />
	<circle cx="690.175" cy="530.306" r="1" fill="rgb(0,0,0)" />
	<circle cx="733.843" cy="79.6507" r="1" fill="rgb(0,0,0)" />
	<circle cx="745.197" cy="415.022" r="1" fill="rgb(0,0,0)" />
	<circle cx="862.227" cy="880.524" r="1" fill="rgb(0,0,0)" />
	<circle cx="870.087" cy="665.677" r="1" fill="rgb(0,0,0)" />
	<circle cx="948.69" cy="582.707" r="1" fill="rgb(0,0,0)" />
	<circle cx="957.424" cy="1075.28" r="1" fill="rgb(0,0,0)" />
	<circle cx="965.284" cy="1000.17" r="1" fill="rgb(0,0,0)" />
	<circle cx="984.498" cy="252.576" r="1" fill="rgb(0,0,0)" />
	<circle cx="1001.97" cy="929.432" r="1" fill="rgb(0,0,0)" />
	<circle cx="1037.77" cy="223.755" r="1" fill="rgb(0,0,0)" />
	<circle cx="1050" cy="505.852" r="1" fill="rgb(0,0,0)" />
</svg>
