<?xml version="1.0" standalone="no" ?>
<!DOCTYPE svg PUBLIC "-//W3C//DTD SVG 1.1//EN" "http://www.w3.org/Graphics/SVG/1.1/DTD/svg11.dtd">
<svg width="1100px" height="1166.57px" xmlns="http://www.w3.org/2000/svg" version="1.1" >
	<circle cx="50" cy="323.919" r="1" fill="rgb(0,0,0)" />
	<circle cx="90.3458" cy="53.0259" r="1" fill="rgb(0,0,0)" />
	<circle cx="133.573" cy="576.081" r="1" fill="rgb(0,0,0)" />
	<circle cx="166.715" cy="289.337" r="1" fill="rgb(0,0,0)" />
	<circle cx="196.974" cy="372.911" r="1" fill="rgb(0,0,0)" />
	<circle cx="287.752" cy="292.219" r="1" fill="rgb(0,0,0)" />
	<circle cx="343.948" cy="77.5216" r="1" fill="rgb(0,0,0)" />
	<circle cx="372.767" cy="756.196" r="1" fill="rgb(0,0,0)" />
	<circle cx="377.089" cy="456.484" r="1" fill="rgb(0,0,0)" />
	<circle cx="421.758" cy="273.487" r="1" fill="rgb(0,0,0)" />
	<circle cx="476.513" cy="261.96" r="1" fill="rgb(0,0,0)" />
	<circle cx="570.173" cy="1071.76" r="1" fill="rgb(0,0,0)" />
	<circle cx="583.141" cy="236.023" r="1" fill="rgb(0,0,0)" />
	<circle cx="626.369" cy="1032.85" r="1" fill="rgb(0,0,0)" />
	<circle cx="653.746" cy="738.905" r="1" fill="rgb(0,0,0)" />
	<circle cx="705.62" cy="1034.29" r="1" fill="rgb(0,0,0)" />
	<circle cx="731.556" cy="87.6081" r="1" fill="rgb(0,0,0)" />
	<circle cx="738.761" cy="439.193" r="1" fill="rgb(0,0,0)" />
	<circle cx="743.084" cy="857.061" r="1" fill="rgb(0,0,0)" />
	<circle cx="841.066" cy="1113.54" r="1" fill="rgb(0,0,0)" />
	<circle cx="859.798" cy="309.51" r="1" fill="rgb(0,0,0)" />
	<circle cx="900.144" cy="594.813" r="1" fill="rgb(0,0,0)" />
	<circle cx="1001.01" cy="168.3" r="1" fill="rgb(0,0,0)" />
	<circle cx="1018.3" cy="1044.38" r="1" fill="rgb(0,0,0)" />
	<circle cx="1050" cy="462.248" r="1" fill="rgb(0,0,0)" />
</svg>
