<?xml version="1.0" standalone="no" ?>
<!DOCTYPE svg PUBLIC "-//W3C//DTD SVG 1.1//EN" "http://www.w3.org/Graphics/SVG/1.1/DTD/svg11.dtd">
<svg width="1100px" height="1097.75px" xmlns="http://www.w3.org/2000/svg" version="1.1" >
	<circle cx="50" cy="751.263" r="1" fill="rgb(0,0,0)" />
	<circle cx="51.3774" cy="570.162" r="1" fill="rgb(0,0,0)" />
	<circle cx="55.5511" cy="259.005" r="1" fill="rgb(0,0,0)" />
	<circle cx="56.6363" cy="959.159" r="1" fill="rgb(0,0,0)" />
	<circle cx="57.0955" cy="97.6042" r="1" fill="rgb(0,0,0)" />
	<circle cx="57.1789" cy="370.111" r="1" fill="rgb(0,0,0)" />
	<circle cx="57.5128" cy="855.691" r="1" fill="rgb(0,0,0)" />
	<circle cx="59.0989" cy="157.665" r="1" fill="rgb(0,0,0)" />
	<circle cx="59.1406" cy="50.1064" r="1" fill="rgb(0,0,0)" />
	<circle cx="59.4745" cy="675.967" r="1" fill="rgb(0,0,0)" />
	<circle cx="59.7249" cy="215.472" r="1" fill="rgb(0,0,0)" />
	<circle cx="62.7718" cy="859.03" r="1" fill="rgb(0,0,0)" />
	<circle cx="64.5666" cy="523.749" r="1" fill="rgb(0,0,0)" />
	<circle cx="66.1109" cy="358.007" r="1" fill="rgb(0,0,0)" />
	<circle cx="67.9056" cy="637.067" r="1" fill="rgb(0,0,0)" />
	<circle cx="68.3647" cy="134.041" r="1" fill="rgb(0,0,0)" />
	<circle cx="68.8656" cy="530.302" r="1" fill="rgb(0,0,0)" />
	<circle cx="68.8656" cy="266.184" r="1" fill="rgb(0,0,0)" />
	<circle cx="69.7421" cy="102.112" r="1" fill="rgb(0,0,0)" />
	<circle cx="71.2029" cy="409.095" r="1" fill="rgb(0,0,0)" />
	<circle cx="71.8707" cy="563.692" r="1" fill="rgb(0,0,0)" />
	<circle cx="72.4968" cy="701.803" r="1" fill="rgb(0,0,0)" />
	<circle cx="73.4567" cy="713.824" r="1" fill="rgb(0,0,0)" />
	<circle cx="73.5402" cy="229.288" r="1" fill="rgb(0,0,0)" />
	<circle cx="73.6237" cy="81.0343" r="1" fill="rgb(0,0,0)" />
	<circle cx="73.9993" cy="691.285" r="1" fill="rgb(0,0,0)" />
	<circle cx="76.2532" cy="609.938" r="1" fill="rgb(0,0,0)" />
	<circle cx="76.5036" cy="750.553" r="1" fill="rgb(0,0,0)" />
	<circle cx="76.5036" cy="471.493" r="1" fill="rgb(0,0,0)" />
	<circle cx="78.507" cy="384.761" r="1" fill="rgb(0,0,0)" />
	<circle cx="78.9662" cy="799.971" r="1" fill="rgb(0,0,0)" />
	<circle cx="82.0548" cy="760.528" r="1" fill="rgb(0,0,0)" />
	<circle cx="83.7243" cy="98.7729" r="1" fill="rgb(0,0,0)" />
	<circle cx="84.9347" cy="969.218" r="1" fill="rgb(0,0,0)" />
	<circle cx="85.8112" cy="557.306" r="1" fill="rgb(0,0,0)" />
	<circle cx="86.3538" cy="132.455" r="1" fill="rgb(0,0,0)" />
	<circle cx="86.9381" cy="365.228" r="1" fill="rgb(0,0,0)" />
	<circle cx="87.9398" cy="824.68" r="1" fill="rgb(0,0,0)" />
	<circle cx="87.9816" cy="357.047" r="1" fill="rgb(0,0,0)" />
	<circle cx="89.6093" cy="1005.24" r="1" fill="rgb(0,0,0)" />
	<circle cx="89.6093" cy="557.139" r="1" fill="rgb(0,0,0)" />
	<circle cx="93.9501" cy="936.37" r="1" fill="rgb(0,0,0)" />
	<circle cx="94.4509" cy="175.112" r="1" fill="rgb(0,0,0)" />
	<circle cx="94.9101" cy="824.095" r="1" fill="rgb(0,0,0)" />
	<circle cx="96.2039" cy="719.709" r="1" fill="rgb(0,0,0)" />
	<circle cx="96.6213" cy="567.741" r="1" fill="rgb(0,0,0)" />
	<circle cx="97.4143" cy="756.605" r="1" fill="rgb(0,0,0)" />
	<circle cx="98.4995" cy="303.873" r="1" fill="rgb(0,0,0)" />
	<circle cx="98.8752" cy="637.944" r="1" fill="rgb(0,0,0)" />
	<circle cx="100.712" cy="996.097" r="1" fill="rgb(0,0,0)" />
	<circle cx="100.795" cy="495.951" r="1" fill="rgb(0,0,0)" />
	<circle cx="101.922" cy="754.101" r="1" fill="rgb(0,0,0)" />
	<circle cx="104.343" cy="544.66" r="1" fill="rgb(0,0,0)" />
	<circle cx="104.343" cy="442.986" r="1" fill="rgb(0,0,0)" />
	<circle cx="105.261" cy="81.6603" r="1" fill="rgb(0,0,0)" />
	<circle cx="106.012" cy="622.626" r="1" fill="rgb(0,0,0)" />
	<circle cx="106.43" cy="470.45" r="1" fill="rgb(0,0,0)" />
	<circle cx="107.056" cy="368.191" r="1" fill="rgb(0,0,0)" />
	<circle cx="107.223" cy="403.752" r="1" fill="rgb(0,0,0)" />
	<circle cx="108.558" cy="139.968" r="1" fill="rgb(0,0,0)" />
	<circle cx="109.894" cy="347.907" r="1" fill="rgb(0,0,0)" />
	<circle cx="111.355" cy="819.504" r="1" fill="rgb(0,0,0)" />
	<circle cx="111.939" cy="757.398" r="1" fill="rgb(0,0,0)" />
	<circle cx="112.482" cy="51.2751" r="1" fill="rgb(0,0,0)" />
	<circle cx="112.649" cy="384.761" r="1" fill="rgb(0,0,0)" />
	<circle cx="113.15" cy="862.995" r="1" fill="rgb(0,0,0)" />
	<circle cx="114.443" cy="167.265" r="1" fill="rgb(0,0,0)" />
	<circle cx="116.989" cy="503.172" r="1" fill="rgb(0,0,0)" />
	<circle cx="117.866" cy="141.304" r="1" fill="rgb(0,0,0)" />
	<circle cx="120.078" cy="1027.4" r="1" fill="rgb(0,0,0)" />
	<circle cx="120.746" cy="771.255" r="1" fill="rgb(0,0,0)" />
	<circle cx="120.871" cy="260.883" r="1" fill="rgb(0,0,0)" />
	<circle cx="124.627" cy="245.273" r="1" fill="rgb(0,0,0)" />
	<circle cx="124.753" cy="250.365" r="1" fill="rgb(0,0,0)" />
	<circle cx="125.629" cy="543.282" r="1" fill="rgb(0,0,0)" />
	<circle cx="125.754" cy="129.409" r="1" fill="rgb(0,0,0)" />
	<circle cx="126.047" cy="78.7387" r="1" fill="rgb(0,0,0)" />
	<circle cx="126.297" cy="217.225" r="1" fill="rgb(0,0,0)" />
	<circle cx="128.217" cy="221.19" r="1" fill="rgb(0,0,0)" />
	<circle cx="128.76" cy="172.357" r="1" fill="rgb(0,0,0)" />
	<circle cx="129.26" cy="489.357" r="1" fill="rgb(0,0,0)" />
	<circle cx="129.97" cy="416.691" r="1" fill="rgb(0,0,0)" />
	<circle cx="130.513" cy="854.981" r="1" fill="rgb(0,0,0)" />
	<circle cx="130.972" cy="228.035" r="1" fill="rgb(0,0,0)" />
	<circle cx="132.558" cy="270.316" r="1" fill="rgb(0,0,0)" />
	<circle cx="133.017" cy="332.046" r="1" fill="rgb(0,0,0)" />
	<circle cx="133.1" cy="842.794" r="1" fill="rgb(0,0,0)" />
	<circle cx="133.559" cy="801.64" r="1" fill="rgb(0,0,0)" />
	<circle cx="133.852" cy="1002.11" r="1" fill="rgb(0,0,0)" />
	<circle cx="136.439" cy="337.514" r="1" fill="rgb(0,0,0)" />
	<circle cx="137.191" cy="783.985" r="1" fill="rgb(0,0,0)" />
	<circle cx="137.775" cy="885.909" r="1" fill="rgb(0,0,0)" />
	<circle cx="138.902" cy="904.858" r="1" fill="rgb(0,0,0)" />
	<circle cx="138.944" cy="690.909" r="1" fill="rgb(0,0,0)" />
	<circle cx="140.989" cy="219.396" r="1" fill="rgb(0,0,0)" />
	<circle cx="141.364" cy="288.764" r="1" fill="rgb(0,0,0)" />
	<circle cx="141.907" cy="298.364" r="1" fill="rgb(0,0,0)" />
	<circle cx="143.785" cy="140.386" r="1" fill="rgb(0,0,0)" />
	<circle cx="146.289" cy="165.136" r="1" fill="rgb(0,0,0)" />
	<circle cx="147.166" cy="788.952" r="1" fill="rgb(0,0,0)" />
	<circle cx="148.293" cy="570.662" r="1" fill="rgb(0,0,0)" />
	<circle cx="148.543" cy="512.313" r="1" fill="rgb(0,0,0)" />
	<circle cx="148.752" cy="677.804" r="1" fill="rgb(0,0,0)" />
	<circle cx="150.38" cy="365.979" r="1" fill="rgb(0,0,0)" />
	<circle cx="150.964" cy="112.129" r="1" fill="rgb(0,0,0)" />
	<circle cx="151.799" cy="480.884" r="1" fill="rgb(0,0,0)" />
	<circle cx="151.924" cy="288.055" r="1" fill="rgb(0,0,0)" />
	<circle cx="152.467" cy="232.293" r="1" fill="rgb(0,0,0)" />
	<circle cx="153.343" cy="344.317" r="1" fill="rgb(0,0,0)" />
	<circle cx="153.635" cy="582.85" r="1" fill="rgb(0,0,0)" />
	<circle cx="154.512" cy="550.962" r="1" fill="rgb(0,0,0)" />
	<circle cx="154.721" cy="237.385" r="1" fill="rgb(0,0,0)" />
	<circle cx="155.597" cy="342.523" r="1" fill="rgb(0,0,0)" />
	<circle cx="158.227" cy="739.868" r="1" fill="rgb(0,0,0)" />
	<circle cx="160.773" cy="280.917" r="1" fill="rgb(0,0,0)" />
	<circle cx="161.733" cy="336.262" r="1" fill="rgb(0,0,0)" />
	<circle cx="163.36" cy="543.115" r="1" fill="rgb(0,0,0)" />
	<circle cx="163.694" cy="704.14" r="1" fill="rgb(0,0,0)" />
	<circle cx="164.028" cy="168.642" r="1" fill="rgb(0,0,0)" />
	<circle cx="165.113" cy="104.157" r="1" fill="rgb(0,0,0)" />
	<circle cx="166.199" cy="777.557" r="1" fill="rgb(0,0,0)" />
	<circle cx="166.24" cy="737.197" r="1" fill="rgb(0,0,0)" />
	<circle cx="167.785" cy="113.924" r="1" fill="rgb(0,0,0)" />
	<circle cx="169.162" cy="531.512" r="1" fill="rgb(0,0,0)" />
	<circle cx="169.83" cy="1026.19" r="1" fill="rgb(0,0,0)" />
	<circle cx="171.249" cy="925.686" r="1" fill="rgb(0,0,0)" />
	<circle cx="171.457" cy="304.666" r="1" fill="rgb(0,0,0)" />
	<circle cx="174.713" cy="510.059" r="1" fill="rgb(0,0,0)" />
	<circle cx="175.965" cy="989.461" r="1" fill="rgb(0,0,0)" />
	<circle cx="176.257" cy="761.029" r="1" fill="rgb(0,0,0)" />
	<circle cx="176.424" cy="924.266" r="1" fill="rgb(0,0,0)" />
	<circle cx="176.8" cy="720.168" r="1" fill="rgb(0,0,0)" />
	<circle cx="176.8" cy="166.347" r="1" fill="rgb(0,0,0)" />
	<circle cx="182.101" cy="513.106" r="1" fill="rgb(0,0,0)" />
	<circle cx="182.768" cy="955.653" r="1" fill="rgb(0,0,0)" />
	<circle cx="185.189" cy="579.177" r="1" fill="rgb(0,0,0)" />
	<circle cx="185.481" cy="399.161" r="1" fill="rgb(0,0,0)" />
	<circle cx="185.565" cy="451.25" r="1" fill="rgb(0,0,0)" />
	<circle cx="187.109" cy="416.983" r="1" fill="rgb(0,0,0)" />
	<circle cx="187.735" cy="636.108" r="1" fill="rgb(0,0,0)" />
	<circle cx="187.944" cy="621.374" r="1" fill="rgb(0,0,0)" />
	<circle cx="188.111" cy="542.74" r="1" fill="rgb(0,0,0)" />
	<circle cx="188.403" cy="816.833" r="1" fill="rgb(0,0,0)" />
	<circle cx="190.24" cy="145.186" r="1" fill="rgb(0,0,0)" />
	<circle cx="190.949" cy="485.308" r="1" fill="rgb(0,0,0)" />
	<circle cx="191.074" cy="1047.85" r="1" fill="rgb(0,0,0)" />
	<circle cx="194.58" cy="175.821" r="1" fill="rgb(0,0,0)" />
	<circle cx="195.499" cy="675.049" r="1" fill="rgb(0,0,0)" />
	<circle cx="195.54" cy="308.506" r="1" fill="rgb(0,0,0)" />
	<circle cx="195.666" cy="806.607" r="1" fill="rgb(0,0,0)" />
	<circle cx="196.584" cy="693.289" r="1" fill="rgb(0,0,0)" />
	<circle cx="196.709" cy="210.589" r="1" fill="rgb(0,0,0)" />
	<circle cx="197.126" cy="940.544" r="1" fill="rgb(0,0,0)" />
	<circle cx="199.714" cy="641.909" r="1" fill="rgb(0,0,0)" />
	<circle cx="200.758" cy="539.192" r="1" fill="rgb(0,0,0)" />
	<circle cx="203.137" cy="743.625" r="1" fill="rgb(0,0,0)" />
	<circle cx="203.512" cy="96.8112" r="1" fill="rgb(0,0,0)" />
	<circle cx="203.888" cy="821.967" r="1" fill="rgb(0,0,0)" />
	<circle cx="204.597" cy="142.473" r="1" fill="rgb(0,0,0)" />
	<circle cx="205.432" cy="906.945" r="1" fill="rgb(0,0,0)" />
	<circle cx="207.352" cy="966.004" r="1" fill="rgb(0,0,0)" />
	<circle cx="207.978" cy="727.931" r="1" fill="rgb(0,0,0)" />
	<circle cx="209.314" cy="379.92" r="1" fill="rgb(0,0,0)" />
	<circle cx="210.691" cy="211.048" r="1" fill="rgb(0,0,0)" />
	<circle cx="212.611" cy="343.065" r="1" fill="rgb(0,0,0)" />
	<circle cx="215.241" cy="671.334" r="1" fill="rgb(0,0,0)" />
	<circle cx="215.741" cy="732.23" r="1" fill="rgb(0,0,0)" />
	<circle cx="216.284" cy="308.548" r="1" fill="rgb(0,0,0)" />
	<circle cx="216.576" cy="498.664" r="1" fill="rgb(0,0,0)" />
	<circle cx="217.328" cy="354.585" r="1" fill="rgb(0,0,0)" />
	<circle cx="218.914" cy="592.408" r="1" fill="rgb(0,0,0)" />
	<circle cx="219.498" cy="388.643" r="1" fill="rgb(0,0,0)" />
	<circle cx="220.959" cy="451.876" r="1" fill="rgb(0,0,0)" />
	<circle cx="223.672" cy="300.785" r="1" fill="rgb(0,0,0)" />
	<circle cx="226.092" cy="347.907" r="1" fill="rgb(0,0,0)" />
	<circle cx="229.64" cy="178.952" r="1" fill="rgb(0,0,0)" />
	<circle cx="231.477" cy="148.608" r="1" fill="rgb(0,0,0)" />
	<circle cx="231.727" cy="112.129" r="1" fill="rgb(0,0,0)" />
	<circle cx="232.144" cy="993.551" r="1" fill="rgb(0,0,0)" />
	<circle cx="232.771" cy="446.075" r="1" fill="rgb(0,0,0)" />
	<circle cx="239.323" cy="873.847" r="1" fill="rgb(0,0,0)" />
	<circle cx="241.202" cy="1037.33" r="1" fill="rgb(0,0,0)" />
	<circle cx="242.203" cy="275.283" r="1" fill="rgb(0,0,0)" />
	<circle cx="242.871" cy="630.807" r="1" fill="rgb(0,0,0)" />
	<circle cx="244.457" cy="374.494" r="1" fill="rgb(0,0,0)" />
	<circle cx="245.334" cy="1000.73" r="1" fill="rgb(0,0,0)" />
	<circle cx="245.709" cy="402.333" r="1" fill="rgb(0,0,0)" />
	<circle cx="246.043" cy="699.925" r="1" fill="rgb(0,0,0)" />
	<circle cx="249.925" cy="440.064" r="1" fill="rgb(0,0,0)" />
	<circle cx="250.301" cy="351.83" r="1" fill="rgb(0,0,0)" />
	<circle cx="253.431" cy="58.7045" r="1" fill="rgb(0,0,0)" />
	<circle cx="255.393" cy="286.552" r="1" fill="rgb(0,0,0)" />
	<circle cx="255.935" cy="488.355" r="1" fill="rgb(0,0,0)" />
	<circle cx="257.521" cy="642.577" r="1" fill="rgb(0,0,0)" />
	<circle cx="257.939" cy="306.545" r="1" fill="rgb(0,0,0)" />
	<circle cx="258.773" cy="169.143" r="1" fill="rgb(0,0,0)" />
	<circle cx="259.065" cy="684.691" r="1" fill="rgb(0,0,0)" />
	<circle cx="259.733" cy="83.8724" r="1" fill="rgb(0,0,0)" />
	<circle cx="260.109" cy="103.823" r="1" fill="rgb(0,0,0)" />
	<circle cx="260.61" cy="103.823" r="1" fill="rgb(0,0,0)" />
	<circle cx="260.652" cy="186.256" r="1" fill="rgb(0,0,0)" />
	<circle cx="260.985" cy="770.253" r="1" fill="rgb(0,0,0)" />
	<circle cx="261.945" cy="423.87" r="1" fill="rgb(0,0,0)" />
	<circle cx="263.907" cy="881.694" r="1" fill="rgb(0,0,0)" />
	<circle cx="265.368" cy="798.635" r="1" fill="rgb(0,0,0)" />
	<circle cx="265.66" cy="716.453" r="1" fill="rgb(0,0,0)" />
	<circle cx="266.578" cy="877.478" r="1" fill="rgb(0,0,0)" />
	<circle cx="268.206" cy="401.874" r="1" fill="rgb(0,0,0)" />
	<circle cx="271.879" cy="942.256" r="1" fill="rgb(0,0,0)" />
	<circle cx="275.26" cy="639.447" r="1" fill="rgb(0,0,0)" />
	<circle cx="275.385" cy="708.899" r="1" fill="rgb(0,0,0)" />
	<circle cx="275.677" cy="555.511" r="1" fill="rgb(0,0,0)" />
	<circle cx="276.554" cy="1046.93" r="1" fill="rgb(0,0,0)" />
	<circle cx="277.931" cy="661.609" r="1" fill="rgb(0,0,0)" />
	<circle cx="279.768" cy="186.757" r="1" fill="rgb(0,0,0)" />
	<circle cx="282.564" cy="58.2453" r="1" fill="rgb(0,0,0)" />
	<circle cx="283.399" cy="819.963" r="1" fill="rgb(0,0,0)" />
	<circle cx="284.818" cy="220.523" r="1" fill="rgb(0,0,0)" />
	<circle cx="285.027" cy="1021.14" r="1" fill="rgb(0,0,0)" />
	<circle cx="286.404" cy="89.841" r="1" fill="rgb(0,0,0)" />
	<circle cx="288.658" cy="915.668" r="1" fill="rgb(0,0,0)" />
	<circle cx="289.701" cy="876.894" r="1" fill="rgb(0,0,0)" />
	<circle cx="290.202" cy="965.128" r="1" fill="rgb(0,0,0)" />
	<circle cx="290.661" cy="240.849" r="1" fill="rgb(0,0,0)" />
	<circle cx="291.245" cy="952.857" r="1" fill="rgb(0,0,0)" />
	<circle cx="291.287" cy="403.377" r="1" fill="rgb(0,0,0)" />
	<circle cx="296.63" cy="932.447" r="1" fill="rgb(0,0,0)" />
	<circle cx="297.047" cy="922.764" r="1" fill="rgb(0,0,0)" />
	<circle cx="297.047" cy="581.89" r="1" fill="rgb(0,0,0)" />
	<circle cx="297.423" cy="173.651" r="1" fill="rgb(0,0,0)" />
	<circle cx="300.97" cy="640.949" r="1" fill="rgb(0,0,0)" />
	<circle cx="302.974" cy="784.862" r="1" fill="rgb(0,0,0)" />
	<circle cx="304.226" cy="301.661" r="1" fill="rgb(0,0,0)" />
	<circle cx="304.727" cy="148.525" r="1" fill="rgb(0,0,0)" />
	<circle cx="305.812" cy="236.508" r="1" fill="rgb(0,0,0)" />
	<circle cx="306.438" cy="448.454" r="1" fill="rgb(0,0,0)" />
	<circle cx="308.275" cy="546.12" r="1" fill="rgb(0,0,0)" />
	<circle cx="308.4" cy="377.04" r="1" fill="rgb(0,0,0)" />
	<circle cx="309.443" cy="180.705" r="1" fill="rgb(0,0,0)" />
	<circle cx="310.278" cy="729.642" r="1" fill="rgb(0,0,0)" />
	<circle cx="311.071" cy="658.563" r="1" fill="rgb(0,0,0)" />
	<circle cx="312.156" cy="742.873" r="1" fill="rgb(0,0,0)" />
	<circle cx="312.574" cy="1024.15" r="1" fill="rgb(0,0,0)" />
	<circle cx="313.116" cy="164.928" r="1" fill="rgb(0,0,0)" />
	<circle cx="314.034" cy="1024.85" r="1" fill="rgb(0,0,0)" />
	<circle cx="316.08" cy="288.973" r="1" fill="rgb(0,0,0)" />
	<circle cx="316.08" cy="232.501" r="1" fill="rgb(0,0,0)" />
	<circle cx="316.205" cy="478.463" r="1" fill="rgb(0,0,0)" />
	<circle cx="316.789" cy="859.781" r="1" fill="rgb(0,0,0)" />
	<circle cx="317.206" cy="422.993" r="1" fill="rgb(0,0,0)" />
	<circle cx="317.833" cy="585.646" r="1" fill="rgb(0,0,0)" />
	<circle cx="320.253" cy="300.033" r="1" fill="rgb(0,0,0)" />
	<circle cx="320.963" cy="329.375" r="1" fill="rgb(0,0,0)" />
	<circle cx="321.464" cy="564.36" r="1" fill="rgb(0,0,0)" />
	<circle cx="322.841" cy="203.619" r="1" fill="rgb(0,0,0)" />
	<circle cx="326.305" cy="410.222" r="1" fill="rgb(0,0,0)" />
	<circle cx="327.349" cy="561.146" r="1" fill="rgb(0,0,0)" />
	<circle cx="329.185" cy="620.79" r="1" fill="rgb(0,0,0)" />
	<circle cx="330.771" cy="1018.47" r="1" fill="rgb(0,0,0)" />
	<circle cx="332.9" cy="491.694" r="1" fill="rgb(0,0,0)" />
	<circle cx="334.945" cy="53.8211" r="1" fill="rgb(0,0,0)" />
	<circle cx="335.78" cy="310.468" r="1" fill="rgb(0,0,0)" />
	<circle cx="336.907" cy="623.336" r="1" fill="rgb(0,0,0)" />
	<circle cx="337.658" cy="293.981" r="1" fill="rgb(0,0,0)" />
	<circle cx="338.242" cy="243.645" r="1" fill="rgb(0,0,0)" />
	<circle cx="338.785" cy="999.896" r="1" fill="rgb(0,0,0)" />
	<circle cx="339.328" cy="859.823" r="1" fill="rgb(0,0,0)" />
	<circle cx="341.915" cy="950.937" r="1" fill="rgb(0,0,0)" />
	<circle cx="342.75" cy="703.055" r="1" fill="rgb(0,0,0)" />
	<circle cx="344.086" cy="516.32" r="1" fill="rgb(0,0,0)" />
	<circle cx="344.545" cy="878.605" r="1" fill="rgb(0,0,0)" />
	<circle cx="347.884" cy="117.764" r="1" fill="rgb(0,0,0)" />
	<circle cx="350.346" cy="856.192" r="1" fill="rgb(0,0,0)" />
	<circle cx="351.724" cy="224.404" r="1" fill="rgb(0,0,0)" />
	<circle cx="354.145" cy="226.7" r="1" fill="rgb(0,0,0)" />
	<circle cx="354.228" cy="794.294" r="1" fill="rgb(0,0,0)" />
	<circle cx="354.812" cy="855.274" r="1" fill="rgb(0,0,0)" />
	<circle cx="358.402" cy="484.056" r="1" fill="rgb(0,0,0)" />
	<circle cx="360.322" cy="891.419" r="1" fill="rgb(0,0,0)" />
	<circle cx="361.198" cy="444.113" r="1" fill="rgb(0,0,0)" />
	<circle cx="362.033" cy="126.904" r="1" fill="rgb(0,0,0)" />
	<circle cx="366.165" cy="178.2" r="1" fill="rgb(0,0,0)" />
	<circle cx="367.96" cy="512.605" r="1" fill="rgb(0,0,0)" />
	<circle cx="368.753" cy="104.282" r="1" fill="rgb(0,0,0)" />
	<circle cx="369.713" cy="251.492" r="1" fill="rgb(0,0,0)" />
	<circle cx="373.135" cy="178.534" r="1" fill="rgb(0,0,0)" />
	<circle cx="375.097" cy="235.423" r="1" fill="rgb(0,0,0)" />
	<circle cx="377.518" cy="125.652" r="1" fill="rgb(0,0,0)" />
	<circle cx="381.024" cy="464.231" r="1" fill="rgb(0,0,0)" />
	<circle cx="382.777" cy="687.863" r="1" fill="rgb(0,0,0)" />
	<circle cx="383.152" cy="102.362" r="1" fill="rgb(0,0,0)" />
	<circle cx="383.236" cy="865.541" r="1" fill="rgb(0,0,0)" />
	<circle cx="385.657" cy="492.153" r="1" fill="rgb(0,0,0)" />
	<circle cx="387.243" cy="351.371" r="1" fill="rgb(0,0,0)" />
	<circle cx="387.827" cy="594.161" r="1" fill="rgb(0,0,0)" />
	<circle cx="387.994" cy="993.009" r="1" fill="rgb(0,0,0)" />
	<circle cx="389.497" cy="294.941" r="1" fill="rgb(0,0,0)" />
	<circle cx="390.707" cy="623.377" r="1" fill="rgb(0,0,0)" />
	<circle cx="391.625" cy="335.678" r="1" fill="rgb(0,0,0)" />
	<circle cx="392.502" cy="878.104" r="1" fill="rgb(0,0,0)" />
	<circle cx="393.963" cy="320.819" r="1" fill="rgb(0,0,0)" />
	<circle cx="394.088" cy="277.829" r="1" fill="rgb(0,0,0)" />
	<circle cx="395.757" cy="144.476" r="1" fill="rgb(0,0,0)" />
	<circle cx="400.599" cy="900.935" r="1" fill="rgb(0,0,0)" />
	<circle cx="401.893" cy="689.532" r="1" fill="rgb(0,0,0)" />
	<circle cx="404.981" cy="784.903" r="1" fill="rgb(0,0,0)" />
	<circle cx="405.441" cy="59.5392" r="1" fill="rgb(0,0,0)" />
	<circle cx="405.482" cy="855.691" r="1" fill="rgb(0,0,0)" />
	<circle cx="405.649" cy="509.975" r="1" fill="rgb(0,0,0)" />
	<circle cx="405.941" cy="658.396" r="1" fill="rgb(0,0,0)" />
	<circle cx="406.651" cy="435.807" r="1" fill="rgb(0,0,0)" />
	<circle cx="406.943" cy="864.164" r="1" fill="rgb(0,0,0)" />
	<circle cx="410.741" cy="709.942" r="1" fill="rgb(0,0,0)" />
	<circle cx="416.877" cy="148.232" r="1" fill="rgb(0,0,0)" />
	<circle cx="418.755" cy="705.184" r="1" fill="rgb(0,0,0)" />
	<circle cx="421.301" cy="607.642" r="1" fill="rgb(0,0,0)" />
	<circle cx="422.595" cy="692.746" r="1" fill="rgb(0,0,0)" />
	<circle cx="423.68" cy="207.375" r="1" fill="rgb(0,0,0)" />
	<circle cx="426.143" cy="882.028" r="1" fill="rgb(0,0,0)" />
	<circle cx="426.226" cy="233.753" r="1" fill="rgb(0,0,0)" />
	<circle cx="426.31" cy="418.611" r="1" fill="rgb(0,0,0)" />
	<circle cx="426.602" cy="781.564" r="1" fill="rgb(0,0,0)" />
	<circle cx="428.689" cy="712.822" r="1" fill="rgb(0,0,0)" />
	<circle cx="432.32" cy="190.638" r="1" fill="rgb(0,0,0)" />
	<circle cx="441.252" cy="852.978" r="1" fill="rgb(0,0,0)" />
	<circle cx="443.255" cy="981.489" r="1" fill="rgb(0,0,0)" />
	<circle cx="443.422" cy="505.969" r="1" fill="rgb(0,0,0)" />
	<circle cx="444.09" cy="465.817" r="1" fill="rgb(0,0,0)" />
	<circle cx="444.132" cy="829.438" r="1" fill="rgb(0,0,0)" />
	<circle cx="452.563" cy="158.792" r="1" fill="rgb(0,0,0)" />
	<circle cx="452.73" cy="930.569" r="1" fill="rgb(0,0,0)" />
	<circle cx="455.86" cy="536.98" r="1" fill="rgb(0,0,0)" />
	<circle cx="456.11" cy="699.967" r="1" fill="rgb(0,0,0)" />
	<circle cx="456.319" cy="334.217" r="1" fill="rgb(0,0,0)" />
	<circle cx="460.034" cy="892.754" r="1" fill="rgb(0,0,0)" />
	<circle cx="461.62" cy="528.549" r="1" fill="rgb(0,0,0)" />
	<circle cx="465.501" cy="522.58" r="1" fill="rgb(0,0,0)" />
	<circle cx="465.543" cy="903.314" r="1" fill="rgb(0,0,0)" />
	<circle cx="466.002" cy="508.055" r="1" fill="rgb(0,0,0)" />
	<circle cx="466.754" cy="192.683" r="1" fill="rgb(0,0,0)" />
	<circle cx="467.046" cy="102.154" r="1" fill="rgb(0,0,0)" />
	<circle cx="471.261" cy="735.486" r="1" fill="rgb(0,0,0)" />
	<circle cx="471.637" cy="309.967" r="1" fill="rgb(0,0,0)" />
	<circle cx="472.472" cy="755.937" r="1" fill="rgb(0,0,0)" />
	<circle cx="472.806" cy="1035.16" r="1" fill="rgb(0,0,0)" />
	<circle cx="473.056" cy="117.179" r="1" fill="rgb(0,0,0)" />
	<circle cx="473.223" cy="226.449" r="1" fill="rgb(0,0,0)" />
	<circle cx="473.515" cy="214.971" r="1" fill="rgb(0,0,0)" />
	<circle cx="478.023" cy="57.9114" r="1" fill="rgb(0,0,0)" />
	<circle cx="480.026" cy="948.266" r="1" fill="rgb(0,0,0)" />
	<circle cx="480.318" cy="234.755" r="1" fill="rgb(0,0,0)" />
	<circle cx="480.819" cy="861.618" r="1" fill="rgb(0,0,0)" />
	<circle cx="482.03" cy="110.793" r="1" fill="rgb(0,0,0)" />
	<circle cx="483.198" cy="910.326" r="1" fill="rgb(0,0,0)" />
	<circle cx="483.741" cy="53.0281" r="1" fill="rgb(0,0,0)" />
	<circle cx="486.496" cy="861.785" r="1" fill="rgb(0,0,0)" />
	<circle cx="487.163" cy="92.5539" r="1" fill="rgb(0,0,0)" />
	<circle cx="487.33" cy="746.964" r="1" fill="rgb(0,0,0)" />
	<circle cx="491.212" cy="290.183" r="1" fill="rgb(0,0,0)" />
	<circle cx="492.005" cy="271.735" r="1" fill="rgb(0,0,0)" />
	<circle cx="492.422" cy="369.193" r="1" fill="rgb(0,0,0)" />
	<circle cx="492.506" cy="563.442" r="1" fill="rgb(0,0,0)" />
	<circle cx="494.384" cy="708.815" r="1" fill="rgb(0,0,0)" />
	<circle cx="497.055" cy="283.964" r="1" fill="rgb(0,0,0)" />
	<circle cx="498.308" cy="65.4243" r="1" fill="rgb(0,0,0)" />
	<circle cx="498.6" cy="147.189" r="1" fill="rgb(0,0,0)" />
	<circle cx="499.518" cy="94.4322" r="1" fill="rgb(0,0,0)" />
	<circle cx="500.937" cy="515.151" r="1" fill="rgb(0,0,0)" />
	<circle cx="502.565" cy="427.418" r="1" fill="rgb(0,0,0)" />
	<circle cx="504.151" cy="53.4872" r="1" fill="rgb(0,0,0)" />
	<circle cx="509.41" cy="344.651" r="1" fill="rgb(0,0,0)" />
	<circle cx="509.577" cy="214.512" r="1" fill="rgb(0,0,0)" />
	<circle cx="509.619" cy="72.8536" r="1" fill="rgb(0,0,0)" />
	<circle cx="510.578" cy="969.218" r="1" fill="rgb(0,0,0)" />
	<circle cx="511.831" cy="911.578" r="1" fill="rgb(0,0,0)" />
	<circle cx="513.291" cy="805.564" r="1" fill="rgb(0,0,0)" />
	<circle cx="513.375" cy="616.24" r="1" fill="rgb(0,0,0)" />
	<circle cx="514.794" cy="113.924" r="1" fill="rgb(0,0,0)" />
	<circle cx="515.712" cy="408.969" r="1" fill="rgb(0,0,0)" />
	<circle cx="519.761" cy="965.295" r="1" fill="rgb(0,0,0)" />
	<circle cx="524.143" cy="583.685" r="1" fill="rgb(0,0,0)" />
	<circle cx="526.063" cy="379.628" r="1" fill="rgb(0,0,0)" />
	<circle cx="527.315" cy="448.12" r="1" fill="rgb(0,0,0)" />
	<circle cx="527.566" cy="925.56" r="1" fill="rgb(0,0,0)" />
	<circle cx="528.609" cy="660.399" r="1" fill="rgb(0,0,0)" />
	<circle cx="528.943" cy="941.337" r="1" fill="rgb(0,0,0)" />
	<circle cx="529.945" cy="532.723" r="1" fill="rgb(0,0,0)" />
	<circle cx="531.531" cy="400.914" r="1" fill="rgb(0,0,0)" />
	<circle cx="532.199" cy="445.908" r="1" fill="rgb(0,0,0)" />
	<circle cx="532.741" cy="379.628" r="1" fill="rgb(0,0,0)" />
	<circle cx="532.825" cy="480.926" r="1" fill="rgb(0,0,0)" />
	<circle cx="534.494" cy="303.79" r="1" fill="rgb(0,0,0)" />
	<circle cx="534.787" cy="720.585" r="1" fill="rgb(0,0,0)" />
	<circle cx="535.287" cy="474.039" r="1" fill="rgb(0,0,0)" />
	<circle cx="536.79" cy="155.745" r="1" fill="rgb(0,0,0)" />
	<circle cx="537.207" cy="828.645" r="1" fill="rgb(0,0,0)" />
	<circle cx="537.917" cy="791.164" r="1" fill="rgb(0,0,0)" />
	<circle cx="539.044" cy="1011.58" r="1" fill="rgb(0,0,0)" />
	<circle cx="539.837" cy="606.974" r="1" fill="rgb(0,0,0)" />
	<circle cx="540.129" cy="458.387" r="1" fill="rgb(0,0,0)" />
	<circle cx="540.421" cy="676.677" r="1" fill="rgb(0,0,0)" />
	<circle cx="540.63" cy="227.994" r="1" fill="rgb(0,0,0)" />
	<circle cx="544.637" cy="726.679" r="1" fill="rgb(0,0,0)" />
	<circle cx="547.558" cy="769.627" r="1" fill="rgb(0,0,0)" />
	<circle cx="548.101" cy="513.356" r="1" fill="rgb(0,0,0)" />
	<circle cx="548.184" cy="466.526" r="1" fill="rgb(0,0,0)" />
	<circle cx="549.27" cy="469.364" r="1" fill="rgb(0,0,0)" />
	<circle cx="550.313" cy="375.746" r="1" fill="rgb(0,0,0)" />
	<circle cx="551.941" cy="131.913" r="1" fill="rgb(0,0,0)" />
	<circle cx="553.861" cy="351.663" r="1" fill="rgb(0,0,0)" />
	<circle cx="555.28" cy="211.674" r="1" fill="rgb(0,0,0)" />
	<circle cx="555.655" cy="55.8663" r="1" fill="rgb(0,0,0)" />
	<circle cx="557.742" cy="890.208" r="1" fill="rgb(0,0,0)" />
	<circle cx="559.662" cy="942.297" r="1" fill="rgb(0,0,0)" />
	<circle cx="564.254" cy="987.249" r="1" fill="rgb(0,0,0)" />
	<circle cx="564.546" cy="693.831" r="1" fill="rgb(0,0,0)" />
	<circle cx="565.84" cy="264.556" r="1" fill="rgb(0,0,0)" />
	<circle cx="566.173" cy="650.841" r="1" fill="rgb(0,0,0)" />
	<circle cx="566.382" cy="116.136" r="1" fill="rgb(0,0,0)" />
	<circle cx="573.895" cy="602.467" r="1" fill="rgb(0,0,0)" />
	<circle cx="575.773" cy="995.012" r="1" fill="rgb(0,0,0)" />
	<circle cx="577.944" cy="979.152" r="1" fill="rgb(0,0,0)" />
	<circle cx="578.653" cy="243.896" r="1" fill="rgb(0,0,0)" />
	<circle cx="578.695" cy="111.044" r="1" fill="rgb(0,0,0)" />
	<circle cx="579.404" cy="265.391" r="1" fill="rgb(0,0,0)" />
	<circle cx="579.613" cy="399.453" r="1" fill="rgb(0,0,0)" />
	<circle cx="581.032" cy="182.499" r="1" fill="rgb(0,0,0)" />
	<circle cx="581.7" cy="953.733" r="1" fill="rgb(0,0,0)" />
	<circle cx="581.909" cy="1030.61" r="1" fill="rgb(0,0,0)" />
	<circle cx="582.785" cy="760.194" r="1" fill="rgb(0,0,0)" />
	<circle cx="582.952" cy="876.476" r="1" fill="rgb(0,0,0)" />
	<circle cx="584.705" cy="685.984" r="1" fill="rgb(0,0,0)" />
	<circle cx="585.999" cy="744.376" r="1" fill="rgb(0,0,0)" />
	<circle cx="586.333" cy="735.444" r="1" fill="rgb(0,0,0)" />
	<circle cx="588.253" cy="953.9" r="1" fill="rgb(0,0,0)" />
	<circle cx="588.295" cy="741.079" r="1" fill="rgb(0,0,0)" />
	<circle cx="589.839" cy="655.057" r="1" fill="rgb(0,0,0)" />
	<circle cx="589.881" cy="103.573" r="1" fill="rgb(0,0,0)" />
	<circle cx="590.799" cy="374.87" r="1" fill="rgb(0,0,0)" />
	<circle cx="595.098" cy="730.727" r="1" fill="rgb(0,0,0)" />
	<circle cx="595.307" cy="84.0394" r="1" fill="rgb(0,0,0)" />
	<circle cx="597.185" cy="93.7643" r="1" fill="rgb(0,0,0)" />
	<circle cx="599.898" cy="654.89" r="1" fill="rgb(0,0,0)" />
	<circle cx="601.692" cy="1039.34" r="1" fill="rgb(0,0,0)" />
	<circle cx="601.776" cy="369.527" r="1" fill="rgb(0,0,0)" />
	<circle cx="602.402" cy="381.172" r="1" fill="rgb(0,0,0)" />
	<circle cx="604.447" cy="103.907" r="1" fill="rgb(0,0,0)" />
	<circle cx="604.489" cy="345.987" r="1" fill="rgb(0,0,0)" />
	<circle cx="604.614" cy="983.91" r="1" fill="rgb(0,0,0)" />
	<circle cx="605.783" cy="964.084" r="1" fill="rgb(0,0,0)" />
	<circle cx="606.785" cy="540.611" r="1" fill="rgb(0,0,0)" />
	<circle cx="606.868" cy="421.366" r="1" fill="rgb(0,0,0)" />
	<circle cx="606.951" cy="820.13" r="1" fill="rgb(0,0,0)" />
	<circle cx="608.746" cy="697.838" r="1" fill="rgb(0,0,0)" />
	<circle cx="609.372" cy="206.707" r="1" fill="rgb(0,0,0)" />
	<circle cx="610.249" cy="250.824" r="1" fill="rgb(0,0,0)" />
	<circle cx="615.007" cy="410.389" r="1" fill="rgb(0,0,0)" />
	<circle cx="615.383" cy="897.679" r="1" fill="rgb(0,0,0)" />
	<circle cx="615.508" cy="233.67" r="1" fill="rgb(0,0,0)" />
	<circle cx="615.842" cy="1030.11" r="1" fill="rgb(0,0,0)" />
	<circle cx="616.509" cy="569.661" r="1" fill="rgb(0,0,0)" />
	<circle cx="619.974" cy="407.342" r="1" fill="rgb(0,0,0)" />
	<circle cx="625.066" cy="562.649" r="1" fill="rgb(0,0,0)" />
	<circle cx="627.737" cy="770.462" r="1" fill="rgb(0,0,0)" />
	<circle cx="628.655" cy="662.11" r="1" fill="rgb(0,0,0)" />
	<circle cx="630.533" cy="406.883" r="1" fill="rgb(0,0,0)" />
	<circle cx="631.702" cy="582.349" r="1" fill="rgb(0,0,0)" />
	<circle cx="633.413" cy="400.872" r="1" fill="rgb(0,0,0)" />
	<circle cx="634.332" cy="463.312" r="1" fill="rgb(0,0,0)" />
	<circle cx="635.375" cy="564.235" r="1" fill="rgb(0,0,0)" />
	<circle cx="637.086" cy="562.273" r="1" fill="rgb(0,0,0)" />
	<circle cx="637.587" cy="518.991" r="1" fill="rgb(0,0,0)" />
	<circle cx="638.505" cy="545.536" r="1" fill="rgb(0,0,0)" />
	<circle cx="642.804" cy="295.901" r="1" fill="rgb(0,0,0)" />
	<circle cx="643.514" cy="291.185" r="1" fill="rgb(0,0,0)" />
	<circle cx="643.764" cy="755.812" r="1" fill="rgb(0,0,0)" />
	<circle cx="646.603" cy="299.866" r="1" fill="rgb(0,0,0)" />
	<circle cx="646.853" cy="779.144" r="1" fill="rgb(0,0,0)" />
	<circle cx="647.312" cy="650.257" r="1" fill="rgb(0,0,0)" />
	<circle cx="647.813" cy="575.337" r="1" fill="rgb(0,0,0)" />
	<circle cx="647.938" cy="780.145" r="1" fill="rgb(0,0,0)" />
	<circle cx="648.564" cy="114.717" r="1" fill="rgb(0,0,0)" />
	<circle cx="648.898" cy="102.905" r="1" fill="rgb(0,0,0)" />
	<circle cx="651.277" cy="989.545" r="1" fill="rgb(0,0,0)" />
	<circle cx="652.028" cy="882.028" r="1" fill="rgb(0,0,0)" />
	<circle cx="652.237" cy="436.809" r="1" fill="rgb(0,0,0)" />
	<circle cx="652.279" cy="628.511" r="1" fill="rgb(0,0,0)" />
	<circle cx="656.954" cy="608.31" r="1" fill="rgb(0,0,0)" />
	<circle cx="657.955" cy="730.268" r="1" fill="rgb(0,0,0)" />
	<circle cx="658.581" cy="116.595" r="1" fill="rgb(0,0,0)" />
	<circle cx="661.92" cy="335.928" r="1" fill="rgb(0,0,0)" />
	<circle cx="662.672" cy="435.264" r="1" fill="rgb(0,0,0)" />
	<circle cx="663.214" cy="871.468" r="1" fill="rgb(0,0,0)" />
	<circle cx="664.299" cy="442.36" r="1" fill="rgb(0,0,0)" />
	<circle cx="664.717" cy="933.198" r="1" fill="rgb(0,0,0)" />
	<circle cx="667.805" cy="468.947" r="1" fill="rgb(0,0,0)" />
	<circle cx="668.557" cy="244.856" r="1" fill="rgb(0,0,0)" />
	<circle cx="670.101" cy="669.414" r="1" fill="rgb(0,0,0)" />
	<circle cx="670.602" cy="813.828" r="1" fill="rgb(0,0,0)" />
	<circle cx="673.19" cy="435.765" r="1" fill="rgb(0,0,0)" />
	<circle cx="673.524" cy="297.153" r="1" fill="rgb(0,0,0)" />
	<circle cx="676.028" cy="504.049" r="1" fill="rgb(0,0,0)" />
	<circle cx="679.325" cy="82.2447" r="1" fill="rgb(0,0,0)" />
	<circle cx="679.993" cy="398.869" r="1" fill="rgb(0,0,0)" />
	<circle cx="680.619" cy="268.73" r="1" fill="rgb(0,0,0)" />
	<circle cx="681.829" cy="831.191" r="1" fill="rgb(0,0,0)" />
	<circle cx="683.457" cy="391.314" r="1" fill="rgb(0,0,0)" />
	<circle cx="684.626" cy="710.944" r="1" fill="rgb(0,0,0)" />
	<circle cx="687.13" cy="936.037" r="1" fill="rgb(0,0,0)" />
	<circle cx="688.591" cy="236.466" r="1" fill="rgb(0,0,0)" />
	<circle cx="690.386" cy="406.048" r="1" fill="rgb(0,0,0)" />
	<circle cx="691.179" cy="167.724" r="1" fill="rgb(0,0,0)" />
	<circle cx="692.222" cy="551.964" r="1" fill="rgb(0,0,0)" />
	<circle cx="692.306" cy="945.928" r="1" fill="rgb(0,0,0)" />
	<circle cx="700.194" cy="901.603" r="1" fill="rgb(0,0,0)" />
	<circle cx="702.49" cy="747.59" r="1" fill="rgb(0,0,0)" />
	<circle cx="702.949" cy="864.372" r="1" fill="rgb(0,0,0)" />
	<circle cx="702.991" cy="495.033" r="1" fill="rgb(0,0,0)" />
	<circle cx="703.825" cy="821.967" r="1" fill="rgb(0,0,0)" />
	<circle cx="703.825" cy="550.378" r="1" fill="rgb(0,0,0)" />
	<circle cx="705.244" cy="1007.53" r="1" fill="rgb(0,0,0)" />
	<circle cx="705.954" cy="633.562" r="1" fill="rgb(0,0,0)" />
	<circle cx="707.498" cy="579.928" r="1" fill="rgb(0,0,0)" />
	<circle cx="708.041" cy="936.412" r="1" fill="rgb(0,0,0)" />
	<circle cx="708.959" cy="602.091" r="1" fill="rgb(0,0,0)" />
	<circle cx="709.335" cy="969.844" r="1" fill="rgb(0,0,0)" />
	<circle cx="709.836" cy="897.972" r="1" fill="rgb(0,0,0)" />
	<circle cx="710.796" cy="624.838" r="1" fill="rgb(0,0,0)" />
	<circle cx="711.463" cy="1030.41" r="1" fill="rgb(0,0,0)" />
	<circle cx="712.59" cy="796.047" r="1" fill="rgb(0,0,0)" />
	<circle cx="712.674" cy="433.47" r="1" fill="rgb(0,0,0)" />
	<circle cx="714.218" cy="500.167" r="1" fill="rgb(0,0,0)" />
	<circle cx="715.929" cy="588.025" r="1" fill="rgb(0,0,0)" />
	<circle cx="716.347" cy="318.774" r="1" fill="rgb(0,0,0)" />
	<circle cx="717.348" cy="154.994" r="1" fill="rgb(0,0,0)" />
	<circle cx="720.27" cy="628.929" r="1" fill="rgb(0,0,0)" />
	<circle cx="720.27" cy="446.784" r="1" fill="rgb(0,0,0)" />
	<circle cx="722.065" cy="289.223" r="1" fill="rgb(0,0,0)" />
	<circle cx="722.983" cy="1014.75" r="1" fill="rgb(0,0,0)" />
	<circle cx="725.362" cy="627.468" r="1" fill="rgb(0,0,0)" />
	<circle cx="726.239" cy="292.729" r="1" fill="rgb(0,0,0)" />
	<circle cx="727.407" cy="744.125" r="1" fill="rgb(0,0,0)" />
	<circle cx="728.576" cy="962.415" r="1" fill="rgb(0,0,0)" />
	<circle cx="729.619" cy="471.201" r="1" fill="rgb(0,0,0)" />
	<circle cx="730.997" cy="461.225" r="1" fill="rgb(0,0,0)" />
	<circle cx="733.96" cy="544.409" r="1" fill="rgb(0,0,0)" />
	<circle cx="737.09" cy="233.753" r="1" fill="rgb(0,0,0)" />
	<circle cx="737.424" cy="756.271" r="1" fill="rgb(0,0,0)" />
	<circle cx="737.591" cy="715.159" r="1" fill="rgb(0,0,0)" />
	<circle cx="738.05" cy="505.259" r="1" fill="rgb(0,0,0)" />
	<circle cx="738.635" cy="283.505" r="1" fill="rgb(0,0,0)" />
	<circle cx="739.929" cy="149.86" r="1" fill="rgb(0,0,0)" />
	<circle cx="740.221" cy="232.668" r="1" fill="rgb(0,0,0)" />
	<circle cx="741.64" cy="852.06" r="1" fill="rgb(0,0,0)" />
	<circle cx="742.141" cy="491.402" r="1" fill="rgb(0,0,0)" />
	<circle cx="744.353" cy="440.816" r="1" fill="rgb(0,0,0)" />
	<circle cx="746.565" cy="338.182" r="1" fill="rgb(0,0,0)" />
	<circle cx="747.316" cy="597.458" r="1" fill="rgb(0,0,0)" />
	<circle cx="747.692" cy="928.983" r="1" fill="rgb(0,0,0)" />
	<circle cx="748.276" cy="710.318" r="1" fill="rgb(0,0,0)" />
	<circle cx="751.699" cy="723.841" r="1" fill="rgb(0,0,0)" />
	<circle cx="753.953" cy="449.831" r="1" fill="rgb(0,0,0)" />
	<circle cx="753.953" cy="430.172" r="1" fill="rgb(0,0,0)" />
	<circle cx="754.12" cy="517.071" r="1" fill="rgb(0,0,0)" />
	<circle cx="754.954" cy="215.055" r="1" fill="rgb(0,0,0)" />
	<circle cx="755.455" cy="728.015" r="1" fill="rgb(0,0,0)" />
	<circle cx="755.873" cy="707.312" r="1" fill="rgb(0,0,0)" />
	<circle cx="756.457" cy="751.388" r="1" fill="rgb(0,0,0)" />
	<circle cx="756.54" cy="543.032" r="1" fill="rgb(0,0,0)" />
	<circle cx="756.707" cy="532.43" r="1" fill="rgb(0,0,0)" />
	<circle cx="758.711" cy="891.21" r="1" fill="rgb(0,0,0)" />
	<circle cx="759.086" cy="775.053" r="1" fill="rgb(0,0,0)" />
	<circle cx="759.253" cy="799.386" r="1" fill="rgb(0,0,0)" />
	<circle cx="759.629" cy="1036.63" r="1" fill="rgb(0,0,0)" />
	<circle cx="760.798" cy="529.133" r="1" fill="rgb(0,0,0)" />
	<circle cx="761.132" cy="857.36" r="1" fill="rgb(0,0,0)" />
	<circle cx="761.507" cy="712.655" r="1" fill="rgb(0,0,0)" />
	<circle cx="761.507" cy="242.936" r="1" fill="rgb(0,0,0)" />
	<circle cx="762.258" cy="1026.15" r="1" fill="rgb(0,0,0)" />
	<circle cx="762.968" cy="85.0411" r="1" fill="rgb(0,0,0)" />
	<circle cx="764.095" cy="557.515" r="1" fill="rgb(0,0,0)" />
	<circle cx="764.137" cy="216.307" r="1" fill="rgb(0,0,0)" />
	<circle cx="766.391" cy="530.552" r="1" fill="rgb(0,0,0)" />
	<circle cx="767.476" cy="221.441" r="1" fill="rgb(0,0,0)" />
	<circle cx="770.063" cy="399.871" r="1" fill="rgb(0,0,0)" />
	<circle cx="773.361" cy="490.609" r="1" fill="rgb(0,0,0)" />
	<circle cx="773.361" cy="170.479" r="1" fill="rgb(0,0,0)" />
	<circle cx="774.362" cy="892.253" r="1" fill="rgb(0,0,0)" />
	<circle cx="776.491" cy="276.535" r="1" fill="rgb(0,0,0)" />
	<circle cx="777.66" cy="684.857" r="1" fill="rgb(0,0,0)" />
	<circle cx="780.874" cy="623.878" r="1" fill="rgb(0,0,0)" />
	<circle cx="782.084" cy="687.529" r="1" fill="rgb(0,0,0)" />
	<circle cx="784.964" cy="360.345" r="1" fill="rgb(0,0,0)" />
	<circle cx="785.799" cy="494.95" r="1" fill="rgb(0,0,0)" />
	<circle cx="787.51" cy="1013.92" r="1" fill="rgb(0,0,0)" />
	<circle cx="788.219" cy="765.12" r="1" fill="rgb(0,0,0)" />
	<circle cx="789.263" cy="914.082" r="1" fill="rgb(0,0,0)" />
	<circle cx="790.098" cy="568.242" r="1" fill="rgb(0,0,0)" />
	<circle cx="791.851" cy="479.214" r="1" fill="rgb(0,0,0)" />
	<circle cx="792.352" cy="444.989" r="1" fill="rgb(0,0,0)" />
	<circle cx="793.27" cy="392.149" r="1" fill="rgb(0,0,0)" />
	<circle cx="793.27" cy="178.033" r="1" fill="rgb(0,0,0)" />
	<circle cx="793.395" cy="817.918" r="1" fill="rgb(0,0,0)" />
	<circle cx="794.772" cy="659.189" r="1" fill="rgb(0,0,0)" />
	<circle cx="795.064" cy="930.903" r="1" fill="rgb(0,0,0)" />
	<circle cx="796.567" cy="124.609" r="1" fill="rgb(0,0,0)" />
	<circle cx="798.028" cy="280.959" r="1" fill="rgb(0,0,0)" />
	<circle cx="799.99" cy="293.397" r="1" fill="rgb(0,0,0)" />
	<circle cx="801.116" cy="375.162" r="1" fill="rgb(0,0,0)" />
	<circle cx="802.452" cy="471.952" r="1" fill="rgb(0,0,0)" />
	<circle cx="804.038" cy="542.406" r="1" fill="rgb(0,0,0)" />
	<circle cx="804.539" cy="349.576" r="1" fill="rgb(0,0,0)" />
	<circle cx="808.128" cy="947.64" r="1" fill="rgb(0,0,0)" />
	<circle cx="808.796" cy="821.883" r="1" fill="rgb(0,0,0)" />
	<circle cx="809.214" cy="412.016" r="1" fill="rgb(0,0,0)" />
	<circle cx="809.881" cy="199.695" r="1" fill="rgb(0,0,0)" />
	<circle cx="810.341" cy="475.583" r="1" fill="rgb(0,0,0)" />
	<circle cx="810.633" cy="237.927" r="1" fill="rgb(0,0,0)" />
	<circle cx="810.967" cy="419.446" r="1" fill="rgb(0,0,0)" />
	<circle cx="811.301" cy="371.03" r="1" fill="rgb(0,0,0)" />
	<circle cx="814.932" cy="1039.84" r="1" fill="rgb(0,0,0)" />
	<circle cx="815.266" cy="1043.76" r="1" fill="rgb(0,0,0)" />
	<circle cx="815.641" cy="865.416" r="1" fill="rgb(0,0,0)" />
	<circle cx="817.06" cy="766.497" r="1" fill="rgb(0,0,0)" />
	<circle cx="818.605" cy="435.264" r="1" fill="rgb(0,0,0)" />
	<circle cx="818.897" cy="685.024" r="1" fill="rgb(0,0,0)" />
	<circle cx="819.982" cy="370.696" r="1" fill="rgb(0,0,0)" />
	<circle cx="820.441" cy="50.7325" r="1" fill="rgb(0,0,0)" />
	<circle cx="820.984" cy="147.773" r="1" fill="rgb(0,0,0)" />
	<circle cx="821.401" cy="122.522" r="1" fill="rgb(0,0,0)" />
	<circle cx="821.485" cy="804.061" r="1" fill="rgb(0,0,0)" />
	<circle cx="821.944" cy="171.147" r="1" fill="rgb(0,0,0)" />
	<circle cx="822.945" cy="539.025" r="1" fill="rgb(0,0,0)" />
	<circle cx="822.945" cy="356.421" r="1" fill="rgb(0,0,0)" />
	<circle cx="823.697" cy="350.662" r="1" fill="rgb(0,0,0)" />
	<circle cx="825.867" cy="470.658" r="1" fill="rgb(0,0,0)" />
	<circle cx="826.034" cy="677.845" r="1" fill="rgb(0,0,0)" />
	<circle cx="831.084" cy="400.455" r="1" fill="rgb(0,0,0)" />
	<circle cx="831.794" cy="523.206" r="1" fill="rgb(0,0,0)" />
	<circle cx="833.422" cy="646.792" r="1" fill="rgb(0,0,0)" />
	<circle cx="833.964" cy="75.3996" r="1" fill="rgb(0,0,0)" />
	<circle cx="835.425" cy="129.742" r="1" fill="rgb(0,0,0)" />
	<circle cx="835.842" cy="74.4397" r="1" fill="rgb(0,0,0)" />
	<circle cx="836.135" cy="877.937" r="1" fill="rgb(0,0,0)" />
	<circle cx="836.427" cy="718.707" r="1" fill="rgb(0,0,0)" />
	<circle cx="837.053" cy="719.208" r="1" fill="rgb(0,0,0)" />
	<circle cx="838.055" cy="148.733" r="1" fill="rgb(0,0,0)" />
	<circle cx="840.601" cy="213.135" r="1" fill="rgb(0,0,0)" />
	<circle cx="842.604" cy="511.52" r="1" fill="rgb(0,0,0)" />
	<circle cx="843.063" cy="570.12" r="1" fill="rgb(0,0,0)" />
	<circle cx="843.606" cy="531.011" r="1" fill="rgb(0,0,0)" />
	<circle cx="843.606" cy="96.0599" r="1" fill="rgb(0,0,0)" />
	<circle cx="845.818" cy="412.642" r="1" fill="rgb(0,0,0)" />
	<circle cx="847.529" cy="675.174" r="1" fill="rgb(0,0,0)" />
	<circle cx="854.875" cy="1023.39" r="1" fill="rgb(0,0,0)" />
	<circle cx="855.751" cy="762.657" r="1" fill="rgb(0,0,0)" />
	<circle cx="856.127" cy="134.626" r="1" fill="rgb(0,0,0)" />
	<circle cx="860.051" cy="609.27" r="1" fill="rgb(0,0,0)" />
	<circle cx="860.426" cy="306.503" r="1" fill="rgb(0,0,0)" />
	<circle cx="862.471" cy="409.804" r="1" fill="rgb(0,0,0)" />
	<circle cx="863.306" cy="1028.49" r="1" fill="rgb(0,0,0)" />
	<circle cx="864.35" cy="118.39" r="1" fill="rgb(0,0,0)" />
	<circle cx="865.351" cy="140.636" r="1" fill="rgb(0,0,0)" />
	<circle cx="865.685" cy="779.728" r="1" fill="rgb(0,0,0)" />
	<circle cx="867.355" cy="199.32" r="1" fill="rgb(0,0,0)" />
	<circle cx="868.273" cy="203.327" r="1" fill="rgb(0,0,0)" />
	<circle cx="870.694" cy="257.878" r="1" fill="rgb(0,0,0)" />
	<circle cx="871.403" cy="552.882" r="1" fill="rgb(0,0,0)" />
	<circle cx="873.114" cy="901.436" r="1" fill="rgb(0,0,0)" />
	<circle cx="875.118" cy="455.674" r="1" fill="rgb(0,0,0)" />
	<circle cx="876.996" cy="162.882" r="1" fill="rgb(0,0,0)" />
	<circle cx="877.121" cy="660.524" r="1" fill="rgb(0,0,0)" />
	<circle cx="877.539" cy="49.8977" r="1" fill="rgb(0,0,0)" />
	<circle cx="878.624" cy="602.508" r="1" fill="rgb(0,0,0)" />
	<circle cx="880.001" cy="885.2" r="1" fill="rgb(0,0,0)" />
	<circle cx="882.088" cy="490.359" r="1" fill="rgb(0,0,0)" />
	<circle cx="884.05" cy="252.828" r="1" fill="rgb(0,0,0)" />
	<circle cx="884.342" cy="626.675" r="1" fill="rgb(0,0,0)" />
	<circle cx="887.723" cy="607.016" r="1" fill="rgb(0,0,0)" />
	<circle cx="890.144" cy="487.771" r="1" fill="rgb(0,0,0)" />
	<circle cx="890.603" cy="141.387" r="1" fill="rgb(0,0,0)" />
	<circle cx="891.855" cy="762.156" r="1" fill="rgb(0,0,0)" />
	<circle cx="893.232" cy="264.514" r="1" fill="rgb(0,0,0)" />
	<circle cx="893.817" cy="326.37" r="1" fill="rgb(0,0,0)" />
	<circle cx="894.15" cy="1018.18" r="1" fill="rgb(0,0,0)" />
	<circle cx="896.905" cy="735.527" r="1" fill="rgb(0,0,0)" />
	<circle cx="896.947" cy="503.423" r="1" fill="rgb(0,0,0)" />
	<circle cx="897.114" cy="938.833" r="1" fill="rgb(0,0,0)" />
	<circle cx="897.323" cy="805.438" r="1" fill="rgb(0,0,0)" />
	<circle cx="898.199" cy="594.411" r="1" fill="rgb(0,0,0)" />
	<circle cx="899.743" cy="140.427" r="1" fill="rgb(0,0,0)" />
	<circle cx="899.785" cy="274.782" r="1" fill="rgb(0,0,0)" />
	<circle cx="901.121" cy="596.206" r="1" fill="rgb(0,0,0)" />
	<circle cx="902.498" cy="356.63" r="1" fill="rgb(0,0,0)" />
	<circle cx="903.208" cy="673.922" r="1" fill="rgb(0,0,0)" />
	<circle cx="904.168" cy="811.741" r="1" fill="rgb(0,0,0)" />
	<circle cx="904.877" cy="1039.92" r="1" fill="rgb(0,0,0)" />
	<circle cx="905.628" cy="768.25" r="1" fill="rgb(0,0,0)" />
	<circle cx="908.174" cy="245.315" r="1" fill="rgb(0,0,0)" />
	<circle cx="909.385" cy="845.841" r="1" fill="rgb(0,0,0)" />
	<circle cx="910.47" cy="187.55" r="1" fill="rgb(0,0,0)" />
	<circle cx="911.597" cy="632.184" r="1" fill="rgb(0,0,0)" />
	<circle cx="911.764" cy="464.314" r="1" fill="rgb(0,0,0)" />
	<circle cx="911.847" cy="354.376" r="1" fill="rgb(0,0,0)" />
	<circle cx="914.059" cy="507.847" r="1" fill="rgb(0,0,0)" />
	<circle cx="914.894" cy="662.235" r="1" fill="rgb(0,0,0)" />
	<circle cx="914.936" cy="450.415" r="1" fill="rgb(0,0,0)" />
	<circle cx="915.061" cy="907.112" r="1" fill="rgb(0,0,0)" />
	<circle cx="917.357" cy="866.585" r="1" fill="rgb(0,0,0)" />
	<circle cx="917.357" cy="496.369" r="1" fill="rgb(0,0,0)" />
	<circle cx="918.442" cy="584.728" r="1" fill="rgb(0,0,0)" />
	<circle cx="924.703" cy="224.404" r="1" fill="rgb(0,0,0)" />
	<circle cx="925.663" cy="557.807" r="1" fill="rgb(0,0,0)" />
	<circle cx="928.626" cy="322.447" r="1" fill="rgb(0,0,0)" />
	<circle cx="931.089" cy="981.322" r="1" fill="rgb(0,0,0)" />
	<circle cx="933.384" cy="460.224" r="1" fill="rgb(0,0,0)" />
	<circle cx="941.064" cy="511.228" r="1" fill="rgb(0,0,0)" />
	<circle cx="942.566" cy="237.009" r="1" fill="rgb(0,0,0)" />
	<circle cx="943.401" cy="547.122" r="1" fill="rgb(0,0,0)" />
	<circle cx="946.49" cy="744.668" r="1" fill="rgb(0,0,0)" />
	<circle cx="947.492" cy="1022.94" r="1" fill="rgb(0,0,0)" />
	<circle cx="948.326" cy="799.219" r="1" fill="rgb(0,0,0)" />
	<circle cx="948.41" cy="686.861" r="1" fill="rgb(0,0,0)" />
	<circle cx="948.744" cy="56.3671" r="1" fill="rgb(0,0,0)" />
	<circle cx="951.624" cy="561.104" r="1" fill="rgb(0,0,0)" />
	<circle cx="952.5" cy="352.248" r="1" fill="rgb(0,0,0)" />
	<circle cx="955.38" cy="99.0651" r="1" fill="rgb(0,0,0)" />
	<circle cx="959.053" cy="682.353" r="1" fill="rgb(0,0,0)" />
	<circle cx="961.724" cy="669.581" r="1" fill="rgb(0,0,0)" />
	<circle cx="961.891" cy="604.637" r="1" fill="rgb(0,0,0)" />
	<circle cx="962.893" cy="356.922" r="1" fill="rgb(0,0,0)" />
	<circle cx="963.435" cy="628.136" r="1" fill="rgb(0,0,0)" />
	<circle cx="965.021" cy="131.746" r="1" fill="rgb(0,0,0)" />
	<circle cx="968.11" cy="165.762" r="1" fill="rgb(0,0,0)" />
	<circle cx="970.364" cy="947.723" r="1" fill="rgb(0,0,0)" />
	<circle cx="970.907" cy="387.099" r="1" fill="rgb(0,0,0)" />
	<circle cx="971.992" cy="961.205" r="1" fill="rgb(0,0,0)" />
	<circle cx="972.284" cy="824.554" r="1" fill="rgb(0,0,0)" />
	<circle cx="975.665" cy="812.45" r="1" fill="rgb(0,0,0)" />
	<circle cx="975.999" cy="477.253" r="1" fill="rgb(0,0,0)" />
	<circle cx="980.924" cy="771.339" r="1" fill="rgb(0,0,0)" />
	<circle cx="985.974" cy="428.211" r="1" fill="rgb(0,0,0)" />
	<circle cx="987.518" cy="823.761" r="1" fill="rgb(0,0,0)" />
	<circle cx="987.977" cy="117.931" r="1" fill="rgb(0,0,0)" />
	<circle cx="988.77" cy="744.084" r="1" fill="rgb(0,0,0)" />
	<circle cx="989.563" cy="703.306" r="1" fill="rgb(0,0,0)" />
	<circle cx="994.029" cy="883.238" r="1" fill="rgb(0,0,0)" />
	<circle cx="997.076" cy="612.066" r="1" fill="rgb(0,0,0)" />
	<circle cx="997.452" cy="747.172" r="1" fill="rgb(0,0,0)" />
	<circle cx="997.661" cy="330.669" r="1" fill="rgb(0,0,0)" />
	<circle cx="999.288" cy="695.208" r="1" fill="rgb(0,0,0)" />
	<circle cx="1000.54" cy="1005.57" r="1" fill="rgb(0,0,0)" />
	<circle cx="1000.58" cy="749.343" r="1" fill="rgb(0,0,0)" />
	<circle cx="1001.25" cy="820.631" r="1" fill="rgb(0,0,0)" />
	<circle cx="1003.25" cy="770.128" r="1" fill="rgb(0,0,0)" />
	<circle cx="1004.09" cy="135.419" r="1" fill="rgb(0,0,0)" />
	<circle cx="1004.63" cy="515.652" r="1" fill="rgb(0,0,0)" />
	<circle cx="1007.05" cy="182.875" r="1" fill="rgb(0,0,0)" />
	<circle cx="1007.47" cy="818.043" r="1" fill="rgb(0,0,0)" />
	<circle cx="1008.05" cy="1015.21" r="1" fill="rgb(0,0,0)" />
	<circle cx="1008.93" cy="997.6" r="1" fill="rgb(0,0,0)" />
	<circle cx="1009.01" cy="428.002" r="1" fill="rgb(0,0,0)" />
	<circle cx="1010.02" cy="249.53" r="1" fill="rgb(0,0,0)" />
	<circle cx="1011.27" cy="385.221" r="1" fill="rgb(0,0,0)" />
	<circle cx="1011.31" cy="159.71" r="1" fill="rgb(0,0,0)" />
	<circle cx="1012.31" cy="401.749" r="1" fill="rgb(0,0,0)" />
	<circle cx="1015.48" cy="946.555" r="1" fill="rgb(0,0,0)" />
	<circle cx="1015.77" cy="340.561" r="1" fill="rgb(0,0,0)" />
	<circle cx="1015.98" cy="630.932" r="1" fill="rgb(0,0,0)" />
	<circle cx="1017.74" cy="457.928" r="1" fill="rgb(0,0,0)" />
	<circle cx="1018.36" cy="402.333" r="1" fill="rgb(0,0,0)" />
	<circle cx="1018.74" cy="143.85" r="1" fill="rgb(0,0,0)" />
	<circle cx="1019.99" cy="465.858" r="1" fill="rgb(0,0,0)" />
	<circle cx="1020.95" cy="671.793" r="1" fill="rgb(0,0,0)" />
	<circle cx="1021.33" cy="808.861" r="1" fill="rgb(0,0,0)" />
	<circle cx="1026.04" cy="219.312" r="1" fill="rgb(0,0,0)" />
	<circle cx="1027.13" cy="607.141" r="1" fill="rgb(0,0,0)" />
	<circle cx="1028.84" cy="674.047" r="1" fill="rgb(0,0,0)" />
	<circle cx="1033.85" cy="64.6312" r="1" fill="rgb(0,0,0)" />
	<circle cx="1034.06" cy="137.13" r="1" fill="rgb(0,0,0)" />
	<circle cx="1034.97" cy="471.702" r="1" fill="rgb(0,0,0)" />
	<circle cx="1035.48" cy="173.734" r="1" fill="rgb(0,0,0)" />
	<circle cx="1037.98" cy="579.177" r="1" fill="rgb(0,0,0)" />
	<circle cx="1038.15" cy="867.753" r="1" fill="rgb(0,0,0)" />
	<circle cx="1039.69" cy="723.507" r="1" fill="rgb(0,0,0)" />
	<circle cx="1040.07" cy="177.992" r="1" fill="rgb(0,0,0)" />
	<circle cx="1040.28" cy="910.326" r="1" fill="rgb(0,0,0)" />
	<circle cx="1041.78" cy="726.47" r="1" fill="rgb(0,0,0)" />
	<circle cx="1042.15" cy="55.9497" r="1" fill="rgb(0,0,0)" />
	<circle cx="1043.36" cy="469.281" r="1" fill="rgb(0,0,0)" />
	<circle cx="1044.37" cy="434.847" r="1" fill="rgb(0,0,0)" />
	<circle cx="1044.7" cy="909.366" r="1" fill="rgb(0,0,0)" />
	<circle cx="1045.2" cy="403.168" r="1" fill="rgb(0,0,0)" />
	<circle cx="1045.7" cy="1008.83" r="1" fill="rgb(0,0,0)" />
	<circle cx="1046.41" cy="151.613" r="1" fill="rgb(0,0,0)" />
	<circle cx="1047.29" cy="104.449" r="1" fill="rgb(0,0,0)" />
	<circle cx="1047.62" cy="558.517" r="1" fill="rgb(0,0,0)" />
	<circle cx="1048.75" cy="372.491" r="1" fill="rgb(0,0,0)" />
	<circle cx="1049.75" cy="985.538" r="1" fill="rgb(0,0,0)" />
	<circle cx="1050" cy="838.745" r="1" fill="rgb(0,0,0)" />
</svg>
