<?xml version="1.0" standalone="no" ?>
<!DOCTYPE svg PUBLIC "-//W3C//DTD SVG 1.1//EN" "http://www.w3.org/Graphics/SVG/1.1/DTD/svg11.dtd">
<svg width="1100px" height="1157.54px" xmlns="http://www.w3.org/2000/svg" version="1.1" >
	<circle cx="50" cy="305.949" r="1" fill="rgb(0,0,0)" />
	<circle cx="79.7436" cy="932.615" r="1" fill="rgb(0,0,0)" />
	<circle cx="93.0769" cy="993.128" r="1" fill="rgb(0,0,0)" />
	<circle cx="112.564" cy="982.872" r="1" fill="rgb(0,0,0)" />
	<circle cx="117.692" cy="226.974" r="1" fill="rgb(0,0,0)" />
	<circle cx="196.667" cy="1092.62" r="1" fill="rgb(0,0,0)" />
	<circle cx="244.872" cy="286.462" r="1" fill="rgb(0,0,0)" />
	<circle cx="278.718" cy="533.641" r="1" fill="rgb(0,0,0)" />
	<circle cx="279.744" cy="832.103" r="1" fill="rgb(0,0,0)" />
	<circle cx="311.538" cy="728.513" r="1" fill="rgb(0,0,0)" />
	<circle cx="333.077" cy="554.154" r="1" fill="rgb(0,0,0)" />
	<circle cx="334.103" cy="341.846" r="1" fill="rgb(0,0,0)" />
	<circle cx="352.564" cy="860.821" r="1" fill="rgb(0,0,0)" />
	<circle cx="372.051" cy="598.256" r="1" fill="rgb(0,0,0)" />
	<circle cx="397.692" cy="101.846" r="1" fill="rgb(0,0,0)" />
	<circle cx="414.103" cy="1104.92" r="1" fill="rgb(0,0,0)" />
	<circle cx="434.615" cy="726.462" r="1" fill="rgb(0,0,0)" />
	<circle cx="446.923" cy="168.513" r="1" fill="rgb(0,0,0)" />
	<circle cx="461.282" cy="729.538" r="1" fill="rgb(0,0,0)" />
	<circle cx="486.923" cy="464.923" r="1" fill="rgb(0,0,0)" />
	<circle cx="570" cy="435.179" r="1" fill="rgb(0,0,0)" />
	<circle cx="590.513" cy="644.41" r="1" fill="rgb(0,0,0)" />
	<circle cx="666.41" cy="236.205" r="1" fill="rgb(0,0,0)" />
	<circle cx="671.538" cy="733.641" r="1" fill="rgb(0,0,0)" />
	<circle cx="697.179" cy="179.795" r="1" fill="rgb(0,0,0)" />
	<circle cx="700.256" cy="606.462" r="1" fill="rgb(0,0,0)" />
	<circle cx="746.41" cy="515.179" r="1" fill="rgb(0,0,0)" />
	<circle cx="887.949" cy="479.282" r="1" fill="rgb(0,0,0)" />
	<circle cx="949.487" cy="572.615" r="1" fill="rgb(0,0,0)" />
	<circle cx="951.538" cy="52.6154" r="1" fill="rgb(0,0,0)" />
	<circle cx="973.077" cy="137.744" r="1" fill="rgb(0,0,0)" />
	<circle cx="982.308" cy="211.59" r="1" fill="rgb(0,0,0)" />
	<circle cx="995.641" cy="382.872" r="1" fill="rgb(0,0,0)" />
	<circle cx="1046.92" cy="979.795" r="1" fill="rgb(0,0,0)" />
	<circle cx="1050" cy="206.462" r="1" fill="rgb(0,0,0)" />
</svg>
