<?xml version="1.0" standalone="no" ?>
<!DOCTYPE svg PUBLIC "-//W3C//DTD SVG 1.1//EN" "http://www.w3.org/Graphics/SVG/1.1/DTD/svg11.dtd">
<svg width="1100px" height="1098.6px" xmlns="http://www.w3.org/2000/svg" version="1.1" >
	<circle cx="50" cy="798.661" r="1" fill="rgb(0,0,0)" />
	<circle cx="58.9286" cy="913.457" r="1" fill="rgb(0,0,0)" />
	<circle cx="102.296" cy="204.273" r="1" fill="rgb(0,0,0)" />
	<circle cx="106.122" cy="370.089" r="1" fill="rgb(0,0,0)" />
	<circle cx="169.898" cy="1015.5" r="1" fill="rgb(0,0,0)" />
	<circle cx="183.929" cy="951.722" r="1" fill="rgb(0,0,0)" />
	<circle cx="189.031" cy="49.9362" r="1" fill="rgb(0,0,0)" />
	<circle cx="206.888" cy="178.763" r="1" fill="rgb(0,0,0)" />
	<circle cx="226.02" cy="636.671" r="1" fill="rgb(0,0,0)" />
	<circle cx="233.673" cy="812.691" r="1" fill="rgb(0,0,0)" />
	<circle cx="270.663" cy="1039.73" r="1" fill="rgb(0,0,0)" />
	<circle cx="292.347" cy="227.232" r="1" fill="rgb(0,0,0)" />
	<circle cx="297.449" cy="1019.32" r="1" fill="rgb(0,0,0)" />
	<circle cx="316.582" cy="982.334" r="1" fill="rgb(0,0,0)" />
	<circle cx="316.582" cy="543.559" r="1" fill="rgb(0,0,0)" />
	<circle cx="340.816" cy="765.497" r="1" fill="rgb(0,0,0)" />
	<circle cx="382.908" cy="1048.66" r="1" fill="rgb(0,0,0)" />
	<circle cx="402.041" cy="1029.53" r="1" fill="rgb(0,0,0)" />
	<circle cx="410.969" cy="385.395" r="1" fill="rgb(0,0,0)" />
	<circle cx="431.378" cy="756.569" r="1" fill="rgb(0,0,0)" />
	<circle cx="451.786" cy="496.365" r="1" fill="rgb(0,0,0)" />
	<circle cx="487.5" cy="53.7628" r="1" fill="rgb(0,0,0)" />
	<circle cx="516.837" cy="973.406" r="1" fill="rgb(0,0,0)" />
	<circle cx="604.847" cy="521.875" r="1" fill="rgb(0,0,0)" />
	<circle cx="773.214" cy="487.436" r="1" fill="rgb(0,0,0)" />
	<circle cx="868.878" cy="581.824" r="1" fill="rgb(0,0,0)" />
	<circle cx="900.765" cy="1042.28" r="1" fill="rgb(0,0,0)" />
	<circle cx="987.5" cy="338.202" r="1" fill="rgb(0,0,0)" />
	<circle cx="987.5" cy="116.263" r="1" fill="rgb(0,0,0)" />
	<circle cx="1050" cy="205.548" r="1" fill="rgb(0,0,0)" />
</svg>
