<?xml version="1.0" standalone="no" ?>
<!DOCTYPE svg PUBLIC "-//W3C//DTD SVG 1.1//EN" "http://www.w3.org/Graphics/SVG/1.1/DTD/svg11.dtd">
<svg width="1100px" height="1103.5px" xmlns="http://www.w3.org/2000/svg" version="1.1" >
	<circle cx="50" cy="665.08" r="1" fill="rgb(0,0,0)" />
	<circle cx="58.3822" cy="760.469" r="1" fill="rgb(0,0,0)" />
	<circle cx="65.4233" cy="236.915" r="1" fill="rgb(0,0,0)" />
	<circle cx="81.5172" cy="717.049" r="1" fill="rgb(0,0,0)" />
	<circle cx="88.7259" cy="539.179" r="1" fill="rgb(0,0,0)" />
	<circle cx="101.467" cy="848.315" r="1" fill="rgb(0,0,0)" />
	<circle cx="102.808" cy="514.367" r="1" fill="rgb(0,0,0)" />
	<circle cx="119.908" cy="575.39" r="1" fill="rgb(0,0,0)" />
	<circle cx="122.087" cy="452.506" r="1" fill="rgb(0,0,0)" />
	<circle cx="125.775" cy="925.096" r="1" fill="rgb(0,0,0)" />
	<circle cx="127.787" cy="536.999" r="1" fill="rgb(0,0,0)" />
	<circle cx="128.961" cy="705.65" r="1" fill="rgb(0,0,0)" />
	<circle cx="129.128" cy="107.997" r="1" fill="rgb(0,0,0)" />
	<circle cx="133.655" cy="889.723" r="1" fill="rgb(0,0,0)" />
	<circle cx="133.99" cy="725.599" r="1" fill="rgb(0,0,0)" />
	<circle cx="134.996" cy="888.215" r="1" fill="rgb(0,0,0)" />
	<circle cx="138.852" cy="416.966" r="1" fill="rgb(0,0,0)" />
	<circle cx="145.725" cy="342.531" r="1" fill="rgb(0,0,0)" />
	<circle cx="150.587" cy="518.055" r="1" fill="rgb(0,0,0)" />
	<circle cx="150.922" cy="524.258" r="1" fill="rgb(0,0,0)" />
	<circle cx="152.598" cy="1023" r="1" fill="rgb(0,0,0)" />
	<circle cx="153.772" cy="363.152" r="1" fill="rgb(0,0,0)" />
	<circle cx="158.801" cy="304.476" r="1" fill="rgb(0,0,0)" />
	<circle cx="167.687" cy="646.471" r="1" fill="rgb(0,0,0)" />
	<circle cx="169.866" cy="333.311" r="1" fill="rgb(0,0,0)" />
	<circle cx="172.045" cy="159.966" r="1" fill="rgb(0,0,0)" />
	<circle cx="175.566" cy="214.451" r="1" fill="rgb(0,0,0)" />
	<circle cx="176.069" cy="283.856" r="1" fill="rgb(0,0,0)" />
	<circle cx="182.775" cy="110.679" r="1" fill="rgb(0,0,0)" />
	<circle cx="186.798" cy="981.593" r="1" fill="rgb(0,0,0)" />
	<circle cx="187.469" cy="411.433" r="1" fill="rgb(0,0,0)" />
	<circle cx="188.139" cy="210.26" r="1" fill="rgb(0,0,0)" />
	<circle cx="199.036" cy="539.179" r="1" fill="rgb(0,0,0)" />
	<circle cx="208.927" cy="608.08" r="1" fill="rgb(0,0,0)" />
	<circle cx="218.65" cy="200.201" r="1" fill="rgb(0,0,0)" />
	<circle cx="221.333" cy="552.59" r="1" fill="rgb(0,0,0)" />
	<circle cx="221.5" cy="551.92" r="1" fill="rgb(0,0,0)" />
	<circle cx="221.668" cy="289.723" r="1" fill="rgb(0,0,0)" />
	<circle cx="224.015" cy="747.393" r="1" fill="rgb(0,0,0)" />
	<circle cx="225.021" cy="337.167" r="1" fill="rgb(0,0,0)" />
	<circle cx="240.109" cy="61.7267" r="1" fill="rgb(0,0,0)" />
	<circle cx="254.191" cy="303.638" r="1" fill="rgb(0,0,0)" />
	<circle cx="259.388" cy="685.029" r="1" fill="rgb(0,0,0)" />
	<circle cx="266.597" cy="522.582" r="1" fill="rgb(0,0,0)" />
	<circle cx="268.944" cy="741.19" r="1" fill="rgb(0,0,0)" />
	<circle cx="275.314" cy="992.322" r="1" fill="rgb(0,0,0)" />
	<circle cx="275.314" cy="820.486" r="1" fill="rgb(0,0,0)" />
	<circle cx="281.685" cy="539.179" r="1" fill="rgb(0,0,0)" />
	<circle cx="285.038" cy="929.958" r="1" fill="rgb(0,0,0)" />
	<circle cx="285.205" cy="158.458" r="1" fill="rgb(0,0,0)" />
	<circle cx="297.108" cy="552.087" r="1" fill="rgb(0,0,0)" />
	<circle cx="297.779" cy="89.5557" r="1" fill="rgb(0,0,0)" />
	<circle cx="301.132" cy="508.332" r="1" fill="rgb(0,0,0)" />
	<circle cx="306.664" cy="824.174" r="1" fill="rgb(0,0,0)" />
	<circle cx="307.167" cy="796.681" r="1" fill="rgb(0,0,0)" />
	<circle cx="307.167" cy="732.976" r="1" fill="rgb(0,0,0)" />
	<circle cx="308.005" cy="182.766" r="1" fill="rgb(0,0,0)" />
	<circle cx="308.508" cy="51.5004" r="1" fill="rgb(0,0,0)" />
	<circle cx="313.37" cy="501.961" r="1" fill="rgb(0,0,0)" />
	<circle cx="319.07" cy="580.251" r="1" fill="rgb(0,0,0)" />
	<circle cx="336.169" cy="537.67" r="1" fill="rgb(0,0,0)" />
	<circle cx="371.878" cy="225.013" r="1" fill="rgb(0,0,0)" />
	<circle cx="372.716" cy="972.54" r="1" fill="rgb(0,0,0)" />
	<circle cx="381.266" cy="134.149" r="1" fill="rgb(0,0,0)" />
	<circle cx="392.833" cy="676.815" r="1" fill="rgb(0,0,0)" />
	<circle cx="396.689" cy="763.487" r="1" fill="rgb(0,0,0)" />
	<circle cx="410.268" cy="356.446" r="1" fill="rgb(0,0,0)" />
	<circle cx="417.142" cy="837.418" r="1" fill="rgb(0,0,0)" />
	<circle cx="430.218" cy="1032.72" r="1" fill="rgb(0,0,0)" />
	<circle cx="431.391" cy="909.338" r="1" fill="rgb(0,0,0)" />
	<circle cx="437.427" cy="913.864" r="1" fill="rgb(0,0,0)" />
	<circle cx="441.115" cy="646.974" r="1" fill="rgb(0,0,0)" />
	<circle cx="445.474" cy="941.19" r="1" fill="rgb(0,0,0)" />
	<circle cx="452.515" cy="851.836" r="1" fill="rgb(0,0,0)" />
	<circle cx="455.7" cy="831.718" r="1" fill="rgb(0,0,0)" />
	<circle cx="461.903" cy="684.359" r="1" fill="rgb(0,0,0)" />
	<circle cx="462.406" cy="837.586" r="1" fill="rgb(0,0,0)" />
	<circle cx="463.915" cy="238.759" r="1" fill="rgb(0,0,0)" />
	<circle cx="466.764" cy="158.29" r="1" fill="rgb(0,0,0)" />
	<circle cx="471.459" cy="706.823" r="1" fill="rgb(0,0,0)" />
	<circle cx="472.129" cy="908.835" r="1" fill="rgb(0,0,0)" />
	<circle cx="472.967" cy="300.788" r="1" fill="rgb(0,0,0)" />
	<circle cx="474.141" cy="922.246" r="1" fill="rgb(0,0,0)" />
	<circle cx="474.141" cy="536.999" r="1" fill="rgb(0,0,0)" />
	<circle cx="490.067" cy="791.987" r="1" fill="rgb(0,0,0)" />
	<circle cx="490.402" cy="401.375" r="1" fill="rgb(0,0,0)" />
	<circle cx="494.761" cy="565.163" r="1" fill="rgb(0,0,0)" />
	<circle cx="496.102" cy="217.469" r="1" fill="rgb(0,0,0)" />
	<circle cx="499.288" cy="373.378" r="1" fill="rgb(0,0,0)" />
	<circle cx="499.455" cy="611.769" r="1" fill="rgb(0,0,0)" />
	<circle cx="505.49" cy="599.698" r="1" fill="rgb(0,0,0)" />
	<circle cx="510.017" cy="1042.78" r="1" fill="rgb(0,0,0)" />
	<circle cx="512.364" cy="647.142" r="1" fill="rgb(0,0,0)" />
	<circle cx="516.387" cy="1050.16" r="1" fill="rgb(0,0,0)" />
	<circle cx="526.111" cy="496.764" r="1" fill="rgb(0,0,0)" />
	<circle cx="537.678" cy="287.041" r="1" fill="rgb(0,0,0)" />
	<circle cx="541.534" cy="920.905" r="1" fill="rgb(0,0,0)" />
	<circle cx="549.413" cy="938.005" r="1" fill="rgb(0,0,0)" />
	<circle cx="559.64" cy="305.314" r="1" fill="rgb(0,0,0)" />
	<circle cx="559.807" cy="134.484" r="1" fill="rgb(0,0,0)" />
	<circle cx="562.825" cy="816.463" r="1" fill="rgb(0,0,0)" />
	<circle cx="562.825" cy="83.5205" r="1" fill="rgb(0,0,0)" />
	<circle cx="565.842" cy="639.598" r="1" fill="rgb(0,0,0)" />
	<circle cx="567.184" cy="898.106" r="1" fill="rgb(0,0,0)" />
	<circle cx="568.022" cy="774.719" r="1" fill="rgb(0,0,0)" />
	<circle cx="571.207" cy="970.528" r="1" fill="rgb(0,0,0)" />
	<circle cx="577.745" cy="600.034" r="1" fill="rgb(0,0,0)" />
	<circle cx="588.307" cy="510.008" r="1" fill="rgb(0,0,0)" />
	<circle cx="602.892" cy="137.167" r="1" fill="rgb(0,0,0)" />
	<circle cx="613.118" cy="908.332" r="1" fill="rgb(0,0,0)" />
	<circle cx="614.962" cy="747.896" r="1" fill="rgb(0,0,0)" />
	<circle cx="615.465" cy="939.514" r="1" fill="rgb(0,0,0)" />
	<circle cx="622.842" cy="400.872" r="1" fill="rgb(0,0,0)" />
	<circle cx="633.068" cy="1049.49" r="1" fill="rgb(0,0,0)" />
	<circle cx="639.941" cy="858.709" r="1" fill="rgb(0,0,0)" />
	<circle cx="640.109" cy="614.954" r="1" fill="rgb(0,0,0)" />
	<circle cx="648.491" cy="577.737" r="1" fill="rgb(0,0,0)" />
	<circle cx="650.838" cy="883.018" r="1" fill="rgb(0,0,0)" />
	<circle cx="651.341" cy="454.35" r="1" fill="rgb(0,0,0)" />
	<circle cx="653.521" cy="545.717" r="1" fill="rgb(0,0,0)" />
	<circle cx="655.365" cy="849.992" r="1" fill="rgb(0,0,0)" />
	<circle cx="659.053" cy="1008.42" r="1" fill="rgb(0,0,0)" />
	<circle cx="661.4" cy="832.724" r="1" fill="rgb(0,0,0)" />
	<circle cx="670.453" cy="862.23" r="1" fill="rgb(0,0,0)" />
	<circle cx="671.459" cy="725.264" r="1" fill="rgb(0,0,0)" />
	<circle cx="684.535" cy="967.175" r="1" fill="rgb(0,0,0)" />
	<circle cx="695.096" cy="148.902" r="1" fill="rgb(0,0,0)" />
	<circle cx="697.779" cy="960.805" r="1" fill="rgb(0,0,0)" />
	<circle cx="710.184" cy="713.529" r="1" fill="rgb(0,0,0)" />
	<circle cx="723.261" cy="544.543" r="1" fill="rgb(0,0,0)" />
	<circle cx="725.44" cy="1032.56" r="1" fill="rgb(0,0,0)" />
	<circle cx="725.608" cy="711.35" r="1" fill="rgb(0,0,0)" />
	<circle cx="725.608" cy="197.519" r="1" fill="rgb(0,0,0)" />
	<circle cx="728.29" cy="909.841" r="1" fill="rgb(0,0,0)" />
	<circle cx="730.469" cy="437.251" r="1" fill="rgb(0,0,0)" />
	<circle cx="731.978" cy="687.544" r="1" fill="rgb(0,0,0)" />
	<circle cx="734.493" cy="491.232" r="1" fill="rgb(0,0,0)" />
	<circle cx="745.39" cy="1042.62" r="1" fill="rgb(0,0,0)" />
	<circle cx="746.06" cy="922.079" r="1" fill="rgb(0,0,0)" />
	<circle cx="746.731" cy="442.112" r="1" fill="rgb(0,0,0)" />
	<circle cx="747.904" cy="301.626" r="1" fill="rgb(0,0,0)" />
	<circle cx="753.437" cy="408.08" r="1" fill="rgb(0,0,0)" />
	<circle cx="759.304" cy="311.014" r="1" fill="rgb(0,0,0)" />
	<circle cx="759.975" cy="86.2028" r="1" fill="rgb(0,0,0)" />
	<circle cx="760.478" cy="436.748" r="1" fill="rgb(0,0,0)" />
	<circle cx="762.49" cy="678.659" r="1" fill="rgb(0,0,0)" />
	<circle cx="770.704" cy="291.4" r="1" fill="rgb(0,0,0)" />
	<circle cx="776.236" cy="119.564" r="1" fill="rgb(0,0,0)" />
	<circle cx="780.93" cy="947.896" r="1" fill="rgb(0,0,0)" />
	<circle cx="781.098" cy="612.607" r="1" fill="rgb(0,0,0)" />
	<circle cx="781.601" cy="650.662" r="1" fill="rgb(0,0,0)" />
	<circle cx="787.804" cy="790.31" r="1" fill="rgb(0,0,0)" />
	<circle cx="791.492" cy="744.711" r="1" fill="rgb(0,0,0)" />
	<circle cx="795.683" cy="1012.27" r="1" fill="rgb(0,0,0)" />
	<circle cx="799.874" cy="156.781" r="1" fill="rgb(0,0,0)" />
	<circle cx="808.256" cy="541.526" r="1" fill="rgb(0,0,0)" />
	<circle cx="811.442" cy="804.225" r="1" fill="rgb(0,0,0)" />
	<circle cx="813.789" cy="50.1593" r="1" fill="rgb(0,0,0)" />
	<circle cx="823.847" cy="91.5675" r="1" fill="rgb(0,0,0)" />
	<circle cx="824.35" cy="75.6412" r="1" fill="rgb(0,0,0)" />
	<circle cx="826.697" cy="913.026" r="1" fill="rgb(0,0,0)" />
	<circle cx="830.553" cy="462.733" r="1" fill="rgb(0,0,0)" />
	<circle cx="834.074" cy="1040.77" r="1" fill="rgb(0,0,0)" />
	<circle cx="835.918" cy="317.217" r="1" fill="rgb(0,0,0)" />
	<circle cx="836.421" cy="200.034" r="1" fill="rgb(0,0,0)" />
	<circle cx="836.756" cy="869.103" r="1" fill="rgb(0,0,0)" />
	<circle cx="853.353" cy="260.05" r="1" fill="rgb(0,0,0)" />
	<circle cx="857.209" cy="504.979" r="1" fill="rgb(0,0,0)" />
	<circle cx="857.879" cy="734.987" r="1" fill="rgb(0,0,0)" />
	<circle cx="861.903" cy="1004.73" r="1" fill="rgb(0,0,0)" />
	<circle cx="868.106" cy="1053.34" r="1" fill="rgb(0,0,0)" />
	<circle cx="869.782" cy="889.22" r="1" fill="rgb(0,0,0)" />
	<circle cx="871.123" cy="899.95" r="1" fill="rgb(0,0,0)" />
	<circle cx="877.326" cy="142.531" r="1" fill="rgb(0,0,0)" />
	<circle cx="878.667" cy="335.826" r="1" fill="rgb(0,0,0)" />
	<circle cx="880.008" cy="898.106" r="1" fill="rgb(0,0,0)" />
	<circle cx="887.552" cy="848.65" r="1" fill="rgb(0,0,0)" />
	<circle cx="889.564" cy="433.227" r="1" fill="rgb(0,0,0)" />
	<circle cx="894.929" cy="910.847" r="1" fill="rgb(0,0,0)" />
	<circle cx="895.096" cy="874.468" r="1" fill="rgb(0,0,0)" />
	<circle cx="896.438" cy="552.087" r="1" fill="rgb(0,0,0)" />
	<circle cx="901.467" cy="228.701" r="1" fill="rgb(0,0,0)" />
	<circle cx="915.214" cy="1051.33" r="1" fill="rgb(0,0,0)" />
	<circle cx="919.908" cy="74.3001" r="1" fill="rgb(0,0,0)" />
	<circle cx="924.937" cy="383.94" r="1" fill="rgb(0,0,0)" />
	<circle cx="943.713" cy="106.153" r="1" fill="rgb(0,0,0)" />
	<circle cx="948.91" cy="780.419" r="1" fill="rgb(0,0,0)" />
	<circle cx="950.084" cy="170.863" r="1" fill="rgb(0,0,0)" />
	<circle cx="953.437" cy="956.111" r="1" fill="rgb(0,0,0)" />
	<circle cx="968.692" cy="816.463" r="1" fill="rgb(0,0,0)" />
	<circle cx="1004.07" cy="186.957" r="1" fill="rgb(0,0,0)" />
	<circle cx="1017.48" cy="290.562" r="1" fill="rgb(0,0,0)" />
	<circle cx="1017.81" cy="469.606" r="1" fill="rgb(0,0,0)" />
	<circle cx="1019.49" cy="405.733" r="1" fill="rgb(0,0,0)" />
	<circle cx="1021.84" cy="172.037" r="1" fill="rgb(0,0,0)" />
	<circle cx="1026.87" cy="221.324" r="1" fill="rgb(0,0,0)" />
	<circle cx="1030.22" cy="981.76" r="1" fill="rgb(0,0,0)" />
	<circle cx="1037.93" cy="723.923" r="1" fill="rgb(0,0,0)" />
	<circle cx="1037.93" cy="87.544" r="1" fill="rgb(0,0,0)" />
	<circle cx="1050" cy="907.158" r="1" fill="rgb(0,0,0)" />
</svg>
