<?xml version="1.0" standalone="no" ?>
<!DOCTYPE svg PUBLIC "-//W3C//DTD SVG 1.1//EN" "http://www.w3.org/Graphics/SVG/1.1/DTD/svg11.dtd">
<svg width="1100px" height="1116.89px" xmlns="http://www.w3.org/2000/svg" version="1.1" >
	<circle cx="50" cy="799.573" r="1" fill="rgb(0,0,0)" />
	<circle cx="76.6212" cy="904.693" r="1" fill="rgb(0,0,0)" />
	<circle cx="78.3276" cy="700.597" r="1" fill="rgb(0,0,0)" />
	<circle cx="87.2014" cy="87.9693" r="1" fill="rgb(0,0,0)" />
	<circle cx="113.14" cy="562.372" r="1" fill="rgb(0,0,0)" />
	<circle cx="117.918" cy="88.6519" r="1" fill="rgb(0,0,0)" />
	<circle cx="118.259" cy="683.532" r="1" fill="rgb(0,0,0)" />
	<circle cx="130.205" cy="798.208" r="1" fill="rgb(0,0,0)" />
	<circle cx="152.048" cy="494.454" r="1" fill="rgb(0,0,0)" />
	<circle cx="157.85" cy="438.14" r="1" fill="rgb(0,0,0)" />
	<circle cx="168.089" cy="1059.64" r="1" fill="rgb(0,0,0)" />
	<circle cx="172.867" cy="315.273" r="1" fill="rgb(0,0,0)" />
	<circle cx="175.597" cy="833.362" r="1" fill="rgb(0,0,0)" />
	<circle cx="190.956" cy="140.87" r="1" fill="rgb(0,0,0)" />
	<circle cx="191.638" cy="236.775" r="1" fill="rgb(0,0,0)" />
	<circle cx="203.242" cy="825.853" r="1" fill="rgb(0,0,0)" />
	<circle cx="209.386" cy="363.396" r="1" fill="rgb(0,0,0)" />
	<circle cx="212.799" cy="64.0785" r="1" fill="rgb(0,0,0)" />
	<circle cx="220.648" cy="992.406" r="1" fill="rgb(0,0,0)" />
	<circle cx="225.427" cy="264.078" r="1" fill="rgb(0,0,0)" />
	<circle cx="234.3" cy="639.846" r="1" fill="rgb(0,0,0)" />
	<circle cx="241.809" cy="587.969" r="1" fill="rgb(0,0,0)" />
	<circle cx="242.15" cy="767.15" r="1" fill="rgb(0,0,0)" />
	<circle cx="248.976" cy="1016.3" r="1" fill="rgb(0,0,0)" />
	<circle cx="255.461" cy="440.529" r="1" fill="rgb(0,0,0)" />
	<circle cx="269.795" cy="246.672" r="1" fill="rgb(0,0,0)" />
	<circle cx="285.836" cy="975.683" r="1" fill="rgb(0,0,0)" />
	<circle cx="288.908" cy="852.133" r="1" fill="rgb(0,0,0)" />
	<circle cx="325.427" cy="518.345" r="1" fill="rgb(0,0,0)" />
	<circle cx="340.785" cy="841.212" r="1" fill="rgb(0,0,0)" />
	<circle cx="351.024" cy="1061.35" r="1" fill="rgb(0,0,0)" />
	<circle cx="367.406" cy="605.717" r="1" fill="rgb(0,0,0)" />
	<circle cx="376.621" cy="400.256" r="1" fill="rgb(0,0,0)" />
	<circle cx="381.399" cy="928.584" r="1" fill="rgb(0,0,0)" />
	<circle cx="420.307" cy="514.59" r="1" fill="rgb(0,0,0)" />
	<circle cx="428.498" cy="128.925" r="1" fill="rgb(0,0,0)" />
	<circle cx="470.478" cy="224.488" r="1" fill="rgb(0,0,0)" />
	<circle cx="478.328" cy="107.082" r="1" fill="rgb(0,0,0)" />
	<circle cx="486.177" cy="518.003" r="1" fill="rgb(0,0,0)" />
	<circle cx="494.71" cy="942.235" r="1" fill="rgb(0,0,0)" />
	<circle cx="502.901" cy="227.56" r="1" fill="rgb(0,0,0)" />
	<circle cx="506.997" cy="687.287" r="1" fill="rgb(0,0,0)" />
	<circle cx="526.451" cy="600.939" r="1" fill="rgb(0,0,0)" />
	<circle cx="530.205" cy="372.952" r="1" fill="rgb(0,0,0)" />
	<circle cx="545.222" cy="427.218" r="1" fill="rgb(0,0,0)" />
	<circle cx="550.683" cy="373.635" r="1" fill="rgb(0,0,0)" />
	<circle cx="555.119" cy="429.266" r="1" fill="rgb(0,0,0)" />
	<circle cx="581.058" cy="1000.6" r="1" fill="rgb(0,0,0)" />
	<circle cx="588.908" cy="807.423" r="1" fill="rgb(0,0,0)" />
	<circle cx="592.321" cy="190.7" r="1" fill="rgb(0,0,0)" />
	<circle cx="599.147" cy="348.72" r="1" fill="rgb(0,0,0)" />
	<circle cx="604.949" cy="778.413" r="1" fill="rgb(0,0,0)" />
	<circle cx="606.997" cy="720.051" r="1" fill="rgb(0,0,0)" />
	<circle cx="620.648" cy="610.154" r="1" fill="rgb(0,0,0)" />
	<circle cx="635.666" cy="589.676" r="1" fill="rgb(0,0,0)" />
	<circle cx="643.174" cy="812.543" r="1" fill="rgb(0,0,0)" />
	<circle cx="648.976" cy="283.874" r="1" fill="rgb(0,0,0)" />
	<circle cx="673.549" cy="239.164" r="1" fill="rgb(0,0,0)" />
	<circle cx="676.962" cy="841.212" r="1" fill="rgb(0,0,0)" />
	<circle cx="676.962" cy="446.331" r="1" fill="rgb(0,0,0)" />
	<circle cx="679.01" cy="639.846" r="1" fill="rgb(0,0,0)" />
	<circle cx="711.775" cy="125.512" r="1" fill="rgb(0,0,0)" />
	<circle cx="712.457" cy="135.068" r="1" fill="rgb(0,0,0)" />
	<circle cx="735.666" cy="315.956" r="1" fill="rgb(0,0,0)" />
	<circle cx="736.348" cy="876.706" r="1" fill="rgb(0,0,0)" />
	<circle cx="760.58" cy="810.495" r="1" fill="rgb(0,0,0)" />
	<circle cx="768.771" cy="763.737" r="1" fill="rgb(0,0,0)" />
	<circle cx="769.795" cy="1064.08" r="1" fill="rgb(0,0,0)" />
	<circle cx="772.526" cy="870.904" r="1" fill="rgb(0,0,0)" />
	<circle cx="779.693" cy="811.177" r="1" fill="rgb(0,0,0)" />
	<circle cx="782.082" cy="213.908" r="1" fill="rgb(0,0,0)" />
	<circle cx="787.543" cy="531.655" r="1" fill="rgb(0,0,0)" />
	<circle cx="799.829" cy="814.59" r="1" fill="rgb(0,0,0)" />
	<circle cx="821.672" cy="907.765" r="1" fill="rgb(0,0,0)" />
	<circle cx="829.181" cy="162.372" r="1" fill="rgb(0,0,0)" />
	<circle cx="831.57" cy="630.973" r="1" fill="rgb(0,0,0)" />
	<circle cx="831.911" cy="100.939" r="1" fill="rgb(0,0,0)" />
	<circle cx="835.324" cy="1048.38" r="1" fill="rgb(0,0,0)" />
	<circle cx="839.078" cy="291.724" r="1" fill="rgb(0,0,0)" />
	<circle cx="841.126" cy="879.096" r="1" fill="rgb(0,0,0)" />
	<circle cx="841.468" cy="633.703" r="1" fill="rgb(0,0,0)" />
	<circle cx="853.754" cy="254.863" r="1" fill="rgb(0,0,0)" />
	<circle cx="858.532" cy="777.73" r="1" fill="rgb(0,0,0)" />
	<circle cx="866.724" cy="762.713" r="1" fill="rgb(0,0,0)" />
	<circle cx="884.13" cy="921.075" r="1" fill="rgb(0,0,0)" />
	<circle cx="891.638" cy="1066.13" r="1" fill="rgb(0,0,0)" />
	<circle cx="901.195" cy="1045.31" r="1" fill="rgb(0,0,0)" />
	<circle cx="908.703" cy="804.693" r="1" fill="rgb(0,0,0)" />
	<circle cx="910.068" cy="445.648" r="1" fill="rgb(0,0,0)" />
	<circle cx="918.601" cy="469.881" r="1" fill="rgb(0,0,0)" />
	<circle cx="962.969" cy="600.939" r="1" fill="rgb(0,0,0)" />
	<circle cx="979.01" cy="443.601" r="1" fill="rgb(0,0,0)" />
	<circle cx="983.106" cy="50.7679" r="1" fill="rgb(0,0,0)" />
	<circle cx="1017.24" cy="292.747" r="1" fill="rgb(0,0,0)" />
	<circle cx="1020.65" cy="1043.6" r="1" fill="rgb(0,0,0)" />
	<circle cx="1028.5" cy="494.113" r="1" fill="rgb(0,0,0)" />
	<circle cx="1034.64" cy="726.536" r="1" fill="rgb(0,0,0)" />
	<circle cx="1037.71" cy="126.195" r="1" fill="rgb(0,0,0)" />
	<circle cx="1047.27" cy="469.881" r="1" fill="rgb(0,0,0)" />
	<circle cx="1050" cy="1063.05" r="1" fill="rgb(0,0,0)" />
</svg>
