<?xml version="1.0" standalone="no" ?>
<!DOCTYPE svg PUBLIC "-//W3C//DTD SVG 1.1//EN" "http://www.w3.org/Graphics/SVG/1.1/DTD/svg11.dtd">
<svg width="1100px" height="1090.07px" xmlns="http://www.w3.org/2000/svg" version="1.1" >
	<circle cx="50" cy="829.876" r="1" fill="rgb(0,0,0)" />
	<circle cx="57.2407" cy="103.019" r="1" fill="rgb(0,0,0)" />
	<circle cx="63.3675" cy="512.398" r="1" fill="rgb(0,0,0)" />
	<circle cx="63.9245" cy="394.542" r="1" fill="rgb(0,0,0)" />
	<circle cx="76.5122" cy="562.861" r="1" fill="rgb(0,0,0)" />
	<circle cx="80.1883" cy="49.5488" r="1" fill="rgb(0,0,0)" />
	<circle cx="82.5276" cy="75.1699" r="1" fill="rgb(0,0,0)" />
	<circle cx="83.0845" cy="810.271" r="1" fill="rgb(0,0,0)" />
	<circle cx="85.758" cy="666.904" r="1" fill="rgb(0,0,0)" />
	<circle cx="86.5378" cy="800.245" r="1" fill="rgb(0,0,0)" />
	<circle cx="88.3202" cy="389.195" r="1" fill="rgb(0,0,0)" />
	<circle cx="93.1102" cy="58.3491" r="1" fill="rgb(0,0,0)" />
	<circle cx="93.333" cy="766.938" r="1" fill="rgb(0,0,0)" />
	<circle cx="106.366" cy="881.675" r="1" fill="rgb(0,0,0)" />
	<circle cx="109.931" cy="93.9958" r="1" fill="rgb(0,0,0)" />
	<circle cx="115.055" cy="315.673" r="1" fill="rgb(0,0,0)" />
	<circle cx="116.058" cy="544.146" r="1" fill="rgb(0,0,0)" />
	<circle cx="119.065" cy="463.05" r="1" fill="rgb(0,0,0)" />
	<circle cx="120.291" cy="583.023" r="1" fill="rgb(0,0,0)" />
	<circle cx="120.736" cy="837.785" r="1" fill="rgb(0,0,0)" />
	<circle cx="121.405" cy="51.8882" r="1" fill="rgb(0,0,0)" />
	<circle cx="122.296" cy="478.088" r="1" fill="rgb(0,0,0)" />
	<circle cx="122.407" cy="875.437" r="1" fill="rgb(0,0,0)" />
	<circle cx="130.762" cy="609.981" r="1" fill="rgb(0,0,0)" />
	<circle cx="132.433" cy="924.006" r="1" fill="rgb(0,0,0)" />
	<circle cx="132.544" cy="180.105" r="1" fill="rgb(0,0,0)" />
	<circle cx="133.77" cy="765.155" r="1" fill="rgb(0,0,0)" />
	<circle cx="137.112" cy="944.614" r="1" fill="rgb(0,0,0)" />
	<circle cx="139.451" cy="1019.69" r="1" fill="rgb(0,0,0)" />
	<circle cx="141.233" cy="618.447" r="1" fill="rgb(0,0,0)" />
	<circle cx="143.461" cy="865.969" r="1" fill="rgb(0,0,0)" />
	<circle cx="144.464" cy="88.3146" r="1" fill="rgb(0,0,0)" />
	<circle cx="146.692" cy="340.737" r="1" fill="rgb(0,0,0)" />
	<circle cx="152.15" cy="258.193" r="1" fill="rgb(0,0,0)" />
	<circle cx="153.932" cy="904.512" r="1" fill="rgb(0,0,0)" />
	<circle cx="156.272" cy="579.347" r="1" fill="rgb(0,0,0)" />
	<circle cx="168.971" cy="854.495" r="1" fill="rgb(0,0,0)" />
	<circle cx="172.09" cy="770.725" r="1" fill="rgb(0,0,0)" />
	<circle cx="173.761" cy="498.474" r="1" fill="rgb(0,0,0)" />
	<circle cx="176.768" cy="680.829" r="1" fill="rgb(0,0,0)" />
	<circle cx="178.996" cy="870.424" r="1" fill="rgb(0,0,0)" />
	<circle cx="179.219" cy="160.165" r="1" fill="rgb(0,0,0)" />
	<circle cx="179.553" cy="340.849" r="1" fill="rgb(0,0,0)" />
	<circle cx="188.354" cy="839.902" r="1" fill="rgb(0,0,0)" />
	<circle cx="188.354" cy="174.981" r="1" fill="rgb(0,0,0)" />
	<circle cx="189.69" cy="926.234" r="1" fill="rgb(0,0,0)" />
	<circle cx="201.164" cy="741.094" r="1" fill="rgb(0,0,0)" />
	<circle cx="203.838" cy="417.266" r="1" fill="rgb(0,0,0)" />
	<circle cx="203.949" cy="663.785" r="1" fill="rgb(0,0,0)" />
	<circle cx="207.959" cy="76.1724" r="1" fill="rgb(0,0,0)" />
	<circle cx="209.742" cy="992.626" r="1" fill="rgb(0,0,0)" />
	<circle cx="212.304" cy="697.65" r="1" fill="rgb(0,0,0)" />
	<circle cx="215.868" cy="180.328" r="1" fill="rgb(0,0,0)" />
	<circle cx="229.57" cy="728.952" r="1" fill="rgb(0,0,0)" />
	<circle cx="242.715" cy="1006.44" r="1" fill="rgb(0,0,0)" />
	<circle cx="247.393" cy="972.352" r="1" fill="rgb(0,0,0)" />
	<circle cx="248.619" cy="590.041" r="1" fill="rgb(0,0,0)" />
	<circle cx="252.406" cy="508.945" r="1" fill="rgb(0,0,0)" />
	<circle cx="255.859" cy="966.225" r="1" fill="rgb(0,0,0)" />
	<circle cx="256.082" cy="990.063" r="1" fill="rgb(0,0,0)" />
	<circle cx="257.753" cy="610.204" r="1" fill="rgb(0,0,0)" />
	<circle cx="260.872" cy="629.921" r="1" fill="rgb(0,0,0)" />
	<circle cx="268.893" cy="597.95" r="1" fill="rgb(0,0,0)" />
	<circle cx="270.452" cy="367.027" r="1" fill="rgb(0,0,0)" />
	<circle cx="273.683" cy="585.92" r="1" fill="rgb(0,0,0)" />
	<circle cx="273.794" cy="322.914" r="1" fill="rgb(0,0,0)" />
	<circle cx="281.703" cy="246.719" r="1" fill="rgb(0,0,0)" />
	<circle cx="293.511" cy="625.911" r="1" fill="rgb(0,0,0)" />
	<circle cx="300.306" cy="311.775" r="1" fill="rgb(0,0,0)" />
	<circle cx="300.975" cy="735.413" r="1" fill="rgb(0,0,0)" />
	<circle cx="301.198" cy="727.392" r="1" fill="rgb(0,0,0)" />
	<circle cx="306.656" cy="559.964" r="1" fill="rgb(0,0,0)" />
	<circle cx="307.658" cy="586.031" r="1" fill="rgb(0,0,0)" />
	<circle cx="311.446" cy="60.0201" r="1" fill="rgb(0,0,0)" />
	<circle cx="313.005" cy="169.968" r="1" fill="rgb(0,0,0)" />
	<circle cx="313.005" cy="59.6859" r="1" fill="rgb(0,0,0)" />
	<circle cx="317.35" cy="209.402" r="1" fill="rgb(0,0,0)" />
	<circle cx="327.153" cy="686.51" r="1" fill="rgb(0,0,0)" />
	<circle cx="327.71" cy="631.926" r="1" fill="rgb(0,0,0)" />
	<circle cx="330.16" cy="258.193" r="1" fill="rgb(0,0,0)" />
	<circle cx="330.383" cy="904.066" r="1" fill="rgb(0,0,0)" />
	<circle cx="338.404" cy="94.7755" r="1" fill="rgb(0,0,0)" />
	<circle cx="341.189" cy="207.062" r="1" fill="rgb(0,0,0)" />
	<circle cx="344.419" cy="432.305" r="1" fill="rgb(0,0,0)" />
	<circle cx="345.867" cy="920.107" r="1" fill="rgb(0,0,0)" />
	<circle cx="354.445" cy="418.158" r="1" fill="rgb(0,0,0)" />
	<circle cx="355.336" cy="504.044" r="1" fill="rgb(0,0,0)" />
	<circle cx="355.447" cy="237.362" r="1" fill="rgb(0,0,0)" />
	<circle cx="358.344" cy="909.859" r="1" fill="rgb(0,0,0)" />
	<circle cx="364.248" cy="765.378" r="1" fill="rgb(0,0,0)" />
	<circle cx="364.693" cy="797.683" r="1" fill="rgb(0,0,0)" />
	<circle cx="369.817" cy="253.849" r="1" fill="rgb(0,0,0)" />
	<circle cx="369.817" cy="153.593" r="1" fill="rgb(0,0,0)" />
	<circle cx="370.931" cy="864.966" r="1" fill="rgb(0,0,0)" />
	<circle cx="374.607" cy="727.392" r="1" fill="rgb(0,0,0)" />
	<circle cx="377.949" cy="553.281" r="1" fill="rgb(0,0,0)" />
	<circle cx="379.954" cy="867.528" r="1" fill="rgb(0,0,0)" />
	<circle cx="380.177" cy="108.143" r="1" fill="rgb(0,0,0)" />
	<circle cx="384.856" cy="631.926" r="1" fill="rgb(0,0,0)" />
	<circle cx="385.079" cy="83.5246" r="1" fill="rgb(0,0,0)" />
	<circle cx="393.656" cy="488.225" r="1" fill="rgb(0,0,0)" />
	<circle cx="393.99" cy="922.223" r="1" fill="rgb(0,0,0)" />
	<circle cx="395.884" cy="1002.65" r="1" fill="rgb(0,0,0)" />
	<circle cx="405.353" cy="378.835" r="1" fill="rgb(0,0,0)" />
	<circle cx="406.912" cy="812.387" r="1" fill="rgb(0,0,0)" />
	<circle cx="410.477" cy="599.398" r="1" fill="rgb(0,0,0)" />
	<circle cx="417.161" cy="147.577" r="1" fill="rgb(0,0,0)" />
	<circle cx="418.943" cy="901.392" r="1" fill="rgb(0,0,0)" />
	<circle cx="420.948" cy="944.725" r="1" fill="rgb(0,0,0)" />
	<circle cx="427.632" cy="694.419" r="1" fill="rgb(0,0,0)" />
	<circle cx="429.303" cy="396.101" r="1" fill="rgb(0,0,0)" />
	<circle cx="435.541" cy="293.06" r="1" fill="rgb(0,0,0)" />
	<circle cx="441.111" cy="68.4861" r="1" fill="rgb(0,0,0)" />
	<circle cx="445.789" cy="211.407" r="1" fill="rgb(0,0,0)" />
	<circle cx="452.473" cy="128.974" r="1" fill="rgb(0,0,0)" />
	<circle cx="456.26" cy="950.629" r="1" fill="rgb(0,0,0)" />
	<circle cx="461.942" cy="810.605" r="1" fill="rgb(0,0,0)" />
	<circle cx="463.724" cy="680.272" r="1" fill="rgb(0,0,0)" />
	<circle cx="465.395" cy="997.527" r="1" fill="rgb(0,0,0)" />
	<circle cx="466.063" cy="199.71" r="1" fill="rgb(0,0,0)" />
	<circle cx="468.737" cy="904.4" r="1" fill="rgb(0,0,0)" />
	<circle cx="489.345" cy="675.593" r="1" fill="rgb(0,0,0)" />
	<circle cx="490.57" cy="778.411" r="1" fill="rgb(0,0,0)" />
	<circle cx="493.132" cy="579.904" r="1" fill="rgb(0,0,0)" />
	<circle cx="497.477" cy="643.4" r="1" fill="rgb(0,0,0)" />
	<circle cx="498.702" cy="316.899" r="1" fill="rgb(0,0,0)" />
	<circle cx="498.814" cy="68.0405" r="1" fill="rgb(0,0,0)" />
	<circle cx="501.153" cy="563.195" r="1" fill="rgb(0,0,0)" />
	<circle cx="505.052" cy="50.8856" r="1" fill="rgb(0,0,0)" />
	<circle cx="511.624" cy="724.942" r="1" fill="rgb(0,0,0)" />
	<circle cx="511.958" cy="774.513" r="1" fill="rgb(0,0,0)" />
	<circle cx="524.769" cy="523.872" r="1" fill="rgb(0,0,0)" />
	<circle cx="526.106" cy="881.007" r="1" fill="rgb(0,0,0)" />
	<circle cx="527.442" cy="618.781" r="1" fill="rgb(0,0,0)" />
	<circle cx="531.007" cy="211.964" r="1" fill="rgb(0,0,0)" />
	<circle cx="537.802" cy="672.251" r="1" fill="rgb(0,0,0)" />
	<circle cx="543.038" cy="827.203" r="1" fill="rgb(0,0,0)" />
	<circle cx="543.483" cy="455.141" r="1" fill="rgb(0,0,0)" />
	<circle cx="546.491" cy="773.621" r="1" fill="rgb(0,0,0)" />
	<circle cx="546.602" cy="552.946" r="1" fill="rgb(0,0,0)" />
	<circle cx="546.714" cy="678.044" r="1" fill="rgb(0,0,0)" />
	<circle cx="548.496" cy="765.155" r="1" fill="rgb(0,0,0)" />
	<circle cx="550.724" cy="531.781" r="1" fill="rgb(0,0,0)" />
	<circle cx="550.947" cy="772.285" r="1" fill="rgb(0,0,0)" />
	<circle cx="556.071" cy="523.984" r="1" fill="rgb(0,0,0)" />
	<circle cx="557.853" cy="199.376" r="1" fill="rgb(0,0,0)" />
	<circle cx="559.636" cy="762.036" r="1" fill="rgb(0,0,0)" />
	<circle cx="566.097" cy="138.888" r="1" fill="rgb(0,0,0)" />
	<circle cx="568.659" cy="647.744" r="1" fill="rgb(0,0,0)" />
	<circle cx="571.221" cy="854.718" r="1" fill="rgb(0,0,0)" />
	<circle cx="572.446" cy="838.677" r="1" fill="rgb(0,0,0)" />
	<circle cx="581.024" cy="731.625" r="1" fill="rgb(0,0,0)" />
	<circle cx="585.48" cy="574.557" r="1" fill="rgb(0,0,0)" />
	<circle cx="592.052" cy="691.3" r="1" fill="rgb(0,0,0)" />
	<circle cx="597.51" cy="779.748" r="1" fill="rgb(0,0,0)" />
	<circle cx="599.738" cy="247.722" r="1" fill="rgb(0,0,0)" />
	<circle cx="612.215" cy="410.805" r="1" fill="rgb(0,0,0)" />
	<circle cx="615.779" cy="137.997" r="1" fill="rgb(0,0,0)" />
	<circle cx="617.896" cy="884.572" r="1" fill="rgb(0,0,0)" />
	<circle cx="620.569" cy="919.327" r="1" fill="rgb(0,0,0)" />
	<circle cx="623.243" cy="264.32" r="1" fill="rgb(0,0,0)" />
	<circle cx="625.025" cy="191.801" r="1" fill="rgb(0,0,0)" />
	<circle cx="625.916" cy="870.202" r="1" fill="rgb(0,0,0)" />
	<circle cx="627.587" cy="940.047" r="1" fill="rgb(0,0,0)" />
	<circle cx="629.926" cy="816.732" r="1" fill="rgb(0,0,0)" />
	<circle cx="630.483" cy="903.286" r="1" fill="rgb(0,0,0)" />
	<circle cx="633.603" cy="363.574" r="1" fill="rgb(0,0,0)" />
	<circle cx="635.719" cy="715.027" r="1" fill="rgb(0,0,0)" />
	<circle cx="636.387" cy="696.424" r="1" fill="rgb(0,0,0)" />
	<circle cx="644.408" cy="740.091" r="1" fill="rgb(0,0,0)" />
	<circle cx="651.426" cy="648.858" r="1" fill="rgb(0,0,0)" />
	<circle cx="651.76" cy="432.75" r="1" fill="rgb(0,0,0)" />
	<circle cx="656.996" cy="383.736" r="1" fill="rgb(0,0,0)" />
	<circle cx="657.218" cy="948.736" r="1" fill="rgb(0,0,0)" />
	<circle cx="659.224" cy="696.87" r="1" fill="rgb(0,0,0)" />
	<circle cx="659.446" cy="114.158" r="1" fill="rgb(0,0,0)" />
	<circle cx="664.348" cy="1006.88" r="1" fill="rgb(0,0,0)" />
	<circle cx="668.915" cy="115.384" r="1" fill="rgb(0,0,0)" />
	<circle cx="669.472" cy="143.121" r="1" fill="rgb(0,0,0)" />
	<circle cx="675.265" cy="1003.1" r="1" fill="rgb(0,0,0)" />
	<circle cx="679.386" cy="1040.53" r="1" fill="rgb(0,0,0)" />
	<circle cx="682.839" cy="971.46" r="1" fill="rgb(0,0,0)" />
	<circle cx="684.288" cy="302.529" r="1" fill="rgb(0,0,0)" />
	<circle cx="689.635" cy="159.608" r="1" fill="rgb(0,0,0)" />
	<circle cx="692.197" cy="923.56" r="1" fill="rgb(0,0,0)" />
	<circle cx="693.979" cy="133.541" r="1" fill="rgb(0,0,0)" />
	<circle cx="697.989" cy="683.057" r="1" fill="rgb(0,0,0)" />
	<circle cx="699.215" cy="948.179" r="1" fill="rgb(0,0,0)" />
	<circle cx="699.66" cy="172.864" r="1" fill="rgb(0,0,0)" />
	<circle cx="699.883" cy="656.99" r="1" fill="rgb(0,0,0)" />
	<circle cx="699.994" cy="373.822" r="1" fill="rgb(0,0,0)" />
	<circle cx="702.668" cy="360.232" r="1" fill="rgb(0,0,0)" />
	<circle cx="712.359" cy="983.603" r="1" fill="rgb(0,0,0)" />
	<circle cx="713.362" cy="388.303" r="1" fill="rgb(0,0,0)" />
	<circle cx="714.476" cy="320.686" r="1" fill="rgb(0,0,0)" />
	<circle cx="720.157" cy="458.594" r="1" fill="rgb(0,0,0)" />
	<circle cx="733.747" cy="880.561" r="1" fill="rgb(0,0,0)" />
	<circle cx="733.859" cy="946.619" r="1" fill="rgb(0,0,0)" />
	<circle cx="735.864" cy="1009.11" r="1" fill="rgb(0,0,0)" />
	<circle cx="736.755" cy="331.269" r="1" fill="rgb(0,0,0)" />
	<circle cx="739.317" cy="658.995" r="1" fill="rgb(0,0,0)" />
	<circle cx="740.765" cy="610.427" r="1" fill="rgb(0,0,0)" />
	<circle cx="743.773" cy="787.1" r="1" fill="rgb(0,0,0)" />
	<circle cx="745.444" cy="915.763" r="1" fill="rgb(0,0,0)" />
	<circle cx="748.229" cy="492.681" r="1" fill="rgb(0,0,0)" />
	<circle cx="754.356" cy="205.837" r="1" fill="rgb(0,0,0)" />
	<circle cx="759.591" cy="293.84" r="1" fill="rgb(0,0,0)" />
	<circle cx="763.267" cy="654.094" r="1" fill="rgb(0,0,0)" />
	<circle cx="765.718" cy="493.907" r="1" fill="rgb(0,0,0)" />
	<circle cx="766.052" cy="363.462" r="1" fill="rgb(0,0,0)" />
	<circle cx="767.5" cy="66.481" r="1" fill="rgb(0,0,0)" />
	<circle cx="777.749" cy="957.647" r="1" fill="rgb(0,0,0)" />
	<circle cx="787.663" cy="370.48" r="1" fill="rgb(0,0,0)" />
	<circle cx="788.22" cy="831.324" r="1" fill="rgb(0,0,0)" />
	<circle cx="792.787" cy="925.565" r="1" fill="rgb(0,0,0)" />
	<circle cx="794.235" cy="424.953" r="1" fill="rgb(0,0,0)" />
	<circle cx="796.129" cy="169.188" r="1" fill="rgb(0,0,0)" />
	<circle cx="799.025" cy="764.041" r="1" fill="rgb(0,0,0)" />
	<circle cx="801.03" cy="357.447" r="1" fill="rgb(0,0,0)" />
	<circle cx="803.37" cy="603.409" r="1" fill="rgb(0,0,0)" />
	<circle cx="806.155" cy="460.154" r="1" fill="rgb(0,0,0)" />
	<circle cx="808.048" cy="216.308" r="1" fill="rgb(0,0,0)" />
	<circle cx="810.053" cy="592.826" r="1" fill="rgb(0,0,0)" />
	<circle cx="810.276" cy="1039.97" r="1" fill="rgb(0,0,0)" />
	<circle cx="811.947" cy="638.053" r="1" fill="rgb(0,0,0)" />
	<circle cx="814.398" cy="98.3402" r="1" fill="rgb(0,0,0)" />
	<circle cx="816.849" cy="284.371" r="1" fill="rgb(0,0,0)" />
	<circle cx="817.628" cy="776.184" r="1" fill="rgb(0,0,0)" />
	<circle cx="818.742" cy="86.6436" r="1" fill="rgb(0,0,0)" />
	<circle cx="823.867" cy="741.539" r="1" fill="rgb(0,0,0)" />
	<circle cx="830.216" cy="918.213" r="1" fill="rgb(0,0,0)" />
	<circle cx="839.128" cy="212.855" r="1" fill="rgb(0,0,0)" />
	<circle cx="841.133" cy="663.34" r="1" fill="rgb(0,0,0)" />
	<circle cx="841.244" cy="334.611" r="1" fill="rgb(0,0,0)" />
	<circle cx="843.138" cy="626.356" r="1" fill="rgb(0,0,0)" />
	<circle cx="852.05" cy="795.455" r="1" fill="rgb(0,0,0)" />
	<circle cx="852.384" cy="253.18" r="1" fill="rgb(0,0,0)" />
	<circle cx="853.164" cy="738.198" r="1" fill="rgb(0,0,0)" />
	<circle cx="856.506" cy="632.372" r="1" fill="rgb(0,0,0)" />
	<circle cx="856.728" cy="928.796" r="1" fill="rgb(0,0,0)" />
	<circle cx="858.288" cy="969.344" r="1" fill="rgb(0,0,0)" />
	<circle cx="863.301" cy="830.99" r="1" fill="rgb(0,0,0)" />
	<circle cx="864.526" cy="176.874" r="1" fill="rgb(0,0,0)" />
	<circle cx="864.86" cy="530.444" r="1" fill="rgb(0,0,0)" />
	<circle cx="865.306" cy="457.146" r="1" fill="rgb(0,0,0)" />
	<circle cx="869.205" cy="232.684" r="1" fill="rgb(0,0,0)" />
	<circle cx="883.909" cy="928.016" r="1" fill="rgb(0,0,0)" />
	<circle cx="884.689" cy="754.907" r="1" fill="rgb(0,0,0)" />
	<circle cx="892.041" cy="516.409" r="1" fill="rgb(0,0,0)" />
	<circle cx="898.168" cy="406.795" r="1" fill="rgb(0,0,0)" />
	<circle cx="898.725" cy="51.3312" r="1" fill="rgb(0,0,0)" />
	<circle cx="899.504" cy="624.685" r="1" fill="rgb(0,0,0)" />
	<circle cx="901.621" cy="645.182" r="1" fill="rgb(0,0,0)" />
	<circle cx="902.735" cy="95.6667" r="1" fill="rgb(0,0,0)" />
	<circle cx="915.879" cy="763.484" r="1" fill="rgb(0,0,0)" />
	<circle cx="917.996" cy="454.695" r="1" fill="rgb(0,0,0)" />
	<circle cx="921.115" cy="603.186" r="1" fill="rgb(0,0,0)" />
	<circle cx="926.796" cy="121.065" r="1" fill="rgb(0,0,0)" />
	<circle cx="931.363" cy="286.265" r="1" fill="rgb(0,0,0)" />
	<circle cx="932.255" cy="262.538" r="1" fill="rgb(0,0,0)" />
	<circle cx="935.485" cy="508.611" r="1" fill="rgb(0,0,0)" />
	<circle cx="937.824" cy="810.271" r="1" fill="rgb(0,0,0)" />
	<circle cx="938.493" cy="1000.42" r="1" fill="rgb(0,0,0)" />
	<circle cx="944.62" cy="597.059" r="1" fill="rgb(0,0,0)" />
	<circle cx="944.842" cy="95.7781" r="1" fill="rgb(0,0,0)" />
	<circle cx="948.407" cy="562.749" r="1" fill="rgb(0,0,0)" />
	<circle cx="948.964" cy="389.083" r="1" fill="rgb(0,0,0)" />
	<circle cx="951.192" cy="374.49" r="1" fill="rgb(0,0,0)" />
	<circle cx="951.972" cy="926.679" r="1" fill="rgb(0,0,0)" />
	<circle cx="957.096" cy="455.698" r="1" fill="rgb(0,0,0)" />
	<circle cx="958.878" cy="830.433" r="1" fill="rgb(0,0,0)" />
	<circle cx="960.883" cy="153.147" r="1" fill="rgb(0,0,0)" />
	<circle cx="962.888" cy="914.871" r="1" fill="rgb(0,0,0)" />
	<circle cx="963.891" cy="614.66" r="1" fill="rgb(0,0,0)" />
	<circle cx="965.896" cy="275.905" r="1" fill="rgb(0,0,0)" />
	<circle cx="966.119" cy="386.298" r="1" fill="rgb(0,0,0)" />
	<circle cx="968.013" cy="648.97" r="1" fill="rgb(0,0,0)" />
	<circle cx="980.266" cy="740.983" r="1" fill="rgb(0,0,0)" />
	<circle cx="981.046" cy="509.279" r="1" fill="rgb(0,0,0)" />
	<circle cx="981.826" cy="855.497" r="1" fill="rgb(0,0,0)" />
	<circle cx="983.497" cy="613.991" r="1" fill="rgb(0,0,0)" />
	<circle cx="983.942" cy="430.968" r="1" fill="rgb(0,0,0)" />
	<circle cx="996.753" cy="299.298" r="1" fill="rgb(0,0,0)" />
	<circle cx="999.315" cy="196.368" r="1" fill="rgb(0,0,0)" />
	<circle cx="1000.76" cy="703.665" r="1" fill="rgb(0,0,0)" />
	<circle cx="1004.1" cy="482.099" r="1" fill="rgb(0,0,0)" />
	<circle cx="1005" cy="955.085" r="1" fill="rgb(0,0,0)" />
	<circle cx="1007.45" cy="563.863" r="1" fill="rgb(0,0,0)" />
	<circle cx="1008.34" cy="433.085" r="1" fill="rgb(0,0,0)" />
	<circle cx="1010.23" cy="868.085" r="1" fill="rgb(0,0,0)" />
	<circle cx="1024.04" cy="106.918" r="1" fill="rgb(0,0,0)" />
	<circle cx="1024.6" cy="223.549" r="1" fill="rgb(0,0,0)" />
	<circle cx="1028.83" cy="979.926" r="1" fill="rgb(0,0,0)" />
	<circle cx="1035.18" cy="518.748" r="1" fill="rgb(0,0,0)" />
	<circle cx="1039.97" cy="549.048" r="1" fill="rgb(0,0,0)" />
	<circle cx="1042.54" cy="159.162" r="1" fill="rgb(0,0,0)" />
	<circle cx="1042.54" cy="90.5425" r="1" fill="rgb(0,0,0)" />
	<circle cx="1045.21" cy="628.807" r="1" fill="rgb(0,0,0)" />
	<circle cx="1047.99" cy="321.132" r="1" fill="rgb(0,0,0)" />
	<circle cx="1050" cy="404.233" r="1" fill="rgb(0,0,0)" />
</svg>
