<?xml version="1.0" standalone="no" ?>
<!DOCTYPE svg PUBLIC "-//W3C//DTD SVG 1.1//EN" "http://www.w3.org/Graphics/SVG/1.1/DTD/svg11.dtd">
<svg width="1100px" height="1053.22px" xmlns="http://www.w3.org/2000/svg" version="1.1" >
	<circle cx="50" cy="883.265" r="1" fill="rgb(0,0,0)" />
	<circle cx="118.587" cy="356.516" r="1" fill="rgb(0,0,0)" />
	<circle cx="239.3" cy="629.492" r="1" fill="rgb(0,0,0)" />
	<circle cx="240.672" cy="715.912" r="1" fill="rgb(0,0,0)" />
	<circle cx="269.479" cy="835.254" r="1" fill="rgb(0,0,0)" />
	<circle cx="305.144" cy="390.809" r="1" fill="rgb(0,0,0)" />
	<circle cx="361.385" cy="407.27" r="1" fill="rgb(0,0,0)" />
	<circle cx="391.564" cy="64.3347" r="1" fill="rgb(0,0,0)" />
	<circle cx="423.114" cy="647.325" r="1" fill="rgb(0,0,0)" />
	<circle cx="434.088" cy="850.343" r="1" fill="rgb(0,0,0)" />
	<circle cx="449.177" cy="327.709" r="1" fill="rgb(0,0,0)" />
	<circle cx="453.292" cy="645.953" r="1" fill="rgb(0,0,0)" />
	<circle cx="536.968" cy="137.037" r="1" fill="rgb(0,0,0)" />
	<circle cx="683.745" cy="345.542" r="1" fill="rgb(0,0,0)" />
	<circle cx="696.091" cy="938.134" r="1" fill="rgb(0,0,0)" />
	<circle cx="722.154" cy="239.918" r="1" fill="rgb(0,0,0)" />
	<circle cx="777.023" cy="360.631" r="1" fill="rgb(0,0,0)" />
	<circle cx="794.856" cy="761.18" r="1" fill="rgb(0,0,0)" />
	<circle cx="794.856" cy="563.649" r="1" fill="rgb(0,0,0)" />
	<circle cx="804.458" cy="47.8738" r="1" fill="rgb(0,0,0)" />
	<circle cx="815.432" cy="456.653" r="1" fill="rgb(0,0,0)" />
	<circle cx="866.187" cy="773.525" r="1" fill="rgb(0,0,0)" />
	<circle cx="899.108" cy="1005.35" r="1" fill="rgb(0,0,0)" />
	<circle cx="958.093" cy="117.833" r="1" fill="rgb(0,0,0)" />
	<circle cx="1050" cy="260.494" r="1" fill="rgb(0,0,0)" />
</svg>
