<?xml version="1.0" standalone="no" ?>
<!DOCTYPE svg PUBLIC "-//W3C//DTD SVG 1.1//EN" "http://www.w3.org/Graphics/SVG/1.1/DTD/svg11.dtd">
<svg width="1100px" height="1085.1px" xmlns="http://www.w3.org/2000/svg" version="1.1" >
	<circle cx="50" cy="437.245" r="1" fill="rgb(0,0,0)" />
	<circle cx="50.5018" cy="414.662" r="1" fill="rgb(0,0,0)" />
	<circle cx="60.5386" cy="87.1278" r="1" fill="rgb(0,0,0)" />
	<circle cx="66.8953" cy="977.894" r="1" fill="rgb(0,0,0)" />
	<circle cx="66.8953" cy="676.455" r="1" fill="rgb(0,0,0)" />
	<circle cx="77.4339" cy="496.964" r="1" fill="rgb(0,0,0)" />
	<circle cx="79.6086" cy="250.226" r="1" fill="rgb(0,0,0)" />
	<circle cx="82.1178" cy="173.11" r="1" fill="rgb(0,0,0)" />
	<circle cx="82.7869" cy="404.123" r="1" fill="rgb(0,0,0)" />
	<circle cx="83.7906" cy="1014.7" r="1" fill="rgb(0,0,0)" />
	<circle cx="84.627" cy="445.943" r="1" fill="rgb(0,0,0)" />
	<circle cx="108.381" cy="130.119" r="1" fill="rgb(0,0,0)" />
	<circle cx="116.243" cy="382.377" r="1" fill="rgb(0,0,0)" />
	<circle cx="117.748" cy="316.301" r="1" fill="rgb(0,0,0)" />
	<circle cx="127.116" cy="49.3225" r="1" fill="rgb(0,0,0)" />
	<circle cx="129.291" cy="475.552" r="1" fill="rgb(0,0,0)" />
	<circle cx="152.71" cy="898.603" r="1" fill="rgb(0,0,0)" />
	<circle cx="155.888" cy="957.486" r="1" fill="rgb(0,0,0)" />
	<circle cx="159.568" cy="386.894" r="1" fill="rgb(0,0,0)" />
	<circle cx="162.747" cy="872.173" r="1" fill="rgb(0,0,0)" />
	<circle cx="163.583" cy="229.149" r="1" fill="rgb(0,0,0)" />
	<circle cx="165.089" cy="67.8906" r="1" fill="rgb(0,0,0)" />
	<circle cx="170.776" cy="113.893" r="1" fill="rgb(0,0,0)" />
	<circle cx="173.787" cy="128.111" r="1" fill="rgb(0,0,0)" />
	<circle cx="179.14" cy="189.67" r="1" fill="rgb(0,0,0)" />
	<circle cx="183.489" cy="634.803" r="1" fill="rgb(0,0,0)" />
	<circle cx="184.828" cy="194.02" r="1" fill="rgb(0,0,0)" />
	<circle cx="192.021" cy="163.073" r="1" fill="rgb(0,0,0)" />
	<circle cx="192.523" cy="229.316" r="1" fill="rgb(0,0,0)" />
	<circle cx="194.865" cy="795.726" r="1" fill="rgb(0,0,0)" />
	<circle cx="209.083" cy="288.7" r="1" fill="rgb(0,0,0)" />
	<circle cx="211.258" cy="69.3961" r="1" fill="rgb(0,0,0)" />
	<circle cx="213.265" cy="859.627" r="1" fill="rgb(0,0,0)" />
	<circle cx="213.433" cy="645.341" r="1" fill="rgb(0,0,0)" />
	<circle cx="217.113" cy="814.629" r="1" fill="rgb(0,0,0)" />
	<circle cx="222.8" cy="438.75" r="1" fill="rgb(0,0,0)" />
	<circle cx="227.317" cy="127.61" r="1" fill="rgb(0,0,0)" />
	<circle cx="228.488" cy="119.915" r="1" fill="rgb(0,0,0)" />
	<circle cx="236.35" cy="714.762" r="1" fill="rgb(0,0,0)" />
	<circle cx="241.201" cy="507.001" r="1" fill="rgb(0,0,0)" />
	<circle cx="246.052" cy="62.5376" r="1" fill="rgb(0,0,0)" />
	<circle cx="247.892" cy="296.897" r="1" fill="rgb(0,0,0)" />
	<circle cx="248.394" cy="281.674" r="1" fill="rgb(0,0,0)" />
	<circle cx="253.58" cy="493.786" r="1" fill="rgb(0,0,0)" />
	<circle cx="254.751" cy="797.901" r="1" fill="rgb(0,0,0)" />
	<circle cx="256.089" cy="548.319" r="1" fill="rgb(0,0,0)" />
	<circle cx="265.289" cy="220.952" r="1" fill="rgb(0,0,0)" />
	<circle cx="266.293" cy="723.461" r="1" fill="rgb(0,0,0)" />
	<circle cx="271.311" cy="456.482" r="1" fill="rgb(0,0,0)" />
	<circle cx="279.675" cy="214.261" r="1" fill="rgb(0,0,0)" />
	<circle cx="283.523" cy="714.93" r="1" fill="rgb(0,0,0)" />
	<circle cx="296.905" cy="310.279" r="1" fill="rgb(0,0,0)" />
	<circle cx="311.961" cy="968.192" r="1" fill="rgb(0,0,0)" />
	<circle cx="314.135" cy="620.584" r="1" fill="rgb(0,0,0)" />
	<circle cx="316.644" cy="669.931" r="1" fill="rgb(0,0,0)" />
	<circle cx="318.484" cy="748.72" r="1" fill="rgb(0,0,0)" />
	<circle cx="321.495" cy="547.315" r="1" fill="rgb(0,0,0)" />
	<circle cx="330.863" cy="577.927" r="1" fill="rgb(0,0,0)" />
	<circle cx="331.7" cy="1035.77" r="1" fill="rgb(0,0,0)" />
	<circle cx="336.885" cy="651.363" r="1" fill="rgb(0,0,0)" />
	<circle cx="345.751" cy="924.197" r="1" fill="rgb(0,0,0)" />
	<circle cx="346.42" cy="825.836" r="1" fill="rgb(0,0,0)" />
	<circle cx="357.293" cy="1022.06" r="1" fill="rgb(0,0,0)" />
	<circle cx="359.468" cy="504.826" r="1" fill="rgb(0,0,0)" />
	<circle cx="360.472" cy="718.108" r="1" fill="rgb(0,0,0)" />
	<circle cx="370.676" cy="459.493" r="1" fill="rgb(0,0,0)" />
	<circle cx="372.683" cy="53.3372" r="1" fill="rgb(0,0,0)" />
	<circle cx="377.367" cy="127.275" r="1" fill="rgb(0,0,0)" />
	<circle cx="379.04" cy="441.761" r="1" fill="rgb(0,0,0)" />
	<circle cx="383.891" cy="853.605" r="1" fill="rgb(0,0,0)" />
	<circle cx="389.244" cy="736.174" r="1" fill="rgb(0,0,0)" />
	<circle cx="397.942" cy="175.452" r="1" fill="rgb(0,0,0)" />
	<circle cx="404.801" cy="902.785" r="1" fill="rgb(0,0,0)" />
	<circle cx="407.812" cy="977.559" r="1" fill="rgb(0,0,0)" />
	<circle cx="408.481" cy="1014.36" r="1" fill="rgb(0,0,0)" />
	<circle cx="408.983" cy="471.705" r="1" fill="rgb(0,0,0)" />
	<circle cx="412.329" cy="491.444" r="1" fill="rgb(0,0,0)" />
	<circle cx="420.023" cy="305.596" r="1" fill="rgb(0,0,0)" />
	<circle cx="420.191" cy="771.303" r="1" fill="rgb(0,0,0)" />
	<circle cx="422.365" cy="690.674" r="1" fill="rgb(0,0,0)" />
	<circle cx="426.046" cy="64.8796" r="1" fill="rgb(0,0,0)" />
	<circle cx="428.22" cy="224.297" r="1" fill="rgb(0,0,0)" />
	<circle cx="430.06" cy="775.82" r="1" fill="rgb(0,0,0)" />
	<circle cx="440.432" cy="611.383" r="1" fill="rgb(0,0,0)" />
	<circle cx="441.937" cy="962.671" r="1" fill="rgb(0,0,0)" />
	<circle cx="443.443" cy="584.284" r="1" fill="rgb(0,0,0)" />
	<circle cx="458.331" cy="626.773" r="1" fill="rgb(0,0,0)" />
	<circle cx="459.502" cy="871.169" r="1" fill="rgb(0,0,0)" />
	<circle cx="459.669" cy="195.191" r="1" fill="rgb(0,0,0)" />
	<circle cx="464.353" cy="916.837" r="1" fill="rgb(0,0,0)" />
	<circle cx="466.862" cy="810.614" r="1" fill="rgb(0,0,0)" />
	<circle cx="476.731" cy="584.619" r="1" fill="rgb(0,0,0)" />
	<circle cx="480.913" cy="321.487" r="1" fill="rgb(0,0,0)" />
	<circle cx="487.939" cy="579.266" r="1" fill="rgb(0,0,0)" />
	<circle cx="490.95" cy="115.565" r="1" fill="rgb(0,0,0)" />
	<circle cx="495.969" cy="896.429" r="1" fill="rgb(0,0,0)" />
	<circle cx="505.838" cy="122.424" r="1" fill="rgb(0,0,0)" />
	<circle cx="520.057" cy="973.712" r="1" fill="rgb(0,0,0)" />
	<circle cx="521.061" cy="426.037" r="1" fill="rgb(0,0,0)" />
	<circle cx="525.577" cy="240.691" r="1" fill="rgb(0,0,0)" />
	<circle cx="526.246" cy="748.72" r="1" fill="rgb(0,0,0)" />
	<circle cx="527.417" cy="827.007" r="1" fill="rgb(0,0,0)" />
	<circle cx="537.287" cy="476.054" r="1" fill="rgb(0,0,0)" />
	<circle cx="543.643" cy="373.678" r="1" fill="rgb(0,0,0)" />
	<circle cx="547.156" cy="697.031" r="1" fill="rgb(0,0,0)" />
	<circle cx="550.502" cy="200.209" r="1" fill="rgb(0,0,0)" />
	<circle cx="558.029" cy="891.912" r="1" fill="rgb(0,0,0)" />
	<circle cx="564.888" cy="561.534" r="1" fill="rgb(0,0,0)" />
	<circle cx="573.586" cy="290.875" r="1" fill="rgb(0,0,0)" />
	<circle cx="575.092" cy="975.05" r="1" fill="rgb(0,0,0)" />
	<circle cx="582.452" cy="215.432" r="1" fill="rgb(0,0,0)" />
	<circle cx="584.627" cy="265.114" r="1" fill="rgb(0,0,0)" />
	<circle cx="594.664" cy="96.1609" r="1" fill="rgb(0,0,0)" />
	<circle cx="597.173" cy="648.687" r="1" fill="rgb(0,0,0)" />
	<circle cx="607.712" cy="123.762" r="1" fill="rgb(0,0,0)" />
	<circle cx="622.767" cy="499.306" r="1" fill="rgb(0,0,0)" />
	<circle cx="628.789" cy="596.495" r="1" fill="rgb(0,0,0)" />
	<circle cx="636.651" cy="151.196" r="1" fill="rgb(0,0,0)" />
	<circle cx="637.989" cy="654.207" r="1" fill="rgb(0,0,0)" />
	<circle cx="650.368" cy="65.5487" r="1" fill="rgb(0,0,0)" />
	<circle cx="664.921" cy="703.722" r="1" fill="rgb(0,0,0)" />
	<circle cx="668.769" cy="309.108" r="1" fill="rgb(0,0,0)" />
	<circle cx="682.319" cy="121.42" r="1" fill="rgb(0,0,0)" />
	<circle cx="694.195" cy="202.551" r="1" fill="rgb(0,0,0)" />
	<circle cx="699.716" cy="839.721" r="1" fill="rgb(0,0,0)" />
	<circle cx="699.716" cy="165.08" r="1" fill="rgb(0,0,0)" />
	<circle cx="703.396" cy="160.731" r="1" fill="rgb(0,0,0)" />
	<circle cx="718.786" cy="189.503" r="1" fill="rgb(0,0,0)" />
	<circle cx="735.012" cy="408.975" r="1" fill="rgb(0,0,0)" />
	<circle cx="735.514" cy="919.179" r="1" fill="rgb(0,0,0)" />
	<circle cx="740.03" cy="198.536" r="1" fill="rgb(0,0,0)" />
	<circle cx="740.699" cy="340.892" r="1" fill="rgb(0,0,0)" />
	<circle cx="742.037" cy="947.449" r="1" fill="rgb(0,0,0)" />
	<circle cx="742.707" cy="140.49" r="1" fill="rgb(0,0,0)" />
	<circle cx="744.379" cy="83.9495" r="1" fill="rgb(0,0,0)" />
	<circle cx="745.885" cy="432.059" r="1" fill="rgb(0,0,0)" />
	<circle cx="746.052" cy="916.168" r="1" fill="rgb(0,0,0)" />
	<circle cx="753.58" cy="945.442" r="1" fill="rgb(0,0,0)" />
	<circle cx="755.42" cy="935.238" r="1" fill="rgb(0,0,0)" />
	<circle cx="757.26" cy="838.048" r="1" fill="rgb(0,0,0)" />
	<circle cx="770.81" cy="298.402" r="1" fill="rgb(0,0,0)" />
	<circle cx="773.486" cy="823.829" r="1" fill="rgb(0,0,0)" />
	<circle cx="773.653" cy="86.7932" r="1" fill="rgb(0,0,0)" />
	<circle cx="775.326" cy="510.848" r="1" fill="rgb(0,0,0)" />
	<circle cx="778.337" cy="893.752" r="1" fill="rgb(0,0,0)" />
	<circle cx="782.017" cy="227.978" r="1" fill="rgb(0,0,0)" />
	<circle cx="794.563" cy="291.042" r="1" fill="rgb(0,0,0)" />
	<circle cx="794.898" cy="235.84" r="1" fill="rgb(0,0,0)" />
	<circle cx="800.251" cy="188.165" r="1" fill="rgb(0,0,0)" />
	<circle cx="801.422" cy="206.566" r="1" fill="rgb(0,0,0)" />
	<circle cx="807.611" cy="147.85" r="1" fill="rgb(0,0,0)" />
	<circle cx="808.28" cy="662.738" r="1" fill="rgb(0,0,0)" />
	<circle cx="811.793" cy="783.013" r="1" fill="rgb(0,0,0)" />
	<circle cx="824.005" cy="512.186" r="1" fill="rgb(0,0,0)" />
	<circle cx="826.347" cy="582.946" r="1" fill="rgb(0,0,0)" />
	<circle cx="828.856" cy="300.912" r="1" fill="rgb(0,0,0)" />
	<circle cx="832.536" cy="775.318" r="1" fill="rgb(0,0,0)" />
	<circle cx="833.372" cy="746.88" r="1" fill="rgb(0,0,0)" />
	<circle cx="841.067" cy="1020.05" r="1" fill="rgb(0,0,0)" />
	<circle cx="842.573" cy="1019.38" r="1" fill="rgb(0,0,0)" />
	<circle cx="845.751" cy="596.495" r="1" fill="rgb(0,0,0)" />
	<circle cx="847.926" cy="187.998" r="1" fill="rgb(0,0,0)" />
	<circle cx="852.944" cy="801.246" r="1" fill="rgb(0,0,0)" />
	<circle cx="861.643" cy="585.12" r="1" fill="rgb(0,0,0)" />
	<circle cx="862.312" cy="167.589" r="1" fill="rgb(0,0,0)" />
	<circle cx="875.694" cy="237.178" r="1" fill="rgb(0,0,0)" />
	<circle cx="879.04" cy="408.807" r="1" fill="rgb(0,0,0)" />
	<circle cx="882.051" cy="508.004" r="1" fill="rgb(0,0,0)" />
	<circle cx="885.564" cy="988.265" r="1" fill="rgb(0,0,0)" />
	<circle cx="889.578" cy="653.873" r="1" fill="rgb(0,0,0)" />
	<circle cx="891.251" cy="636.977" r="1" fill="rgb(0,0,0)" />
	<circle cx="901.623" cy="360.631" r="1" fill="rgb(0,0,0)" />
	<circle cx="915.34" cy="632.293" r="1" fill="rgb(0,0,0)" />
	<circle cx="918.852" cy="515.867" r="1" fill="rgb(0,0,0)" />
	<circle cx="924.707" cy="531.758" r="1" fill="rgb(0,0,0)" />
	<circle cx="926.882" cy="620.918" r="1" fill="rgb(0,0,0)" />
	<circle cx="928.555" cy="547.817" r="1" fill="rgb(0,0,0)" />
	<circle cx="930.897" cy="808.607" r="1" fill="rgb(0,0,0)" />
	<circle cx="935.915" cy="787.529" r="1" fill="rgb(0,0,0)" />
	<circle cx="937.253" cy="353.438" r="1" fill="rgb(0,0,0)" />
	<circle cx="937.922" cy="389.403" r="1" fill="rgb(0,0,0)" />
	<circle cx="941.435" cy="484.92" r="1" fill="rgb(0,0,0)" />
	<circle cx="944.279" cy="283.013" r="1" fill="rgb(0,0,0)" />
	<circle cx="945.45" cy="255.579" r="1" fill="rgb(0,0,0)" />
	<circle cx="946.454" cy="461.501" r="1" fill="rgb(0,0,0)" />
	<circle cx="948.126" cy="589.972" r="1" fill="rgb(0,0,0)" />
	<circle cx="970.207" cy="1001.65" r="1" fill="rgb(0,0,0)" />
	<circle cx="971.044" cy="651.698" r="1" fill="rgb(0,0,0)" />
	<circle cx="972.048" cy="673.779" r="1" fill="rgb(0,0,0)" />
	<circle cx="978.404" cy="211.751" r="1" fill="rgb(0,0,0)" />
	<circle cx="983.757" cy="931.557" r="1" fill="rgb(0,0,0)" />
	<circle cx="989.612" cy="669.764" r="1" fill="rgb(0,0,0)" />
	<circle cx="990.95" cy="971.37" r="1" fill="rgb(0,0,0)" />
	<circle cx="1016.21" cy="633.799" r="1" fill="rgb(0,0,0)" />
	<circle cx="1016.88" cy="852.434" r="1" fill="rgb(0,0,0)" />
	<circle cx="1017.21" cy="610.714" r="1" fill="rgb(0,0,0)" />
	<circle cx="1021.73" cy="758.088" r="1" fill="rgb(0,0,0)" />
	<circle cx="1029.26" cy="593.484" r="1" fill="rgb(0,0,0)" />
	<circle cx="1029.26" cy="319.145" r="1" fill="rgb(0,0,0)" />
	<circle cx="1050" cy="803.254" r="1" fill="rgb(0,0,0)" />
</svg>
