<?xml version="1.0" standalone="no" ?>
<!DOCTYPE svg PUBLIC "-//W3C//DTD SVG 1.1//EN" "http://www.w3.org/Graphics/SVG/1.1/DTD/svg11.dtd">
<svg width="1100px" height="1123.66px" xmlns="http://www.w3.org/2000/svg" version="1.1" >
	<circle cx="50" cy="225.269" r="1" fill="rgb(0,0,0)" />
	<circle cx="93.0108" cy="89.7849" r="1" fill="rgb(0,0,0)" />
	<circle cx="98.0287" cy="351.434" r="1" fill="rgb(0,0,0)" />
	<circle cx="119.534" cy="988.71" r="1" fill="rgb(0,0,0)" />
	<circle cx="120.251" cy="651.075" r="1" fill="rgb(0,0,0)" />
	<circle cx="121.685" cy="238.889" r="1" fill="rgb(0,0,0)" />
	<circle cx="126.703" cy="621.685" r="1" fill="rgb(0,0,0)" />
	<circle cx="140.323" cy="503.405" r="1" fill="rgb(0,0,0)" />
	<circle cx="143.19" cy="586.559" r="1" fill="rgb(0,0,0)" />
	<circle cx="173.297" cy="631.004" r="1" fill="rgb(0,0,0)" />
	<circle cx="185.484" cy="388.71" r="1" fill="rgb(0,0,0)" />
	<circle cx="246.416" cy="877.599" r="1" fill="rgb(0,0,0)" />
	<circle cx="279.391" cy="938.53" r="1" fill="rgb(0,0,0)" />
	<circle cx="294.444" cy="1072.58" r="1" fill="rgb(0,0,0)" />
	<circle cx="404.122" cy="626.703" r="1" fill="rgb(0,0,0)" />
	<circle cx="420.609" cy="787.993" r="1" fill="rgb(0,0,0)" />
	<circle cx="438.53" cy="536.38" r="1" fill="rgb(0,0,0)" />
	<circle cx="440.681" cy="537.814" r="1" fill="rgb(0,0,0)" />
	<circle cx="475.09" cy="690.502" r="1" fill="rgb(0,0,0)" />
	<circle cx="482.975" cy="702.688" r="1" fill="rgb(0,0,0)" />
	<circle cx="482.975" cy="67.5627" r="1" fill="rgb(0,0,0)" />
	<circle cx="530.287" cy="904.122" r="1" fill="rgb(0,0,0)" />
	<circle cx="551.075" cy="816.667" r="1" fill="rgb(0,0,0)" />
	<circle cx="557.527" cy="318.459" r="1" fill="rgb(0,0,0)" />
	<circle cx="561.828" cy="905.556" r="1" fill="rgb(0,0,0)" />
	<circle cx="562.545" cy="822.401" r="1" fill="rgb(0,0,0)" />
	<circle cx="581.183" cy="81.8996" r="1" fill="rgb(0,0,0)" />
	<circle cx="606.989" cy="613.082" r="1" fill="rgb(0,0,0)" />
	<circle cx="661.47" cy="680.466" r="1" fill="rgb(0,0,0)" />
	<circle cx="662.186" cy="982.258" r="1" fill="rgb(0,0,0)" />
	<circle cx="665.771" cy="487.634" r="1" fill="rgb(0,0,0)" />
	<circle cx="674.373" cy="175.09" r="1" fill="rgb(0,0,0)" />
	<circle cx="703.763" cy="970.072" r="1" fill="rgb(0,0,0)" />
	<circle cx="737.455" cy="142.115" r="1" fill="rgb(0,0,0)" />
	<circle cx="743.19" cy="1038.89" r="1" fill="rgb(0,0,0)" />
	<circle cx="747.491" cy="51.0753" r="1" fill="rgb(0,0,0)" />
	<circle cx="753.226" cy="222.401" r="1" fill="rgb(0,0,0)" />
	<circle cx="781.183" cy="95.5197" r="1" fill="rgb(0,0,0)" />
	<circle cx="813.441" cy="415.95" r="1" fill="rgb(0,0,0)" />
	<circle cx="819.892" cy="332.079" r="1" fill="rgb(0,0,0)" />
	<circle cx="860.036" cy="362.186" r="1" fill="rgb(0,0,0)" />
	<circle cx="872.222" cy="248.925" r="1" fill="rgb(0,0,0)" />
	<circle cx="873.656" cy="995.878" r="1" fill="rgb(0,0,0)" />
	<circle cx="878.674" cy="289.068" r="1" fill="rgb(0,0,0)" />
	<circle cx="908.065" cy="430.287" r="1" fill="rgb(0,0,0)" />
	<circle cx="934.588" cy="266.129" r="1" fill="rgb(0,0,0)" />
	<circle cx="941.756" cy="1063.98" r="1" fill="rgb(0,0,0)" />
	<circle cx="1009.14" cy="395.878" r="1" fill="rgb(0,0,0)" />
	<circle cx="1038.53" cy="375.09" r="1" fill="rgb(0,0,0)" />
	<circle cx="1050" cy="658.244" r="1" fill="rgb(0,0,0)" />
</svg>
