<?xml version="1.0" standalone="no" ?>
<!DOCTYPE svg PUBLIC "-//W3C//DTD SVG 1.1//EN" "http://www.w3.org/Graphics/SVG/1.1/DTD/svg11.dtd">
<svg width="1100px" height="1119.39px" xmlns="http://www.w3.org/2000/svg" version="1.1" >
	<circle cx="50" cy="920.868" r="1" fill="rgb(0,0,0)" />
	<circle cx="80.4099" cy="90.9872" r="1" fill="rgb(0,0,0)" />
	<circle cx="138.585" cy="1043.39" r="1" fill="rgb(0,0,0)" />
	<circle cx="178.691" cy="142.993" r="1" fill="rgb(0,0,0)" />
	<circle cx="180.895" cy="606.633" r="1" fill="rgb(0,0,0)" />
	<circle cx="188.828" cy="634.839" r="1" fill="rgb(0,0,0)" />
	<circle cx="192.353" cy="50.8814" r="1" fill="rgb(0,0,0)" />
	<circle cx="196.761" cy="864.896" r="1" fill="rgb(0,0,0)" />
	<circle cx="201.609" cy="488.078" r="1" fill="rgb(0,0,0)" />
	<circle cx="216.152" cy="955.685" r="1" fill="rgb(0,0,0)" />
	<circle cx="232.459" cy="991.825" r="1" fill="rgb(0,0,0)" />
	<circle cx="279.617" cy="365.117" r="1" fill="rgb(0,0,0)" />
	<circle cx="297.245" cy="1007.25" r="1" fill="rgb(0,0,0)" />
	<circle cx="299.89" cy="588.563" r="1" fill="rgb(0,0,0)" />
	<circle cx="301.653" cy="1056.61" r="1" fill="rgb(0,0,0)" />
	<circle cx="303.416" cy="743.698" r="1" fill="rgb(0,0,0)" />
	<circle cx="329.859" cy="714.61" r="1" fill="rgb(0,0,0)" />
	<circle cx="332.944" cy="603.548" r="1" fill="rgb(0,0,0)" />
	<circle cx="347.047" cy="274.769" r="1" fill="rgb(0,0,0)" />
	<circle cx="359.828" cy="937.175" r="1" fill="rgb(0,0,0)" />
	<circle cx="373.05" cy="703.592" r="1" fill="rgb(0,0,0)" />
	<circle cx="444.006" cy="545.372" r="1" fill="rgb(0,0,0)" />
	<circle cx="458.991" cy="663.927" r="1" fill="rgb(0,0,0)" />
	<circle cx="461.194" cy="529.066" r="1" fill="rgb(0,0,0)" />
	<circle cx="462.076" cy="621.177" r="1" fill="rgb(0,0,0)" />
	<circle cx="465.602" cy="786.007" r="1" fill="rgb(0,0,0)" />
	<circle cx="470.89" cy="94.513" r="1" fill="rgb(0,0,0)" />
	<circle cx="478.383" cy="866.659" r="1" fill="rgb(0,0,0)" />
	<circle cx="478.383" cy="861.371" r="1" fill="rgb(0,0,0)" />
	<circle cx="490.282" cy="1068.51" r="1" fill="rgb(0,0,0)" />
	<circle cx="493.808" cy="335.588" r="1" fill="rgb(0,0,0)" />
	<circle cx="496.893" cy="726.95" r="1" fill="rgb(0,0,0)" />
	<circle cx="524.658" cy="142.993" r="1" fill="rgb(0,0,0)" />
	<circle cx="551.543" cy="487.197" r="1" fill="rgb(0,0,0)" />
	<circle cx="558.153" cy="527.743" r="1" fill="rgb(0,0,0)" />
	<circle cx="581.071" cy="845.505" r="1" fill="rgb(0,0,0)" />
	<circle cx="586.36" cy="547.135" r="1" fill="rgb(0,0,0)" />
	<circle cx="589.445" cy="603.107" r="1" fill="rgb(0,0,0)" />
	<circle cx="611.04" cy="335.148" r="1" fill="rgb(0,0,0)" />
	<circle cx="614.125" cy="672.301" r="1" fill="rgb(0,0,0)" />
	<circle cx="621.617" cy="704.033" r="1" fill="rgb(0,0,0)" />
	<circle cx="633.517" cy="510.996" r="1" fill="rgb(0,0,0)" />
	<circle cx="652.027" cy="1067.63" r="1" fill="rgb(0,0,0)" />
	<circle cx="655.994" cy="112.142" r="1" fill="rgb(0,0,0)" />
	<circle cx="691.692" cy="736.205" r="1" fill="rgb(0,0,0)" />
	<circle cx="693.015" cy="118.312" r="1" fill="rgb(0,0,0)" />
	<circle cx="700.948" cy="365.558" r="1" fill="rgb(0,0,0)" />
	<circle cx="702.27" cy="702.71" r="1" fill="rgb(0,0,0)" />
	<circle cx="711.084" cy="653.349" r="1" fill="rgb(0,0,0)" />
	<circle cx="715.051" cy="82.1728" r="1" fill="rgb(0,0,0)" />
	<circle cx="719.458" cy="566.968" r="1" fill="rgb(0,0,0)" />
	<circle cx="721.221" cy="851.675" r="1" fill="rgb(0,0,0)" />
	<circle cx="721.221" cy="480.145" r="1" fill="rgb(0,0,0)" />
	<circle cx="730.476" cy="281.82" r="1" fill="rgb(0,0,0)" />
	<circle cx="745.461" cy="167.673" r="1" fill="rgb(0,0,0)" />
	<circle cx="745.901" cy="557.272" r="1" fill="rgb(0,0,0)" />
	<circle cx="746.783" cy="367.32" r="1" fill="rgb(0,0,0)" />
	<circle cx="771.463" cy="808.925" r="1" fill="rgb(0,0,0)" />
	<circle cx="797.025" cy="879.44" r="1" fill="rgb(0,0,0)" />
	<circle cx="826.554" cy="65.4253" r="1" fill="rgb(0,0,0)" />
	<circle cx="842.86" cy="1061.02" r="1" fill="rgb(0,0,0)" />
	<circle cx="874.152" cy="262.428" r="1" fill="rgb(0,0,0)" />
	<circle cx="875.474" cy="282.702" r="1" fill="rgb(0,0,0)" />
	<circle cx="889.136" cy="321.926" r="1" fill="rgb(0,0,0)" />
	<circle cx="895.747" cy="290.194" r="1" fill="rgb(0,0,0)" />
	<circle cx="908.528" cy="444.447" r="1" fill="rgb(0,0,0)" />
	<circle cx="911.613" cy="745.461" r="1" fill="rgb(0,0,0)" />
	<circle cx="912.935" cy="60.1366" r="1" fill="rgb(0,0,0)" />
	<circle cx="949.074" cy="224.526" r="1" fill="rgb(0,0,0)" />
	<circle cx="990.502" cy="292.398" r="1" fill="rgb(0,0,0)" />
	<circle cx="993.147" cy="570.934" r="1" fill="rgb(0,0,0)" />
	<circle cx="994.91" cy="526.862" r="1" fill="rgb(0,0,0)" />
	<circle cx="1007.25" cy="774.548" r="1" fill="rgb(0,0,0)" />
	<circle cx="1016.06" cy="51.7629" r="1" fill="rgb(0,0,0)" />
	<circle cx="1023.12" cy="138.145" r="1" fill="rgb(0,0,0)" />
	<circle cx="1027.08" cy="984.332" r="1" fill="rgb(0,0,0)" />
	<circle cx="1032.37" cy="757.36" r="1" fill="rgb(0,0,0)" />
	<circle cx="1038.54" cy="130.212" r="1" fill="rgb(0,0,0)" />
	<circle cx="1042.51" cy="593.852" r="1" fill="rgb(0,0,0)" />
	<circle cx="1050" cy="355.862" r="1" fill="rgb(0,0,0)" />
</svg>
