<?xml version="1.0" standalone="no" ?>
<!DOCTYPE svg PUBLIC "-//W3C//DTD SVG 1.1//EN" "http://www.w3.org/Graphics/SVG/1.1/DTD/svg11.dtd">
<svg width="1100px" height="1102.31px" xmlns="http://www.w3.org/2000/svg" version="1.1" >
	<circle cx="50" cy="413.032" r="1" fill="rgb(0,0,0)" />
	<circle cx="55.1187" cy="692.045" r="1" fill="rgb(0,0,0)" />
	<circle cx="56.8809" cy="769.413" r="1" fill="rgb(0,0,0)" />
	<circle cx="60.9927" cy="957.212" r="1" fill="rgb(0,0,0)" />
	<circle cx="61.8318" cy="317.874" r="1" fill="rgb(0,0,0)" />
	<circle cx="63.0905" cy="985.24" r="1" fill="rgb(0,0,0)" />
	<circle cx="63.1745" cy="538.063" r="1" fill="rgb(0,0,0)" />
	<circle cx="69.1323" cy="187.556" r="1" fill="rgb(0,0,0)" />
	<circle cx="69.3841" cy="528.161" r="1" fill="rgb(0,0,0)" />
	<circle cx="69.7197" cy="441.562" r="1" fill="rgb(0,0,0)" />
	<circle cx="80.0411" cy="414.962" r="1" fill="rgb(0,0,0)" />
	<circle cx="91.7051" cy="215.835" r="1" fill="rgb(0,0,0)" />
	<circle cx="93.7191" cy="912.151" r="1" fill="rgb(0,0,0)" />
	<circle cx="93.7191" cy="867.173" r="1" fill="rgb(0,0,0)" />
	<circle cx="93.9708" cy="1051.7" r="1" fill="rgb(0,0,0)" />
	<circle cx="95.9847" cy="600.663" r="1" fill="rgb(0,0,0)" />
	<circle cx="98.2504" cy="357.984" r="1" fill="rgb(0,0,0)" />
	<circle cx="100.684" cy="128.145" r="1" fill="rgb(0,0,0)" />
	<circle cx="102.614" cy="625.417" r="1" fill="rgb(0,0,0)" />
	<circle cx="103.873" cy="103.642" r="1" fill="rgb(0,0,0)" />
	<circle cx="106.474" cy="271.889" r="1" fill="rgb(0,0,0)" />
	<circle cx="108.991" cy="50.1049" r="1" fill="rgb(0,0,0)" />
	<circle cx="109.159" cy="975.589" r="1" fill="rgb(0,0,0)" />
	<circle cx="110.082" cy="64.7898" r="1" fill="rgb(0,0,0)" />
	<circle cx="111.005" cy="644.298" r="1" fill="rgb(0,0,0)" />
	<circle cx="113.607" cy="408.752" r="1" fill="rgb(0,0,0)" />
	<circle cx="115.285" cy="411.27" r="1" fill="rgb(0,0,0)" />
	<circle cx="117.718" cy="483.016" r="1" fill="rgb(0,0,0)" />
	<circle cx="121.495" cy="752.799" r="1" fill="rgb(0,0,0)" />
	<circle cx="128.208" cy="330.125" r="1" fill="rgb(0,0,0)" />
	<circle cx="129.802" cy="241.512" r="1" fill="rgb(0,0,0)" />
	<circle cx="133.83" cy="167.332" r="1" fill="rgb(0,0,0)" />
	<circle cx="140.375" cy="238.491" r="1" fill="rgb(0,0,0)" />
	<circle cx="140.795" cy="663.598" r="1" fill="rgb(0,0,0)" />
	<circle cx="148.095" cy="514.819" r="1" fill="rgb(0,0,0)" />
	<circle cx="148.85" cy="241.932" r="1" fill="rgb(0,0,0)" />
	<circle cx="154.221" cy="584.216" r="1" fill="rgb(0,0,0)" />
	<circle cx="158.836" cy="932.206" r="1" fill="rgb(0,0,0)" />
	<circle cx="159.675" cy="83.4186" r="1" fill="rgb(0,0,0)" />
	<circle cx="159.843" cy="254.435" r="1" fill="rgb(0,0,0)" />
	<circle cx="161.689" cy="368.138" r="1" fill="rgb(0,0,0)" />
	<circle cx="165.717" cy="58.4963" r="1" fill="rgb(0,0,0)" />
	<circle cx="168.57" cy="312.335" r="1" fill="rgb(0,0,0)" />
	<circle cx="169.493" cy="449.87" r="1" fill="rgb(0,0,0)" />
	<circle cx="169.997" cy="813.384" r="1" fill="rgb(0,0,0)" />
	<circle cx="170.5" cy="57.9928" r="1" fill="rgb(0,0,0)" />
	<circle cx="170.92" cy="895.536" r="1" fill="rgb(0,0,0)" />
	<circle cx="172.011" cy="776.798" r="1" fill="rgb(0,0,0)" />
	<circle cx="172.262" cy="312.419" r="1" fill="rgb(0,0,0)" />
	<circle cx="172.766" cy="768.323" r="1" fill="rgb(0,0,0)" />
	<circle cx="181.073" cy="241.093" r="1" fill="rgb(0,0,0)" />
	<circle cx="187.619" cy="795.678" r="1" fill="rgb(0,0,0)" />
	<circle cx="188.877" cy="138.214" r="1" fill="rgb(0,0,0)" />
	<circle cx="189.045" cy="646.06" r="1" fill="rgb(0,0,0)" />
	<circle cx="196.765" cy="222.883" r="1" fill="rgb(0,0,0)" />
	<circle cx="197.017" cy="365.117" r="1" fill="rgb(0,0,0)" />
	<circle cx="201.045" cy="547.965" r="1" fill="rgb(0,0,0)" />
	<circle cx="208.765" cy="461.87" r="1" fill="rgb(0,0,0)" />
	<circle cx="210.275" cy="552.413" r="1" fill="rgb(0,0,0)" />
	<circle cx="210.863" cy="928.933" r="1" fill="rgb(0,0,0)" />
	<circle cx="212.96" cy="522.036" r="1" fill="rgb(0,0,0)" />
	<circle cx="214.471" cy="595.796" r="1" fill="rgb(0,0,0)" />
	<circle cx="216.904" cy="450.122" r="1" fill="rgb(0,0,0)" />
	<circle cx="220.597" cy="346.32" r="1" fill="rgb(0,0,0)" />
	<circle cx="224.457" cy="178.325" r="1" fill="rgb(0,0,0)" />
	<circle cx="224.624" cy="459.688" r="1" fill="rgb(0,0,0)" />
	<circle cx="224.792" cy="897.718" r="1" fill="rgb(0,0,0)" />
	<circle cx="225.38" cy="299.664" r="1" fill="rgb(0,0,0)" />
	<circle cx="227.813" cy="499.295" r="1" fill="rgb(0,0,0)" />
	<circle cx="228.317" cy="229.429" r="1" fill="rgb(0,0,0)" />
	<circle cx="232.596" cy="743.652" r="1" fill="rgb(0,0,0)" />
	<circle cx="232.848" cy="186.381" r="1" fill="rgb(0,0,0)" />
	<circle cx="234.862" cy="474.876" r="1" fill="rgb(0,0,0)" />
	<circle cx="242.079" cy="184.786" r="1" fill="rgb(0,0,0)" />
	<circle cx="246.778" cy="576.076" r="1" fill="rgb(0,0,0)" />
	<circle cx="250.722" cy="318.293" r="1" fill="rgb(0,0,0)" />
	<circle cx="251.225" cy="954.863" r="1" fill="rgb(0,0,0)" />
	<circle cx="253.407" cy="1031.14" r="1" fill="rgb(0,0,0)" />
	<circle cx="253.826" cy="115.809" r="1" fill="rgb(0,0,0)" />
	<circle cx="255.253" cy="309.566" r="1" fill="rgb(0,0,0)" />
	<circle cx="260.54" cy="460.107" r="1" fill="rgb(0,0,0)" />
	<circle cx="262.637" cy="808.685" r="1" fill="rgb(0,0,0)" />
	<circle cx="264.735" cy="510.875" r="1" fill="rgb(0,0,0)" />
	<circle cx="266.497" cy="197.709" r="1" fill="rgb(0,0,0)" />
	<circle cx="266.917" cy="980.456" r="1" fill="rgb(0,0,0)" />
	<circle cx="271.616" cy="54.3006" r="1" fill="rgb(0,0,0)" />
	<circle cx="274.637" cy="1050.02" r="1" fill="rgb(0,0,0)" />
	<circle cx="278.245" cy="104.565" r="1" fill="rgb(0,0,0)" />
	<circle cx="281.77" cy="65.7968" r="1" fill="rgb(0,0,0)" />
	<circle cx="284.539" cy="108.677" r="1" fill="rgb(0,0,0)" />
	<circle cx="285.21" cy="680.801" r="1" fill="rgb(0,0,0)" />
	<circle cx="285.378" cy="497.785" r="1" fill="rgb(0,0,0)" />
	<circle cx="286.133" cy="612.663" r="1" fill="rgb(0,0,0)" />
	<circle cx="292.343" cy="808.853" r="1" fill="rgb(0,0,0)" />
	<circle cx="293.685" cy="890.669" r="1" fill="rgb(0,0,0)" />
	<circle cx="295.028" cy="405.647" r="1" fill="rgb(0,0,0)" />
	<circle cx="297.629" cy="923.563" r="1" fill="rgb(0,0,0)" />
	<circle cx="301.406" cy="368.977" r="1" fill="rgb(0,0,0)" />
	<circle cx="302.077" cy="564.16" r="1" fill="rgb(0,0,0)" />
	<circle cx="307.363" cy="94.1596" r="1" fill="rgb(0,0,0)" />
	<circle cx="309.126" cy="773.693" r="1" fill="rgb(0,0,0)" />
	<circle cx="309.377" cy="898.053" r="1" fill="rgb(0,0,0)" />
	<circle cx="309.881" cy="181.849" r="1" fill="rgb(0,0,0)" />
	<circle cx="310.3" cy="580.02" r="1" fill="rgb(0,0,0)" />
	<circle cx="310.804" cy="331.048" r="1" fill="rgb(0,0,0)" />
	<circle cx="312.65" cy="60.1745" r="1" fill="rgb(0,0,0)" />
	<circle cx="313.489" cy="266.099" r="1" fill="rgb(0,0,0)" />
	<circle cx="314.496" cy="811.958" r="1" fill="rgb(0,0,0)" />
	<circle cx="324.482" cy="827.566" r="1" fill="rgb(0,0,0)" />
	<circle cx="331.531" cy="793.245" r="1" fill="rgb(0,0,0)" />
	<circle cx="332.37" cy="568.188" r="1" fill="rgb(0,0,0)" />
	<circle cx="335.642" cy="179.08" r="1" fill="rgb(0,0,0)" />
	<circle cx="336.062" cy="1045.24" r="1" fill="rgb(0,0,0)" />
	<circle cx="336.23" cy="294.042" r="1" fill="rgb(0,0,0)" />
	<circle cx="336.817" cy="91.3905" r="1" fill="rgb(0,0,0)" />
	<circle cx="337.572" cy="617.865" r="1" fill="rgb(0,0,0)" />
	<circle cx="341.6" cy="352.362" r="1" fill="rgb(0,0,0)" />
	<circle cx="343.782" cy="93.8239" r="1" fill="rgb(0,0,0)" />
	<circle cx="344.202" cy="395.242" r="1" fill="rgb(0,0,0)" />
	<circle cx="350.495" cy="390.711" r="1" fill="rgb(0,0,0)" />
	<circle cx="352.761" cy="897.382" r="1" fill="rgb(0,0,0)" />
	<circle cx="359.306" cy="124.033" r="1" fill="rgb(0,0,0)" />
	<circle cx="360.061" cy="409.34" r="1" fill="rgb(0,0,0)" />
	<circle cx="361.74" cy="619.544" r="1" fill="rgb(0,0,0)" />
	<circle cx="363.166" cy="252.001" r="1" fill="rgb(0,0,0)" />
	<circle cx="363.921" cy="770.924" r="1" fill="rgb(0,0,0)" />
	<circle cx="366.271" cy="1049.77" r="1" fill="rgb(0,0,0)" />
	<circle cx="368.117" cy="186.549" r="1" fill="rgb(0,0,0)" />
	<circle cx="373.236" cy="1007.48" r="1" fill="rgb(0,0,0)" />
	<circle cx="376.173" cy="289.595" r="1" fill="rgb(0,0,0)" />
	<circle cx="378.69" cy="610.816" r="1" fill="rgb(0,0,0)" />
	<circle cx="382.55" cy="1037.52" r="1" fill="rgb(0,0,0)" />
	<circle cx="384.144" cy="104.733" r="1" fill="rgb(0,0,0)" />
	<circle cx="385.319" cy="978.191" r="1" fill="rgb(0,0,0)" />
	<circle cx="389.347" cy="674.004" r="1" fill="rgb(0,0,0)" />
	<circle cx="393.878" cy="310.321" r="1" fill="rgb(0,0,0)" />
	<circle cx="394.298" cy="231.946" r="1" fill="rgb(0,0,0)" />
	<circle cx="397.487" cy="941.185" r="1" fill="rgb(0,0,0)" />
	<circle cx="398.326" cy="1006.05" r="1" fill="rgb(0,0,0)" />
	<circle cx="400.759" cy="259.889" r="1" fill="rgb(0,0,0)" />
	<circle cx="403.277" cy="108.677" r="1" fill="rgb(0,0,0)" />
	<circle cx="404.703" cy="688.772" r="1" fill="rgb(0,0,0)" />
	<circle cx="405.291" cy="726.45" r="1" fill="rgb(0,0,0)" />
	<circle cx="406.549" cy="193.43" r="1" fill="rgb(0,0,0)" />
	<circle cx="410.242" cy="372.837" r="1" fill="rgb(0,0,0)" />
	<circle cx="414.27" cy="1045.99" r="1" fill="rgb(0,0,0)" />
	<circle cx="415.276" cy="407.745" r="1" fill="rgb(0,0,0)" />
	<circle cx="417.207" cy="444.919" r="1" fill="rgb(0,0,0)" />
	<circle cx="418.046" cy="478.904" r="1" fill="rgb(0,0,0)" />
	<circle cx="418.885" cy="688.94" r="1" fill="rgb(0,0,0)" />
	<circle cx="420.143" cy="279.357" r="1" fill="rgb(0,0,0)" />
	<circle cx="422.325" cy="909.13" r="1" fill="rgb(0,0,0)" />
	<circle cx="423.668" cy="273.903" r="1" fill="rgb(0,0,0)" />
	<circle cx="424.004" cy="334.489" r="1" fill="rgb(0,0,0)" />
	<circle cx="426.017" cy="930.024" r="1" fill="rgb(0,0,0)" />
	<circle cx="428.367" cy="675.682" r="1" fill="rgb(0,0,0)" />
	<circle cx="431.975" cy="663.766" r="1" fill="rgb(0,0,0)" />
	<circle cx="432.982" cy="201.485" r="1" fill="rgb(0,0,0)" />
	<circle cx="433.402" cy="689.024" r="1" fill="rgb(0,0,0)" />
	<circle cx="433.57" cy="343.216" r="1" fill="rgb(0,0,0)" />
	<circle cx="436.507" cy="459.94" r="1" fill="rgb(0,0,0)" />
	<circle cx="439.863" cy="546.455" r="1" fill="rgb(0,0,0)" />
	<circle cx="442.8" cy="593.111" r="1" fill="rgb(0,0,0)" />
	<circle cx="443.052" cy="90.8031" r="1" fill="rgb(0,0,0)" />
	<circle cx="445.066" cy="592.272" r="1" fill="rgb(0,0,0)" />
	<circle cx="445.653" cy="1010.41" r="1" fill="rgb(0,0,0)" />
	<circle cx="445.821" cy="732.827" r="1" fill="rgb(0,0,0)" />
	<circle cx="446.073" cy="155.417" r="1" fill="rgb(0,0,0)" />
	<circle cx="449.094" cy="615.851" r="1" fill="rgb(0,0,0)" />
	<circle cx="469.82" cy="973.576" r="1" fill="rgb(0,0,0)" />
	<circle cx="475.946" cy="728.212" r="1" fill="rgb(0,0,0)" />
	<circle cx="475.946" cy="579.684" r="1" fill="rgb(0,0,0)" />
	<circle cx="477.96" cy="52.0349" r="1" fill="rgb(0,0,0)" />
	<circle cx="478.212" cy="846.866" r="1" fill="rgb(0,0,0)" />
	<circle cx="479.135" cy="465.142" r="1" fill="rgb(0,0,0)" />
	<circle cx="479.806" cy="911.479" r="1" fill="rgb(0,0,0)" />
	<circle cx="481.233" cy="85.5165" r="1" fill="rgb(0,0,0)" />
	<circle cx="484.841" cy="851.145" r="1" fill="rgb(0,0,0)" />
	<circle cx="486.268" cy="639.347" r="1" fill="rgb(0,0,0)" />
	<circle cx="487.442" cy="977.687" r="1" fill="rgb(0,0,0)" />
	<circle cx="490.379" cy="603.18" r="1" fill="rgb(0,0,0)" />
	<circle cx="491.722" cy="733.918" r="1" fill="rgb(0,0,0)" />
	<circle cx="493.232" cy="803.231" r="1" fill="rgb(0,0,0)" />
	<circle cx="494.743" cy="265.176" r="1" fill="rgb(0,0,0)" />
	<circle cx="494.995" cy="79.8943" r="1" fill="rgb(0,0,0)" />
	<circle cx="495.75" cy="911.395" r="1" fill="rgb(0,0,0)" />
	<circle cx="497.26" cy="775.203" r="1" fill="rgb(0,0,0)" />
	<circle cx="500.365" cy="648.494" r="1" fill="rgb(0,0,0)" />
	<circle cx="500.617" cy="444.751" r="1" fill="rgb(0,0,0)" />
	<circle cx="502.715" cy="961.324" r="1" fill="rgb(0,0,0)" />
	<circle cx="502.715" cy="513.98" r="1" fill="rgb(0,0,0)" />
	<circle cx="503.302" cy="366.124" r="1" fill="rgb(0,0,0)" />
	<circle cx="504.057" cy="369.145" r="1" fill="rgb(0,0,0)" />
	<circle cx="507.414" cy="294.797" r="1" fill="rgb(0,0,0)" />
	<circle cx="509.596" cy="325.929" r="1" fill="rgb(0,0,0)" />
	<circle cx="518.742" cy="238.072" r="1" fill="rgb(0,0,0)" />
	<circle cx="524.029" cy="386.767" r="1" fill="rgb(0,0,0)" />
	<circle cx="524.7" cy="1001.77" r="1" fill="rgb(0,0,0)" />
	<circle cx="526.798" cy="454.066" r="1" fill="rgb(0,0,0)" />
	<circle cx="528.224" cy="333.565" r="1" fill="rgb(0,0,0)" />
	<circle cx="528.728" cy="313.51" r="1" fill="rgb(0,0,0)" />
	<circle cx="530.406" cy="151.053" r="1" fill="rgb(0,0,0)" />
	<circle cx="539.553" cy="558.874" r="1" fill="rgb(0,0,0)" />
	<circle cx="542.658" cy="307.72" r="1" fill="rgb(0,0,0)" />
	<circle cx="548.028" cy="729.89" r="1" fill="rgb(0,0,0)" />
	<circle cx="551.217" cy="358.991" r="1" fill="rgb(0,0,0)" />
	<circle cx="552.14" cy="616.774" r="1" fill="rgb(0,0,0)" />
	<circle cx="554.154" cy="159.193" r="1" fill="rgb(0,0,0)" />
	<circle cx="556.671" cy="702.45" r="1" fill="rgb(0,0,0)" />
	<circle cx="557.846" cy="598.397" r="1" fill="rgb(0,0,0)" />
	<circle cx="558.769" cy="169.43" r="1" fill="rgb(0,0,0)" />
	<circle cx="562.713" cy="1052.2" r="1" fill="rgb(0,0,0)" />
	<circle cx="562.797" cy="813.216" r="1" fill="rgb(0,0,0)" />
	<circle cx="564.139" cy="321.062" r="1" fill="rgb(0,0,0)" />
	<circle cx="565.482" cy="588.663" r="1" fill="rgb(0,0,0)" />
	<circle cx="570.601" cy="988.596" r="1" fill="rgb(0,0,0)" />
	<circle cx="573.538" cy="283.133" r="1" fill="rgb(0,0,0)" />
	<circle cx="575.636" cy="542.511" r="1" fill="rgb(0,0,0)" />
	<circle cx="575.971" cy="256.952" r="1" fill="rgb(0,0,0)" />
	<circle cx="577.314" cy="1037.6" r="1" fill="rgb(0,0,0)" />
	<circle cx="577.566" cy="902.92" r="1" fill="rgb(0,0,0)" />
	<circle cx="579.999" cy="478.317" r="1" fill="rgb(0,0,0)" />
	<circle cx="587.384" cy="187.891" r="1" fill="rgb(0,0,0)" />
	<circle cx="594.181" cy="960.149" r="1" fill="rgb(0,0,0)" />
	<circle cx="598.796" cy="748.855" r="1" fill="rgb(0,0,0)" />
	<circle cx="601.649" cy="512.302" r="1" fill="rgb(0,0,0)" />
	<circle cx="603.663" cy="472.023" r="1" fill="rgb(0,0,0)" />
	<circle cx="607.187" cy="201.905" r="1" fill="rgb(0,0,0)" />
	<circle cx="609.201" cy="673.08" r="1" fill="rgb(0,0,0)" />
	<circle cx="610.879" cy="714.114" r="1" fill="rgb(0,0,0)" />
	<circle cx="614.572" cy="693.136" r="1" fill="rgb(0,0,0)" />
	<circle cx="619.858" cy="144.844" r="1" fill="rgb(0,0,0)" />
	<circle cx="623.466" cy="608.719" r="1" fill="rgb(0,0,0)" />
	<circle cx="629.257" cy="704.884" r="1" fill="rgb(0,0,0)" />
	<circle cx="629.424" cy="548.469" r="1" fill="rgb(0,0,0)" />
	<circle cx="631.774" cy="374.348" r="1" fill="rgb(0,0,0)" />
	<circle cx="634.795" cy="798.867" r="1" fill="rgb(0,0,0)" />
	<circle cx="644.781" cy="134.438" r="1" fill="rgb(0,0,0)" />
	<circle cx="645.2" cy="344.306" r="1" fill="rgb(0,0,0)" />
	<circle cx="645.62" cy="73.1812" r="1" fill="rgb(0,0,0)" />
	<circle cx="648.808" cy="1026.86" r="1" fill="rgb(0,0,0)" />
	<circle cx="652.752" cy="562.314" r="1" fill="rgb(0,0,0)" />
	<circle cx="653.088" cy="714.198" r="1" fill="rgb(0,0,0)" />
	<circle cx="653.927" cy="693.723" r="1" fill="rgb(0,0,0)" />
	<circle cx="655.27" cy="653.612" r="1" fill="rgb(0,0,0)" />
	<circle cx="656.025" cy="356.81" r="1" fill="rgb(0,0,0)" />
	<circle cx="657.703" cy="823.286" r="1" fill="rgb(0,0,0)" />
	<circle cx="658.291" cy="526.064" r="1" fill="rgb(0,0,0)" />
	<circle cx="661.144" cy="1002.36" r="1" fill="rgb(0,0,0)" />
	<circle cx="663.661" cy="96.5931" r="1" fill="rgb(0,0,0)" />
	<circle cx="664.668" cy="905.522" r="1" fill="rgb(0,0,0)" />
	<circle cx="667.689" cy="680.381" r="1" fill="rgb(0,0,0)" />
	<circle cx="668.78" cy="179.248" r="1" fill="rgb(0,0,0)" />
	<circle cx="670.039" cy="866.082" r="1" fill="rgb(0,0,0)" />
	<circle cx="673.143" cy="364.949" r="1" fill="rgb(0,0,0)" />
	<circle cx="673.395" cy="299.832" r="1" fill="rgb(0,0,0)" />
	<circle cx="674.654" cy="969.632" r="1" fill="rgb(0,0,0)" />
	<circle cx="674.738" cy="994.47" r="1" fill="rgb(0,0,0)" />
	<circle cx="677.843" cy="969.044" r="1" fill="rgb(0,0,0)" />
	<circle cx="683.045" cy="981.547" r="1" fill="rgb(0,0,0)" />
	<circle cx="683.129" cy="900.319" r="1" fill="rgb(0,0,0)" />
	<circle cx="684.975" cy="466.737" r="1" fill="rgb(0,0,0)" />
	<circle cx="685.227" cy="737.778" r="1" fill="rgb(0,0,0)" />
	<circle cx="688.164" cy="306.881" r="1" fill="rgb(0,0,0)" />
	<circle cx="689.758" cy="740.799" r="1" fill="rgb(0,0,0)" />
	<circle cx="690.43" cy="231.191" r="1" fill="rgb(0,0,0)" />
	<circle cx="690.681" cy="682.647" r="1" fill="rgb(0,0,0)" />
	<circle cx="694.038" cy="687.598" r="1" fill="rgb(0,0,0)" />
	<circle cx="701.003" cy="497.869" r="1" fill="rgb(0,0,0)" />
	<circle cx="702.01" cy="59.5032" r="1" fill="rgb(0,0,0)" />
	<circle cx="715.688" cy="657.976" r="1" fill="rgb(0,0,0)" />
	<circle cx="717.953" cy="419.074" r="1" fill="rgb(0,0,0)" />
	<circle cx="719.38" cy="393.648" r="1" fill="rgb(0,0,0)" />
	<circle cx="720.219" cy="842.502" r="1" fill="rgb(0,0,0)" />
	<circle cx="720.471" cy="760.686" r="1" fill="rgb(0,0,0)" />
	<circle cx="722.736" cy="1008.4" r="1" fill="rgb(0,0,0)" />
	<circle cx="723.408" cy="98.6909" r="1" fill="rgb(0,0,0)" />
	<circle cx="723.492" cy="176.731" r="1" fill="rgb(0,0,0)" />
	<circle cx="723.995" cy="118.411" r="1" fill="rgb(0,0,0)" />
	<circle cx="728.862" cy="592.02" r="1" fill="rgb(0,0,0)" />
	<circle cx="731.38" cy="925.073" r="1" fill="rgb(0,0,0)" />
	<circle cx="731.715" cy="191.08" r="1" fill="rgb(0,0,0)" />
	<circle cx="731.883" cy="125.124" r="1" fill="rgb(0,0,0)" />
	<circle cx="733.813" cy="925.661" r="1" fill="rgb(0,0,0)" />
	<circle cx="735.156" cy="327.44" r="1" fill="rgb(0,0,0)" />
	<circle cx="737.841" cy="418.402" r="1" fill="rgb(0,0,0)" />
	<circle cx="741.785" cy="521.448" r="1" fill="rgb(0,0,0)" />
	<circle cx="742.96" cy="567.265" r="1" fill="rgb(0,0,0)" />
	<circle cx="743.211" cy="348.25" r="1" fill="rgb(0,0,0)" />
	<circle cx="743.295" cy="941.688" r="1" fill="rgb(0,0,0)" />
	<circle cx="752.945" cy="269.204" r="1" fill="rgb(0,0,0)" />
	<circle cx="753.365" cy="183.024" r="1" fill="rgb(0,0,0)" />
	<circle cx="754.12" cy="295.553" r="1" fill="rgb(0,0,0)" />
	<circle cx="754.624" cy="1046.08" r="1" fill="rgb(0,0,0)" />
	<circle cx="756.218" cy="575.824" r="1" fill="rgb(0,0,0)" />
	<circle cx="756.554" cy="882.11" r="1" fill="rgb(0,0,0)" />
	<circle cx="757.309" cy="673.164" r="1" fill="rgb(0,0,0)" />
	<circle cx="757.561" cy="480.834" r="1" fill="rgb(0,0,0)" />
	<circle cx="759.323" cy="215.499" r="1" fill="rgb(0,0,0)" />
	<circle cx="766.623" cy="957.128" r="1" fill="rgb(0,0,0)" />
	<circle cx="769.225" cy="631.04" r="1" fill="rgb(0,0,0)" />
	<circle cx="772.665" cy="272.56" r="1" fill="rgb(0,0,0)" />
	<circle cx="772.917" cy="814.727" r="1" fill="rgb(0,0,0)" />
	<circle cx="773.504" cy="768.071" r="1" fill="rgb(0,0,0)" />
	<circle cx="780.721" cy="851.397" r="1" fill="rgb(0,0,0)" />
	<circle cx="789.364" cy="535.462" r="1" fill="rgb(0,0,0)" />
	<circle cx="795.322" cy="1012.85" r="1" fill="rgb(0,0,0)" />
	<circle cx="804.636" cy="738.617" r="1" fill="rgb(0,0,0)" />
	<circle cx="806.147" cy="785.861" r="1" fill="rgb(0,0,0)" />
	<circle cx="809.168" cy="891.172" r="1" fill="rgb(0,0,0)" />
	<circle cx="811.853" cy="836.041" r="1" fill="rgb(0,0,0)" />
	<circle cx="816.132" cy="398.347" r="1" fill="rgb(0,0,0)" />
	<circle cx="818.818" cy="830.167" r="1" fill="rgb(0,0,0)" />
	<circle cx="820.832" cy="661.416" r="1" fill="rgb(0,0,0)" />
	<circle cx="821.335" cy="200.31" r="1" fill="rgb(0,0,0)" />
	<circle cx="822.006" cy="599.236" r="1" fill="rgb(0,0,0)" />
	<circle cx="825.95" cy="615.264" r="1" fill="rgb(0,0,0)" />
	<circle cx="826.034" cy="606.789" r="1" fill="rgb(0,0,0)" />
	<circle cx="828.132" cy="650.759" r="1" fill="rgb(0,0,0)" />
	<circle cx="828.719" cy="921.969" r="1" fill="rgb(0,0,0)" />
	<circle cx="830.482" cy="571.209" r="1" fill="rgb(0,0,0)" />
	<circle cx="836.104" cy="813.972" r="1" fill="rgb(0,0,0)" />
	<circle cx="836.272" cy="250.827" r="1" fill="rgb(0,0,0)" />
	<circle cx="840.803" cy="455.576" r="1" fill="rgb(0,0,0)" />
	<circle cx="848.104" cy="903.424" r="1" fill="rgb(0,0,0)" />
	<circle cx="855.572" cy="901.494" r="1" fill="rgb(0,0,0)" />
	<circle cx="855.572" cy="762.029" r="1" fill="rgb(0,0,0)" />
	<circle cx="855.74" cy="1022.67" r="1" fill="rgb(0,0,0)" />
	<circle cx="856.411" cy="754.896" r="1" fill="rgb(0,0,0)" />
	<circle cx="856.411" cy="652.102" r="1" fill="rgb(0,0,0)" />
	<circle cx="860.439" cy="908.878" r="1" fill="rgb(0,0,0)" />
	<circle cx="861.781" cy="383.83" r="1" fill="rgb(0,0,0)" />
	<circle cx="868.327" cy="581.447" r="1" fill="rgb(0,0,0)" />
	<circle cx="868.746" cy="812.965" r="1" fill="rgb(0,0,0)" />
	<circle cx="870.173" cy="660.829" r="1" fill="rgb(0,0,0)" />
	<circle cx="870.844" cy="849.048" r="1" fill="rgb(0,0,0)" />
	<circle cx="871.264" cy="565.923" r="1" fill="rgb(0,0,0)" />
	<circle cx="871.348" cy="500.889" r="1" fill="rgb(0,0,0)" />
	<circle cx="871.935" cy="315.608" r="1" fill="rgb(0,0,0)" />
	<circle cx="878.648" cy="722.17" r="1" fill="rgb(0,0,0)" />
	<circle cx="879.236" cy="926.92" r="1" fill="rgb(0,0,0)" />
	<circle cx="879.739" cy="790.056" r="1" fill="rgb(0,0,0)" />
	<circle cx="881.921" cy="581.866" r="1" fill="rgb(0,0,0)" />
	<circle cx="883.431" cy="622.984" r="1" fill="rgb(0,0,0)" />
	<circle cx="887.123" cy="958.303" r="1" fill="rgb(0,0,0)" />
	<circle cx="890.9" cy="845.439" r="1" fill="rgb(0,0,0)" />
	<circle cx="892.662" cy="857.942" r="1" fill="rgb(0,0,0)" />
	<circle cx="894.256" cy="284.476" r="1" fill="rgb(0,0,0)" />
	<circle cx="898.116" cy="837.887" r="1" fill="rgb(0,0,0)" />
	<circle cx="902.06" cy="236.142" r="1" fill="rgb(0,0,0)" />
	<circle cx="909.612" cy="703.793" r="1" fill="rgb(0,0,0)" />
	<circle cx="909.696" cy="306.545" r="1" fill="rgb(0,0,0)" />
	<circle cx="910.703" cy="517.169" r="1" fill="rgb(0,0,0)" />
	<circle cx="913.053" cy="641.361" r="1" fill="rgb(0,0,0)" />
	<circle cx="918.088" cy="787.035" r="1" fill="rgb(0,0,0)" />
	<circle cx="919.262" cy="1041.04" r="1" fill="rgb(0,0,0)" />
	<circle cx="919.682" cy="563.741" r="1" fill="rgb(0,0,0)" />
	<circle cx="924.633" cy="182.017" r="1" fill="rgb(0,0,0)" />
	<circle cx="925.052" cy="259.218" r="1" fill="rgb(0,0,0)" />
	<circle cx="925.975" cy="505.589" r="1" fill="rgb(0,0,0)" />
	<circle cx="930.926" cy="998.498" r="1" fill="rgb(0,0,0)" />
	<circle cx="932.101" cy="621.054" r="1" fill="rgb(0,0,0)" />
	<circle cx="937.975" cy="234.212" r="1" fill="rgb(0,0,0)" />
	<circle cx="942.59" cy="63.8667" r="1" fill="rgb(0,0,0)" />
	<circle cx="946.115" cy="775.959" r="1" fill="rgb(0,0,0)" />
	<circle cx="946.786" cy="691.29" r="1" fill="rgb(0,0,0)" />
	<circle cx="952.073" cy="99.5301" r="1" fill="rgb(0,0,0)" />
	<circle cx="958.786" cy="383.326" r="1" fill="rgb(0,0,0)" />
	<circle cx="964.828" cy="204.926" r="1" fill="rgb(0,0,0)" />
	<circle cx="969.443" cy="630.872" r="1" fill="rgb(0,0,0)" />
	<circle cx="969.443" cy="616.523" r="1" fill="rgb(0,0,0)" />
	<circle cx="970.198" cy="533.616" r="1" fill="rgb(0,0,0)" />
	<circle cx="973.387" cy="578.174" r="1" fill="rgb(0,0,0)" />
	<circle cx="974.897" cy="603.768" r="1" fill="rgb(0,0,0)" />
	<circle cx="979.261" cy="757.246" r="1" fill="rgb(0,0,0)" />
	<circle cx="983.624" cy="522.455" r="1" fill="rgb(0,0,0)" />
	<circle cx="985.135" cy="587.405" r="1" fill="rgb(0,0,0)" />
	<circle cx="987.316" cy="706.898" r="1" fill="rgb(0,0,0)" />
	<circle cx="988.659" cy="107.67" r="1" fill="rgb(0,0,0)" />
	<circle cx="991.428" cy="1027.11" r="1" fill="rgb(0,0,0)" />
	<circle cx="997.638" cy="1021.91" r="1" fill="rgb(0,0,0)" />
	<circle cx="998.729" cy="684.912" r="1" fill="rgb(0,0,0)" />
	<circle cx="998.897" cy="519.099" r="1" fill="rgb(0,0,0)" />
	<circle cx="1004.27" cy="543.853" r="1" fill="rgb(0,0,0)" />
	<circle cx="1011.9" cy="949.324" r="1" fill="rgb(0,0,0)" />
	<circle cx="1012.07" cy="676.437" r="1" fill="rgb(0,0,0)" />
	<circle cx="1012.15" cy="786.028" r="1" fill="rgb(0,0,0)" />
	<circle cx="1013.92" cy="386.599" r="1" fill="rgb(0,0,0)" />
	<circle cx="1018.2" cy="882.445" r="1" fill="rgb(0,0,0)" />
	<circle cx="1018.45" cy="300.839" r="1" fill="rgb(0,0,0)" />
	<circle cx="1018.53" cy="230.771" r="1" fill="rgb(0,0,0)" />
	<circle cx="1024.74" cy="109.516" r="1" fill="rgb(0,0,0)" />
	<circle cx="1026.5" cy="479.491" r="1" fill="rgb(0,0,0)" />
	<circle cx="1026.59" cy="237.82" r="1" fill="rgb(0,0,0)" />
	<circle cx="1028.69" cy="641.613" r="1" fill="rgb(0,0,0)" />
	<circle cx="1034.39" cy="378.459" r="1" fill="rgb(0,0,0)" />
	<circle cx="1038.92" cy="925.996" r="1" fill="rgb(0,0,0)" />
	<circle cx="1041.19" cy="790.895" r="1" fill="rgb(0,0,0)" />
	<circle cx="1047.4" cy="381.145" r="1" fill="rgb(0,0,0)" />
	<circle cx="1050" cy="181.262" r="1" fill="rgb(0,0,0)" />
</svg>
