<?xml version="1.0" standalone="no" ?>
<!DOCTYPE svg PUBLIC "-//W3C//DTD SVG 1.1//EN" "http://www.w3.org/Graphics/SVG/1.1/DTD/svg11.dtd">
<svg width="1100px" height="1102.57px" xmlns="http://www.w3.org/2000/svg" version="1.1" >
	<circle cx="50" cy="71.1449" r="1" fill="rgb(0,0,0)" />
	<circle cx="54.6729" cy="451.986" r="1" fill="rgb(0,0,0)" />
	<circle cx="58.1776" cy="316.472" r="1" fill="rgb(0,0,0)" />
	<circle cx="85.0467" cy="864.369" r="1" fill="rgb(0,0,0)" />
	<circle cx="106.075" cy="102.687" r="1" fill="rgb(0,0,0)" />
	<circle cx="135.28" cy="719.509" r="1" fill="rgb(0,0,0)" />
	<circle cx="167.991" cy="814.136" r="1" fill="rgb(0,0,0)" />
	<circle cx="263.785" cy="391.238" r="1" fill="rgb(0,0,0)" />
	<circle cx="271.963" cy="971.846" r="1" fill="rgb(0,0,0)" />
	<circle cx="379.439" cy="766.238" r="1" fill="rgb(0,0,0)" />
	<circle cx="462.383" cy="704.322" r="1" fill="rgb(0,0,0)" />
	<circle cx="486.916" cy="532.593" r="1" fill="rgb(0,0,0)" />
	<circle cx="527.804" cy="76.986" r="1" fill="rgb(0,0,0)" />
	<circle cx="646.963" cy="192.64" r="1" fill="rgb(0,0,0)" />
	<circle cx="653.972" cy="163.435" r="1" fill="rgb(0,0,0)" />
	<circle cx="656.308" cy="411.098" r="1" fill="rgb(0,0,0)" />
	<circle cx="685.514" cy="587.5" r="1" fill="rgb(0,0,0)" />
	<circle cx="701.869" cy="207.827" r="1" fill="rgb(0,0,0)" />
	<circle cx="706.542" cy="291.939" r="1" fill="rgb(0,0,0)" />
	<circle cx="714.72" cy="151.752" r="1" fill="rgb(0,0,0)" />
	<circle cx="728.738" cy="50.1168" r="1" fill="rgb(0,0,0)" />
	<circle cx="757.944" cy="897.079" r="1" fill="rgb(0,0,0)" />
	<circle cx="822.196" cy="1052.45" r="1" fill="rgb(0,0,0)" />
	<circle cx="838.551" cy="191.472" r="1" fill="rgb(0,0,0)" />
	<circle cx="863.084" cy="677.453" r="1" fill="rgb(0,0,0)" />
	<circle cx="889.953" cy="1045.44" r="1" fill="rgb(0,0,0)" />
	<circle cx="950.701" cy="227.687" r="1" fill="rgb(0,0,0)" />
	<circle cx="978.738" cy="217.173" r="1" fill="rgb(0,0,0)" />
	<circle cx="991.589" cy="768.575" r="1" fill="rgb(0,0,0)" />
	<circle cx="1050" cy="363.201" r="1" fill="rgb(0,0,0)" />
</svg>
