<?xml version="1.0" standalone="no" ?>
<!DOCTYPE svg PUBLIC "-//W3C//DTD SVG 1.1//EN" "http://www.w3.org/Graphics/SVG/1.1/DTD/svg11.dtd">
<svg width="1100px" height="1100.64px" xmlns="http://www.w3.org/2000/svg" version="1.1" >
	<circle cx="50" cy="422.354" r="1" fill="rgb(0,0,0)" />
	<circle cx="50.1254" cy="85.7734" r="1" fill="rgb(0,0,0)" />
	<circle cx="52.1739" cy="445.054" r="1" fill="rgb(0,0,0)" />
	<circle cx="52.2157" cy="221.685" r="1" fill="rgb(0,0,0)" />
	<circle cx="56.5217" cy="415.497" r="1" fill="rgb(0,0,0)" />
	<circle cx="60.6605" cy="587.696" r="1" fill="rgb(0,0,0)" />
	<circle cx="64.3813" cy="891.334" r="1" fill="rgb(0,0,0)" />
	<circle cx="64.7993" cy="1019.26" r="1" fill="rgb(0,0,0)" />
	<circle cx="65.51" cy="1010.15" r="1" fill="rgb(0,0,0)" />
	<circle cx="66.2625" cy="923.65" r="1" fill="rgb(0,0,0)" />
	<circle cx="69.5234" cy="328.039" r="1" fill="rgb(0,0,0)" />
	<circle cx="69.6488" cy="641.668" r="1" fill="rgb(0,0,0)" />
	<circle cx="71.99" cy="51.4925" r="1" fill="rgb(0,0,0)" />
	<circle cx="72.3662" cy="678.123" r="1" fill="rgb(0,0,0)" />
	<circle cx="73.286" cy="1035.56" r="1" fill="rgb(0,0,0)" />
	<circle cx="74.8328" cy="713.491" r="1" fill="rgb(0,0,0)" />
	<circle cx="75" cy="960.773" r="1" fill="rgb(0,0,0)" />
	<circle cx="75" cy="554.252" r="1" fill="rgb(0,0,0)" />
	<circle cx="75.1672" cy="104.126" r="1" fill="rgb(0,0,0)" />
	<circle cx="76.4632" cy="1025.36" r="1" fill="rgb(0,0,0)" />
	<circle cx="77.4247" cy="552.412" r="1" fill="rgb(0,0,0)" />
	<circle cx="78.4281" cy="1035.23" r="1" fill="rgb(0,0,0)" />
	<circle cx="78.8462" cy="201.702" r="1" fill="rgb(0,0,0)" />
	<circle cx="79.4732" cy="119.427" r="1" fill="rgb(0,0,0)" />
	<circle cx="80.6856" cy="369.427" r="1" fill="rgb(0,0,0)" />
	<circle cx="81.1037" cy="499.987" r="1" fill="rgb(0,0,0)" />
	<circle cx="83.7375" cy="853.374" r="1" fill="rgb(0,0,0)" />
	<circle cx="87.3746" cy="696.141" r="1" fill="rgb(0,0,0)" />
	<circle cx="88.7124" cy="973.064" r="1" fill="rgb(0,0,0)" />
	<circle cx="88.9214" cy="238.992" r="1" fill="rgb(0,0,0)" />
	<circle cx="89.2559" cy="430.38" r="1" fill="rgb(0,0,0)" />
	<circle cx="89.9247" cy="894.135" r="1" fill="rgb(0,0,0)" />
	<circle cx="90.0084" cy="631.3" r="1" fill="rgb(0,0,0)" />
	<circle cx="92.0569" cy="758.558" r="1" fill="rgb(0,0,0)" />
	<circle cx="94.1472" cy="508.014" r="1" fill="rgb(0,0,0)" />
	<circle cx="97.4498" cy="612.028" r="1" fill="rgb(0,0,0)" />
	<circle cx="102.676" cy="520.222" r="1" fill="rgb(0,0,0)" />
	<circle cx="103.554" cy="425.698" r="1" fill="rgb(0,0,0)" />
	<circle cx="104.097" cy="524.235" r="1" fill="rgb(0,0,0)" />
	<circle cx="105.853" cy="908.181" r="1" fill="rgb(0,0,0)" />
	<circle cx="107.358" cy="775.865" r="1" fill="rgb(0,0,0)" />
	<circle cx="109.699" cy="207.722" r="1" fill="rgb(0,0,0)" />
	<circle cx="112.416" cy="1011.65" r="1" fill="rgb(0,0,0)" />
	<circle cx="113.085" cy="526.576" r="1" fill="rgb(0,0,0)" />
	<circle cx="116.597" cy="1044.22" r="1" fill="rgb(0,0,0)" />
	<circle cx="117.642" cy="950.238" r="1" fill="rgb(0,0,0)" />
	<circle cx="118.018" cy="158.432" r="1" fill="rgb(0,0,0)" />
	<circle cx="118.771" cy="138.491" r="1" fill="rgb(0,0,0)" />
	<circle cx="119.189" cy="1028.08" r="1" fill="rgb(0,0,0)" />
	<circle cx="119.189" cy="160.732" r="1" fill="rgb(0,0,0)" />
	<circle cx="123.411" cy="767.671" r="1" fill="rgb(0,0,0)" />
	<circle cx="124.498" cy="470.263" r="1" fill="rgb(0,0,0)" />
	<circle cx="125.334" cy="865.957" r="1" fill="rgb(0,0,0)" />
	<circle cx="125.46" cy="796.267" r="1" fill="rgb(0,0,0)" />
	<circle cx="127.132" cy="812.696" r="1" fill="rgb(0,0,0)" />
	<circle cx="127.843" cy="153.416" r="1" fill="rgb(0,0,0)" />
	<circle cx="129.808" cy="221.894" r="1" fill="rgb(0,0,0)" />
	<circle cx="129.849" cy="481.091" r="1" fill="rgb(0,0,0)" />
	<circle cx="130.936" cy="487.362" r="1" fill="rgb(0,0,0)" />
	<circle cx="131.02" cy="255.004" r="1" fill="rgb(0,0,0)" />
	<circle cx="132.358" cy="147.855" r="1" fill="rgb(0,0,0)" />
	<circle cx="135.619" cy="402.287" r="1" fill="rgb(0,0,0)" />
	<circle cx="140.092" cy="917.588" r="1" fill="rgb(0,0,0)" />
	<circle cx="144.523" cy="635.523" r="1" fill="rgb(0,0,0)" />
	<circle cx="144.774" cy="864.369" r="1" fill="rgb(0,0,0)" />
	<circle cx="146.363" cy="225.364" r="1" fill="rgb(0,0,0)" />
	<circle cx="150.251" cy="709.059" r="1" fill="rgb(0,0,0)" />
	<circle cx="151.129" cy="221.016" r="1" fill="rgb(0,0,0)" />
	<circle cx="152.341" cy="918.424" r="1" fill="rgb(0,0,0)" />
	<circle cx="154.682" cy="922.646" r="1" fill="rgb(0,0,0)" />
	<circle cx="155.644" cy="221.559" r="1" fill="rgb(0,0,0)" />
	<circle cx="156.814" cy="707.053" r="1" fill="rgb(0,0,0)" />
	<circle cx="157.358" cy="542.713" r="1" fill="rgb(0,0,0)" />
	<circle cx="158.194" cy="869.72" r="1" fill="rgb(0,0,0)" />
	<circle cx="158.737" cy="640.33" r="1" fill="rgb(0,0,0)" />
	<circle cx="160.87" cy="362.404" r="1" fill="rgb(0,0,0)" />
	<circle cx="164.716" cy="607.68" r="1" fill="rgb(0,0,0)" />
	<circle cx="164.841" cy="871.852" r="1" fill="rgb(0,0,0)" />
	<circle cx="164.967" cy="815.079" r="1" fill="rgb(0,0,0)" />
	<circle cx="165.426" cy="488.24" r="1" fill="rgb(0,0,0)" />
	<circle cx="169.858" cy="333.892" r="1" fill="rgb(0,0,0)" />
	<circle cx="173.537" cy="836.819" r="1" fill="rgb(0,0,0)" />
	<circle cx="173.871" cy="537.696" r="1" fill="rgb(0,0,0)" />
	<circle cx="173.913" cy="599.987" r="1" fill="rgb(0,0,0)" />
	<circle cx="176.212" cy="113.909" r="1" fill="rgb(0,0,0)" />
	<circle cx="176.296" cy="72.061" r="1" fill="rgb(0,0,0)" />
	<circle cx="176.756" cy="119.72" r="1" fill="rgb(0,0,0)" />
	<circle cx="177.634" cy="650.196" r="1" fill="rgb(0,0,0)" />
	<circle cx="177.801" cy="391.668" r="1" fill="rgb(0,0,0)" />
	<circle cx="179.682" cy="566.961" r="1" fill="rgb(0,0,0)" />
	<circle cx="181.564" cy="340.205" r="1" fill="rgb(0,0,0)" />
	<circle cx="181.689" cy="332.972" r="1" fill="rgb(0,0,0)" />
	<circle cx="181.773" cy="489.411" r="1" fill="rgb(0,0,0)" />
	<circle cx="183.361" cy="197.73" r="1" fill="rgb(0,0,0)" />
	<circle cx="184.239" cy="114.118" r="1" fill="rgb(0,0,0)" />
	<circle cx="184.281" cy="652.203" r="1" fill="rgb(0,0,0)" />
	<circle cx="184.615" cy="536.526" r="1" fill="rgb(0,0,0)" />
	<circle cx="186.413" cy="122.772" r="1" fill="rgb(0,0,0)" />
	<circle cx="187.876" cy="620.472" r="1" fill="rgb(0,0,0)" />
	<circle cx="188.127" cy="81.6346" r="1" fill="rgb(0,0,0)" />
	<circle cx="189.047" cy="758.516" r="1" fill="rgb(0,0,0)" />
	<circle cx="190.468" cy="379.252" r="1" fill="rgb(0,0,0)" />
	<circle cx="191.304" cy="229.586" r="1" fill="rgb(0,0,0)" />
	<circle cx="192.266" cy="591.877" r="1" fill="rgb(0,0,0)" />
	<circle cx="194.231" cy="909.477" r="1" fill="rgb(0,0,0)" />
	<circle cx="196.237" cy="340.999" r="1" fill="rgb(0,0,0)" />
	<circle cx="197.45" cy="423.148" r="1" fill="rgb(0,0,0)" />
	<circle cx="197.45" cy="312.947" r="1" fill="rgb(0,0,0)" />
	<circle cx="200.543" cy="563.198" r="1" fill="rgb(0,0,0)" />
	<circle cx="202.341" cy="890.497" r="1" fill="rgb(0,0,0)" />
	<circle cx="202.425" cy="1041.92" r="1" fill="rgb(0,0,0)" />
	<circle cx="204.599" cy="856.635" r="1" fill="rgb(0,0,0)" />
	<circle cx="205.184" cy="486.066" r="1" fill="rgb(0,0,0)" />
	<circle cx="209.239" cy="741.793" r="1" fill="rgb(0,0,0)" />
	<circle cx="209.992" cy="403.834" r="1" fill="rgb(0,0,0)" />
	<circle cx="213.043" cy="103.081" r="1" fill="rgb(0,0,0)" />
	<circle cx="215.719" cy="300.698" r="1" fill="rgb(0,0,0)" />
	<circle cx="215.928" cy="588.909" r="1" fill="rgb(0,0,0)" />
	<circle cx="217.057" cy="174.862" r="1" fill="rgb(0,0,0)" />
	<circle cx="218.353" cy="705.422" r="1" fill="rgb(0,0,0)" />
	<circle cx="218.436" cy="210.69" r="1" fill="rgb(0,0,0)" />
	<circle cx="221.656" cy="791.041" r="1" fill="rgb(0,0,0)" />
	<circle cx="221.697" cy="1045.39" r="1" fill="rgb(0,0,0)" />
	<circle cx="222.575" cy="1020.56" r="1" fill="rgb(0,0,0)" />
	<circle cx="227.717" cy="303.457" r="1" fill="rgb(0,0,0)" />
	<circle cx="228.303" cy="833.934" r="1" fill="rgb(0,0,0)" />
	<circle cx="229.181" cy="71.5176" r="1" fill="rgb(0,0,0)" />
	<circle cx="229.766" cy="826.827" r="1" fill="rgb(0,0,0)" />
	<circle cx="230.017" cy="516.793" r="1" fill="rgb(0,0,0)" />
	<circle cx="231.02" cy="299.653" r="1" fill="rgb(0,0,0)" />
	<circle cx="231.982" cy="522.939" r="1" fill="rgb(0,0,0)" />
	<circle cx="233.445" cy="322.605" r="1" fill="rgb(0,0,0)" />
	<circle cx="234.908" cy="977.078" r="1" fill="rgb(0,0,0)" />
	<circle cx="236.706" cy="395.64" r="1" fill="rgb(0,0,0)" />
	<circle cx="237.124" cy="271.601" r="1" fill="rgb(0,0,0)" />
	<circle cx="239.465" cy="381.927" r="1" fill="rgb(0,0,0)" />
	<circle cx="240.05" cy="1039.79" r="1" fill="rgb(0,0,0)" />
	<circle cx="242.977" cy="718.758" r="1" fill="rgb(0,0,0)" />
	<circle cx="243.018" cy="660.606" r="1" fill="rgb(0,0,0)" />
	<circle cx="243.144" cy="160.105" r="1" fill="rgb(0,0,0)" />
	<circle cx="243.938" cy="565.205" r="1" fill="rgb(0,0,0)" />
	<circle cx="244.44" cy="1050.57" r="1" fill="rgb(0,0,0)" />
	<circle cx="244.9" cy="471.476" r="1" fill="rgb(0,0,0)" />
	<circle cx="245.569" cy="666.793" r="1" fill="rgb(0,0,0)" />
	<circle cx="248.537" cy="454.043" r="1" fill="rgb(0,0,0)" />
	<circle cx="248.62" cy="767.462" r="1" fill="rgb(0,0,0)" />
	<circle cx="249.707" cy="663.324" r="1" fill="rgb(0,0,0)" />
	<circle cx="251.087" cy="51.4089" r="1" fill="rgb(0,0,0)" />
	<circle cx="252.09" cy="188.783" r="1" fill="rgb(0,0,0)" />
	<circle cx="253.094" cy="450.406" r="1" fill="rgb(0,0,0)" />
	<circle cx="254.39" cy="611.61" r="1" fill="rgb(0,0,0)" />
	<circle cx="256.062" cy="742.546" r="1" fill="rgb(0,0,0)" />
	<circle cx="257.023" cy="220.89" r="1" fill="rgb(0,0,0)" />
	<circle cx="258.194" cy="727.914" r="1" fill="rgb(0,0,0)" />
	<circle cx="258.361" cy="938.658" r="1" fill="rgb(0,0,0)" />
	<circle cx="261.12" cy="784.561" r="1" fill="rgb(0,0,0)" />
	<circle cx="261.58" cy="758.85" r="1" fill="rgb(0,0,0)" />
	<circle cx="262.876" cy="216.877" r="1" fill="rgb(0,0,0)" />
	<circle cx="264.716" cy="291.208" r="1" fill="rgb(0,0,0)" />
	<circle cx="265.259" cy="420.347" r="1" fill="rgb(0,0,0)" />
	<circle cx="269.105" cy="417.964" r="1" fill="rgb(0,0,0)" />
	<circle cx="271.572" cy="898.901" r="1" fill="rgb(0,0,0)" />
	<circle cx="271.906" cy="954.795" r="1" fill="rgb(0,0,0)" />
	<circle cx="273.328" cy="99.0259" r="1" fill="rgb(0,0,0)" />
	<circle cx="274.833" cy="890.497" r="1" fill="rgb(0,0,0)" />
	<circle cx="277.09" cy="605.004" r="1" fill="rgb(0,0,0)" />
	<circle cx="277.676" cy="979.084" r="1" fill="rgb(0,0,0)" />
	<circle cx="282.065" cy="1010.56" r="1" fill="rgb(0,0,0)" />
	<circle cx="283.946" cy="363.574" r="1" fill="rgb(0,0,0)" />
	<circle cx="287.625" cy="267.253" r="1" fill="rgb(0,0,0)" />
	<circle cx="287.751" cy="878.917" r="1" fill="rgb(0,0,0)" />
	<circle cx="287.834" cy="944.553" r="1" fill="rgb(0,0,0)" />
	<circle cx="288.169" cy="110.982" r="1" fill="rgb(0,0,0)" />
	<circle cx="289.339" cy="1015.75" r="1" fill="rgb(0,0,0)" />
	<circle cx="289.548" cy="50.8654" r="1" fill="rgb(0,0,0)" />
	<circle cx="289.799" cy="449.026" r="1" fill="rgb(0,0,0)" />
	<circle cx="290.385" cy="61.2333" r="1" fill="rgb(0,0,0)" />
	<circle cx="292.517" cy="935.188" r="1" fill="rgb(0,0,0)" />
	<circle cx="295.151" cy="847.395" r="1" fill="rgb(0,0,0)" />
	<circle cx="295.36" cy="80.6313" r="1" fill="rgb(0,0,0)" />
	<circle cx="296.07" cy="877.621" r="1" fill="rgb(0,0,0)" />
	<circle cx="296.405" cy="714.912" r="1" fill="rgb(0,0,0)" />
	<circle cx="298.662" cy="542.462" r="1" fill="rgb(0,0,0)" />
	<circle cx="298.913" cy="959.812" r="1" fill="rgb(0,0,0)" />
	<circle cx="300.334" cy="586.651" r="1" fill="rgb(0,0,0)" />
	<circle cx="300.669" cy="662.028" r="1" fill="rgb(0,0,0)" />
	<circle cx="305.017" cy="735.732" r="1" fill="rgb(0,0,0)" />
	<circle cx="306.104" cy="805.339" r="1" fill="rgb(0,0,0)" />
	<circle cx="310.702" cy="1031.97" r="1" fill="rgb(0,0,0)" />
	<circle cx="311.664" cy="934.059" r="1" fill="rgb(0,0,0)" />
	<circle cx="312.584" cy="702.914" r="1" fill="rgb(0,0,0)" />
	<circle cx="313.336" cy="625.322" r="1" fill="rgb(0,0,0)" />
	<circle cx="315.259" cy="195.681" r="1" fill="rgb(0,0,0)" />
	<circle cx="315.928" cy="631.969" r="1" fill="rgb(0,0,0)" />
	<circle cx="317.809" cy="168.215" r="1" fill="rgb(0,0,0)" />
	<circle cx="318.102" cy="407.094" r="1" fill="rgb(0,0,0)" />
	<circle cx="318.102" cy="239.452" r="1" fill="rgb(0,0,0)" />
	<circle cx="318.478" cy="896.852" r="1" fill="rgb(0,0,0)" />
	<circle cx="319.941" cy="221.35" r="1" fill="rgb(0,0,0)" />
	<circle cx="322.283" cy="773.023" r="1" fill="rgb(0,0,0)" />
	<circle cx="322.366" cy="165.414" r="1" fill="rgb(0,0,0)" />
	<circle cx="322.575" cy="426.409" r="1" fill="rgb(0,0,0)" />
	<circle cx="323.495" cy="549.277" r="1" fill="rgb(0,0,0)" />
	<circle cx="324.624" cy="313.533" r="1" fill="rgb(0,0,0)" />
	<circle cx="327.592" cy="927.161" r="1" fill="rgb(0,0,0)" />
	<circle cx="329.055" cy="440.372" r="1" fill="rgb(0,0,0)" />
	<circle cx="331.02" cy="554.461" r="1" fill="rgb(0,0,0)" />
	<circle cx="331.48" cy="1012.28" r="1" fill="rgb(0,0,0)" />
	<circle cx="334.281" cy="589.954" r="1" fill="rgb(0,0,0)" />
	<circle cx="334.699" cy="444.553" r="1" fill="rgb(0,0,0)" />
	<circle cx="340.468" cy="819.887" r="1" fill="rgb(0,0,0)" />
	<circle cx="342.935" cy="272.27" r="1" fill="rgb(0,0,0)" />
	<circle cx="344.105" cy="1050.61" r="1" fill="rgb(0,0,0)" />
	<circle cx="345.192" cy="262.613" r="1" fill="rgb(0,0,0)" />
	<circle cx="345.276" cy="469.26" r="1" fill="rgb(0,0,0)" />
	<circle cx="345.861" cy="277.872" r="1" fill="rgb(0,0,0)" />
	<circle cx="346.823" cy="602.454" r="1" fill="rgb(0,0,0)" />
	<circle cx="348.997" cy="637.195" r="1" fill="rgb(0,0,0)" />
	<circle cx="353.052" cy="156.676" r="1" fill="rgb(0,0,0)" />
	<circle cx="354.473" cy="206.217" r="1" fill="rgb(0,0,0)" />
	<circle cx="354.64" cy="391.125" r="1" fill="rgb(0,0,0)" />
	<circle cx="355.602" cy="1014.24" r="1" fill="rgb(0,0,0)" />
	<circle cx="356.145" cy="394.469" r="1" fill="rgb(0,0,0)" />
	<circle cx="358.737" cy="739.369" r="1" fill="rgb(0,0,0)" />
	<circle cx="359.03" cy="669.804" r="1" fill="rgb(0,0,0)" />
	<circle cx="359.239" cy="574.778" r="1" fill="rgb(0,0,0)" />
	<circle cx="360.368" cy="381.844" r="1" fill="rgb(0,0,0)" />
	<circle cx="361.246" cy="66.2082" r="1" fill="rgb(0,0,0)" />
	<circle cx="362.5" cy="654.837" r="1" fill="rgb(0,0,0)" />
	<circle cx="363.002" cy="555.255" r="1" fill="rgb(0,0,0)" />
	<circle cx="363.043" cy="973.524" r="1" fill="rgb(0,0,0)" />
	<circle cx="364.967" cy="462.78" r="1" fill="rgb(0,0,0)" />
	<circle cx="365.51" cy="677.203" r="1" fill="rgb(0,0,0)" />
	<circle cx="367.851" cy="904.921" r="1" fill="rgb(0,0,0)" />
	<circle cx="369.858" cy="983.432" r="1" fill="rgb(0,0,0)" />
	<circle cx="369.941" cy="712.822" r="1" fill="rgb(0,0,0)" />
	<circle cx="370.234" cy="406.133" r="1" fill="rgb(0,0,0)" />
	<circle cx="370.527" cy="315.665" r="1" fill="rgb(0,0,0)" />
	<circle cx="370.736" cy="218.926" r="1" fill="rgb(0,0,0)" />
	<circle cx="372.199" cy="413.7" r="1" fill="rgb(0,0,0)" />
	<circle cx="373.202" cy="115.79" r="1" fill="rgb(0,0,0)" />
	<circle cx="373.913" cy="830.004" r="1" fill="rgb(0,0,0)" />
	<circle cx="376.129" cy="698.859" r="1" fill="rgb(0,0,0)" />
	<circle cx="376.296" cy="370.974" r="1" fill="rgb(0,0,0)" />
	<circle cx="377.007" cy="145.514" r="1" fill="rgb(0,0,0)" />
	<circle cx="378.219" cy="271.643" r="1" fill="rgb(0,0,0)" />
	<circle cx="379.181" cy="547.27" r="1" fill="rgb(0,0,0)" />
	<circle cx="379.515" cy="941.668" r="1" fill="rgb(0,0,0)" />
	<circle cx="380.56" cy="510.773" r="1" fill="rgb(0,0,0)" />
	<circle cx="381.145" cy="309.979" r="1" fill="rgb(0,0,0)" />
	<circle cx="382.274" cy="82.847" r="1" fill="rgb(0,0,0)" />
	<circle cx="384.197" cy="969.72" r="1" fill="rgb(0,0,0)" />
	<circle cx="384.239" cy="973.482" r="1" fill="rgb(0,0,0)" />
	<circle cx="385.326" cy="795.849" r="1" fill="rgb(0,0,0)" />
	<circle cx="386.915" cy="399.611" r="1" fill="rgb(0,0,0)" />
	<circle cx="388.754" cy="560.355" r="1" fill="rgb(0,0,0)" />
	<circle cx="389.423" cy="921.643" r="1" fill="rgb(0,0,0)" />
	<circle cx="389.507" cy="602.412" r="1" fill="rgb(0,0,0)" />
	<circle cx="389.883" cy="552.245" r="1" fill="rgb(0,0,0)" />
	<circle cx="391.806" cy="523.524" r="1" fill="rgb(0,0,0)" />
	<circle cx="392.433" cy="725.74" r="1" fill="rgb(0,0,0)" />
	<circle cx="392.642" cy="673.399" r="1" fill="rgb(0,0,0)" />
	<circle cx="393.102" cy="110.355" r="1" fill="rgb(0,0,0)" />
	<circle cx="393.938" cy="90.163" r="1" fill="rgb(0,0,0)" />
	<circle cx="394.732" cy="950.196" r="1" fill="rgb(0,0,0)" />
	<circle cx="394.774" cy="470.096" r="1" fill="rgb(0,0,0)" />
	<circle cx="395.569" cy="1024.61" r="1" fill="rgb(0,0,0)" />
	<circle cx="398.161" cy="529.795" r="1" fill="rgb(0,0,0)" />
	<circle cx="399.038" cy="320.222" r="1" fill="rgb(0,0,0)" />
	<circle cx="401.171" cy="845.723" r="1" fill="rgb(0,0,0)" />
	<circle cx="401.463" cy="338.324" r="1" fill="rgb(0,0,0)" />
	<circle cx="402.132" cy="357.304" r="1" fill="rgb(0,0,0)" />
	<circle cx="402.801" cy="160.857" r="1" fill="rgb(0,0,0)" />
	<circle cx="407.985" cy="848.482" r="1" fill="rgb(0,0,0)" />
	<circle cx="408.821" cy="725.113" r="1" fill="rgb(0,0,0)" />
	<circle cx="409.197" cy="869.135" r="1" fill="rgb(0,0,0)" />
	<circle cx="409.49" cy="243.089" r="1" fill="rgb(0,0,0)" />
	<circle cx="411.664" cy="490.957" r="1" fill="rgb(0,0,0)" />
	<circle cx="413.253" cy="315.121" r="1" fill="rgb(0,0,0)" />
	<circle cx="413.671" cy="157.22" r="1" fill="rgb(0,0,0)" />
	<circle cx="414.13" cy="773.65" r="1" fill="rgb(0,0,0)" />
	<circle cx="415.05" cy="781.885" r="1" fill="rgb(0,0,0)" />
	<circle cx="416.137" cy="1047.81" r="1" fill="rgb(0,0,0)" />
	<circle cx="417.977" cy="108.181" r="1" fill="rgb(0,0,0)" />
	<circle cx="418.102" cy="817.128" r="1" fill="rgb(0,0,0)" />
	<circle cx="419.565" cy="501.66" r="1" fill="rgb(0,0,0)" />
	<circle cx="421.865" cy="704.377" r="1" fill="rgb(0,0,0)" />
	<circle cx="422.826" cy="445.472" r="1" fill="rgb(0,0,0)" />
	<circle cx="423.662" cy="924.653" r="1" fill="rgb(0,0,0)" />
	<circle cx="423.788" cy="649.653" r="1" fill="rgb(0,0,0)" />
	<circle cx="424.122" cy="665.414" r="1" fill="rgb(0,0,0)" />
	<circle cx="424.289" cy="487.613" r="1" fill="rgb(0,0,0)" />
	<circle cx="426.505" cy="283.767" r="1" fill="rgb(0,0,0)" />
	<circle cx="427.55" cy="1002.45" r="1" fill="rgb(0,0,0)" />
	<circle cx="428.679" cy="587.237" r="1" fill="rgb(0,0,0)" />
	<circle cx="431.773" cy="791.208" r="1" fill="rgb(0,0,0)" />
	<circle cx="432.609" cy="789.243" r="1" fill="rgb(0,0,0)" />
	<circle cx="432.692" cy="761.275" r="1" fill="rgb(0,0,0)" />
	<circle cx="434.323" cy="673.148" r="1" fill="rgb(0,0,0)" />
	<circle cx="437.082" cy="1027.08" r="1" fill="rgb(0,0,0)" />
	<circle cx="438.378" cy="374.36" r="1" fill="rgb(0,0,0)" />
	<circle cx="441.806" cy="586.401" r="1" fill="rgb(0,0,0)" />
	<circle cx="442.433" cy="395.347" r="1" fill="rgb(0,0,0)" />
	<circle cx="442.935" cy="536.568" r="1" fill="rgb(0,0,0)" />
	<circle cx="443.562" cy="137.822" r="1" fill="rgb(0,0,0)" />
	<circle cx="444.816" cy="847.479" r="1" fill="rgb(0,0,0)" />
	<circle cx="446.028" cy="862.069" r="1" fill="rgb(0,0,0)" />
	<circle cx="448.202" cy="187.78" r="1" fill="rgb(0,0,0)" />
	<circle cx="450.418" cy="477.872" r="1" fill="rgb(0,0,0)" />
	<circle cx="451.212" cy="295.765" r="1" fill="rgb(0,0,0)" />
	<circle cx="453.01" cy="988.156" r="1" fill="rgb(0,0,0)" />
	<circle cx="453.303" cy="53.4156" r="1" fill="rgb(0,0,0)" />
	<circle cx="453.554" cy="524.444" r="1" fill="rgb(0,0,0)" />
	<circle cx="454.808" cy="716.626" r="1" fill="rgb(0,0,0)" />
	<circle cx="456.731" cy="57.4289" r="1" fill="rgb(0,0,0)" />
	<circle cx="456.856" cy="747.019" r="1" fill="rgb(0,0,0)" />
	<circle cx="461.789" cy="1036.99" r="1" fill="rgb(0,0,0)" />
	<circle cx="463.462" cy="556.133" r="1" fill="rgb(0,0,0)" />
	<circle cx="464.256" cy="979.461" r="1" fill="rgb(0,0,0)" />
	<circle cx="464.674" cy="315.414" r="1" fill="rgb(0,0,0)" />
	<circle cx="466.137" cy="1027.79" r="1" fill="rgb(0,0,0)" />
	<circle cx="466.89" cy="757.094" r="1" fill="rgb(0,0,0)" />
	<circle cx="469.273" cy="657.513" r="1" fill="rgb(0,0,0)" />
	<circle cx="473.244" cy="821.601" r="1" fill="rgb(0,0,0)" />
	<circle cx="473.537" cy="949.36" r="1" fill="rgb(0,0,0)" />
	<circle cx="473.579" cy="897.605" r="1" fill="rgb(0,0,0)" />
	<circle cx="475.669" cy="287.822" r="1" fill="rgb(0,0,0)" />
	<circle cx="476.003" cy="112.613" r="1" fill="rgb(0,0,0)" />
	<circle cx="476.463" cy="703.039" r="1" fill="rgb(0,0,0)" />
	<circle cx="477.885" cy="545.431" r="1" fill="rgb(0,0,0)" />
	<circle cx="478.428" cy="1013.16" r="1" fill="rgb(0,0,0)" />
	<circle cx="479.849" cy="55.7567" r="1" fill="rgb(0,0,0)" />
	<circle cx="483.069" cy="719.762" r="1" fill="rgb(0,0,0)" />
	<circle cx="484.406" cy="389.494" r="1" fill="rgb(0,0,0)" />
	<circle cx="484.532" cy="328.039" r="1" fill="rgb(0,0,0)" />
	<circle cx="485.075" cy="363.574" r="1" fill="rgb(0,0,0)" />
	<circle cx="486.455" cy="66.041" r="1" fill="rgb(0,0,0)" />
	<circle cx="487.082" cy="706.927" r="1" fill="rgb(0,0,0)" />
	<circle cx="487.249" cy="265.623" r="1" fill="rgb(0,0,0)" />
	<circle cx="489.047" cy="486.986" r="1" fill="rgb(0,0,0)" />
	<circle cx="489.214" cy="323.19" r="1" fill="rgb(0,0,0)" />
	<circle cx="490.176" cy="226.869" r="1" fill="rgb(0,0,0)" />
	<circle cx="490.844" cy="200.991" r="1" fill="rgb(0,0,0)" />
	<circle cx="493.102" cy="636.944" r="1" fill="rgb(0,0,0)" />
	<circle cx="493.227" cy="533.599" r="1" fill="rgb(0,0,0)" />
	<circle cx="494.314" cy="798.023" r="1" fill="rgb(0,0,0)" />
	<circle cx="494.9" cy="613.449" r="1" fill="rgb(0,0,0)" />
	<circle cx="496.279" cy="192.588" r="1" fill="rgb(0,0,0)" />
	<circle cx="497.701" cy="938.491" r="1" fill="rgb(0,0,0)" />
	<circle cx="497.742" cy="1042.63" r="1" fill="rgb(0,0,0)" />
	<circle cx="498.579" cy="389.578" r="1" fill="rgb(0,0,0)" />
	<circle cx="499.498" cy="818.508" r="1" fill="rgb(0,0,0)" />
	<circle cx="500.125" cy="695.18" r="1" fill="rgb(0,0,0)" />
	<circle cx="500.711" cy="1042.76" r="1" fill="rgb(0,0,0)" />
	<circle cx="502.717" cy="311.024" r="1" fill="rgb(0,0,0)" />
	<circle cx="504.473" cy="924.611" r="1" fill="rgb(0,0,0)" />
	<circle cx="505.017" cy="580.339" r="1" fill="rgb(0,0,0)" />
	<circle cx="505.184" cy="207.805" r="1" fill="rgb(0,0,0)" />
	<circle cx="506.145" cy="410.857" r="1" fill="rgb(0,0,0)" />
	<circle cx="506.647" cy="813.156" r="1" fill="rgb(0,0,0)" />
	<circle cx="510.242" cy="515.79" r="1" fill="rgb(0,0,0)" />
	<circle cx="512.5" cy="536.108" r="1" fill="rgb(0,0,0)" />
	<circle cx="514.172" cy="115.539" r="1" fill="rgb(0,0,0)" />
	<circle cx="514.716" cy="895.222" r="1" fill="rgb(0,0,0)" />
	<circle cx="515.301" cy="535.982" r="1" fill="rgb(0,0,0)" />
	<circle cx="515.928" cy="555.924" r="1" fill="rgb(0,0,0)" />
	<circle cx="519.9" cy="397.103" r="1" fill="rgb(0,0,0)" />
	<circle cx="520.276" cy="810.314" r="1" fill="rgb(0,0,0)" />
	<circle cx="524.582" cy="941.877" r="1" fill="rgb(0,0,0)" />
	<circle cx="524.624" cy="276.827" r="1" fill="rgb(0,0,0)" />
	<circle cx="524.875" cy="94.051" r="1" fill="rgb(0,0,0)" />
	<circle cx="524.916" cy="731.718" r="1" fill="rgb(0,0,0)" />
	<circle cx="524.958" cy="363.282" r="1" fill="rgb(0,0,0)" />
	<circle cx="525.293" cy="151.116" r="1" fill="rgb(0,0,0)" />
	<circle cx="525.962" cy="681.175" r="1" fill="rgb(0,0,0)" />
	<circle cx="526.421" cy="842.964" r="1" fill="rgb(0,0,0)" />
	<circle cx="526.547" cy="963.324" r="1" fill="rgb(0,0,0)" />
	<circle cx="530.56" cy="101.994" r="1" fill="rgb(0,0,0)" />
	<circle cx="530.769" cy="821.81" r="1" fill="rgb(0,0,0)" />
	<circle cx="532.441" cy="969.218" r="1" fill="rgb(0,0,0)" />
	<circle cx="533.027" cy="620.222" r="1" fill="rgb(0,0,0)" />
	<circle cx="533.069" cy="359.394" r="1" fill="rgb(0,0,0)" />
	<circle cx="533.11" cy="823.524" r="1" fill="rgb(0,0,0)" />
	<circle cx="541.012" cy="862.696" r="1" fill="rgb(0,0,0)" />
	<circle cx="541.639" cy="184.645" r="1" fill="rgb(0,0,0)" />
	<circle cx="541.639" cy="165.372" r="1" fill="rgb(0,0,0)" />
	<circle cx="542.391" cy="464.787" r="1" fill="rgb(0,0,0)" />
	<circle cx="544.565" cy="769.72" r="1" fill="rgb(0,0,0)" />
	<circle cx="545.318" cy="304.043" r="1" fill="rgb(0,0,0)" />
	<circle cx="545.36" cy="965.205" r="1" fill="rgb(0,0,0)" />
	<circle cx="545.443" cy="559.059" r="1" fill="rgb(0,0,0)" />
	<circle cx="545.736" cy="893.8" r="1" fill="rgb(0,0,0)" />
	<circle cx="546.07" cy="51.3671" r="1" fill="rgb(0,0,0)" />
	<circle cx="546.321" cy="617.964" r="1" fill="rgb(0,0,0)" />
	<circle cx="546.614" cy="286.275" r="1" fill="rgb(0,0,0)" />
	<circle cx="547.074" cy="689.202" r="1" fill="rgb(0,0,0)" />
	<circle cx="548.035" cy="755.13" r="1" fill="rgb(0,0,0)" />
	<circle cx="549.707" cy="824.987" r="1" fill="rgb(0,0,0)" />
	<circle cx="551.505" cy="341.459" r="1" fill="rgb(0,0,0)" />
	<circle cx="551.714" cy="130.506" r="1" fill="rgb(0,0,0)" />
	<circle cx="553.888" cy="492.128" r="1" fill="rgb(0,0,0)" />
	<circle cx="557.065" cy="531.133" r="1" fill="rgb(0,0,0)" />
	<circle cx="558.612" cy="531.175" r="1" fill="rgb(0,0,0)" />
	<circle cx="560.702" cy="767.253" r="1" fill="rgb(0,0,0)" />
	<circle cx="562.458" cy="208.265" r="1" fill="rgb(0,0,0)" />
	<circle cx="562.793" cy="433.725" r="1" fill="rgb(0,0,0)" />
	<circle cx="564.632" cy="430.004" r="1" fill="rgb(0,0,0)" />
	<circle cx="566.764" cy="668.8" r="1" fill="rgb(0,0,0)" />
	<circle cx="567.057" cy="252.329" r="1" fill="rgb(0,0,0)" />
	<circle cx="567.057" cy="126.242" r="1" fill="rgb(0,0,0)" />
	<circle cx="567.893" cy="765.916" r="1" fill="rgb(0,0,0)" />
	<circle cx="568.018" cy="694.678" r="1" fill="rgb(0,0,0)" />
	<circle cx="568.018" cy="410.857" r="1" fill="rgb(0,0,0)" />
	<circle cx="568.353" cy="428.416" r="1" fill="rgb(0,0,0)" />
	<circle cx="569.356" cy="602.454" r="1" fill="rgb(0,0,0)" />
	<circle cx="569.858" cy="575.322" r="1" fill="rgb(0,0,0)" />
	<circle cx="570.694" cy="620.974" r="1" fill="rgb(0,0,0)" />
	<circle cx="573.913" cy="573.817" r="1" fill="rgb(0,0,0)" />
	<circle cx="579.222" cy="369.971" r="1" fill="rgb(0,0,0)" />
	<circle cx="579.431" cy="240.874" r="1" fill="rgb(0,0,0)" />
	<circle cx="579.557" cy="231.384" r="1" fill="rgb(0,0,0)" />
	<circle cx="580.727" cy="492.671" r="1" fill="rgb(0,0,0)" />
	<circle cx="583.236" cy="933.725" r="1" fill="rgb(0,0,0)" />
	<circle cx="584.49" cy="743.842" r="1" fill="rgb(0,0,0)" />
	<circle cx="586.204" cy="112.487" r="1" fill="rgb(0,0,0)" />
	<circle cx="587.082" cy="853.457" r="1" fill="rgb(0,0,0)" />
	<circle cx="588.754" cy="377.956" r="1" fill="rgb(0,0,0)" />
	<circle cx="589.214" cy="1011.02" r="1" fill="rgb(0,0,0)" />
	<circle cx="590.635" cy="78.2901" r="1" fill="rgb(0,0,0)" />
	<circle cx="592.224" cy="74.653" r="1" fill="rgb(0,0,0)" />
	<circle cx="593.645" cy="645.472" r="1" fill="rgb(0,0,0)" />
	<circle cx="593.855" cy="313.825" r="1" fill="rgb(0,0,0)" />
	<circle cx="594.356" cy="287.906" r="1" fill="rgb(0,0,0)" />
	<circle cx="594.9" cy="1033.43" r="1" fill="rgb(0,0,0)" />
	<circle cx="596.99" cy="244.594" r="1" fill="rgb(0,0,0)" />
	<circle cx="598.746" cy="271.434" r="1" fill="rgb(0,0,0)" />
	<circle cx="599.289" cy="518.591" r="1" fill="rgb(0,0,0)" />
	<circle cx="600.585" cy="323.023" r="1" fill="rgb(0,0,0)" />
	<circle cx="601.045" cy="988.825" r="1" fill="rgb(0,0,0)" />
	<circle cx="604.097" cy="925.113" r="1" fill="rgb(0,0,0)" />
	<circle cx="604.808" cy="914.076" r="1" fill="rgb(0,0,0)" />
	<circle cx="608.027" cy="419.218" r="1" fill="rgb(0,0,0)" />
	<circle cx="608.403" cy="661.735" r="1" fill="rgb(0,0,0)" />
	<circle cx="610.535" cy="762.069" r="1" fill="rgb(0,0,0)" />
	<circle cx="611.747" cy="272.354" r="1" fill="rgb(0,0,0)" />
	<circle cx="612.375" cy="616.375" r="1" fill="rgb(0,0,0)" />
	<circle cx="613.336" cy="189.912" r="1" fill="rgb(0,0,0)" />
	<circle cx="614.381" cy="1038.7" r="1" fill="rgb(0,0,0)" />
	<circle cx="616.388" cy="998.399" r="1" fill="rgb(0,0,0)" />
	<circle cx="616.555" cy="948.441" r="1" fill="rgb(0,0,0)" />
	<circle cx="617.684" cy="950.447" r="1" fill="rgb(0,0,0)" />
	<circle cx="617.684" cy="884.436" r="1" fill="rgb(0,0,0)" />
	<circle cx="618.562" cy="889.912" r="1" fill="rgb(0,0,0)" />
	<circle cx="619.022" cy="167.588" r="1" fill="rgb(0,0,0)" />
	<circle cx="620.36" cy="632.68" r="1" fill="rgb(0,0,0)" />
	<circle cx="620.652" cy="772.73" r="1" fill="rgb(0,0,0)" />
	<circle cx="622.659" cy="1037.07" r="1" fill="rgb(0,0,0)" />
	<circle cx="622.868" cy="64.8704" r="1" fill="rgb(0,0,0)" />
	<circle cx="624.582" cy="540.748" r="1" fill="rgb(0,0,0)" />
	<circle cx="625.042" cy="326.325" r="1" fill="rgb(0,0,0)" />
	<circle cx="626.129" cy="952.663" r="1" fill="rgb(0,0,0)" />
	<circle cx="626.171" cy="1042.84" r="1" fill="rgb(0,0,0)" />
	<circle cx="626.296" cy="780.339" r="1" fill="rgb(0,0,0)" />
	<circle cx="628.512" cy="674.695" r="1" fill="rgb(0,0,0)" />
	<circle cx="628.888" cy="431.3" r="1" fill="rgb(0,0,0)" />
	<circle cx="629.139" cy="172.981" r="1" fill="rgb(0,0,0)" />
	<circle cx="629.515" cy="277.872" r="1" fill="rgb(0,0,0)" />
	<circle cx="630.184" cy="682.722" r="1" fill="rgb(0,0,0)" />
	<circle cx="630.769" cy="942.003" r="1" fill="rgb(0,0,0)" />
	<circle cx="634.03" cy="1017.92" r="1" fill="rgb(0,0,0)" />
	<circle cx="634.03" cy="66.459" r="1" fill="rgb(0,0,0)" />
	<circle cx="635.953" cy="543.633" r="1" fill="rgb(0,0,0)" />
	<circle cx="640.301" cy="786.86" r="1" fill="rgb(0,0,0)" />
	<circle cx="641.848" cy="709.059" r="1" fill="rgb(0,0,0)" />
	<circle cx="643.645" cy="150.406" r="1" fill="rgb(0,0,0)" />
	<circle cx="644.649" cy="277.747" r="1" fill="rgb(0,0,0)" />
	<circle cx="644.732" cy="467.462" r="1" fill="rgb(0,0,0)" />
	<circle cx="644.9" cy="842.421" r="1" fill="rgb(0,0,0)" />
	<circle cx="645.945" cy="453.959" r="1" fill="rgb(0,0,0)" />
	<circle cx="647.115" cy="698.19" r="1" fill="rgb(0,0,0)" />
	<circle cx="648.746" cy="390.414" r="1" fill="rgb(0,0,0)" />
	<circle cx="650.334" cy="127.078" r="1" fill="rgb(0,0,0)" />
	<circle cx="650.711" cy="988.742" r="1" fill="rgb(0,0,0)" />
	<circle cx="651.38" cy="1001.95" r="1" fill="rgb(0,0,0)" />
	<circle cx="652.007" cy="185.021" r="1" fill="rgb(0,0,0)" />
	<circle cx="652.09" cy="278.708" r="1" fill="rgb(0,0,0)" />
	<circle cx="652.55" cy="243.173" r="1" fill="rgb(0,0,0)" />
	<circle cx="653.135" cy="166.793" r="1" fill="rgb(0,0,0)" />
	<circle cx="653.554" cy="608.307" r="1" fill="rgb(0,0,0)" />
	<circle cx="659.156" cy="958.474" r="1" fill="rgb(0,0,0)" />
	<circle cx="659.699" cy="723.064" r="1" fill="rgb(0,0,0)" />
	<circle cx="659.783" cy="1043.84" r="1" fill="rgb(0,0,0)" />
	<circle cx="660.368" cy="598.859" r="1" fill="rgb(0,0,0)" />
	<circle cx="662.751" cy="985.69" r="1" fill="rgb(0,0,0)" />
	<circle cx="668.436" cy="965.247" r="1" fill="rgb(0,0,0)" />
	<circle cx="669.523" cy="233.85" r="1" fill="rgb(0,0,0)" />
	<circle cx="670.025" cy="756.3" r="1" fill="rgb(0,0,0)" />
	<circle cx="672.241" cy="774.193" r="1" fill="rgb(0,0,0)" />
	<circle cx="672.408" cy="280.255" r="1" fill="rgb(0,0,0)" />
	<circle cx="676.212" cy="305.213" r="1" fill="rgb(0,0,0)" />
	<circle cx="676.38" cy="549.569" r="1" fill="rgb(0,0,0)" />
	<circle cx="682.818" cy="744.176" r="1" fill="rgb(0,0,0)" />
	<circle cx="683.946" cy="522.772" r="1" fill="rgb(0,0,0)" />
	<circle cx="685.744" cy="70.3052" r="1" fill="rgb(0,0,0)" />
	<circle cx="685.87" cy="725.573" r="1" fill="rgb(0,0,0)" />
	<circle cx="686.915" cy="613.073" r="1" fill="rgb(0,0,0)" />
	<circle cx="688.503" cy="985.272" r="1" fill="rgb(0,0,0)" />
	<circle cx="689.465" cy="886.944" r="1" fill="rgb(0,0,0)" />
	<circle cx="690.719" cy="553.29" r="1" fill="rgb(0,0,0)" />
	<circle cx="691.513" cy="1007.51" r="1" fill="rgb(0,0,0)" />
	<circle cx="691.764" cy="783.14" r="1" fill="rgb(0,0,0)" />
	<circle cx="692.893" cy="690.456" r="1" fill="rgb(0,0,0)" />
	<circle cx="692.935" cy="491.752" r="1" fill="rgb(0,0,0)" />
	<circle cx="693.06" cy="972.019" r="1" fill="rgb(0,0,0)" />
	<circle cx="693.855" cy="657.931" r="1" fill="rgb(0,0,0)" />
	<circle cx="694.691" cy="533.474" r="1" fill="rgb(0,0,0)" />
	<circle cx="696.948" cy="734.519" r="1" fill="rgb(0,0,0)" />
	<circle cx="697.157" cy="264.578" r="1" fill="rgb(0,0,0)" />
	<circle cx="698.788" cy="117.337" r="1" fill="rgb(0,0,0)" />
	<circle cx="700.042" cy="654.67" r="1" fill="rgb(0,0,0)" />
	<circle cx="702.717" cy="762.906" r="1" fill="rgb(0,0,0)" />
	<circle cx="703.679" cy="662.362" r="1" fill="rgb(0,0,0)" />
	<circle cx="705.686" cy="431.802" r="1" fill="rgb(0,0,0)" />
	<circle cx="710.368" cy="957.763" r="1" fill="rgb(0,0,0)" />
	<circle cx="711.413" cy="535.648" r="1" fill="rgb(0,0,0)" />
	<circle cx="712.751" cy="1048.23" r="1" fill="rgb(0,0,0)" />
	<circle cx="714.13" cy="224.904" r="1" fill="rgb(0,0,0)" />
	<circle cx="715.134" cy="751.702" r="1" fill="rgb(0,0,0)" />
	<circle cx="715.176" cy="379.001" r="1" fill="rgb(0,0,0)" />
	<circle cx="715.426" cy="403.875" r="1" fill="rgb(0,0,0)" />
	<circle cx="717.433" cy="511.86" r="1" fill="rgb(0,0,0)" />
	<circle cx="718.436" cy="911.902" r="1" fill="rgb(0,0,0)" />
	<circle cx="719.064" cy="864.243" r="1" fill="rgb(0,0,0)" />
	<circle cx="719.44" cy="241.501" r="1" fill="rgb(0,0,0)" />
	<circle cx="721.321" cy="543.926" r="1" fill="rgb(0,0,0)" />
	<circle cx="722.366" cy="275.615" r="1" fill="rgb(0,0,0)" />
	<circle cx="723.62" cy="65.4139" r="1" fill="rgb(0,0,0)" />
	<circle cx="723.871" cy="371.476" r="1" fill="rgb(0,0,0)" />
	<circle cx="724.958" cy="587.864" r="1" fill="rgb(0,0,0)" />
	<circle cx="725.167" cy="394.887" r="1" fill="rgb(0,0,0)" />
	<circle cx="726.756" cy="912.947" r="1" fill="rgb(0,0,0)" />
	<circle cx="728.052" cy="220.514" r="1" fill="rgb(0,0,0)" />
	<circle cx="728.595" cy="935.314" r="1" fill="rgb(0,0,0)" />
	<circle cx="731.438" cy="720.64" r="1" fill="rgb(0,0,0)" />
	<circle cx="732.86" cy="236.61" r="1" fill="rgb(0,0,0)" />
	<circle cx="732.985" cy="1013.28" r="1" fill="rgb(0,0,0)" />
	<circle cx="736.162" cy="681.676" r="1" fill="rgb(0,0,0)" />
	<circle cx="736.706" cy="944.385" r="1" fill="rgb(0,0,0)" />
	<circle cx="737.333" cy="331.091" r="1" fill="rgb(0,0,0)" />
	<circle cx="739.005" cy="433.223" r="1" fill="rgb(0,0,0)" />
	<circle cx="739.381" cy="751.2" r="1" fill="rgb(0,0,0)" />
	<circle cx="740.176" cy="689.996" r="1" fill="rgb(0,0,0)" />
	<circle cx="740.343" cy="947.019" r="1" fill="rgb(0,0,0)" />
	<circle cx="740.844" cy="482.554" r="1" fill="rgb(0,0,0)" />
	<circle cx="741.054" cy="819.218" r="1" fill="rgb(0,0,0)" />
	<circle cx="742.809" cy="427.161" r="1" fill="rgb(0,0,0)" />
	<circle cx="745.819" cy="887.069" r="1" fill="rgb(0,0,0)" />
	<circle cx="745.987" cy="438.867" r="1" fill="rgb(0,0,0)" />
	<circle cx="746.697" cy="126.158" r="1" fill="rgb(0,0,0)" />
	<circle cx="746.906" cy="922.228" r="1" fill="rgb(0,0,0)" />
	<circle cx="747.366" cy="968.215" r="1" fill="rgb(0,0,0)" />
	<circle cx="747.826" cy="940.079" r="1" fill="rgb(0,0,0)" />
	<circle cx="747.952" cy="696.643" r="1" fill="rgb(0,0,0)" />
	<circle cx="747.993" cy="435.021" r="1" fill="rgb(0,0,0)" />
	<circle cx="749.707" cy="707.513" r="1" fill="rgb(0,0,0)" />
	<circle cx="750.125" cy="919.26" r="1" fill="rgb(0,0,0)" />
	<circle cx="750.167" cy="396.81" r="1" fill="rgb(0,0,0)" />
	<circle cx="750.543" cy="1001.49" r="1" fill="rgb(0,0,0)" />
	<circle cx="750.962" cy="1018.84" r="1" fill="rgb(0,0,0)" />
	<circle cx="753.135" cy="655.422" r="1" fill="rgb(0,0,0)" />
	<circle cx="754.724" cy="906.927" r="1" fill="rgb(0,0,0)" />
	<circle cx="756.145" cy="729.126" r="1" fill="rgb(0,0,0)" />
	<circle cx="756.271" cy="856.175" r="1" fill="rgb(0,0,0)" />
	<circle cx="756.564" cy="267.88" r="1" fill="rgb(0,0,0)" />
	<circle cx="757.149" cy="92.0025" r="1" fill="rgb(0,0,0)" />
	<circle cx="758.069" cy="571.225" r="1" fill="rgb(0,0,0)" />
	<circle cx="758.654" cy="71.0159" r="1" fill="rgb(0,0,0)" />
	<circle cx="760.452" cy="294.929" r="1" fill="rgb(0,0,0)" />
	<circle cx="760.87" cy="233.516" r="1" fill="rgb(0,0,0)" />
	<circle cx="760.911" cy="412.571" r="1" fill="rgb(0,0,0)" />
	<circle cx="762.918" cy="560.899" r="1" fill="rgb(0,0,0)" />
	<circle cx="764.047" cy="170.18" r="1" fill="rgb(0,0,0)" />
	<circle cx="764.967" cy="1006.84" r="1" fill="rgb(0,0,0)" />
	<circle cx="765.092" cy="825.531" r="1" fill="rgb(0,0,0)" />
	<circle cx="765.719" cy="1005.76" r="1" fill="rgb(0,0,0)" />
	<circle cx="765.761" cy="640.581" r="1" fill="rgb(0,0,0)" />
	<circle cx="766.555" cy="913.783" r="1" fill="rgb(0,0,0)" />
	<circle cx="767.433" cy="618.298" r="1" fill="rgb(0,0,0)" />
	<circle cx="770.527" cy="470.431" r="1" fill="rgb(0,0,0)" />
	<circle cx="770.694" cy="344.302" r="1" fill="rgb(0,0,0)" />
	<circle cx="771.154" cy="367.671" r="1" fill="rgb(0,0,0)" />
	<circle cx="771.53" cy="705.506" r="1" fill="rgb(0,0,0)" />
	<circle cx="772.868" cy="114.536" r="1" fill="rgb(0,0,0)" />
	<circle cx="773.37" cy="775.489" r="1" fill="rgb(0,0,0)" />
	<circle cx="775.627" cy="454.461" r="1" fill="rgb(0,0,0)" />
	<circle cx="775.836" cy="843.048" r="1" fill="rgb(0,0,0)" />
	<circle cx="776.045" cy="250.531" r="1" fill="rgb(0,0,0)" />
	<circle cx="779.473" cy="477.83" r="1" fill="rgb(0,0,0)" />
	<circle cx="784.323" cy="1048.19" r="1" fill="rgb(0,0,0)" />
	<circle cx="784.824" cy="730.924" r="1" fill="rgb(0,0,0)" />
	<circle cx="785.201" cy="175.28" r="1" fill="rgb(0,0,0)" />
	<circle cx="786.204" cy="158.056" r="1" fill="rgb(0,0,0)" />
	<circle cx="787.625" cy="1015.83" r="1" fill="rgb(0,0,0)" />
	<circle cx="788.712" cy="133.432" r="1" fill="rgb(0,0,0)" />
	<circle cx="788.88" cy="479.544" r="1" fill="rgb(0,0,0)" />
	<circle cx="790.51" cy="439.912" r="1" fill="rgb(0,0,0)" />
	<circle cx="793.98" cy="517.713" r="1" fill="rgb(0,0,0)" />
	<circle cx="794.064" cy="376.033" r="1" fill="rgb(0,0,0)" />
	<circle cx="796.196" cy="177.329" r="1" fill="rgb(0,0,0)" />
	<circle cx="797.91" cy="841.835" r="1" fill="rgb(0,0,0)" />
	<circle cx="801.63" cy="591.584" r="1" fill="rgb(0,0,0)" />
	<circle cx="801.63" cy="54.5861" r="1" fill="rgb(0,0,0)" />
	<circle cx="802.676" cy="361.108" r="1" fill="rgb(0,0,0)" />
	<circle cx="803.01" cy="390.038" r="1" fill="rgb(0,0,0)" />
	<circle cx="803.052" cy="128.123" r="1" fill="rgb(0,0,0)" />
	<circle cx="804.849" cy="324.486" r="1" fill="rgb(0,0,0)" />
	<circle cx="806.438" cy="1013.57" r="1" fill="rgb(0,0,0)" />
	<circle cx="807.818" cy="55.7985" r="1" fill="rgb(0,0,0)" />
	<circle cx="810.535" cy="91.8353" r="1" fill="rgb(0,0,0)" />
	<circle cx="810.786" cy="591.919" r="1" fill="rgb(0,0,0)" />
	<circle cx="811.079" cy="648.315" r="1" fill="rgb(0,0,0)" />
	<circle cx="811.204" cy="353.248" r="1" fill="rgb(0,0,0)" />
	<circle cx="812.542" cy="553.332" r="1" fill="rgb(0,0,0)" />
	<circle cx="816.806" cy="691.501" r="1" fill="rgb(0,0,0)" />
	<circle cx="817.809" cy="751.994" r="1" fill="rgb(0,0,0)" />
	<circle cx="817.809" cy="528.039" r="1" fill="rgb(0,0,0)" />
	<circle cx="817.935" cy="760.982" r="1" fill="rgb(0,0,0)" />
	<circle cx="818.645" cy="698.399" r="1" fill="rgb(0,0,0)" />
	<circle cx="822.366" cy="644.344" r="1" fill="rgb(0,0,0)" />
	<circle cx="822.533" cy="824.904" r="1" fill="rgb(0,0,0)" />
	<circle cx="823.119" cy="443.215" r="1" fill="rgb(0,0,0)" />
	<circle cx="825.209" cy="757.889" r="1" fill="rgb(0,0,0)" />
	<circle cx="827.508" cy="199.904" r="1" fill="rgb(0,0,0)" />
	<circle cx="828.177" cy="416.584" r="1" fill="rgb(0,0,0)" />
	<circle cx="831.438" cy="626.827" r="1" fill="rgb(0,0,0)" />
	<circle cx="833.696" cy="544.344" r="1" fill="rgb(0,0,0)" />
	<circle cx="835.159" cy="497.605" r="1" fill="rgb(0,0,0)" />
	<circle cx="836.915" cy="936.024" r="1" fill="rgb(0,0,0)" />
	<circle cx="836.915" cy="174.068" r="1" fill="rgb(0,0,0)" />
	<circle cx="837.207" cy="539.954" r="1" fill="rgb(0,0,0)" />
	<circle cx="841.931" cy="713.031" r="1" fill="rgb(0,0,0)" />
	<circle cx="842.14" cy="292.462" r="1" fill="rgb(0,0,0)" />
	<circle cx="843.227" cy="776.994" r="1" fill="rgb(0,0,0)" />
	<circle cx="843.353" cy="191.459" r="1" fill="rgb(0,0,0)" />
	<circle cx="843.813" cy="422.228" r="1" fill="rgb(0,0,0)" />
	<circle cx="844.482" cy="913.616" r="1" fill="rgb(0,0,0)" />
	<circle cx="847.701" cy="383.307" r="1" fill="rgb(0,0,0)" />
	<circle cx="847.868" cy="50.6145" r="1" fill="rgb(0,0,0)" />
	<circle cx="850.334" cy="335.146" r="1" fill="rgb(0,0,0)" />
	<circle cx="850.585" cy="650.615" r="1" fill="rgb(0,0,0)" />
	<circle cx="852.383" cy="117.713" r="1" fill="rgb(0,0,0)" />
	<circle cx="852.885" cy="176.952" r="1" fill="rgb(0,0,0)" />
	<circle cx="853.303" cy="166.835" r="1" fill="rgb(0,0,0)" />
	<circle cx="853.386" cy="285.606" r="1" fill="rgb(0,0,0)" />
	<circle cx="854.766" cy="470.723" r="1" fill="rgb(0,0,0)" />
	<circle cx="854.891" cy="384.937" r="1" fill="rgb(0,0,0)" />
	<circle cx="857.483" cy="234.143" r="1" fill="rgb(0,0,0)" />
	<circle cx="858.779" cy="848.023" r="1" fill="rgb(0,0,0)" />
	<circle cx="859.197" cy="1009.56" r="1" fill="rgb(0,0,0)" />
	<circle cx="861.162" cy="898.817" r="1" fill="rgb(0,0,0)" />
	<circle cx="861.957" cy="976.158" r="1" fill="rgb(0,0,0)" />
	<circle cx="865.217" cy="137.028" r="1" fill="rgb(0,0,0)" />
	<circle cx="865.301" cy="786.401" r="1" fill="rgb(0,0,0)" />
	<circle cx="865.468" cy="312.696" r="1" fill="rgb(0,0,0)" />
	<circle cx="865.803" cy="775.782" r="1" fill="rgb(0,0,0)" />
	<circle cx="866.304" cy="56.1329" r="1" fill="rgb(0,0,0)" />
	<circle cx="866.639" cy="978.583" r="1" fill="rgb(0,0,0)" />
	<circle cx="867.308" cy="477.538" r="1" fill="rgb(0,0,0)" />
	<circle cx="867.391" cy="1021.06" r="1" fill="rgb(0,0,0)" />
	<circle cx="869.356" cy="203.875" r="1" fill="rgb(0,0,0)" />
	<circle cx="871.53" cy="259.979" r="1" fill="rgb(0,0,0)" />
	<circle cx="872.199" cy="779.962" r="1" fill="rgb(0,0,0)" />
	<circle cx="872.617" cy="260.773" r="1" fill="rgb(0,0,0)" />
	<circle cx="872.701" cy="358.725" r="1" fill="rgb(0,0,0)" />
	<circle cx="872.993" cy="579.67" r="1" fill="rgb(0,0,0)" />
	<circle cx="873.579" cy="875.113" r="1" fill="rgb(0,0,0)" />
	<circle cx="875" cy="995.18" r="1" fill="rgb(0,0,0)" />
	<circle cx="878.135" cy="932.722" r="1" fill="rgb(0,0,0)" />
	<circle cx="878.804" cy="927.579" r="1" fill="rgb(0,0,0)" />
	<circle cx="878.93" cy="910.899" r="1" fill="rgb(0,0,0)" />
	<circle cx="880.226" cy="914.996" r="1" fill="rgb(0,0,0)" />
	<circle cx="880.435" cy="226.66" r="1" fill="rgb(0,0,0)" />
	<circle cx="886.873" cy="126.033" r="1" fill="rgb(0,0,0)" />
	<circle cx="890.844" cy="1013.95" r="1" fill="rgb(0,0,0)" />
	<circle cx="892.642" cy="618.006" r="1" fill="rgb(0,0,0)" />
	<circle cx="893.604" cy="54.837" r="1" fill="rgb(0,0,0)" />
	<circle cx="894.732" cy="540.497" r="1" fill="rgb(0,0,0)" />
	<circle cx="897.199" cy="920.556" r="1" fill="rgb(0,0,0)" />
	<circle cx="897.492" cy="546.559" r="1" fill="rgb(0,0,0)" />
	<circle cx="897.91" cy="619.051" r="1" fill="rgb(0,0,0)" />
	<circle cx="898.37" cy="710.439" r="1" fill="rgb(0,0,0)" />
	<circle cx="901.839" cy="467.212" r="1" fill="rgb(0,0,0)" />
	<circle cx="903.386" cy="656.593" r="1" fill="rgb(0,0,0)" />
	<circle cx="903.554" cy="848.901" r="1" fill="rgb(0,0,0)" />
	<circle cx="906.187" cy="174.737" r="1" fill="rgb(0,0,0)" />
	<circle cx="906.647" cy="268.466" r="1" fill="rgb(0,0,0)" />
	<circle cx="907.274" cy="438.24" r="1" fill="rgb(0,0,0)" />
	<circle cx="907.525" cy="407.22" r="1" fill="rgb(0,0,0)" />
	<circle cx="908.027" cy="168.215" r="1" fill="rgb(0,0,0)" />
	<circle cx="908.069" cy="765.163" r="1" fill="rgb(0,0,0)" />
	<circle cx="908.487" cy="92.755" r="1" fill="rgb(0,0,0)" />
	<circle cx="911.538" cy="234.185" r="1" fill="rgb(0,0,0)" />
	<circle cx="911.664" cy="934.645" r="1" fill="rgb(0,0,0)" />
	<circle cx="912.166" cy="664.243" r="1" fill="rgb(0,0,0)" />
	<circle cx="912.166" cy="201.325" r="1" fill="rgb(0,0,0)" />
	<circle cx="912.375" cy="528.248" r="1" fill="rgb(0,0,0)" />
	<circle cx="912.625" cy="804.712" r="1" fill="rgb(0,0,0)" />
	<circle cx="914.339" cy="470.096" r="1" fill="rgb(0,0,0)" />
	<circle cx="915.844" cy="510.815" r="1" fill="rgb(0,0,0)" />
	<circle cx="916.304" cy="942.337" r="1" fill="rgb(0,0,0)" />
	<circle cx="917.182" cy="830.673" r="1" fill="rgb(0,0,0)" />
	<circle cx="919.983" cy="283.809" r="1" fill="rgb(0,0,0)" />
	<circle cx="920.318" cy="246.183" r="1" fill="rgb(0,0,0)" />
	<circle cx="925.585" cy="570.807" r="1" fill="rgb(0,0,0)" />
	<circle cx="927.007" cy="423.942" r="1" fill="rgb(0,0,0)" />
	<circle cx="927.258" cy="533.934" r="1" fill="rgb(0,0,0)" />
	<circle cx="928.804" cy="209.77" r="1" fill="rgb(0,0,0)" />
	<circle cx="930.184" cy="818.006" r="1" fill="rgb(0,0,0)" />
	<circle cx="931.522" cy="1000.41" r="1" fill="rgb(0,0,0)" />
	<circle cx="932.692" cy="81.7182" r="1" fill="rgb(0,0,0)" />
	<circle cx="933.278" cy="482.722" r="1" fill="rgb(0,0,0)" />
	<circle cx="933.487" cy="880.13" r="1" fill="rgb(0,0,0)" />
	<circle cx="933.528" cy="474.235" r="1" fill="rgb(0,0,0)" />
	<circle cx="935.075" cy="640.79" r="1" fill="rgb(0,0,0)" />
	<circle cx="937.166" cy="729.67" r="1" fill="rgb(0,0,0)" />
	<circle cx="939.298" cy="612.153" r="1" fill="rgb(0,0,0)" />
	<circle cx="944.189" cy="469.971" r="1" fill="rgb(0,0,0)" />
	<circle cx="949.707" cy="146.35" r="1" fill="rgb(0,0,0)" />
	<circle cx="953.219" cy="875.74" r="1" fill="rgb(0,0,0)" />
	<circle cx="953.637" cy="328.625" r="1" fill="rgb(0,0,0)" />
	<circle cx="954.891" cy="764.411" r="1" fill="rgb(0,0,0)" />
	<circle cx="955.727" cy="802.12" r="1" fill="rgb(0,0,0)" />
	<circle cx="956.605" cy="744.385" r="1" fill="rgb(0,0,0)" />
	<circle cx="956.773" cy="635.69" r="1" fill="rgb(0,0,0)" />
	<circle cx="957.358" cy="639.661" r="1" fill="rgb(0,0,0)" />
	<circle cx="959.783" cy="191.083" r="1" fill="rgb(0,0,0)" />
	<circle cx="960.41" cy="775.531" r="1" fill="rgb(0,0,0)" />
	<circle cx="961.413" cy="394.051" r="1" fill="rgb(0,0,0)" />
	<circle cx="963.545" cy="349.653" r="1" fill="rgb(0,0,0)" />
	<circle cx="966.388" cy="682.262" r="1" fill="rgb(0,0,0)" />
	<circle cx="966.388" cy="52.8303" r="1" fill="rgb(0,0,0)" />
	<circle cx="967.851" cy="299.277" r="1" fill="rgb(0,0,0)" />
	<circle cx="968.395" cy="105.255" r="1" fill="rgb(0,0,0)" />
	<circle cx="970.36" cy="980.297" r="1" fill="rgb(0,0,0)" />
	<circle cx="970.694" cy="701.576" r="1" fill="rgb(0,0,0)" />
	<circle cx="972.742" cy="970.222" r="1" fill="rgb(0,0,0)" />
	<circle cx="972.742" cy="942.588" r="1" fill="rgb(0,0,0)" />
	<circle cx="973.829" cy="715.665" r="1" fill="rgb(0,0,0)" />
	<circle cx="976.672" cy="435.481" r="1" fill="rgb(0,0,0)" />
	<circle cx="978.554" cy="319.971" r="1" fill="rgb(0,0,0)" />
	<circle cx="978.846" cy="738.031" r="1" fill="rgb(0,0,0)" />
	<circle cx="978.888" cy="829.377" r="1" fill="rgb(0,0,0)" />
	<circle cx="979.013" cy="238.324" r="1" fill="rgb(0,0,0)" />
	<circle cx="979.431" cy="126.618" r="1" fill="rgb(0,0,0)" />
	<circle cx="982.776" cy="309.101" r="1" fill="rgb(0,0,0)" />
	<circle cx="983.946" cy="713.031" r="1" fill="rgb(0,0,0)" />
	<circle cx="992.433" cy="50.0293" r="1" fill="rgb(0,0,0)" />
	<circle cx="994.105" cy="57.0527" r="1" fill="rgb(0,0,0)" />
	<circle cx="995.736" cy="1025.32" r="1" fill="rgb(0,0,0)" />
	<circle cx="999.206" cy="508.056" r="1" fill="rgb(0,0,0)" />
	<circle cx="999.415" cy="627.287" r="1" fill="rgb(0,0,0)" />
	<circle cx="999.958" cy="869.678" r="1" fill="rgb(0,0,0)" />
	<circle cx="1005.02" cy="442.588" r="1" fill="rgb(0,0,0)" />
	<circle cx="1007.44" cy="871.35" r="1" fill="rgb(0,0,0)" />
	<circle cx="1008.74" cy="727.663" r="1" fill="rgb(0,0,0)" />
	<circle cx="1010.66" cy="246.852" r="1" fill="rgb(0,0,0)" />
	<circle cx="1011.37" cy="1040.54" r="1" fill="rgb(0,0,0)" />
	<circle cx="1012.54" cy="673.148" r="1" fill="rgb(0,0,0)" />
	<circle cx="1013.29" cy="384.394" r="1" fill="rgb(0,0,0)" />
	<circle cx="1013.38" cy="303.039" r="1" fill="rgb(0,0,0)" />
	<circle cx="1015.26" cy="498.566" r="1" fill="rgb(0,0,0)" />
	<circle cx="1015.93" cy="992.964" r="1" fill="rgb(0,0,0)" />
	<circle cx="1016.68" cy="121.267" r="1" fill="rgb(0,0,0)" />
	<circle cx="1017.31" cy="296.643" r="1" fill="rgb(0,0,0)" />
	<circle cx="1017.81" cy="197.186" r="1" fill="rgb(0,0,0)" />
	<circle cx="1020.53" cy="366.083" r="1" fill="rgb(0,0,0)" />
	<circle cx="1020.86" cy="857.722" r="1" fill="rgb(0,0,0)" />
	<circle cx="1020.99" cy="264.661" r="1" fill="rgb(0,0,0)" />
	<circle cx="1021.07" cy="768.34" r="1" fill="rgb(0,0,0)" />
	<circle cx="1025.79" cy="182.471" r="1" fill="rgb(0,0,0)" />
	<circle cx="1026" cy="338.491" r="1" fill="rgb(0,0,0)" />
	<circle cx="1026.34" cy="932.136" r="1" fill="rgb(0,0,0)" />
	<circle cx="1026.38" cy="848.901" r="1" fill="rgb(0,0,0)" />
	<circle cx="1026.92" cy="675.155" r="1" fill="rgb(0,0,0)" />
	<circle cx="1027.63" cy="963.658" r="1" fill="rgb(0,0,0)" />
	<circle cx="1027.72" cy="725.949" r="1" fill="rgb(0,0,0)" />
	<circle cx="1027.97" cy="877.872" r="1" fill="rgb(0,0,0)" />
	<circle cx="1031.15" cy="763.992" r="1" fill="rgb(0,0,0)" />
	<circle cx="1031.69" cy="623.608" r="1" fill="rgb(0,0,0)" />
	<circle cx="1033.61" cy="1025.57" r="1" fill="rgb(0,0,0)" />
	<circle cx="1033.61" cy="404.544" r="1" fill="rgb(0,0,0)" />
	<circle cx="1035.16" cy="676.074" r="1" fill="rgb(0,0,0)" />
	<circle cx="1038.92" cy="894.887" r="1" fill="rgb(0,0,0)" />
	<circle cx="1039.76" cy="313.951" r="1" fill="rgb(0,0,0)" />
	<circle cx="1040.34" cy="91.2082" r="1" fill="rgb(0,0,0)" />
	<circle cx="1043.9" cy="110.314" r="1" fill="rgb(0,0,0)" />
	<circle cx="1044.52" cy="616.919" r="1" fill="rgb(0,0,0)" />
	<circle cx="1044.57" cy="464.912" r="1" fill="rgb(0,0,0)" />
	<circle cx="1046.45" cy="546.392" r="1" fill="rgb(0,0,0)" />
	<circle cx="1050" cy="169.636" r="1" fill="rgb(0,0,0)" />
</svg>
