<?xml version="1.0" standalone="no" ?>
<!DOCTYPE svg PUBLIC "-//W3C//DTD SVG 1.1//EN" "http://www.w3.org/Graphics/SVG/1.1/DTD/svg11.dtd">
<svg width="1100px" height="1092.91px" xmlns="http://www.w3.org/2000/svg" version="1.1" >
	<circle cx="50" cy="1007.62" r="1" fill="rgb(0,0,0)" />
	<circle cx="54.5472" cy="458.166" r="1" fill="rgb(0,0,0)" />
	<circle cx="63.2626" cy="841.645" r="1" fill="rgb(0,0,0)" />
	<circle cx="73.8727" cy="533.952" r="1" fill="rgb(0,0,0)" />
	<circle cx="92.4403" cy="212.997" r="1" fill="rgb(0,0,0)" />
	<circle cx="98.1243" cy="604.055" r="1" fill="rgb(0,0,0)" />
	<circle cx="105.703" cy="342.971" r="1" fill="rgb(0,0,0)" />
	<circle cx="106.461" cy="1025.81" r="1" fill="rgb(0,0,0)" />
	<circle cx="115.934" cy="148.958" r="1" fill="rgb(0,0,0)" />
	<circle cx="124.271" cy="346.002" r="1" fill="rgb(0,0,0)" />
	<circle cx="136.775" cy="503.259" r="1" fill="rgb(0,0,0)" />
	<circle cx="158.753" cy="178.136" r="1" fill="rgb(0,0,0)" />
	<circle cx="182.626" cy="969.723" r="1" fill="rgb(0,0,0)" />
	<circle cx="188.689" cy="682.872" r="1" fill="rgb(0,0,0)" />
	<circle cx="203.467" cy="798.067" r="1" fill="rgb(0,0,0)" />
	<circle cx="219.382" cy="153.505" r="1" fill="rgb(0,0,0)" />
	<circle cx="219.761" cy="193.293" r="1" fill="rgb(0,0,0)" />
	<circle cx="225.066" cy="239.901" r="1" fill="rgb(0,0,0)" />
	<circle cx="240.603" cy="740.091" r="1" fill="rgb(0,0,0)" />
	<circle cx="258.033" cy="162.599" r="1" fill="rgb(0,0,0)" />
	<circle cx="261.444" cy="429.367" r="1" fill="rgb(0,0,0)" />
	<circle cx="261.444" cy="74.6874" r="1" fill="rgb(0,0,0)" />
	<circle cx="285.695" cy="308.867" r="1" fill="rgb(0,0,0)" />
	<circle cx="328.136" cy="303.562" r="1" fill="rgb(0,0,0)" />
	<circle cx="329.272" cy="997.764" r="1" fill="rgb(0,0,0)" />
	<circle cx="332.304" cy="552.899" r="1" fill="rgb(0,0,0)" />
	<circle cx="343.293" cy="123.191" r="1" fill="rgb(0,0,0)" />
	<circle cx="349.356" cy="702.956" r="1" fill="rgb(0,0,0)" />
	<circle cx="378.155" cy="275.9" r="1" fill="rgb(0,0,0)" />
	<circle cx="414.911" cy="563.13" r="1" fill="rgb(0,0,0)" />
	<circle cx="420.216" cy="566.161" r="1" fill="rgb(0,0,0)" />
	<circle cx="477.435" cy="1022.02" r="1" fill="rgb(0,0,0)" />
	<circle cx="493.35" cy="291.436" r="1" fill="rgb(0,0,0)" />
	<circle cx="515.328" cy="244.07" r="1" fill="rgb(0,0,0)" />
	<circle cx="522.149" cy="128.117" r="1" fill="rgb(0,0,0)" />
	<circle cx="544.884" cy="482.039" r="1" fill="rgb(0,0,0)" />
	<circle cx="561.557" cy="150.474" r="1" fill="rgb(0,0,0)" />
	<circle cx="565.726" cy="1014.06" r="1" fill="rgb(0,0,0)" />
	<circle cx="565.726" cy="283.1" r="1" fill="rgb(0,0,0)" />
	<circle cx="584.672" cy="49.6779" r="1" fill="rgb(0,0,0)" />
	<circle cx="597.935" cy="423.683" r="1" fill="rgb(0,0,0)" />
	<circle cx="610.44" cy="882.19" r="1" fill="rgb(0,0,0)" />
	<circle cx="612.334" cy="338.803" r="1" fill="rgb(0,0,0)" />
	<circle cx="651.364" cy="105.381" r="1" fill="rgb(0,0,0)" />
	<circle cx="657.048" cy="259.985" r="1" fill="rgb(0,0,0)" />
	<circle cx="657.427" cy="753.354" r="1" fill="rgb(0,0,0)" />
	<circle cx="663.869" cy="309.246" r="1" fill="rgb(0,0,0)" />
	<circle cx="680.921" cy="654.074" r="1" fill="rgb(0,0,0)" />
	<circle cx="682.815" cy="97.8022" r="1" fill="rgb(0,0,0)" />
	<circle cx="694.183" cy="484.691" r="1" fill="rgb(0,0,0)" />
	<circle cx="694.183" cy="194.809" r="1" fill="rgb(0,0,0)" />
	<circle cx="716.54" cy="808.678" r="1" fill="rgb(0,0,0)" />
	<circle cx="719.951" cy="712.429" r="1" fill="rgb(0,0,0)" />
	<circle cx="727.908" cy="85.6764" r="1" fill="rgb(0,0,0)" />
	<circle cx="733.592" cy="458.545" r="1" fill="rgb(0,0,0)" />
	<circle cx="734.35" cy="1043.24" r="1" fill="rgb(0,0,0)" />
	<circle cx="739.276" cy="383.138" r="1" fill="rgb(0,0,0)" />
	<circle cx="740.413" cy="97.8022" r="1" fill="rgb(0,0,0)" />
	<circle cx="749.507" cy="760.932" r="1" fill="rgb(0,0,0)" />
	<circle cx="752.539" cy="280.447" r="1" fill="rgb(0,0,0)" />
	<circle cx="754.433" cy="882.948" r="1" fill="rgb(0,0,0)" />
	<circle cx="756.328" cy="562.372" r="1" fill="rgb(0,0,0)" />
	<circle cx="781.717" cy="524.1" r="1" fill="rgb(0,0,0)" />
	<circle cx="782.095" cy="72.0349" r="1" fill="rgb(0,0,0)" />
	<circle cx="790.811" cy="893.179" r="1" fill="rgb(0,0,0)" />
	<circle cx="799.905" cy="475.976" r="1" fill="rgb(0,0,0)" />
	<circle cx="813.547" cy="276.658" r="1" fill="rgb(0,0,0)" />
	<circle cx="814.684" cy="231.186" r="1" fill="rgb(0,0,0)" />
	<circle cx="824.536" cy="903.41" r="1" fill="rgb(0,0,0)" />
	<circle cx="827.567" cy="903.031" r="1" fill="rgb(0,0,0)" />
	<circle cx="848.787" cy="686.662" r="1" fill="rgb(0,0,0)" />
	<circle cx="859.776" cy="267.563" r="1" fill="rgb(0,0,0)" />
	<circle cx="866.597" cy="844.297" r="1" fill="rgb(0,0,0)" />
	<circle cx="868.492" cy="672.641" r="1" fill="rgb(0,0,0)" />
	<circle cx="878.344" cy="770.784" r="1" fill="rgb(0,0,0)" />
	<circle cx="898.427" cy="125.843" r="1" fill="rgb(0,0,0)" />
	<circle cx="899.185" cy="868.928" r="1" fill="rgb(0,0,0)" />
	<circle cx="923.437" cy="789.352" r="1" fill="rgb(0,0,0)" />
	<circle cx="926.468" cy="1022.02" r="1" fill="rgb(0,0,0)" />
	<circle cx="927.226" cy="217.545" r="1" fill="rgb(0,0,0)" />
	<circle cx="933.668" cy="858.318" r="1" fill="rgb(0,0,0)" />
	<circle cx="939.352" cy="635.127" r="1" fill="rgb(0,0,0)" />
	<circle cx="945.794" cy="666.957" r="1" fill="rgb(0,0,0)" />
	<circle cx="960.572" cy="878.401" r="1" fill="rgb(0,0,0)" />
	<circle cx="965.877" cy="174.346" r="1" fill="rgb(0,0,0)" />
	<circle cx="979.14" cy="290.299" r="1" fill="rgb(0,0,0)" />
	<circle cx="985.582" cy="531.679" r="1" fill="rgb(0,0,0)" />
	<circle cx="988.234" cy="846.571" r="1" fill="rgb(0,0,0)" />
	<circle cx="1006.8" cy="975.028" r="1" fill="rgb(0,0,0)" />
	<circle cx="1050" cy="829.898" r="1" fill="rgb(0,0,0)" />
</svg>
