<?xml version="1.0" standalone="no" ?>
<!DOCTYPE svg PUBLIC "-//W3C//DTD SVG 1.1//EN" "http://www.w3.org/Graphics/SVG/1.1/DTD/svg11.dtd">
<svg width="1100px" height="1129.98px" xmlns="http://www.w3.org/2000/svg" version="1.1" >
	<circle cx="50" cy="232.827" r="1" fill="rgb(0,0,0)" />
	<circle cx="50.3894" cy="996.846" r="1" fill="rgb(0,0,0)" />
	<circle cx="57.0093" cy="904.167" r="1" fill="rgb(0,0,0)" />
	<circle cx="58.567" cy="225.818" r="1" fill="rgb(0,0,0)" />
	<circle cx="79.2056" cy="440.771" r="1" fill="rgb(0,0,0)" />
	<circle cx="110.358" cy="819.665" r="1" fill="rgb(0,0,0)" />
	<circle cx="112.305" cy="647.936" r="1" fill="rgb(0,0,0)" />
	<circle cx="130.607" cy="464.525" r="1" fill="rgb(0,0,0)" />
	<circle cx="137.227" cy="835.241" r="1" fill="rgb(0,0,0)" />
	<circle cx="164.875" cy="494.899" r="1" fill="rgb(0,0,0)" />
	<circle cx="190.966" cy="304.478" r="1" fill="rgb(0,0,0)" />
	<circle cx="194.86" cy="519.042" r="1" fill="rgb(0,0,0)" />
	<circle cx="196.417" cy="997.235" r="1" fill="rgb(0,0,0)" />
	<circle cx="208.1" cy="367.562" r="1" fill="rgb(0,0,0)" />
	<circle cx="224.844" cy="77.0639" r="1" fill="rgb(0,0,0)" />
	<circle cx="233.022" cy="267.484" r="1" fill="rgb(0,0,0)" />
	<circle cx="252.882" cy="530.724" r="1" fill="rgb(0,0,0)" />
	<circle cx="257.944" cy="1048.64" r="1" fill="rgb(0,0,0)" />
	<circle cx="281.308" cy="75.5062" r="1" fill="rgb(0,0,0)" />
	<circle cx="285.592" cy="92.6402" r="1" fill="rgb(0,0,0)" />
	<circle cx="288.707" cy="923.637" r="1" fill="rgb(0,0,0)" />
	<circle cx="300.779" cy="934.151" r="1" fill="rgb(0,0,0)" />
	<circle cx="317.913" cy="894.431" r="1" fill="rgb(0,0,0)" />
	<circle cx="334.657" cy="626.519" r="1" fill="rgb(0,0,0)" />
	<circle cx="372.43" cy="60.3193" r="1" fill="rgb(0,0,0)" />
	<circle cx="372.819" cy="1019.82" r="1" fill="rgb(0,0,0)" />
	<circle cx="391.511" cy="74.7274" r="1" fill="rgb(0,0,0)" />
	<circle cx="396.963" cy="758.139" r="1" fill="rgb(0,0,0)" />
	<circle cx="410.592" cy="540.07" r="1" fill="rgb(0,0,0)" />
	<circle cx="415.265" cy="200.506" r="1" fill="rgb(0,0,0)" />
	<circle cx="460.826" cy="711.799" r="1" fill="rgb(0,0,0)" />
	<circle cx="462.383" cy="966.472" r="1" fill="rgb(0,0,0)" />
	<circle cx="462.383" cy="429.478" r="1" fill="rgb(0,0,0)" />
	<circle cx="473.287" cy="149.104" r="1" fill="rgb(0,0,0)" />
	<circle cx="474.065" cy="855.101" r="1" fill="rgb(0,0,0)" />
	<circle cx="479.128" cy="221.924" r="1" fill="rgb(0,0,0)" />
	<circle cx="490.421" cy="529.167" r="1" fill="rgb(0,0,0)" />
	<circle cx="513.006" cy="439.603" r="1" fill="rgb(0,0,0)" />
	<circle cx="522.352" cy="720.755" r="1" fill="rgb(0,0,0)" />
	<circle cx="525.078" cy="400.273" r="1" fill="rgb(0,0,0)" />
	<circle cx="534.034" cy="767.874" r="1" fill="rgb(0,0,0)" />
	<circle cx="534.424" cy="549.416" r="1" fill="rgb(0,0,0)" />
	<circle cx="577.648" cy="434.54" r="1" fill="rgb(0,0,0)" />
	<circle cx="577.648" cy="340.304" r="1" fill="rgb(0,0,0)" />
	<circle cx="584.657" cy="815.771" r="1" fill="rgb(0,0,0)" />
	<circle cx="589.33" cy="310.709" r="1" fill="rgb(0,0,0)" />
	<circle cx="595.561" cy="70.4439" r="1" fill="rgb(0,0,0)" />
	<circle cx="602.181" cy="496.067" r="1" fill="rgb(0,0,0)" />
	<circle cx="611.137" cy="704.011" r="1" fill="rgb(0,0,0)" />
	<circle cx="612.695" cy="211.02" r="1" fill="rgb(0,0,0)" />
	<circle cx="613.863" cy="343.419" r="1" fill="rgb(0,0,0)" />
	<circle cx="622.819" cy="881.97" r="1" fill="rgb(0,0,0)" />
	<circle cx="685.125" cy="195.055" r="1" fill="rgb(0,0,0)" />
	<circle cx="688.24" cy="729.322" r="1" fill="rgb(0,0,0)" />
	<circle cx="702.259" cy="51.3629" r="1" fill="rgb(0,0,0)" />
	<circle cx="734.579" cy="517.484" r="1" fill="rgb(0,0,0)" />
	<circle cx="736.916" cy="664.291" r="1" fill="rgb(0,0,0)" />
	<circle cx="764.953" cy="662.344" r="1" fill="rgb(0,0,0)" />
	<circle cx="765.343" cy="471.145" r="1" fill="rgb(0,0,0)" />
	<circle cx="767.679" cy="133.528" r="1" fill="rgb(0,0,0)" />
	<circle cx="773.131" cy="200.506" r="1" fill="rgb(0,0,0)" />
	<circle cx="798.053" cy="177.921" r="1" fill="rgb(0,0,0)" />
	<circle cx="801.168" cy="732.827" r="1" fill="rgb(0,0,0)" />
	<circle cx="817.523" cy="717.251" r="1" fill="rgb(0,0,0)" />
	<circle cx="827.648" cy="476.986" r="1" fill="rgb(0,0,0)" />
	<circle cx="840.109" cy="52.9206" r="1" fill="rgb(0,0,0)" />
	<circle cx="844.393" cy="1078.62" r="1" fill="rgb(0,0,0)" />
	<circle cx="845.561" cy="81.3474" r="1" fill="rgb(0,0,0)" />
	<circle cx="877.103" cy="884.696" r="1" fill="rgb(0,0,0)" />
	<circle cx="910.202" cy="390.537" r="1" fill="rgb(0,0,0)" />
	<circle cx="912.928" cy="911.565" r="1" fill="rgb(0,0,0)" />
	<circle cx="913.318" cy="311.098" r="1" fill="rgb(0,0,0)" />
	<circle cx="917.991" cy="1053.7" r="1" fill="rgb(0,0,0)" />
	<circle cx="923.832" cy="516.316" r="1" fill="rgb(0,0,0)" />
	<circle cx="948.364" cy="1006.97" r="1" fill="rgb(0,0,0)" />
	<circle cx="948.754" cy="786.955" r="1" fill="rgb(0,0,0)" />
	<circle cx="951.09" cy="842.64" r="1" fill="rgb(0,0,0)" />
	<circle cx="961.215" cy="190.771" r="1" fill="rgb(0,0,0)" />
	<circle cx="968.614" cy="328.621" r="1" fill="rgb(0,0,0)" />
	<circle cx="969.393" cy="105.101" r="1" fill="rgb(0,0,0)" />
	<circle cx="1003.66" cy="370.678" r="1" fill="rgb(0,0,0)" />
	<circle cx="1010.28" cy="460.241" r="1" fill="rgb(0,0,0)" />
	<circle cx="1012.62" cy="177.142" r="1" fill="rgb(0,0,0)" />
	<circle cx="1023.52" cy="354.322" r="1" fill="rgb(0,0,0)" />
	<circle cx="1025.47" cy="520.989" r="1" fill="rgb(0,0,0)" />
	<circle cx="1027.8" cy="486.332" r="1" fill="rgb(0,0,0)" />
	<circle cx="1033.64" cy="81.3474" r="1" fill="rgb(0,0,0)" />
	<circle cx="1048.44" cy="770.6" r="1" fill="rgb(0,0,0)" />
	<circle cx="1048.44" cy="707.516" r="1" fill="rgb(0,0,0)" />
	<circle cx="1050" cy="270.6" r="1" fill="rgb(0,0,0)" />
</svg>
