<?xml version="1.0" standalone="no" ?>
<!DOCTYPE svg PUBLIC "-//W3C//DTD SVG 1.1//EN" "http://www.w3.org/Graphics/SVG/1.1/DTD/svg11.dtd">
<svg width="1100px" height="1082.78px" xmlns="http://www.w3.org/2000/svg" version="1.1" >
	<circle cx="50" cy="813.763" r="1" fill="rgb(0,0,0)" />
	<circle cx="51.0208" cy="855.954" r="1" fill="rgb(0,0,0)" />
	<circle cx="54.7635" cy="213.559" r="1" fill="rgb(0,0,0)" />
	<circle cx="61.2283" cy="110.803" r="1" fill="rgb(0,0,0)" />
	<circle cx="61.9088" cy="374.158" r="1" fill="rgb(0,0,0)" />
	<circle cx="65.3113" cy="197.567" r="1" fill="rgb(0,0,0)" />
	<circle cx="70.4151" cy="553.471" r="1" fill="rgb(0,0,0)" />
	<circle cx="86.4069" cy="400.357" r="1" fill="rgb(0,0,0)" />
	<circle cx="97.295" cy="707.945" r="1" fill="rgb(0,0,0)" />
	<circle cx="111.926" cy="321.419" r="1" fill="rgb(0,0,0)" />
	<circle cx="114.988" cy="888.278" r="1" fill="rgb(0,0,0)" />
	<circle cx="118.391" cy="204.372" r="1" fill="rgb(0,0,0)" />
	<circle cx="140.847" cy="405.461" r="1" fill="rgb(0,0,0)" />
	<circle cx="147.312" cy="316.315" r="1" fill="rgb(0,0,0)" />
	<circle cx="162.283" cy="429.619" r="1" fill="rgb(0,0,0)" />
	<circle cx="162.964" cy="538.159" r="1" fill="rgb(0,0,0)" />
	<circle cx="163.644" cy="176.812" r="1" fill="rgb(0,0,0)" />
	<circle cx="174.532" cy="407.162" r="1" fill="rgb(0,0,0)" />
	<circle cx="181.677" cy="954.287" r="1" fill="rgb(0,0,0)" />
	<circle cx="182.018" cy="605.529" r="1" fill="rgb(0,0,0)" />
	<circle cx="183.719" cy="958.37" r="1" fill="rgb(0,0,0)" />
	<circle cx="198.35" cy="678.683" r="1" fill="rgb(0,0,0)" />
	<circle cx="198.69" cy="892.702" r="1" fill="rgb(0,0,0)" />
	<circle cx="200.732" cy="180.895" r="1" fill="rgb(0,0,0)" />
	<circle cx="205.155" cy="851.191" r="1" fill="rgb(0,0,0)" />
	<circle cx="209.918" cy="475.893" r="1" fill="rgb(0,0,0)" />
	<circle cx="218.084" cy="240.099" r="1" fill="rgb(0,0,0)" />
	<circle cx="227.611" cy="496.649" r="1" fill="rgb(0,0,0)" />
	<circle cx="243.944" cy="517.744" r="1" fill="rgb(0,0,0)" />
	<circle cx="256.873" cy="839.282" r="1" fill="rgb(0,0,0)" />
	<circle cx="259.935" cy="572.865" r="1" fill="rgb(0,0,0)" />
	<circle cx="260.956" cy="200.97" r="1" fill="rgb(0,0,0)" />
	<circle cx="276.948" cy="350.681" r="1" fill="rgb(0,0,0)" />
	<circle cx="278.309" cy="909.714" r="1" fill="rgb(0,0,0)" />
	<circle cx="280.691" cy="864.12" r="1" fill="rgb(0,0,0)" />
	<circle cx="281.031" cy="884.195" r="1" fill="rgb(0,0,0)" />
	<circle cx="287.836" cy="348.639" r="1" fill="rgb(0,0,0)" />
	<circle cx="288.176" cy="536.798" r="1" fill="rgb(0,0,0)" />
	<circle cx="310.293" cy="916.179" r="1" fill="rgb(0,0,0)" />
	<circle cx="336.492" cy="151.973" r="1" fill="rgb(0,0,0)" />
	<circle cx="347.38" cy="891.341" r="1" fill="rgb(0,0,0)" />
	<circle cx="373.579" cy="1033.57" r="1" fill="rgb(0,0,0)" />
	<circle cx="374.26" cy="131.218" r="1" fill="rgb(0,0,0)" />
	<circle cx="380.384" cy="658.608" r="1" fill="rgb(0,0,0)" />
	<circle cx="403.862" cy="682.766" r="1" fill="rgb(0,0,0)" />
	<circle cx="409.646" cy="403.42" r="1" fill="rgb(0,0,0)" />
	<circle cx="413.729" cy="845.407" r="1" fill="rgb(0,0,0)" />
	<circle cx="423.937" cy="467.047" r="1" fill="rgb(0,0,0)" />
	<circle cx="434.485" cy="329.925" r="1" fill="rgb(0,0,0)" />
	<circle cx="439.929" cy="590.898" r="1" fill="rgb(0,0,0)" />
	<circle cx="448.095" cy="407.162" r="1" fill="rgb(0,0,0)" />
	<circle cx="448.435" cy="212.538" r="1" fill="rgb(0,0,0)" />
	<circle cx="450.476" cy="815.124" r="1" fill="rgb(0,0,0)" />
	<circle cx="463.746" cy="447.312" r="1" fill="rgb(0,0,0)" />
	<circle cx="471.572" cy="286.033" r="1" fill="rgb(0,0,0)" />
	<circle cx="473.954" cy="851.191" r="1" fill="rgb(0,0,0)" />
	<circle cx="478.377" cy="421.453" r="1" fill="rgb(0,0,0)" />
	<circle cx="479.398" cy="525.23" r="1" fill="rgb(0,0,0)" />
	<circle cx="497.431" cy="914.137" r="1" fill="rgb(0,0,0)" />
	<circle cx="524.991" cy="635.812" r="1" fill="rgb(0,0,0)" />
	<circle cx="530.436" cy="732.443" r="1" fill="rgb(0,0,0)" />
	<circle cx="531.797" cy="557.894" r="1" fill="rgb(0,0,0)" />
	<circle cx="534.178" cy="461.262" r="1" fill="rgb(0,0,0)" />
	<circle cx="594.403" cy="779.738" r="1" fill="rgb(0,0,0)" />
	<circle cx="594.403" cy="463.984" r="1" fill="rgb(0,0,0)" />
	<circle cx="599.847" cy="592.6" r="1" fill="rgb(0,0,0)" />
	<circle cx="600.187" cy="609.272" r="1" fill="rgb(0,0,0)" />
	<circle cx="622.984" cy="929.789" r="1" fill="rgb(0,0,0)" />
	<circle cx="628.428" cy="439.826" r="1" fill="rgb(0,0,0)" />
	<circle cx="632.511" cy="642.957" r="1" fill="rgb(0,0,0)" />
	<circle cx="672.661" cy="487.121" r="1" fill="rgb(0,0,0)" />
	<circle cx="680.146" cy="945.781" r="1" fill="rgb(0,0,0)" />
	<circle cx="681.507" cy="239.418" r="1" fill="rgb(0,0,0)" />
	<circle cx="690.694" cy="436.764" r="1" fill="rgb(0,0,0)" />
	<circle cx="709.408" cy="844.386" r="1" fill="rgb(0,0,0)" />
	<circle cx="757.724" cy="49.2174" r="1" fill="rgb(0,0,0)" />
	<circle cx="767.251" cy="989.673" r="1" fill="rgb(0,0,0)" />
	<circle cx="772.355" cy="325.162" r="1" fill="rgb(0,0,0)" />
	<circle cx="791.409" cy="987.632" r="1" fill="rgb(0,0,0)" />
	<circle cx="796.853" cy="165.584" r="1" fill="rgb(0,0,0)" />
	<circle cx="798.894" cy="975.383" r="1" fill="rgb(0,0,0)" />
	<circle cx="799.234" cy="406.142" r="1" fill="rgb(0,0,0)" />
	<circle cx="811.483" cy="780.078" r="1" fill="rgb(0,0,0)" />
	<circle cx="823.392" cy="524.549" r="1" fill="rgb(0,0,0)" />
	<circle cx="837.683" cy="202.331" r="1" fill="rgb(0,0,0)" />
	<circle cx="863.202" cy="110.463" r="1" fill="rgb(0,0,0)" />
	<circle cx="863.542" cy="570.823" r="1" fill="rgb(0,0,0)" />
	<circle cx="882.936" cy="356.805" r="1" fill="rgb(0,0,0)" />
	<circle cx="900.289" cy="912.776" r="1" fill="rgb(0,0,0)" />
	<circle cx="924.787" cy="434.723" r="1" fill="rgb(0,0,0)" />
	<circle cx="925.468" cy="418.391" r="1" fill="rgb(0,0,0)" />
	<circle cx="930.572" cy="526.591" r="1" fill="rgb(0,0,0)" />
	<circle cx="943.501" cy="488.482" r="1" fill="rgb(0,0,0)" />
	<circle cx="952.688" cy="726.999" r="1" fill="rgb(0,0,0)" />
	<circle cx="956.771" cy="205.393" r="1" fill="rgb(0,0,0)" />
	<circle cx="1014.95" cy="849.49" r="1" fill="rgb(0,0,0)" />
	<circle cx="1023.46" cy="566.06" r="1" fill="rgb(0,0,0)" />
	<circle cx="1025.5" cy="472.491" r="1" fill="rgb(0,0,0)" />
	<circle cx="1026.18" cy="876.029" r="1" fill="rgb(0,0,0)" />
	<circle cx="1050" cy="575.927" r="1" fill="rgb(0,0,0)" />
</svg>
