<?xml version="1.0" standalone="no" ?>
<!DOCTYPE svg PUBLIC "-//W3C//DTD SVG 1.1//EN" "http://www.w3.org/Graphics/SVG/1.1/DTD/svg11.dtd">
<svg width="1100px" height="1100.49px" xmlns="http://www.w3.org/2000/svg" version="1.1" >
	<circle cx="50" cy="781.751" r="1" fill="rgb(0,0,0)" />
	<circle cx="51.6154" cy="267.658" r="1" fill="rgb(0,0,0)" />
	<circle cx="53.0637" cy="954.434" r="1" fill="rgb(0,0,0)" />
	<circle cx="53.6765" cy="407.81" r="1" fill="rgb(0,0,0)" />
	<circle cx="56.9073" cy="902.184" r="1" fill="rgb(0,0,0)" />
	<circle cx="58.9684" cy="217.97" r="1" fill="rgb(0,0,0)" />
	<circle cx="59.3026" cy="746.212" r="1" fill="rgb(0,0,0)" />
	<circle cx="60.5838" cy="888.815" r="1" fill="rgb(0,0,0)" />
	<circle cx="60.8623" cy="85.0602" r="1" fill="rgb(0,0,0)" />
	<circle cx="63.2576" cy="594.474" r="1" fill="rgb(0,0,0)" />
	<circle cx="66.0428" cy="584.057" r="1" fill="rgb(0,0,0)" />
	<circle cx="66.5441" cy="90.7977" r="1" fill="rgb(0,0,0)" />
	<circle cx="67.2126" cy="148.34" r="1" fill="rgb(0,0,0)" />
	<circle cx="68.2709" cy="522.672" r="1" fill="rgb(0,0,0)" />
	<circle cx="68.9951" cy="404.746" r="1" fill="rgb(0,0,0)" />
	<circle cx="69.775" cy="831.996" r="1" fill="rgb(0,0,0)" />
	<circle cx="70.0535" cy="196.078" r="1" fill="rgb(0,0,0)" />
	<circle cx="70.8333" cy="832.164" r="1" fill="rgb(0,0,0)" />
	<circle cx="72.5602" cy="755.682" r="1" fill="rgb(0,0,0)" />
	<circle cx="73.9528" cy="597.315" r="1" fill="rgb(0,0,0)" />
	<circle cx="78.799" cy="924.02" r="1" fill="rgb(0,0,0)" />
	<circle cx="80.0802" cy="845.087" r="1" fill="rgb(0,0,0)" />
	<circle cx="80.1916" cy="725.824" r="1" fill="rgb(0,0,0)" />
	<circle cx="81.1943" cy="923.407" r="1" fill="rgb(0,0,0)" />
	<circle cx="82.9211" cy="775.624" r="1" fill="rgb(0,0,0)" />
	<circle cx="83.9238" cy="561.609" r="1" fill="rgb(0,0,0)" />
	<circle cx="87.5446" cy="316.511" r="1" fill="rgb(0,0,0)" />
	<circle cx="89.5499" cy="768.215" r="1" fill="rgb(0,0,0)" />
	<circle cx="90.0512" cy="223.262" r="1" fill="rgb(0,0,0)" />
	<circle cx="90.7754" cy="786.152" r="1" fill="rgb(0,0,0)" />
	<circle cx="90.7754" cy="80.1582" r="1" fill="rgb(0,0,0)" />
	<circle cx="91.8895" cy="577.262" r="1" fill="rgb(0,0,0)" />
	<circle cx="93.8391" cy="957.442" r="1" fill="rgb(0,0,0)" />
	<circle cx="96.2344" cy="311.33" r="1" fill="rgb(0,0,0)" />
	<circle cx="97.6827" cy="613.358" r="1" fill="rgb(0,0,0)" />
	<circle cx="99.1867" cy="506.852" r="1" fill="rgb(0,0,0)" />
	<circle cx="100.635" cy="109.904" r="1" fill="rgb(0,0,0)" />
	<circle cx="103.476" cy="624.443" r="1" fill="rgb(0,0,0)" />
	<circle cx="106.261" cy="173.017" r="1" fill="rgb(0,0,0)" />
	<circle cx="108.489" cy="809.269" r="1" fill="rgb(0,0,0)" />
	<circle cx="109.381" cy="219.418" r="1" fill="rgb(0,0,0)" />
	<circle cx="110.439" cy="585.784" r="1" fill="rgb(0,0,0)" />
	<circle cx="111.887" cy="830.214" r="1" fill="rgb(0,0,0)" />
	<circle cx="116.734" cy="75.4234" r="1" fill="rgb(0,0,0)" />
	<circle cx="116.901" cy="836.119" r="1" fill="rgb(0,0,0)" />
	<circle cx="119.686" cy="386.921" r="1" fill="rgb(0,0,0)" />
	<circle cx="120.521" cy="959.503" r="1" fill="rgb(0,0,0)" />
	<circle cx="122.75" cy="140.987" r="1" fill="rgb(0,0,0)" />
	<circle cx="123.251" cy="903.298" r="1" fill="rgb(0,0,0)" />
	<circle cx="124.309" cy="274.454" r="1" fill="rgb(0,0,0)" />
	<circle cx="126.593" cy="751.504" r="1" fill="rgb(0,0,0)" />
	<circle cx="128.209" cy="805.816" r="1" fill="rgb(0,0,0)" />
	<circle cx="129.267" cy="910.428" r="1" fill="rgb(0,0,0)" />
	<circle cx="129.323" cy="380.849" r="1" fill="rgb(0,0,0)" />
	<circle cx="130.604" cy="609.013" r="1" fill="rgb(0,0,0)" />
	<circle cx="133.333" cy="585.45" r="1" fill="rgb(0,0,0)" />
	<circle cx="134.169" cy="956.662" r="1" fill="rgb(0,0,0)" />
	<circle cx="134.559" cy="954.211" r="1" fill="rgb(0,0,0)" />
	<circle cx="137.845" cy="412.21" r="1" fill="rgb(0,0,0)" />
	<circle cx="139.628" cy="265.207" r="1" fill="rgb(0,0,0)" />
	<circle cx="139.795" cy="557.542" r="1" fill="rgb(0,0,0)" />
	<circle cx="140.686" cy="306.428" r="1" fill="rgb(0,0,0)" />
	<circle cx="140.742" cy="239.639" r="1" fill="rgb(0,0,0)" />
	<circle cx="140.742" cy="184.381" r="1" fill="rgb(0,0,0)" />
	<circle cx="141.243" cy="104" r="1" fill="rgb(0,0,0)" />
	<circle cx="141.355" cy="525.735" r="1" fill="rgb(0,0,0)" />
	<circle cx="143.082" cy="1009.25" r="1" fill="rgb(0,0,0)" />
	<circle cx="143.471" cy="1049.02" r="1" fill="rgb(0,0,0)" />
	<circle cx="144.53" cy="1013.54" r="1" fill="rgb(0,0,0)" />
	<circle cx="145.031" cy="581.495" r="1" fill="rgb(0,0,0)" />
	<circle cx="148.151" cy="404.3" r="1" fill="rgb(0,0,0)" />
	<circle cx="148.763" cy="188.336" r="1" fill="rgb(0,0,0)" />
	<circle cx="151.549" cy="244.875" r="1" fill="rgb(0,0,0)" />
	<circle cx="151.604" cy="260.138" r="1" fill="rgb(0,0,0)" />
	<circle cx="152.997" cy="440.787" r="1" fill="rgb(0,0,0)" />
	<circle cx="153.387" cy="213.012" r="1" fill="rgb(0,0,0)" />
	<circle cx="153.554" cy="263.369" r="1" fill="rgb(0,0,0)" />
	<circle cx="153.721" cy="336.286" r="1" fill="rgb(0,0,0)" />
	<circle cx="153.777" cy="1010.92" r="1" fill="rgb(0,0,0)" />
	<circle cx="155.336" cy="842.19" r="1" fill="rgb(0,0,0)" />
	<circle cx="156.172" cy="1001.5" r="1" fill="rgb(0,0,0)" />
	<circle cx="156.618" cy="595.7" r="1" fill="rgb(0,0,0)" />
	<circle cx="156.84" cy="928.42" r="1" fill="rgb(0,0,0)" />
	<circle cx="156.896" cy="957.943" r="1" fill="rgb(0,0,0)" />
	<circle cx="158.01" cy="974.209" r="1" fill="rgb(0,0,0)" />
	<circle cx="160.016" cy="613.525" r="1" fill="rgb(0,0,0)" />
	<circle cx="160.795" cy="403.799" r="1" fill="rgb(0,0,0)" />
	<circle cx="161.52" cy="968.694" r="1" fill="rgb(0,0,0)" />
	<circle cx="161.854" cy="828.487" r="1" fill="rgb(0,0,0)" />
	<circle cx="161.965" cy="1031.36" r="1" fill="rgb(0,0,0)" />
	<circle cx="163.135" cy="850.045" r="1" fill="rgb(0,0,0)" />
	<circle cx="167.703" cy="143.438" r="1" fill="rgb(0,0,0)" />
	<circle cx="170.711" cy="685.717" r="1" fill="rgb(0,0,0)" />
	<circle cx="170.822" cy="608.066" r="1" fill="rgb(0,0,0)" />
	<circle cx="171.101" cy="681.54" r="1" fill="rgb(0,0,0)" />
	<circle cx="172.549" cy="755.18" r="1" fill="rgb(0,0,0)" />
	<circle cx="173.775" cy="101.883" r="1" fill="rgb(0,0,0)" />
	<circle cx="174.443" cy="109.793" r="1" fill="rgb(0,0,0)" />
	<circle cx="176.615" cy="170.956" r="1" fill="rgb(0,0,0)" />
	<circle cx="178.621" cy="820.466" r="1" fill="rgb(0,0,0)" />
	<circle cx="180.515" cy="332.164" r="1" fill="rgb(0,0,0)" />
	<circle cx="180.682" cy="508.69" r="1" fill="rgb(0,0,0)" />
	<circle cx="182.464" cy="1006.8" r="1" fill="rgb(0,0,0)" />
	<circle cx="183.857" cy="856.061" r="1" fill="rgb(0,0,0)" />
	<circle cx="188.313" cy="943.906" r="1" fill="rgb(0,0,0)" />
	<circle cx="190.207" cy="587.734" r="1" fill="rgb(0,0,0)" />
	<circle cx="192.714" cy="837.901" r="1" fill="rgb(0,0,0)" />
	<circle cx="193.16" cy="908.757" r="1" fill="rgb(0,0,0)" />
	<circle cx="195.388" cy="220.811" r="1" fill="rgb(0,0,0)" />
	<circle cx="196.892" cy="699.476" r="1" fill="rgb(0,0,0)" />
	<circle cx="198.061" cy="549.967" r="1" fill="rgb(0,0,0)" />
	<circle cx="201.682" cy="219.029" r="1" fill="rgb(0,0,0)" />
	<circle cx="203.353" cy="689.784" r="1" fill="rgb(0,0,0)" />
	<circle cx="205.192" cy="381.295" r="1" fill="rgb(0,0,0)" />
	<circle cx="205.414" cy="383.356" r="1" fill="rgb(0,0,0)" />
	<circle cx="207.03" cy="1032.03" r="1" fill="rgb(0,0,0)" />
	<circle cx="208.868" cy="187.779" r="1" fill="rgb(0,0,0)" />
	<circle cx="211.765" cy="92.4131" r="1" fill="rgb(0,0,0)" />
	<circle cx="212.155" cy="151.07" r="1" fill="rgb(0,0,0)" />
	<circle cx="212.712" cy="711.119" r="1" fill="rgb(0,0,0)" />
	<circle cx="214.16" cy="730.838" r="1" fill="rgb(0,0,0)" />
	<circle cx="214.606" cy="636.141" r="1" fill="rgb(0,0,0)" />
	<circle cx="216.834" cy="687.444" r="1" fill="rgb(0,0,0)" />
	<circle cx="217.725" cy="542.836" r="1" fill="rgb(0,0,0)" />
	<circle cx="217.725" cy="375.836" r="1" fill="rgb(0,0,0)" />
	<circle cx="221.29" cy="475.379" r="1" fill="rgb(0,0,0)" />
	<circle cx="221.736" cy="174.799" r="1" fill="rgb(0,0,0)" />
	<circle cx="223.685" cy="369.318" r="1" fill="rgb(0,0,0)" />
	<circle cx="225.579" cy="519.664" r="1" fill="rgb(0,0,0)" />
	<circle cx="225.969" cy="967.413" r="1" fill="rgb(0,0,0)" />
	<circle cx="228.03" cy="463.681" r="1" fill="rgb(0,0,0)" />
	<circle cx="229.311" cy="763.425" r="1" fill="rgb(0,0,0)" />
	<circle cx="232.431" cy="912.545" r="1" fill="rgb(0,0,0)" />
	<circle cx="232.765" cy="397.56" r="1" fill="rgb(0,0,0)" />
	<circle cx="232.877" cy="489.918" r="1" fill="rgb(0,0,0)" />
	<circle cx="233.266" cy="553.253" r="1" fill="rgb(0,0,0)" />
	<circle cx="234.715" cy="683.991" r="1" fill="rgb(0,0,0)" />
	<circle cx="235.773" cy="787.712" r="1" fill="rgb(0,0,0)" />
	<circle cx="236.999" cy="265.709" r="1" fill="rgb(0,0,0)" />
	<circle cx="240.118" cy="917.502" r="1" fill="rgb(0,0,0)" />
	<circle cx="242.068" cy="637.032" r="1" fill="rgb(0,0,0)" />
	<circle cx="245.131" cy="149.566" r="1" fill="rgb(0,0,0)" />
	<circle cx="248.251" cy="267.547" r="1" fill="rgb(0,0,0)" />
	<circle cx="248.585" cy="642.77" r="1" fill="rgb(0,0,0)" />
	<circle cx="250.368" cy="488.915" r="1" fill="rgb(0,0,0)" />
	<circle cx="255.102" cy="180.203" r="1" fill="rgb(0,0,0)" />
	<circle cx="255.66" cy="170.677" r="1" fill="rgb(0,0,0)" />
	<circle cx="258.278" cy="673.295" r="1" fill="rgb(0,0,0)" />
	<circle cx="260.116" cy="229.612" r="1" fill="rgb(0,0,0)" />
	<circle cx="261.174" cy="209.559" r="1" fill="rgb(0,0,0)" />
	<circle cx="266.243" cy="336.23" r="1" fill="rgb(0,0,0)" />
	<circle cx="266.299" cy="596.145" r="1" fill="rgb(0,0,0)" />
	<circle cx="266.355" cy="631.517" r="1" fill="rgb(0,0,0)" />
	<circle cx="269.307" cy="516.321" r="1" fill="rgb(0,0,0)" />
	<circle cx="271.312" cy="835.172" r="1" fill="rgb(0,0,0)" />
	<circle cx="271.925" cy="123.217" r="1" fill="rgb(0,0,0)" />
	<circle cx="277.384" cy="551.471" r="1" fill="rgb(0,0,0)" />
	<circle cx="278.443" cy="566.455" r="1" fill="rgb(0,0,0)" />
	<circle cx="279.445" cy="506.796" r="1" fill="rgb(0,0,0)" />
	<circle cx="285.183" cy="511.475" r="1" fill="rgb(0,0,0)" />
	<circle cx="286.185" cy="226.549" r="1" fill="rgb(0,0,0)" />
	<circle cx="286.52" cy="703.153" r="1" fill="rgb(0,0,0)" />
	<circle cx="288.581" cy="887.812" r="1" fill="rgb(0,0,0)" />
	<circle cx="288.692" cy="734.514" r="1" fill="rgb(0,0,0)" />
	<circle cx="293.65" cy="649.008" r="1" fill="rgb(0,0,0)" />
	<circle cx="293.928" cy="1049.52" r="1" fill="rgb(0,0,0)" />
	<circle cx="294.43" cy="947.972" r="1" fill="rgb(0,0,0)" />
	<circle cx="295.934" cy="582.442" r="1" fill="rgb(0,0,0)" />
	<circle cx="304.512" cy="148.061" r="1" fill="rgb(0,0,0)" />
	<circle cx="304.735" cy="781.417" r="1" fill="rgb(0,0,0)" />
	<circle cx="304.902" cy="739.75" r="1" fill="rgb(0,0,0)" />
	<circle cx="308.634" cy="419.898" r="1" fill="rgb(0,0,0)" />
	<circle cx="309.358" cy="348.373" r="1" fill="rgb(0,0,0)" />
	<circle cx="310.25" cy="390.04" r="1" fill="rgb(0,0,0)" />
	<circle cx="312.923" cy="671.624" r="1" fill="rgb(0,0,0)" />
	<circle cx="313.09" cy="792.447" r="1" fill="rgb(0,0,0)" />
	<circle cx="315.263" cy="906.918" r="1" fill="rgb(0,0,0)" />
	<circle cx="315.541" cy="1043.56" r="1" fill="rgb(0,0,0)" />
	<circle cx="315.764" cy="255.96" r="1" fill="rgb(0,0,0)" />
	<circle cx="318.605" cy="949.031" r="1" fill="rgb(0,0,0)" />
	<circle cx="319.719" cy="776.905" r="1" fill="rgb(0,0,0)" />
	<circle cx="323.173" cy="183.991" r="1" fill="rgb(0,0,0)" />
	<circle cx="323.953" cy="114.75" r="1" fill="rgb(0,0,0)" />
	<circle cx="325.902" cy="277.016" r="1" fill="rgb(0,0,0)" />
	<circle cx="326.515" cy="559.381" r="1" fill="rgb(0,0,0)" />
	<circle cx="326.905" cy="707.108" r="1" fill="rgb(0,0,0)" />
	<circle cx="326.905" cy="572.36" r="1" fill="rgb(0,0,0)" />
	<circle cx="330.359" cy="682.821" r="1" fill="rgb(0,0,0)" />
	<circle cx="332.81" cy="842.413" r="1" fill="rgb(0,0,0)" />
	<circle cx="336.208" cy="788.603" r="1" fill="rgb(0,0,0)" />
	<circle cx="338.714" cy="953.598" r="1" fill="rgb(0,0,0)" />
	<circle cx="341.11" cy="677.919" r="1" fill="rgb(0,0,0)" />
	<circle cx="342.168" cy="290.553" r="1" fill="rgb(0,0,0)" />
	<circle cx="343.115" cy="754.846" r="1" fill="rgb(0,0,0)" />
	<circle cx="347.126" cy="476.604" r="1" fill="rgb(0,0,0)" />
	<circle cx="347.516" cy="146.446" r="1" fill="rgb(0,0,0)" />
	<circle cx="347.961" cy="526.571" r="1" fill="rgb(0,0,0)" />
	<circle cx="349.354" cy="682.32" r="1" fill="rgb(0,0,0)" />
	<circle cx="352.362" cy="733.456" r="1" fill="rgb(0,0,0)" />
	<circle cx="352.807" cy="507.631" r="1" fill="rgb(0,0,0)" />
	<circle cx="353.197" cy="339.516" r="1" fill="rgb(0,0,0)" />
	<circle cx="360.829" cy="637.478" r="1" fill="rgb(0,0,0)" />
	<circle cx="360.94" cy="801.916" r="1" fill="rgb(0,0,0)" />
	<circle cx="361.107" cy="208.389" r="1" fill="rgb(0,0,0)" />
	<circle cx="361.163" cy="536.598" r="1" fill="rgb(0,0,0)" />
	<circle cx="362.667" cy="863.748" r="1" fill="rgb(0,0,0)" />
	<circle cx="366.622" cy="114.305" r="1" fill="rgb(0,0,0)" />
	<circle cx="372.527" cy="526.181" r="1" fill="rgb(0,0,0)" />
	<circle cx="375.312" cy="871.825" r="1" fill="rgb(0,0,0)" />
	<circle cx="377.596" cy="522.504" r="1" fill="rgb(0,0,0)" />
	<circle cx="380.938" cy="911.152" r="1" fill="rgb(0,0,0)" />
	<circle cx="382.776" cy="473.485" r="1" fill="rgb(0,0,0)" />
	<circle cx="384.057" cy="916.778" r="1" fill="rgb(0,0,0)" />
	<circle cx="384.559" cy="990.586" r="1" fill="rgb(0,0,0)" />
	<circle cx="384.726" cy="237.244" r="1" fill="rgb(0,0,0)" />
	<circle cx="386.453" cy="850.379" r="1" fill="rgb(0,0,0)" />
	<circle cx="386.843" cy="430.704" r="1" fill="rgb(0,0,0)" />
	<circle cx="388.458" cy="437.946" r="1" fill="rgb(0,0,0)" />
	<circle cx="393.583" cy="699.086" r="1" fill="rgb(0,0,0)" />
	<circle cx="395.922" cy="987.745" r="1" fill="rgb(0,0,0)" />
	<circle cx="395.922" cy="50.9135" r="1" fill="rgb(0,0,0)" />
	<circle cx="396.591" cy="779.802" r="1" fill="rgb(0,0,0)" />
	<circle cx="396.981" cy="456.384" r="1" fill="rgb(0,0,0)" />
	<circle cx="398.596" cy="522.504" r="1" fill="rgb(0,0,0)" />
	<circle cx="401.716" cy="561.442" r="1" fill="rgb(0,0,0)" />
	<circle cx="402.106" cy="421.29" r="1" fill="rgb(0,0,0)" />
	<circle cx="404.668" cy="703.32" r="1" fill="rgb(0,0,0)" />
	<circle cx="405.002" cy="733.846" r="1" fill="rgb(0,0,0)" />
	<circle cx="406.228" cy="246.713" r="1" fill="rgb(0,0,0)" />
	<circle cx="406.673" cy="488.525" r="1" fill="rgb(0,0,0)" />
	<circle cx="407.23" cy="1033.48" r="1" fill="rgb(0,0,0)" />
	<circle cx="412.689" cy="723.095" r="1" fill="rgb(0,0,0)" />
	<circle cx="412.857" cy="285.929" r="1" fill="rgb(0,0,0)" />
	<circle cx="414.193" cy="256.462" r="1" fill="rgb(0,0,0)" />
	<circle cx="414.583" cy="977.718" r="1" fill="rgb(0,0,0)" />
	<circle cx="416.533" cy="978.22" r="1" fill="rgb(0,0,0)" />
	<circle cx="418.594" cy="1044.34" r="1" fill="rgb(0,0,0)" />
	<circle cx="421.101" cy="931.484" r="1" fill="rgb(0,0,0)" />
	<circle cx="421.212" cy="876.281" r="1" fill="rgb(0,0,0)" />
	<circle cx="423.942" cy="709.28" r="1" fill="rgb(0,0,0)" />
	<circle cx="427.395" cy="545.566" r="1" fill="rgb(0,0,0)" />
	<circle cx="432.074" cy="243.817" r="1" fill="rgb(0,0,0)" />
	<circle cx="434.414" cy="815.062" r="1" fill="rgb(0,0,0)" />
	<circle cx="434.637" cy="250.446" r="1" fill="rgb(0,0,0)" />
	<circle cx="434.915" cy="443.906" r="1" fill="rgb(0,0,0)" />
	<circle cx="435.361" cy="728.61" r="1" fill="rgb(0,0,0)" />
	<circle cx="437.143" cy="868.817" r="1" fill="rgb(0,0,0)" />
	<circle cx="437.756" cy="968.694" r="1" fill="rgb(0,0,0)" />
	<circle cx="437.756" cy="723.373" r="1" fill="rgb(0,0,0)" />
	<circle cx="439.316" cy="937.946" r="1" fill="rgb(0,0,0)" />
	<circle cx="439.706" cy="756.072" r="1" fill="rgb(0,0,0)" />
	<circle cx="441.21" cy="337.567" r="1" fill="rgb(0,0,0)" />
	<circle cx="445.276" cy="366.422" r="1" fill="rgb(0,0,0)" />
	<circle cx="445.443" cy="279.913" r="1" fill="rgb(0,0,0)" />
	<circle cx="446.947" cy="369.318" r="1" fill="rgb(0,0,0)" />
	<circle cx="447.393" cy="614.806" r="1" fill="rgb(0,0,0)" />
	<circle cx="447.449" cy="770.555" r="1" fill="rgb(0,0,0)" />
	<circle cx="454.189" cy="396.836" r="1" fill="rgb(0,0,0)" />
	<circle cx="455.916" cy="513.87" r="1" fill="rgb(0,0,0)" />
	<circle cx="459.537" cy="812.611" r="1" fill="rgb(0,0,0)" />
	<circle cx="460.205" cy="197.861" r="1" fill="rgb(0,0,0)" />
	<circle cx="460.261" cy="576.203" r="1" fill="rgb(0,0,0)" />
	<circle cx="463.937" cy="987.522" r="1" fill="rgb(0,0,0)" />
	<circle cx="465.218" cy="139.26" r="1" fill="rgb(0,0,0)" />
	<circle cx="465.274" cy="759.581" r="1" fill="rgb(0,0,0)" />
	<circle cx="470.343" cy="401.07" r="1" fill="rgb(0,0,0)" />
	<circle cx="470.622" cy="216.466" r="1" fill="rgb(0,0,0)" />
	<circle cx="472.906" cy="394.719" r="1" fill="rgb(0,0,0)" />
	<circle cx="473.63" cy="399.008" r="1" fill="rgb(0,0,0)" />
	<circle cx="480.816" cy="581.384" r="1" fill="rgb(0,0,0)" />
	<circle cx="481.874" cy="892.435" r="1" fill="rgb(0,0,0)" />
	<circle cx="484.659" cy="997.66" r="1" fill="rgb(0,0,0)" />
	<circle cx="485.606" cy="853.108" r="1" fill="rgb(0,0,0)" />
	<circle cx="486.052" cy="646.947" r="1" fill="rgb(0,0,0)" />
	<circle cx="486.33" cy="472.204" r="1" fill="rgb(0,0,0)" />
	<circle cx="489.338" cy="190.564" r="1" fill="rgb(0,0,0)" />
	<circle cx="491.901" cy="316.845" r="1" fill="rgb(0,0,0)" />
	<circle cx="494.129" cy="1000.17" r="1" fill="rgb(0,0,0)" />
	<circle cx="495.41" cy="529.746" r="1" fill="rgb(0,0,0)" />
	<circle cx="499.643" cy="462.567" r="1" fill="rgb(0,0,0)" />
	<circle cx="499.755" cy="222.148" r="1" fill="rgb(0,0,0)" />
	<circle cx="500.256" cy="86.0071" r="1" fill="rgb(0,0,0)" />
	<circle cx="501.426" cy="186.386" r="1" fill="rgb(0,0,0)" />
	<circle cx="502.039" cy="906.306" r="1" fill="rgb(0,0,0)" />
	<circle cx="502.986" cy="258.189" r="1" fill="rgb(0,0,0)" />
	<circle cx="503.821" cy="453.933" r="1" fill="rgb(0,0,0)" />
	<circle cx="504.434" cy="217.859" r="1" fill="rgb(0,0,0)" />
	<circle cx="505.548" cy="521.056" r="1" fill="rgb(0,0,0)" />
	<circle cx="505.66" cy="991.422" r="1" fill="rgb(0,0,0)" />
	<circle cx="505.938" cy="776.905" r="1" fill="rgb(0,0,0)" />
	<circle cx="510.394" cy="150.735" r="1" fill="rgb(0,0,0)" />
	<circle cx="510.84" cy="150.791" r="1" fill="rgb(0,0,0)" />
	<circle cx="510.951" cy="819.129" r="1" fill="rgb(0,0,0)" />
	<circle cx="514.906" cy="173.797" r="1" fill="rgb(0,0,0)" />
	<circle cx="515.575" cy="785.651" r="1" fill="rgb(0,0,0)" />
	<circle cx="515.575" cy="472.371" r="1" fill="rgb(0,0,0)" />
	<circle cx="516.633" cy="653.576" r="1" fill="rgb(0,0,0)" />
	<circle cx="516.912" cy="644.274" r="1" fill="rgb(0,0,0)" />
	<circle cx="518.973" cy="98.7077" r="1" fill="rgb(0,0,0)" />
	<circle cx="521.145" cy="87.344" r="1" fill="rgb(0,0,0)" />
	<circle cx="522.148" cy="637.812" r="1" fill="rgb(0,0,0)" />
	<circle cx="524.32" cy="855.893" r="1" fill="rgb(0,0,0)" />
	<circle cx="525.546" cy="72.1368" r="1" fill="rgb(0,0,0)" />
	<circle cx="526.549" cy="910.484" r="1" fill="rgb(0,0,0)" />
	<circle cx="527.384" cy="93.0816" r="1" fill="rgb(0,0,0)" />
	<circle cx="527.718" cy="878.231" r="1" fill="rgb(0,0,0)" />
	<circle cx="528.498" cy="432.821" r="1" fill="rgb(0,0,0)" />
	<circle cx="528.721" cy="611.965" r="1" fill="rgb(0,0,0)" />
	<circle cx="530.726" cy="841.8" r="1" fill="rgb(0,0,0)" />
	<circle cx="530.949" cy="647.059" r="1" fill="rgb(0,0,0)" />
	<circle cx="531.228" cy="519.274" r="1" fill="rgb(0,0,0)" />
	<circle cx="535.238" cy="740.809" r="1" fill="rgb(0,0,0)" />
	<circle cx="535.74" cy="255.57" r="1" fill="rgb(0,0,0)" />
	<circle cx="538.414" cy="216.8" r="1" fill="rgb(0,0,0)" />
	<circle cx="538.971" cy="170.9" r="1" fill="rgb(0,0,0)" />
	<circle cx="539.806" cy="540.441" r="1" fill="rgb(0,0,0)" />
	<circle cx="540.14" cy="907.086" r="1" fill="rgb(0,0,0)" />
	<circle cx="540.14" cy="460.784" r="1" fill="rgb(0,0,0)" />
	<circle cx="540.697" cy="1001" r="1" fill="rgb(0,0,0)" />
	<circle cx="541.867" cy="472.594" r="1" fill="rgb(0,0,0)" />
	<circle cx="542.647" cy="984.904" r="1" fill="rgb(0,0,0)" />
	<circle cx="543.538" cy="766.711" r="1" fill="rgb(0,0,0)" />
	<circle cx="544.43" cy="211.731" r="1" fill="rgb(0,0,0)" />
	<circle cx="544.764" cy="946.747" r="1" fill="rgb(0,0,0)" />
	<circle cx="545.209" cy="380.96" r="1" fill="rgb(0,0,0)" />
	<circle cx="545.878" cy="219.864" r="1" fill="rgb(0,0,0)" />
	<circle cx="546.156" cy="208.89" r="1" fill="rgb(0,0,0)" />
	<circle cx="548.385" cy="199.755" r="1" fill="rgb(0,0,0)" />
	<circle cx="548.496" cy="495.488" r="1" fill="rgb(0,0,0)" />
	<circle cx="552.117" cy="844.975" r="1" fill="rgb(0,0,0)" />
	<circle cx="552.897" cy="92.246" r="1" fill="rgb(0,0,0)" />
	<circle cx="553.844" cy="233.456" r="1" fill="rgb(0,0,0)" />
	<circle cx="560.639" cy="73.8079" r="1" fill="rgb(0,0,0)" />
	<circle cx="564.205" cy="731.785" r="1" fill="rgb(0,0,0)" />
	<circle cx="564.984" cy="140.709" r="1" fill="rgb(0,0,0)" />
	<circle cx="566.544" cy="984.236" r="1" fill="rgb(0,0,0)" />
	<circle cx="577.351" cy="478.554" r="1" fill="rgb(0,0,0)" />
	<circle cx="578.576" cy="698.307" r="1" fill="rgb(0,0,0)" />
	<circle cx="579.523" cy="425.468" r="1" fill="rgb(0,0,0)" />
	<circle cx="579.913" cy="601.66" r="1" fill="rgb(0,0,0)" />
	<circle cx="580.192" cy="942.346" r="1" fill="rgb(0,0,0)" />
	<circle cx="580.749" cy="1006.74" r="1" fill="rgb(0,0,0)" />
	<circle cx="580.749" cy="541.667" r="1" fill="rgb(0,0,0)" />
	<circle cx="583.478" cy="784.369" r="1" fill="rgb(0,0,0)" />
	<circle cx="587.99" cy="571.023" r="1" fill="rgb(0,0,0)" />
	<circle cx="588.046" cy="595.198" r="1" fill="rgb(0,0,0)" />
	<circle cx="590.441" cy="1035.76" r="1" fill="rgb(0,0,0)" />
	<circle cx="591.834" cy="811.275" r="1" fill="rgb(0,0,0)" />
	<circle cx="592.168" cy="882.799" r="1" fill="rgb(0,0,0)" />
	<circle cx="592.224" cy="162.322" r="1" fill="rgb(0,0,0)" />
	<circle cx="592.335" cy="614.026" r="1" fill="rgb(0,0,0)" />
	<circle cx="593.728" cy="584.503" r="1" fill="rgb(0,0,0)" />
	<circle cx="596.346" cy="339.349" r="1" fill="rgb(0,0,0)" />
	<circle cx="597.014" cy="332.943" r="1" fill="rgb(0,0,0)" />
	<circle cx="597.348" cy="1015.6" r="1" fill="rgb(0,0,0)" />
	<circle cx="598.073" cy="430.258" r="1" fill="rgb(0,0,0)" />
	<circle cx="599.354" cy="176.638" r="1" fill="rgb(0,0,0)" />
	<circle cx="600.468" cy="186.553" r="1" fill="rgb(0,0,0)" />
	<circle cx="601.303" cy="535.316" r="1" fill="rgb(0,0,0)" />
	<circle cx="602.863" cy="717.469" r="1" fill="rgb(0,0,0)" />
	<circle cx="605.314" cy="647.337" r="1" fill="rgb(0,0,0)" />
	<circle cx="605.426" cy="282.42" r="1" fill="rgb(0,0,0)" />
	<circle cx="606.038" cy="798.295" r="1" fill="rgb(0,0,0)" />
	<circle cx="607.152" cy="415.33" r="1" fill="rgb(0,0,0)" />
	<circle cx="611.386" cy="653.855" r="1" fill="rgb(0,0,0)" />
	<circle cx="613.503" cy="721.312" r="1" fill="rgb(0,0,0)" />
	<circle cx="615.619" cy="634.414" r="1" fill="rgb(0,0,0)" />
	<circle cx="615.619" cy="583.333" r="1" fill="rgb(0,0,0)" />
	<circle cx="615.842" cy="729.111" r="1" fill="rgb(0,0,0)" />
	<circle cx="617.625" cy="640.653" r="1" fill="rgb(0,0,0)" />
	<circle cx="618.739" cy="903.91" r="1" fill="rgb(0,0,0)" />
	<circle cx="620.466" cy="165.441" r="1" fill="rgb(0,0,0)" />
	<circle cx="621.19" cy="274.677" r="1" fill="rgb(0,0,0)" />
	<circle cx="621.635" cy="880.013" r="1" fill="rgb(0,0,0)" />
	<circle cx="622.081" cy="124.443" r="1" fill="rgb(0,0,0)" />
	<circle cx="624.365" cy="407.587" r="1" fill="rgb(0,0,0)" />
	<circle cx="624.532" cy="975.1" r="1" fill="rgb(0,0,0)" />
	<circle cx="628.988" cy="300.746" r="1" fill="rgb(0,0,0)" />
	<circle cx="633.111" cy="181.205" r="1" fill="rgb(0,0,0)" />
	<circle cx="635.06" cy="274.566" r="1" fill="rgb(0,0,0)" />
	<circle cx="635.951" cy="768.995" r="1" fill="rgb(0,0,0)" />
	<circle cx="638.012" cy="569.129" r="1" fill="rgb(0,0,0)" />
	<circle cx="638.904" cy="252.117" r="1" fill="rgb(0,0,0)" />
	<circle cx="639.015" cy="386.308" r="1" fill="rgb(0,0,0)" />
	<circle cx="642.525" cy="776.348" r="1" fill="rgb(0,0,0)" />
	<circle cx="643.193" cy="377.952" r="1" fill="rgb(0,0,0)" />
	<circle cx="648.708" cy="1036.82" r="1" fill="rgb(0,0,0)" />
	<circle cx="649.209" cy="950.033" r="1" fill="rgb(0,0,0)" />
	<circle cx="650.936" cy="959.726" r="1" fill="rgb(0,0,0)" />
	<circle cx="650.936" cy="428.699" r="1" fill="rgb(0,0,0)" />
	<circle cx="651.939" cy="97.4265" r="1" fill="rgb(0,0,0)" />
	<circle cx="652.44" cy="548.295" r="1" fill="rgb(0,0,0)" />
	<circle cx="655.058" cy="829.49" r="1" fill="rgb(0,0,0)" />
	<circle cx="656.005" cy="696.468" r="1" fill="rgb(0,0,0)" />
	<circle cx="658.01" cy="793.839" r="1" fill="rgb(0,0,0)" />
	<circle cx="658.233" cy="939.115" r="1" fill="rgb(0,0,0)" />
	<circle cx="661.854" cy="775.29" r="1" fill="rgb(0,0,0)" />
	<circle cx="663.525" cy="997.438" r="1" fill="rgb(0,0,0)" />
	<circle cx="668.705" cy="672.348" r="1" fill="rgb(0,0,0)" />
	<circle cx="673.552" cy="551.471" r="1" fill="rgb(0,0,0)" />
	<circle cx="674.276" cy="248.44" r="1" fill="rgb(0,0,0)" />
	<circle cx="675.279" cy="624.164" r="1" fill="rgb(0,0,0)" />
	<circle cx="677.507" cy="1025.62" r="1" fill="rgb(0,0,0)" />
	<circle cx="680.125" cy="143.772" r="1" fill="rgb(0,0,0)" />
	<circle cx="683.857" cy="254.401" r="1" fill="rgb(0,0,0)" />
	<circle cx="686.809" cy="878.342" r="1" fill="rgb(0,0,0)" />
	<circle cx="687.701" cy="553.253" r="1" fill="rgb(0,0,0)" />
	<circle cx="688.09" cy="860.684" r="1" fill="rgb(0,0,0)" />
	<circle cx="688.87" cy="63.3913" r="1" fill="rgb(0,0,0)" />
	<circle cx="689.037" cy="641.6" r="1" fill="rgb(0,0,0)" />
	<circle cx="691.488" cy="1033.14" r="1" fill="rgb(0,0,0)" />
	<circle cx="692.825" cy="91.8561" r="1" fill="rgb(0,0,0)" />
	<circle cx="695.109" cy="499.22" r="1" fill="rgb(0,0,0)" />
	<circle cx="698.619" cy="336.508" r="1" fill="rgb(0,0,0)" />
	<circle cx="701.849" cy="968.193" r="1" fill="rgb(0,0,0)" />
	<circle cx="702.852" cy="962.957" r="1" fill="rgb(0,0,0)" />
	<circle cx="704.635" cy="798.908" r="1" fill="rgb(0,0,0)" />
	<circle cx="705.414" cy="663.436" r="1" fill="rgb(0,0,0)" />
	<circle cx="706.863" cy="745.655" r="1" fill="rgb(0,0,0)" />
	<circle cx="712.545" cy="157.141" r="1" fill="rgb(0,0,0)" />
	<circle cx="714.884" cy="1023.34" r="1" fill="rgb(0,0,0)" />
	<circle cx="715.998" cy="542.781" r="1" fill="rgb(0,0,0)" />
	<circle cx="717.948" cy="215.575" r="1" fill="rgb(0,0,0)" />
	<circle cx="722.181" cy="1031.08" r="1" fill="rgb(0,0,0)" />
	<circle cx="724.799" cy="516.043" r="1" fill="rgb(0,0,0)" />
	<circle cx="724.855" cy="378.955" r="1" fill="rgb(0,0,0)" />
	<circle cx="725.524" cy="176.303" r="1" fill="rgb(0,0,0)" />
	<circle cx="730.648" cy="751.393" r="1" fill="rgb(0,0,0)" />
	<circle cx="731.205" cy="328.654" r="1" fill="rgb(0,0,0)" />
	<circle cx="733.824" cy="595.978" r="1" fill="rgb(0,0,0)" />
	<circle cx="734.325" cy="442.959" r="1" fill="rgb(0,0,0)" />
	<circle cx="745.076" cy="922.571" r="1" fill="rgb(0,0,0)" />
	<circle cx="745.856" cy="241.979" r="1" fill="rgb(0,0,0)" />
	<circle cx="747.917" cy="880.236" r="1" fill="rgb(0,0,0)" />
	<circle cx="751.593" cy="725.824" r="1" fill="rgb(0,0,0)" />
	<circle cx="752.596" cy="159.091" r="1" fill="rgb(0,0,0)" />
	<circle cx="756.774" cy="782.754" r="1" fill="rgb(0,0,0)" />
	<circle cx="759.392" cy="166.332" r="1" fill="rgb(0,0,0)" />
	<circle cx="759.893" cy="1046.23" r="1" fill="rgb(0,0,0)" />
	<circle cx="763.347" cy="98.4291" r="1" fill="rgb(0,0,0)" />
	<circle cx="765.185" cy="810.216" r="1" fill="rgb(0,0,0)" />
	<circle cx="766.856" cy="380.849" r="1" fill="rgb(0,0,0)" />
	<circle cx="770.31" cy="595.087" r="1" fill="rgb(0,0,0)" />
	<circle cx="770.533" cy="367.257" r="1" fill="rgb(0,0,0)" />
	<circle cx="771.702" cy="287.823" r="1" fill="rgb(0,0,0)" />
	<circle cx="772.872" cy="782.531" r="1" fill="rgb(0,0,0)" />
	<circle cx="773.262" cy="434.046" r="1" fill="rgb(0,0,0)" />
	<circle cx="776.047" cy="223.819" r="1" fill="rgb(0,0,0)" />
	<circle cx="776.381" cy="1007.41" r="1" fill="rgb(0,0,0)" />
	<circle cx="777.607" cy="449.699" r="1" fill="rgb(0,0,0)" />
	<circle cx="777.774" cy="755.292" r="1" fill="rgb(0,0,0)" />
	<circle cx="781.952" cy="90.9091" r="1" fill="rgb(0,0,0)" />
	<circle cx="782.063" cy="413.38" r="1" fill="rgb(0,0,0)" />
	<circle cx="782.175" cy="261.029" r="1" fill="rgb(0,0,0)" />
	<circle cx="785.907" cy="384.525" r="1" fill="rgb(0,0,0)" />
	<circle cx="796.212" cy="1030.97" r="1" fill="rgb(0,0,0)" />
	<circle cx="797.438" cy="734.626" r="1" fill="rgb(0,0,0)" />
	<circle cx="797.995" cy="223.039" r="1" fill="rgb(0,0,0)" />
	<circle cx="798.106" cy="696.524" r="1" fill="rgb(0,0,0)" />
	<circle cx="800.111" cy="878.008" r="1" fill="rgb(0,0,0)" />
	<circle cx="807.52" cy="593.694" r="1" fill="rgb(0,0,0)" />
	<circle cx="810.25" cy="692.959" r="1" fill="rgb(0,0,0)" />
	<circle cx="811.308" cy="392.937" r="1" fill="rgb(0,0,0)" />
	<circle cx="815.82" cy="408.367" r="1" fill="rgb(0,0,0)" />
	<circle cx="816.767" cy="514.929" r="1" fill="rgb(0,0,0)" />
	<circle cx="821.502" cy="357.342" r="1" fill="rgb(0,0,0)" />
	<circle cx="823.897" cy="73.1395" r="1" fill="rgb(0,0,0)" />
	<circle cx="828.298" cy="998.44" r="1" fill="rgb(0,0,0)" />
	<circle cx="831.417" cy="815.954" r="1" fill="rgb(0,0,0)" />
	<circle cx="831.584" cy="886.475" r="1" fill="rgb(0,0,0)" />
	<circle cx="832.197" cy="897.115" r="1" fill="rgb(0,0,0)" />
	<circle cx="836.765" cy="1050.47" r="1" fill="rgb(0,0,0)" />
	<circle cx="838.659" cy="996.212" r="1" fill="rgb(0,0,0)" />
	<circle cx="839.049" cy="639.539" r="1" fill="rgb(0,0,0)" />
	<circle cx="841.667" cy="63.8926" r="1" fill="rgb(0,0,0)" />
	<circle cx="843.783" cy="355.726" r="1" fill="rgb(0,0,0)" />
	<circle cx="845.733" cy="629.846" r="1" fill="rgb(0,0,0)" />
	<circle cx="846.012" cy="433.322" r="1" fill="rgb(0,0,0)" />
	<circle cx="848.24" cy="694.463" r="1" fill="rgb(0,0,0)" />
	<circle cx="849.632" cy="618.538" r="1" fill="rgb(0,0,0)" />
	<circle cx="849.799" cy="550.914" r="1" fill="rgb(0,0,0)" />
	<circle cx="851.638" cy="569.909" r="1" fill="rgb(0,0,0)" />
	<circle cx="851.749" cy="872.382" r="1" fill="rgb(0,0,0)" />
	<circle cx="852.139" cy="565.118" r="1" fill="rgb(0,0,0)" />
	<circle cx="853.42" cy="324.142" r="1" fill="rgb(0,0,0)" />
	<circle cx="855.258" cy="499.22" r="1" fill="rgb(0,0,0)" />
	<circle cx="855.816" cy="875.724" r="1" fill="rgb(0,0,0)" />
	<circle cx="857.375" cy="668.895" r="1" fill="rgb(0,0,0)" />
	<circle cx="862.333" cy="147.003" r="1" fill="rgb(0,0,0)" />
	<circle cx="863.113" cy="244.374" r="1" fill="rgb(0,0,0)" />
	<circle cx="868.739" cy="284.982" r="1" fill="rgb(0,0,0)" />
	<circle cx="869.742" cy="510.417" r="1" fill="rgb(0,0,0)" />
	<circle cx="870.299" cy="624.499" r="1" fill="rgb(0,0,0)" />
	<circle cx="875.423" cy="514.706" r="1" fill="rgb(0,0,0)" />
	<circle cx="875.813" cy="657.364" r="1" fill="rgb(0,0,0)" />
	<circle cx="879.768" cy="982.509" r="1" fill="rgb(0,0,0)" />
	<circle cx="880.437" cy="1007.24" r="1" fill="rgb(0,0,0)" />
	<circle cx="881.718" cy="444.519" r="1" fill="rgb(0,0,0)" />
	<circle cx="883.278" cy="300.357" r="1" fill="rgb(0,0,0)" />
	<circle cx="883.333" cy="146.725" r="1" fill="rgb(0,0,0)" />
	<circle cx="884.67" cy="493.483" r="1" fill="rgb(0,0,0)" />
	<circle cx="885.227" cy="614.639" r="1" fill="rgb(0,0,0)" />
	<circle cx="886.453" cy="732.453" r="1" fill="rgb(0,0,0)" />
	<circle cx="886.62" cy="409.035" r="1" fill="rgb(0,0,0)" />
	<circle cx="888.235" cy="694.686" r="1" fill="rgb(0,0,0)" />
	<circle cx="888.904" cy="883.021" r="1" fill="rgb(0,0,0)" />
	<circle cx="889.461" cy="172.348" r="1" fill="rgb(0,0,0)" />
	<circle cx="891.466" cy="188.001" r="1" fill="rgb(0,0,0)" />
	<circle cx="893.471" cy="934.659" r="1" fill="rgb(0,0,0)" />
	<circle cx="895.31" cy="174.187" r="1" fill="rgb(0,0,0)" />
	<circle cx="896.424" cy="691.399" r="1" fill="rgb(0,0,0)" />
	<circle cx="897.148" cy="365.92" r="1" fill="rgb(0,0,0)" />
	<circle cx="897.426" cy="804.757" r="1" fill="rgb(0,0,0)" />
	<circle cx="897.928" cy="237.857" r="1" fill="rgb(0,0,0)" />
	<circle cx="898.708" cy="235.573" r="1" fill="rgb(0,0,0)" />
	<circle cx="901.883" cy="134.581" r="1" fill="rgb(0,0,0)" />
	<circle cx="905.671" cy="213.291" r="1" fill="rgb(0,0,0)" />
	<circle cx="912.132" cy="496.658" r="1" fill="rgb(0,0,0)" />
	<circle cx="913.915" cy="166.611" r="1" fill="rgb(0,0,0)" />
	<circle cx="916.032" cy="1033.98" r="1" fill="rgb(0,0,0)" />
	<circle cx="916.533" cy="584.336" r="1" fill="rgb(0,0,0)" />
	<circle cx="918.594" cy="165.385" r="1" fill="rgb(0,0,0)" />
	<circle cx="921.156" cy="422.014" r="1" fill="rgb(0,0,0)" />
	<circle cx="931.127" cy="649.733" r="1" fill="rgb(0,0,0)" />
	<circle cx="931.183" cy="1042.39" r="1" fill="rgb(0,0,0)" />
	<circle cx="937.645" cy="910.428" r="1" fill="rgb(0,0,0)" />
	<circle cx="938.146" cy="482.787" r="1" fill="rgb(0,0,0)" />
	<circle cx="942.268" cy="543.282" r="1" fill="rgb(0,0,0)" />
	<circle cx="944.274" cy="740.475" r="1" fill="rgb(0,0,0)" />
	<circle cx="944.441" cy="319.129" r="1" fill="rgb(0,0,0)" />
	<circle cx="948.619" cy="917.279" r="1" fill="rgb(0,0,0)" />
	<circle cx="948.619" cy="365.809" r="1" fill="rgb(0,0,0)" />
	<circle cx="948.953" cy="479.334" r="1" fill="rgb(0,0,0)" />
	<circle cx="949.12" cy="403.242" r="1" fill="rgb(0,0,0)" />
	<circle cx="951.237" cy="50.0223" r="1" fill="rgb(0,0,0)" />
	<circle cx="951.905" cy="788.269" r="1" fill="rgb(0,0,0)" />
	<circle cx="953.576" cy="971.48" r="1" fill="rgb(0,0,0)" />
	<circle cx="953.743" cy="92.7473" r="1" fill="rgb(0,0,0)" />
	<circle cx="955.749" cy="576.092" r="1" fill="rgb(0,0,0)" />
	<circle cx="956.417" cy="318.07" r="1" fill="rgb(0,0,0)" />
	<circle cx="956.473" cy="385.25" r="1" fill="rgb(0,0,0)" />
	<circle cx="958.311" cy="839.962" r="1" fill="rgb(0,0,0)" />
	<circle cx="958.98" cy="962.734" r="1" fill="rgb(0,0,0)" />
	<circle cx="959.314" cy="457.275" r="1" fill="rgb(0,0,0)" />
	<circle cx="960.094" cy="74.6992" r="1" fill="rgb(0,0,0)" />
	<circle cx="960.261" cy="834.057" r="1" fill="rgb(0,0,0)" />
	<circle cx="960.316" cy="254.958" r="1" fill="rgb(0,0,0)" />
	<circle cx="963.492" cy="289.104" r="1" fill="rgb(0,0,0)" />
	<circle cx="963.714" cy="1040.39" r="1" fill="rgb(0,0,0)" />
	<circle cx="963.881" cy="368.873" r="1" fill="rgb(0,0,0)" />
	<circle cx="964.049" cy="732.453" r="1" fill="rgb(0,0,0)" />
	<circle cx="965.998" cy="458.333" r="1" fill="rgb(0,0,0)" />
	<circle cx="968.505" cy="1030.92" r="1" fill="rgb(0,0,0)" />
	<circle cx="976.136" cy="342.747" r="1" fill="rgb(0,0,0)" />
	<circle cx="980.147" cy="668.951" r="1" fill="rgb(0,0,0)" />
	<circle cx="980.76" cy="935.049" r="1" fill="rgb(0,0,0)" />
	<circle cx="980.983" cy="519.496" r="1" fill="rgb(0,0,0)" />
	<circle cx="984.659" cy="454.156" r="1" fill="rgb(0,0,0)" />
	<circle cx="985.105" cy="535.428" r="1" fill="rgb(0,0,0)" />
	<circle cx="987.834" cy="286.041" r="1" fill="rgb(0,0,0)" />
	<circle cx="991.789" cy="113.358" r="1" fill="rgb(0,0,0)" />
	<circle cx="995.41" cy="218.75" r="1" fill="rgb(0,0,0)" />
	<circle cx="1002.87" cy="908.033" r="1" fill="rgb(0,0,0)" />
	<circle cx="1003.82" cy="598.039" r="1" fill="rgb(0,0,0)" />
	<circle cx="1004.49" cy="872.382" r="1" fill="rgb(0,0,0)" />
	<circle cx="1005.16" cy="196.97" r="1" fill="rgb(0,0,0)" />
	<circle cx="1006.89" cy="71.5241" r="1" fill="rgb(0,0,0)" />
	<circle cx="1007.27" cy="179.423" r="1" fill="rgb(0,0,0)" />
	<circle cx="1007.33" cy="294.229" r="1" fill="rgb(0,0,0)" />
	<circle cx="1010" cy="726.381" r="1" fill="rgb(0,0,0)" />
	<circle cx="1010.12" cy="767.602" r="1" fill="rgb(0,0,0)" />
	<circle cx="1011.9" cy="71.914" r="1" fill="rgb(0,0,0)" />
	<circle cx="1012.73" cy="879.568" r="1" fill="rgb(0,0,0)" />
	<circle cx="1012.79" cy="573.084" r="1" fill="rgb(0,0,0)" />
	<circle cx="1014.35" cy="605.225" r="1" fill="rgb(0,0,0)" />
	<circle cx="1015.96" cy="850.88" r="1" fill="rgb(0,0,0)" />
	<circle cx="1019.25" cy="474.265" r="1" fill="rgb(0,0,0)" />
	<circle cx="1021.15" cy="805.871" r="1" fill="rgb(0,0,0)" />
	<circle cx="1021.76" cy="531.974" r="1" fill="rgb(0,0,0)" />
	<circle cx="1023.71" cy="742.758" r="1" fill="rgb(0,0,0)" />
	<circle cx="1026.44" cy="835.729" r="1" fill="rgb(0,0,0)" />
	<circle cx="1028.22" cy="829.991" r="1" fill="rgb(0,0,0)" />
	<circle cx="1029.78" cy="937.89" r="1" fill="rgb(0,0,0)" />
	<circle cx="1030.67" cy="341.689" r="1" fill="rgb(0,0,0)" />
	<circle cx="1031.67" cy="356.339" r="1" fill="rgb(0,0,0)" />
	<circle cx="1032.62" cy="803.699" r="1" fill="rgb(0,0,0)" />
	<circle cx="1033.79" cy="143.605" r="1" fill="rgb(0,0,0)" />
	<circle cx="1036.02" cy="451.315" r="1" fill="rgb(0,0,0)" />
	<circle cx="1038.58" cy="247.772" r="1" fill="rgb(0,0,0)" />
	<circle cx="1038.64" cy="185.216" r="1" fill="rgb(0,0,0)" />
	<circle cx="1039.25" cy="1020.22" r="1" fill="rgb(0,0,0)" />
	<circle cx="1039.47" cy="941.455" r="1" fill="rgb(0,0,0)" />
	<circle cx="1039.64" cy="174.187" r="1" fill="rgb(0,0,0)" />
	<circle cx="1040.64" cy="506.462" r="1" fill="rgb(0,0,0)" />
	<circle cx="1043.65" cy="993.705" r="1" fill="rgb(0,0,0)" />
	<circle cx="1044.1" cy="417.725" r="1" fill="rgb(0,0,0)" />
	<circle cx="1047.66" cy="853.832" r="1" fill="rgb(0,0,0)" />
	<circle cx="1048.66" cy="936.219" r="1" fill="rgb(0,0,0)" />
	<circle cx="1048.72" cy="477.885" r="1" fill="rgb(0,0,0)" />
	<circle cx="1050" cy="1032.2" r="1" fill="rgb(0,0,0)" />
</svg>
